<svg width="14" height="14" viewBox="0 0 14 14" fill="none" xmlns="http://www.w3.org/2000/svg">
<mask id="mask0_1137_7273" style="mask-type:alpha" maskUnits="userSpaceOnUse" x="0" y="0" width="14" height="14">
<rect width="14" height="14" fill="#D9D9D9"/>
</mask>
<g mask="url(#mask0_1137_7273)">
<path d="M2.91667 12.8332C2.59583 12.8332 2.32118 12.7189 2.09271 12.4905C1.86424 12.262 1.75 11.9873 1.75 11.6665V3.49984C1.75 3.179 1.86424 2.90435 2.09271 2.67588C2.32118 2.44741 2.59583 2.33317 2.91667 2.33317H3.5V1.74984C3.5 1.58456 3.5559 1.44602 3.66771 1.33421C3.77951 1.22241 3.91806 1.1665 4.08333 1.1665C4.24861 1.1665 4.38715 1.22241 4.49896 1.33421C4.61076 1.44602 4.66667 1.58456 4.66667 1.74984V2.33317H9.33333V1.74984C9.33333 1.58456 9.38924 1.44602 9.50104 1.33421C9.61285 1.22241 9.75139 1.1665 9.91667 1.1665C10.0819 1.1665 10.2205 1.22241 10.3323 1.33421C10.4441 1.44602 10.5 1.58456 10.5 1.74984V2.33317H11.0833C11.4042 2.33317 11.6788 2.44741 11.9073 2.67588C12.1358 2.90435 12.25 3.179 12.25 3.49984V11.6665C12.25 11.9873 12.1358 12.262 11.9073 12.4905C11.6788 12.7189 11.4042 12.8332 11.0833 12.8332H2.91667ZM2.91667 11.6665H11.0833V5.83317H2.91667V11.6665ZM7 8.1665C6.83472 8.1665 6.69618 8.1106 6.58437 7.9988C6.47257 7.88699 6.41667 7.74845 6.41667 7.58317C6.41667 7.41789 6.47257 7.27935 6.58437 7.16755C6.69618 7.05574 6.83472 6.99984 7 6.99984C7.16528 6.99984 7.30382 7.05574 7.41563 7.16755C7.52743 7.27935 7.58333 7.41789 7.58333 7.58317C7.58333 7.74845 7.52743 7.88699 7.41563 7.9988C7.30382 8.1106 7.16528 8.1665 7 8.1665ZM4.66667 8.1665C4.50139 8.1665 4.36285 8.1106 4.25104 7.9988C4.13924 7.88699 4.08333 7.74845 4.08333 7.58317C4.08333 7.41789 4.13924 7.27935 4.25104 7.16755C4.36285 7.05574 4.50139 6.99984 4.66667 6.99984C4.83194 6.99984 4.97049 7.05574 5.08229 7.16755C5.1941 7.27935 5.25 7.41789 5.25 7.58317C5.25 7.74845 5.1941 7.88699 5.08229 7.9988C4.97049 8.1106 4.83194 8.1665 4.66667 8.1665ZM9.33333 8.1665C9.16806 8.1665 9.02951 8.1106 8.91771 7.9988C8.8059 7.88699 8.75 7.74845 8.75 7.58317C8.75 7.41789 8.8059 7.27935 8.91771 7.16755C9.02951 7.05574 9.16806 6.99984 9.33333 6.99984C9.49861 6.99984 9.63715 7.05574 9.74896 7.16755C9.86076 7.27935 9.91667 7.41789 9.91667 7.58317C9.91667 7.74845 9.86076 7.88699 9.74896 7.9988C9.63715 8.1106 9.49861 8.1665 9.33333 8.1665ZM7 10.4998C6.83472 10.4998 6.69618 10.4439 6.58437 10.3321C6.47257 10.2203 6.41667 10.0818 6.41667 9.9165C6.41667 9.75123 6.47257 9.61269 6.58437 9.50088C6.69618 9.38907 6.83472 9.33317 7 9.33317C7.16528 9.33317 7.30382 9.38907 7.41563 9.50088C7.52743 9.61269 7.58333 9.75123 7.58333 9.9165C7.58333 10.0818 7.52743 10.2203 7.41563 10.3321C7.30382 10.4439 7.16528 10.4998 7 10.4998ZM4.66667 10.4998C4.50139 10.4998 4.36285 10.4439 4.25104 10.3321C4.13924 10.2203 4.08333 10.0818 4.08333 9.9165C4.08333 9.75123 4.13924 9.61269 4.25104 9.50088C4.36285 9.38907 4.50139 9.33317 4.66667 9.33317C4.83194 9.33317 4.97049 9.38907 5.08229 9.50088C5.1941 9.61269 5.25 9.75123 5.25 9.9165C5.25 10.0818 5.1941 10.2203 5.08229 10.3321C4.97049 10.4439 4.83194 10.4998 4.66667 10.4998ZM9.33333 10.4998C9.16806 10.4998 9.02951 10.4439 8.91771 10.3321C8.8059 10.2203 8.75 10.0818 8.75 9.9165C8.75 9.75123 8.8059 9.61269 8.91771 9.50088C9.02951 9.38907 9.16806 9.33317 9.33333 9.33317C9.49861 9.33317 9.63715 9.38907 9.74896 9.50088C9.86076 9.61269 9.91667 9.75123 9.91667 9.9165C9.91667 10.0818 9.86076 10.2203 9.74896 10.3321C9.63715 10.4439 9.49861 10.4998 9.33333 10.4998Z" fill="#676666"/>
</g>
</svg>
