<svg width="14" height="14" viewBox="0 0 14 14" fill="none" xmlns="http://www.w3.org/2000/svg">
<mask id="mask0_1137_7287" style="mask-type:alpha" maskUnits="userSpaceOnUse" x="0" y="0" width="14" height="14">
<rect width="14" height="14" fill="#D9D9D9"/>
</mask>
<g mask="url(#mask0_1137_7287)">
<path d="M7.59831 1.89577C7.59831 1.70132 7.67122 1.54577 7.81706 1.4291C7.96289 1.31243 8.12817 1.27355 8.31289 1.31243C9.43095 1.56521 10.3862 2.09264 11.1785 2.89473C11.9709 3.69681 12.4837 4.65688 12.7171 5.77493C12.7559 5.94021 12.7195 6.08848 12.6077 6.21973C12.4959 6.35098 12.3428 6.4166 12.1483 6.4166H8.77956C8.74067 6.4166 8.70664 6.40688 8.67747 6.38743C8.64831 6.36799 8.624 6.33882 8.60456 6.29993C8.51706 6.09577 8.39553 5.91348 8.23997 5.75306C8.08442 5.59264 7.90942 5.46868 7.71497 5.38118C7.67608 5.36174 7.64692 5.33987 7.62747 5.31556C7.60803 5.29125 7.59831 5.25966 7.59831 5.22077V1.89577ZM5.67331 12.6729C4.37053 12.3715 3.29622 11.6958 2.45039 10.6458C1.60456 9.59577 1.18164 8.38049 1.18164 6.99994C1.18164 5.61938 1.60456 4.40653 2.45039 3.36139C3.29622 2.31625 4.37053 1.63813 5.67331 1.32702C5.86775 1.27841 6.04275 1.31973 6.19831 1.45098C6.35386 1.58223 6.43164 1.74993 6.43164 1.9541V5.24993C6.43164 5.25966 6.40247 5.29855 6.34414 5.3666C6.01359 5.50271 5.75108 5.71903 5.55664 6.01556C5.3622 6.31209 5.26497 6.64021 5.26497 6.99994C5.26497 7.35966 5.3622 7.68292 5.55664 7.96973C5.75108 8.25653 6.01359 8.46799 6.34414 8.6041C6.36358 8.61382 6.39275 8.65271 6.43164 8.72077V12.0458C6.43164 12.2499 6.35386 12.4176 6.19831 12.5489C6.04275 12.6801 5.86775 12.7215 5.67331 12.6729ZM8.23997 12.702C8.0747 12.7409 7.92643 12.7044 7.79518 12.5926C7.66393 12.4808 7.59831 12.3374 7.59831 12.1624V8.76452C7.59831 8.72563 7.60803 8.6916 7.62747 8.66243C7.64692 8.63327 7.67608 8.60896 7.71497 8.58952C7.90942 8.50202 8.08442 8.38049 8.23997 8.22493C8.39553 8.06938 8.51706 7.89438 8.60456 7.69993C8.61428 7.68049 8.66775 7.6416 8.76497 7.58327H12.1483C12.3233 7.58327 12.4691 7.65619 12.5858 7.80202C12.7025 7.94785 12.7414 8.11313 12.7025 8.29785C12.4594 9.41591 11.9344 10.3711 11.1275 11.1635C10.3205 11.9558 9.35803 12.4687 8.23997 12.702Z" fill="#676666"/>
</g>
</svg>
