<svg fill="none" height="21" viewBox="0 0 21 21" width="21" xmlns="http://www.w3.org/2000/svg">
    <mask style="mask-type:alpha" height="21" id="mask0_1137_7159" maskUnits="userSpaceOnUse" width="21" x="0" y="0">
        <rect fill="#D9D9D9" height="20.1268" width="20.1268" x="0.833984" y="0.396973" />
    </mask>
    <g mask="url(#mask0_1137_7159)">
        <path
            d="M10.8979 18.2488C10.7022 18.2488 10.503 18.2139 10.3004 18.144C10.0977 18.0741 9.91949 17.9623 9.76575 17.8085L8.31913 16.4877C6.83758 15.132 5.49929 13.7867 4.30426 12.4519C3.10923 11.1171 2.51172 9.646 2.51172 8.03866C2.51172 6.72483 2.95199 5.62764 3.83254 4.74709C4.71309 3.86654 5.81027 3.42627 7.12411 3.42627C7.86488 3.42627 8.56373 3.58351 9.22065 3.89799C9.87756 4.21247 10.4366 4.64226 10.8979 5.18736C11.3591 4.64226 11.9182 4.21247 12.5751 3.89799C13.232 3.58351 13.9309 3.42627 14.6716 3.42627C15.9855 3.42627 17.0827 3.86654 17.9632 4.74709C18.8438 5.62764 19.284 6.72483 19.284 8.03866C19.284 9.646 18.69 11.1206 17.502 12.4624C16.3139 13.8041 14.9652 15.1529 13.4557 16.5087L12.03 17.8085C11.8763 17.9623 11.6981 18.0741 11.4954 18.144C11.2927 18.2139 11.0936 18.2488 10.8979 18.2488Z"
            fill="#DBDBDB" />
    </g>
</svg>
