<svg fill="none" height="25" viewBox="0 0 25 25" width="25" xmlns="http://www.w3.org/2000/svg">
    <path
        d="M10.4832 0.029952C4.70246 0.029952 0 4.73241 0 10.5131C0 16.2939 4.70246 20.9963 10.4832 20.9963C12.2504 20.9963 13.9876 20.577 15.4552 19.7683C15.5728 19.9098 15.7031 20.0401 15.8446 20.1577L18.8398 23.1529C19.1164 23.4641 19.4536 23.7155 19.8309 23.8916C20.2081 24.0678 20.6174 24.1649 21.0335 24.1772C21.4497 24.1894 21.8639 24.1165 22.2509 23.9629C22.6378 23.8092 22.9893 23.5781 23.2837 23.2837C23.5781 22.9893 23.8092 22.6378 23.9629 22.2509C24.1165 21.8639 24.1894 21.4497 24.1772 21.0335C24.1649 20.6174 24.0678 20.2081 23.8916 19.8309C23.7155 19.4536 23.4641 19.1164 23.1529 18.8398L20.1577 15.8446C20.0118 15.6986 19.8512 15.5682 19.6784 15.4552C20.4872 13.9876 20.9963 12.2803 20.9963 10.4832C20.9963 4.70246 16.2939 0 10.5131 0L10.4832 0.029952ZM10.4832 3.02515C14.6465 3.02515 17.9712 6.34982 17.9712 10.5131C17.9712 12.49 17.2523 14.317 15.9944 15.6649C15.9644 15.6948 15.9345 15.7248 15.9045 15.7547C15.763 15.8723 15.6327 16.0026 15.5151 16.1441C14.1972 17.3422 12.4001 18.0311 10.4532 18.0311C6.28992 18.0311 2.96525 14.7064 2.96525 10.5431C2.96525 6.37977 6.28992 3.0551 10.4532 3.0551L10.4832 3.02515Z"
        fill="#015486" />
</svg>
