<svg width="14" height="14" viewBox="0 0 14 14" fill="none" xmlns="http://www.w3.org/2000/svg">
<mask id="mask0_1137_7280" style="mask-type:alpha" maskUnits="userSpaceOnUse" x="0" y="0" width="14" height="14">
<rect width="14" height="14" fill="#D9D9D9"/>
</mask>
<g mask="url(#mask0_1137_7280)">
<path d="M3.20801 12.2498V8.45817H2.91634C2.75106 8.45817 2.61252 8.40227 2.50072 8.29046C2.38891 8.17866 2.33301 8.04012 2.33301 7.87484V5.24984C2.33301 4.929 2.44724 4.65435 2.67572 4.42588C2.90419 4.19741 3.17884 4.08317 3.49967 4.08317H5.24967C5.57051 4.08317 5.84516 4.19741 6.07363 4.42588C6.3021 4.65435 6.41634 4.929 6.41634 5.24984V7.87484C6.41634 8.04012 6.36044 8.17866 6.24863 8.29046C6.13683 8.40227 5.99829 8.45817 5.83301 8.45817H5.54134V12.2498C5.54134 12.4151 5.48544 12.5537 5.37363 12.6655C5.26183 12.7773 5.12329 12.8332 4.95801 12.8332H3.79134C3.62606 12.8332 3.48752 12.7773 3.37572 12.6655C3.26391 12.5537 3.20801 12.4151 3.20801 12.2498ZM4.37467 3.49984C4.05384 3.49984 3.77919 3.3856 3.55072 3.15713C3.32224 2.92866 3.20801 2.654 3.20801 2.33317C3.20801 2.01234 3.32224 1.73768 3.55072 1.50921C3.77919 1.28074 4.05384 1.1665 4.37467 1.1665C4.69551 1.1665 4.97016 1.28074 5.19863 1.50921C5.4271 1.73768 5.54134 2.01234 5.54134 2.33317C5.54134 2.654 5.4271 2.92866 5.19863 3.15713C4.97016 3.3856 4.69551 3.49984 4.37467 3.49984ZM8.74967 12.2498V9.33317H7.80176C7.60731 9.33317 7.45176 9.25296 7.33509 9.09255C7.21842 8.93213 7.19412 8.7547 7.26217 8.56025L8.48717 4.87067C8.56495 4.61789 8.70835 4.42345 8.91738 4.28734C9.12641 4.15123 9.36217 4.08317 9.62467 4.08317C9.88717 4.08317 10.1229 4.15123 10.332 4.28734C10.541 4.42345 10.6844 4.61789 10.7622 4.87067L11.9872 8.56025C12.0552 8.7547 12.0309 8.93213 11.9143 9.09255C11.7976 9.25296 11.642 9.33317 11.4476 9.33317H10.4997V12.2498C10.4997 12.4151 10.4438 12.5537 10.332 12.6655C10.2202 12.7773 10.0816 12.8332 9.91634 12.8332H9.33301C9.16773 12.8332 9.02919 12.7773 8.91738 12.6655C8.80558 12.5537 8.74967 12.4151 8.74967 12.2498ZM9.62467 3.49984C9.30384 3.49984 9.02919 3.3856 8.80072 3.15713C8.57224 2.92866 8.45801 2.654 8.45801 2.33317C8.45801 2.01234 8.57224 1.73768 8.80072 1.50921C9.02919 1.28074 9.30384 1.1665 9.62467 1.1665C9.94551 1.1665 10.2202 1.28074 10.4486 1.50921C10.6771 1.73768 10.7913 2.01234 10.7913 2.33317C10.7913 2.654 10.6771 2.92866 10.4486 3.15713C10.2202 3.3856 9.94551 3.49984 9.62467 3.49984Z" fill="#676666"/>
</g>
</svg>
