<svg width="148" height="95" viewBox="0 0 148 95" fill="none" xmlns="http://www.w3.org/2000/svg">
<path d="M116.86 20.1641H32.3394C27.2854 20.1641 23.1738 24.2757 23.1738 29.3297V85.3493C23.1738 90.4033 27.2854 94.5149 32.3394 94.5149H116.86C121.914 94.5149 126.026 90.4033 126.026 85.3493V29.3297C126.026 24.2754 121.914 20.1641 116.86 20.1641Z" fill="url(#paint0_linear_66_10888)"/>
<path d="M126.026 29.334V85.3449C126.026 90.4008 121.912 94.5149 116.856 94.5149H32.3438C27.2879 94.5149 23.1738 90.4008 23.1738 85.3449V80.8839H100.747C105.802 80.8839 109.916 76.7698 109.916 71.7139V20.1641H116.856C121.912 20.1641 126.026 24.2781 126.026 29.334Z" fill="url(#paint1_linear_66_10888)"/>
<path d="M81.404 76.2627C81.404 81.0211 77.5377 84.8874 72.7793 84.8874C71.3666 84.8874 70.0283 84.5404 68.8387 83.9208C66.0629 82.4958 64.167 79.5961 64.167 76.2627C64.167 71.5166 68.0332 67.6504 72.7793 67.6504C73.1882 67.6504 73.5972 67.6752 73.9813 67.7495C78.1697 68.3196 81.404 71.9256 81.404 76.2627Z" fill="url(#paint2_linear_66_10888)"/>
<path d="M81.3047 77.5825C80.7734 81.1244 77.984 84.0418 74.4682 84.7233C72.4371 85.1171 70.4941 84.7828 68.8389 83.9206L71.5242 81.6883C72.2932 81.0489 72.912 80.2482 73.3367 79.3428C73.7613 78.4374 73.9815 77.4497 73.9815 76.4496V67.749C78.5881 68.3767 82.0408 72.6766 81.3047 77.5825Z" fill="url(#paint3_linear_66_10888)"/>
<path d="M73.4511 31.3174C70.2636 31.3174 67.6709 33.9107 67.6709 37.0982V38.2332C67.6709 41.4207 70.2636 44.014 73.4511 44.014C76.6385 44.014 79.2318 41.4207 79.2318 38.2332V37.0982C79.2318 33.9107 76.6385 31.3174 73.4511 31.3174Z" fill="#FF7963"/>
<path d="M97.4011 76.1255C97.4011 77.377 96.3726 78.4055 95.1211 78.4055H51.7869C50.523 78.4055 49.5068 77.377 49.5068 76.1255C49.5068 72.6558 51.6878 69.5454 54.9344 68.3806C55.7647 68.0832 56.3223 67.2777 56.3223 66.3855V54.2663C56.3223 52.6926 56.5206 51.156 56.9295 49.6814C57.735 46.6701 59.3583 43.9316 61.6756 41.7134C65.0957 38.4544 69.5692 36.7939 74.278 37.0169C83.4232 37.4507 90.5857 45.2203 90.5857 54.7124V66.3855C90.5857 67.2777 91.1433 68.0832 91.9611 68.3806C95.2202 69.5454 97.4011 72.6558 97.4011 76.1255Z" fill="url(#paint4_linear_66_10888)"/>
<path d="M97.4022 76.1254C97.4022 77.3769 96.3737 78.4055 95.1221 78.4055H86.4478C87.6994 78.4055 88.7279 77.3769 88.7279 76.1254C88.7279 72.6557 86.547 69.5453 83.2879 68.3805C82.4701 68.0831 81.9124 67.2776 81.9124 66.3854V54.7123C81.9124 46.4718 76.5096 39.52 69.0869 37.5621C70.7598 37.116 72.4947 36.9301 74.2791 37.0168C83.4242 37.4506 90.5867 45.2202 90.5867 54.7123V66.3854C90.5867 67.2776 91.1443 68.0831 91.9622 68.3805C95.2212 69.5453 97.4022 72.6557 97.4022 76.1254Z" fill="url(#paint5_linear_66_10888)"/>
<path d="M98.2121 53.189C97.9878 53.189 97.7677 53.1281 97.5753 53.0128C97.3829 52.8976 97.2254 52.7322 97.1197 52.5344C97.0139 52.3366 96.9638 52.1138 96.9748 51.8897C96.9858 51.6657 97.0574 51.4489 97.182 51.2624C97.2366 51.1787 98.599 49.0315 97.8816 46.1597C97.1954 43.4159 95.23 42.6909 95.2108 42.6841C94.8992 42.58 94.6416 42.3564 94.4948 42.0624C94.348 41.7685 94.324 41.4283 94.428 41.1166C94.479 40.962 94.5601 40.819 94.6666 40.6958C94.7731 40.5727 94.9029 40.4718 95.0485 40.399C95.1941 40.3261 95.3527 40.2828 95.5151 40.2715C95.6776 40.2602 95.8406 40.2812 95.9949 40.3331C96.1281 40.3771 99.2623 41.4651 100.285 45.5584C101.277 49.525 99.3277 52.5118 99.2444 52.6372C99.1312 52.8072 98.9777 52.9466 98.7976 53.0428C98.6175 53.1391 98.4163 53.1893 98.2121 53.189Z" fill="#0069B7"/>
<path d="M130.226 5.14198C128.075 5.14198 126.323 3.39164 126.323 1.23918C126.323 0.554843 125.769 0 125.084 0C124.399 0 123.845 0.554843 123.845 1.23918C123.845 3.39164 122.094 5.14198 119.942 5.14198C119.257 5.14198 118.703 5.69682 118.703 6.38116C118.703 7.0655 119.257 7.62034 119.942 7.62034C122.094 7.62034 123.845 9.37068 123.845 11.5231C123.845 12.2075 124.399 12.7623 125.084 12.7623C125.769 12.7623 126.323 12.2075 126.323 11.5231C126.323 9.37099 128.074 7.62034 130.226 7.62034C130.911 7.62034 131.465 7.0655 131.465 6.38116C131.465 5.69682 130.911 5.14198 130.226 5.14198Z" fill="#BB60FF"/>
<path d="M104.364 59.7816C104.14 59.7817 103.92 59.7208 103.728 59.6055C103.535 59.4903 103.378 59.3249 103.272 59.127C103.166 58.9292 103.116 58.7064 103.127 58.4823C103.138 58.2583 103.21 58.0414 103.335 57.855C103.371 57.7992 107.161 51.9301 105.247 44.2698C105.066 43.5638 104.867 42.9139 104.655 42.3432C104.598 42.1906 104.572 42.0284 104.578 41.8657C104.584 41.703 104.622 41.5431 104.69 41.3951C104.758 41.2472 104.855 41.1141 104.974 41.0034C105.093 40.8928 105.233 40.8067 105.386 40.7503C105.539 40.6936 105.701 40.6675 105.863 40.6736C106.026 40.6796 106.186 40.7177 106.334 40.7855C106.482 40.8534 106.615 40.9497 106.725 41.069C106.836 41.1883 106.922 41.3282 106.978 41.4808C107.22 42.1329 107.447 42.8668 107.649 43.6633C109.839 52.4277 105.579 58.9563 105.397 59.2298C105.284 59.3998 105.13 59.5392 104.95 59.6354C104.77 59.7317 104.569 59.7819 104.364 59.7816ZM102.494 37.8112C102.328 37.8115 102.164 37.7781 102.011 37.7132C101.858 37.6484 101.719 37.5532 101.604 37.4336C99.6496 35.414 97.7422 34.7406 97.723 34.7344C97.413 34.6275 97.1579 34.4024 97.0132 34.1082C96.8686 33.8139 96.8462 33.4744 96.951 33.1637C97.0558 32.8539 97.2789 32.5982 97.5716 32.4523C97.8643 32.3064 98.2028 32.2821 98.5133 32.3849C98.6124 32.4183 100.983 33.2284 103.385 35.7102C103.554 35.8852 103.668 36.106 103.712 36.3452C103.757 36.5844 103.73 36.8314 103.635 37.0553C103.54 37.2793 103.381 37.4704 103.178 37.6048C102.976 37.7392 102.738 37.811 102.494 37.8112ZM50.9644 53.187C50.7611 53.1874 50.5609 53.1374 50.3817 53.0416C50.2024 52.9457 50.0497 52.807 49.9371 52.6377C49.8535 52.5126 47.9043 49.5258 48.8956 45.5589C49.9189 41.4656 53.0537 40.3776 53.1863 40.3336C53.3406 40.282 53.5037 40.2613 53.666 40.2728C53.8284 40.2842 53.9869 40.3276 54.1325 40.4003C54.2781 40.4731 54.4079 40.5739 54.5145 40.6968C54.6211 40.8198 54.7024 40.9626 54.7538 41.1171C54.8569 41.4267 54.8338 41.7644 54.6895 42.0571C54.5452 42.3498 54.2914 42.5738 53.9831 42.6806C53.879 42.7187 51.9781 43.4501 51.3002 46.1602C50.5821 49.032 51.9452 51.1792 52.0035 51.2694C52.1817 51.5442 52.2443 51.8783 52.1776 52.1991C52.1109 52.5198 51.9203 52.8012 51.6472 52.9822C51.4446 53.116 51.2072 53.1872 50.9644 53.187ZM44.8249 59.7816C44.6207 59.7819 44.4196 59.7316 44.2395 59.6354C44.0594 59.5391 43.9059 59.3998 43.7927 59.2298C43.6099 58.9563 39.3496 52.4277 41.5392 43.6688C41.7842 42.6666 42.1125 41.6866 42.5206 40.7391C42.7911 40.1112 43.5213 39.8243 44.1502 40.0935C44.2996 40.1581 44.4348 40.2515 44.5481 40.3683C44.6614 40.4852 44.7506 40.6232 44.8105 40.7745C44.8705 40.9258 44.9 41.0875 44.8975 41.2502C44.895 41.413 44.8604 41.5736 44.7958 41.723C44.4412 42.5456 44.1564 43.3965 43.9445 44.2667C42.0169 51.9766 45.8159 57.7974 45.8547 57.8553C45.9789 58.0418 46.0503 58.2586 46.0612 58.4824C46.072 58.7063 46.0219 58.9289 45.9163 59.1266C45.8106 59.3243 45.6533 59.4896 45.4611 59.6049C45.2689 59.7203 45.049 59.7813 44.8249 59.7816ZM46.8556 37.6495C46.611 37.6498 46.3718 37.5776 46.1682 37.4421C45.9646 37.3066 45.8056 37.1138 45.7114 36.8881C45.6172 36.6624 45.5919 36.4139 45.6387 36.1738C45.6855 35.9338 45.8024 35.7129 45.9745 35.5392C48.3005 33.186 50.5713 32.4158 50.6667 32.3843C50.8212 32.333 50.9842 32.3127 51.1465 32.3246C51.3088 32.3364 51.4672 32.38 51.6127 32.4531C51.7581 32.5261 51.8877 32.6271 51.9941 32.7503C52.1005 32.8734 52.1816 33.0163 52.2327 33.1708C52.284 33.3253 52.3043 33.4883 52.2925 33.6507C52.2807 33.813 52.237 33.9714 52.164 34.1168C52.0909 34.2623 51.9899 34.3919 51.8668 34.4983C51.7436 34.6047 51.6007 34.6857 51.4461 34.7368C51.4341 34.7412 49.6193 35.3769 47.7364 37.2818C47.6213 37.3985 47.4842 37.4911 47.333 37.5543C47.1818 37.6174 47.0195 37.6498 46.8556 37.6495Z" fill="#0069B7"/>
<path d="M123.709 9.27231C123.537 9.27249 123.367 9.23674 123.209 9.16734C123.052 9.09794 122.911 8.99641 122.795 8.86926C122.071 8.07773 121.032 7.62389 119.942 7.62389C119.257 7.62389 118.703 7.06904 118.703 6.38471C118.703 5.70037 119.257 5.14553 119.942 5.14553C122.095 5.14553 123.846 3.39457 123.846 1.24211C123.846 0.557773 124.401 0.00292969 125.086 0.00292969C125.77 0.00292969 126.325 0.557773 126.325 1.24211C126.326 1.77406 126.436 2.30015 126.649 2.78761C126.862 3.27506 127.173 3.71346 127.563 4.07549C127.797 4.30038 127.934 4.60853 127.944 4.9335C127.954 5.25848 127.835 5.57424 127.614 5.8127C127.393 6.05117 127.088 6.19324 126.763 6.20827C126.438 6.2233 126.12 6.1101 125.878 5.89306C125.588 5.62448 125.324 5.32907 125.089 5.01076C124.705 5.53521 124.243 5.998 123.719 6.38316C124.047 6.62403 124.35 6.8964 124.625 7.19637C124.787 7.37388 124.894 7.5947 124.933 7.83194C124.971 8.06919 124.941 8.31262 124.844 8.53261C124.747 8.75259 124.588 8.93964 124.386 9.07097C124.185 9.2023 123.95 9.27225 123.709 9.27231Z" fill="#570099"/>
<path d="M28.164 10.4763C27.8353 10.4763 27.5201 10.3457 27.2878 10.1134C27.0554 9.88096 26.9248 9.56577 26.9248 9.23712V2.80949C26.9248 2.48084 27.0554 2.16565 27.2878 1.93326C27.5201 1.70087 27.8353 1.57031 28.164 1.57031C28.4926 1.57031 28.8078 1.70087 29.0402 1.93326C29.2726 2.16565 29.4032 2.48084 29.4032 2.80949V9.23712C29.4032 9.56577 29.2726 9.88096 29.0402 10.1134C28.8078 10.3457 28.4926 10.4763 28.164 10.4763Z" fill="#3B32FF"/>
<path d="M31.3768 7.26254H24.9491C24.6205 7.26254 24.3053 7.13198 24.0729 6.89959C23.8405 6.6672 23.71 6.35201 23.71 6.02336C23.71 5.69471 23.8405 5.37952 24.0729 5.14713C24.3053 4.91473 24.6205 4.78418 24.9491 4.78418H31.3768C31.7054 4.78418 32.0206 4.91473 32.253 5.14713C32.4854 5.37952 32.6159 5.69471 32.6159 6.02336C32.6159 6.35201 32.4854 6.6672 32.253 6.89959C32.0206 7.13198 31.7054 7.26254 31.3768 7.26254Z" fill="#3B32FF"/>
<path d="M137.23 51.2188C137.034 51.2193 136.841 51.1732 136.667 51.0844C136.492 50.9956 136.342 50.8665 136.227 50.7079C136.131 50.5764 136.062 50.4273 136.024 50.2691C135.986 50.1108 135.979 49.9467 136.005 49.7859C136.03 49.6252 136.087 49.4711 136.172 49.3323C136.257 49.1936 136.369 49.073 136.5 48.9774L145.125 42.7072C145.257 42.6113 145.406 42.5423 145.564 42.5042C145.722 42.4661 145.886 42.4595 146.047 42.4849C146.208 42.5103 146.362 42.5672 146.501 42.6523C146.639 42.7373 146.76 42.849 146.856 42.9807C146.951 43.1122 147.02 43.2614 147.059 43.4196C147.097 43.5778 147.103 43.742 147.078 43.9027C147.052 44.0635 146.996 44.2176 146.911 44.3564C146.825 44.4951 146.714 44.6157 146.582 44.7112L137.957 50.9815C137.746 51.1359 137.492 51.2191 137.23 51.2188ZM130.018 56.4478C129.756 56.4481 129.501 56.3655 129.289 56.2118C129.077 56.0581 128.919 55.8412 128.838 55.5923C128.757 55.3433 128.757 55.0751 128.838 54.8261C128.918 54.5771 129.076 54.36 129.288 54.2061L132.497 51.8765C132.763 51.6866 133.094 51.6094 133.416 51.6619C133.739 51.7144 134.028 51.8922 134.22 52.1567C134.412 52.4211 134.492 52.7508 134.442 53.0739C134.393 53.397 134.217 53.6874 133.954 53.8818L130.745 56.2114C130.534 56.365 130.279 56.4478 130.018 56.4478ZM140.898 62.297C140.847 62.297 140.795 62.2939 140.743 62.2874L130.83 61.0483C130.504 61.0074 130.207 60.8388 130.005 60.5794C129.804 60.32 129.713 59.9911 129.754 59.665C129.773 59.5033 129.825 59.347 129.905 59.2052C129.985 59.0634 130.093 58.9389 130.221 58.8389C130.35 58.7388 130.497 58.6653 130.654 58.6224C130.811 58.5795 130.975 58.5682 131.137 58.5891L141.05 59.8283C141.362 59.8686 141.647 60.0258 141.847 60.2683C142.048 60.5107 142.148 60.8201 142.129 61.134C142.109 61.4478 141.971 61.7425 141.743 61.9585C141.514 62.1744 141.212 62.2954 140.898 62.297ZM129.351 50.8957C129.124 50.8954 128.902 50.833 128.708 50.7152C128.515 50.5974 128.357 50.4287 128.252 50.2275C128.148 50.0263 128.101 49.8003 128.116 49.5741C128.131 49.3479 128.208 49.1301 128.338 48.9446L134.079 40.7685C134.172 40.6352 134.291 40.5218 134.428 40.4345C134.565 40.3472 134.719 40.2878 134.879 40.2598C135.039 40.2317 135.203 40.2355 135.362 40.271C135.521 40.3064 135.671 40.3728 135.804 40.4664C135.938 40.5599 136.051 40.6787 136.138 40.816C136.226 40.9533 136.285 41.1065 136.313 41.2668C136.341 41.4271 136.338 41.5914 136.302 41.7502C136.267 41.9091 136.2 42.0594 136.107 42.1926L130.366 50.3687C130.252 50.5318 130.1 50.6648 129.923 50.7566C129.746 50.8483 129.55 50.896 129.351 50.8957ZM11.451 51.7144C11.1896 51.7147 10.9349 51.6318 10.7236 51.4778L1.41707 44.7118C1.15118 44.5186 0.972929 44.2277 0.921514 43.903C0.870099 43.5784 0.949733 43.2466 1.1429 42.9807C1.33639 42.7152 1.62728 42.5372 1.9518 42.4858C2.27631 42.4344 2.60797 42.5138 2.87404 42.7065L12.1806 49.4725C12.3123 49.5681 12.4238 49.6888 12.5088 49.8276C12.5938 49.9664 12.6507 50.1206 12.6761 50.2813C12.7015 50.4421 12.6949 50.6063 12.6569 50.7646C12.6188 50.9228 12.5499 51.072 12.4541 51.2036C12.3393 51.3621 12.1885 51.491 12.0141 51.5798C11.8397 51.6687 11.6467 51.7148 11.451 51.7144ZM17.9815 56.4478C17.7203 56.448 17.4658 56.3651 17.2547 56.2111L14.6772 54.3403C14.4177 54.1448 14.2453 53.8553 14.1972 53.534C14.149 53.2127 14.229 52.8853 14.4199 52.6224C14.6107 52.3595 14.8972 52.182 15.2176 52.1283C15.538 52.0745 15.8667 52.1487 16.133 52.335L18.7104 54.2058C18.8421 54.3014 18.9537 54.422 19.0388 54.5607C19.1239 54.6994 19.1808 54.8535 19.2063 55.0142C19.2317 55.1749 19.2253 55.3391 19.1873 55.4973C19.1494 55.6555 19.0806 55.8047 18.9849 55.9363C18.8702 56.095 18.7194 56.2242 18.5449 56.3131C18.3704 56.402 18.1773 56.4482 17.9815 56.4478ZM7.09809 62.297C6.78298 62.2965 6.47991 62.1759 6.25055 61.9599C6.02118 61.7438 5.88275 61.4484 5.86341 61.1339C5.84407 60.8194 5.94528 60.5093 6.14645 60.2668C6.34761 60.0242 6.63362 59.8674 6.94629 59.8283L16.8597 58.5891C17.5289 58.4965 18.1584 58.9853 18.243 59.665C18.2837 59.9911 18.1933 60.32 17.9916 60.5794C17.7899 60.8388 17.4934 61.0074 17.1674 61.0483L7.25392 62.2874C7.20223 62.2939 7.15018 62.2971 7.09809 62.297ZM18.6463 50.8957C18.4472 50.896 18.2509 50.8483 18.0742 50.7566C17.8974 50.6648 17.7454 50.5318 17.6311 50.3687L11.8897 42.1926C11.7962 42.0594 11.7298 41.9092 11.6944 41.7504C11.6589 41.5916 11.6551 41.4273 11.6832 41.2671C11.7112 41.1068 11.7705 40.9536 11.8578 40.8162C11.945 40.6789 12.0584 40.5601 12.1916 40.4666C12.3247 40.3731 12.475 40.3067 12.6338 40.2713C12.7926 40.2358 12.9568 40.232 13.1171 40.26C13.2774 40.2881 13.4306 40.3474 13.5679 40.4346C13.7053 40.5219 13.8241 40.6353 13.9176 40.7685L19.659 48.9446C19.7895 49.1301 19.8665 49.3478 19.8817 49.5741C19.8969 49.8003 19.8497 50.0264 19.7453 50.2277C19.6408 50.429 19.4831 50.5977 19.2893 50.7155C19.0955 50.8333 18.8731 50.8956 18.6463 50.8957Z" fill="#3884FF"/>
<defs>
<linearGradient id="paint0_linear_66_10888" x1="57.8861" y1="-0.0451057" x2="76.4295" y2="63.6209" gradientUnits="userSpaceOnUse">
<stop stop-color="#F4F4F4"/>
<stop offset="1" stop-color="#EBEBEB"/>
</linearGradient>
<linearGradient id="paint1_linear_66_10888" x1="73.6013" y1="7.66755" x2="75.2497" y2="89.6712" gradientUnits="userSpaceOnUse">
<stop offset="0.003" stop-color="#F1F1F1"/>
<stop offset="1" stop-color="#D5D5D5"/>
</linearGradient>
<linearGradient id="paint2_linear_66_10888" x1="74.213" y1="68.5559" x2="71.4658" y2="83.3908" gradientUnits="userSpaceOnUse">
<stop stop-color="#FF4276"/>
<stop offset="1" stop-color="#FF0049"/>
</linearGradient>
<linearGradient id="paint3_linear_66_10888" x1="68.8389" y1="67.749" x2="81.4039" y2="67.749" gradientUnits="userSpaceOnUse">
<stop offset="0.001" stop-color="#FF4276"/>
<stop offset="1" stop-color="#BC0078"/>
</linearGradient>
<linearGradient id="paint4_linear_66_10888" x1="49.5068" y1="36.9971" x2="97.4011" y2="36.9971" gradientUnits="userSpaceOnUse">
<stop stop-color="#D62D00"/>
<stop offset="1" stop-color="#FFBE00"/>
</linearGradient>
<linearGradient id="paint5_linear_66_10888" x1="86.446" y1="89.9047" x2="81.501" y2="38.5324" gradientUnits="userSpaceOnUse">
<stop stop-color="#D62D00"/>
<stop offset="1" stop-color="#FFBE00"/>
</linearGradient>
</defs>
</svg>
