<svg width="78" height="112" viewBox="0 0 78 112" fill="none" xmlns="http://www.w3.org/2000/svg">
<path d="M31.1313 0H47.7163L48.5353 0.204753L52.8351 0.409506L59.1825 1.22852L62.2538 1.84278L66.3488 3.27605L67.5773 4.09506L68.6011 5.32358L68.8059 5.73309V9.41865L67.5773 10.8519L65.7346 11.4662L65.9393 12.6947V16.7898L68.3964 16.9945L71.2629 18.0183L73.1057 19.2468L74.7437 20.6801L76.177 22.7276L77.2007 25.1846L77.6102 27.0274V97.4625L76.7912 100.739L75.5627 102.991L73.7199 105.038L71.4677 106.676L66.5536 108.929L62.2538 110.157L55.4969 111.181L49.9686 111.795L45.0545 112H33.3836L26.8315 111.59L19.8698 110.771L12.9082 109.338L9.42743 107.905L5.94663 106.062L3.48959 103.81L2.05632 101.762L1.03255 98.8958L0.8278 97.6673L0.623047 51.5978L0.8278 26.8227L1.44206 24.3656L2.87533 21.7038L4.92286 19.4516L7.17515 18.0183L9.01793 17.1993L10.8607 16.7898H12.4987V12.4899L12.7035 11.4662L11.475 11.0567L10.2464 9.82815L10.0417 9.21389V5.52834L11.0655 3.89031L12.4987 3.0713L13.932 2.45704L15.1605 2.04753L16.7985 1.84278L18.0271 1.43327L21.9174 0.819013L24.7839 0.61426L27.8552 0.204753L31.1313 0Z" fill="#ECF4F5"/>
<path d="M64.3016 19.042H66.9634L69.4204 19.861L71.6727 21.2943L73.3107 23.1371L74.744 26.0036L75.1535 27.6416V96.6435L74.3345 99.3053L73.106 101.353L71.6727 102.991L68.1919 105.243L64.3016 106.676L58.3638 107.905L51.6069 108.724L45.4643 109.133H32.9744L26.627 108.724L20.0749 107.905L14.9561 106.881L10.6563 105.448L7.38022 103.4L5.53744 101.762L4.10417 99.51L3.28516 96.8482V56.7166L4.92318 57.9451L6.76596 59.1736L9.01825 60.4021L11.4753 62.6544L12.7038 64.0877L13.1133 65.1115H13.5228L14.3418 66.7495L15.3656 69.8208L15.5703 71.4588V76.9872L14.9561 80.468L13.9323 83.744L11.4753 89.8866L9.6325 94.5959L7.58497 95.4149L6.56121 97.053L6.76596 98.4862L7.58497 99.1005L7.38022 100.739H7.78973L8.19923 99.7148L10.042 100.329L13.9323 101.558L19.2559 102.581L26.0128 103.4L31.9506 103.81L37.4789 104.015H50.1736L56.9305 103.81L59.1828 103.4L60.0018 102.172V100.534L59.3875 99.51L58.5685 99.1005H54.883L46.0786 99.3053V98.8957L47.3071 97.872L47.5118 97.4625V93.1627L46.4881 91.9341L44.2358 90.9104L40.9597 90.2961H37.6837L34.6124 90.9104L32.7696 91.7294L31.7458 92.1389L31.3363 93.1627V97.4625L32.1554 98.4862L32.5649 98.8957H29.2888L21.3034 98.0767L15.7751 97.053L12.4991 96.0292L10.2468 95.0054L10.4515 93.9817L11.2705 91.5246L12.2943 89.2723L13.3181 86.4058L14.3418 84.1535L14.9561 82.3107L16.1846 81.9012V81.4917L17.8226 80.6727L20.0749 80.0585H22.1224L23.7605 80.8775L24.3747 81.4917V81.9012H24.7842L25.6033 84.563L26.2175 90.2961L27.0365 93.9817H27.446L27.0365 92.5484L26.4223 87.6343V84.7678L27.6508 80.2632L29.0841 77.1919H29.4936L29.9031 76.1681L31.7458 74.1206L32.5649 73.5063H32.9744V73.0968L34.8171 72.4826L36.8647 72.2778L39.117 72.6873L41.574 73.7111L41.9835 73.9159V74.3254H42.393V74.9396H42.8025L43.8263 76.7824V77.1919H44.2358L44.4405 78.2157H44.8501L45.0548 79.2394H45.4643L47.3071 83.1298L47.5118 84.9725H47.9214L47.7166 83.1298L46.2833 79.8537L43.4168 75.1444L42.393 73.7111L41.7788 70.8446L41.574 69.2065V63.4734L42.1883 59.7879L43.212 56.7166L44.031 55.0786H44.4405V54.4643H44.8501V53.85L47.9214 50.7787L49.5594 49.9597L52.4259 48.936L55.702 47.2979L60.0018 45.0457L63.4826 42.7934H63.8921L64.0969 89.0676L64.9159 90.2961L65.5301 90.7056L66.7586 90.9104L68.6014 90.5009L69.4204 89.4771L69.6252 88.8628V35.627L69.0109 34.3985L68.3967 33.7842L67.7824 33.5795H65.9396L64.7111 34.1937L64.0969 35.4222L63.8921 42.3839L62.4588 42.9981L59.5923 44.8409L55.9067 46.8884L52.8354 48.3217L49.3546 49.5502L48.1261 49.755L46.0786 49.1407L44.6453 48.5265V48.1169L43.6215 47.7074L42.1883 46.4789L41.1645 44.6361V41.7696L41.574 40.5411L42.5978 38.6983L44.8501 36.446L46.4881 35.0127L49.7641 31.9414L51.8117 30.0987L54.0639 27.8464L55.702 26.4131L58.978 23.3418L61.8446 20.8848L63.6873 19.2467L64.3016 19.042Z" fill="#84B8C5"/>
<path d="M31.1316 0H47.7166L48.5356 0.204753L52.8354 0.409506L59.1828 1.22852L62.2541 1.84278L66.3491 3.27605L67.5777 4.09506L68.6014 5.32358L68.8062 5.73309V9.41865L67.5777 10.8519L65.7349 11.4662L65.9396 12.6947V16.7898L68.3967 16.9945L71.2632 18.0183L73.106 19.2468L74.744 20.6801L76.1773 22.7276L77.2011 25.1846L77.6106 27.0274V97.4625L76.7916 100.739L75.563 102.991L73.7203 105.038L71.468 106.676L66.5539 108.929L62.2541 110.157L55.4972 111.181L49.9689 111.795L45.0548 112H33.3839L26.8318 111.59L19.8702 110.771L12.9086 109.338L9.42776 107.905L5.94695 106.062L3.48992 103.81L2.05664 101.762L1.03288 98.8958L0.828125 97.6673V52.6216L1.23763 53.2358L3.08041 56.1024L3.48992 56.7166V96.8483L4.30893 99.5101L5.7422 101.762L7.58498 103.4L10.6563 105.243L14.9561 106.676L20.0749 107.7L26.627 108.519L32.9744 108.929H45.4643L51.6069 108.519L58.3638 107.7L64.3016 106.472L68.1919 105.038L71.0585 103.196L72.4917 101.967L73.925 99.7148L74.744 97.6673L74.9488 96.6435V27.6417L74.1298 24.9799L72.9012 22.9324L71.6727 21.4991L69.4204 20.0658L66.9634 19.2468H63.6874L63.8921 18.6325L62.0493 19.8611L54.4735 21.0896L46.8976 21.9086L43.6215 22.1133H35.0219L35.2267 20.2706L35.6362 18.4278L35.8409 18.8373L45.6691 18.4278L53.0402 17.8135L52.8354 14.128L46.4881 14.5375L36.6599 14.7422V14.3327H36.2504L36.0457 14.7422L25.808 14.128L18.8464 13.309L14.5466 12.2852V15.1517H16.1846L17.2084 15.9707L17.6179 16.7898V18.223L16.7989 19.4516L15.9799 19.8611L14.9561 19.6563L14.5466 18.6325V15.3565L13.5228 15.9707L13.1133 16.7898L13.3181 18.6325L13.5228 19.042L10.6563 19.4516L8.19924 20.4753L6.15171 22.1133L4.51368 24.3656L3.69467 26.4132L3.48992 25.7989H2.87566L3.48992 27.8464L3.28516 55.4881L2.46615 54.4644L0.828125 51.5978V26.8227L1.44238 24.3656L2.87566 21.7038L4.92319 19.4516L7.17547 18.0183L9.01825 17.1993L10.861 16.7898H12.4991V12.4899L12.7038 11.4662L11.4753 11.0567L10.2468 9.82815L10.042 9.21389V5.52834L11.0658 3.89031L12.4991 3.0713L13.9323 2.45704L15.1608 2.04753L16.7989 1.84278L18.0274 1.43327L21.9177 0.819013L24.7842 0.61426L27.8555 0.204753L31.1316 0Z" fill="#B8D5DC"/>
<path d="M52.4262 48.9355L52.8357 49.1403V88.4529L53.45 91.1147L53.8595 92.3432L48.1264 92.1385L46.0789 91.729L44.2361 90.91L40.9601 90.2957H37.684L34.6127 90.91L32.7699 91.729L31.7462 92.1385L31.3367 93.1622V97.4621L32.1557 98.4858L32.5652 98.8953H29.2891L21.3037 98.0763L15.7754 97.0525L12.4994 96.0288L10.2471 95.005L10.4518 93.9812L11.2708 91.5242L12.2946 89.2719L13.3184 86.4054L14.3421 84.1531L14.9564 82.3103L16.1849 81.9008V81.4913L17.8229 80.6723L20.0752 80.058H22.1228L23.7608 80.877L24.375 81.4913V81.9008H24.7845L25.6036 84.5626L26.2178 90.2957L27.0368 93.9812H27.4463L27.0368 92.548L26.4226 87.6339V84.7674L27.6511 80.2628L29.0844 77.1915H29.4939L29.9034 76.1677L31.7462 74.1202L32.5652 73.5059H32.9747V73.0964L34.8175 72.4822L36.865 72.2774L39.1173 72.6869L41.5743 73.7107L41.9838 73.9154V74.3249H42.3933V74.9392H42.8028L43.8266 76.782V77.1915H44.2361L44.4409 78.2153H44.8504L45.0551 79.239H45.4646L47.3074 83.1293L47.5122 84.9721H47.9217L47.7169 83.1293L46.2836 79.8533L43.4171 75.144L42.3933 73.7107L41.7791 70.8441L41.5743 69.2061V63.473L42.1886 59.7875L43.2123 56.7162L44.0314 55.0781H44.4409V54.4639H44.8504V53.8496L47.9217 50.7783L49.5597 49.9593L52.4262 48.9355Z" fill="#65A6B6"/>
<path d="M64.3016 19.042H66.9634L69.4204 19.861L71.6727 21.2943L73.3107 23.1371L74.744 26.0036L75.1535 27.6416V96.6435L74.3345 99.3053L73.106 101.353L71.6727 102.991L68.1919 105.243L64.3016 106.676L58.3638 107.905L51.6069 108.724L45.4643 109.133H32.9744L26.627 108.724L20.0749 107.905L14.9561 106.881L10.6563 105.448L7.38022 103.4L5.53744 101.762L4.10417 99.51L3.28516 96.8482V56.7166L4.92318 57.9451L6.76596 59.1736L9.01825 60.4021L11.4753 62.6544L12.7038 64.0877L13.1133 65.1115H13.5228L14.3418 66.7495L15.3656 69.8208L15.5703 71.4588V76.9872L14.9561 80.468L13.9323 83.744L11.4753 89.8866L9.6325 94.5959L7.58497 95.4149L6.56121 97.053L6.76596 98.4862L7.58497 99.1005L7.38022 100.739H7.78973L8.19923 99.7148L10.042 100.329L13.9323 101.558L19.2559 102.581L26.0128 103.4L31.9506 103.81L37.4789 104.015H50.1736L56.9305 103.81L59.1828 103.4L60.0018 102.172V100.534L59.3875 99.51L58.5685 99.1005H54.883L46.0786 99.3053V98.8957L47.3071 97.872L47.5118 97.4625L47.7166 94.1864H50.3784L56.3162 94.5959L61.6398 95.4149L64.3016 96.234L64.7111 96.8482L64.5064 98.0767L63.6873 99.51H66.1444L67.3729 100.534L69.0109 100.329L69.6252 99.7148L69.8299 99.1005L71.6727 98.4862L72.0822 98.0767V96.6435L71.2632 95.6197L70.4442 95.2102L70.649 94.5959L72.287 93.1627L73.5155 91.1151L74.1298 89.2723V29.0749L73.5155 27.0274L72.287 24.9798L70.649 23.5466L68.3967 22.5228L67.7824 22.318L60.8208 22.1133L62.0493 20.68L63.6873 19.2467L64.3016 19.042Z" fill="#65A6B6"/>
<path d="M31.1316 0H47.7166L48.5356 0.204753L52.8354 0.409506L59.1828 1.22852L62.2541 1.84278L66.3491 3.27605L67.5776 4.09506L67.7824 4.50457L67.1681 5.93784L64.5063 7.16636L60.4113 8.19013L54.6782 9.00914L50.1736 9.41865L46.4881 9.6234H31.9506L25.808 9.21389L19.2559 8.39488L14.9561 7.57587L11.8848 6.34735L10.861 5.52834L10.6562 4.29982L11.8848 3.27605L13.9323 2.45704L15.1608 2.04753L16.7988 1.84278L18.0274 1.43327L21.9177 0.819013L24.7842 0.61426L27.8555 0.204753L31.1316 0Z" fill="#84B8C5"/>
<path d="M67.5777 4.50488L68.3967 4.91439L68.8062 5.7334V9.41896L67.5777 10.8522L65.5301 11.6712L63.4826 12.2855V15.9711L58.978 16.9948H57.5448V13.514L50.1736 14.333L46.4881 14.5378L36.6599 14.7425V14.333H36.2504L36.0457 14.7425L25.808 14.1283L18.8464 13.3093L14.5466 12.2855V15.152H16.1846L17.2084 15.9711L17.6179 16.7901V18.2233L16.7989 19.4519L15.9799 19.8614L14.9561 19.6566L14.5466 18.6329V15.3568L13.5228 15.9711L13.1133 16.7901L13.3181 18.6329L13.5228 19.0424L10.6563 19.4519L8.19924 20.4756L6.15171 22.1137L4.51368 24.3659L3.69467 26.4135L3.48992 25.7992H2.87566L3.48992 27.8467L3.28516 55.4884L2.46615 54.4647L0.828125 51.5981V26.823L1.44238 24.3659L2.87566 21.7042L4.92319 19.4519L7.17547 18.0186L9.01825 17.1996L10.861 16.7901H12.4991V12.4903L12.7038 11.4665L11.4753 11.057L10.2468 9.82847L10.042 9.21421V5.52865L10.4515 4.91439H10.861L11.2705 5.7334L13.3181 6.75717L15.7751 7.57618L22.1225 8.59995L28.2651 9.21421L31.9506 9.41896H46.4881L52.6307 9.00945L59.1828 8.19044L63.8921 7.16667L66.3492 6.14291L67.1682 5.7334L67.5777 4.50488Z" fill="#BFCFD6"/>
<path d="M37.6837 90.0918H40.9597L44.2358 90.7061L46.6928 91.9346L47.7166 93.1631V97.4629L46.4881 98.8962L46.2833 99.1009L54.8829 98.8962H58.5685L59.797 99.7152L60.2065 100.534V102.172L59.3875 103.401L58.5685 103.81L56.9305 104.015L50.1736 104.22H37.4789L28.4698 103.81L20.4844 102.991L14.9561 101.967L11.8848 101.148L8.60873 99.92L8.19922 99.7152L8.81348 97.8724L10.042 94.5964L10.2468 95.0059L11.4753 95.4154L14.9561 96.6439L19.8702 97.6677L26.8318 98.4867L29.2888 98.6914H32.1553L31.1316 97.4629V93.1631L31.7458 92.1393L33.3839 91.1156L36.2504 90.2966L37.6837 90.0918Z" fill="#B9D5DC"/>
<path d="M65.9388 33.375H67.7816L68.8054 33.9893L69.6244 35.013L69.8291 35.6273V88.8631L69.2149 90.0916L68.1911 90.9107L66.5531 91.1154L65.1198 90.7059L64.096 89.4774L63.8913 89.0679L63.6865 42.3841L63.8913 35.4225L64.7103 33.9893L65.9388 33.375Z" fill="#B9D6DD"/>
<path d="M61.6394 19.6562L62.0489 19.861L59.7966 22.1133H59.3871L58.9776 22.9323L55.9063 25.7988L53.8588 27.6416L50.7875 30.3034L47.3067 33.5795L42.3926 38.084H40.7546L38.0928 37.4698L36.0453 36.446L35.0215 35.4222L33.9977 33.989L33.1787 31.7367V28.6654L33.9977 25.5941L34.8167 22.1133L43.6211 21.9085L51.197 21.2943L58.3634 20.2705L61.6394 19.6562Z" fill="#65A6B6"/>
<path d="M14.5459 12.2852L16.1839 12.4899L18.8457 13.1042L25.8073 13.9232L36.045 14.5374L35.6355 16.7897L35.0212 18.6325H29.9024L23.7598 18.0182L21.098 17.6087L19.6647 17.8135L19.0505 18.8373L19.2552 20.0658L20.279 20.68L26.4216 21.4991L34.2022 22.1133L33.7927 24.3656L32.7689 28.4607L31.1309 30.0987L28.8786 31.532L26.6263 32.5557L25.8073 32.7605H22.9408L21.7123 32.351L19.8695 31.1225L18.4362 29.6892L17.6172 28.0512L15.1602 20.2705V19.861L16.7982 19.2468L17.4124 18.223V16.7897L16.5934 15.5612L14.5459 15.1517V12.2852Z" fill="#65A6B6"/>
<path d="M20.0746 80.0586H22.1221L23.7601 80.8776L24.3744 81.4919V81.9014H24.7839L25.6029 84.5632L26.2172 90.2963L26.4219 92.3438H24.1696L23.9649 94.8008L22.7364 96.2341L21.3031 96.8484L20.2793 97.0531H18.4365L16.389 96.4389L15.1605 95.6198L14.1367 94.3913V93.5723L11.0654 94.1866L10.4512 93.9818L11.2702 91.5248L12.294 89.2725L13.3177 86.4059L14.3415 84.1537L14.9557 82.3109L16.1843 81.9014V81.4919L17.8223 80.6729L20.0746 80.0586Z" fill="#65A6B6"/>
<path d="M10.4515 4.91406H10.861L11.2705 5.73308L13.3181 6.75684L15.7751 7.57585L20.4844 8.39487V9.00913L21.0987 8.80437L21.3034 9.41863L21.9177 9.62339L22.3272 10.4424V12.0804H21.9177L21.713 12.8994L21.0987 13.3089L20.4844 13.5137L17.0036 12.8994L14.5466 12.2852V15.1517H16.1846L17.2084 15.9707L17.6179 16.7897V18.223L16.7989 19.4515L15.9799 19.861L14.9561 19.6563L14.5466 18.6325V15.3565L13.5228 15.9707L13.1133 16.7897L13.3181 18.6325L13.5228 19.042L10.6563 19.4515L8.19924 20.4753L6.15171 22.1133L4.51368 24.3656L3.69467 26.4131L3.48992 25.7989H2.87566L3.48992 27.8464L3.28516 55.4881L2.46615 54.4643L0.828125 51.5978V26.8227L1.44238 24.3656L2.87566 21.7038L4.92319 19.4515L7.17547 18.0183L9.01825 17.1993L10.861 16.7897H12.4991V12.4899L12.7038 11.4662L11.4753 11.0567L10.2468 9.82814L10.042 9.21388V5.52832L10.4515 4.91406Z" fill="#B8D5DC"/>
<path d="M31.1316 0H47.7166L48.5356 0.204753L52.8354 0.409506L59.1828 1.22852L62.2541 1.84278L66.3491 3.27605L67.5776 4.09506L67.7824 4.50457L67.1681 5.93784L65.9396 6.5521L65.1206 6.34735L62.6636 5.32358L59.3875 4.50457L54.2687 3.68556L47.5118 3.0713L42.393 2.86654H36.0456L28.0603 3.27605L21.3034 4.09506L16.3893 5.11883L13.7275 6.1426L12.9085 6.5521L11.8848 6.34735L10.861 5.52834L10.6562 4.29982L11.8848 3.27605L13.9323 2.45704L15.1608 2.04753L16.7988 1.84278L18.0274 1.43327L21.9177 0.819013L24.7842 0.61426L27.8555 0.204753L31.1316 0Z" fill="#8FAFB5"/>
<path d="M52.4255 29.4844L52.835 29.6891L52.6302 48.1169L50.5827 49.1407L48.9447 49.7549L47.5114 49.5502L44.6449 48.5264V48.1169L43.6211 47.7074L42.1878 46.4789L41.1641 44.6361V41.7696L41.5736 40.541L42.5973 38.6983L44.8496 36.446L46.4876 35.0127L49.7637 31.9414L51.8112 30.0986L52.4255 29.4844Z" fill="#65A6B6"/>
<path d="M37.6849 90.0918H40.961L44.237 90.7061L46.6941 91.9346L47.7178 93.1631V97.4629L46.4893 98.8962L44.8513 99.7152L42.3942 100.329L40.5515 100.534H38.2992L34.8184 99.92L32.7708 99.1009L31.3376 97.8724L31.1328 97.4629V93.1631L31.7471 92.1393L33.3851 91.1156L36.2516 90.2966L37.6849 90.0918Z" fill="#F1D38D"/>
<path d="M11.475 19.042H13.5225L14.5463 19.6563L15.7748 23.9561L17.6176 29.8939L18.0271 32.1462V35.627L17.208 37.265L16.389 37.8793H14.5463L14.3415 29.4844L13.7272 28.2559L12.9082 27.6416L11.0655 27.4369L9.63218 28.0511L9.01792 29.0749L8.81317 35.0127L7.7894 34.808V34.3985L6.97039 33.989L6.15137 33.3747L4.51335 29.2797L3.69434 26.8226L3.89909 25.3893L4.92286 23.3418L6.76563 21.2943L9.01792 19.861L11.475 19.042Z" fill="#65A6B6"/>
<path d="M8.81348 102.786H10.042L13.3181 104.015L17.8226 105.038L23.1462 105.857L29.6983 106.472L34.2029 106.676H44.4405L51.4021 106.267L58.3638 105.448L64.3016 104.219L67.9872 102.991L69.2157 102.786L70.6489 103.4L69.8299 104.219L67.7824 105.448L63.4826 106.881L57.1352 108.11L49.1499 108.929L45.4643 109.133H32.9744L26.627 108.724L20.0749 107.905L14.9561 106.881L10.6563 105.448L7.58496 103.605V103.196L8.81348 102.786Z" fill="#5999A9"/>
<path d="M3.28516 27.8467L3.69466 28.4609L4.71843 31.3275L5.74219 33.7845L6.97071 36.0368L7.99448 38.6986L8.81349 40.3366L9.01825 56.5121L7.78973 56.9216H4.71843L3.48991 55.8979L3.28516 55.4884V27.8467Z" fill="#66A6B6"/>
<path d="M30.7223 66.1348H35.2269L36.8649 66.5443L37.8887 67.9775V68.3871H38.2982L39.1172 69.8203L39.322 70.4346H39.7315L40.7552 72.2774L41.1648 72.4821L40.96 72.8916L38.9125 72.0726L37.8887 71.8679H35.4317L33.3841 72.4821L31.3366 73.7106L29.4938 75.7582L27.651 79.0342L26.4225 82.515H26.2178V71.4583L26.4225 68.7966L27.2415 67.7728L27.8558 67.1585L29.9033 66.3395L30.7223 66.1348Z" fill="#65A6B6"/>
<path d="M39.7312 3.68555L47.5118 3.8903L54.2686 4.50456L58.1589 5.11882L59.1827 5.93783V7.16635L58.3637 7.98536H56.7257L52.2211 7.3711L47.1023 6.9616H33.1791L28.0602 7.3711H26.627L27.0365 6.55209V5.32357L26.627 4.50456L30.3125 4.09505L33.1791 3.8903L39.7312 3.68555Z" fill="#65A6B6"/>
<path d="M22.736 68.5918H24.7836L25.6026 69.0013V75.3487L25.3978 81.696L24.374 80.6722L23.3503 80.058L22.736 79.6485L20.6885 79.4437L18.2315 80.058L15.7744 81.0817L16.1839 79.239L17.2077 76.9867L18.4362 73.9154L19.46 71.0488L20.8932 69.8203L21.098 69.4108L22.736 68.5918Z" fill="#65A6B6"/>
<path d="M32.154 29.8936L32.3588 30.3031L31.1302 35.2171L30.1065 37.6742L28.2637 39.7217L27.2399 40.336L26.4209 40.5407H24.5781L21.9164 39.7217V39.3122H21.5068L19.0498 32.3506L18.4355 30.7126L19.0498 30.9173L19.8688 31.9411L22.3259 33.1696L23.3496 33.3744H25.1924L27.6494 32.7601L29.2875 31.9411H29.697V31.5316H30.3112V31.1221L31.7445 30.3031L32.154 29.8936Z" fill="#66A6B6"/>
<path d="M9.42774 40.541L10.4515 41.5648L11.8848 43.4076L13.7276 45.4551L14.9561 46.6836V47.0931H15.3656L16.1846 49.5502L16.3894 50.5739V53.4405L15.7751 56.307L14.7513 58.7641L14.1371 59.3783L12.9085 59.5831H10.042L7.38021 58.9688L6.15169 58.3545V57.945L5.74219 57.7403L9.01824 57.126L10.4515 56.1023L11.4753 54.0547L11.68 53.031V49.5502L10.861 45.4551L9.42774 40.9505V40.541Z" fill="#B9D6DD"/>
<path d="M52.6306 13.9238L53.0401 14.1286V17.8141L50.3783 18.2236L45.669 18.6332L41.3692 18.8379H35.8408L36.0456 17.1999L36.6598 14.7428L36.8646 14.5381L46.488 14.3333L52.6306 13.9238Z" fill="#66A7B6"/>
<path d="M46.0782 51.1875L46.4877 51.3923L44.6449 53.4398L43.0069 56.1016L41.9831 58.7634L41.3688 61.2204L40.9593 65.5202L41.1641 70.0248L41.5736 72.0723H41.1641L40.3451 70.6391L37.888 67.1582L37.069 65.725L36.8643 62.8584L37.2738 59.9919L38.2975 56.9206L38.707 56.1016H39.1165L39.526 55.0778L41.1641 52.8255L42.1878 52.2113L46.0782 51.1875Z" fill="#66A6B6"/>
<path d="M26.4226 91.9336H26.6273L27.0368 93.9811H27.4463L27.0368 91.9336H32.1557L31.7462 92.1383L31.3367 93.1621V97.4619L32.1557 98.4857L32.5652 98.8952H29.2891L21.3037 98.0762L15.7754 97.0524L12.4994 96.0287L10.2471 95.0049V94.1859L12.9089 93.5716H14.1374L14.7516 95.0049L15.9802 96.0287L17.4134 96.6429L18.4372 96.8477H20.28L22.3275 96.2334L23.556 95.2096L23.9655 93.3669L24.1703 92.3431L26.2178 92.1383L26.4226 91.9336Z" fill="#66A6B6"/>
<path d="M17.4124 89.2725H20.279L22.736 90.2962L23.9645 91.7295L24.1693 93.3675L23.7598 95.2103L22.3265 96.4388L20.279 97.0531H18.4362L16.3887 96.4388L15.1602 95.6198L14.1364 94.3913L13.9316 93.1628L14.3411 91.1152L15.7744 89.8867L17.4124 89.2725Z" fill="#938296"/>
<path d="M13.932 59.9922L15.7748 60.1969L17.6175 61.4255L18.6413 62.654L19.4603 64.4968L19.6651 65.93L19.4603 69.2061L18.4365 72.4821L16.389 77.601H16.1843V72.2774L15.57 68.7966L14.3415 65.7253L12.9082 63.473L11.0654 61.4255L9.83691 60.4017V60.1969H12.0892L13.932 59.9922Z" fill="#65A6B6"/>
<path d="M40.7542 40.3359L40.959 40.7454L40.5495 42.1787V44.0215L41.3685 46.2738L42.3923 47.5023L44.6446 48.9356L47.1016 49.9593V50.3688L41.1638 52.0069L39.5257 51.8021L37.6829 50.3688L36.4544 48.3213L36.0449 46.888V44.6358L39.321 41.5645L40.7542 40.3359Z" fill="#65A6B6"/>
<path d="M20.0742 17.4043L22.3265 17.6091L27.4453 18.2233L29.9024 18.4281H35.226L34.4069 22.3184L26.4216 21.7041L20.279 20.8851L19.2552 20.2708L18.8457 19.4518L19.0505 18.2233L20.0742 17.4043Z" fill="#B8D5DC"/>
<path d="M28.0599 57.7402H29.6979L31.1312 58.3545L31.7455 59.3783V59.7878H32.155L32.7692 60.8115V61.221H33.1787L33.793 62.2448V62.6543H34.2025L34.8168 63.6781V64.0876H35.2263L35.8405 65.1114V65.5209H31.5407L29.0837 66.1351L27.4456 66.9541L26.4219 67.7731L26.8314 60.402L27.2409 58.5592L28.0599 57.7402Z" fill="#66A6B6"/>
<path d="M11.0661 27.2324L12.9089 27.4372L14.1374 28.4609L14.5469 29.4847V37.8796L12.7041 37.4701L8.4043 35.2178L8.8138 35.013V29.0752L9.63282 27.8467L11.0661 27.2324Z" fill="#B9D6DD"/>
<path d="M18.8457 33.9883L19.2552 34.6025L20.4837 38.0833L21.098 39.9261V42.1784L20.279 44.0212L18.641 45.4545L16.1839 46.2735L15.1602 46.0687L14.5459 45.6592V38.4929L16.5934 38.2881L17.8219 37.4691L18.4362 36.0358L18.8457 33.9883Z" fill="#66A6B6"/>
<path d="M40.1403 52.6211L40.5498 52.8258L39.1166 54.6686L37.4785 57.7399L36.6595 60.4017L36.25 64.4968L35.2262 63.473L32.7692 59.9922L31.3359 58.1494V56.5114L31.7454 55.4876H32.155L32.5645 54.6686L34.4072 53.2354L40.1403 52.6211Z" fill="#66A6B6"/>
<path d="M32.5645 31.5312L32.974 32.1455L33.3835 33.5788L34.2025 35.2168L35.6358 36.6501L38.5023 38.0834L41.3688 38.6976L40.1403 40.1309L36.8643 43.2022L35.6358 44.2259L34.612 43.8164L33.3835 42.3832L32.5645 40.3356L31.9502 37.2643V34.193L32.5645 31.5312Z" fill="#66A6B6"/>
<path d="M14.3412 7.37109L17.0029 7.7806L20.4837 8.39486V9.00912L21.098 8.80437L21.3028 9.41863L21.917 9.62338L22.3265 10.4424V12.0804H21.917L21.7123 12.8994L21.098 13.3089L20.4837 13.5137L17.0029 12.8994L14.3412 12.0804L13.1126 11.2614L12.7031 10.6471V8.80437L13.5221 7.7806L14.3412 7.37109Z" fill="#B9D5DC"/>
<path d="M54.0635 92.3438L57.749 92.5485L63.0726 93.1628L68.1914 94.1865L70.0342 94.8008V95.2103L67.9867 96.0293L66.7582 96.2341H63.8916L60.6156 95.415L56.3158 94.8008L54.473 93.1628L54.0635 92.3438Z" fill="#B9D6DD"/>
<path d="M16.5928 48.3223L17.4118 48.7318L19.6641 50.165L20.4831 50.9841L20.8926 52.4173V54.4649L20.0736 56.9219L18.4356 57.9457L15.569 59.1742L15.3643 58.5599L16.1833 56.7171L16.7975 54.4649L17.0023 51.3936L16.5928 48.3223Z" fill="#67A7B6"/>
<path d="M14.5466 46.4785L14.9561 46.6833V47.0928H15.3656L16.1846 49.5498L16.3894 50.5736V53.4401L15.7751 56.3067L14.7513 58.7637L14.1371 59.378L12.9085 59.5827H10.042L7.38021 58.9685L6.15169 58.3542V57.9447L5.74219 57.7399L9.01824 57.1257L10.042 57.3304L10.4515 57.5352H12.7038L13.9323 56.7162L14.3418 55.6924L14.5466 46.4785Z" fill="#67A7B6"/>
<path d="M6.97168 34.8086H7.38119V35.2181L8.40495 35.6276L11.2715 37.2656L14.3428 38.2894L14.5475 38.4942V45.4558L13.1143 44.2272L10.862 41.5654L8.81446 38.4942L6.97168 35.2181V34.8086Z" fill="#B9D6DD"/>
<path d="M25.6032 59.583H26.2175V61.8353L25.808 68.1826H22.7367L20.4844 69.2064L20.8939 67.7731L21.7129 65.5209L22.7367 63.2686L23.7604 60.6068L25.6032 59.583Z" fill="#66A6B6"/>
<path d="M35.0208 45.6602L35.4304 46.0697L36.0446 48.5267L37.0684 50.3695L38.9112 52.2123L36.0446 52.6218H33.7923L32.3591 52.2123L31.1305 51.3932L30.9258 51.1885V49.5505L34.2018 46.2744L35.0208 45.6602Z" fill="#66A6B6"/>
<path d="M20.6882 57.5352H21.7119L22.7357 58.7637L23.1452 59.9922L22.9404 61.4255L20.4834 67.3633H20.2787L19.8692 64.0873L18.6406 61.6302L17.2074 60.4017L16.5931 60.1969V59.7874L16.1836 59.5827L17.2074 58.9684L18.6406 58.3542L20.6882 57.5352Z" fill="#67A7B7"/>
<path d="M31.1312 37.4707L31.5407 38.085L32.3597 41.361L32.974 42.3848V42.999H33.3835L33.9977 44.0228L34.8167 44.6371L34.4072 45.4561L31.7454 47.9131L31.3359 48.3226L30.3122 48.1179L29.6979 47.0941L29.4932 46.2751V43.8181L30.5169 40.1325L31.1312 37.4707Z" fill="#66A6B6"/>
<path d="M29.9033 38.9033L30.1081 39.5176L29.0843 43.8174L28.0606 44.8412L27.0368 45.2507H25.194L23.556 44.2269L22.5322 41.9746L21.918 40.7461V40.3366L23.9655 40.9509H26.832L28.0606 40.7461V40.3366L29.0843 39.7223L29.9033 38.9033Z" fill="#66A6B6"/>
<path d="M8.8125 41.1553L9.22201 41.5648L10.6553 46.0694L11.2695 49.1406V53.2357L10.6553 55.0785L9.83627 56.1023L9.01725 56.5118L8.8125 56.1023V41.1553Z" fill="#B9D6DD"/>
<path d="M65.9391 23.3418H67.7819L68.8057 23.9561L69.6247 24.9798L69.8294 26.6178L69.0104 28.0511L67.9867 28.6654H65.7344L64.5059 27.8464L63.8916 26.6178L64.0964 24.7751L65.3249 23.5466L65.9391 23.3418Z" fill="#B9D6DD"/>
<path d="M21.7119 41.9746L22.3262 42.5889L22.9404 44.6364V47.2982L22.3262 48.5267L21.3024 49.3457L19.8692 49.5505L18.8454 49.141V48.7315L17.8216 48.322L16.1836 47.0934L16.7979 46.6839L18.6406 46.0697H19.0501V45.6602L20.0739 45.0459L20.6882 44.4316L20.8929 43.8174H21.3024L21.7119 41.9746Z" fill="#66A7B6"/>
<path d="M63.0723 12.2852H63.4818V15.9707L58.9772 16.9945H57.5439V13.5137L59.182 13.1042L63.0723 12.2852Z" fill="#66A6B6"/>
<path d="M14.3412 7.37109L16.1839 7.7806L17.0029 8.59961L17.2077 9.00912V10.4424L16.5934 11.4662L15.3649 12.0804L13.9316 11.8757L12.9079 11.0567L12.7031 10.6471V8.80437L13.5221 7.7806L14.3412 7.37109Z" fill="#FEFFFE"/>
<path d="M10.4525 4.91406H10.862L11.2715 5.73308L13.319 6.75684L14.5475 7.16635L12.9095 8.80437V10.6472L13.319 11.6709L11.4762 11.0567L10.2477 9.82814L10.043 9.21388V5.52832L10.4525 4.91406Z" fill="#BFCFD6"/>
<path d="M26.4219 91.9336H26.6266L27.0361 93.9811H27.4456L27.0361 91.9336H32.155L31.7455 92.1383L31.1312 94.1859L23.9648 94.5954L24.1696 92.3431L26.2171 92.1383L26.4219 91.9336Z" fill="#86B9C6"/>
<path d="M21.3031 51.1875L22.3268 51.3923L26.4219 52.6208L25.3981 53.6445L23.1458 55.2826L20.8936 56.7158L21.3031 55.0778V51.1875Z" fill="#67A7B7"/>
<path d="M28.0593 45.251L28.6735 45.4557L27.2402 51.3936H26.8307L24.3737 46.4795L24.1689 45.4557L25.6022 45.8652H26.8307L28.0593 45.251Z" fill="#66A6B6"/>
<path d="M67.3727 96.6436L69.0108 96.8483L69.8298 97.6673L70.0345 99.1006L69.4203 100.124L68.3965 100.739L66.9632 100.534L65.9395 99.3053V98.0768L66.349 97.2578L67.3727 96.6436Z" fill="#B9D6DD"/>
<path d="M22.5313 4.91406H24.374V6.34733L25.3978 7.57585L22.736 7.98536H20.8932L20.0742 7.16635L20.279 5.73308L21.098 5.11882L22.5313 4.91406Z" fill="#65A6B6"/>
<path d="M23.5553 46.2744L23.9649 46.4792L24.7839 48.5267L25.8076 50.5742V50.9837H26.2171L26.4219 52.0075L23.9649 51.3932L22.3268 50.779L20.8936 50.1647L21.7126 49.7552L22.7363 48.9362L22.9411 48.3219H23.3506L23.5553 46.2744Z" fill="#69A8B7"/>
<path d="M12.9089 93.5723H14.1374L14.7516 95.0055L15.1611 95.8246L14.1374 96.4388L11.8851 95.8246L10.2471 95.0055V94.1865L12.9089 93.5723Z" fill="#83B7C4"/>
<path d="M28.0596 53.0312L33.3832 53.236L31.7451 54.874L30.7214 56.9216L29.9023 55.8978L28.0596 53.236V53.0312Z" fill="#68A7B7"/>
<path d="M58.5677 22.3184L59.3867 22.5231L55.9059 25.7992L53.8584 27.6419L53.2441 28.0514L53.4489 26.6182L54.8822 24.7754L56.7249 23.1374L58.5677 22.3184Z" fill="#8BBCC8"/>
<path d="M9.01824 94.5957L9.6325 94.8005L7.78972 99.5098L6.5612 98.486L6.35645 97.0527L7.38021 95.4147L8.40398 94.8005L9.01824 94.5957Z" fill="#B8D5DC"/>
<path d="M25.3975 4.2998L26.626 4.50456L27.2402 5.32357V6.55209L26.4212 7.3711H24.988L24.1689 6.34734L24.3737 5.11882L25.3975 4.2998Z" fill="#B9D6DD"/>
<path d="M25.808 53.8506L26.2175 54.0553L24.9889 56.5124L23.7604 59.3789L22.5319 57.5361L21.7129 57.1266V56.7171L23.3509 55.8981L24.1699 55.0791L25.6032 54.2601L25.808 53.8506Z" fill="#6AA9B8"/>
<path d="M16.1842 7.78027L18.027 7.98503L19.4603 8.59929L19.0508 9.00879H18.4365L17.6175 10.6468L17.8223 12.0801L18.2318 12.8991L16.1842 12.6944L14.751 12.2848L15.3652 11.8753L16.5938 11.2611L17.0033 10.4421V9.00879L16.5938 7.98503L16.1842 7.78027Z" fill="#BFCFD6"/>
<path d="M27.4469 53.6455H27.8564V54.2598H28.266L29.2897 56.1025L29.6992 56.3073L29.904 57.1263L28.0612 57.3311L27.2422 57.5358V55.2835L27.4469 53.6455Z" fill="#67A7B6"/>
<path d="M56.7266 94.8008L60.6169 95.2103L63.8929 96.0293V96.2341H60.0026L57.3408 95.415L56.7266 94.8008Z" fill="#84B8C5"/>
<path d="M26.4225 54.4648H26.6273V56.5124L26.4225 58.7647L24.375 59.5837L24.5798 58.5599L25.6035 56.5124L26.4225 54.4648Z" fill="#6BA9B8"/>
<path d="M28.8792 47.0938L29.2887 47.2985L29.903 48.527L30.3125 48.7318L29.903 49.5508L28.0602 51.3936L27.8555 50.5746L28.8792 47.0938Z" fill="#69A8B7"/>
<path d="M29.9023 50.3691L30.5166 51.1882L31.1309 52.2119L31.7451 52.4167L31.5404 52.8262L29.0833 52.6214L28.0596 52.2119L29.0833 51.1882L29.9023 50.3691Z" fill="#6FABB9"/>
<path d="M6.97168 34.8086H7.38119V35.2181L8.40495 35.6276L8.81446 35.8324V37.8799H8.40495L7.17643 35.4229L6.97168 34.8086Z" fill="#74AFBD"/>
</svg>
