<svg width="115" height="181" viewBox="0 0 115 181" fill="none" xmlns="http://www.w3.org/2000/svg">
<g opacity="0.2">
<path d="M58.3294 169.895C31.4133 169.895 13.1486 164.221 7.9873 158.905C7.08846 157.978 6.68118 157.065 6.70926 156.026C6.72331 155.541 8.3033 114.096 6.2458 88.1003C6.13344 86.7029 5.97193 85.0878 5.78233 83.2129C4.61665 71.7737 2.21506 48.1792 12.0321 44.6681C15.2202 45.2439 29.5384 49.1904 57.1778 49.1904C81.9029 49.1904 98.9809 44.3872 103.229 43.5234C112.358 49.5485 109.612 72.7007 108.278 83.9783C108.11 85.3898 107.962 86.6608 107.85 87.7492C107.035 95.6071 108.082 124.237 108.847 145.135C109.17 153.926 109.444 153.596 109.493 157.269C109.507 158.245 109.128 159.095 108.292 159.93C101.066 167.255 68.8627 169.881 58.3224 169.881L58.3294 169.895Z" fill="#E360FF"/>
</g>
<path opacity="0.2" d="M104.886 33.6013C105.645 34.8653 106.768 38.1517 96.3612 40.0266C85.9543 41.9015 65.6602 45.6584 34.1165 43.5377C22.7827 42.7723 5.83109 40.3637 10.1568 35.399C11.1118 34.2965 13.2676 35.8414 16.5399 36.7192C19.8123 37.5969 39.5025 39.3806 57.058 39.3525C108.524 39.2823 103.348 31.0242 104.893 33.5943L104.886 33.6013Z" fill="#E360FF"/>
<path opacity="0.2" d="M11.8839 28.3562C10.2759 29.873 14.0889 33.1945 20.0297 33.8546C25.9705 34.5147 52.718 37.0497 77.1552 35.2871C96.4312 33.8967 103.074 31.446 103.46 28.3562C103.847 25.2594 81.4247 14.5997 57.2754 19.438C33.1261 24.2833 25.2051 15.8005 11.8839 28.3562Z" fill="#E360FF"/>
<path d="M112.954 155.001C111.697 173.09 83.4121 172.746 76.5514 173.09C28.4564 175.52 7.0738 170.66 3.52057 155.219C3.52057 155.219 -2.87665 171.321 13.478 174.888C28.9269 178.258 40.1975 179.6 57.1842 179.593C66.0181 179.593 92.4848 177.844 92.4848 177.844C92.4848 177.844 113.348 175.183 113.369 167.297C113.397 159.411 112.954 155.001 112.954 155.001Z" fill="#E360FF"/>
<path d="M12.5374 24.3744C10.859 25.2592 8.99114 26.5161 8.38021 28.4192C7.76928 30.3222 8.98412 32.1199 10.4166 33.3417V32.5623C8.66812 33.9948 6.39995 36.3753 7.73417 38.798C8.9771 41.0591 12.1862 41.979 14.4755 42.611C18.2183 43.6433 22.1086 44.1419 25.9638 44.5211C29.819 44.9003 33.6461 45.1179 37.4942 45.2373C44.7622 45.469 52.0512 45.3637 59.3262 45.2584C70.7584 45.0899 82.338 44.816 93.6367 42.9691C97.4778 42.3442 101.593 41.5998 105.041 39.6968C106.115 39.1069 107.197 38.3275 107.822 37.239C108.713 35.6942 108.376 33.5664 107.274 32.2111C106.375 31.1016 105.076 30.7295 103.699 30.9261L104.121 31.9303C105.378 31.2912 106.663 30.273 106.698 28.7352C106.733 27.106 105.42 25.7999 104.226 24.873C103.671 24.4446 102.885 25.217 103.447 25.6524C104.331 26.3406 105.497 27.3026 105.588 28.5175C105.68 29.7323 104.514 30.4837 103.559 30.9682C102.955 31.2772 103.419 32.0567 103.98 31.9724C106.284 31.6423 107.878 34.388 106.993 36.3894C106.55 37.3865 105.574 38.0817 104.662 38.6084C101.487 40.4341 97.6183 41.1434 94.051 41.7543C83.3773 43.5941 72.4156 43.882 61.6084 44.0927C54.2913 44.2331 46.9601 44.3244 39.643 44.1699C32.4593 44.0155 25.1773 43.6643 18.113 42.302C15.3462 41.7684 12.1862 41.1434 9.84785 39.4651C8.08528 38.2011 8.09932 36.579 9.46865 34.9638C9.98127 34.3599 10.5711 33.8263 11.1821 33.3277C11.3998 33.1521 11.3927 32.7308 11.1821 32.5482C9.98127 31.523 8.80856 30.0975 9.52483 28.4473C10.1638 26.9796 11.7298 26.0246 13.0781 25.3154C13.703 24.9853 13.1483 24.0303 12.5233 24.3603L12.5374 24.3744Z" fill="#E360FF"/>
<path d="M13.0922 25.3219C14.7143 24.1983 16.4699 23.2433 18.2465 22.4006C21.5258 20.8487 24.9246 20.0693 28.4848 19.4794C35.9986 18.2435 43.6177 17.6747 51.2227 17.3587C62.7531 16.8812 74.3749 17.2885 85.7298 19.4794C91.8672 20.6591 98.2574 22.3094 103.566 25.7362C104.163 26.1224 104.718 25.1674 104.121 24.7812C99.416 21.7406 93.8544 20.1044 88.4333 18.9106C82.4293 17.5904 76.299 16.8531 70.1686 16.4318C64.7896 16.0596 59.4106 15.9894 54.0246 16.1579C46.2369 16.3967 38.4353 16.9304 30.7179 18.0328C26.7433 18.6016 22.7828 19.2407 19.0681 20.8277C16.7999 21.7967 14.5598 22.9624 12.5304 24.3669C11.9546 24.7671 12.5023 25.7221 13.0852 25.3219H13.0922Z" fill="#E360FF"/>
<path d="M10.8025 41.1015C11.4415 41.1015 11.4415 40.1113 10.8025 40.1113C10.1635 40.1113 10.1635 41.1015 10.8025 41.1015Z" fill="#E360FF"/>
<path d="M10.6696 40.1256C5.50122 41.5722 2.85385 46.4386 1.6039 51.326C0.0168848 57.5055 0.0590179 64.0783 0.375017 70.4053C0.655904 76.0863 1.35812 81.7251 1.84266 87.392C2.43954 94.337 2.65021 101.317 2.79767 108.283C3.11367 122.861 2.98727 137.446 2.69234 152.024C2.60807 156.041 2.51679 160.058 2.39741 164.081C2.37634 164.889 2.31314 165.697 2.4255 166.497C2.73447 168.674 4.15296 170.429 5.85233 171.736C8.13454 173.484 10.8872 174.594 13.6048 175.464C17.3336 176.665 21.2028 177.431 25.0721 178.02C34.4186 179.46 43.9196 179.923 53.3645 180.064C63.343 180.211 73.3707 180.078 83.3282 179.313C87.703 178.975 92.0849 178.505 96.4035 177.726C99.8585 177.101 103.327 176.293 106.572 174.924C108.812 173.976 111.087 172.712 112.562 170.724C113.769 169.088 113.903 167.333 113.861 165.373C113.762 160.697 113.58 156.027 113.411 151.35C112.92 137.811 112.386 124.266 112.077 110.72C111.951 105.13 111.838 99.5404 111.916 93.9507C111.972 89.9481 112.372 86.0367 112.835 82.0622C113.601 75.5105 114.24 68.9166 114.121 62.3087C114.015 56.2205 113.432 49.5213 110.293 44.1493C109.022 41.9725 107.267 40.1116 105.027 38.9248C104.465 38.6229 103.959 39.4796 104.528 39.7815C109.654 42.4991 111.579 48.5452 112.449 53.9172C113.51 60.504 113.229 67.3015 112.681 73.9234C112.267 78.9022 111.438 83.8458 111.101 88.8245C110.806 93.1362 110.883 97.4899 110.932 101.809C111.08 115.003 111.578 128.198 112.056 141.386C112.267 147.165 112.484 152.937 112.681 158.716C112.751 160.767 112.814 162.817 112.864 164.868C112.906 166.666 112.969 168.337 111.93 169.903C110.546 171.974 108.103 173.238 105.862 174.144C102.674 175.436 99.2826 176.202 95.912 176.799C86.755 178.428 77.3664 178.814 68.083 179.004C58.3081 179.207 48.5051 179.144 38.7443 178.477C30.4862 177.908 22.0034 177.072 14.0753 174.559C10.0165 173.273 3.41563 170.816 3.35945 165.619C3.33136 163.323 3.49287 161.013 3.54905 158.716C3.87207 145.697 4.0406 132.664 3.95634 119.638C3.90718 112.173 3.78078 104.709 3.45074 97.2441C3.19794 91.6123 2.71341 86.0227 2.15865 80.419C1.53368 74.0849 1.02808 67.7088 1.2879 61.3467C1.51261 55.8553 2.13057 49.5564 5.46611 44.9569C6.82841 43.082 8.70334 41.7056 10.9434 41.0806C11.5544 40.9051 11.2945 39.9501 10.6766 40.1256H10.6696Z" fill="#E360FF"/>
<g opacity="0.8">
<path d="M101.796 49.2399C109.191 51.157 107.182 70.0397 105.953 80.3342C103.805 98.304 105.729 121.028 102.126 121.028C97.4425 121.028 104.71 102.552 98.4748 66.7182C98.4748 57.8702 90.4273 47.4422 101.796 49.2329" fill="#E360FF"/>
</g>
<g opacity="0.8">
<path d="M80.7374 162.065C80.92 154.404 21.1681 164.431 17.1936 142.649C11.2247 109.897 12.1165 100.291 11.8988 62.7571C11.8497 54.7237 14.9886 48.2141 12.7836 48.0034C8.53519 46.922 6.38639 67.7499 7.26417 76.647C8.52816 92.9244 8.61945 103.324 9.46914 117.011C10.5716 134.805 7.47483 150.914 12.7766 158.238C22.2214 171.285 80.5969 167.746 80.7304 162.065H80.7374Z" fill="#E360FF"/>
</g>
<path d="M8.46485 30.8487C8.88618 32.4076 10.3889 33.3908 11.7583 34.0508C13.9773 35.1112 16.428 35.694 18.8296 36.1645C25.4094 37.4426 32.1648 37.8569 38.8499 38.1307C45.0645 38.3906 51.2792 38.4397 57.4938 38.3976C67.0651 38.3344 76.6995 38.2922 86.2286 37.2178C90.2945 36.7614 94.3954 36.1294 98.2857 34.8233C101.102 33.8753 103.974 32.534 105.933 30.2308C106.389 29.6901 105.617 28.9106 105.153 29.4513C103.475 31.4245 101.102 32.6394 98.7071 33.5101C95.4488 34.6969 92.0009 35.3429 88.5741 35.8204C79.2345 37.1195 69.7265 37.1827 60.3167 37.267C54.2285 37.3232 48.1332 37.3162 42.045 37.1336C35.3528 36.9299 28.6186 36.5929 21.9896 35.5817C19.1105 35.1463 16.1822 34.6056 13.4506 33.5733C12.0321 33.0326 9.96058 32.1829 9.5252 30.5468C9.34263 29.8656 8.27525 30.1535 8.46485 30.8417V30.8487Z" fill="#E360FF"/>
<path d="M16.54 6.4248C16.54 7.51324 19.686 29.598 19.686 29.598C19.686 29.598 30.2895 34.0431 59.6493 33.5656C89.0091 33.0881 91.7688 29.6893 91.7688 29.6893L94.0861 6.43183C94.0861 6.43183 81.9658 12.822 56.5314 12.822C31.097 12.822 16.54 6.4248 16.54 6.4248Z" fill="#D1A638"/>
<path d="M94.0861 6.327C94.0861 9.82405 76.7273 13.4686 55.3096 13.4686C33.8919 13.4686 16.54 9.81703 16.54 6.327C16.54 2.83697 33.8989 0 55.3096 0C76.7202 0 94.0861 2.82994 94.0861 6.327Z" fill="#E8CD89"/>
<g opacity="0.8">
<path d="M11.7792 38.9873C17.1863 40.8411 22.8321 41.3046 28.3937 41.9015C35.6195 42.6739 43.0982 42.8705 49.6569 42.6318C51.588 42.5616 50.9911 41.5434 48.9898 41.5714C42.3679 41.6557 27.3895 41.5082 12.7272 36.0309C10.2764 35.118 8.86498 37.9339 11.7722 38.9873H11.7792Z" fill="#E360FF"/>
</g>
<g opacity="0.8">
<path d="M93.9317 25.0836C95.6802 25.6664 97.1268 29.4022 93.7843 30.926C89.8729 32.7097 87.3589 32.8501 83.5529 33.6647C81.383 34.1281 81.9518 34.9708 83.5529 34.7953C90.7577 34.0017 98.5032 32.3234 100.813 29.8516C104.065 26.3756 96.7968 23.9951 94.1915 23.9951C92.3658 23.9951 92.8995 24.7816 93.9247 25.0836H93.9317Z" fill="#E360FF"/>
</g>
<g opacity="0.2">
<path d="M70.1967 76.9773C57.8376 74.4633 41.511 74.2948 26.7714 86.3589C14.3 96.5622 19.1804 118.268 31.5957 126.568C45.3732 135.781 67.8372 134.44 82.2608 126.835C94.5918 120.332 101.93 106.478 96.0665 93.5988C91.3195 83.1779 83.4616 79.6808 70.1967 76.9773Z" fill="#1A1A1A"/>
</g>
<path d="M68.4408 75.2146C56.0818 72.7006 39.7552 72.5321 25.0156 84.5962C12.5442 94.7995 17.4246 116.505 29.8398 124.805C43.6174 134.018 66.0814 132.677 80.505 125.072C92.8359 118.57 100.174 104.715 94.3106 91.8361C89.5636 81.4152 81.7057 77.9181 68.4408 75.2146Z" fill="#333333"/>
<path d="M54.0594 127.734C45.3449 127.734 37.4379 125.656 31.799 121.878C25.8934 117.931 21.6801 110.017 21.3009 102.188C20.9989 95.9871 23.1126 90.7064 27.2487 87.3217C35.3242 80.7138 44.8463 77.3643 55.5481 77.3643C59.4103 77.3643 63.5113 77.7996 67.7457 78.6634C79.9573 81.1492 86.9233 84.0915 91.1085 93.2906C96.4032 104.919 88.7561 116.738 78.8618 121.955C71.9028 125.621 62.8652 127.727 54.0664 127.727L54.0594 127.734Z" fill="#333333"/>
<path d="M54.0595 127.074C47.4166 127.053 40.5629 125.923 34.6362 122.798C29.0605 119.863 25.1562 114.807 23.2111 108.845C21.2659 102.883 21.2729 96.1626 24.8191 90.9451C26.5606 88.382 29.1659 86.5282 31.736 84.8709C34.4676 83.1084 37.3889 81.6478 40.4505 80.5593C46.7775 78.3122 53.5188 77.6732 60.1829 78.235C63.8485 78.544 67.4649 79.2251 71.0462 80.0678C73.6725 80.6857 76.2918 81.409 78.7987 82.4272C83.1385 84.1898 86.797 87.0197 89.2056 91.0715C90.7365 93.6417 91.839 96.4927 92.1058 99.4911C92.3727 102.49 91.8811 105.362 90.8137 108.107C85.9192 120.67 71.4886 125.754 59.1085 126.85C57.4302 126.997 55.7519 127.074 54.0666 127.074C53.2169 127.074 53.2169 128.395 54.0666 128.395C61.4188 128.395 68.8764 127.032 75.6739 124.188C81.5585 121.723 86.7479 117.875 90.1326 112.391C93.5173 106.907 94.5285 100.439 92.2954 94.4422C90.5118 89.6531 87.2886 85.5381 82.8576 82.9469C77.7595 79.9624 71.6291 78.6423 65.8709 77.6451C58.624 76.3952 51.1453 76.2968 43.9827 78.1086C37.5433 79.7307 31.1672 82.8837 26.2165 87.3498C21.2659 91.8159 20.0019 98.3816 20.8727 104.575C21.7434 110.769 25.0087 117.391 30.1139 121.457C35.219 125.522 42.0376 127.404 48.4629 128.1C50.3237 128.303 52.1987 128.387 54.0666 128.395C54.9163 128.395 54.9163 127.074 54.0666 127.074H54.0595Z" fill="#E360FF"/>
<path d="M93.5105 12.2041C93.5105 12.2041 84.9293 18.5943 58.4346 19.2474C54.3968 19.3457 54.3266 20.5746 58.4346 20.9397C62.9639 21.347 86.4251 20.2094 92.8995 18.2994L93.5034 12.2041H93.5105Z" fill="#E8CD89"/>
<path d="M92.2389 24.9922C92.2389 24.9922 88.3697 28.1662 75.2242 28.4892C73.2228 28.5384 73.1877 29.1493 75.2242 29.3319C77.4713 29.5285 88.7208 29.0089 91.937 28.0679L92.246 24.9992L92.2389 24.9922Z" fill="#E8CD89"/>
<path d="M17.9443 17.1906C17.9443 17.1906 27.0381 23.5246 62.6968 23.9951C65.1194 24.0232 66.5098 24.6622 62.6968 25.2591C58.8837 25.856 37.5292 27.1762 18.6606 22.3238L17.9443 17.1836V17.1906Z" fill="#E8CD89"/>
<path d="M43.0588 104.626C43.0588 105.161 42.9292 105.626 42.6699 106.021C42.4107 106.416 42.0322 106.72 41.5343 106.934C41.0406 107.148 40.4398 107.255 39.7321 107.255C39.4194 107.255 39.1129 107.235 38.8125 107.194C38.5163 107.152 38.2303 107.093 37.9546 107.015C37.6831 106.932 37.4239 106.831 37.177 106.712V104.935C37.6049 105.124 38.0493 105.295 38.5101 105.447C38.9709 105.599 39.4277 105.675 39.8803 105.675C40.193 105.675 40.444 105.634 40.6332 105.552C40.8266 105.47 40.9665 105.356 41.0529 105.212C41.1393 105.068 41.1825 104.904 41.1825 104.719C41.1825 104.492 41.1064 104.299 40.9542 104.138C40.8019 103.978 40.5921 103.828 40.3246 103.688C40.0613 103.548 39.763 103.398 39.4297 103.237C39.2199 103.139 38.9915 103.019 38.7446 102.879C38.4978 102.735 38.2632 102.561 38.0411 102.355C37.8189 102.149 37.6358 101.9 37.4918 101.608C37.3519 101.312 37.2819 100.958 37.2819 100.546C37.2819 100.007 37.4054 99.5466 37.6522 99.164C37.8991 98.7813 38.2509 98.4892 38.7076 98.2876C39.1684 98.0818 39.7116 97.979 40.337 97.979C40.806 97.979 41.2525 98.0345 41.6763 98.1456C42.1042 98.2526 42.5506 98.409 43.0156 98.6147L42.3984 100.102C41.9828 99.9334 41.6104 99.8038 41.2813 99.7133C40.9521 99.6186 40.6168 99.5713 40.2753 99.5713C40.0366 99.5713 39.8329 99.6104 39.6642 99.6886C39.4956 99.7626 39.368 99.8696 39.2816 100.01C39.1952 100.145 39.152 100.304 39.152 100.485C39.152 100.699 39.2137 100.88 39.3371 101.028C39.4647 101.172 39.654 101.312 39.905 101.448C40.1601 101.583 40.4769 101.742 40.8554 101.923C41.3162 102.141 41.7092 102.369 42.0342 102.608C42.3634 102.842 42.6164 103.12 42.7934 103.441C42.9703 103.758 43.0588 104.153 43.0588 104.626ZM47.3729 100.09C48.2987 100.09 49.0084 100.291 49.5022 100.695C49.9959 101.098 50.2428 101.711 50.2428 102.534V107.132H48.9282L48.5641 106.194H48.5147C48.3172 106.441 48.1156 106.642 47.9098 106.799C47.7041 106.955 47.4675 107.07 47.2001 107.144C46.9326 107.218 46.6076 107.255 46.2249 107.255C45.8176 107.255 45.4514 107.177 45.1263 107.021C44.8054 106.864 44.5524 106.626 44.3672 106.305C44.182 105.98 44.0895 105.568 44.0895 105.07C44.0895 104.338 44.3466 103.799 44.8609 103.453C45.3753 103.104 46.1467 102.91 47.1754 102.873L48.3727 102.836V102.534C48.3727 102.172 48.2781 101.906 48.0888 101.738C47.8996 101.569 47.6362 101.485 47.2988 101.485C46.9655 101.485 46.6384 101.532 46.3175 101.627C45.9966 101.721 45.6756 101.841 45.3547 101.985L44.7313 100.713C45.0975 100.52 45.5069 100.367 45.9595 100.256C46.4163 100.145 46.8874 100.09 47.3729 100.09ZM48.3727 103.935L47.6445 103.96C47.0355 103.976 46.6117 104.085 46.373 104.287C46.1385 104.488 46.0213 104.754 46.0213 105.083C46.0213 105.371 46.1056 105.577 46.2743 105.7C46.443 105.819 46.6631 105.879 46.9347 105.879C47.3379 105.879 47.6774 105.76 47.953 105.521C48.2328 105.282 48.3727 104.943 48.3727 104.503V103.935ZM53.8286 107.132L51.1994 100.232H53.1683L54.5014 104.163C54.5754 104.394 54.633 104.636 54.6742 104.891C54.7194 105.147 54.7503 105.375 54.7668 105.577H54.8161C54.8285 105.358 54.8573 105.126 54.9025 104.879C54.9519 104.632 55.0157 104.394 55.0939 104.163L56.4208 100.232H58.3896L55.7604 107.132H53.8286ZM61.2657 100.232V107.132H59.3833V100.232H61.2657ZM60.3276 97.5284C60.6074 97.5284 60.8481 97.5943 61.0497 97.7259C61.2513 97.8535 61.3521 98.0942 61.3521 98.448C61.3521 98.7978 61.2513 99.0405 61.0497 99.1763C60.8481 99.308 60.6074 99.3738 60.3276 99.3738C60.0437 99.3738 59.8009 99.308 59.5993 99.1763C59.4018 99.0405 59.3031 98.7978 59.3031 98.448C59.3031 98.0942 59.4018 97.8535 59.5993 97.7259C59.8009 97.5943 60.0437 97.5284 60.3276 97.5284ZM67.166 100.102C67.9025 100.102 68.495 100.304 68.9435 100.707C69.392 101.106 69.6162 101.748 69.6162 102.633V107.132H67.7338V103.102C67.7338 102.608 67.6433 102.236 67.4623 101.985C67.2853 101.734 67.0055 101.608 66.6229 101.608C66.0469 101.608 65.6539 101.803 65.4441 102.194C65.2342 102.585 65.1293 103.149 65.1293 103.885V107.132H63.2469V100.232H64.6849L64.938 101.114H65.0429C65.191 100.876 65.3741 100.682 65.5922 100.534C65.8144 100.386 66.0592 100.277 66.3266 100.207C66.5982 100.137 66.878 100.102 67.166 100.102ZM73.5724 110.168C72.6096 110.168 71.8731 110 71.3629 109.662C70.8568 109.329 70.6037 108.86 70.6037 108.255C70.6037 107.84 70.7333 107.492 70.9926 107.212C71.2518 106.932 71.6324 106.733 72.1344 106.613C71.941 106.531 71.7723 106.397 71.6283 106.212C71.4843 106.023 71.4122 105.823 71.4122 105.614C71.4122 105.35 71.4884 105.132 71.6406 104.959C71.7928 104.782 72.013 104.61 72.301 104.441C71.9389 104.285 71.6509 104.034 71.4369 103.688C71.2271 103.342 71.1222 102.935 71.1222 102.466C71.1222 101.964 71.2312 101.538 71.4493 101.188C71.6715 100.834 71.9924 100.565 72.4121 100.38C72.8359 100.195 73.3502 100.102 73.955 100.102C74.0826 100.102 74.2307 100.11 74.3994 100.127C74.5681 100.143 74.7224 100.162 74.8623 100.182C75.0063 100.203 75.103 100.219 75.1524 100.232H77.5594V101.188L76.4793 101.466C76.5781 101.618 76.6521 101.781 76.7015 101.954C76.7509 102.126 76.7756 102.31 76.7756 102.503C76.7756 103.244 76.5164 103.822 75.9979 104.237C75.4836 104.649 74.7677 104.854 73.8501 104.854C73.6321 104.842 73.4263 104.826 73.2329 104.805C73.1383 104.879 73.0663 104.957 73.0169 105.04C72.9676 105.122 72.9429 105.208 72.9429 105.299C72.9429 105.389 72.9799 105.465 73.054 105.527C73.1321 105.585 73.2473 105.63 73.3996 105.663C73.5559 105.692 73.7493 105.706 73.9797 105.706H75.1524C75.9095 105.706 76.4855 105.869 76.8805 106.194C77.2796 106.519 77.4792 106.996 77.4792 107.626C77.4792 108.432 77.1418 109.057 76.467 109.502C75.7963 109.946 74.8315 110.168 73.5724 110.168ZM73.6526 108.94C74.1011 108.94 74.4858 108.897 74.8068 108.811C75.1318 108.728 75.3807 108.609 75.5536 108.453C75.7264 108.3 75.8128 108.117 75.8128 107.903C75.8128 107.731 75.7613 107.593 75.6585 107.49C75.5597 107.391 75.4075 107.321 75.2018 107.28C75.0002 107.239 74.7409 107.218 74.4241 107.218H73.449C73.2185 107.218 73.0108 107.255 72.8256 107.329C72.6446 107.403 72.5006 107.506 72.3936 107.638C72.2866 107.774 72.2331 107.93 72.2331 108.107C72.2331 108.366 72.3565 108.57 72.6034 108.718C72.8544 108.866 73.2041 108.94 73.6526 108.94ZM73.955 103.706C74.3089 103.706 74.5681 103.597 74.7327 103.379C74.8973 103.161 74.9796 102.865 74.9796 102.491C74.9796 102.075 74.8932 101.764 74.7204 101.559C74.5517 101.349 74.2966 101.244 73.955 101.244C73.6094 101.244 73.3502 101.349 73.1774 101.559C73.0046 101.764 72.9182 102.075 72.9182 102.491C72.9182 102.865 73.0025 103.161 73.1712 103.379C73.344 103.597 73.6053 103.706 73.955 103.706Z" fill="white"/>
</svg>
