<svg width="114" height="181" viewBox="0 0 114 181" fill="none" xmlns="http://www.w3.org/2000/svg">
<g opacity="0.2">
<path d="M58.1292 169.895C31.2131 169.895 12.9484 164.221 7.78711 158.905C6.88827 157.978 6.48098 157.065 6.50907 156.026C6.52311 155.541 8.10311 114.096 6.0456 88.1003C5.93325 86.7029 5.77174 85.0878 5.58214 83.2129C4.41645 71.7737 2.01486 48.1792 11.8319 44.6681C15.02 45.2439 29.3382 49.1904 56.9776 49.1904C81.7027 49.1904 98.7807 44.3872 103.029 43.5234C112.158 49.5485 109.412 72.7007 108.078 83.9783C107.91 85.3898 107.762 86.6608 107.65 87.7492C106.835 95.6071 107.881 124.237 108.647 145.135C108.97 153.926 109.244 153.596 109.293 157.269C109.307 158.245 108.928 159.095 108.092 159.93C100.866 167.255 68.6625 169.881 58.1222 169.881L58.1292 169.895Z" fill="#4CAF50"/>
</g>
<path opacity="0.2" d="M104.686 33.6013C105.444 34.8653 106.568 38.1517 96.161 40.0266C85.7541 41.9015 65.46 45.6584 33.9163 43.5377C22.5825 42.7723 5.63089 40.3637 9.95657 35.399C10.9116 34.2965 13.0674 35.8414 16.3397 36.7192C19.6121 37.5969 39.3023 39.3806 56.8578 39.3525C108.323 39.2823 103.148 31.0242 104.693 33.5943L104.686 33.6013Z" fill="#4CAF50"/>
<path opacity="0.2" d="M11.6838 28.3562C10.0757 29.873 13.8887 33.1945 19.8295 33.8546C25.7703 34.5147 52.5178 37.0497 76.955 35.2871C96.231 33.8967 102.874 31.446 103.26 28.3562C103.646 25.2594 81.2245 14.5997 57.0752 19.438C32.9259 24.2833 25.0049 15.8005 11.6838 28.3562Z" fill="#4CAF50"/>
<path d="M112.754 155.001C111.497 173.09 83.2119 172.746 76.3512 173.09C28.2562 175.52 6.87361 170.66 3.32038 155.219C3.32038 155.219 -3.07684 171.321 13.2779 174.888C28.7267 178.258 39.9973 179.6 56.984 179.593C65.8179 179.593 92.2846 177.844 92.2846 177.844C92.2846 177.844 113.148 175.183 113.169 167.297C113.197 159.411 112.754 155.001 112.754 155.001Z" fill="#4CAF50"/>
<path d="M12.3372 24.3744C10.6589 25.2592 8.79095 26.5161 8.18002 28.4192C7.56908 30.3222 8.78392 32.1199 10.2165 33.3417V32.5623C8.46793 33.9948 6.19976 36.3753 7.53397 38.798C8.7769 41.0591 11.986 41.979 14.2753 42.611C18.0181 43.6433 21.9084 44.1419 25.7636 44.5211C29.6188 44.9003 33.4459 45.1179 37.294 45.2373C44.562 45.469 51.851 45.3637 59.126 45.2584C70.5582 45.0899 82.1378 44.816 93.4365 42.9691C97.2776 42.3442 101.393 41.5998 104.841 39.6968C105.915 39.1069 106.996 38.3275 107.621 37.239C108.513 35.6942 108.176 33.5664 107.074 32.2111C106.175 31.1016 104.876 30.7295 103.499 30.9261L103.921 31.9303C105.178 31.2912 106.463 30.273 106.498 28.7352C106.533 27.106 105.22 25.7999 104.026 24.873C103.471 24.4446 102.685 25.217 103.246 25.6524C104.131 26.3406 105.297 27.3026 105.388 28.5175C105.48 29.7323 104.314 30.4837 103.359 30.9682C102.755 31.2772 103.218 32.0567 103.78 31.9724C106.083 31.6423 107.677 34.388 106.793 36.3894C106.35 37.3865 105.374 38.0817 104.461 38.6084C101.287 40.4341 97.4181 41.1434 93.8508 41.7543C83.1771 43.5941 72.2154 43.882 61.4082 44.0927C54.0911 44.2331 46.76 44.3244 39.4428 44.1699C32.2591 44.0155 24.9771 43.6643 17.9128 42.302C15.146 41.7684 11.986 41.1434 9.64765 39.4651C7.88508 38.2011 7.89913 36.579 9.26846 34.9638C9.78108 34.3599 10.3709 33.8263 10.9819 33.3277C11.1996 33.1521 11.1925 32.7308 10.9819 32.5482C9.78108 31.523 8.60837 30.0975 9.32463 28.4473C9.96365 26.9796 11.5296 26.0246 12.8779 25.3154C13.5028 24.9853 12.9481 24.0303 12.3231 24.3603L12.3372 24.3744Z" fill="#4CAF50"/>
<path d="M12.892 25.3219C14.5141 24.1983 16.2697 23.2433 18.0463 22.4006C21.3256 20.8487 24.7244 20.0693 28.2846 19.4794C35.7984 18.2435 43.4175 17.6747 51.0225 17.3587C62.5529 16.8812 74.1747 17.2885 85.5296 19.4794C91.667 20.6591 98.0572 22.3094 103.366 25.7362C103.963 26.1224 104.518 25.1674 103.921 24.7812C99.2158 21.7406 93.6542 20.1044 88.2331 18.9106C82.2291 17.5904 76.0988 16.8531 69.9684 16.4318C64.5894 16.0596 59.2104 15.9894 53.8244 16.1579C46.0367 16.3967 38.2351 16.9304 30.5177 18.0328C26.5431 18.6016 22.5826 19.2407 18.8679 20.8277C16.5997 21.7967 14.3596 22.9624 12.3302 24.3669C11.7544 24.7671 12.3021 25.7221 12.885 25.3219H12.892Z" fill="#4CAF50"/>
<path d="M10.6023 41.1015C11.2413 41.1015 11.2413 40.1113 10.6023 40.1113C9.96329 40.1113 9.96329 41.1015 10.6023 41.1015Z" fill="#4CAF50"/>
<path d="M10.4694 40.1256C5.30102 41.5722 2.65366 46.4386 1.40371 51.326C-0.183311 57.5055 -0.141177 64.0783 0.174821 70.4053C0.455709 76.0863 1.15793 81.7251 1.64246 87.392C2.23935 94.337 2.45001 101.317 2.59748 108.283C2.91348 122.861 2.78708 137.446 2.49215 152.024C2.40788 156.041 2.31659 160.058 2.19721 164.081C2.17615 164.889 2.11295 165.697 2.2253 166.497C2.53428 168.674 3.95276 170.429 5.65213 171.736C7.93435 173.484 10.687 174.594 13.4046 175.464C17.1334 176.665 21.0026 177.431 24.8719 178.02C34.2184 179.46 43.7195 179.923 53.1643 180.064C63.1428 180.211 73.1705 180.078 83.128 179.313C87.5028 178.975 91.8847 178.505 96.2033 177.726C99.6583 177.101 103.127 176.293 106.371 174.924C108.612 173.976 110.887 172.712 112.361 170.724C113.569 169.088 113.703 167.333 113.661 165.373C113.562 160.697 113.38 156.027 113.211 151.35C112.72 137.811 112.186 124.266 111.877 110.72C111.75 105.13 111.638 99.5404 111.715 93.9507C111.772 89.9481 112.172 86.0367 112.635 82.0622C113.401 75.5105 114.04 68.9166 113.92 62.3087C113.815 56.2205 113.232 49.5213 110.093 44.1493C108.822 41.9725 107.067 40.1116 104.827 38.9248C104.265 38.6229 103.759 39.4796 104.328 39.7815C109.454 42.4991 111.378 48.5452 112.249 53.9172C113.309 60.504 113.029 67.3015 112.481 73.9234C112.066 78.9022 111.238 83.8458 110.901 88.8245C110.606 93.1362 110.683 97.4899 110.732 101.809C110.88 115.003 111.378 128.198 111.856 141.386C112.066 147.165 112.284 152.937 112.481 158.716C112.551 160.767 112.614 162.817 112.663 164.868C112.705 166.666 112.769 168.337 111.729 169.903C110.346 171.974 107.902 173.238 105.662 174.144C102.474 175.436 99.0824 176.202 95.7118 176.799C86.5548 178.428 77.1662 178.814 67.8828 179.004C58.1079 179.207 48.3049 179.144 38.5441 178.477C30.286 177.908 21.8032 177.072 13.8751 174.559C9.81629 173.273 3.21543 170.816 3.15925 165.619C3.13117 163.323 3.29268 161.013 3.34885 158.716C3.67187 145.697 3.84041 132.664 3.75614 119.638C3.70699 112.173 3.58059 104.709 3.25054 97.2441C2.99774 91.6123 2.51321 86.0227 1.95846 80.419C1.33348 74.0849 0.827886 67.7088 1.08771 61.3467C1.31242 55.8553 1.93037 49.5564 5.26591 44.9569C6.62822 43.082 8.50315 41.7056 10.7432 41.0806C11.3542 40.9051 11.0943 39.9501 10.4764 40.1256H10.4694Z" fill="#4CAF50"/>
<g opacity="0.8">
<path d="M101.596 49.2399C108.99 51.157 106.982 70.0397 105.753 80.3342C103.604 98.304 105.528 121.028 101.926 121.028C97.2423 121.028 104.51 102.552 98.2746 66.7182C98.2746 57.8702 90.2271 47.4422 101.596 49.2329" fill="#4CAF50"/>
</g>
<g opacity="0.8">
<path d="M80.5372 162.065C80.7198 154.404 20.9679 164.431 16.9934 142.649C11.0245 109.897 11.9163 100.291 11.6986 62.7571C11.6495 54.7237 14.7884 48.2141 12.5834 48.0034C8.33499 46.922 6.1862 67.7499 7.06397 76.647C8.32797 92.9244 8.41926 103.324 9.26894 117.011C10.3714 134.805 7.27464 150.914 12.5764 158.238C22.0212 171.285 80.3968 167.746 80.5302 162.065H80.5372Z" fill="#4CAF50"/>
</g>
<path d="M8.26466 30.8487C8.68599 32.4076 10.1887 33.3908 11.5581 34.0508C13.7771 35.1112 16.2278 35.694 18.6294 36.1645C25.2092 37.4426 31.9646 37.8569 38.6497 38.1307C44.8643 38.3906 51.079 38.4397 57.2936 38.3976C66.8649 38.3344 76.4993 38.2922 86.0285 37.2178C90.0943 36.7614 94.1953 36.1294 98.0855 34.8233C100.901 33.8753 103.774 32.534 105.733 30.2308C106.189 29.6901 105.417 28.9106 104.953 29.4513C103.275 31.4245 100.901 32.6394 98.5069 33.5101C95.2486 34.6969 91.8007 35.3429 88.3739 35.8204C79.0343 37.1195 69.5263 37.1827 60.1165 37.267C54.0283 37.3232 47.933 37.3162 41.8448 37.1336C35.1526 36.9299 28.4184 36.5929 21.7894 35.5817C18.9103 35.1463 15.982 34.6056 13.2504 33.5733C11.8319 33.0326 9.76038 32.1829 9.32501 30.5468C9.14243 29.8656 8.07506 30.1535 8.26466 30.8417V30.8487Z" fill="#4CAF50"/>
<path d="M16.3398 6.4248C16.3398 7.51324 19.4858 29.598 19.4858 29.598C19.4858 29.598 30.0893 34.0431 59.4491 33.5656C88.8089 33.0881 91.5686 29.6893 91.5686 29.6893L93.8859 6.43183C93.8859 6.43183 81.7656 12.822 56.3312 12.822C30.8969 12.822 16.3398 6.4248 16.3398 6.4248Z" fill="#D1A638"/>
<path d="M93.8859 6.327C93.8859 9.82405 76.5271 13.4686 55.1094 13.4686C33.6917 13.4686 16.3398 9.81703 16.3398 6.327C16.3398 2.83697 33.6987 0 55.1094 0C76.5201 0 93.8859 2.82994 93.8859 6.327Z" fill="#E8CD89"/>
<g opacity="0.8">
<path d="M11.579 38.9873C16.9861 40.8411 22.6319 41.3046 28.1935 41.9015C35.4193 42.6739 42.898 42.8705 49.4567 42.6318C51.3878 42.5616 50.7909 41.5434 48.7896 41.5714C42.1677 41.6557 27.1893 41.5082 12.527 36.0309C10.0762 35.118 8.66479 37.9339 11.572 38.9873H11.579Z" fill="#4CAF50"/>
</g>
<g opacity="0.8">
<path d="M93.7315 25.0836C95.48 25.6664 96.9266 29.4022 93.5841 30.926C89.6727 32.7097 87.1587 32.8501 83.3527 33.6647C81.1829 34.1281 81.7517 34.9708 83.3527 34.7953C90.5575 34.0017 98.303 32.3234 100.613 29.8516C103.865 26.3756 96.5966 23.9951 93.9913 23.9951C92.1656 23.9951 92.6993 24.7816 93.7245 25.0836H93.7315Z" fill="#4CAF50"/>
</g>
<g opacity="0.2">
<path d="M69.9965 76.9773C57.6374 74.4633 41.3108 74.2948 26.5712 86.3589C14.0998 96.5622 18.9802 118.268 31.3955 126.568C45.173 135.781 67.637 134.44 82.0606 126.835C94.3916 120.332 101.73 106.478 95.8663 93.5988C91.1193 83.1779 83.2614 79.6808 69.9965 76.9773Z" fill="#1A1A1A"/>
</g>
<path d="M68.2406 75.2146C55.8816 72.7006 39.555 72.5321 24.8154 84.5962C12.344 94.7995 17.2244 116.505 29.6396 124.805C43.4172 134.018 65.8812 132.677 80.3048 125.072C92.6357 118.57 99.9739 104.715 94.1104 91.8361C89.3634 81.4152 81.5056 77.9181 68.2406 75.2146Z" fill="#333333"/>
<path d="M53.8592 127.734C45.1447 127.734 37.2377 125.656 31.5989 121.878C25.6932 117.931 21.4799 110.017 21.1007 102.188C20.7987 95.9871 22.9124 90.7064 27.0485 87.3217C35.124 80.7138 44.6461 77.3643 55.3479 77.3643C59.2101 77.3643 63.3111 77.7996 67.5455 78.6634C79.7571 81.1492 86.7231 84.0915 90.9083 93.2906C96.203 104.919 88.5559 116.738 78.6616 121.955C71.7026 125.621 62.665 127.727 53.8662 127.727L53.8592 127.734Z" fill="#333333"/>
<path d="M53.8594 127.074C47.2164 127.053 40.3627 125.923 34.436 122.798C28.8603 119.863 24.956 114.807 23.0109 108.845C21.0657 102.883 21.0727 96.1626 24.6189 90.9451C26.3604 88.382 28.9657 86.5282 31.5358 84.8709C34.2674 83.1084 37.1887 81.6478 40.2503 80.5593C46.5773 78.3122 53.3186 77.6732 59.9827 78.235C63.6483 78.544 67.2647 79.2251 70.846 80.0678C73.4723 80.6857 76.0916 81.409 78.5985 82.4272C82.9383 84.1898 86.5968 87.0197 89.0054 91.0715C90.5363 93.6417 91.6388 96.4927 91.9056 99.4911C92.1725 102.49 91.6809 105.362 90.6135 108.107C85.719 120.67 71.2884 125.754 58.9083 126.85C57.23 126.997 55.5517 127.074 53.8664 127.074C53.0167 127.074 53.0167 128.395 53.8664 128.395C61.2186 128.395 68.6762 127.032 75.4737 124.188C81.3583 121.723 86.5477 117.875 89.9324 112.391C93.3171 106.907 94.3283 100.439 92.0952 94.4422C90.3116 89.6531 87.0884 85.5381 82.6574 82.9469C77.5593 79.9624 71.4289 78.6423 65.6707 77.6451C58.4238 76.3952 50.9451 76.2968 43.7825 78.1086C37.3432 79.7307 30.967 82.8837 26.0164 87.3498C21.0657 91.8159 19.8017 98.3816 20.6725 104.575C21.5432 110.769 24.8085 117.391 29.9137 121.457C35.0188 125.522 41.8374 127.404 48.2627 128.1C50.1236 128.303 51.9985 128.387 53.8664 128.395C54.7161 128.395 54.7161 127.074 53.8664 127.074H53.8594Z" fill="#4CAF50"/>
<path d="M93.3103 12.2041C93.3103 12.2041 84.7291 18.5943 58.2344 19.2474C54.1966 19.3457 54.1264 20.5746 58.2344 20.9397C62.7637 21.347 86.2249 20.2094 92.6993 18.2994L93.3032 12.2041H93.3103Z" fill="#E8CD89"/>
<path d="M92.0387 24.9922C92.0387 24.9922 88.1695 28.1662 75.024 28.4892C73.0226 28.5384 72.9875 29.1493 75.024 29.3319C77.2711 29.5285 88.5206 29.0089 91.7368 28.0679L92.0458 24.9992L92.0387 24.9922Z" fill="#E8CD89"/>
<path d="M17.7441 17.1906C17.7441 17.1906 26.8379 23.5246 62.4966 23.9951C64.9192 24.0232 66.3096 24.6622 62.4966 25.2591C58.6835 25.856 37.329 27.1762 18.4604 22.3238L17.7441 17.1836V17.1906Z" fill="#E8CD89"/>
<path d="M34.6457 104.626C34.6457 105.161 34.5161 105.626 34.2568 106.021C33.9976 106.416 33.6191 106.72 33.1212 106.934C32.6275 107.148 32.0268 107.255 31.319 107.255C31.0063 107.255 30.6998 107.235 30.3994 107.194C30.1032 107.152 29.8172 107.093 29.5416 107.015C29.27 106.932 29.0108 106.831 28.7639 106.712V104.935C29.1918 105.124 29.6362 105.295 30.097 105.447C30.5579 105.599 31.0146 105.675 31.4672 105.675C31.7799 105.675 32.0309 105.634 32.2201 105.552C32.4135 105.47 32.5534 105.356 32.6398 105.212C32.7262 105.068 32.7694 104.904 32.7694 104.719C32.7694 104.492 32.6933 104.299 32.5411 104.138C32.3888 103.978 32.179 103.828 31.9115 103.688C31.6482 103.548 31.3499 103.398 31.0166 103.237C30.8068 103.139 30.5784 103.019 30.3316 102.879C30.0847 102.735 29.8501 102.561 29.628 102.355C29.4058 102.149 29.2227 101.9 29.0787 101.608C28.9388 101.312 28.8688 100.958 28.8688 100.546C28.8688 100.007 28.9923 99.5466 29.2391 99.164C29.486 98.7813 29.8378 98.4892 30.2945 98.2876C30.7554 98.0818 31.2985 97.979 31.9239 97.979C32.3929 97.979 32.8394 98.0345 33.2632 98.1456C33.6911 98.2526 34.1375 98.409 34.6025 98.6147L33.9853 100.102C33.5697 99.9334 33.1973 99.8038 32.8682 99.7133C32.539 99.6186 32.2037 99.5713 31.8622 99.5713C31.6235 99.5713 31.4199 99.6104 31.2512 99.6886C31.0825 99.7626 30.9549 99.8696 30.8685 100.01C30.7821 100.145 30.7389 100.304 30.7389 100.485C30.7389 100.699 30.8006 100.88 30.924 101.028C31.0516 101.172 31.2409 101.312 31.4919 101.448C31.747 101.583 32.0638 101.742 32.4423 101.923C32.9032 102.141 33.2961 102.369 33.6211 102.608C33.9503 102.842 34.2034 103.12 34.3803 103.441C34.5572 103.758 34.6457 104.153 34.6457 104.626ZM39.972 100.102C40.7496 100.102 41.3771 100.405 41.8544 101.009C42.3358 101.614 42.5765 102.501 42.5765 103.669C42.5765 104.451 42.4634 105.11 42.2371 105.644C42.0107 106.175 41.698 106.576 41.2989 106.848C40.8998 107.119 40.441 107.255 39.9226 107.255C39.5893 107.255 39.3034 107.214 39.0647 107.132C38.8261 107.045 38.6224 106.936 38.4537 106.805C38.285 106.669 38.1389 106.525 38.0155 106.373H37.9168C37.9497 106.537 37.9744 106.706 37.9908 106.879C38.0073 107.052 38.0155 107.22 38.0155 107.385V110.168H36.1331V100.232H37.6637L37.9291 101.127H38.0155C38.1389 100.941 38.2891 100.771 38.466 100.614C38.643 100.458 38.8549 100.335 39.1018 100.244C39.3527 100.149 39.6428 100.102 39.972 100.102ZM39.3671 101.608C39.038 101.608 38.7767 101.676 38.5833 101.812C38.3899 101.947 38.248 102.151 38.1575 102.423C38.0711 102.694 38.0237 103.038 38.0155 103.453V103.657C38.0155 104.101 38.0567 104.478 38.1389 104.787C38.2253 105.095 38.3673 105.33 38.5648 105.49C38.7664 105.651 39.0421 105.731 39.3918 105.731C39.6798 105.731 39.9164 105.651 40.1016 105.49C40.2867 105.33 40.4246 105.095 40.5151 104.787C40.6097 104.474 40.6571 104.093 40.6571 103.645C40.6571 102.97 40.5521 102.462 40.3423 102.12C40.1324 101.779 39.8074 101.608 39.3671 101.608ZM46.977 100.102C47.6148 100.102 48.1641 100.226 48.6249 100.472C49.0857 100.715 49.4417 101.069 49.6926 101.534C49.9436 101.999 50.0691 102.567 50.0691 103.237V104.151H45.6192C45.6398 104.682 45.7982 105.099 46.0945 105.404C46.3948 105.704 46.8104 105.854 47.3412 105.854C47.7814 105.854 48.1847 105.809 48.5509 105.718C48.9171 105.628 49.2935 105.492 49.6803 105.311V106.768C49.3388 106.936 48.9808 107.06 48.6064 107.138C48.2361 107.216 47.7855 107.255 47.2548 107.255C46.5635 107.255 45.9504 107.128 45.4156 106.873C44.8848 106.618 44.4671 106.229 44.1627 105.706C43.8623 105.184 43.7121 104.525 43.7121 103.731C43.7121 102.925 43.8479 102.254 44.1195 101.719C44.3951 101.18 44.7778 100.777 45.2674 100.509C45.7571 100.238 46.3269 100.102 46.977 100.102ZM46.9894 101.441C46.6232 101.441 46.3187 101.559 46.0759 101.793C45.8373 102.028 45.6995 102.396 45.6624 102.898H48.304C48.2999 102.618 48.2484 102.369 48.1497 102.151C48.055 101.933 47.911 101.76 47.7177 101.633C47.5284 101.505 47.2856 101.441 46.9894 101.441ZM55.5189 100.102C56.2554 100.102 56.8479 100.304 57.2964 100.707C57.7449 101.106 57.9691 101.748 57.9691 102.633V107.132H56.0867V103.102C56.0867 102.608 55.9962 102.236 55.8151 101.985C55.6382 101.734 55.3584 101.608 54.9758 101.608C54.3997 101.608 54.0068 101.803 53.7969 102.194C53.5871 102.585 53.4822 103.149 53.4822 103.885V107.132H51.5997V100.232H53.0378L53.2908 101.114H53.3958C53.5439 100.876 53.727 100.682 53.9451 100.534C54.1672 100.386 54.4121 100.277 54.6795 100.207C54.9511 100.137 55.2309 100.102 55.5189 100.102ZM62.0919 107.255C61.3225 107.255 60.695 106.955 60.2095 106.354C59.7281 105.749 59.4874 104.863 59.4874 103.694C59.4874 102.513 59.7322 101.62 60.2218 101.016C60.7115 100.407 61.3513 100.102 62.1413 100.102C62.4704 100.102 62.7605 100.147 63.0115 100.238C63.2625 100.328 63.4785 100.45 63.6595 100.602C63.8447 100.754 64.0011 100.925 64.1286 101.114H64.1903C64.1656 100.983 64.1348 100.789 64.0977 100.534C64.0648 100.275 64.0484 100.01 64.0484 99.738V97.5284H65.937V107.132H64.4927L64.1286 106.237H64.0484C63.929 106.426 63.7789 106.599 63.5978 106.755C63.4209 106.908 63.209 107.029 62.9621 107.119C62.7153 107.21 62.4252 107.255 62.0919 107.255ZM62.7523 105.756C63.2666 105.756 63.6287 105.603 63.8385 105.299C64.0525 104.99 64.1656 104.527 64.178 103.91V103.706C64.178 103.036 64.0751 102.524 63.8694 102.17C63.6637 101.812 63.281 101.633 62.7214 101.633C62.3059 101.633 61.9808 101.812 61.7463 102.17C61.5117 102.528 61.3945 103.044 61.3945 103.719C61.3945 104.394 61.5117 104.902 61.7463 105.243C61.9849 105.585 62.3203 105.756 62.7523 105.756ZM69.7882 100.232V107.132H67.9058V100.232H69.7882ZM68.8501 97.5284C69.1299 97.5284 69.3706 97.5943 69.5722 97.7259C69.7738 97.8535 69.8746 98.0942 69.8746 98.448C69.8746 98.7978 69.7738 99.0405 69.5722 99.1763C69.3706 99.308 69.1299 99.3738 68.8501 99.3738C68.5662 99.3738 68.3234 99.308 68.1218 99.1763C67.9243 99.0405 67.8255 98.7978 67.8255 98.448C67.8255 98.0942 67.9243 97.8535 68.1218 97.7259C68.3234 97.5943 68.5662 97.5284 68.8501 97.5284ZM75.6885 100.102C76.425 100.102 77.0175 100.304 77.466 100.707C77.9145 101.106 78.1387 101.748 78.1387 102.633V107.132H76.2563V103.102C76.2563 102.608 76.1658 102.236 75.9847 101.985C75.8078 101.734 75.528 101.608 75.1454 101.608C74.5693 101.608 74.1764 101.803 73.9665 102.194C73.7567 102.585 73.6518 103.149 73.6518 103.885V107.132H71.7694V100.232H73.2074L73.4604 101.114H73.5654C73.7135 100.876 73.8966 100.682 74.1147 100.534C74.3368 100.386 74.5817 100.277 74.8491 100.207C75.1207 100.137 75.4005 100.102 75.6885 100.102ZM82.0949 110.168C81.1321 110.168 80.3955 110 79.8853 109.662C79.3792 109.329 79.1262 108.86 79.1262 108.255C79.1262 107.84 79.2558 107.492 79.515 107.212C79.7742 106.932 80.1548 106.733 80.6568 106.613C80.4634 106.531 80.2947 106.397 80.1507 106.212C80.0067 106.023 79.9347 105.823 79.9347 105.614C79.9347 105.35 80.0108 105.132 80.1631 104.959C80.3153 104.782 80.5354 104.61 80.8235 104.441C80.4614 104.285 80.1734 104.034 79.9594 103.688C79.7496 103.342 79.6446 102.935 79.6446 102.466C79.6446 101.964 79.7537 101.538 79.9717 101.188C80.1939 100.834 80.5149 100.565 80.9346 100.38C81.3584 100.195 81.8727 100.102 82.4775 100.102C82.6051 100.102 82.7532 100.11 82.9219 100.127C83.0906 100.143 83.2449 100.162 83.3848 100.182C83.5288 100.203 83.6255 100.219 83.6749 100.232H86.0819V101.188L85.0018 101.466C85.1006 101.618 85.1746 101.781 85.224 101.954C85.2734 102.126 85.2981 102.31 85.2981 102.503C85.2981 103.244 85.0388 103.822 84.5204 104.237C84.0061 104.649 83.2901 104.854 82.3726 104.854C82.1545 104.842 81.9488 104.826 81.7554 104.805C81.6608 104.879 81.5888 104.957 81.5394 105.04C81.49 105.122 81.4653 105.208 81.4653 105.299C81.4653 105.389 81.5024 105.465 81.5764 105.527C81.6546 105.585 81.7698 105.63 81.9221 105.663C82.0784 105.692 82.2718 105.706 82.5022 105.706H83.6749C84.4319 105.706 85.008 105.869 85.403 106.194C85.8021 106.519 86.0016 106.996 86.0016 107.626C86.0016 108.432 85.6643 109.057 84.9895 109.502C84.3188 109.946 83.3539 110.168 82.0949 110.168ZM82.1751 108.94C82.6236 108.94 83.0083 108.897 83.3292 108.811C83.6543 108.728 83.9032 108.609 84.076 108.453C84.2488 108.3 84.3352 108.117 84.3352 107.903C84.3352 107.731 84.2838 107.593 84.1809 107.49C84.0822 107.391 83.93 107.321 83.7242 107.28C83.5226 107.239 83.2634 107.218 82.9466 107.218H81.9714C81.741 107.218 81.5332 107.255 81.3481 107.329C81.167 107.403 81.023 107.506 80.916 107.638C80.8091 107.774 80.7556 107.93 80.7556 108.107C80.7556 108.366 80.879 108.57 81.1259 108.718C81.3769 108.866 81.7266 108.94 82.1751 108.94ZM82.4775 103.706C82.8314 103.706 83.0906 103.597 83.2552 103.379C83.4198 103.161 83.502 102.865 83.502 102.491C83.502 102.075 83.4156 101.764 83.2428 101.559C83.0741 101.349 82.819 101.244 82.4775 101.244C82.1319 101.244 81.8727 101.349 81.6999 101.559C81.5271 101.764 81.4406 102.075 81.4406 102.491C81.4406 102.865 81.525 103.161 81.6937 103.379C81.8665 103.597 82.1278 103.706 82.4775 103.706Z" fill="white"/>
</svg>
