<svg width="24" height="24" viewBox="0 0 24 24" fill="none" xmlns="http://www.w3.org/2000/svg">
<circle cx="11.9792" cy="11.9792" r="8.92761" fill="#FFE32E" stroke="#D36500" stroke-width="0.103246"/>
<circle cx="11.8091" cy="12.0813" r="7.24461" fill="#FFB200"/>
<path fill-rule="evenodd" clip-rule="evenodd" d="M9.05013 18.6631C6.78421 17.4386 5.24485 15.0418 5.24485 12.2854C5.24485 8.2843 8.48837 5.04078 12.4895 5.04078C13.5718 5.04078 14.5986 5.27811 15.5208 5.70356C14.4976 5.1506 13.3262 4.8367 12.0815 4.8367C8.08044 4.8367 4.83691 8.08022 4.83691 12.0813C4.83691 15.0001 6.56302 17.5157 9.05013 18.6631Z" fill="#D36500"/>
<g filter="url(#filter0_d_990_16255)">
<path d="M15.6523 10.2721L14.1217 10.5782C14.1557 10.1361 13.8564 9.25177 12.3871 9.25177C10.9178 9.25177 10.5504 10.4762 10.5504 11.0884H12.8973V12.1088H10.3464V12.5169H12.8973V13.5373H10.5504C10.6185 13.9795 11.0402 14.8638 12.183 14.8638C13.3258 14.8638 14.0197 13.7754 14.2238 13.2312L15.7543 13.5373C15.6523 14.4216 14.836 16.1903 12.3871 16.1903C9.93822 16.1903 8.98588 14.4216 8.81582 13.5373H8.10156V12.5169H8.81582V12.1088H8.10156V11.0884H8.81582C9.22397 8.63952 10.9586 7.72119 13.1014 7.92526C14.8156 8.08852 15.5162 9.55785 15.6523 10.2721Z" fill="#FFE32E"/>
<path d="M15.6523 10.2721L14.1217 10.5782C14.1557 10.1361 13.8564 9.25177 12.3871 9.25177C10.9178 9.25177 10.5504 10.4762 10.5504 11.0884H12.8973V12.1088H10.3464V12.5169H12.8973V13.5373H10.5504C10.6185 13.9795 11.0402 14.8638 12.183 14.8638C13.3258 14.8638 14.0197 13.7754 14.2238 13.2312L15.7543 13.5373C15.6523 14.4216 14.836 16.1903 12.3871 16.1903C9.93822 16.1903 8.98588 14.4216 8.81582 13.5373H8.10156V12.5169H8.81582V12.1088H8.10156V11.0884H8.81582C9.22397 8.63952 10.9586 7.72119 13.1014 7.92526C14.8156 8.08852 15.5162 9.55785 15.6523 10.2721Z" stroke="#D36500" stroke-width="0.18068"/>
</g>
<defs>
<filter id="filter0_d_990_16255" x="6.97829" y="7.03306" width="9.90769" height="10.5381" filterUnits="userSpaceOnUse" color-interpolation-filters="sRGB">
<feFlood flood-opacity="0" result="BackgroundImageFix"/>
<feColorMatrix in="SourceAlpha" type="matrix" values="0 0 0 0 0 0 0 0 0 0 0 0 0 0 0 0 0 0 127 0" result="hardAlpha"/>
<feOffset dy="0.258114"/>
<feGaussianBlur stdDeviation="0.516228"/>
<feComposite in2="hardAlpha" operator="out"/>
<feColorMatrix type="matrix" values="0 0 0 0 0 0 0 0 0 0 0 0 0 0 0 0 0 0 0.34 0"/>
<feBlend mode="normal" in2="BackgroundImageFix" result="effect1_dropShadow_990_16255"/>
<feBlend mode="normal" in="SourceGraphic" in2="effect1_dropShadow_990_16255" result="shape"/>
</filter>
</defs>
</svg>
