<svg width="77" height="77" viewBox="0 0 77 77" fill="none" xmlns="http://www.w3.org/2000/svg">
<path d="M77 38.5009C77 39.1305 76.9848 39.76 76.9545 40.3895C76.9242 41.019 76.8768 41.6466 76.8161 42.2743C76.7535 42.9019 76.6758 43.5257 76.5847 44.1495C76.4918 44.7733 76.3838 45.3934 76.2605 46.0115C76.1373 46.6297 76.0007 47.244 75.8472 47.8546C75.6936 48.467 75.5248 49.0738 75.3428 49.6767C75.1608 50.2797 74.9617 50.877 74.7493 51.4705C74.5369 52.064 74.3113 52.6518 74.0705 53.2339C73.8297 53.816 73.5737 54.3924 73.3044 54.9613C73.0352 55.5301 72.7508 56.0933 72.455 56.6488C72.1573 57.2044 71.8463 57.7524 71.524 58.2928C71.1997 58.8332 70.8622 59.366 70.5114 59.8893C70.1626 60.4145 69.7985 60.9284 69.425 61.4347C69.0495 61.9409 68.6608 62.4377 68.2607 62.925C67.8625 63.4123 67.4511 63.8883 67.0264 64.3547C66.6035 64.823 66.1693 65.2781 65.7237 65.7237C65.2781 66.1693 64.823 66.6035 64.3547 67.0264C63.8883 67.4511 63.4123 67.8625 62.925 68.2607C62.4377 68.6608 61.9409 69.0495 61.4347 69.425C60.9284 69.7985 60.4145 70.1626 59.8893 70.5114C59.366 70.8622 58.8332 71.1997 58.2928 71.524C57.7524 71.8463 57.2044 72.1573 56.6488 72.455C56.0933 72.7508 55.5301 73.0352 54.9613 73.3044C54.3924 73.5737 53.816 73.8297 53.2339 74.0705C52.6518 74.3113 52.064 74.5369 51.4705 74.7493C50.877 74.9617 50.2797 75.1608 49.6767 75.3428C49.0738 75.5248 48.467 75.6936 47.8546 75.8472C47.244 76.0007 46.6297 76.1373 46.0115 76.2605C45.3934 76.3838 44.7733 76.4918 44.1495 76.5847C43.5257 76.6758 42.9019 76.7535 42.2743 76.8161C41.6466 76.8768 41.019 76.9242 40.3895 76.9545C39.76 76.9848 39.1305 77 38.5009 77C37.8695 77 37.24 76.9848 36.6105 76.9545C35.981 76.9242 35.3534 76.8768 34.7257 76.8161C34.1 76.7535 33.4743 76.6758 32.8505 76.5847C32.2285 76.4918 31.6066 76.3838 30.9885 76.2605C30.3703 76.1373 29.756 76.0007 29.1454 75.8472C28.5349 75.6936 27.9262 75.5248 27.3233 75.3428C26.7203 75.1608 26.123 74.9617 25.5295 74.7493C24.936 74.5369 24.3482 74.3113 23.7661 74.0705C23.184 73.8297 22.6095 73.5737 22.0387 73.3044C21.4699 73.0352 20.9067 72.7508 20.3512 72.455C19.7956 72.1573 19.2476 71.8463 18.7072 71.524C18.1668 71.1997 17.634 70.8622 17.1107 70.5114C16.5874 70.1626 16.0716 69.7985 15.5653 69.425C15.0591 69.0495 14.5623 68.6608 14.075 68.2607C13.5896 67.8625 13.1117 67.4511 12.6453 67.0264C12.1789 66.6035 11.7219 66.1693 11.2763 65.7237C10.8307 65.2781 10.3965 64.823 9.97365 64.3547C9.55081 63.8883 9.13935 63.4123 8.73927 62.925C8.33919 62.4377 7.95237 61.9409 7.57694 61.4347C7.20151 60.9284 6.83745 60.4145 6.48856 59.8893C6.13778 59.366 5.80216 58.8332 5.47792 58.2928C5.15369 57.7524 4.84272 57.2044 4.54503 56.6488C4.24923 56.0933 3.96481 55.5301 3.69556 54.9613C3.42631 54.3924 3.17223 53.816 2.93142 53.2339C2.68871 52.6518 2.46307 52.064 2.25071 51.4705C2.03834 50.877 1.84114 50.2797 1.65722 49.6767C1.47519 49.0738 1.30643 48.467 1.15285 47.8546C1.00116 47.244 0.86274 46.6297 0.739491 46.0115C0.616243 45.3934 0.508163 44.7733 0.417149 44.1495C0.324239 43.5257 0.246497 42.9019 0.185821 42.2743C0.123249 41.6466 0.0777413 41.019 0.0455072 40.3895C0.0151691 39.76 0 39.1305 0 38.5009C0 37.8695 0.0151691 37.24 0.0455072 36.6105C0.0777413 35.981 0.123249 35.3534 0.185821 34.7257C0.246497 34.1 0.324239 33.4743 0.417149 32.8505C0.508163 32.2285 0.616243 31.6066 0.739491 30.9885C0.86274 30.3703 1.00116 29.756 1.15285 29.1454C1.30643 28.5349 1.47519 27.9262 1.65722 27.3233C1.84114 26.7203 2.03834 26.123 2.25071 25.5295C2.46307 24.936 2.68871 24.3482 2.93142 23.7661C3.17223 23.184 3.42631 22.6095 3.69556 22.0387C3.96481 21.4699 4.24923 20.9067 4.54503 20.3512C4.84272 19.7956 5.15369 19.2476 5.47792 18.7072C5.80216 18.1668 6.13778 17.634 6.48856 17.1107C6.83745 16.5874 7.20151 16.0716 7.57694 15.5653C7.95237 15.0591 8.33919 14.5623 8.73927 14.075C9.13935 13.5896 9.55081 13.1117 9.97365 12.6453C10.3965 12.1789 10.8307 11.7219 11.2763 11.2763C11.7219 10.8307 12.1789 10.3965 12.6453 9.97365C13.1117 9.55081 13.5896 9.13935 14.075 8.73927C14.5623 8.33919 15.0591 7.95237 15.5653 7.57694C16.0716 7.20151 16.5874 6.83745 17.1107 6.48856C17.634 6.13778 18.1668 5.80216 18.7072 5.47792C19.2476 5.15369 19.7956 4.84272 20.3512 4.54503C20.9067 4.24923 21.4699 3.96481 22.0387 3.69556C22.6095 3.42631 23.184 3.17223 23.7661 2.93142C24.3482 2.68871 24.936 2.46307 25.5295 2.25071C26.123 2.03834 26.7203 1.84114 27.3233 1.65722C27.9262 1.47519 28.5349 1.30643 29.1454 1.15285C29.756 1.00116 30.3703 0.86274 30.9885 0.739491C31.6066 0.616243 32.2285 0.508163 32.8505 0.417149C33.4743 0.324239 34.1 0.246497 34.7257 0.185821C35.3534 0.123249 35.981 0.0777413 36.6105 0.0455072C37.24 0.0151691 37.8695 0 38.5009 0C39.1305 0 39.76 0.0151691 40.3895 0.0455072C41.019 0.0777413 41.6466 0.123249 42.2743 0.185821C42.9019 0.246497 43.5257 0.324239 44.1495 0.417149C44.7733 0.508163 45.3934 0.616243 46.0115 0.739491C46.6297 0.86274 47.244 1.00116 47.8546 1.15285C48.467 1.30643 49.0738 1.47519 49.6767 1.65722C50.2797 1.84114 50.877 2.03834 51.4705 2.25071C52.064 2.46307 52.6518 2.68871 53.2339 2.93142C53.816 3.17223 54.3924 3.42631 54.9613 3.69556C55.5301 3.96481 56.0933 4.24923 56.6488 4.54503C57.2044 4.84272 57.7524 5.15369 58.2928 5.47792C58.8332 5.80216 59.366 6.13778 59.8893 6.48856C60.4145 6.83745 60.9284 7.20151 61.4347 7.57694C61.9409 7.95237 62.4377 8.33919 62.925 8.73927C63.4123 9.13935 63.8883 9.55081 64.3547 9.97365C64.823 10.3965 65.2781 10.8307 65.7237 11.2763C66.1693 11.7219 66.6035 12.1789 67.0264 12.6453C67.4511 13.1117 67.8625 13.5896 68.2607 14.075C68.6608 14.5623 69.0495 15.0591 69.425 15.5653C69.7985 16.0716 70.1626 16.5874 70.5114 17.1107C70.8622 17.634 71.1997 18.1668 71.524 18.7072C71.8463 19.2476 72.1573 19.7956 72.455 20.3512C72.7508 20.9067 73.0352 21.4699 73.3044 22.0387C73.5737 22.6095 73.8297 23.184 74.0705 23.7661C74.3113 24.3482 74.5369 24.936 74.7493 25.5295C74.9617 26.123 75.1608 26.7203 75.3428 27.3233C75.5248 27.9262 75.6936 28.5349 75.8472 29.1454C76.0007 29.756 76.1373 30.3703 76.2605 30.9885C76.3838 31.6066 76.4918 32.2285 76.5847 32.8505C76.6758 33.4743 76.7535 34.1 76.8161 34.7257C76.8768 35.3534 76.9242 35.981 76.9545 36.6105C76.9848 37.24 77 37.8695 77 38.5009Z" fill="#9C00CC"/>
<mask id="mask0_286_6953" style="mask-type:luminance" maskUnits="userSpaceOnUse" x="8" y="37" width="45" height="30">
<path d="M8 37.5398H52.3037V66.6302H8V37.5398Z" fill="white"/>
</mask>
<g mask="url(#mask0_286_6953)">
<path fill-rule="evenodd" clip-rule="evenodd" d="M30.2285 66.5974H29.8534C28.8772 66.5741 27.6902 66.3948 26.7497 66.1949C24.4797 65.7143 22.1619 64.4041 20.4395 62.8858L19.1061 61.4962C18.212 60.4913 17.3851 59.0428 16.8416 57.8119C16.1844 56.3251 15.912 55.0272 15.7354 53.4131C15.7039 53.1242 15.749 52.8463 15.7039 52.5546C15.6368 52.1261 15.7271 52.1111 15.7271 51.7537L11.6281 53.9374C11.0914 54.1688 9.2267 54.867 8.83378 54.867C8.2615 54.867 8 54.3126 8 53.6992C8 51.1938 8.04381 49.8726 8.868 47.5054C9.41564 45.9337 10.2083 44.833 11.216 43.5721C11.4624 43.2626 12.0087 42.8122 12.3195 42.5617C14.2211 41.0242 17.3605 40.0932 19.9946 40.5929L21.2322 40.9119C21.2336 40.9119 21.9894 40.3506 22.0647 40.2999C22.3576 40.1055 22.6383 39.9152 22.9559 39.7441C23.9184 39.2238 23.891 39.2375 24.9247 38.8227C28.1639 37.5234 31.9796 37.522 35.2189 38.8227L37.189 39.7441C37.5066 39.9152 37.7859 40.1055 38.0775 40.2999C39.2344 41.0666 38.6388 40.9995 39.5589 40.7243C41.6057 40.1096 44.5341 40.6846 46.1962 41.5225C47.3777 42.1194 47.3777 42.2481 48.2759 42.945C48.5428 43.1517 49.0795 43.7459 49.278 44.0006C49.864 44.7563 49.9407 44.8535 50.424 45.69C50.7703 46.2911 51.0469 46.9072 51.3029 47.5903C51.7328 48.7472 52.1449 50.7447 52.1449 52.3096C52.1449 53.3186 52.3831 54.867 51.255 54.867C51.0633 54.867 49.5957 54.3687 49.3479 54.2715C47.8022 53.6636 47.4722 53.5034 45.9553 52.6601C45.6842 52.5095 45.4419 52.3506 45.1913 52.2014C44.9791 52.0755 44.6382 51.8044 44.4164 51.7537C44.4164 52.3712 44.4274 53.0078 44.3699 53.5418C43.9441 57.5149 42.4942 60.0668 39.8436 62.7489C39.4576 63.1377 38.7758 63.6388 38.3322 63.9605C36.8193 65.0626 35.0902 65.7883 33.2529 66.2209C32.5601 66.3824 31.0979 66.5727 30.2285 66.5974Z" fill="white"/>
</g>
<mask id="mask1_286_6953" style="mask-type:luminance" maskUnits="userSpaceOnUse" x="34" y="11" width="30" height="30">
<path d="M34.4326 11H63.6955V40.3437H34.4326V11Z" fill="white"/>
</mask>
<g mask="url(#mask1_286_6953)">
<path fill-rule="evenodd" clip-rule="evenodd" d="M48.0328 11H50.0837C50.9558 11.0246 51.6801 11.1287 53.093 11.4997C54.6715 11.9132 56.4061 12.8045 57.7164 13.771C58.5036 14.3502 59.3182 15.073 59.948 15.8206C60.0917 15.9917 60.1862 16.0738 60.3382 16.2641C62.2412 18.6204 63.6007 21.8049 63.6007 24.9551V26.0107C63.6007 27.8384 62.9737 30.2248 62.1933 31.7759C61.2938 33.5585 60.5312 34.5565 59.195 35.8941C57.0332 38.0546 53.3996 40.022 49.0897 40.022C44.7607 40.022 41.1285 38.0381 38.9571 35.8654L36.9131 33.4065C35.6193 31.446 34.5924 28.575 34.5801 25.9532C34.5801 25.7766 34.5486 25.5822 34.5459 25.5041L34.6924 23.4573C35.0949 20.5645 36.4777 17.651 38.43 15.6289C38.5957 15.4578 38.6627 15.3345 38.8462 15.1552C39.0132 14.9895 39.1255 14.8608 39.3049 14.7239L40.281 13.923C40.6247 13.6642 40.9601 13.4164 41.3297 13.1919C43.2054 12.0487 45.7738 11 48.0328 11Z" fill="white"/>
</g>
<mask id="mask2_286_6953" style="mask-type:luminance" maskUnits="userSpaceOnUse" x="8" y="37" width="45" height="30">
<path d="M8 37.5398H52.3037V66.6302H8V37.5398Z" fill="white"/>
</mask>
<g mask="url(#mask2_286_6953)">
<path fill-rule="evenodd" clip-rule="evenodd" d="M17.3961 52.7545V51.5306C17.3961 51.1924 17.4508 51.1253 17.4508 50.8077C18.3051 50.8077 19.7769 50.5188 20.6216 50.308C21.5773 50.0684 22.5726 49.759 23.4187 49.3811C24.9028 48.7212 26.2294 47.9545 27.5164 46.9729C27.6985 46.8332 27.8189 46.6498 28.0708 46.5827C28.5309 47.2713 29.7904 48.4351 30.4202 48.9033L31.5552 49.6577C32.619 50.2477 33.6061 50.7023 34.8533 51.0308C36.7577 51.5292 38.9784 51.7099 40.9773 51.3731L42.6927 51.0308L42.7489 52.5875C42.7489 55.1819 41.7371 57.6134 40.4022 59.5822C39.296 61.2141 37.1178 63.0172 35.2654 63.7853C34.4919 64.107 33.821 64.4 32.9503 64.5835C32.519 64.6738 32.0494 64.7628 31.6195 64.8094C28.1612 65.1818 24.7549 64.2809 22.1085 62.1068C21.9442 61.9726 21.8401 61.9 21.6909 61.7467C21.3253 61.3743 21.3596 61.5413 20.9064 60.9732L20.1671 60.1572C20.0425 60.0025 19.948 59.8834 19.8248 59.7205C19.3484 59.0838 18.735 57.994 18.4188 57.2342C18.1901 56.6838 17.9629 56.0869 17.8177 55.5009C17.6124 54.6795 17.3961 53.7471 17.3961 52.7545ZM30.2285 66.5974H29.8534C28.8772 66.5741 27.6902 66.3948 26.7497 66.1949C24.4797 65.7143 22.1619 64.4041 20.4395 62.8858L19.1061 61.4962C18.212 60.4913 17.3851 59.0428 16.8416 57.8119C16.1844 56.3251 15.912 55.0272 15.7354 53.4131C15.7039 53.1242 15.749 52.8463 15.7039 52.5546C15.6368 52.1261 15.7271 52.1111 15.7271 51.7537L11.6281 53.9374C11.0914 54.1688 9.2267 54.867 8.83378 54.867C8.2615 54.867 8 54.3126 8 53.6992C8 51.1938 8.04381 49.8726 8.868 47.5054C9.41564 45.9337 10.2083 44.833 11.216 43.5721C11.4624 43.2626 12.0087 42.8122 12.3195 42.5617C14.2211 41.0242 17.3605 40.0932 19.9946 40.5929L21.2322 40.9119C21.2336 40.9119 21.9894 40.3506 22.0647 40.2999C22.3576 40.1055 22.6383 39.9152 22.9559 39.7441C23.9184 39.2238 23.891 39.2375 24.9247 38.8227C28.1639 37.5234 31.9796 37.522 35.2189 38.8227L37.189 39.7441C37.5066 39.9152 37.7859 40.1055 38.0775 40.2999C39.2344 41.0666 38.6388 40.9995 39.5589 40.7243C41.6057 40.1096 44.5341 40.6846 46.1962 41.5225C47.3777 42.1194 47.3777 42.2481 48.2759 42.945C48.5428 43.1517 49.0795 43.7459 49.278 44.0006C49.864 44.7563 49.9407 44.8535 50.424 45.69C50.7703 46.2911 51.0469 46.9072 51.3029 47.5903C51.7328 48.7472 52.1449 50.7447 52.1449 52.3096C52.1449 53.3186 52.3831 54.867 51.255 54.867C51.0633 54.867 49.5957 54.3687 49.3479 54.2715C47.8022 53.6636 47.4722 53.5034 45.9553 52.6601C45.6842 52.5095 45.4419 52.3506 45.1913 52.2014C44.9791 52.0755 44.6382 51.8044 44.4164 51.7537C44.4164 52.3712 44.4274 53.0078 44.3699 53.5418C43.9441 57.5149 42.4942 60.0668 39.8436 62.7489C39.4576 63.1377 38.7758 63.6388 38.3322 63.9605C36.8193 65.0626 35.0902 65.7883 33.2529 66.2209C32.5601 66.3824 31.0979 66.5727 30.2285 66.5974ZM17.7849 49.084C17.8013 48.8978 17.9437 48.4802 17.9998 48.2981C18.0697 48.0681 18.1723 47.7957 18.2695 47.5671C18.8377 46.2158 19.6071 44.8166 20.634 43.7624C20.8311 43.5597 21.0187 43.2709 21.3596 42.9847C21.4828 42.882 21.5115 42.882 21.6348 42.7602C22.2933 42.1194 23.2366 41.5198 24.0348 41.0461C24.273 40.9051 24.4428 40.8325 24.7111 40.7216C24.963 40.6162 25.193 40.4724 25.4573 40.4108C25.5243 41.2241 25.8707 42.2276 26.1035 42.9341C26.2322 43.3256 26.3787 43.6898 26.5498 44.0444L27.07 45.1369C26.7771 45.5737 24.7179 46.8496 24.1416 47.1577L23.0285 47.7135C22.3371 48.0613 21.4239 48.3721 20.6216 48.5843C19.9905 48.7513 18.427 49.084 17.7849 49.084ZM40.4132 42.2454C40.6993 42.2399 41.3045 42.1509 41.581 42.1509C41.8576 42.1509 42.5024 42.2071 42.8009 42.2481C44.4438 42.4781 46.1223 43.138 47.2668 44.2895C49.5436 46.5758 50.476 49.4756 50.476 52.8654C49.5067 52.7847 46.1154 50.8269 45.3173 50.297C45.0407 50.1136 44.8408 49.9424 44.5725 49.7631C44.1221 49.4605 44.2028 49.5139 44.0604 48.9402C43.8797 48.2064 43.7072 47.6451 43.4471 46.9961C42.9255 45.6887 41.9438 43.9034 41.0389 42.9546L40.4132 42.2454ZM9.66755 52.8654C9.66755 49.2894 10.5821 47.018 12.3277 44.8508C12.4851 44.6564 12.7179 44.4442 12.9041 44.2607L13.5421 43.7309C14.254 43.1997 15.0727 42.7752 15.9613 42.5343C17.392 42.1468 17.7219 42.1906 19.1197 42.1906C19.4278 42.1906 19.4497 42.2454 19.7304 42.2454C19.5811 42.4686 18.5954 43.457 18.0313 44.3826C17.177 45.779 16.4692 47.2207 16.0749 48.9307C15.9325 49.5481 16.0653 49.3907 15.5998 49.7357C14.0856 50.8611 12.4126 51.8208 10.6601 52.5245C10.4301 52.6163 9.90851 52.8449 9.66755 52.8654ZM27.07 39.9111C27.4972 39.7057 29.3646 39.5209 30.0711 39.5209C31.7263 39.5209 33.4993 39.9357 34.6877 40.4108C35.8651 40.8818 36.4018 41.1912 37.4012 41.8675C38.4444 42.574 39.092 43.3064 39.8984 44.2059C40.0244 44.3456 40.0969 44.4551 40.2147 44.6126C40.431 44.9014 40.598 45.1246 40.7911 45.4258C41.3387 46.2787 42.3368 48.4145 42.4148 49.3619C42.1588 49.3838 41.8809 49.4865 41.5947 49.544C39.0633 50.0465 36.4976 49.9753 34.1304 49.0306C33.4924 48.7746 32.9024 48.5117 32.3273 48.164C31.9289 47.923 31.1225 47.3562 30.7515 47.0139C29.2661 45.6394 28.2256 44.0731 27.5903 42.114L27.185 40.5176C27.1549 40.3698 27.1139 40.011 27.07 39.9111Z" fill="#9C00CC"/>
</g>
<path fill-rule="evenodd" clip-rule="evenodd" d="M26.9053 59.4808C26.9053 60.1298 27.405 60.4091 28.0088 60.6569C29.6325 61.3209 31.2918 61.2648 32.7882 60.305C33.7001 59.7218 33.0812 58.7032 32.409 58.7032C32.0914 58.7032 31.6464 59.0537 31.3302 59.181C30.5293 59.5041 29.5832 59.5068 28.7782 59.1646C28.4811 59.0386 28.0539 58.7032 27.739 58.7032C27.3324 58.7032 26.9053 59.0811 26.9053 59.4808Z" fill="#9C00CC"/>
<path fill-rule="evenodd" clip-rule="evenodd" d="M24.3477 53.9209C24.3477 54.9724 26.0152 55.0463 26.0152 53.9209C26.0152 52.7778 24.3477 52.8298 24.3477 53.9209Z" fill="#9C00CC"/>
<path fill-rule="evenodd" clip-rule="evenodd" d="M34.1319 53.8101C34.1319 54.0798 34.125 54.2797 34.3701 54.5179C35.1053 55.2271 36.3142 54.1811 35.5653 53.3227C35.1532 52.849 34.1319 53.1173 34.1319 53.8101Z" fill="#9C00CC"/>
<mask id="mask3_286_6953" style="mask-type:luminance" maskUnits="userSpaceOnUse" x="34" y="11" width="30" height="30">
<path d="M34.4326 11H63.6955V40.3437H34.4326V11Z" fill="white"/>
</mask>
<g mask="url(#mask3_286_6953)">
<path fill-rule="evenodd" clip-rule="evenodd" d="M36.2463 25.8437V25.1222C38.0302 25.1222 40.2454 24.2788 41.568 23.1602L41.965 22.7769C43.6011 21.2942 44.5868 19.0379 44.5868 16.7269C44.8004 16.783 46.0107 18.0618 46.3817 18.378C47.0977 18.9859 48.2943 19.8293 49.1267 20.2482L50.6478 21.0067C51.4897 21.3818 52.3605 21.657 53.2709 21.8856C54.4264 22.1759 56.1748 22.3977 57.4302 22.3977C59.1608 22.3977 61.1336 21.9596 61.4882 21.9513C61.5074 22.1855 61.6046 22.4511 61.6511 22.6797C62.541 27.0019 61.2815 31.472 58.2503 34.5045C57.7301 35.0234 57.1783 35.4697 56.5964 35.9078C56.1173 36.2679 55.2041 36.8169 54.6332 37.0592L53.5776 37.5042C49.7428 39.0088 44.8647 38.3489 41.6556 35.9475C41.3379 35.7107 41.0943 35.5067 40.7821 35.2644C40.5945 35.1192 40.537 35.0549 40.3755 34.892C40.2208 34.7345 40.0839 34.6743 39.962 34.5264C38.6244 32.9136 37.7852 32.1114 36.9897 29.7716C36.8501 29.3622 36.7351 29.009 36.6242 28.5805C36.4311 27.8398 36.2463 26.7883 36.2463 25.8437ZM48.0328 11H50.0837C50.9558 11.0246 51.68 11.1287 53.0929 11.4997C54.6715 11.9132 56.4061 12.8045 57.7164 13.771C58.5036 14.3502 59.3182 15.073 59.948 15.8206C60.0917 15.9917 60.1862 16.0738 60.3382 16.2641C62.2412 18.6203 63.6007 21.8049 63.6007 24.9551V26.0107C63.6007 27.8384 62.9737 30.2247 62.1933 31.7759C61.2938 33.5585 60.5312 34.5565 59.195 35.8941C57.0332 38.0546 53.3996 40.022 49.0897 40.022C44.7607 40.022 41.1285 38.0381 38.9571 35.8654L36.9131 33.4065C35.6193 31.446 34.5924 28.575 34.5801 25.9532C34.5801 25.7766 34.5486 25.5822 34.5459 25.5041L34.6924 23.4573C35.0949 20.5645 36.4777 17.651 38.43 15.6289C38.5957 15.4578 38.6627 15.3345 38.8462 15.1552C39.0132 14.9895 39.1255 14.8608 39.3049 14.7239L40.281 13.923C40.6247 13.6642 40.9601 13.4164 41.3297 13.1919C43.2054 12.0487 45.7738 11 48.0328 11ZM36.4133 23.4532C36.4298 22.7167 36.9747 21.1929 37.2471 20.507C37.9933 18.6245 39.042 17.3553 40.4015 15.989C40.7095 15.6795 42.2511 14.4953 42.6413 14.3912C42.8193 15.1566 42.8946 15.1661 42.9179 16.0602C42.9234 16.3175 42.9658 16.3107 42.9713 16.5065L42.822 17.8537C42.2511 20.8054 40.1633 22.7345 37.28 23.3191C36.9747 23.3807 36.6872 23.3903 36.4133 23.4532ZM44.3089 13.5013L45.3576 13.1604C45.7136 13.0509 46.1024 12.9551 46.5186 12.8757C50.3493 12.1363 54.1896 13.0687 57.114 15.4304C58.5734 16.6078 59.8576 18.1781 60.6736 19.8758C60.9652 20.4809 60.9173 20.3618 60.2327 20.4755C56.1419 21.1504 52.6494 20.3851 49.5018 18.5382C48.9473 18.211 48.4682 17.8824 47.9849 17.4963C46.6829 16.4558 45.4986 15.3167 44.5635 13.9134C44.517 13.8409 44.4691 13.7793 44.4266 13.7176L44.3417 13.5807C44.3349 13.567 44.3171 13.5178 44.3089 13.5013Z" fill="#9C00CC"/>
</g>
<path fill-rule="evenodd" clip-rule="evenodd" d="M45.9209 31.8485C45.9209 32.9383 48.1553 33.4051 48.9794 33.4051C49.8707 33.4051 50.3472 33.2901 51.0769 33.0013C51.3699 32.8849 51.5615 32.774 51.8052 32.6179C52.7171 32.0347 52.0969 31.0147 51.426 31.0147C50.9633 31.0147 49.3902 32.5056 47.3228 31.2255C46.4302 30.6738 45.9209 31.3789 45.9209 31.8485Z" fill="#9C00CC"/>
<path fill-rule="evenodd" clip-rule="evenodd" d="M53.1494 25.4548C53.1494 26.6199 54.817 26.535 54.817 25.511C54.817 24.3486 53.1494 24.3568 53.1494 25.4548Z" fill="#9C00CC"/>
<path fill-rule="evenodd" clip-rule="evenodd" d="M43.3623 25.4548C43.3623 26.5528 45.0312 26.6583 45.0312 25.4001C45.0312 25.0482 44.589 24.6211 44.2522 24.6211C43.7895 24.6211 43.3623 25.0003 43.3623 25.4548Z" fill="#9C00CC"/>
</svg>
