<svg width="77" height="77" viewBox="0 0 77 77" fill="none" xmlns="http://www.w3.org/2000/svg">
<path d="M77 38.5009C77 39.1305 76.9848 39.76 76.9545 40.3895C76.9242 41.019 76.8768 41.6466 76.8161 42.2743C76.7535 42.9019 76.6758 43.5257 76.5847 44.1495C76.4918 44.7733 76.3838 45.3934 76.2605 46.0115C76.1373 46.6297 76.0007 47.244 75.8472 47.8546C75.6936 48.467 75.5248 49.0738 75.3428 49.6767C75.1608 50.2797 74.9617 50.877 74.7493 51.4705C74.5369 52.064 74.3113 52.6518 74.0705 53.2339C73.8297 53.816 73.5737 54.3924 73.3044 54.9613C73.0352 55.5301 72.7508 56.0933 72.455 56.6488C72.1573 57.2044 71.8463 57.7524 71.524 58.2928C71.1997 58.8332 70.8622 59.366 70.5114 59.8893C70.1626 60.4145 69.7985 60.9284 69.425 61.4347C69.0495 61.9409 68.6608 62.4377 68.2607 62.925C67.8625 63.4123 67.4511 63.8883 67.0264 64.3547C66.6035 64.823 66.1693 65.2781 65.7237 65.7237C65.2781 66.1693 64.823 66.6035 64.3547 67.0264C63.8883 67.4511 63.4123 67.8625 62.925 68.2607C62.4377 68.6608 61.9409 69.0495 61.4347 69.425C60.9284 69.7985 60.4145 70.1626 59.8893 70.5114C59.366 70.8622 58.8332 71.1997 58.2928 71.524C57.7524 71.8463 57.2044 72.1573 56.6488 72.455C56.0933 72.7508 55.5301 73.0352 54.9613 73.3044C54.3924 73.5737 53.816 73.8297 53.2339 74.0705C52.6518 74.3113 52.064 74.5369 51.4705 74.7493C50.877 74.9617 50.2797 75.1608 49.6767 75.3428C49.0738 75.5248 48.467 75.6936 47.8546 75.8472C47.244 76.0007 46.6297 76.1373 46.0115 76.2605C45.3934 76.3838 44.7733 76.4918 44.1495 76.5847C43.5257 76.6758 42.9019 76.7535 42.2743 76.8161C41.6466 76.8768 41.019 76.9242 40.3895 76.9545C39.76 76.9848 39.1305 77 38.5009 77C37.8695 77 37.24 76.9848 36.6105 76.9545C35.981 76.9242 35.3534 76.8768 34.7257 76.8161C34.1 76.7535 33.4743 76.6758 32.8505 76.5847C32.2285 76.4918 31.6066 76.3838 30.9885 76.2605C30.3703 76.1373 29.756 76.0007 29.1454 75.8472C28.5349 75.6936 27.9262 75.5248 27.3233 75.3428C26.7203 75.1608 26.123 74.9617 25.5295 74.7493C24.936 74.5369 24.3482 74.3113 23.7661 74.0705C23.184 73.8297 22.6095 73.5737 22.0387 73.3044C21.4699 73.0352 20.9067 72.7508 20.3512 72.455C19.7956 72.1573 19.2476 71.8463 18.7072 71.524C18.1668 71.1997 17.634 70.8622 17.1107 70.5114C16.5874 70.1626 16.0716 69.7985 15.5653 69.425C15.0591 69.0495 14.5623 68.6608 14.075 68.2607C13.5896 67.8625 13.1117 67.4511 12.6453 67.0264C12.1789 66.6035 11.7219 66.1693 11.2763 65.7237C10.8307 65.2781 10.3965 64.823 9.97365 64.3547C9.55081 63.8883 9.13935 63.4123 8.73927 62.925C8.33919 62.4377 7.95237 61.9409 7.57694 61.4347C7.20151 60.9284 6.83745 60.4145 6.48856 59.8893C6.13778 59.366 5.80216 58.8332 5.47792 58.2928C5.15369 57.7524 4.84272 57.2044 4.54503 56.6488C4.24923 56.0933 3.96481 55.5301 3.69556 54.9613C3.42631 54.3924 3.17223 53.816 2.93142 53.2339C2.68871 52.6518 2.46307 52.064 2.25071 51.4705C2.03834 50.877 1.84114 50.2797 1.65722 49.6767C1.47519 49.0738 1.30643 48.467 1.15285 47.8546C1.00116 47.244 0.86274 46.6297 0.739491 46.0115C0.616243 45.3934 0.508163 44.7733 0.417149 44.1495C0.324239 43.5257 0.246497 42.9019 0.185821 42.2743C0.123249 41.6466 0.0777413 41.019 0.0455072 40.3895C0.0151691 39.76 0 39.1305 0 38.5009C0 37.8695 0.0151691 37.24 0.0455072 36.6105C0.0777413 35.981 0.123249 35.3534 0.185821 34.7257C0.246497 34.1 0.324239 33.4743 0.417149 32.8505C0.508163 32.2285 0.616243 31.6066 0.739491 30.9885C0.86274 30.3703 1.00116 29.756 1.15285 29.1454C1.30643 28.5349 1.47519 27.9262 1.65722 27.3233C1.84114 26.7203 2.03834 26.123 2.25071 25.5295C2.46307 24.936 2.68871 24.3482 2.93142 23.7661C3.17223 23.184 3.42631 22.6095 3.69556 22.0387C3.96481 21.4699 4.24923 20.9067 4.54503 20.3512C4.84272 19.7956 5.15369 19.2476 5.47792 18.7072C5.80216 18.1668 6.13778 17.634 6.48856 17.1107C6.83745 16.5874 7.20151 16.0716 7.57694 15.5653C7.95237 15.0591 8.33919 14.5623 8.73927 14.075C9.13935 13.5896 9.55081 13.1117 9.97365 12.6453C10.3965 12.1789 10.8307 11.7219 11.2763 11.2763C11.7219 10.8307 12.1789 10.3965 12.6453 9.97365C13.1117 9.55081 13.5896 9.13935 14.075 8.73927C14.5623 8.33919 15.0591 7.95237 15.5653 7.57694C16.0716 7.20151 16.5874 6.83745 17.1107 6.48856C17.634 6.13778 18.1668 5.80216 18.7072 5.47792C19.2476 5.15369 19.7956 4.84272 20.3512 4.54503C20.9067 4.24923 21.4699 3.96481 22.0387 3.69556C22.6095 3.42631 23.184 3.17223 23.7661 2.93142C24.3482 2.68871 24.936 2.46307 25.5295 2.25071C26.123 2.03834 26.7203 1.84114 27.3233 1.65722C27.9262 1.47519 28.5349 1.30643 29.1454 1.15285C29.756 1.00116 30.3703 0.86274 30.9885 0.739491C31.6066 0.616243 32.2285 0.508163 32.8505 0.417149C33.4743 0.324239 34.1 0.246497 34.7257 0.185821C35.3534 0.123249 35.981 0.0777413 36.6105 0.0455072C37.24 0.0151691 37.8695 0 38.5009 0C39.1305 0 39.76 0.0151691 40.3895 0.0455072C41.019 0.0777413 41.6466 0.123249 42.2743 0.185821C42.9019 0.246497 43.5257 0.324239 44.1495 0.417149C44.7733 0.508163 45.3934 0.616243 46.0115 0.739491C46.6297 0.86274 47.244 1.00116 47.8546 1.15285C48.467 1.30643 49.0738 1.47519 49.6767 1.65722C50.2797 1.84114 50.877 2.03834 51.4705 2.25071C52.064 2.46307 52.6518 2.68871 53.2339 2.93142C53.816 3.17223 54.3924 3.42631 54.9613 3.69556C55.5301 3.96481 56.0933 4.24923 56.6488 4.54503C57.2044 4.84272 57.7524 5.15369 58.2928 5.47792C58.8332 5.80216 59.366 6.13778 59.8893 6.48856C60.4145 6.83745 60.9284 7.20151 61.4347 7.57694C61.9409 7.95237 62.4377 8.33919 62.925 8.73927C63.4123 9.13935 63.8883 9.55081 64.3547 9.97365C64.823 10.3965 65.2781 10.8307 65.7237 11.2763C66.1693 11.7219 66.6035 12.1789 67.0264 12.6453C67.4511 13.1117 67.8625 13.5896 68.2607 14.075C68.6608 14.5623 69.0495 15.0591 69.425 15.5653C69.7985 16.0716 70.1626 16.5874 70.5114 17.1107C70.8622 17.634 71.1997 18.1668 71.524 18.7072C71.8463 19.2476 72.1573 19.7956 72.455 20.3512C72.7508 20.9067 73.0352 21.4699 73.3044 22.0387C73.5737 22.6095 73.8297 23.184 74.0705 23.7661C74.3113 24.3482 74.5369 24.936 74.7493 25.5295C74.9617 26.123 75.1608 26.7203 75.3428 27.3233C75.5248 27.9262 75.6936 28.5349 75.8472 29.1454C76.0007 29.756 76.1373 30.3703 76.2605 30.9885C76.3838 31.6066 76.4918 32.2285 76.5847 32.8505C76.6758 33.4743 76.7535 34.1 76.8161 34.7257C76.8768 35.3534 76.9242 35.981 76.9545 36.6105C76.9848 37.24 77 37.8695 77 38.5009Z" fill="#9C00CC"/>
<path d="M54.1717 25.8272C51.9419 27.1261 49.4712 28.4742 46.9702 27.6077C46.3767 29.8698 46.665 33.3985 48.0605 35.5164C48.8152 36.6712 49.7936 37.2495 50.9483 37.2495H51.1398C54.1073 37.2495 55.0876 33.5274 55.3113 32.3878C55.8726 29.5645 55.3587 26.726 54.1717 25.8272Z" fill="white"/>
<path d="M41.1952 39.1741C41.5649 39.3656 41.7413 39.7998 41.6123 40.1999C41.4037 40.8104 41.307 41.2276 41.3241 41.5651C42.1413 41.0987 42.9756 40.7934 43.7455 40.5052C45.9431 39.6709 47.1149 39.1267 47.1794 37.1528C46.986 36.9291 46.8096 36.7034 46.6484 36.4474C44.6916 33.4629 44.5798 28.6828 45.7023 26.0832C45.799 25.8594 45.9924 25.6831 46.2161 25.6035C46.4569 25.5219 46.6977 25.5542 46.9215 25.6831C48.975 26.8853 51.2371 25.5542 53.6433 24.1586L53.7551 24.0941C53.996 23.95 54.269 23.9349 54.525 24.0467C57.0601 25.1048 57.7181 29.3085 57.0279 32.7253C56.66 34.6025 55.9376 36.1251 54.9592 37.2002C55.0388 39.157 56.2106 39.6879 58.3912 40.5222C59.161 40.8104 59.9953 41.1309 60.8144 41.5803C60.8296 41.2428 60.7177 40.8256 60.5262 40.217C60.3973 39.815 60.5736 39.3827 60.9434 39.1892C61.7284 38.7721 61.937 37.7141 61.8725 36.9291C61.808 36.0455 61.3909 35.0197 60.5736 34.7295C60.1565 34.5854 59.9327 34.1361 60.0275 33.7189C60.3802 32.3082 59.9157 31.1364 58.9221 29.5C58.5998 28.971 58.4234 28.2012 58.2148 27.2228C57.5417 24.2231 56.6107 20.1331 51.2048 20.1331H51.0759C45.5582 20.0687 44.6272 24.206 43.954 27.2228C43.7303 28.2012 43.554 28.971 43.2487 29.5C42.2703 31.1534 41.8038 32.3082 42.1413 33.7189C42.238 34.1531 42.0124 34.5854 41.5953 34.7295C40.7932 35.0197 40.3609 36.0455 40.2964 36.9291C40.1997 37.6989 40.4083 38.7721 41.1952 39.1741Z" fill="white"/>
<path d="M51.046 44.3069C50.5643 44.3069 50.0827 44.2595 49.6182 44.1628V56.884H52.4567V44.1628C52.0073 44.2424 51.5427 44.3069 51.046 44.3069Z" fill="white"/>
<path d="M54.895 40.6986C54.2048 40.1525 53.6436 39.4471 53.3876 38.4194C52.6974 38.7721 51.9428 38.9655 51.1407 38.9655H50.9492C50.1471 38.9655 49.3925 38.7721 48.7193 38.4194C48.4615 39.4471 47.9002 40.1525 47.2119 40.6986C47.7087 41.3565 48.3667 41.8533 49.0872 42.1738C49.1043 42.1738 49.1194 42.1889 49.1365 42.1889C49.73 42.4468 50.3709 42.5758 51.0459 42.5758C51.719 42.5758 52.3599 42.4468 52.9534 42.1889C52.9705 42.1889 52.9856 42.1738 53.0027 42.1738C53.7403 41.8533 54.3812 41.3565 54.895 40.6986Z" fill="white"/>
<path d="M60.7671 43.6016C60.7349 43.5864 60.7027 43.5693 60.6856 43.5542C60.6534 43.5371 60.6382 43.5049 60.606 43.4897C59.7565 42.8962 58.761 42.5113 57.7504 42.1264C57.301 41.95 56.8365 41.7737 56.3871 41.5803C55.7936 42.3975 55.0389 43.0725 54.1895 43.5371V56.901H57.7826V52.3446C57.7826 51.863 58.1675 51.4781 58.6492 51.4781C59.1308 51.4781 59.5157 51.863 59.5157 52.3446V56.901H63.1563V49.8266C63.1411 46.3604 62.1627 44.6444 60.7671 43.6016Z" fill="white"/>
<path d="M45.7023 41.5651C45.2529 41.7737 44.7884 41.95 44.339 42.1093C43.3284 42.4942 42.3348 42.8791 41.4834 43.4726C41.4683 43.4897 41.436 43.5219 41.4038 43.5371C41.3716 43.5541 41.3564 43.5693 41.3242 43.5864C39.9286 44.6444 38.9502 46.3452 38.9502 49.7943V56.8688H42.5908V52.3124C42.5908 51.8307 42.9757 51.4458 43.4573 51.4458C43.9389 51.4458 44.3238 51.8307 44.3238 52.3124V56.8688H47.9322V43.5048C47.0505 43.0555 46.2958 42.3823 45.7023 41.5651Z" fill="white"/>
<path d="M22.7949 44.853L24.1905 43.7949L21.4145 41.3394C21.0467 41.6125 20.6447 41.8362 20.2275 42.0296L22.7949 44.853Z" fill="white"/>
<path d="M30.8653 42.0296C30.4481 41.8362 30.0461 41.6125 29.6764 41.3394L26.9023 43.7949L28.2979 44.853L30.8653 42.0296Z" fill="white"/>
<path d="M32.5643 42.7028L29.0356 46.586C28.8592 46.7775 28.6355 46.8572 28.3947 46.8572C28.2183 46.8572 28.0249 46.7946 27.8808 46.6808L25.5391 44.9174L23.1955 46.6808C23.0362 46.7946 22.8599 46.8572 22.6835 46.8572C22.4427 46.8572 22.2171 46.7624 22.0407 46.586L18.512 42.7028C16.0907 43.6015 13.8438 44.5325 13.8438 49.8891V56.8839H17.0691V52.3275C17.0691 51.8478 17.454 51.4629 17.9356 51.4629C18.4153 51.4629 18.8002 51.8478 18.8002 52.3275V56.8839H32.276V52.3275C32.276 51.8478 32.661 51.4629 33.1426 51.4629C33.6242 51.4629 34.0091 51.8478 34.0091 52.3275V56.8839H37.2325V49.8095C37.2174 44.5155 34.9704 43.5864 32.5643 42.7028Z" fill="white"/>
<path d="M28.4896 40.1051C28.1217 39.559 27.8487 38.8858 27.6875 38.0515C27.0466 38.3246 26.3564 38.4687 25.634 38.4687H25.4425C24.7201 38.4687 24.0299 38.3246 23.389 38.0515C23.2278 38.8858 22.9567 39.559 22.5869 40.1051L25.5221 42.7028L28.4896 40.1051Z" fill="white"/>
<path d="M19.2662 27.3517C19.7308 25.7305 21.206 24.6554 22.8272 24.6554C22.9561 24.6554 23.1002 24.6554 23.2272 24.6725C23.9667 24.7521 24.9925 24.9455 25.4097 25.7305C25.586 26.051 25.6031 26.3733 25.5538 26.6615C25.8742 26.5648 26.3236 26.3885 26.7901 26.1799C28.4094 25.5068 30.4477 24.6554 31.3123 26.0832C31.6176 26.597 31.8433 27.1905 31.9874 27.8637C32.5164 26.4207 32.2111 25.0574 31.0564 23.7585C29.9016 22.4578 27.9126 21.3201 25.7301 20.7095C23.5496 20.0838 21.9929 20.2128 21.4638 20.5977C21.3671 20.6621 21.0789 20.8707 21.5909 21.7695C21.7198 21.9932 21.7369 22.2814 21.6402 22.5223C21.5435 22.7631 21.3197 22.9565 21.0619 23.019C19.6511 23.3888 18.8168 23.9993 18.5438 24.8317C18.2707 25.7153 18.576 26.8378 19.1373 27.913C19.1543 27.7366 19.2017 27.5432 19.2662 27.3517Z" fill="white"/>
<path d="M23.7904 26.5326C23.6614 26.4852 23.4358 26.4207 23.0357 26.3733C22.0573 26.2595 21.1908 26.8701 20.9026 27.8163C20.6769 28.5709 20.6124 29.4678 20.694 30.3836C20.7092 30.431 20.7092 30.4955 20.7092 30.56C20.8703 32.1641 21.4467 33.8156 22.3303 34.9874C22.5863 35.3401 22.8745 35.6454 23.1646 35.8862C23.1969 35.9014 23.2272 35.9336 23.2443 35.9488C23.9022 36.4626 24.6398 36.7205 25.4419 36.7205H25.6334C26.517 36.7205 27.2546 36.3982 27.8329 35.9336C27.8481 35.9184 27.8803 35.8862 27.9126 35.8691C28.489 35.3875 28.9232 34.7789 29.2436 34.2176C29.8694 33.1254 30.2391 31.7943 30.3661 30.5277C30.3661 30.4784 30.3661 30.431 30.3832 30.3836C30.4951 29.0677 30.3187 27.8333 29.8371 26.999C29.42 26.9023 28.0718 27.4636 27.4158 27.7366C26.8849 27.9604 26.3729 28.1689 25.9387 28.2979C24.8484 28.6032 24.0463 28.7624 23.5818 28.1689C23.1476 27.6248 23.468 27.0313 23.6444 26.726C23.7088 26.7089 23.7581 26.6141 23.7904 26.5326Z" fill="white"/>
</svg>
