<svg width="77" height="77" viewBox="0 0 77 77" fill="none" xmlns="http://www.w3.org/2000/svg">
<path d="M77 38.5009C77 39.1305 76.9848 39.76 76.9545 40.3895C76.9242 41.019 76.8768 41.6466 76.8161 42.2743C76.7535 42.9019 76.6758 43.5257 76.5847 44.1495C76.4918 44.7733 76.3838 45.3934 76.2605 46.0115C76.1373 46.6297 76.0007 47.244 75.8472 47.8546C75.6936 48.467 75.5248 49.0738 75.3428 49.6767C75.1608 50.2797 74.9617 50.877 74.7493 51.4705C74.5369 52.064 74.3113 52.6518 74.0705 53.2339C73.8297 53.816 73.5737 54.3924 73.3044 54.9613C73.0352 55.5301 72.7508 56.0933 72.455 56.6488C72.1573 57.2044 71.8463 57.7524 71.524 58.2928C71.1997 58.8332 70.8622 59.366 70.5114 59.8893C70.1626 60.4145 69.7985 60.9284 69.425 61.4347C69.0495 61.9409 68.6608 62.4377 68.2607 62.925C67.8625 63.4123 67.4511 63.8883 67.0264 64.3547C66.6035 64.823 66.1693 65.2781 65.7237 65.7237C65.2781 66.1693 64.823 66.6035 64.3547 67.0264C63.8883 67.4511 63.4123 67.8625 62.925 68.2607C62.4377 68.6608 61.9409 69.0495 61.4347 69.425C60.9284 69.7985 60.4145 70.1626 59.8893 70.5114C59.366 70.8622 58.8332 71.1997 58.2928 71.524C57.7524 71.8463 57.2044 72.1573 56.6488 72.455C56.0933 72.7508 55.5301 73.0352 54.9613 73.3044C54.3924 73.5737 53.816 73.8297 53.2339 74.0705C52.6518 74.3113 52.064 74.5369 51.4705 74.7493C50.877 74.9617 50.2797 75.1608 49.6767 75.3428C49.0738 75.5248 48.467 75.6936 47.8546 75.8472C47.244 76.0007 46.6297 76.1373 46.0115 76.2605C45.3934 76.3838 44.7733 76.4918 44.1495 76.5847C43.5257 76.6758 42.9019 76.7535 42.2743 76.8161C41.6466 76.8768 41.019 76.9242 40.3895 76.9545C39.76 76.9848 39.1305 77 38.5009 77C37.8695 77 37.24 76.9848 36.6105 76.9545C35.981 76.9242 35.3534 76.8768 34.7257 76.8161C34.1 76.7535 33.4743 76.6758 32.8505 76.5847C32.2285 76.4918 31.6066 76.3838 30.9885 76.2605C30.3703 76.1373 29.756 76.0007 29.1454 75.8472C28.5349 75.6936 27.9262 75.5248 27.3233 75.3428C26.7203 75.1608 26.123 74.9617 25.5295 74.7493C24.936 74.5369 24.3482 74.3113 23.7661 74.0705C23.184 73.8297 22.6095 73.5737 22.0387 73.3044C21.4699 73.0352 20.9067 72.7508 20.3512 72.455C19.7956 72.1573 19.2476 71.8463 18.7072 71.524C18.1668 71.1997 17.634 70.8622 17.1107 70.5114C16.5874 70.1626 16.0716 69.7985 15.5653 69.425C15.0591 69.0495 14.5623 68.6608 14.075 68.2607C13.5896 67.8625 13.1117 67.4511 12.6453 67.0264C12.1789 66.6035 11.7219 66.1693 11.2763 65.7237C10.8307 65.2781 10.3965 64.823 9.97365 64.3547C9.55081 63.8883 9.13935 63.4123 8.73927 62.925C8.33919 62.4377 7.95237 61.9409 7.57694 61.4347C7.20151 60.9284 6.83745 60.4145 6.48856 59.8893C6.13778 59.366 5.80216 58.8332 5.47792 58.2928C5.15369 57.7524 4.84272 57.2044 4.54503 56.6488C4.24923 56.0933 3.96481 55.5301 3.69556 54.9613C3.42631 54.3924 3.17223 53.816 2.93142 53.2339C2.68871 52.6518 2.46307 52.064 2.25071 51.4705C2.03834 50.877 1.84114 50.2797 1.65722 49.6767C1.47519 49.0738 1.30643 48.467 1.15285 47.8546C1.00116 47.244 0.86274 46.6297 0.739491 46.0115C0.616243 45.3934 0.508163 44.7733 0.417149 44.1495C0.324239 43.5257 0.246497 42.9019 0.185821 42.2743C0.123249 41.6466 0.0777413 41.019 0.0455072 40.3895C0.0151691 39.76 0 39.1305 0 38.5009C0 37.8695 0.0151691 37.24 0.0455072 36.6105C0.0777413 35.981 0.123249 35.3534 0.185821 34.7257C0.246497 34.1 0.324239 33.4743 0.417149 32.8505C0.508163 32.2285 0.616243 31.6066 0.739491 30.9885C0.86274 30.3703 1.00116 29.756 1.15285 29.1454C1.30643 28.5349 1.47519 27.9262 1.65722 27.3233C1.84114 26.7203 2.03834 26.123 2.25071 25.5295C2.46307 24.936 2.68871 24.3482 2.93142 23.7661C3.17223 23.184 3.42631 22.6095 3.69556 22.0387C3.96481 21.4699 4.24923 20.9067 4.54503 20.3512C4.84272 19.7956 5.15369 19.2476 5.47792 18.7072C5.80216 18.1668 6.13778 17.634 6.48856 17.1107C6.83745 16.5874 7.20151 16.0716 7.57694 15.5653C7.95237 15.0591 8.33919 14.5623 8.73927 14.075C9.13935 13.5896 9.55081 13.1117 9.97365 12.6453C10.3965 12.1789 10.8307 11.7219 11.2763 11.2763C11.7219 10.8307 12.1789 10.3965 12.6453 9.97365C13.1117 9.55081 13.5896 9.13935 14.075 8.73927C14.5623 8.33919 15.0591 7.95237 15.5653 7.57694C16.0716 7.20151 16.5874 6.83745 17.1107 6.48856C17.634 6.13778 18.1668 5.80216 18.7072 5.47792C19.2476 5.15369 19.7956 4.84272 20.3512 4.54503C20.9067 4.24923 21.4699 3.96481 22.0387 3.69556C22.6095 3.42631 23.184 3.17223 23.7661 2.93142C24.3482 2.68871 24.936 2.46307 25.5295 2.25071C26.123 2.03834 26.7203 1.84114 27.3233 1.65722C27.9262 1.47519 28.5349 1.30643 29.1454 1.15285C29.756 1.00116 30.3703 0.86274 30.9885 0.739491C31.6066 0.616243 32.2285 0.508163 32.8505 0.417149C33.4743 0.324239 34.1 0.246497 34.7257 0.185821C35.3534 0.123249 35.981 0.0777413 36.6105 0.0455072C37.24 0.0151691 37.8695 0 38.5009 0C39.1305 0 39.76 0.0151691 40.3895 0.0455072C41.019 0.0777413 41.6466 0.123249 42.2743 0.185821C42.9019 0.246497 43.5257 0.324239 44.1495 0.417149C44.7733 0.508163 45.3934 0.616243 46.0115 0.739491C46.6297 0.86274 47.244 1.00116 47.8546 1.15285C48.467 1.30643 49.0738 1.47519 49.6767 1.65722C50.2797 1.84114 50.877 2.03834 51.4705 2.25071C52.064 2.46307 52.6518 2.68871 53.2339 2.93142C53.816 3.17223 54.3924 3.42631 54.9613 3.69556C55.5301 3.96481 56.0933 4.24923 56.6488 4.54503C57.2044 4.84272 57.7524 5.15369 58.2928 5.47792C58.8332 5.80216 59.366 6.13778 59.8893 6.48856C60.4145 6.83745 60.9284 7.20151 61.4347 7.57694C61.9409 7.95237 62.4377 8.33919 62.925 8.73927C63.4123 9.13935 63.8883 9.55081 64.3547 9.97365C64.823 10.3965 65.2781 10.8307 65.7237 11.2763C66.1693 11.7219 66.6035 12.1789 67.0264 12.6453C67.4511 13.1117 67.8625 13.5896 68.2607 14.075C68.6608 14.5623 69.0495 15.0591 69.425 15.5653C69.7985 16.0716 70.1626 16.5874 70.5114 17.1107C70.8622 17.634 71.1997 18.1668 71.524 18.7072C71.8463 19.2476 72.1573 19.7956 72.455 20.3512C72.7508 20.9067 73.0352 21.4699 73.3044 22.0387C73.5737 22.6095 73.8297 23.184 74.0705 23.7661C74.3113 24.3482 74.5369 24.936 74.7493 25.5295C74.9617 26.123 75.1608 26.7203 75.3428 27.3233C75.5248 27.9262 75.6936 28.5349 75.8472 29.1454C76.0007 29.756 76.1373 30.3703 76.2605 30.9885C76.3838 31.6066 76.4918 32.2285 76.5847 32.8505C76.6758 33.4743 76.7535 34.1 76.8161 34.7257C76.8768 35.3534 76.9242 35.981 76.9545 36.6105C76.9848 37.24 77 37.8695 77 38.5009Z" fill="#9C00CC"/>
</svg>
