<svg width="24" height="24" viewBox="0 0 24 24" fill="none" xmlns="http://www.w3.org/2000/svg">
<mask id="mask0_990_16243" style="mask-type:alpha" maskUnits="userSpaceOnUse" x="0" y="0" width="24" height="24">
<rect width="24" height="24" fill="#D9D9D9"/>
</mask>
<g mask="url(#mask0_990_16243)">
<path d="M13.3125 19.6983L8 18.1983V10.6775H9.33333C9.43056 10.6775 9.52778 10.6879 9.625 10.7088C9.72222 10.7296 9.81944 10.7539 9.91667 10.7817L15.6875 12.9275C15.8819 12.9969 16.0382 13.1219 16.1563 13.3025C16.2743 13.4831 16.3333 13.6706 16.3333 13.865C16.3333 14.1567 16.2326 14.3928 16.0312 14.5733C15.8299 14.7539 15.5972 14.8442 15.3333 14.8442H13.1458C13.0764 14.8442 13.0243 14.8407 12.9896 14.8338C12.9549 14.8268 12.9097 14.8094 12.8542 14.7817L11.9167 14.4275C11.8056 14.3858 11.6944 14.3928 11.5833 14.4483C11.4722 14.5039 11.4028 14.5803 11.375 14.6775C11.3472 14.7886 11.3542 14.8928 11.3958 14.99C11.4375 15.0872 11.5139 15.1567 11.625 15.1983L12.8542 15.6358C12.8819 15.6497 12.9236 15.6601 12.9792 15.6671C13.0347 15.674 13.0833 15.6775 13.125 15.6775H18.8333C19.2778 15.6775 19.6667 15.8372 20 16.1567C20.3333 16.4761 20.5 16.8719 20.5 17.3442L14.3542 19.6567C14.2153 19.7122 14.0451 19.7435 13.8437 19.7504C13.6424 19.7574 13.4653 19.74 13.3125 19.6983ZM3 18.1775V12.3442C3 11.8858 3.16319 11.4935 3.48958 11.1671C3.81597 10.8407 4.20833 10.6775 4.66667 10.6775C5.125 10.6775 5.51736 10.8407 5.84375 11.1671C6.17014 11.4935 6.33333 11.8858 6.33333 12.3442V18.1775C6.33333 18.6358 6.17014 19.0282 5.84375 19.3546C5.51736 19.681 5.125 19.8442 4.66667 19.8442C4.20833 19.8442 3.81597 19.681 3.48958 19.3546C3.16319 19.0282 3 18.6358 3 18.1775ZM12.9375 8.365L17.0833 4.24C17.2361 4.08722 17.4271 4.00736 17.6562 4.00042C17.8854 3.99347 18.0833 4.07333 18.25 4.24C18.4028 4.39278 18.4792 4.58722 18.4792 4.82333C18.4792 5.05944 18.4028 5.25389 18.25 5.40667L13.5208 10.1358C13.3542 10.3025 13.1597 10.3858 12.9375 10.3858C12.7153 10.3858 12.5208 10.3025 12.3542 10.1358L9.97917 7.76083C9.8125 7.59417 9.73264 7.39972 9.73958 7.1775C9.74653 6.95528 9.83333 6.76083 10 6.59417C10.1667 6.44139 10.3611 6.36153 10.5833 6.35458C10.8056 6.34764 11 6.4275 11.1667 6.59417L12.9375 8.365Z" fill="#A421D9"/>
</g>
</svg>
