<svg width="324" height="164" viewBox="0 0 324 164" fill="none" xmlns="http://www.w3.org/2000/svg">
<rect x="1.11099" y="1.11099" width="321.821" height="161.8" rx="25.3367" fill="#9C00CC" stroke="#9D10D3" stroke-width="1.77802"/>
<path fill-rule="evenodd" clip-rule="evenodd" d="M26.4477 2.01953C12.9456 2.01953 2 12.9652 2 26.4673V89.1424C2 91.5372 2.34433 93.8516 2.98619 96.0387V84.6909C7.18667 67.7543 17.2006 31.8929 23.6526 23.94C31.5544 14.2 47.6822 12.5893 93.37 8.02624C94.313 7.93206 95.2686 7.83662 96.237 7.73982C134.545 3.91068 257.368 14.2445 313.99 19.89L315.982 22.2011C319.064 25.7758 321.138 30.0678 322.043 34.639V26.4673C322.043 12.9652 311.098 2.01953 297.595 2.01953H26.4477Z" fill="#F4D8FF" fill-opacity="0.4"/>
<path fill-rule="evenodd" clip-rule="evenodd" d="M2 132.747V137.593C2 151.095 12.9456 162.041 26.4477 162.041H297.595C311.098 162.041 322.043 151.095 322.043 137.593V28.211C322.043 18.297 316.142 9.76132 307.661 5.9248C312.176 10.3605 314.976 16.5359 314.976 23.3652V128.302C314.976 144.259 302.04 157.195 286.083 157.195H26.4478C12.9456 157.195 2 146.249 2 132.747Z" fill="#8102A6"/>
</svg>
