<svg width="61" height="58" viewBox="0 0 61 58" fill="none" xmlns="http://www.w3.org/2000/svg">
<path d="M51.1037 7.2534C51.1028 7.25252 51.1021 7.25188 51.1011 7.25099L42.2778 3.97485L26.875 7.25112V14.5011L52.1067 18.9929L56.6062 14.5011C55.1434 11.7737 53.2796 9.32585 51.1037 7.2534Z" fill="#E7A52E"/>
<path d="M51.1014 50.7501L39.5849 48.3857L26.875 50.7501V58.0001H33.3273C40.0751 58.0001 46.2415 55.3164 50.9609 50.8845" fill="#E7A52E"/>
<path d="M26.875 43.4986L45.046 46.3369L56.6063 43.4985C57.8093 41.2545 58.7423 38.8207 59.3559 36.2485L45.8377 32.0432L26.875 36.2485L26.875 43.4986Z" fill="#E7A52E"/>
<path d="M59.3559 21.7491L51.1014 16.4292L26.875 21.7491V28.9991L53.327 34.1529L60.2026 28.9991C60.2026 26.4953 59.9089 24.0665 59.3559 21.7491Z" fill="#E7A52E"/>
<path d="M56.4542 28.9998C56.4542 12.9836 44.4218 0 29.5789 0C28.6659 0 27.7637 0.0496097 26.874 0.145657V57.9998H29.5789C44.4216 57.9997 56.4542 45.016 56.4542 28.9998Z" fill="#E28424"/>
<path d="M51.1004 7.24999C46.363 2.73868 40.1415 0 33.3263 0H26.874V7.24999H51.1004Z" fill="#C85929"/>
<path d="M26.875 21.7483H59.3559C58.7423 19.1761 57.8093 16.7424 56.6063 14.4983H26.875L26.875 21.7483Z" fill="#C85929"/>
<path d="M26.875 36.2485H59.3559C59.9086 33.9312 60.2026 31.502 60.2026 28.9985H26.875V36.2485Z" fill="#C85929"/>
<path d="M26.875 50.7502H51.1014C53.2788 48.6768 55.1431 46.2297 56.6063 43.5002H26.875L26.875 50.7502Z" fill="#C85929"/>
<path d="M52.8589 43.5002H26.875V50.7502H47.354C49.5314 48.6768 51.3957 46.2295 52.8589 43.5002Z" fill="#B94029"/>
<path d="M56.4552 28.9985H26.875V36.2485H55.6085C56.1611 33.9312 56.4552 31.502 56.4552 28.9985Z" fill="#B94029"/>
<path d="M52.8589 14.4983H26.875V21.7483H55.6086C54.995 19.1761 54.062 16.7424 52.8589 14.4983Z" fill="#B94029"/>
<path d="M29.5789 0C28.6659 0 27.7637 0.0496097 26.874 0.145657V7.24999H47.353C42.6156 2.73868 36.3941 0 29.5789 0Z" fill="#B94029"/>
<ellipse cx="26.8753" cy="28.9998" rx="26.8753" ry="28.9998" fill="#F6E266"/>
<path d="M9.03711 50.6872C10.3958 51.9892 11.8765 53.146 13.4603 54.1323L20.8324 0.735107C19.0366 1.18033 17.3101 1.82081 15.6717 2.63284L9.03711 50.6872Z" fill="#FBF4AF"/>
<path d="M26.8746 0C26.3862 0 25.901 0.0149717 25.4189 0.0427582C39.5849 0.858717 50.8386 13.5107 50.8386 28.9998C50.8386 44.489 39.5847 57.1409 25.4189 57.957C25.901 57.9848 26.3862 57.9998 26.8746 57.9998C41.7175 57.9998 53.7499 45.0161 53.7499 29C53.7499 12.9838 41.7175 0 26.8746 0Z" fill="#EAB14D"/>
<ellipse cx="26.874" cy="28.9971" rx="21.6445" ry="23.3555" fill="#E7A52E"/>
<path d="M26.876 5.6416C26.3346 5.6416 25.798 5.66368 25.2666 5.70593C36.4688 6.59446 45.3017 16.6825 45.3017 28.9971C45.3017 41.3117 36.4689 51.3997 25.2666 52.2883C25.7981 52.3304 26.3346 52.3526 26.876 52.3526C38.8299 52.3526 48.5204 41.896 48.5204 28.9971C48.5204 16.0982 38.8299 5.6416 26.876 5.6416Z" fill="#E28424"/>
<path d="M10.0107 43.6354C11.2502 45.296 12.6952 46.7703 14.3053 48.0119L19.9882 6.84961C18.094 7.53514 16.3171 8.49586 14.6976 9.68738L10.0107 43.6354Z" fill="#EAB14D"/>
<path d="M27.5356 16.1337L31.6215 22.9071C31.7274 23.0829 31.8898 23.2101 32.0775 23.2646L39.31 25.3645C39.8606 25.5244 40.0768 26.2424 39.7184 26.7209L35.0111 33.0071C34.889 33.1701 34.8269 33.376 34.8369 33.5854L35.221 41.6567C35.2502 42.271 34.6842 42.7147 34.1518 42.495L27.1566 39.6067C26.9752 39.5318 26.7744 39.5318 26.593 39.6067L19.5978 42.495C19.0654 42.7148 18.4994 42.271 18.5286 41.6567L18.9127 33.5854C18.9227 33.376 18.8606 33.1701 18.7385 33.0071L14.0312 26.7209C13.6729 26.2424 13.889 25.5244 14.4395 25.3645L21.6721 23.2646C21.8597 23.2101 22.0221 23.0827 22.1281 22.9071L26.214 16.1337C26.5249 15.6182 27.2245 15.6182 27.5356 16.1337Z" fill="#C85929"/>
<path d="M39.3099 25.3624L32.0773 23.2625C31.8897 23.2079 31.7274 23.0806 31.6213 22.905L31.2772 22.3347C31.2427 26.6383 30.6672 33.5676 27.8418 39.8877L34.1516 42.493C34.684 42.7129 35.25 42.269 35.2208 41.6547L34.8367 33.5834C34.8267 33.3741 34.8888 33.1681 35.0109 33.0051L39.7182 26.7189C40.0765 26.2402 39.8603 25.5223 39.3099 25.3624Z" fill="#B94029"/>
</svg>
