<svg width="132" height="170" viewBox="0 0 132 170" fill="none" xmlns="http://www.w3.org/2000/svg">
<g clip-path="url(#clip0_319_6156)">
<mask id="mask0_319_6156" style="mask-type:luminance" maskUnits="userSpaceOnUse" x="-1" y="12" width="133" height="158">
<path d="M-0.0507812 12.5144H132V170H-0.0507812V12.5144Z" fill="white"/>
</mask>
<g mask="url(#mask0_319_6156)">
<path d="M109.783 20.481V12.9363H21.9161V20.481C21.9161 24.2995 19.4203 27.6786 15.7507 28.8276C6.34452 31.7717 -0.0507812 40.4325 -0.0507812 50.2226V142.517C-0.0507812 151.061 4.90099 158.459 12.1098 162.036C14.9173 163.426 30.9508 169.763 66.5306 169.763C100.793 169.763 116.466 163.541 119.36 162.148C126.695 158.615 131.75 151.151 131.75 142.517V50.2226C131.75 40.4325 125.355 31.7717 115.949 28.8276C112.279 27.6786 109.783 24.2995 109.783 20.481Z" fill="#ABD7FF"/>
</g>
<path d="M109.783 12.9363H21.916V19.0199C28.6672 20.169 45.7906 20.9863 65.8497 20.9863C85.9088 20.9863 103.032 20.169 109.783 19.0199V12.9363Z" fill="#82C4FF"/>
<path d="M10.4188 71.431C9.47046 71.431 8.70117 70.6664 8.70117 69.726V49.1088C8.70117 44.6114 11.2721 40.6611 16.1377 37.6841C19.6304 35.5485 23.09 34.6565 23.2337 34.6192C24.1533 34.3863 25.0884 34.9355 25.325 35.8473C25.5593 36.7591 25.0066 37.6885 24.087 37.9213C24.0362 37.9367 20.917 38.7518 17.8752 40.6281C14.0663 42.979 12.1365 45.8308 12.1365 49.1088V69.726C12.1365 70.6664 11.3672 71.431 10.4188 71.431Z" fill="#CCE7FF"/>
<path d="M10.4188 142.899C9.47046 142.899 8.70117 142.137 8.70117 141.194V130.815C8.70117 129.873 9.47046 129.108 10.4188 129.108C11.3672 129.108 12.1365 129.873 12.1365 130.815V141.194C12.1365 142.137 11.3672 142.899 10.4188 142.899Z" fill="#CCE7FF"/>
<path d="M93.2482 31.5717C93.1421 31.5717 93.0515 31.4882 93.047 31.3806C93.0426 31.2707 93.1266 31.1763 93.2394 31.1719C100.831 30.8006 107.637 30.1151 113.466 29.1352C113.575 29.1176 113.681 29.1901 113.699 29.2978C113.716 29.4076 113.643 29.5109 113.533 29.5285C107.688 30.5128 100.868 31.1982 93.2593 31.5695C93.2548 31.5717 93.2504 31.5717 93.2482 31.5717Z" fill="#82C4FF"/>
<path d="M18.8359 3.05396V12.4266C18.8359 14.1162 39.8832 15.4849 65.849 15.4849C91.8126 15.4849 112.862 14.1162 112.862 12.4266V3.05396H18.8359Z" fill="#ABD7FF"/>
<mask id="mask1_319_6156" style="mask-type:luminance" maskUnits="userSpaceOnUse" x="18" y="-1" width="96" height="8">
<path d="M18.8164 -0.0505371H113.324V6.32754H18.8164V-0.0505371Z" fill="white"/>
</mask>
<g mask="url(#mask1_319_6156)">
<path d="M112.862 3.05392C112.862 3.15279 112.787 3.25385 112.637 3.35272C112.484 3.45159 112.259 3.55045 111.958 3.64932C111.657 3.74819 111.284 3.84486 110.837 3.94153C110.391 4.03601 109.873 4.13048 109.283 4.22276C108.695 4.31503 108.036 4.40511 107.311 4.49519C106.584 4.58307 105.795 4.66876 104.939 4.75225C104.084 4.83574 103.166 4.91483 102.191 4.99173C101.214 5.07082 100.182 5.14333 99.0922 5.21363C98.0023 5.28613 96.8639 5.35205 95.6746 5.41576C94.483 5.47948 93.2473 5.5388 91.9674 5.59592C90.6874 5.65085 89.3677 5.70138 88.0104 5.74971C86.6531 5.79585 85.2626 5.83979 83.839 5.87714C82.4175 5.91669 80.9696 5.94965 79.4951 5.97821C78.0228 6.00677 76.5307 6.03094 75.0208 6.05071C73.511 6.07049 71.9901 6.08587 70.4559 6.09465C68.924 6.10564 67.3876 6.11003 65.849 6.11003C64.3082 6.11003 62.7718 6.10564 61.2399 6.09465C59.7079 6.08587 58.187 6.07049 56.6772 6.05071C55.1673 6.03094 53.6752 6.00677 52.2007 5.97821C50.7284 5.94965 49.2805 5.91669 47.8568 5.87714C46.4354 5.83979 45.0449 5.79585 43.6854 5.74971C42.3281 5.70138 41.0084 5.65085 39.7284 5.59592C38.4485 5.5388 37.2127 5.47948 36.0234 5.41576C34.8341 5.35205 33.6935 5.28613 32.6058 5.21363C31.516 5.14333 30.4836 5.07082 29.5066 4.99173C28.5295 4.91483 27.6143 4.83574 26.7588 4.75225C25.9033 4.66876 25.1119 4.58307 24.3868 4.49519C23.6595 4.40511 23.0029 4.31503 22.4127 4.22276C21.8247 4.13048 21.3074 4.03601 20.8586 3.94153C20.4121 3.84486 20.0385 3.74819 19.7379 3.64932C19.4372 3.55045 19.2117 3.45159 19.0614 3.35272C18.9111 3.25385 18.8359 3.15279 18.8359 3.05392C18.8359 2.95285 18.9111 2.85399 19.0614 2.75292C19.2117 2.65405 19.4372 2.55518 19.7379 2.45632C20.0385 2.35965 20.4121 2.26078 20.8586 2.1663C21.3074 2.06963 21.8247 1.97516 22.4127 1.88288C23.0029 1.79061 23.6595 1.70053 24.3868 1.61264C25.1119 1.52476 25.9033 1.43908 26.7588 1.35559C27.6143 1.2721 28.5295 1.19081 29.5066 1.11391C30.4836 1.03701 31.516 0.962313 32.6058 0.892007C33.6935 0.821701 34.8341 0.753593 36.0234 0.689878C37.2127 0.626163 38.4485 0.566842 39.7284 0.511915C41.0084 0.456989 42.3281 0.404259 43.6854 0.358121C45.0449 0.309785 46.4354 0.268041 47.8568 0.228494C49.2805 0.191144 50.7284 0.155992 52.2007 0.127429C53.6752 0.0988676 55.1673 0.0746996 56.6772 0.0549262C58.187 0.0351528 59.7079 0.0219701 61.2399 0.0109849C62.7718 0.00219666 64.3082 -0.00439453 65.849 -0.00439453C67.3876 -0.00439453 68.924 0.00219666 70.4559 0.0109849C71.9901 0.0219701 73.511 0.0351528 75.0208 0.0549262C76.5307 0.0746996 78.0228 0.0988676 79.4951 0.127429C80.9696 0.155992 82.4175 0.191144 83.839 0.228494C85.2626 0.268041 86.6531 0.309785 88.0104 0.358121C89.3677 0.404259 90.6874 0.456989 91.9674 0.511915C93.2473 0.566842 94.483 0.626163 95.6746 0.689878C96.8639 0.753593 98.0023 0.821701 99.0922 0.892007C100.182 0.962313 101.214 1.03701 102.191 1.11391C103.166 1.19081 104.084 1.2721 104.939 1.35559C105.795 1.43908 106.584 1.52476 107.311 1.61264C108.036 1.70053 108.695 1.79061 109.283 1.88288C109.873 1.97516 110.391 2.06963 110.837 2.1663C111.284 2.26078 111.657 2.35965 111.958 2.45632C112.259 2.55518 112.484 2.65405 112.637 2.75292C112.787 2.85399 112.862 2.95285 112.862 3.05392Z" fill="#7DAAF5"/>
</g>
<path d="M65.8492 15.6847C53.2863 15.6847 41.4751 15.3662 32.5928 14.7883C28.2689 14.5071 24.8734 14.1798 22.4992 13.815C19.0926 13.2921 18.6328 12.8198 18.6328 12.4265C18.6328 12.3166 18.7234 12.2266 18.8362 12.2266C18.9467 12.2266 19.0374 12.3166 19.0374 12.4265C19.0374 12.4331 19.0771 12.8835 22.5611 13.4196C24.922 13.7821 28.3064 14.1094 32.6193 14.3885C41.4927 14.9663 53.2952 15.2849 65.8492 15.2849C78.4033 15.2849 90.2035 14.9663 99.0791 14.3885C103.392 14.1094 106.774 13.7821 109.137 13.4196C112.621 12.8835 112.661 12.4331 112.661 12.4265C112.661 12.3166 112.752 12.2266 112.862 12.2266C112.973 12.2266 113.063 12.3166 113.063 12.4265C113.063 12.8198 112.604 13.2921 109.199 13.815C106.825 14.1798 103.43 14.5071 99.1057 14.7883C90.2212 15.3662 78.4099 15.6847 65.8492 15.6847Z" fill="#6299F5"/>
<path d="M98.4886 11.2424C98.3847 11.2424 98.2963 11.1611 98.2875 11.0535C98.2808 10.9436 98.3648 10.8492 98.4776 10.8426C102.967 10.5613 106.498 10.2296 108.969 9.86048C112.619 9.31341 112.661 8.84544 112.661 8.84105C112.661 8.73119 112.752 8.64111 112.862 8.64111C112.973 8.64111 113.063 8.73119 113.063 8.84105C113.063 9.24091 112.583 9.72207 109.029 10.256C106.546 10.6273 103.005 10.959 98.5019 11.2402C98.4975 11.2424 98.4931 11.2424 98.4886 11.2424Z" fill="#6299F5"/>
<path d="M65.85 12.0991C53.9348 12.0991 42.5678 11.8091 33.8426 11.2818C33.732 11.2752 33.648 11.1786 33.6547 11.0687C33.6613 10.9589 33.7564 10.8754 33.8691 10.882C42.5833 11.4093 53.9414 11.6993 65.85 11.6993C75.013 11.6993 83.8908 11.5279 91.5262 11.2027C91.639 11.1983 91.7318 11.284 91.7363 11.3939C91.7407 11.5037 91.6545 11.5982 91.5439 11.6026C83.9041 11.9256 75.0174 12.0991 65.85 12.0991Z" fill="#6299F5"/>
<path d="M27.2542 10.7876C27.2476 10.7876 27.2409 10.7876 27.2365 10.7876C24.5396 10.535 22.4461 10.2603 21.0136 9.96814C18.9158 9.54191 18.6328 9.15962 18.6328 8.84105C18.6328 8.73119 18.7234 8.64111 18.8362 8.64111C18.9467 8.64111 19.0374 8.73119 19.0374 8.84105C19.0374 8.84544 19.0595 9.16182 21.0954 9.57706C22.5124 9.86488 24.5926 10.1395 27.2741 10.3878C27.3846 10.3988 27.4664 10.4954 27.4554 10.6075C27.4443 10.7107 27.3581 10.7876 27.2542 10.7876Z" fill="#6299F5"/>
<path d="M51.6814 6.16937C51.6792 6.16937 51.6792 6.16937 51.677 6.16937C42.2134 5.97383 34.0607 5.59594 28.1009 5.07743C25.1364 4.81818 22.833 4.53256 21.2524 4.22717C18.9445 3.78116 18.6328 3.3835 18.6328 3.05394C18.6328 2.94189 18.7234 2.854 18.8362 2.854C18.9467 2.854 19.0374 2.94189 19.0374 3.05394C19.0374 3.05613 19.0639 3.39668 21.3275 3.83389C22.8971 4.13709 25.1873 4.42051 28.1362 4.67757C34.001 5.18948 42.3659 5.57836 51.6859 5.76951C51.7964 5.7717 51.8848 5.86178 51.8826 5.97383C51.8804 6.08149 51.7898 6.16937 51.6814 6.16937Z" fill="#6299F5"/>
<path d="M99.6234 5.38063C99.5173 5.38063 99.4289 5.29934 99.4222 5.19388C99.4156 5.08402 99.4996 4.98735 99.6101 4.98076C103.764 4.70173 107.018 4.37877 109.286 4.02284C112.622 3.49774 112.662 3.05833 112.662 3.05394C112.662 2.94189 112.752 2.854 112.863 2.854C112.973 2.854 113.064 2.94189 113.064 3.05394C113.064 3.43842 112.622 3.902 109.348 4.41831C107.069 4.77643 103.801 5.0994 99.6367 5.37843C99.6323 5.38063 99.6278 5.38063 99.6234 5.38063Z" fill="#6299F5"/>
<path d="M35.2483 80.2236C36.4951 82.5481 35.6683 85.5471 33.4068 86.9071C31.152 88.2627 28.3335 87.4717 27.1088 85.1516C25.8886 82.8381 26.7065 79.8699 28.9414 78.5077C31.183 77.1433 34.0059 77.9057 35.2483 80.2236Z" fill="#85AA61"/>
<path d="M84.7424 50.2621C86.1218 52.613 85.2751 55.7065 82.8567 57.1609C80.4471 58.611 77.3965 57.875 76.0414 55.5307C74.6907 53.193 75.5307 50.1281 77.916 48.6737C80.3123 47.2148 83.3696 47.9201 84.7424 50.2621Z" fill="#85AA61"/>
<path d="M72.8492 147.01C72.8492 147.01 72.7828 154.493 72.7828 154.689C72.7718 155.662 69.9886 156.519 65.4171 157.147C65.2623 157.167 65.1054 157.189 64.9484 157.209C61.3076 157.683 56.6122 158.015 51.3222 158.149C51.2338 158.151 51.1454 158.153 51.0592 158.153C48.937 158.206 46.7264 158.226 44.4517 158.211C44.2748 158.208 44.098 158.208 43.9233 158.204C28.0047 158.055 15.1168 156.235 15.1367 154.142C15.139 153.944 15.223 146.439 15.223 146.439L40.7113 146.691L41.8829 146.702L51.4306 146.797L62.5433 146.907L72.8492 147.01Z" fill="#FFB155"/>
<path d="M44.0529 142.978C44.9968 142.987 45.9385 143.002 46.878 143.024C47.8176 143.044 48.7504 143.073 49.6745 143.106C50.6007 143.139 51.5159 143.176 52.4178 143.222C53.322 143.266 54.2084 143.317 55.0794 143.372C55.9526 143.429 56.8037 143.49 57.6349 143.556C58.4683 143.622 59.2752 143.695 60.0599 143.769C60.8447 143.846 61.6007 143.927 62.3302 144.013C63.0597 144.099 63.7561 144.189 64.4237 144.283C65.0891 144.378 65.7213 144.475 66.3204 144.576C66.9172 144.679 67.4787 144.782 68.0027 144.892C68.5244 145 69.0085 145.109 69.4528 145.224C69.8971 145.338 70.2995 145.454 70.6598 145.571C71.0201 145.69 71.3363 145.81 71.6082 145.931C71.8823 146.052 72.11 146.175 72.2934 146.298C72.4747 146.421 72.6118 146.546 72.7046 146.669C72.7953 146.795 72.8395 146.918 72.8395 147.043C72.8373 147.166 72.7908 147.289 72.6958 147.412C72.6029 147.535 72.4637 147.656 72.278 147.777C72.0923 147.895 71.8624 148.014 71.5883 148.13C71.3119 148.247 70.9936 148.361 70.6311 148.471C70.2685 148.583 69.864 148.691 69.4174 148.796C68.9731 148.902 68.4868 149.003 67.9607 149.102C67.4367 149.2 66.873 149.293 66.274 149.385C65.6727 149.475 65.0404 149.561 64.3706 149.642C63.703 149.723 63.0045 149.8 62.2727 149.871C61.5432 149.943 60.785 150.009 59.998 150.07C59.2133 150.132 58.4042 150.189 57.5708 150.24C56.7374 150.29 55.8863 150.334 55.0131 150.374C54.1399 150.413 53.2512 150.446 52.3493 150.473C51.4452 150.501 50.53 150.523 49.6037 150.538C48.6775 150.554 47.7446 150.563 46.8051 150.565C45.8656 150.569 44.9239 150.567 43.9799 150.556C43.036 150.547 42.0943 150.532 41.1548 150.512C40.2153 150.49 39.2824 150.464 38.3584 150.431C37.4321 150.398 36.5169 150.358 35.615 150.314C34.7108 150.27 33.8244 150.22 32.9534 150.163C32.0802 150.108 31.2291 150.046 30.3979 149.98C29.5645 149.914 28.7577 149.842 27.9729 149.765C27.1881 149.69 26.4321 149.609 25.7026 149.523C24.9753 149.438 24.2768 149.348 23.6092 149.253C22.9438 149.159 22.3115 149.062 21.7125 148.959C21.1156 148.858 20.5541 148.752 20.0302 148.645C19.5085 148.537 19.0243 148.425 18.58 148.313C18.1357 148.199 17.7334 148.082 17.373 147.963C17.0149 147.847 16.6966 147.726 16.4247 147.605C16.1528 147.485 15.9229 147.361 15.7416 147.238C15.5581 147.113 15.4211 146.99 15.3304 146.865C15.2376 146.742 15.1934 146.617 15.1934 146.494C15.1956 146.368 15.242 146.245 15.337 146.122C15.4299 146.001 15.5692 145.878 15.7549 145.76C15.9405 145.639 16.1704 145.52 16.4468 145.406C16.7209 145.29 17.0392 145.175 17.4018 145.063C17.7643 144.953 18.1688 144.844 18.6154 144.74C19.0597 144.635 19.5461 144.532 20.0722 144.435C20.5983 144.336 21.1598 144.242 21.7589 144.152C22.3602 144.061 22.9946 143.976 23.6622 143.895C24.3298 143.813 25.0306 143.736 25.7601 143.664C26.4896 143.594 27.2478 143.525 28.0348 143.464C28.8196 143.402 29.6287 143.347 30.4621 143.297C31.2955 143.246 32.1487 143.2 33.0197 143.163C33.8929 143.123 34.7816 143.09 35.6857 143.062C36.5877 143.035 37.5028 143.013 38.4291 142.998C39.3553 142.983 40.2882 142.974 41.2277 142.97C42.1672 142.967 43.109 142.97 44.0529 142.978Z" fill="#FFD566"/>
<path d="M35.3659 155.813C25.8205 155.277 20.3117 154.216 18.2027 153.416C17.9308 153.313 17.7496 153.061 17.754 152.771C17.7584 152.292 17.765 151.738 17.7695 151.167C17.7739 150.707 18.2226 150.38 18.6625 150.521C21.5673 151.446 26.6296 152.252 35.4566 152.727C35.8257 152.746 36.1153 153.05 36.1131 153.414L36.0954 155.137C36.0932 155.528 35.7594 155.835 35.3659 155.813Z" fill="#FFDA6C" fill-opacity="0.66"/>
<path d="M15.3108 137.07L51.5184 137.431L72.9393 137.644C72.9393 137.644 72.8729 145.125 72.8707 145.325C72.8531 147.08 63.7475 148.471 51.4101 148.783C49.047 148.842 46.5689 148.862 44.0112 148.838C28.0926 148.688 15.2047 146.869 15.2246 144.775C15.2268 144.578 15.3108 137.07 15.3108 137.07Z" fill="#FFB155"/>
<path d="M44.1406 133.612C45.0845 133.621 46.0262 133.636 46.9658 133.658C47.9053 133.678 48.8381 133.704 49.7644 133.74C50.6884 133.773 51.6036 133.81 52.5078 133.856C53.4097 133.9 54.2961 133.95 55.1693 134.005C56.0403 134.063 56.8914 134.122 57.7248 134.19C58.556 134.256 59.3651 134.326 60.1476 134.403C60.9324 134.48 61.6884 134.561 62.4179 134.647C63.1474 134.733 63.8438 134.823 64.5114 134.917C65.179 135.009 65.8112 135.108 66.4081 135.209C67.0072 135.31 67.5664 135.416 68.0904 135.524C68.6143 135.633 69.0984 135.743 69.5405 135.858C69.9848 135.972 70.3872 136.086 70.7475 136.205C71.1078 136.323 71.424 136.442 71.6959 136.565C71.97 136.686 72.1977 136.809 72.3811 136.932C72.5646 137.055 72.7017 137.178 72.7923 137.303C72.883 137.428 72.9294 137.551 72.9272 137.677C72.9272 137.8 72.8785 137.923 72.7857 138.046C72.6906 138.169 72.5514 138.29 72.3657 138.411C72.18 138.529 71.9501 138.648 71.676 138.764C71.3996 138.881 71.0813 138.993 70.7188 139.105C70.3562 139.217 69.9539 139.324 69.5074 139.43C69.0608 139.535 68.5745 139.636 68.0506 139.735C67.5244 139.832 66.9607 139.926 66.3617 140.017C65.7626 140.107 65.1281 140.192 64.4605 140.274C63.7907 140.357 63.0922 140.432 62.3604 140.504C61.6309 140.577 60.8727 140.643 60.0879 140.704C59.301 140.766 58.4919 140.821 57.6585 140.873C56.8273 140.924 55.974 140.968 55.1008 141.007C54.2276 141.047 53.3412 141.08 52.437 141.106C51.5329 141.135 50.6177 141.155 49.6914 141.17C48.7652 141.185 47.8323 141.196 46.8928 141.199C45.9533 141.203 45.0116 141.199 44.0676 141.19C43.1237 141.181 42.182 141.166 41.2425 141.146C40.303 141.124 39.3723 141.098 38.4461 141.065C37.5198 141.032 36.6068 140.992 35.7027 140.948C34.8008 140.902 33.9121 140.854 33.0411 140.797C32.1701 140.742 31.3168 140.68 30.4857 140.614C29.6545 140.546 28.8454 140.476 28.0606 140.399C27.2781 140.322 26.5198 140.241 25.7925 140.155C25.063 140.069 24.3645 139.981 23.6991 139.887C23.0315 139.792 22.3992 139.694 21.8024 139.593C21.2033 139.491 20.644 139.386 20.1201 139.278C19.5962 139.171 19.1121 139.059 18.6677 138.944C18.2256 138.832 17.8233 138.716 17.4629 138.597C17.1026 138.479 16.7865 138.36 16.5124 138.239C16.2405 138.116 16.0128 137.995 15.8293 137.87C15.6458 137.747 15.5088 137.624 15.4181 137.499C15.3253 137.376 15.2811 137.25 15.2833 137.127C15.2833 137.002 15.3319 136.879 15.4248 136.756C15.5176 136.633 15.6591 136.512 15.8426 136.394C16.0283 136.273 16.2582 136.154 16.5345 136.038C16.8086 135.921 17.1291 135.809 17.4895 135.697C17.852 135.587 18.2566 135.477 18.7031 135.372C19.1496 135.269 19.6338 135.165 20.1599 135.069C20.686 134.97 21.2475 134.875 21.8488 134.785C22.4479 134.695 23.0823 134.61 23.7499 134.528C24.4175 134.447 25.1183 134.37 25.8478 134.298C26.5795 134.225 27.3377 134.159 28.1225 134.098C28.9073 134.036 29.7164 133.981 30.5498 133.931C31.3832 133.88 32.2365 133.834 33.1096 133.794C33.9806 133.757 34.8693 133.722 35.7734 133.696C36.6776 133.667 37.5928 133.647 38.5168 133.632C39.443 133.617 40.3759 133.608 41.3154 133.603C42.2549 133.601 43.1967 133.603 44.1406 133.612Z" fill="#FFD566"/>
<path d="M35.6122 146.788C26.0646 146.252 20.558 145.191 18.449 144.391C18.1771 144.288 17.9959 144.035 17.9981 143.745C18.0047 143.266 18.0091 142.713 18.0158 142.141C18.0202 141.682 18.4689 141.355 18.9088 141.495C21.8136 142.42 26.8759 143.227 35.7029 143.701C36.072 143.721 36.3616 144.024 36.3572 144.389L36.3417 146.111C36.3373 146.502 36.0035 146.81 35.6122 146.788Z" fill="#FFDA6C" fill-opacity="0.66"/>
<path d="M15.3965 128.034L51.6063 128.392L73.0272 128.605C73.0272 128.605 72.9586 136.088 72.9564 136.286C72.9409 138.042 63.8332 139.432 51.4958 139.744C49.1349 139.804 46.6568 139.826 44.0991 139.801C28.1805 139.65 15.2926 137.831 15.3125 135.737C15.3147 135.539 15.3965 128.034 15.3965 128.034Z" fill="#FFB155"/>
<path d="M44.2287 124.574C45.1727 124.585 46.1144 124.598 47.0539 124.62C47.9934 124.642 48.9241 124.668 49.8503 124.701C50.7766 124.734 51.6895 124.773 52.5937 124.817C53.4956 124.861 54.3843 124.912 55.2553 124.969C56.1262 125.024 56.9795 125.085 57.8107 125.151C58.6419 125.217 59.451 125.29 60.2358 125.367C61.0183 125.441 61.7766 125.523 62.5039 125.608C63.2334 125.694 63.9319 125.784 64.5973 125.879C65.2649 125.973 65.8971 126.07 66.494 126.173C67.0931 126.274 67.6524 126.38 68.1763 126.487C68.7002 126.595 69.1843 126.707 69.6287 126.819C70.0708 126.933 70.4731 127.05 70.8334 127.168C71.1938 127.285 71.5099 127.406 71.784 127.526C72.0559 127.647 72.2836 127.77 72.4671 127.893C72.6506 128.016 72.7876 128.142 72.8783 128.265C72.9711 128.39 73.0153 128.515 73.0131 128.638C73.0131 128.763 72.9645 128.886 72.8716 129.007C72.7788 129.13 72.6373 129.251 72.4538 129.372C72.2681 129.493 72.0382 129.609 71.7619 129.726C71.4878 129.842 71.1672 129.956 70.8069 130.068C70.4444 130.178 70.0398 130.286 69.5933 130.391C69.1467 130.497 68.6626 130.598 68.1365 130.697C67.6104 130.796 67.0489 130.89 66.4476 130.98C65.8485 131.07 65.2141 131.156 64.5465 131.237C63.8789 131.319 63.1781 131.395 62.4486 131.466C61.7169 131.538 60.9586 131.604 60.1739 131.666C59.3891 131.727 58.58 131.784 57.7466 131.835C56.9132 131.885 56.0599 131.929 55.1867 131.969C54.3158 132.008 53.4271 132.041 52.5229 132.07C51.6188 132.096 50.7036 132.118 49.7774 132.134C48.8533 132.149 47.9205 132.158 46.9809 132.162C46.0414 132.164 45.0997 132.162 44.1558 132.153C43.2119 132.145 42.2701 132.129 41.3306 132.107C40.3911 132.085 39.4582 132.059 38.532 132.026C37.608 131.993 36.6928 131.953 35.7886 131.91C34.8867 131.866 34.0002 131.815 33.1271 131.76C32.2561 131.703 31.405 131.641 30.5716 131.576C29.7404 131.51 28.9313 131.437 28.1488 131.362C27.364 131.286 26.608 131.204 25.8785 131.119C25.149 131.033 24.4526 130.943 23.785 130.848C23.1174 130.754 22.4852 130.657 21.8883 130.554C21.2892 130.453 20.7299 130.347 20.206 130.24C19.6821 130.132 19.198 130.022 18.7559 129.908C18.3115 129.794 17.9092 129.677 17.5489 129.561C17.1885 129.442 16.8724 129.321 16.6005 129.201C16.3264 129.08 16.0987 128.957 15.9152 128.834C15.7318 128.711 15.5947 128.585 15.5041 128.462C15.4134 128.337 15.367 128.214 15.3692 128.089C15.3692 127.966 15.4178 127.841 15.5107 127.72C15.6058 127.597 15.745 127.476 15.9307 127.355C16.1142 127.234 16.3463 127.118 16.6204 127.001C16.8967 126.885 17.2151 126.771 17.5776 126.661C17.9402 126.549 18.3425 126.441 18.789 126.336C19.2356 126.23 19.7219 126.129 20.2458 126.03C20.7719 125.931 21.3357 125.837 21.9347 125.747C22.5338 125.657 23.1683 125.571 23.8359 125.49C24.5057 125.408 25.2042 125.332 25.9359 125.261C26.6654 125.189 27.4237 125.123 28.2084 125.061C28.9954 125 29.8045 124.943 30.6379 124.892C31.4691 124.842 32.3224 124.798 33.1956 124.758C34.0688 124.719 34.9552 124.686 35.8594 124.657C36.7635 124.631 37.6787 124.609 38.6049 124.593C39.5312 124.578 40.4641 124.569 41.4036 124.565C42.3431 124.563 43.2848 124.565 44.2287 124.574Z" fill="#FFD566"/>
<path d="M34.8036 137.409C25.256 136.873 19.7494 135.811 17.6404 135.012C17.3685 134.908 17.1873 134.656 17.1895 134.366C17.1961 133.887 17.2005 133.333 17.2072 132.762C17.2116 132.303 17.6603 131.975 18.1002 132.116C21.005 133.041 26.0673 133.847 34.8943 134.322C35.2634 134.342 35.553 134.645 35.5508 135.009L35.5331 136.732C35.5287 137.123 35.1949 137.431 34.8036 137.409Z" fill="#FFDA6C" fill-opacity="0.66"/>
<path d="M15.4847 118.995L51.6923 119.355L73.1131 119.566C73.1131 119.566 73.0468 127.05 73.0446 127.247C73.0269 129.005 63.9214 130.393 51.584 130.705C49.2208 130.767 46.7427 130.787 44.185 130.763C28.2664 130.611 15.3786 128.792 15.3985 126.7C15.4007 126.5 15.4847 118.995 15.4847 118.995Z" fill="#FFB155"/>
<path d="M44.3166 115.537C45.2605 115.546 46.2022 115.561 47.1417 115.581C48.0812 115.603 49.0141 115.629 49.9381 115.662C50.8644 115.695 51.7796 115.735 52.6815 115.779C53.5857 115.825 54.4721 115.875 55.3431 115.93C56.2163 115.985 57.0674 116.047 57.8986 116.113C58.732 116.181 59.5388 116.251 60.3236 116.328C61.1084 116.405 61.8644 116.486 62.5939 116.572C63.3212 116.657 64.0197 116.745 64.6873 116.84C65.3527 116.934 65.985 117.033 66.584 117.134C67.1809 117.235 67.7424 117.341 68.2663 117.448C68.788 117.556 69.2722 117.668 69.7165 117.782C70.1608 117.894 70.5631 118.011 70.9213 118.129C71.2816 118.248 71.5999 118.367 71.8718 118.488C72.1437 118.611 72.3736 118.731 72.5549 118.857C72.7384 118.98 72.8754 119.103 72.9661 119.228C73.0589 119.351 73.1031 119.476 73.1031 119.599C73.1009 119.724 73.0545 119.848 72.9594 119.971C72.8666 120.094 72.7273 120.214 72.5416 120.333C72.356 120.454 72.126 120.573 71.8497 120.689C71.5756 120.805 71.2573 120.917 70.8947 121.03C70.5322 121.142 70.1277 121.249 69.6811 121.355C69.2368 121.46 68.7504 121.561 68.2243 121.66C67.6982 121.757 67.1367 121.851 66.5376 121.941C65.9363 122.031 65.3019 122.117 64.6343 122.198C63.9667 122.28 63.2659 122.357 62.5364 122.429C61.8069 122.502 61.0487 122.567 60.2617 122.629C59.4769 122.691 58.6679 122.745 57.8344 122.796C57.001 122.847 56.1478 122.893 55.2768 122.932C54.4036 122.97 53.5149 123.005 52.6108 123.031C51.7088 123.06 50.7937 123.079 49.8674 123.095C48.9412 123.11 48.0083 123.121 47.0688 123.123C46.1293 123.126 45.1875 123.123 44.2436 123.115C43.2997 123.106 42.358 123.09 41.4184 123.068C40.4789 123.049 39.5461 123.022 38.622 122.989C37.6958 122.954 36.7806 122.917 35.8787 122.871C34.9745 122.827 34.0881 122.776 33.2171 122.721C32.3439 122.666 31.4928 122.605 30.6616 122.537C29.8282 122.471 29.0213 122.401 28.2366 122.324C27.4518 122.247 26.6958 122.165 25.9663 122.08C25.2368 121.994 24.5404 121.904 23.8728 121.812C23.2074 121.717 22.5752 121.618 21.9761 121.517C21.3793 121.416 20.8178 121.311 20.2938 121.203C19.7699 121.093 19.288 120.983 18.8437 120.869C18.3994 120.755 17.997 120.641 17.6367 120.522C17.2764 120.403 16.9602 120.285 16.6883 120.162C16.4142 120.041 16.1865 119.918 16.0031 119.795C15.8218 119.672 15.6847 119.549 15.5919 119.423C15.5012 119.298 15.457 119.175 15.457 119.05C15.4592 118.927 15.5057 118.804 15.6007 118.681C15.6936 118.558 15.8328 118.437 16.0185 118.316C16.2042 118.198 16.4341 118.079 16.7082 117.962C16.9846 117.846 17.3029 117.734 17.6654 117.622C18.028 117.51 18.4325 117.402 18.8791 117.297C19.3234 117.191 19.8097 117.09 20.3359 116.991C20.8598 116.895 21.4235 116.8 22.0225 116.71C22.6238 116.62 23.2561 116.534 23.9259 116.453C24.5935 116.37 25.292 116.295 26.0238 116.222C26.7533 116.15 27.5115 116.084 28.2985 116.022C29.0832 115.961 29.8923 115.906 30.7257 115.855C31.5591 115.805 32.4102 115.759 33.2834 115.719C34.1566 115.68 35.0453 115.647 35.9472 115.62C36.8513 115.592 37.7665 115.572 38.6928 115.557C39.619 115.541 40.5519 115.53 41.4914 115.528C42.4309 115.524 43.3726 115.528 44.3166 115.537Z" fill="#FFD566"/>
<path d="M34.8893 128.372C25.3439 127.834 19.835 126.773 17.7283 125.973C17.4542 125.87 17.2752 125.617 17.2774 125.327C17.2818 124.848 17.2884 124.297 17.2928 123.723C17.2995 123.264 17.746 122.939 18.1881 123.077C21.0907 124.002 26.153 124.811 34.9821 125.283C35.3491 125.303 35.6409 125.606 35.6365 125.973L35.621 127.696C35.6166 128.084 35.2828 128.394 34.8893 128.372Z" fill="#FFDA6C" fill-opacity="0.66"/>
<path d="M15.5723 109.957L51.7821 110.317L73.2007 110.528C73.2007 110.528 73.1344 118.011 73.1322 118.209C73.1167 119.966 64.009 121.357 51.6716 121.669C49.3107 121.728 46.8326 121.748 44.2749 121.724C28.3563 121.572 15.4684 119.755 15.4883 117.662C15.4905 117.464 15.5723 109.957 15.5723 109.957Z" fill="#FFB155"/>
<path d="M44.4025 106.498C45.3464 106.507 46.2882 106.523 47.2277 106.544C48.1672 106.564 49.1 106.593 50.0263 106.626C50.9503 106.659 51.8655 106.696 52.7675 106.742C53.6716 106.786 54.558 106.837 55.429 106.892C56.3022 106.949 57.1533 107.01 57.9845 107.076C58.8179 107.142 59.6248 107.215 60.4095 107.289C61.1943 107.366 61.9503 107.447 62.6798 107.533C63.4093 107.619 64.1057 107.709 64.7733 107.803C65.4387 107.898 66.0709 107.995 66.67 108.096C67.2668 108.199 67.8283 108.302 68.3523 108.412C68.8762 108.52 69.3581 108.63 69.8024 108.744C70.2468 108.858 70.6491 108.974 71.0094 109.091C71.3697 109.21 71.6859 109.33 71.9578 109.451C72.2319 109.572 72.4596 109.695 72.6431 109.818C72.8243 109.941 72.9614 110.066 73.0542 110.189C73.1449 110.315 73.1891 110.438 73.1891 110.563C73.1869 110.686 73.1404 110.809 73.0454 110.932C72.9525 111.055 72.8133 111.176 72.6276 111.297C72.4419 111.418 72.212 111.534 71.9379 111.65C71.6615 111.767 71.3432 111.881 70.9807 111.991C70.6181 112.103 70.2136 112.211 69.7693 112.316C69.3227 112.422 68.8364 112.523 68.3103 112.622C67.7863 112.72 67.2226 112.815 66.6236 112.905C66.0245 112.995 65.39 113.081 64.7202 113.162C64.0526 113.243 63.3541 113.32 62.6224 113.391C61.8929 113.463 61.1346 113.529 60.3498 113.59C59.5629 113.652 58.7538 113.709 57.9204 113.76C57.087 113.81 56.2359 113.854 55.3627 113.894C54.4895 113.933 53.6009 113.966 52.6989 113.993C51.7948 114.021 50.8796 114.043 49.9533 114.058C49.0271 114.074 48.0942 114.083 47.1547 114.085C46.2152 114.089 45.2735 114.087 44.3295 114.076C43.3856 114.067 42.4439 114.054 41.5044 114.032C40.5649 114.01 39.632 113.984 38.708 113.951C37.7817 113.918 36.8665 113.878 35.9646 113.834C35.0627 113.79 34.174 113.74 33.303 113.683C32.432 113.628 31.5787 113.566 30.7476 113.5C29.9164 113.434 29.1073 113.362 28.3225 113.285C27.5377 113.21 26.7817 113.129 26.0522 113.043C25.3249 112.958 24.6264 112.868 23.961 112.773C23.2934 112.679 22.6611 112.582 22.0621 112.479C21.4652 112.378 20.9037 112.272 20.382 112.165C19.8581 112.057 19.374 111.945 18.9296 111.833C18.4853 111.719 18.083 111.602 17.7248 111.483C17.3645 111.367 17.0462 111.246 16.7743 111.125C16.5024 111.005 16.2725 110.881 16.0912 110.758C15.9077 110.635 15.7707 110.51 15.68 110.385C15.5872 110.262 15.543 110.137 15.543 110.014C15.5452 109.888 15.5916 109.765 15.6867 109.642C15.7795 109.522 15.9188 109.398 16.1045 109.28C16.2902 109.159 16.5201 109.04 16.7964 108.926C17.0705 108.81 17.3888 108.695 17.7514 108.583C18.1139 108.474 18.5185 108.366 18.965 108.26C19.4115 108.155 19.8957 108.052 20.4218 107.955C20.9479 107.856 21.5094 107.762 22.1085 107.672C22.7098 107.582 23.3442 107.496 24.0118 107.415C24.6794 107.333 25.3802 107.256 26.1097 107.184C26.8414 107.114 27.5974 107.045 28.3844 106.984C29.1692 106.922 29.9783 106.867 30.8117 106.817C31.6451 106.766 32.4984 106.722 33.3693 106.683C34.2425 106.643 35.1312 106.61 36.0353 106.582C36.9395 106.555 37.8525 106.534 38.7787 106.518C39.7049 106.503 40.6378 106.494 41.5773 106.49C42.5168 106.487 43.4586 106.49 44.4025 106.498Z" fill="#FFD566"/>
<path d="M34.9774 119.333C25.4298 118.795 19.9232 117.734 17.8143 116.934C17.5424 116.831 17.3611 116.578 17.3633 116.288C17.3699 115.809 17.3744 115.258 17.381 114.687C17.3854 114.227 17.8342 113.9 18.2741 114.041C21.1788 114.966 26.2411 115.772 35.0681 116.244C35.4373 116.264 35.7268 116.567 35.7224 116.934L35.707 118.657C35.7025 119.046 35.3687 119.355 34.9774 119.333Z" fill="#FFDA6C" fill-opacity="0.66"/>
<path d="M15.6605 100.92L51.8681 101.278L73.2889 101.491C73.2889 101.491 73.2226 108.972 73.2203 109.172C73.2027 110.928 64.0972 112.318 51.7597 112.63C49.3966 112.69 46.9185 112.712 44.3608 112.687C28.4422 112.536 15.5543 110.717 15.5742 108.623C15.5765 108.425 15.6605 100.92 15.6605 100.92Z" fill="#FFB155"/>
<path d="M44.4883 97.4617C45.4344 97.4705 46.3739 97.4859 47.3134 97.5056C48.2529 97.5276 49.1858 97.554 50.112 97.5869C51.0383 97.6199 51.9513 97.6594 52.8554 97.7034C53.7573 97.7473 54.6438 97.7978 55.517 97.855C56.388 97.9099 57.2391 97.9714 58.0725 98.0373C58.9036 98.1032 59.7127 98.1757 60.4953 98.2526C61.28 98.3295 62.0361 98.4086 62.7656 98.4943C63.4951 98.58 64.1914 98.6701 64.859 98.7645C65.5266 98.859 66.1589 98.9579 66.7557 99.0589C67.3548 99.16 67.9141 99.2655 68.438 99.3731C68.9619 99.4808 69.446 99.5928 69.8882 99.7071C70.3325 99.8191 70.7348 99.9356 71.0952 100.054C71.4555 100.173 71.7716 100.292 72.0457 100.412C72.3176 100.533 72.5453 100.656 72.7288 100.779C72.9123 100.904 73.0493 101.028 73.14 101.153C73.2306 101.276 73.277 101.401 73.2748 101.524C73.2748 101.649 73.2262 101.772 73.1333 101.895C73.0383 102.016 72.899 102.139 72.7133 102.258C72.5299 102.379 72.2977 102.497 72.0236 102.612C71.7473 102.728 71.429 102.842 71.0664 102.954C70.7039 103.064 70.3016 103.174 69.855 103.277C69.4085 103.383 68.9221 103.486 68.3982 103.583C67.8721 103.682 67.3084 103.776 66.7093 103.866C66.1102 103.956 65.4758 104.042 64.8082 104.123C64.1384 104.204 63.4398 104.281 62.7081 104.354C61.9786 104.424 61.2204 104.492 60.4356 104.554C59.6486 104.615 58.8395 104.67 58.0061 104.721C57.1749 104.771 56.3217 104.817 55.4485 104.855C54.5753 104.894 53.6888 104.927 52.7847 104.956C51.8805 104.982 50.9653 105.004 50.0391 105.02C49.1129 105.035 48.18 105.044 47.2405 105.048C46.301 105.05 45.3592 105.048 44.4153 105.039C43.4714 105.031 42.5296 105.015 41.5901 104.993C40.6528 104.973 39.72 104.945 38.7937 104.912C37.8675 104.879 36.9545 104.842 36.0503 104.795C35.1484 104.752 34.2598 104.701 33.3888 104.646C32.5178 104.589 31.6645 104.53 30.8333 104.462C30.0021 104.396 29.193 104.325 28.4083 104.248C27.6257 104.172 26.8675 104.09 26.1402 104.005C25.4107 103.919 24.7121 103.829 24.0467 103.734C23.3791 103.64 22.7469 103.543 22.15 103.442C21.551 103.339 20.9917 103.236 20.4678 103.126C19.9438 103.018 19.4597 102.908 19.0154 102.794C18.5733 102.68 18.1709 102.563 17.8106 102.447C17.4503 102.328 17.1342 102.207 16.86 102.087C16.5881 101.966 16.3604 101.843 16.177 101.72C15.9935 101.597 15.8564 101.471 15.7658 101.348C15.6751 101.223 15.6287 101.1 15.6309 100.975C15.6309 100.852 15.6796 100.729 15.7724 100.606C15.8653 100.483 16.0067 100.362 16.1902 100.241C16.3759 100.122 16.6058 100.004 16.8821 99.8872C17.1563 99.7708 17.4768 99.6566 17.8371 99.5467C18.1997 99.4346 18.6042 99.327 19.0508 99.2215C19.4973 99.1161 19.9836 99.015 20.5075 98.9161C21.0337 98.8173 21.5952 98.725 22.1964 98.6349C22.7955 98.5426 23.43 98.457 24.0976 98.3757C24.7674 98.2944 25.4659 98.2175 26.1954 98.1472C26.9272 98.0747 27.6854 98.0088 28.4702 97.9472C29.2549 97.8857 30.064 97.8286 30.8974 97.7781C31.7308 97.7275 32.5841 97.6836 33.4573 97.644C34.3283 97.6045 35.2169 97.5715 36.1211 97.5452C37.0252 97.5166 37.9404 97.4946 38.8667 97.4793C39.7907 97.4639 40.7236 97.4551 41.6631 97.4529C42.6026 97.4485 43.5443 97.4529 44.4883 97.4617Z" fill="#FFD566"/>
<path d="M35.0631 110.46C25.5177 109.924 20.0111 108.86 17.9022 108.063C17.6303 107.959 17.449 107.705 17.4512 107.417C17.4556 106.936 17.4622 106.384 17.4689 105.813C17.4733 105.354 17.9198 105.026 18.362 105.167C21.2645 106.092 26.329 106.898 35.156 107.371C35.5229 107.39 35.8147 107.696 35.8103 108.06L35.7948 109.783C35.7904 110.172 35.4566 110.482 35.0631 110.46Z" fill="#FFDA6C" fill-opacity="0.66"/>
<path d="M21.5489 90.574L57.7565 90.9321L79.1773 91.1452C79.1773 91.1452 79.111 98.6284 79.1088 98.8261C79.0911 100.584 69.9856 101.972 57.6481 102.284C55.285 102.344 52.8069 102.366 50.2492 102.341C34.3306 102.19 21.4428 100.371 21.4649 98.2791C21.4649 98.0791 21.5489 90.574 21.5489 90.574Z" fill="#FFB155"/>
<path d="M50.3811 87.1202C51.325 87.129 52.2667 87.1443 53.2063 87.1663C54.1458 87.1861 55.0786 87.2146 56.0027 87.2476C56.9289 87.2806 57.8441 87.3179 58.746 87.3641C59.6502 87.408 60.5366 87.4585 61.4098 87.5135C62.2808 87.5706 63.1319 87.6299 63.9653 87.698C64.7965 87.7639 65.6034 87.8342 66.3881 87.9111C67.1729 87.988 67.9289 88.0693 68.6584 88.155C69.3879 88.2407 70.0843 88.3308 70.7519 88.4252C71.4195 88.5175 72.0517 88.6164 72.6486 88.7174C73.2477 88.8207 73.8069 88.924 74.3308 89.0338C74.8548 89.1415 75.3389 89.2513 75.7832 89.3656C76.2253 89.4798 76.6277 89.5963 76.988 89.7127C77.3483 89.8314 77.6645 89.9522 77.9386 90.073C78.2105 90.1939 78.4382 90.3169 78.6216 90.4399C78.8051 90.563 78.9422 90.6882 79.0328 90.8112C79.1235 90.9365 79.1699 91.0595 79.1677 91.1847C79.1677 91.3078 79.119 91.4308 79.0262 91.5539C78.9333 91.6769 78.7919 91.7977 78.6084 91.9186C78.4227 92.0372 78.1928 92.1558 77.9165 92.2723C77.6423 92.3887 77.3218 92.503 76.9593 92.6128C76.5989 92.7249 76.1944 92.8325 75.7478 92.938C75.3013 93.0435 74.815 93.1445 74.2911 93.2434C73.7649 93.3423 73.2012 93.4345 72.6021 93.5268C72.0031 93.6169 71.3686 93.7026 70.701 93.7839C70.0312 93.8652 69.3327 93.9421 68.6009 94.0124C67.8714 94.0849 67.1132 94.1508 66.3284 94.2123C65.5415 94.2738 64.7324 94.3309 63.899 94.3815C63.0656 94.432 62.2145 94.4759 61.3413 94.5155C60.4681 94.555 59.5794 94.588 58.6775 94.6144C57.7734 94.6429 56.8582 94.6649 55.9319 94.6803C55.0057 94.6957 54.0728 94.7044 53.1333 94.7066C52.1938 94.711 51.2521 94.7088 50.3081 94.6978C49.3642 94.6891 48.4225 94.6759 47.483 94.6539C46.5435 94.6319 45.6106 94.6056 44.6843 94.5726C43.7603 94.5397 42.8451 94.5001 41.9432 94.4562C41.039 94.4122 40.1526 94.3617 39.2794 94.3046C38.4084 94.2496 37.5573 94.1881 36.7239 94.1222C35.8927 94.0563 35.0837 93.9838 34.3011 93.9069C33.5163 93.8322 32.7603 93.7509 32.0308 93.6652C31.3013 93.5795 30.6028 93.4895 29.9374 93.395C29.2698 93.3005 28.6375 93.2038 28.0407 93.1006C27.4416 92.9995 26.8823 92.8941 26.3584 92.7864C25.8345 92.6787 25.3503 92.5667 24.906 92.4546C24.4639 92.3404 24.0616 92.224 23.7012 92.1053C23.3409 91.9889 23.0248 91.868 22.7507 91.7472C22.4788 91.6264 22.2511 91.5033 22.0676 91.3803C21.8841 91.2551 21.747 91.132 21.6564 91.0068C21.5636 90.8837 21.5194 90.7585 21.5216 90.6355C21.5216 90.5102 21.5702 90.3872 21.663 90.2642C21.7559 90.1411 21.8974 90.0203 22.0808 89.9017C22.2665 89.7808 22.4964 89.6622 22.7728 89.5457C23.0469 89.4315 23.3674 89.3172 23.7278 89.2052C24.0903 89.0953 24.4948 88.9855 24.9414 88.8822C25.3879 88.7768 25.8743 88.6735 26.3982 88.5768C26.9243 88.478 27.4858 88.3835 28.0871 88.2934C28.6862 88.2033 29.3206 88.1176 29.9882 88.0364C30.658 87.9551 31.3566 87.8782 32.0883 87.8057C32.8178 87.7354 33.576 87.6672 34.3608 87.6057C35.1478 87.5442 35.9569 87.4893 36.7903 87.4388C37.6237 87.3882 38.4747 87.3421 39.3479 87.3047C40.2211 87.2652 41.1098 87.2322 42.0117 87.2037C42.9159 87.1773 43.8311 87.1553 44.7573 87.1399C45.6835 87.1246 46.6164 87.1158 47.5559 87.1114C48.4954 87.1092 49.4372 87.1114 50.3811 87.1202Z" fill="#FFD65A"/>
<path d="M40.8322 100.107C31.4703 99.5753 26.0189 98.5361 23.8658 97.7452C23.5452 97.6265 23.3374 97.3255 23.3419 96.9872C23.3463 96.572 23.3507 96.1084 23.3551 95.625C23.3618 95.0867 23.8857 94.7088 24.403 94.8692C27.3165 95.77 32.3258 96.5544 40.9339 97.0202C41.365 97.0443 41.7032 97.3981 41.6988 97.8265L41.6855 99.3161C41.6811 99.7709 41.2898 100.133 40.8322 100.107Z" fill="#FFDA6C" fill-opacity="0.66"/>
<path d="M27.3692 81.4429L63.579 81.801L84.9976 82.0141C84.9976 82.0141 84.9313 89.4973 84.9291 89.695C84.9136 91.4505 75.8059 92.8412 63.4685 93.1532C61.1075 93.2125 58.6294 93.2345 56.0718 93.2103C40.1531 93.0587 27.2653 91.2396 27.2852 89.148C27.2874 88.948 27.3692 81.4429 27.3692 81.4429Z" fill="#FFB155"/>
<path d="M56.2034 77.9893C57.1473 77.9981 58.089 78.0134 59.0285 78.0332C59.968 78.0552 60.9009 78.0815 61.8271 78.1145C62.7512 78.1475 63.6664 78.187 64.5683 78.2309C65.4724 78.2771 66.3589 78.3276 67.2321 78.3825C68.1031 78.4375 68.9542 78.499 69.7876 78.5649C70.6187 78.633 71.4278 78.7033 72.2104 78.7802C72.9952 78.8571 73.7512 78.9384 74.4807 79.0241C75.2102 79.1098 75.9087 79.1999 76.5741 79.2921C77.2417 79.3866 77.874 79.4855 78.4708 79.5865C79.0699 79.6876 79.6292 79.7931 80.1531 79.9007C80.677 80.0084 81.1611 80.1204 81.6055 80.2347C82.0498 80.3467 82.4499 80.4632 82.8103 80.5818C83.1706 80.7004 83.4867 80.8191 83.7608 80.9399C84.0327 81.063 84.2604 81.1838 84.4439 81.309C84.6274 81.4321 84.7644 81.5551 84.8551 81.6803C84.9479 81.8034 84.9921 81.9286 84.9899 82.0538C84.9899 82.1769 84.9413 82.2999 84.8484 82.4229C84.7556 82.546 84.6163 82.6668 84.4306 82.7877C84.2449 82.9063 84.015 83.0249 83.7387 83.1414C83.4646 83.2578 83.1463 83.3699 82.7837 83.4819C82.4212 83.594 82.0167 83.7016 81.5701 83.8071C81.1236 83.9126 80.6394 84.0136 80.1133 84.1125C79.5872 84.2092 79.0257 84.3036 78.4244 84.3937C77.8253 84.4838 77.1909 84.5695 76.5233 84.6508C75.8535 84.7321 75.1549 84.809 74.4254 84.8815C73.6937 84.954 72.9355 85.0199 72.1507 85.0814C71.3637 85.1429 70.5546 85.1978 69.7212 85.2484C68.89 85.2989 68.0368 85.345 67.1636 85.3846C66.2904 85.4241 65.4039 85.4571 64.4998 85.4835C63.5956 85.512 62.6804 85.5318 61.7542 85.5472C60.8279 85.5626 59.8951 85.5735 58.9556 85.5757C58.0161 85.5801 57.0743 85.5757 56.1304 85.5669C55.1865 85.5582 54.2448 85.5428 53.3052 85.523C52.3657 85.501 51.4329 85.4747 50.5088 85.4417C49.5826 85.4088 48.6674 85.3692 47.7654 85.3253C46.8613 85.2791 45.9749 85.2286 45.1039 85.1737C44.2307 85.1187 43.3796 85.0572 42.5484 84.9913C41.715 84.9232 40.9081 84.8529 40.1234 84.776C39.3386 84.6991 38.5826 84.6178 37.8531 84.5321C37.1236 84.4464 36.4272 84.3564 35.7596 84.2641C35.092 84.1696 34.4598 84.0707 33.8629 83.9697C33.2638 83.8686 32.7046 83.7632 32.1806 83.6555C31.6567 83.5456 31.1726 83.4358 30.7305 83.3215C30.2861 83.2095 29.8838 83.0931 29.5235 82.9744C29.1632 82.8558 28.847 82.7371 28.5729 82.6163C28.301 82.4933 28.0733 82.3724 27.8898 82.2472C27.7064 82.1241 27.5693 82.0011 27.4787 81.8759C27.388 81.7528 27.3416 81.6276 27.3438 81.5024C27.3438 81.3793 27.3925 81.2563 27.4853 81.1333C27.5804 81.0102 27.7196 80.8894 27.9053 80.7686C28.0888 80.6499 28.3209 80.5313 28.595 80.4148C28.8714 80.2984 29.1897 80.1863 29.5522 80.0743C29.9148 79.9622 30.3171 79.8546 30.7636 79.7491C31.2102 79.6437 31.6965 79.5426 32.2204 79.4437C32.7466 79.3471 33.3103 79.2526 33.9093 79.1625C34.5084 79.0724 35.1429 78.9867 35.8127 78.9054C36.4803 78.822 37.1788 78.7473 37.9105 78.6748C38.64 78.6023 39.3983 78.5363 40.1831 78.4748C40.97 78.4133 41.7791 78.3584 42.6125 78.3078C43.4459 78.2573 44.297 78.2112 45.1702 78.1716C46.0434 78.1321 46.9321 78.0991 47.8362 78.0728C48.7381 78.0442 49.6533 78.0244 50.5796 78.009C51.5058 77.9937 52.4387 77.9827 53.3782 77.9805C54.3177 77.9761 55.2594 77.9805 56.2034 77.9893Z" fill="#FFD65A"/>
<path d="M27.3379 81.5044C27.3622 81.8186 27.6142 82.0493 27.8662 82.2075C28.1204 82.3744 28.399 82.4997 28.6819 82.6161C29.2501 82.8446 29.8425 83.0094 30.4372 83.1588C31.6265 83.4532 32.8401 83.6641 34.0537 83.8421C36.4832 84.2112 38.9325 84.4529 41.3841 84.6418C46.2872 85.0175 51.2059 85.2152 56.1267 85.2394C61.0453 85.3075 65.9661 85.2042 70.8781 84.9208C73.3319 84.7802 75.7856 84.5847 78.2195 84.2617C79.4398 84.1057 80.6534 83.919 81.8516 83.6465C82.4484 83.5081 83.0431 83.3565 83.6156 83.1368C83.9008 83.0292 84.1815 82.9083 84.4402 82.7435C84.6944 82.5919 84.9508 82.3678 84.9818 82.0537C84.9685 82.3678 84.7165 82.6161 84.4689 82.7853C84.2147 82.9654 83.9362 83.1039 83.6532 83.2291C83.0829 83.4752 82.4904 83.6509 81.8936 83.8157C80.6998 84.1387 79.4862 84.376 78.2682 84.5803C75.8299 84.9692 73.3717 85.2218 70.9135 85.4262C65.9904 85.815 61.0541 85.9117 56.12 85.8963C51.186 85.8172 46.2519 85.6283 41.3399 85.1427C38.8839 84.8923 36.4323 84.5957 34.0007 84.1584C32.787 83.93 31.5778 83.6707 30.3907 83.3258C29.7983 83.15 29.2081 82.9632 28.6422 82.7062C28.3636 82.5744 28.0873 82.4316 27.8375 82.247C27.5921 82.0734 27.3423 81.8208 27.3379 81.5044Z" fill="#FFEDCA"/>
<path d="M46.635 90.8111C37.2752 90.2794 31.8239 89.2402 29.6685 88.4493C29.3502 88.3306 29.1402 88.0297 29.1446 87.6913C29.149 87.2783 29.1534 86.8125 29.1579 86.3291C29.1645 85.7908 29.6884 85.4129 30.2057 85.5733C33.1193 86.4741 38.1285 87.2585 46.7366 87.7243C47.1677 87.7484 47.5059 88.1022 47.5015 88.5306L47.4883 90.0202C47.4838 90.4772 47.0948 90.8375 46.635 90.8111Z" fill="#FFDA6C" fill-opacity="0.66"/>
<path d="M65.4159 157.147C65.2612 157.167 65.1042 157.189 64.9473 157.209C61.3064 157.683 56.611 158.015 51.321 158.149C51.2326 158.151 51.1442 158.153 51.058 158.153C35.8291 147.557 39.901 126.054 41.7115 120.276C47.1916 102.79 64.0763 102.35 64.0763 102.35L62.5421 146.907L65.4159 157.147Z" fill="#BAA674" fill-opacity="0.14"/>
<path d="M119.196 148.477C119.196 148.477 119.103 155.983 119.101 156.18C119.079 157.758 111.728 159.01 101.292 159.439C97.8833 159.579 94.1473 159.632 90.2279 159.577C89.9184 159.575 89.609 159.568 89.2995 159.564C87.0712 159.524 84.907 159.452 82.8334 159.351C70.5071 158.753 61.4347 157.154 61.459 155.398C61.4612 155.2 61.5696 147.717 61.5696 147.717L82.9904 148.001L92.2175 148.122L110.714 148.365L119.196 148.477Z" fill="#FFB155"/>
<path d="M90.461 144.362C91.4049 144.376 92.3445 144.393 93.284 144.42C94.2235 144.444 95.1563 144.475 96.0826 144.512C97.0066 144.549 97.9218 144.591 98.8237 144.639C99.7257 144.688 100.614 144.74 101.485 144.8C102.356 144.859 103.207 144.925 104.041 144.995C104.872 145.063 105.679 145.138 106.464 145.219C107.246 145.298 108.004 145.382 108.732 145.47C109.461 145.56 110.158 145.652 110.825 145.749C111.491 145.845 112.123 145.947 112.72 146.05C113.317 146.155 113.878 146.261 114.4 146.373C114.924 146.483 115.408 146.595 115.85 146.711C116.294 146.825 116.694 146.944 117.055 147.063C117.415 147.184 117.731 147.304 118.003 147.425C118.275 147.548 118.503 147.671 118.686 147.796C118.867 147.92 119.004 148.045 119.095 148.17C119.186 148.295 119.23 148.418 119.228 148.543C119.228 148.667 119.179 148.79 119.084 148.913C118.991 149.036 118.85 149.156 118.664 149.275C118.478 149.394 118.248 149.51 117.972 149.627C117.698 149.741 117.377 149.853 117.015 149.963C116.652 150.073 116.248 150.18 115.801 150.284C115.355 150.387 114.868 150.486 114.342 150.582C113.816 150.679 113.255 150.769 112.653 150.857C112.054 150.945 111.42 151.028 110.75 151.107C110.082 151.187 109.382 151.259 108.652 151.329C107.92 151.397 107.162 151.461 106.375 151.518C105.59 151.578 104.781 151.63 103.948 151.677C103.115 151.725 102.261 151.767 101.388 151.802C100.515 151.837 99.6284 151.868 98.7243 151.89C97.8201 151.914 96.9049 151.931 95.9787 151.945C95.0524 151.956 94.1196 151.96 93.1801 151.96C92.2406 151.96 91.2988 151.953 90.3549 151.94C89.411 151.927 88.4692 151.907 87.5297 151.883C86.5924 151.859 85.6596 151.828 84.7333 151.791C83.8071 151.753 82.8941 151.712 81.9922 151.663C81.088 151.615 80.2016 151.56 79.3306 151.501C78.4596 151.441 77.6063 151.378 76.7751 151.307C75.9439 151.237 75.1348 151.162 74.3523 151.083C73.5675 151.004 72.8115 150.921 72.0842 150.831C71.3547 150.743 70.6584 150.65 69.9908 150.554C69.3254 150.457 68.6931 150.356 68.0963 150.251C67.4972 150.147 66.9379 150.04 66.414 149.93C65.8923 149.82 65.4082 149.708 64.966 149.591C64.5217 149.475 64.1194 149.359 63.7613 149.238C63.4009 149.119 63.0848 148.998 62.8129 148.875C62.541 148.752 62.3133 148.629 62.1298 148.506C61.9486 148.381 61.8115 148.258 61.7209 148.133C61.6302 148.007 61.5838 147.882 61.586 147.759C61.5882 147.634 61.6369 147.511 61.7297 147.39C61.8248 147.267 61.964 147.146 62.1497 147.028C62.3354 146.909 62.5675 146.79 62.8439 146.676C63.118 146.562 63.4385 146.45 63.801 146.34C64.1636 146.23 64.5681 146.122 65.0147 146.019C65.4612 145.916 65.9475 145.817 66.4737 145.72C66.9976 145.624 67.5613 145.531 68.1626 145.443C68.7617 145.356 69.3961 145.274 70.0659 145.195C70.7335 145.116 71.4343 145.041 72.1638 144.973C72.8955 144.905 73.6537 144.841 74.4385 144.782C75.2255 144.725 76.0346 144.672 76.868 144.624C77.7014 144.578 78.5547 144.536 79.4256 144.501C80.2988 144.466 81.1875 144.435 82.0916 144.411C82.9958 144.387 83.911 144.369 84.8372 144.358C85.7613 144.347 86.6941 144.341 87.6336 144.343C88.5754 144.343 89.5171 144.349 90.461 144.362Z" fill="#FFD566"/>
<path d="M99.5774 157.402C109.134 157.086 114.665 156.152 116.791 155.403C117.065 155.304 117.253 155.056 117.256 154.766C117.262 154.287 117.271 153.735 117.278 153.162C117.284 152.703 116.842 152.366 116.4 152.496C113.475 153.353 108.395 154.045 99.5575 154.313C99.1905 154.324 98.8921 154.621 98.8876 154.988L98.8633 156.71C98.8589 157.099 99.1839 157.415 99.5774 157.402Z" fill="#FFDA6C" fill-opacity="0.66"/>
<path d="M119.327 139.112L83.1212 138.633L61.7004 138.351C61.7004 138.351 61.5921 145.832 61.5899 146.032C61.5656 147.788 70.6379 149.389 82.9643 149.985C85.323 150.099 87.8011 150.178 90.3588 150.213C106.275 150.429 119.203 148.908 119.232 146.814C119.234 146.617 119.327 139.112 119.327 139.112Z" fill="#FFB155"/>
<path d="M90.5897 134.996C91.5336 135.01 92.4753 135.027 93.4148 135.051C94.3543 135.078 95.2872 135.108 96.2112 135.146C97.1375 135.181 98.0527 135.225 98.9546 135.273C99.8565 135.322 100.745 135.374 101.616 135.434C102.487 135.493 103.338 135.559 104.169 135.627C105.003 135.697 105.81 135.772 106.594 135.851C107.377 135.932 108.133 136.016 108.863 136.104C109.592 136.194 110.288 136.286 110.954 136.383C111.621 136.479 112.254 136.58 112.851 136.684C113.447 136.787 114.009 136.895 114.531 137.004C115.054 137.117 115.536 137.229 115.981 137.345C116.425 137.459 116.825 137.578 117.186 137.697C117.546 137.817 117.862 137.938 118.134 138.059C118.406 138.182 118.633 138.305 118.815 138.43C118.998 138.553 119.135 138.679 119.226 138.804C119.317 138.929 119.361 139.052 119.359 139.177C119.359 139.3 119.31 139.423 119.215 139.546C119.122 139.667 118.981 139.788 118.795 139.909C118.609 140.028 118.379 140.144 118.103 140.26C117.827 140.375 117.508 140.487 117.146 140.597C116.783 140.707 116.379 140.812 115.932 140.915C115.486 141.021 114.999 141.12 114.473 141.216C113.947 141.311 113.383 141.403 112.784 141.491C112.183 141.579 111.548 141.662 110.881 141.741C110.213 141.82 109.512 141.893 108.781 141.961C108.051 142.031 107.293 142.095 106.506 142.152C105.721 142.211 104.912 142.264 104.079 142.31C103.245 142.359 102.392 142.4 101.519 142.436C100.646 142.471 99.7593 142.499 98.8551 142.523C97.951 142.548 97.0358 142.565 96.1096 142.576C95.1833 142.589 94.2504 142.594 93.3109 142.594C92.3714 142.594 91.4297 142.587 90.4858 142.574C89.5418 142.561 88.6001 142.541 87.6606 142.517C86.7211 142.493 85.7904 142.462 84.8642 142.425C83.9379 142.387 83.025 142.346 82.1208 142.297C81.2189 142.249 80.3324 142.194 79.4614 142.135C78.5883 142.075 77.7372 142.012 76.906 141.941C76.0748 141.871 75.2657 141.796 74.4831 141.717C73.6984 141.638 72.9424 141.552 72.2129 141.464C71.4856 141.377 70.787 141.284 70.1216 141.185C69.4562 141.089 68.824 140.99 68.2271 140.884C67.628 140.781 67.0688 140.674 66.5448 140.564C66.0231 140.454 65.539 140.34 65.0947 140.225C64.6526 140.109 64.2502 139.992 63.8921 139.872C63.5318 139.753 63.2157 139.632 62.9438 139.509C62.6696 139.386 62.4442 139.263 62.2607 139.14C62.0772 139.015 61.9424 138.89 61.8517 138.766C61.7611 138.641 61.7147 138.516 61.7169 138.393C61.7191 138.268 61.7677 138.145 61.8606 138.024C61.9556 137.901 62.0949 137.78 62.2806 137.661C62.4663 137.543 62.6984 137.424 62.9725 137.31C63.2488 137.196 63.5672 137.081 63.9319 136.971C64.2944 136.862 64.699 136.756 65.1455 136.653C65.5921 136.55 66.0784 136.449 66.6045 136.354C67.1284 136.257 67.6922 136.165 68.2934 136.077C68.8925 135.989 69.527 135.906 70.1946 135.829C70.8644 135.75 71.5629 135.675 72.2946 135.607C73.0264 135.539 73.7846 135.475 74.5694 135.416C75.3563 135.359 76.1654 135.306 76.9988 135.258C77.8322 135.212 78.6855 135.17 79.5565 135.135C80.4297 135.097 81.3184 135.069 82.2225 135.045C83.1266 135.021 84.0396 135.003 84.9659 134.992C85.8921 134.981 86.825 134.974 87.7645 134.974C88.704 134.977 89.6457 134.983 90.5897 134.996Z" fill="#FFD566"/>
<path d="M98.3762 148.346C107.933 148.032 113.464 147.096 115.59 146.346C115.867 146.25 116.052 145.999 116.057 145.711C116.063 145.23 116.07 144.679 116.077 144.108C116.083 143.648 115.643 143.31 115.199 143.442C112.274 144.299 107.194 144.989 98.3585 145.257C97.9893 145.27 97.6909 145.566 97.6865 145.931L97.6622 147.654C97.6577 148.043 97.9849 148.359 98.3762 148.346Z" fill="#FFDA6C" fill-opacity="0.66"/>
<path d="M119.452 130.073L83.2443 129.596L61.8257 129.312C61.8257 129.312 61.7174 136.796 61.7129 136.993C61.6886 138.751 70.761 140.351 83.0873 140.948C85.4483 141.062 87.9242 141.139 90.4818 141.174C106.4 141.39 119.326 139.869 119.357 137.778C119.359 137.58 119.452 130.073 119.452 130.073Z" fill="#FFB155"/>
<path d="M119.484 130.136C119.455 132.23 106.527 133.751 90.6107 133.533C74.6921 133.318 61.8131 131.446 61.8418 129.354C61.8706 127.26 74.796 125.74 90.7146 125.955C103.289 126.127 112.518 125.584 116.435 127.115C117.476 127.522 119.49 129.697 119.484 130.136Z" fill="#FFD566"/>
<path d="M99.8313 139C109.388 138.683 114.919 137.747 117.045 136.998C117.322 136.901 117.507 136.651 117.512 136.363C117.518 135.884 117.525 135.33 117.532 134.759C117.538 134.3 117.098 133.962 116.654 134.093C113.729 134.95 108.649 135.64 99.8136 135.91C99.4444 135.921 99.146 136.218 99.1415 136.583L99.1172 138.305C99.1128 138.694 99.44 139.01 99.8313 139Z" fill="#FFDA6C" fill-opacity="0.66"/>
<path d="M114.866 140.546C114.123 142.994 112.576 145.707 110.715 148.365C107.724 152.639 103.91 156.774 101.293 159.439C97.8843 159.579 94.1484 159.632 90.229 159.577C89.9195 159.575 89.61 159.568 89.3027 159.564L92.2185 148.122L97.6544 126.792L117.305 127.733C117.305 127.733 117.63 131.446 114.866 140.546Z" fill="#BAA674" fill-opacity="0.14"/>
<path d="M112.097 54.8386C112.758 55.4955 113.386 56.181 113.981 56.8994C114.573 57.6157 115.13 58.3605 115.65 59.1339C116.169 59.905 116.649 60.7004 117.089 61.5199C117.531 62.3372 117.929 63.1765 118.287 64.0333C118.645 64.8902 118.961 65.7646 119.231 66.6522C119.503 67.5398 119.731 68.4406 119.912 69.3502C120.095 70.262 120.233 71.1782 120.323 72.1009C120.416 73.0259 120.462 73.9509 120.462 74.8802C120.462 75.8074 120.416 76.7345 120.323 77.6573C120.233 78.5823 120.095 79.4984 119.912 80.4102C119.731 81.3198 119.503 82.2184 119.231 83.1082C118.961 83.9958 118.645 84.8681 118.287 85.7271C117.931 86.584 117.531 87.4232 117.091 88.2406C116.649 89.0601 116.169 89.8554 115.65 90.6266C115.13 91.3977 114.573 92.1425 113.981 92.861C113.386 93.5794 112.761 94.2649 112.1 94.9218C111.437 95.5787 110.745 96.2005 110.022 96.7893C109.299 97.3781 108.549 97.9318 107.771 98.4459C106.995 98.9622 106.193 99.439 105.368 99.8762C104.544 100.313 103.699 100.711 102.835 101.067C101.971 101.421 101.093 101.733 100.198 102.003C99.3025 102.273 98.3961 102.497 97.4787 102.68C96.5613 102.86 95.6373 102.996 94.7066 103.088C93.7759 103.178 92.8431 103.225 91.908 103.225C90.9729 103.225 90.04 103.178 89.1093 103.088C88.1787 102.996 87.2546 102.86 86.3372 102.68C85.4198 102.497 84.5157 102.273 83.6204 102.003C82.7251 101.735 81.8453 101.421 80.9809 101.067C80.1166 100.711 79.2721 100.316 78.4476 99.8784C77.623 99.439 76.8228 98.9622 76.0446 98.4481C75.2665 97.9318 74.5171 97.3803 73.7942 96.7915C73.0714 96.2027 72.3794 95.5787 71.7185 94.9218C71.0575 94.2671 70.4297 93.5794 69.8372 92.861C69.2426 92.1447 68.6855 91.3999 68.166 90.6266C67.6465 89.8554 67.1668 89.0601 66.7269 88.2428C66.2848 87.4232 65.8869 86.5862 65.5288 85.7271C65.1706 84.8703 64.8567 83.9958 64.5848 83.1082C64.3129 82.2206 64.0852 81.322 63.904 80.4102C63.7205 79.5006 63.5834 78.5823 63.4928 77.6595C63.3999 76.7345 63.3535 75.8096 63.3535 74.8802C63.3535 73.953 63.3999 73.0259 63.4928 72.1031C63.5834 71.1782 63.7205 70.262 63.904 69.3524C64.0852 68.4406 64.3129 67.542 64.5848 66.6522C64.8545 65.7646 65.1706 64.8924 65.5288 64.0333C65.8847 63.1765 66.2848 62.3394 66.7269 61.5199C67.1668 60.7004 67.6465 59.905 68.166 59.1339C68.6855 58.3627 69.2426 57.6179 69.835 56.8994C70.4297 56.1832 71.0553 55.4955 71.7163 54.8386C72.3794 54.1817 73.0714 53.5599 73.7942 52.9711C74.5171 52.3823 75.2665 51.8308 76.0446 51.3145C76.8228 50.7982 77.623 50.3214 78.4476 49.8842C79.2721 49.447 80.1166 49.0493 80.9809 48.6956C81.8453 48.3397 82.7251 48.0277 83.6182 47.7575C84.5135 47.4872 85.4198 47.2631 86.3372 47.0808C87.2546 46.9006 88.1787 46.7644 89.1093 46.6743C90.04 46.582 90.9729 46.5381 91.908 46.5381C92.8431 46.5381 93.7759 46.582 94.7066 46.6743C95.6373 46.7644 96.5613 46.9006 97.4787 47.0808C98.3961 47.2631 99.3003 47.4872 100.196 47.7575C101.091 48.0277 101.971 48.3397 102.835 48.6934C103.699 49.0493 104.544 49.447 105.368 49.8842C106.193 50.3214 106.993 50.7982 107.771 51.3145C108.549 51.8286 109.299 52.3823 110.022 52.9711C110.745 53.5599 111.437 54.1817 112.097 54.8386Z" fill="#FFB155"/>
<path d="M109.994 56.928C110.586 57.5146 111.15 58.1298 111.681 58.7736C112.211 59.4151 112.711 60.083 113.175 60.7751C113.641 61.465 114.072 62.179 114.466 62.9106C114.862 63.6445 115.22 64.3958 115.54 65.1648C115.861 65.9316 116.142 66.7137 116.385 67.5091C116.628 68.3066 116.831 69.1107 116.995 69.9259C117.158 70.7432 117.282 71.5649 117.364 72.391C117.446 73.2193 117.488 74.0475 117.488 74.8802C117.488 75.7107 117.446 76.5412 117.364 77.3695C117.282 78.1956 117.158 79.0173 116.995 79.8324C116.831 80.6497 116.628 81.4538 116.385 82.2514C116.142 83.0467 115.861 83.8289 115.54 84.5956C115.22 85.3646 114.862 86.116 114.466 86.8476C114.072 87.5815 113.641 88.2955 113.177 88.9854C112.711 89.6775 112.213 90.3454 111.681 90.9869C111.15 91.6306 110.588 92.2458 109.996 92.8324C109.404 93.4213 108.782 93.9793 108.135 94.5066C107.489 95.0339 106.815 95.5282 106.119 95.9918C105.422 96.4532 104.706 96.8794 103.968 97.2727C103.227 97.6638 102.471 98.0197 101.697 98.3383C100.924 98.6547 100.137 98.9359 99.3342 99.1776C98.5318 99.4192 97.7205 99.6192 96.9004 99.7818C96.078 99.9443 95.249 100.067 94.4156 100.149C93.5822 100.23 92.7466 100.27 91.9088 100.27C91.071 100.27 90.2354 100.23 89.402 100.149C88.5686 100.067 87.7418 99.9443 86.9195 99.7818C86.0971 99.6192 85.2858 99.4192 84.4834 99.1776C83.6831 98.9359 82.8939 98.6569 82.1202 98.3383C81.3465 98.0197 80.5905 97.6638 79.8521 97.2727C79.1138 96.8794 78.3953 96.4532 77.699 95.9918C77.0027 95.5304 76.3306 95.0339 75.6829 94.5066C75.0352 93.9793 74.4162 93.4213 73.8238 92.8346C73.2313 92.2458 72.6676 91.6306 72.1371 90.9869C71.6065 90.3454 71.107 89.6775 70.6427 88.9876C70.1763 88.2955 69.7452 87.5837 69.3517 86.8498C68.956 86.116 68.5979 85.3646 68.2774 84.5978C67.9568 83.8289 67.6761 83.0467 67.4329 82.2514C67.1897 81.456 66.9864 80.6497 66.8228 79.8346C66.6592 79.0195 66.5354 78.1978 66.4536 77.3695C66.3718 76.5412 66.332 75.7129 66.332 74.8802C66.332 74.0497 66.3718 73.2193 66.4536 72.3932C66.5354 71.5649 66.6592 70.7432 66.8228 69.9281C66.9864 69.1129 67.1897 68.3066 67.4329 67.5113C67.6761 66.7159 67.9568 65.9338 68.2774 65.1648C68.5979 64.3958 68.956 63.6466 69.3517 62.9128C69.7452 62.179 70.1763 61.4672 70.6405 60.7751C71.107 60.083 71.6043 59.4173 72.1371 58.7736C72.6676 58.132 73.2291 57.5146 73.8216 56.928C74.414 56.3392 75.0352 55.7812 75.6829 55.2539C76.3306 54.7266 77.0027 54.2322 77.699 53.7708C78.3953 53.3073 79.1116 52.881 79.8521 52.49C80.5905 52.0967 81.3465 51.743 82.1202 51.4244C82.8939 51.1058 83.6809 50.8246 84.4834 50.5851C85.2858 50.3434 86.0971 50.1413 86.9195 49.9787C87.7396 49.8161 88.5686 49.6953 89.402 49.614C90.2354 49.5305 91.071 49.491 91.9088 49.491C92.7466 49.491 93.5822 49.5305 94.4156 49.614C95.249 49.6953 96.0758 49.8161 96.8981 49.9787C97.7205 50.1413 98.5318 50.3434 99.3342 50.5829C100.134 50.8246 100.924 51.1058 101.697 51.4244C102.471 51.7408 103.227 52.0967 103.965 52.4878C104.704 52.881 105.422 53.3073 106.119 53.7687C106.815 54.2322 107.487 54.7266 108.135 55.2539C108.782 55.7812 109.404 56.3392 109.994 56.928Z" fill="#FFD566"/>
<path d="M85.7495 50.236C93.5021 56.3262 116.904 78.2024 84.4961 99.1866C93.5883 101.911 103.859 99.481 110.725 92.0813C120.295 81.766 119.627 65.7033 109.237 56.2054C102.676 50.2052 93.805 48.2586 85.7495 50.236Z" fill="#FFCE64"/>
<path d="M92.3339 87.1312L91.0584 85.9667C90.7821 85.7141 90.7644 85.2857 91.0186 85.011L93.9521 81.8494C94.2063 81.5748 94.6374 81.5572 94.9137 81.8099L96.4611 83.2248C98.1412 84.7606 99.525 84.9407 100.615 83.7653C101.917 82.3614 101.729 80.8915 100.049 79.358C99.3239 78.6945 98.5214 78.2243 97.6372 77.9497C96.7551 77.6728 95.8731 77.5476 94.9888 77.574C94.1046 77.6003 93.1784 77.6794 92.2079 77.809C91.2374 77.9409 90.2294 78.0595 89.1794 78.1672C88.1315 78.2748 87.0948 78.2968 86.0712 78.2331C85.0477 78.1694 83.9756 77.9035 82.857 77.4355C81.7384 76.9698 80.6796 76.2777 79.6759 75.3615C76.0881 72.0813 75.2923 68.7264 77.2885 65.299L75.9621 64.0862C75.6239 63.7764 75.6018 63.2535 75.9135 62.9173L77.8721 60.806C78.1838 60.4698 78.7121 60.45 79.0503 60.7598L80.3767 61.9704C82.0015 60.8191 83.6926 60.3709 85.4456 60.6214C87.2009 60.8741 88.9649 61.81 90.7423 63.4337L91.0562 63.7215C91.3325 63.9741 91.3502 64.4026 91.096 64.6772L88.4631 67.5136C88.2089 67.7882 87.7778 67.8058 87.5015 67.5531L86.9334 67.0346C85.2179 65.4659 83.7368 65.3539 82.4901 66.6963C81.2322 68.0519 81.4621 69.5129 83.1776 71.0816C83.9026 71.7429 84.7095 72.2109 85.5982 72.479C86.4868 72.7492 87.3777 72.8656 88.2708 72.8283C89.1639 72.7931 90.1034 72.7031 91.0849 72.5581C92.0664 72.4153 93.0722 72.2922 94.1024 72.1933C95.1325 72.0923 96.156 72.0791 97.1707 72.1538C98.1854 72.2285 99.2487 72.5009 100.361 72.9755C101.473 73.4501 102.529 74.1443 103.533 75.0605C105.308 76.6841 106.398 78.3693 106.802 80.1116C107.205 81.8538 106.895 83.5785 105.874 85.2813L107.145 86.4435C107.485 86.7533 107.505 87.2762 107.194 87.6123L105.235 89.7237C104.923 90.0599 104.397 90.0796 104.059 89.7721L102.786 88.6076C101.15 89.7721 99.4454 90.2246 97.6725 89.9676C95.9018 89.7127 94.1223 88.7658 92.3339 87.1312Z" fill="#FFB155"/>
<path d="M111.522 140.546L27.6953 100.626L43.7753 72.1582L128.572 103.293L111.522 140.546Z" fill="#ABD68D"/>
<path d="M110.37 137.029L27.3086 99.7182L43.4991 69.2998L125.464 104.189L110.37 137.029ZM35.6404 99.4984L104.665 130.332C107.207 131.468 110.191 130.405 111.318 127.961L119.314 110.651C120.413 108.276 119.257 105.481 116.743 104.404L48.4442 75.1726C46.1386 74.1861 43.3267 75.1769 42.1528 77.3894L33.6133 93.4983C32.4107 95.77 33.3126 98.4592 35.6404 99.4984Z" fill="#85AA61"/>
<path d="M89.8055 107.858C85.5545 116.64 75.7239 120.994 67.9669 117.512C60.2828 114.063 57.6765 104.275 62.0292 95.715C66.3288 87.2629 75.872 83.0819 83.4566 86.3094C91.112 89.5676 94.0057 99.1842 89.8055 107.858Z" fill="#85AA61"/>
<path d="M82.8187 99.2941C83.3471 97.9341 83.336 96.7389 82.7878 95.7063C82.2418 94.6759 81.1608 93.8124 79.5426 93.1159C78.0858 92.4876 76.7727 92.2349 75.6033 92.3601C74.4317 92.4854 73.6005 93.0412 73.1053 94.0321C72.6632 94.9131 72.6853 95.7217 73.1716 96.4577C73.6602 97.1981 74.7942 98.2153 76.5782 99.5138C78.1698 100.663 79.4343 101.682 80.3672 102.568C81.3023 103.455 81.9699 104.495 82.3678 105.683C82.7657 106.876 82.6198 108.179 81.9279 109.594C81.0458 111.393 79.5691 112.562 77.4956 113.098C75.422 113.632 73.1959 113.368 70.8173 112.309C67.7888 110.963 65.8589 109.306 65.0189 107.338C64.1811 105.376 64.2408 103.348 65.1913 101.249L67.9789 102.201C67.2781 103.908 67.3334 105.404 68.1513 106.692C68.9715 107.983 70.2337 109.007 71.9381 109.763C73.5364 110.471 74.9888 110.725 76.293 110.528C77.5973 110.328 78.5169 109.682 79.0541 108.59C79.6133 107.452 79.5028 106.397 78.7269 105.424C77.9532 104.453 76.4787 103.185 74.3079 101.625C72.1481 100.07 70.7687 98.6108 70.1652 97.2486C69.5617 95.8864 69.6236 94.4891 70.3443 93.0566C71.1622 91.433 72.504 90.3784 74.3676 89.895C76.2311 89.4095 78.3157 89.6622 80.6258 90.653C83 91.6703 84.6535 93.0237 85.582 94.711C86.5149 96.4049 86.5436 98.2571 85.6638 100.272L82.8187 99.2941Z" fill="#D7F9C0"/>
<path d="M70.6482 113.946L68.3867 112.938L80.6755 88.2473L82.9126 89.203L70.6482 113.946Z" fill="#D7F9C0"/>
<path d="M54.3061 91.5078C53.0571 93.929 50.0131 95.0033 47.5174 93.9048C45.0282 92.8107 44.0401 89.9743 45.2979 87.5751C46.5491 85.1825 49.5666 84.1191 52.0447 85.1935C54.5316 86.2722 55.5485 89.0954 54.3061 91.5078Z" fill="#85AA61"/>
<path d="M109.076 131.635C109.076 132.676 109.023 133.715 108.921 134.75C108.817 135.787 108.665 136.815 108.459 137.837C108.256 138.859 108.002 139.867 107.696 140.862C107.391 141.86 107.038 142.838 106.638 143.8C106.235 144.762 105.789 145.703 105.294 146.621C104.798 147.539 104.261 148.431 103.678 149.297C103.096 150.163 102.471 150.997 101.805 151.802C101.14 152.606 100.437 153.377 99.6941 154.113C98.9535 154.849 98.1776 155.548 97.3663 156.209C96.555 156.868 95.715 157.488 94.8418 158.068C93.9708 158.645 93.0711 159.179 92.147 159.671C91.2208 160.161 90.2746 160.605 89.3042 161.005C88.3359 161.403 87.35 161.754 86.3464 162.055C85.3428 162.359 84.3259 162.611 83.298 162.813C82.2678 163.018 81.2332 163.169 80.1876 163.272C79.1442 163.374 78.0986 163.424 77.0486 163.424C76.0007 163.424 74.9551 163.374 73.9117 163.272C72.8661 163.169 71.8315 163.018 70.8014 162.813C69.7734 162.611 68.7566 162.359 67.7529 162.055C66.7493 161.754 65.7634 161.403 64.7951 161.005C63.8247 160.605 62.8785 160.161 61.9523 159.671C61.0283 159.179 60.1285 158.645 59.2576 158.068C58.3844 157.488 57.5443 156.868 56.733 156.209C55.9218 155.548 55.1458 154.849 54.4053 154.113C53.6625 153.377 52.9595 152.606 52.2941 151.802C51.6287 150.997 51.0031 150.163 50.4217 149.297C49.8381 148.431 49.301 147.539 48.8058 146.621C48.3106 145.703 47.8641 144.762 47.4617 143.8C47.0616 142.838 46.7079 141.86 46.4029 140.862C46.0978 139.867 45.8436 138.859 45.6402 137.837C45.4346 136.815 45.2821 135.787 45.1782 134.75C45.0765 133.715 45.0234 132.676 45.0234 131.635C45.0234 130.593 45.0765 129.554 45.1782 128.519C45.2821 127.482 45.4346 126.454 45.6402 125.432C45.8436 124.411 46.0978 123.402 46.4029 122.407C46.7079 121.41 47.0616 120.432 47.4617 119.47C47.8641 118.507 48.3106 117.567 48.8058 116.649C49.301 115.73 49.8381 114.838 50.4217 113.973C51.0031 113.107 51.6287 112.272 52.2941 111.468C52.9595 110.662 53.6625 109.893 54.4053 109.157C55.1458 108.421 55.9218 107.722 56.733 107.061C57.5443 106.399 58.3844 105.782 59.2576 105.202C60.1285 104.624 61.0283 104.09 61.9523 103.598C62.8785 103.108 63.8247 102.662 64.7951 102.264C65.7634 101.867 66.7493 101.515 67.7529 101.214C68.7566 100.911 69.7734 100.658 70.8014 100.456C71.8315 100.252 72.8661 100.1 73.9117 99.9971C74.9551 99.896 76.0007 99.8455 77.0486 99.8455C78.0986 99.8455 79.1442 99.896 80.1876 99.9971C81.2332 100.1 82.2678 100.252 83.298 100.456C84.3259 100.658 85.3428 100.911 86.3464 101.214C87.35 101.515 88.3359 101.867 89.3042 102.264C90.2746 102.662 91.2208 103.108 92.147 103.598C93.0711 104.09 93.9708 104.624 94.8418 105.202C95.715 105.782 96.555 106.399 97.3663 107.061C98.1776 107.722 98.9535 108.421 99.6941 109.157C100.437 109.893 101.14 110.662 101.805 111.468C102.471 112.272 103.096 113.107 103.678 113.973C104.261 114.838 104.798 115.73 105.294 116.649C105.789 117.567 106.235 118.507 106.638 119.47C107.038 120.432 107.391 121.41 107.696 122.407C108.002 123.402 108.256 124.411 108.459 125.432C108.665 126.454 108.817 127.482 108.921 128.519C109.023 129.554 109.076 130.593 109.076 131.635Z" fill="#FFB155"/>
<path d="M97.3333 111.499C97.9986 112.158 98.6287 112.848 99.2233 113.568C99.8202 114.289 100.379 115.038 100.901 115.814C101.423 116.589 101.905 117.387 102.349 118.211C102.791 119.032 103.194 119.874 103.552 120.737C103.912 121.599 104.228 122.475 104.5 123.367C104.774 124.259 105.002 125.164 105.185 126.078C105.369 126.992 105.506 127.915 105.599 128.842C105.689 129.772 105.736 130.701 105.736 131.635C105.736 132.566 105.689 133.498 105.599 134.425C105.506 135.352 105.369 136.275 105.185 137.189C105.002 138.105 104.774 139.008 104.5 139.9C104.228 140.792 103.912 141.671 103.552 142.532C103.194 143.394 102.791 144.235 102.349 145.059C101.907 145.881 101.423 146.68 100.901 147.456C100.379 148.231 99.8202 148.978 99.2255 149.699C98.6287 150.42 97.9986 151.112 97.3333 151.771C96.6701 152.43 95.9737 153.056 95.2486 153.647C94.5214 154.238 93.7675 154.794 92.9872 155.313C92.2046 155.831 91.4 156.308 90.571 156.749C89.7442 157.189 88.8953 157.587 88.0266 157.942C87.1578 158.301 86.2758 158.615 85.3761 158.885C84.4763 159.155 83.5678 159.382 82.646 159.564C81.7241 159.746 80.7957 159.882 79.8606 159.975C78.9255 160.065 77.9882 160.111 77.0487 160.111C76.1092 160.111 75.1719 160.065 74.2368 159.975C73.3017 159.882 72.3732 159.746 71.4514 159.564C70.5296 159.382 69.621 159.155 68.7213 158.885C67.8216 158.615 66.9373 158.301 66.0708 157.945C65.202 157.587 64.3531 157.189 63.5242 156.749C62.6974 156.31 61.8905 155.831 61.1102 155.313C60.3298 154.794 59.576 154.24 58.8487 153.647C58.1236 153.056 57.4273 152.43 56.7619 151.771C56.0987 151.112 55.4687 150.422 54.8718 149.701C54.2772 148.978 53.7179 148.231 53.1962 147.456C52.6723 146.68 52.1904 145.881 51.7482 145.059C51.3039 144.237 50.9038 143.394 50.5435 142.532C50.1853 141.671 49.8692 140.794 49.5951 139.902C49.3232 139.008 49.0955 138.105 48.912 137.191C48.7285 136.275 48.5915 135.354 48.4986 134.425C48.4058 133.498 48.3594 132.569 48.3594 131.635C48.3594 130.703 48.4058 129.772 48.4986 128.845C48.5893 127.915 48.7285 126.995 48.912 126.078C49.0955 125.164 49.3232 124.261 49.5951 123.369C49.867 122.475 50.1831 121.599 50.5435 120.737C50.9038 119.876 51.3039 119.032 51.7482 118.211C52.1904 117.389 52.6723 116.589 53.194 115.814C53.7157 115.038 54.275 114.291 54.8718 113.568C55.4687 112.848 56.0987 112.158 56.7619 111.499C57.4273 110.84 58.1214 110.213 58.8487 109.622C59.5738 109.029 60.3276 108.476 61.1102 107.957C61.8905 107.439 62.6952 106.96 63.5242 106.52C64.3531 106.081 65.202 105.683 66.0686 105.325C66.9373 104.969 67.8216 104.655 68.7191 104.385C69.6188 104.112 70.5296 103.886 71.4514 103.706C72.3732 103.523 73.3017 103.387 74.2346 103.295C75.1697 103.203 76.107 103.156 77.0465 103.156C77.9882 103.156 78.9255 103.203 79.8606 103.295C80.7935 103.385 81.7219 103.523 82.6437 103.704C83.5656 103.886 84.4763 104.112 85.3761 104.385C86.2736 104.655 87.1578 104.969 88.0266 105.325C88.8931 105.681 89.742 106.081 90.571 106.52C91.4 106.96 92.2046 107.439 92.985 107.957C93.7675 108.476 94.5214 109.029 95.2464 109.62C95.9737 110.213 96.6679 110.837 97.3333 111.499Z" fill="#FFD566"/>
<path d="M103.311 120.164C98.0099 129.833 78.1321 159.689 48.5718 128.15C47.2764 138.646 51.9452 149.447 61.4995 155.565C74.8118 164.09 92.5674 160.287 101.158 147.072C106.58 138.727 107.051 128.623 103.311 120.164Z" fill="#FFCE64"/>
<path d="M63.492 134.443L64.5442 132.821C64.7741 132.468 65.2472 132.367 65.6009 132.595L69.6817 135.207C70.0354 135.434 70.1371 135.904 69.9094 136.255L68.6317 138.222C67.2434 140.357 67.3075 141.911 68.824 142.884C70.6345 144.044 72.235 143.554 73.6232 141.419C74.2223 140.498 74.5915 139.525 74.7285 138.505C74.8678 137.484 74.8391 136.491 74.6401 135.526C74.4434 134.561 74.1781 133.56 73.8465 132.52C73.5149 131.481 73.1899 130.398 72.8694 129.267C72.5489 128.137 72.3278 127.006 72.2018 125.87C72.0758 124.734 72.1664 123.508 72.4737 122.192C72.7788 120.876 73.3469 119.58 74.1759 118.305C77.1425 113.74 80.7237 112.226 84.9216 113.762L86.0181 112.075C86.2989 111.644 86.8758 111.521 87.3091 111.798L90.0348 113.542C90.4681 113.821 90.5941 114.395 90.3133 114.825L89.2169 116.513C90.8107 118.075 91.6331 119.843 91.6905 121.816C91.7458 123.789 91.0384 125.903 89.5706 128.164L89.3119 128.561C89.082 128.915 88.6089 129.016 88.2552 128.788L84.5923 126.443C84.2386 126.217 84.1369 125.747 84.3646 125.395L84.8354 124.673C86.2524 122.491 86.0955 120.845 84.3601 119.734C82.6116 118.615 81.0288 119.145 79.6095 121.326C79.0105 122.249 78.6457 123.222 78.5175 124.251C78.3871 125.277 78.4269 126.276 78.6391 127.25C78.8491 128.223 79.1298 129.234 79.4791 130.284C79.8262 131.334 80.1534 132.415 80.4628 133.527C80.7701 134.636 80.9801 135.757 81.0929 136.884C81.2034 138.011 81.1017 139.228 80.7878 140.54C80.4717 141.851 79.9013 143.143 79.0724 144.42C77.6045 146.678 75.9377 148.194 74.0742 148.972C72.2106 149.748 70.2343 149.737 68.1431 148.941L67.0909 150.558C66.8101 150.991 66.2331 151.114 65.7999 150.835L63.0742 149.091C62.6409 148.814 62.5149 148.238 62.7956 147.808L63.8457 146.191C62.2386 144.617 61.4074 142.833 61.3543 140.843C61.3013 138.85 62.0131 136.717 63.492 134.443Z" fill="#FFB155"/>
<path d="M124.264 74.4256C116.96 73.1271 93.0483 69.2559 67.2372 69.2559C41.4106 69.2559 17.3039 73.1315 9.96027 74.4299C8.64053 74.6628 7.68555 75.8009 7.68555 77.1301V122.135C7.68555 123.464 8.64053 124.602 9.96027 124.835C17.3039 126.133 41.4106 130.009 67.2372 130.009C93.0483 130.009 116.96 126.138 124.264 124.837C125.582 124.604 126.537 123.466 126.537 122.137V77.1257C126.537 75.7987 125.582 74.6606 124.264 74.4256Z" fill="white"/>
<path d="M39.915 103.098C39.915 103.795 39.7393 104.457 39.3877 105.084C39.0361 105.705 38.4883 106.209 37.7441 106.596C37.0059 106.982 36.0508 107.176 34.8789 107.176C34.293 107.176 33.7773 107.149 33.332 107.097C32.8926 107.044 32.4824 106.959 32.1016 106.842C31.7207 106.719 31.3252 106.561 30.915 106.367V103.273C31.6123 103.625 32.3154 103.895 33.0244 104.082C33.7334 104.264 34.375 104.354 34.9492 104.354C35.2949 104.354 35.5762 104.313 35.793 104.231C36.0156 104.149 36.1797 104.038 36.2852 103.897C36.3906 103.751 36.4434 103.584 36.4434 103.396C36.4434 103.174 36.3643 102.986 36.2061 102.834C36.0537 102.676 35.8076 102.512 35.4678 102.342C35.1279 102.172 34.6797 101.961 34.123 101.709C33.6484 101.486 33.2178 101.258 32.8311 101.023C32.4502 100.789 32.1221 100.522 31.8467 100.224C31.5771 99.9189 31.3691 99.5645 31.2227 99.1602C31.0762 98.7559 31.0029 98.2783 31.0029 97.7275C31.0029 96.9014 31.2051 96.21 31.6094 95.6533C32.0195 95.0908 32.5879 94.6689 33.3145 94.3877C34.0469 94.1064 34.8906 93.9658 35.8457 93.9658C36.6836 93.9658 37.4365 94.0596 38.1045 94.2471C38.7783 94.4346 39.3818 94.6484 39.915 94.8887L38.8516 97.5693C38.3008 97.3174 37.7588 97.1182 37.2256 96.9717C36.6924 96.8193 36.1973 96.7432 35.7402 96.7432C35.4414 96.7432 35.1953 96.7812 35.002 96.8574C34.8145 96.9277 34.6738 97.0244 34.5801 97.1475C34.4922 97.2705 34.4482 97.4111 34.4482 97.5693C34.4482 97.7686 34.5244 97.9473 34.6768 98.1055C34.835 98.2637 35.0957 98.4365 35.459 98.624C35.8281 98.8057 36.3291 99.043 36.9619 99.3359C37.5889 99.6172 38.1221 99.9219 38.5615 100.25C39.001 100.572 39.335 100.962 39.5635 101.419C39.7979 101.87 39.915 102.43 39.915 103.098ZM46.5596 96.8662C47.8193 96.8662 48.8037 97.1797 49.5127 97.8066C50.2217 98.4277 50.5762 99.3154 50.5762 100.47V107H48.1943L47.5352 105.682H47.4648C47.1836 106.033 46.8936 106.32 46.5947 106.543C46.3018 106.76 45.9648 106.918 45.584 107.018C45.2031 107.123 44.7373 107.176 44.1865 107.176C43.6123 107.176 43.0967 107.059 42.6396 106.824C42.1826 106.59 41.8223 106.235 41.5586 105.761C41.2949 105.286 41.1631 104.686 41.1631 103.959C41.1631 102.893 41.5322 102.102 42.2705 101.586C43.0088 101.07 44.0781 100.78 45.4785 100.716L47.1396 100.663V100.522C47.1396 100.077 47.0283 99.7607 46.8057 99.5732C46.5889 99.3857 46.2959 99.292 45.9268 99.292C45.5342 99.292 45.0947 99.3623 44.6084 99.5029C44.1279 99.6377 43.6445 99.8135 43.1582 100.03L42.165 97.7627C42.7393 97.4697 43.3896 97.2471 44.1162 97.0947C44.8428 96.9424 45.6572 96.8662 46.5596 96.8662ZM47.1572 102.553L46.3662 102.588C45.7334 102.611 45.2881 102.723 45.0303 102.922C44.7783 103.115 44.6523 103.394 44.6523 103.757C44.6523 104.097 44.7432 104.349 44.9248 104.513C45.1064 104.671 45.3467 104.75 45.6455 104.75C46.0615 104.75 46.416 104.618 46.709 104.354C47.0078 104.091 47.1572 103.748 47.1572 103.326V102.553ZM55.5244 107L51.7275 97.042H55.3135L57.001 102.931C57.0186 102.983 57.0479 103.118 57.0889 103.335C57.1357 103.552 57.1592 103.754 57.1592 103.941H57.2207C57.2207 103.742 57.2412 103.552 57.2822 103.37C57.3232 103.188 57.3555 103.048 57.3789 102.948L59.1455 97.042H62.7227L58.9258 107H55.5244ZM67.3721 97.042V107H63.9355V97.042H67.3721ZM65.667 93.0342C66.1592 93.0342 66.5869 93.1367 66.9502 93.3418C67.3193 93.5469 67.5039 93.9541 67.5039 94.5635C67.5039 95.1553 67.3193 95.5566 66.9502 95.7676C66.5869 95.9727 66.1592 96.0752 65.667 96.0752C65.1631 96.0752 64.7324 95.9727 64.375 95.7676C64.0234 95.5566 63.8477 95.1553 63.8477 94.5635C63.8477 93.9541 64.0234 93.5469 64.375 93.3418C64.7324 93.1367 65.1631 93.0342 65.667 93.0342ZM76.0029 96.8662C77.0283 96.8662 77.8662 97.1562 78.5166 97.7363C79.167 98.3164 79.4922 99.2451 79.4922 100.522V107H76.0557V101.568C76.0557 100.906 75.959 100.408 75.7656 100.074C75.5781 99.7344 75.2734 99.5645 74.8516 99.5645C74.2012 99.5645 73.7646 99.8311 73.542 100.364C73.3193 100.892 73.208 101.65 73.208 102.641V107H69.7715V97.042H72.3643L72.8301 98.3604H72.9619C73.1729 98.0439 73.4248 97.7744 73.7178 97.5518C74.0107 97.3291 74.3477 97.1592 74.7285 97.042C75.1094 96.9248 75.5342 96.8662 76.0029 96.8662ZM85.2314 111.324C83.8193 111.324 82.7295 111.087 81.9619 110.612C81.2002 110.144 80.8193 109.467 80.8193 108.582C80.8193 107.99 81.0039 107.501 81.373 107.114C81.7422 106.728 82.2959 106.449 83.0342 106.279C82.7295 106.15 82.4629 105.942 82.2344 105.655C82.0117 105.368 81.9004 105.084 81.9004 104.803C81.9004 104.492 81.9854 104.22 82.1553 103.985C82.3252 103.745 82.6797 103.461 83.2188 103.133C82.7031 102.904 82.2959 102.547 81.9971 102.061C81.7041 101.574 81.5576 100.982 81.5576 100.285C81.5576 99.5645 81.7217 98.9492 82.0498 98.4395C82.3838 97.9297 82.8672 97.54 83.5 97.2705C84.1387 97.001 84.915 96.8662 85.8291 96.8662C85.9521 96.8662 86.1396 96.8779 86.3916 96.9014C86.6436 96.9189 86.8984 96.9424 87.1562 96.9717C87.4141 96.9951 87.6133 97.0186 87.7539 97.042H91.2256V98.7031L89.8633 99.2041C89.957 99.374 90.0273 99.5586 90.0742 99.7578C90.1211 99.957 90.1445 100.168 90.1445 100.391C90.1445 101.463 89.7666 102.295 89.0107 102.887C88.2607 103.479 87.1387 103.774 85.6445 103.774C85.2754 103.774 84.9824 103.751 84.7656 103.704C84.7246 103.78 84.6924 103.856 84.6689 103.933C84.6514 104.003 84.6426 104.07 84.6426 104.135C84.6426 104.27 84.7217 104.378 84.8799 104.46C85.0439 104.536 85.2402 104.589 85.4688 104.618C85.7031 104.647 85.9258 104.662 86.1367 104.662H87.7891C88.9082 104.662 89.7461 104.896 90.3027 105.365C90.8594 105.834 91.1377 106.54 91.1377 107.483C91.1377 108.696 90.6191 109.64 89.582 110.313C88.5508 110.987 87.1006 111.324 85.2314 111.324ZM85.3984 109.18C85.8145 109.18 86.2334 109.142 86.6553 109.065C87.0771 108.995 87.4316 108.878 87.7188 108.714C88.0059 108.55 88.1494 108.333 88.1494 108.063C88.1494 107.858 88.0645 107.703 87.8945 107.598C87.7246 107.498 87.5049 107.431 87.2354 107.396C86.9658 107.36 86.6816 107.343 86.3828 107.343H85.0469C84.8008 107.343 84.5752 107.381 84.3701 107.457C84.1709 107.539 84.0127 107.647 83.8955 107.782C83.7783 107.917 83.7197 108.069 83.7197 108.239C83.7197 108.521 83.8721 108.746 84.1768 108.916C84.4814 109.092 84.8887 109.18 85.3984 109.18ZM85.8643 101.832C86.1924 101.832 86.4443 101.706 86.6201 101.454C86.8018 101.202 86.8926 100.824 86.8926 100.32C86.8926 99.8047 86.8076 99.418 86.6377 99.1602C86.4678 98.9023 86.21 98.7734 85.8643 98.7734C85.5068 98.7734 85.2402 98.9023 85.0645 99.1602C84.8887 99.4121 84.8008 99.793 84.8008 100.303C84.8008 100.812 84.8887 101.196 85.0645 101.454C85.2402 101.706 85.5068 101.832 85.8643 101.832ZM100.146 103.941C100.146 104.574 100.006 105.134 99.7246 105.62C99.4434 106.106 98.9922 106.487 98.3711 106.763C97.7559 107.038 96.9443 107.176 95.9365 107.176C95.2275 107.176 94.5918 107.138 94.0293 107.062C93.4727 106.985 92.9072 106.839 92.333 106.622V103.871C92.96 104.158 93.5986 104.366 94.249 104.495C94.8994 104.618 95.4121 104.68 95.7871 104.68C96.1738 104.68 96.4551 104.639 96.6309 104.557C96.8125 104.469 96.9033 104.34 96.9033 104.17C96.9033 104.023 96.8418 103.9 96.7188 103.801C96.6016 103.695 96.3877 103.575 96.0771 103.44C95.7725 103.306 95.3418 103.124 94.7852 102.896C94.2344 102.667 93.7744 102.418 93.4053 102.148C93.042 101.879 92.7695 101.557 92.5879 101.182C92.4062 100.807 92.3154 100.347 92.3154 99.8018C92.3154 98.8291 92.6904 98.0967 93.4404 97.6045C94.1904 97.1123 95.1836 96.8662 96.4199 96.8662C97.0762 96.8662 97.6943 96.9395 98.2744 97.0859C98.8545 97.2266 99.4551 97.4346 100.076 97.71L99.1357 99.9248C98.6436 99.7021 98.1455 99.5234 97.6416 99.3887C97.1377 99.2539 96.7363 99.1865 96.4375 99.1865C96.168 99.1865 95.96 99.2217 95.8135 99.292C95.667 99.3623 95.5938 99.4648 95.5938 99.5996C95.5938 99.7227 95.6436 99.8311 95.7432 99.9248C95.8486 100.019 96.0449 100.127 96.332 100.25C96.6191 100.373 97.0381 100.546 97.5889 100.769C98.1689 101.003 98.6465 101.255 99.0215 101.524C99.4023 101.788 99.6836 102.11 99.8652 102.491C100.053 102.872 100.146 103.355 100.146 103.941Z" fill="#015486"/>
</g>
<defs>
<clipPath id="clip0_319_6156">
<rect width="132" height="170" fill="white"/>
</clipPath>
</defs>
</svg>
