<svg width="36" height="36" viewBox="0 0 36 36" fill="none" xmlns="http://www.w3.org/2000/svg">
<path d="M25.8116 4.77771C24.2672 4.77771 22.786 5.39124 21.6939 6.48333C20.6018 7.57541 19.9883 9.0566 19.9883 10.601V21.7624H31.6349V10.601C31.6349 9.0566 31.0214 7.57541 29.9293 6.48333C28.8372 5.39124 27.3561 4.77771 25.8116 4.77771Z" fill="url(#paint0_linear_53_7070)"/>
<path d="M29.6937 29.0417H21.9292C21.157 29.0417 20.4164 28.7349 19.8704 28.1889C19.3243 27.6428 19.0176 26.9022 19.0176 26.13V22.4904C19.0176 21.139 19.5544 19.843 20.51 18.8874C21.4656 17.9319 22.7616 17.395 24.113 17.395H27.5099C28.8613 17.395 30.1574 17.9319 31.1129 18.8874C32.0685 19.843 32.6054 21.139 32.6054 22.4904V26.13C32.6054 26.9022 32.2986 27.6428 31.7525 28.1889C31.2065 28.7349 30.4659 29.0417 29.6937 29.0417Z" fill="url(#paint1_linear_53_7070)"/>
<path d="M27.5099 17.395H24.113C23.447 17.3947 22.7874 17.5254 22.1719 17.7798V17.8803C22.1719 18.8456 22.5553 19.7713 23.2379 20.4539C23.9204 21.1364 24.8462 21.5199 25.8115 21.5199C26.7767 21.5199 27.7025 21.1364 28.385 20.4539C29.0676 19.7713 29.451 18.8456 29.451 17.8803V17.7798C28.8355 17.5254 28.176 17.3947 27.5099 17.395Z" fill="url(#paint2_linear_53_7070)"/>
<path d="M23.627 15.6965H27.9945V17.8803C27.9945 18.4594 27.7644 19.0149 27.3548 19.4244C26.9453 19.834 26.3899 20.064 25.8107 20.064C25.2315 20.064 24.6761 19.834 24.2666 19.4244C23.857 19.0149 23.627 18.4594 23.627 17.8803V15.6965Z" fill="url(#paint3_linear_53_7070)"/>
<path d="M30.1784 10.8438C30.1784 8.43171 28.223 6.47632 25.8109 6.47632C23.3988 6.47632 21.4434 8.43171 21.4434 10.8438V13.2702C21.4434 15.6823 23.3988 17.6377 25.8109 17.6377C28.223 17.6377 30.1784 15.6823 30.1784 13.2702V10.8438Z" fill="url(#paint4_linear_53_7070)"/>
<path d="M30.6645 10.6011C30.6645 9.31403 30.1533 8.07971 29.2432 7.16964C28.3331 6.25956 27.0988 5.74829 25.8118 5.74829C24.5247 5.74829 23.2904 6.25956 22.3803 7.16964C21.4703 8.07971 20.959 9.31403 20.959 10.6011L21.4443 12.2995L22.1722 10.8437C25.8118 10.8437 27.2676 9.38787 27.2676 9.38787C27.4686 9.80332 27.7771 10.1574 28.1611 10.4134C28.5451 10.6694 28.9906 10.818 29.4513 10.8437L30.1793 12.2995L30.6645 10.6011Z" fill="url(#paint5_linear_53_7070)"/>
<path d="M31.6343 13.0274C31.6343 12.2233 30.9825 11.5715 30.1785 11.5715C29.3745 11.5715 28.7227 12.2233 28.7227 13.0274C28.7227 13.8314 29.3745 14.4832 30.1785 14.4832C30.9825 14.4832 31.6343 13.8314 31.6343 13.0274Z" fill="url(#paint6_linear_53_7070)"/>
<path d="M22.8999 13.0274C22.8999 12.2233 22.2481 11.5715 21.4441 11.5715C20.6401 11.5715 19.9883 12.2233 19.9883 13.0274C19.9883 13.8314 20.6401 14.4832 21.4441 14.4832C22.2481 14.4832 22.8999 13.8314 22.8999 13.0274Z" fill="url(#paint7_linear_53_7070)"/>
<path d="M14.1644 29.0417H6.39995C5.62773 29.0417 4.88713 28.7349 4.34109 28.1889C3.79505 27.6428 3.48828 26.9022 3.48828 26.13V22.4904C3.48828 21.139 4.02512 19.843 4.98069 18.8874C5.93627 17.9319 7.23231 17.395 8.5837 17.395H11.9806C13.332 17.395 14.6281 17.9319 15.5836 18.8874C16.5392 19.843 17.0761 21.139 17.0761 22.4904V26.13C17.0761 26.9022 16.7693 27.6428 16.2233 28.1889C15.6772 28.7349 14.9366 29.0417 14.1644 29.0417Z" fill="url(#paint8_linear_53_7070)"/>
<path d="M12.2239 20.3067H8.34165C8.08424 20.3067 7.83738 20.2045 7.65536 20.0225C7.47335 19.8405 7.37109 19.5936 7.37109 19.3362V18.8509C7.37109 18.3361 7.5756 17.8424 7.93963 17.4783C8.30366 17.1143 8.79739 16.9098 9.3122 16.9098H11.2533C11.7681 16.9098 12.2619 17.1143 12.6259 17.4783C12.9899 17.8424 13.1944 18.3361 13.1944 18.8509V19.3362C13.1944 19.5936 13.0922 19.8405 12.9102 20.0225C12.7281 20.2045 12.4813 20.3067 12.2239 20.3067Z" fill="url(#paint9_linear_53_7070)"/>
<path d="M8.09961 15.6965H12.4671V17.8803C12.4671 18.4594 12.237 19.0149 11.8275 19.4244C11.418 19.834 10.8625 20.064 10.2834 20.064C9.70419 20.064 9.14875 19.834 8.73922 19.4244C8.32968 19.0149 8.09961 18.4594 8.09961 17.8803V15.6965Z" fill="url(#paint10_linear_53_7070)"/>
<path d="M14.6491 10.8438C14.6491 8.43171 12.6937 6.47632 10.2816 6.47632C7.86946 6.47632 5.91406 8.43171 5.91406 10.8438V13.2702C5.91406 15.6823 7.86946 17.6377 10.2816 17.6377C12.6937 17.6377 14.6491 15.6823 14.6491 13.2702V10.8438Z" fill="url(#paint11_linear_53_7070)"/>
<path d="M5.91498 12.4545L6.6429 10.9987C7.10368 10.9729 7.54919 10.8244 7.93318 10.5684C8.31717 10.3124 8.62567 9.95827 8.82665 9.54282C8.82665 9.54282 10.2825 10.9987 13.9221 10.9987L14.65 12.4545C14.65 12.4545 16.8599 9.7248 14.897 7.06014C12.9665 4.43819 8.85285 4.10626 7.37081 5.90324C7.37081 5.90324 4.75808 5.65623 4.45915 8.81491C4.18496 11.714 5.91498 12.4545 5.91498 12.4545Z" fill="url(#paint12_linear_53_7070)"/>
<path d="M7.37065 13.0274C7.37065 12.2233 6.71885 11.5715 5.91482 11.5715C5.11078 11.5715 4.45898 12.2233 4.45898 13.0274C4.45898 13.8314 5.11078 14.4832 5.91482 14.4832C6.71885 14.4832 7.37065 13.8314 7.37065 13.0274Z" fill="url(#paint13_linear_53_7070)"/>
<path d="M16.105 12.6636C16.105 11.8596 15.4532 11.2078 14.6492 11.2078C13.8452 11.2078 13.1934 11.8596 13.1934 12.6636C13.1934 13.4676 13.8452 14.1194 14.6492 14.1194C15.4532 14.1194 16.105 13.4676 16.105 12.6636Z" fill="url(#paint14_linear_53_7070)"/>
<path d="M22.0975 30.9828H13.9972C13.6687 30.9828 13.3435 30.9182 13.04 30.7925C12.7365 30.6668 12.4608 30.4826 12.2285 30.2503C11.9963 30.0181 11.812 29.7423 11.6864 29.4388C11.5607 29.1354 11.496 28.8101 11.4961 28.4816V27.235C11.496 26.6437 11.6124 26.0583 11.8387 25.5121C12.0649 24.9658 12.3965 24.4695 12.8145 24.0515C13.2326 23.6334 13.7289 23.3018 14.2751 23.0756C14.8214 22.8494 15.4068 22.733 15.998 22.733H20.0967C20.6879 22.733 21.2733 22.8494 21.8196 23.0756C22.3658 23.3018 22.8621 23.6334 23.2802 24.0515C23.6982 24.4695 24.0298 24.9658 24.256 25.5121C24.4823 26.0583 24.5987 26.6437 24.5986 27.235V28.4816C24.5987 28.8101 24.534 29.1354 24.4083 29.4388C24.2827 29.7423 24.0984 30.0181 23.8662 30.2503C23.6339 30.4826 23.3582 30.6668 23.0547 30.7925C22.7512 30.9182 22.4259 30.9828 22.0975 30.9828Z" fill="url(#paint15_linear_53_7070)"/>
<path d="M20.0958 22.7329H15.9971C15.7076 22.7336 15.4189 22.7618 15.1348 22.8173V23.2182C15.1348 23.9904 15.4415 24.731 15.9876 25.277C16.5336 25.8231 17.2742 26.1299 18.0464 26.1299C18.8187 26.1299 19.5592 25.8231 20.1053 25.277C20.6513 24.731 20.9581 23.9904 20.9581 23.2182V22.8173C20.674 22.7618 20.3852 22.7336 20.0958 22.7329Z" fill="url(#paint16_linear_53_7070)"/>
<path d="M16.1055 21.2773H19.9877V23.2185C19.9877 23.7333 19.7832 24.227 19.4192 24.591C19.0551 24.9551 18.5614 25.1596 18.0466 25.1596C17.5318 25.1596 17.038 24.9551 16.674 24.591C16.31 24.227 16.1055 23.7333 16.1055 23.2185V21.2773Z" fill="url(#paint17_linear_53_7070)"/>
<path d="M18.0759 13.0276H18.0167C15.8889 13.0276 14.1641 14.7525 14.1641 16.8802V18.8805C14.1641 21.0083 15.8889 22.7331 18.0167 22.7331H18.0759C20.2036 22.7331 21.9285 21.0083 21.9285 18.8805V16.8802C21.9285 14.7525 20.2036 13.0276 18.0759 13.0276Z" fill="url(#paint18_linear_53_7070)"/>
<path d="M14.1052 18.5004L14.7622 17.1863C15.1781 17.1631 15.5802 17.029 15.9268 16.7979C16.2733 16.5668 16.5517 16.2472 16.7329 15.8721C16.7329 15.8721 18.0471 17.1863 21.3319 17.1863L21.989 18.5004C21.989 18.5004 23.9835 16.0367 22.2117 13.6316C20.4696 11.2659 16.7567 10.9655 15.4178 12.5873C15.4178 12.5873 13.0599 12.3646 12.7901 15.2156C12.5435 17.8317 14.1052 18.5004 14.1052 18.5004Z" fill="url(#paint19_linear_53_7070)"/>
<path d="M23.1412 18.8508C23.1412 18.1807 22.5981 17.6376 21.928 17.6376C21.258 17.6376 20.7148 18.1807 20.7148 18.8508C20.7148 19.5208 21.258 20.064 21.928 20.064C22.5981 20.064 23.1412 19.5208 23.1412 18.8508Z" fill="url(#paint20_linear_53_7070)"/>
<path d="M15.3776 18.8508C15.3776 18.1807 14.8344 17.6376 14.1644 17.6376C13.4943 17.6376 12.9512 18.1807 12.9512 18.8508C12.9512 19.5208 13.4943 20.064 14.1644 20.064C14.8344 20.064 15.3776 19.5208 15.3776 18.8508Z" fill="url(#paint21_linear_53_7070)"/>
<defs>
<linearGradient id="paint0_linear_53_7070" x1="25.8116" y1="4.9165" x2="25.8116" y2="19.9004" gradientUnits="userSpaceOnUse">
<stop stop-color="#8A552E"/>
<stop offset="1" stop-color="#543426"/>
</linearGradient>
<linearGradient id="paint1_linear_53_7070" x1="25.8115" y1="18.7208" x2="25.8115" y2="29.2639" gradientUnits="userSpaceOnUse">
<stop stop-color="#FED200"/>
<stop offset="1" stop-color="#F59815"/>
</linearGradient>
<linearGradient id="paint2_linear_53_7070" x1="25.8115" y1="15.2113" x2="25.8115" y2="24.8935" gradientUnits="userSpaceOnUse">
<stop stop-color="#FED200"/>
<stop offset="1" stop-color="#F59815"/>
</linearGradient>
<linearGradient id="paint3_linear_53_7070" x1="25.8107" y1="15.4452" x2="25.8107" y2="19.8515" gradientUnits="userSpaceOnUse">
<stop stop-color="#F1D2BD"/>
<stop offset="1" stop-color="#FEB592"/>
</linearGradient>
<linearGradient id="paint4_linear_53_7070" x1="25.8109" y1="10.805" x2="25.8109" y2="17.5508" gradientUnits="userSpaceOnUse">
<stop stop-color="#F1D2BD"/>
<stop offset="1" stop-color="#FEB592"/>
</linearGradient>
<linearGradient id="paint5_linear_53_7070" x1="25.8118" y1="4.91652" x2="25.8118" y2="19.9004" gradientUnits="userSpaceOnUse">
<stop stop-color="#8A552E"/>
<stop offset="1" stop-color="#543426"/>
</linearGradient>
<linearGradient id="paint6_linear_53_7070" x1="30.1785" y1="10.8048" x2="30.1785" y2="17.5506" gradientUnits="userSpaceOnUse">
<stop stop-color="#F1D2BD"/>
<stop offset="1" stop-color="#FEB592"/>
</linearGradient>
<linearGradient id="paint7_linear_53_7070" x1="21.4441" y1="10.8048" x2="21.4441" y2="17.5506" gradientUnits="userSpaceOnUse">
<stop stop-color="#F1D2BD"/>
<stop offset="1" stop-color="#FEB592"/>
</linearGradient>
<linearGradient id="paint8_linear_53_7070" x1="10.2822" y1="16.0692" x2="10.2822" y2="28.5486" gradientUnits="userSpaceOnUse">
<stop stop-color="#6FC6FC"/>
<stop offset="1" stop-color="#50A7F6"/>
</linearGradient>
<linearGradient id="paint9_linear_53_7070" x1="10.2828" y1="17.1612" x2="10.2828" y2="19.8918" gradientUnits="userSpaceOnUse">
<stop stop-color="white"/>
<stop offset="1" stop-color="#EDF1F2"/>
</linearGradient>
<linearGradient id="paint10_linear_53_7070" x1="10.2834" y1="16.1993" x2="10.2834" y2="19.6501" gradientUnits="userSpaceOnUse">
<stop stop-color="#F1D2BD"/>
<stop offset="1" stop-color="#FEB592"/>
</linearGradient>
<linearGradient id="paint11_linear_53_7070" x1="10.2816" y1="11.2728" x2="10.2816" y2="17.6693" gradientUnits="userSpaceOnUse">
<stop stop-color="#F1D2BD"/>
<stop offset="1" stop-color="#FEB592"/>
</linearGradient>
<linearGradient id="paint12_linear_53_7070" x1="10.0694" y1="5.18843" x2="10.0694" y2="10.9681" gradientUnits="userSpaceOnUse">
<stop stop-color="#3E4154"/>
<stop offset="1" stop-color="#1B2129"/>
</linearGradient>
<linearGradient id="paint13_linear_53_7070" x1="5.91482" y1="11.2726" x2="5.91482" y2="17.669" gradientUnits="userSpaceOnUse">
<stop stop-color="#F1D2BD"/>
<stop offset="1" stop-color="#FEB592"/>
</linearGradient>
<linearGradient id="paint14_linear_53_7070" x1="14.6492" y1="11.2728" x2="14.6492" y2="17.6692" gradientUnits="userSpaceOnUse">
<stop stop-color="#F1D2BD"/>
<stop offset="1" stop-color="#FEB592"/>
</linearGradient>
<linearGradient id="paint15_linear_53_7070" x1="18.0473" y1="19.6569" x2="18.0473" y2="30.8105" gradientUnits="userSpaceOnUse">
<stop stop-color="#4793EB"/>
<stop offset="1" stop-color="#2367EC"/>
</linearGradient>
<linearGradient id="paint16_linear_53_7070" x1="18.0464" y1="19.3447" x2="18.0464" y2="26.2119" gradientUnits="userSpaceOnUse">
<stop stop-color="#4793EB"/>
<stop offset="1" stop-color="#2367EC"/>
</linearGradient>
<linearGradient id="paint17_linear_53_7070" x1="18.0466" y1="21.5675" x2="18.0466" y2="25.0392" gradientUnits="userSpaceOnUse">
<stop stop-color="#F1D2BD"/>
<stop offset="1" stop-color="#FEB592"/>
</linearGradient>
<linearGradient id="paint18_linear_53_7070" x1="18.0463" y1="17.317" x2="18.0463" y2="22.6618" gradientUnits="userSpaceOnUse">
<stop stop-color="#F1D2BD"/>
<stop offset="1" stop-color="#FEB592"/>
</linearGradient>
<linearGradient id="paint19_linear_53_7070" x1="17.8549" y1="11.9424" x2="17.8549" y2="17.1586" gradientUnits="userSpaceOnUse">
<stop stop-color="#3E4154"/>
<stop offset="1" stop-color="#1B2129"/>
</linearGradient>
<linearGradient id="paint20_linear_53_7070" x1="21.928" y1="17.3168" x2="21.928" y2="22.6617" gradientUnits="userSpaceOnUse">
<stop stop-color="#F1D2BD"/>
<stop offset="1" stop-color="#FEB592"/>
</linearGradient>
<linearGradient id="paint21_linear_53_7070" x1="14.1644" y1="17.3168" x2="14.1644" y2="22.6617" gradientUnits="userSpaceOnUse">
<stop stop-color="#F1D2BD"/>
<stop offset="1" stop-color="#FEB592"/>
</linearGradient>
</defs>
</svg>
