<svg width="16" height="16" viewBox="0 0 16 16" fill="none" xmlns="http://www.w3.org/2000/svg">
<path fill-rule="evenodd" clip-rule="evenodd" d="M9.6 1.6C9.6 0.716344 8.88366 0 8 0C7.11634 0 6.4 0.716344 6.4 1.6L5.86667 5.86667L1.6 6.4C0.716344 6.4 0 7.11634 0 8C0 8.88366 0.716344 9.6 1.6 9.6L5.86667 10.1333L6.4 14.4C6.4 15.2837 7.11634 16 8 16C8.88366 16 9.6 15.2837 9.6 14.4L10.1333 10.1333L14.4 9.6C15.2837 9.6 16 8.88366 16 8C16 7.11634 15.2837 6.4 14.4 6.4L10.1333 5.86667L9.6 1.6Z" fill="url(#paint0_linear_2105_4369)"/>
<defs>
<linearGradient id="paint0_linear_2105_4369" x1="8" y1="0" x2="8" y2="16" gradientUnits="userSpaceOnUse">
<stop stop-color="#FEFDF7"/>
<stop offset="1" stop-color="#FFE8C9"/>
</linearGradient>
</defs>
</svg>
