<svg width="25" height="25" viewBox="0 0 25 25" fill="none" xmlns="http://www.w3.org/2000/svg">
<g clip-path="url(#clip0_1015_55030)">
<path d="M21.4673 19.424C21.1195 20.2275 20.7078 20.9672 20.2308 21.6472C19.5805 22.5743 19.0481 23.216 18.6378 23.5724C18.0018 24.1573 17.3204 24.4568 16.5906 24.4739C16.0667 24.4739 15.435 24.3248 14.6996 24.0224C13.9617 23.7214 13.2837 23.5724 12.6637 23.5724C12.0135 23.5724 11.3161 23.7214 10.5702 24.0224C9.82315 24.3248 9.22133 24.4824 8.7612 24.498C8.06143 24.5278 7.36393 24.2197 6.6677 23.5724C6.22333 23.1848 5.66751 22.5204 5.00167 21.5791C4.28727 20.5739 3.69994 19.4084 3.23981 18.0795C2.74703 16.6442 2.5 15.2543 2.5 13.9087C2.5 12.3673 2.83306 11.0379 3.50019 9.92385C4.02448 9.029 4.72199 8.32312 5.59497 7.80493C6.46795 7.28674 7.4112 7.02267 8.42701 7.00578C8.98282 7.00578 9.7117 7.1777 10.6175 7.51559C11.5207 7.85462 12.1006 8.02655 12.3549 8.02655C12.545 8.02655 13.1893 7.82552 14.2815 7.42473C15.3143 7.05305 16.186 6.89916 16.9001 6.95978C18.8352 7.11595 20.289 7.87876 21.2558 9.25303C19.5252 10.3016 18.6691 11.7703 18.6861 13.6544C18.7017 15.122 19.2341 16.3432 20.2804 17.3129C20.7546 17.7629 21.2842 18.1107 21.8734 18.3578C21.7456 18.7283 21.6107 19.0832 21.4673 19.424ZM17.0293 1.96013C17.0293 3.11039 16.6091 4.18439 15.7714 5.17847C14.7606 6.36023 13.538 7.04311 12.2121 6.93536C12.1952 6.79736 12.1854 6.65213 12.1854 6.49951C12.1854 5.39526 12.6661 4.21349 13.5198 3.24724C13.946 2.75801 14.488 2.35122 15.1454 2.02671C15.8013 1.70705 16.4217 1.53027 17.0052 1.5C17.0222 1.65377 17.0293 1.80756 17.0293 1.96013Z" fill="white"/>
</g>
<defs>
<clipPath id="clip0_1015_55030">
<rect width="24" height="24" fill="white" transform="translate(0.5 0.5)"/>
</clipPath>
</defs>
</svg>
