<svg width="253" height="57" viewBox="0 0 253 57" fill="none" xmlns="http://www.w3.org/2000/svg">
    <path
        d="M36.7447 34.0947L44.3284 37.042C43.2707 40.5251 41.4197 43.6622 38.7755 46.4532C34.3331 51.142 28.9811 53.4865 22.7195 53.4865C16.4367 53.4865 11.0742 51.1532 6.63181 46.4867C2.2106 41.7978 0 36.1377 0 29.5063C0 22.8973 2.2106 17.2595 6.63181 12.5929C11.0742 7.90409 16.4367 5.55966 22.7195 5.55966C28.9811 5.55966 34.3331 7.89292 38.7755 12.5595C41.3986 15.3504 43.239 18.4763 44.2967 21.9372L36.5543 23.6453C35.9197 22.1716 35.0312 20.8208 33.8889 19.5927C31.3927 16.9804 28.3782 15.6742 24.8455 15.6742C21.3339 15.6742 18.33 16.9915 15.8338 19.6262C13.3377 22.2386 12.0896 25.4092 12.0896 29.1379C12.0896 32.8443 13.3377 36.0149 15.8338 38.6496C18.33 41.2843 21.3339 42.6016 24.8455 42.6016C28.3782 42.6016 31.3927 41.2843 33.8889 38.6496C35.1793 37.2876 36.1312 35.7693 36.7447 34.0947Z"
        fill="#A421D9" />
    <path
        d="M106.921 21.0959V51.473L98.1314 52.4778L96.8621 21.0959H106.921ZM100.479 7.79967C102.256 7.57639 103.832 7.86666 105.207 8.67046C106.582 9.47426 107.344 10.5572 107.492 11.9192C107.64 13.2812 107.132 14.5204 105.969 15.6368C104.805 16.7532 103.335 17.423 101.558 17.6463C99.7602 17.8696 98.1737 17.5793 96.7986 16.7755C95.4448 15.9717 94.6938 14.8888 94.5457 13.5268C94.3977 12.1648 94.8948 10.9256 96.0371 9.80918C97.2006 8.69279 98.6814 8.02295 100.479 7.79967Z"
        fill="#A421D9" />
    <path
        d="M121.129 51.5439H111.483L112.562 21.6692L120.748 20.9994L121.002 23.9802C122.8 22.6852 125.296 22.1158 128.491 22.2721C132.129 22.473 135.165 24.0248 137.597 26.9275C139.861 29.6738 140.982 37.8793 140.961 51.5439H131.949L131.981 36.2382C132.066 34.4966 131.6 32.9783 130.585 31.6833C129.591 30.3883 128.343 29.6961 126.841 29.6068C125.317 29.5398 124.006 30.098 122.906 31.2814C121.806 32.4648 121.214 33.9272 121.129 35.6688C121.108 35.9368 121.108 41.2285 121.129 51.5439Z"
        fill="#A421D9" />
    <path d="M144.565 1.3062L156.306 0.602868L155.861 19.2578L174.139 1.10525L182.325 8.57392L162.081 26.0232L184.737 44.5107L176.455 50.9076L155.29 33.8938L155.925 50.5057L144.565 51.8789V1.3062Z"
        fill="#015486" />
    <path
        d="M199.314 20.2291V50.6062L190.524 51.6109L189.889 35.92L189.255 20.2291H199.314ZM192.872 6.93283C194.649 6.70955 196.225 6.99981 197.6 7.80361C198.975 8.60742 199.737 9.69032 199.885 11.0523C200.033 12.4143 199.525 13.6535 198.362 14.7699C197.198 15.8863 195.728 16.5561 193.951 16.7794C192.153 17.0027 190.566 16.7124 189.191 15.9086C187.837 15.1048 187.086 14.0219 186.938 12.6599C186.79 11.2979 187.287 10.0587 188.43 8.94233C189.593 7.82594 191.074 7.1561 192.872 6.93283Z"
        fill="#015486" />
    <path
        d="M217.252 31.3484C215.835 31.3484 214.629 31.9289 213.635 33.0899C212.64 34.2287 212.143 35.613 212.143 37.2429C212.143 38.8952 212.64 40.3018 213.635 41.4629C214.629 42.6239 215.835 43.2045 217.252 43.2045C218.669 43.2045 219.875 42.6239 220.869 41.4629C221.864 40.3018 222.361 38.8952 222.361 37.2429C222.361 35.613 221.864 34.2287 220.869 33.0899C219.875 31.9289 218.669 31.3484 217.252 31.3484ZM223.915 47.1565C221.673 49.166 219.05 50.1708 216.046 50.1708C212.619 50.1708 209.689 48.8646 207.257 46.2522C204.845 43.6399 203.639 40.4805 203.639 36.774C203.639 33.0453 204.845 29.8747 207.257 27.2624C209.689 24.6277 212.619 23.3103 216.046 23.3103C217.844 23.3103 220.002 24.036 222.519 25.4873L222.932 0L233.879 1.44015L229.183 51.343L224.455 51.6109L223.915 47.1565Z"
        fill="#015486" />
    <path
        d="M242.338 35.1625C239.863 33.3093 238.372 32.1259 237.864 31.6124C236.341 30.0717 235.632 28.2855 235.738 26.2537C235.844 24.2218 236.743 22.5361 238.435 21.1964C240.128 19.8567 242.106 19.265 244.369 19.4213C246.654 19.5553 248.558 20.3926 250.081 21.9332C251.625 23.4739 252.344 25.528 252.238 28.0957L247.511 28.6651C247.151 27.2138 246.812 26.2872 246.495 25.8853C245.966 25.2378 245.406 24.8917 244.813 24.847C244.221 24.78 243.787 24.8693 243.512 25.115C243.237 25.3606 243.079 25.9076 243.036 26.7561C242.973 27.6268 243.206 28.3078 243.735 28.7991C244.179 29.4466 245.268 30.4513 247.003 31.8133C248.759 33.1753 250.197 34.515 251.318 35.8323C252.439 37.1497 253 39.0476 253 41.5259C252.873 43.982 251.868 46.0362 249.986 47.6884C248.103 49.3184 245.892 50.0552 243.354 49.8989C240.836 49.7426 238.732 48.7379 237.039 46.8846C235.347 45.0091 234.575 42.8433 234.723 40.3872V39.9853L240.403 40.4877C240.445 41.6488 240.858 42.6758 241.64 43.569C242.317 44.3728 243.121 44.8193 244.052 44.9086C244.983 44.9979 245.744 44.6407 246.336 43.8369C246.929 43.0108 247.161 41.9055 247.035 40.5212C246.379 38.7796 244.813 36.9934 242.338 35.1625Z"
        fill="#015486" />
    <path
        d="M83.916 17.0871C83.9153 17.0864 83.9148 17.0859 83.9142 17.0853L77.729 14.574L66.9316 17.0854V22.6428L84.6191 26.0859L87.7732 22.6428C86.7478 20.5521 85.4413 18.6757 83.916 17.0871V17.0871Z"
        fill="#E7A52E" />
    <path d="M83.9143 50.4298L75.8413 48.6174L66.9316 50.4298V55.9872H71.4547C76.1849 55.9872 80.5076 53.93 83.8158 50.5328" fill="#E7A52E" />
    <path d="M66.9316 44.8725L79.6696 47.0482L87.7733 44.8725C88.6166 43.1524 89.2707 41.2868 89.7008 39.3151L80.2245 36.0916L66.9316 39.3151V44.8725Z" fill="#E7A52E" />
    <path d="M89.7007 28.2002L83.9143 24.1223L66.9316 28.2002V33.7576L85.4745 37.7082L90.2943 33.7576C90.2943 31.8383 90.0884 29.9766 89.7007 28.2002Z" fill="#E7A52E" />
    <path d="M87.6674 33.7576C87.6674 21.4805 79.2326 11.5281 68.8278 11.5281C68.1877 11.5281 67.5553 11.5661 66.9316 11.6397V55.9871H68.8278C79.2325 55.987 87.6674 46.0346 87.6674 33.7576Z"
        fill="#E28424" />
    <path d="M83.9143 17.0855C80.5934 13.6274 76.2321 11.5281 71.4547 11.5281H66.9316V17.0855H83.9143Z" fill="#C85929" />
    <path d="M66.9316 28.2002H89.7008C89.2707 26.2285 88.6166 24.363 87.7733 22.6428H66.9316V28.2002Z" fill="#C85929" />
    <path d="M66.9316 39.315H89.7007C90.0882 37.5387 90.2943 35.6766 90.2943 33.7576H66.9316V39.315Z" fill="#C85929" />
    <path d="M66.9316 50.4297H83.9143C85.4407 48.8403 86.7476 46.9645 87.7733 44.8723H66.9316V50.4297Z" fill="#C85929" />
    <path d="M85.1464 44.8723H66.9316V50.4297H81.2874C82.8138 48.8403 84.1207 46.9644 85.1464 44.8723Z" fill="#B94029" />
    <path d="M87.6674 33.7576H66.9316V39.315H87.0738C87.4612 37.5387 87.6674 35.6766 87.6674 33.7576Z" fill="#B94029" />
    <path d="M85.1464 22.6428H66.9316V28.2002H87.0739C86.6438 26.2285 85.9898 24.363 85.1464 22.6428Z" fill="#B94029" />
    <path d="M68.8278 11.5281C68.1877 11.5281 67.5553 11.5661 66.9316 11.6397V17.0855H81.2874C77.9665 13.6274 73.6052 11.5281 68.8278 11.5281Z" fill="#B94029" />
    <ellipse cx="66.9314" cy="33.7576" rx="18.8396" ry="22.2295" fill="#F6E266" />
    <path d="M54.4268 50.3827C55.3792 51.3808 56.4172 52.2675 57.5274 53.0236L62.6953 12.0925C61.4364 12.4338 60.2261 12.9248 59.0776 13.5472L54.4268 50.3827Z" fill="#FBF4AF" />
    <path
        d="M66.9316 11.5281C66.5892 11.5281 66.2491 11.5396 65.9111 11.5609C75.8414 12.1863 83.7303 21.8845 83.7303 33.7576C83.7303 45.6306 75.8414 55.3288 65.9111 55.9544C66.2491 55.9757 66.5892 55.9871 66.9316 55.9871C77.3364 55.9871 85.7712 46.0347 85.7712 33.7577C85.7712 21.4806 77.3364 11.5281 66.9316 11.5281Z"
        fill="#EAB14D" />
    <ellipse cx="66.9316" cy="33.7576" rx="15.1728" ry="17.9029" fill="#E7A52E" />
    <path
        d="M66.9309 15.8547C66.5514 15.8547 66.1752 15.8717 65.8027 15.904C73.6555 16.5851 79.8474 24.318 79.8474 33.7576C79.8474 43.1972 73.6556 50.9301 65.8027 51.6112C66.1753 51.6435 66.5514 51.6605 66.9309 51.6605C75.3106 51.6605 82.1037 43.6451 82.1037 33.7576C82.1037 23.8701 75.3106 15.8547 66.9309 15.8547Z"
        fill="#E28424" />
    <path d="M55.1094 44.9785C55.9782 46.2514 56.9912 47.3815 58.1198 48.3333L62.1036 16.7808C60.7758 17.3062 59.5301 18.0427 58.3949 18.956L55.1094 44.9785Z" fill="#EAB14D" />
    <path
        d="M67.3944 23.895L70.2587 29.0871C70.3329 29.2218 70.4468 29.3193 70.5783 29.3611L75.6484 30.9708C76.0343 31.0933 76.1859 31.6437 75.9346 32.0105L72.6348 36.8291C72.5492 36.9541 72.5057 37.1119 72.5127 37.2724L72.7819 43.4593C72.8024 43.9303 72.4056 44.2704 72.0324 44.1019L67.1288 41.8879C67.0016 41.8306 66.8609 41.8306 66.7337 41.8879L61.8301 44.1019C61.4569 44.2705 61.0601 43.9303 61.0806 43.4593L61.3498 37.2724C61.3568 37.1119 61.3133 36.9541 61.2277 36.8291L57.9279 32.0105C57.6767 31.6437 57.8282 31.0933 58.2141 30.9708L63.2842 29.3611C63.4156 29.3193 63.5295 29.2217 63.6038 29.0871L66.468 23.895C66.686 23.4998 67.1764 23.4998 67.3944 23.895V23.895Z"
        fill="#C85929" />
    <path
        d="M75.6485 30.9708L70.5785 29.361C70.447 29.3192 70.3332 29.2217 70.2588 29.0871L70.0176 28.6499C69.9934 31.9488 69.59 37.2603 67.6094 42.1049L72.0325 44.102C72.4058 44.2705 72.8026 43.9303 72.782 43.4594L72.5128 37.2725C72.5058 37.112 72.5493 36.9541 72.6349 36.8292L75.9348 32.0105C76.1859 31.6436 76.0343 31.0933 75.6485 30.9708Z"
        fill="#B94029" />
</svg>
