<svg width="24" height="24" viewBox="0 0 24 24" fill="none" xmlns="http://www.w3.org/2000/svg">
<path d="M20.1741 3.53688C20.1737 3.53653 20.1734 3.53629 20.1731 3.53594L16.7393 2.26099L10.7451 3.53599V6.35743L20.5644 8.10546L22.3154 6.35743C21.7462 5.29602 21.0208 4.3434 20.1741 3.53688Z" fill="#E7A52E"/>
<path d="M20.1732 20.4643L15.6913 19.5442L10.7451 20.4643V23.2858H13.2561C15.8821 23.2858 18.2819 22.2413 20.1185 20.5166" fill="#E7A52E"/>
<path d="M10.7451 17.6424L17.8166 18.7469L22.3155 17.6423C22.7836 16.769 23.1467 15.8219 23.3855 14.8209L18.1247 13.1843L10.7451 14.8209L10.7451 17.6424Z" fill="#E7A52E"/>
<path d="M23.3855 9.17871L20.1732 7.1084L10.7451 9.17871V12.0001L21.0393 14.0058L23.715 12.0001C23.715 11.0257 23.6007 10.0806 23.3855 9.17871Z" fill="#E7A52E"/>
<path d="M22.2567 12C22.2567 5.76712 17.5741 0.714355 11.7978 0.714355C11.4424 0.714355 11.0913 0.733662 10.7451 0.77104V23.2858H11.7978C17.574 23.2857 22.2567 18.233 22.2567 12Z" fill="#E28424"/>
<path d="M20.1732 3.53579C18.3295 1.78015 15.9083 0.714355 13.2561 0.714355H10.7451V3.53579H20.1732Z" fill="#C85929"/>
<path d="M10.7451 9.17837H23.3855C23.1467 8.17735 22.7836 7.23026 22.3155 6.35693H10.7451L10.7451 9.17837Z" fill="#C85929"/>
<path d="M10.7451 14.8207H23.3855C23.6006 13.9189 23.715 12.9735 23.715 11.9993H10.7451V14.8207Z" fill="#C85929"/>
<path d="M10.7451 20.4645H20.1732C21.0205 19.6576 21.746 18.7053 22.3155 17.6431H10.7451L10.7451 20.4645Z" fill="#C85929"/>
<path d="M20.8571 17.6431H10.7451V20.4645H18.7148C19.5622 19.6576 20.2877 18.7052 20.8571 17.6431Z" fill="#B94029"/>
<path d="M22.2567 11.9993H10.7451V14.8207H21.9272C22.1422 13.9189 22.2567 12.9735 22.2567 11.9993Z" fill="#B94029"/>
<path d="M20.8571 6.35693H10.7451V9.17837H21.9272C21.6884 8.17735 21.3253 7.23026 20.8571 6.35693Z" fill="#B94029"/>
<path d="M11.7978 0.714355C11.4424 0.714355 11.0913 0.733662 10.7451 0.77104V3.53579H18.7148C16.8712 1.78015 14.45 0.714355 11.7978 0.714355Z" fill="#B94029"/>
<ellipse cx="10.745" cy="12" rx="10.4589" ry="11.2857" fill="#F6E266"/>
<path d="M3.80273 20.44C4.33148 20.9468 4.90773 21.3969 5.52407 21.7808L8.39304 1.00049C7.69416 1.17375 7.02227 1.423 6.38466 1.73902L3.80273 20.44Z" fill="#FBF4AF"/>
<path d="M10.7452 0.714355C10.5551 0.714355 10.3663 0.720182 10.1787 0.730995C15.6916 1.04854 20.0711 5.97223 20.0711 12C20.0711 18.0279 15.6915 22.9516 10.1787 23.2691C10.3663 23.28 10.5551 23.2858 10.7452 23.2858C16.5215 23.2858 21.2041 18.233 21.2041 12.0001C21.2041 5.76717 16.5215 0.714355 10.7452 0.714355Z" fill="#EAB14D"/>
<ellipse cx="10.7445" cy="11.9993" rx="8.42325" ry="9.08912" fill="#E7A52E"/>
<path d="M10.7454 2.91016C10.5348 2.91016 10.3259 2.91875 10.1191 2.93519C14.4786 3.28098 17.9161 7.20687 17.9161 11.9993C17.9161 16.7917 14.4787 20.7176 10.1191 21.0634C10.326 21.0798 10.5348 21.0884 10.7454 21.0884C15.3975 21.0884 19.1687 17.0191 19.1687 11.9993C19.1687 6.97949 15.3975 2.91016 10.7454 2.91016Z" fill="#E28424"/>
<path d="M4.18164 17.6961C4.66399 18.3423 5.22633 18.9161 5.85291 19.3993L8.06451 3.38037C7.32737 3.64715 6.63585 4.02103 6.00561 4.48473L4.18164 17.6961Z" fill="#EAB14D"/>
<path d="M11.0015 6.99324L12.5916 9.62921C12.6329 9.6976 12.696 9.74712 12.7691 9.76831L15.5837 10.5855C15.798 10.6478 15.8821 10.9272 15.7427 11.1134L13.9107 13.5597C13.8632 13.6232 13.8391 13.7033 13.843 13.7848L13.9924 16.9259C14.0038 17.1649 13.7835 17.3376 13.5763 17.2521L10.8541 16.1281C10.7834 16.0989 10.7053 16.0989 10.6347 16.1281L7.91245 17.2521C7.70526 17.3377 7.48497 17.1649 7.49636 16.9259L7.64581 13.7848C7.6497 13.7033 7.62554 13.6232 7.57804 13.5597L5.74611 11.1134C5.60668 10.9272 5.69079 10.6478 5.90504 10.5855L8.7197 9.76831C8.79268 9.74712 8.85588 9.69755 8.89715 9.62921L10.4872 6.99324C10.6082 6.79262 10.8805 6.79262 11.0015 6.99324Z" fill="#C85929"/>
<path d="M15.5841 10.5848L12.7694 9.76754C12.6964 9.7463 12.6332 9.69678 12.5919 9.62844L12.458 9.40649C12.4446 11.0813 12.2206 13.7779 11.1211 16.2375L13.5766 17.2514C13.7838 17.3369 14.0041 17.1642 13.9927 16.9251L13.8433 13.7841C13.8394 13.7026 13.8635 13.6225 13.911 13.559L15.743 11.1127C15.8824 10.9264 15.7983 10.647 15.5841 10.5848Z" fill="#B94029"/>
</svg>
