<svg width="24" height="25" viewBox="0 0 24 25" fill="none" xmlns="http://www.w3.org/2000/svg">
<path d="M14.5 9.68609C14.0158 9.13259 13.4023 8.75819 12.7364 8.60984C12.0706 8.46149 11.382 8.54579 10.757 8.85217C10.1321 9.15855 9.59855 9.67337 9.22337 10.3321C8.84819 10.9908 8.64805 11.7641 8.64805 12.5549C8.64805 13.3458 8.84819 14.1191 9.22337 14.7778C9.59855 15.4365 10.1321 15.9513 10.757 16.2577C11.382 16.5641 12.0706 16.6484 12.7364 16.5C13.4023 16.3517 14.0158 15.9773 14.5 15.4238M12.0902 11.4074H7.50001M7.50001 13.7025H12.0902M20 12.5C20 16.9183 16.4183 20.5 12 20.5C7.58173 20.5 4 16.9183 4 12.5C4 8.08172 7.58173 4.5 12 4.5C16.4183 4.5 20 8.08172 20 12.5Z" stroke="#015486" stroke-width="1.49333" stroke-linecap="round" stroke-linejoin="round"/>
</svg>
