<svg width="23" height="23" viewBox="0 0 23 23" fill="none" xmlns="http://www.w3.org/2000/svg">
<g filter="url(#filter0_d_65_2012)">
<circle cx="11.6101" cy="10.7664" r="8.86572" fill="#FFE32E" stroke="#D36500" stroke-width="0.21147"/>
<circle cx="11.4405" cy="10.8682" r="7.23833" fill="#FFB200"/>
<path fill-rule="evenodd" clip-rule="evenodd" d="M8.68319 17.4443C6.41925 16.2209 4.88125 13.8261 4.88125 11.0721C4.88125 7.07451 8.12196 3.8338 12.1196 3.8338C13.2009 3.8338 14.2269 4.07093 15.1483 4.49602C14.126 3.94352 12.9556 3.62988 11.712 3.62988C7.71434 3.62988 4.47363 6.87059 4.47363 10.8682C4.47363 13.7845 6.19823 16.2979 8.68319 17.4443Z" fill="#D36500"/>
<g filter="url(#filter1_d_65_2012)">
<path d="M15.2805 9.06079L13.7513 9.36664C13.7853 8.92487 13.4862 8.04133 12.0182 8.04133C10.5501 8.04133 10.1831 9.2647 10.1831 9.87638H12.5279V10.8959H9.97919V11.3037H12.5279V12.3232H10.1831C10.2511 12.7649 10.6724 13.6485 11.8143 13.6485C12.9561 13.6485 13.6493 12.561 13.8532 12.0173L15.3825 12.3232C15.2805 13.2067 14.4649 14.9738 12.0182 14.9738C9.5714 14.9738 8.61988 13.2067 8.44997 12.3232H7.73633V11.3037H8.44997V10.8959H7.73633V9.87638H8.44997C8.85776 7.42962 10.5909 6.51209 12.7318 6.71598C14.4445 6.8791 15.1446 8.34715 15.2805 9.06079Z" fill="#FFE32E"/>
<path d="M15.2805 9.06079L13.7513 9.36664C13.7853 8.92487 13.4862 8.04133 12.0182 8.04133C10.5501 8.04133 10.1831 9.2647 10.1831 9.87638H12.5279V10.8959H9.97919V11.3037H12.5279V12.3232H10.1831C10.2511 12.7649 10.6724 13.6485 11.8143 13.6485C12.9561 13.6485 13.6493 12.561 13.8532 12.0173L15.3825 12.3232C15.2805 13.2067 14.4649 14.9738 12.0182 14.9738C9.5714 14.9738 8.61988 13.2067 8.44997 12.3232H7.73633V11.3037H8.44997V10.8959H7.73633V9.87638H8.44997C8.85776 7.42962 10.5909 6.51209 12.7318 6.71598C14.4445 6.8791 15.1446 8.34715 15.2805 9.06079Z" stroke="#D36500" stroke-width="0.370072"/>
</g>
</g>
<path fill-rule="evenodd" clip-rule="evenodd" d="M22.1509 10.6536C22.1509 16.5374 17.3812 21.3072 11.4973 21.3072C5.61353 21.3072 0.84375 16.5374 0.84375 10.6536C0.84375 4.76978 5.61353 0 11.4973 0C17.3812 0 22.1509 4.76978 22.1509 10.6536ZM11.4973 19.3702C16.3114 19.3702 20.2139 15.4676 20.2139 10.6536C20.2139 5.83956 16.3114 1.93702 11.4973 1.93702C6.68331 1.93702 2.78077 5.83956 2.78077 10.6536C2.78077 15.4676 6.68331 19.3702 11.4973 19.3702Z" fill="#A421D9"/>
<defs>
<filter id="filter0_d_65_2012" x="0.843735" y="1.3457" width="21.084" height="21.084" filterUnits="userSpaceOnUse" color-interpolation-filters="sRGB">
<feFlood flood-opacity="0" result="BackgroundImageFix"/>
<feColorMatrix in="SourceAlpha" type="matrix" values="0 0 0 0 0 0 0 0 0 0 0 0 0 0 0 0 0 0 127 0" result="hardAlpha"/>
<feOffset dy="1.34572"/>
<feGaussianBlur stdDeviation="0.672859"/>
<feComposite in2="hardAlpha" operator="out"/>
<feColorMatrix type="matrix" values="0 0 0 0 0 0 0 0 0 0 0 0 0 0 0 0 0 0 0.25 0"/>
<feBlend mode="normal" in2="BackgroundImageFix" result="effect1_dropShadow_65_2012"/>
<feBlend mode="normal" in="SourceGraphic" in2="effect1_dropShadow_65_2012" result="shape"/>
</filter>
<filter id="filter1_d_65_2012" x="5.43706" y="4.91788" width="12.2636" height="12.8847" filterUnits="userSpaceOnUse" color-interpolation-filters="sRGB">
<feFlood flood-opacity="0" result="BackgroundImageFix"/>
<feColorMatrix in="SourceAlpha" type="matrix" values="0 0 0 0 0 0 0 0 0 0 0 0 0 0 0 0 0 0 127 0" result="hardAlpha"/>
<feOffset dy="0.528675"/>
<feGaussianBlur stdDeviation="1.05735"/>
<feComposite in2="hardAlpha" operator="out"/>
<feColorMatrix type="matrix" values="0 0 0 0 0 0 0 0 0 0 0 0 0 0 0 0 0 0 0.34 0"/>
<feBlend mode="normal" in2="BackgroundImageFix" result="effect1_dropShadow_65_2012"/>
<feBlend mode="normal" in="SourceGraphic" in2="effect1_dropShadow_65_2012" result="shape"/>
</filter>
</defs>
</svg>
