<svg width="133" height="181" viewBox="0 0 133 181" fill="none" xmlns="http://www.w3.org/2000/svg">
<mask id="mask0_1850_6231" style="mask-type:luminance" maskUnits="userSpaceOnUse" x="0" y="12" width="133" height="159">
<path d="M0 12.5649H132.051V170.05H0V12.5649Z" fill="white"/>
</mask>
<g mask="url(#mask0_1850_6231)">
<path d="M109.834 20.5315V12.9868H21.9668V20.5315C21.9668 24.35 19.4711 27.7291 15.8014 28.8782C6.3953 31.8222 0 40.4831 0 50.2732V142.567C0 151.112 4.95177 158.509 12.1606 162.086C14.968 163.477 31.0016 169.813 66.5814 169.813C100.844 169.813 116.517 163.591 119.411 162.198C126.745 158.665 131.801 151.202 131.801 142.567V50.2732C131.801 40.4831 125.406 31.8222 116 28.8782C112.33 27.7291 109.834 24.35 109.834 20.5315Z" fill="#ABD7FF"/>
</g>
<path d="M109.783 12.9868H21.916V19.0705C28.6672 20.2196 45.7906 21.0369 65.8497 21.0369C85.9088 21.0369 103.032 20.2196 109.783 19.0705V12.9868Z" fill="#82C4FF"/>
<path d="M10.4188 71.4815C9.47046 71.4815 8.70117 70.7169 8.70117 69.7766V49.1593C8.70117 44.6619 11.2721 40.7116 16.1377 37.7346C19.6304 35.5991 23.09 34.707 23.2337 34.6697C24.1533 34.4368 25.0884 34.9861 25.325 35.8979C25.5593 36.8096 25.0066 37.739 24.087 37.9719C24.0362 37.9873 20.917 38.8024 17.8752 40.6787C14.0663 43.0295 12.1365 45.8813 12.1365 49.1593V69.7766C12.1365 70.7169 11.3672 71.4815 10.4188 71.4815Z" fill="#CCE7FF"/>
<path d="M10.4188 142.95C9.47046 142.95 8.70117 142.187 8.70117 141.245V130.866C8.70117 129.923 9.47046 129.159 10.4188 129.159C11.3672 129.159 12.1365 129.923 12.1365 130.866V141.245C12.1365 142.187 11.3672 142.95 10.4188 142.95Z" fill="#CCE7FF"/>
<path d="M93.2482 31.6223C93.1421 31.6223 93.0515 31.5388 93.047 31.4311C93.0426 31.3213 93.1266 31.2268 93.2394 31.2224C100.831 30.8511 107.637 30.1656 113.466 29.1857C113.575 29.1682 113.681 29.2407 113.699 29.3483C113.716 29.4582 113.643 29.5614 113.533 29.579C107.688 30.5633 100.868 31.2488 93.2593 31.6201C93.2548 31.6223 93.2504 31.6223 93.2482 31.6223Z" fill="#82C4FF"/>
<path d="M18.8364 3.10449V12.4772C18.8364 14.1667 39.8837 15.5355 65.8495 15.5355C91.8131 15.5355 112.863 14.1667 112.863 12.4772V3.10449H18.8364Z" fill="#ABD7FF"/>
<mask id="mask1_1850_6231" style="mask-type:luminance" maskUnits="userSpaceOnUse" x="18" y="0" width="96" height="7">
<path d="M18.8164 0H113.324V6.37808H18.8164V0Z" fill="white"/>
</mask>
<g mask="url(#mask1_1850_6231)">
<path d="M112.862 3.10421C112.862 3.20308 112.787 3.30414 112.637 3.40301C112.484 3.50188 112.259 3.60075 111.958 3.69962C111.658 3.79848 111.284 3.89515 110.837 3.99182C110.391 4.0863 109.874 4.18077 109.283 4.27305C108.695 4.36533 108.037 4.4554 107.311 4.54548C106.584 4.63337 105.795 4.71905 104.939 4.80254C104.084 4.88603 103.167 4.96512 102.192 5.04202C101.215 5.12112 100.182 5.19362 99.0924 5.26392C98.0026 5.33643 96.8641 5.40234 95.6748 5.46605C94.4833 5.52977 93.2476 5.58909 91.9676 5.64621C90.6877 5.70114 89.3679 5.75167 88.0106 5.80001C86.6533 5.84615 85.2628 5.89009 83.8392 5.92744C82.4178 5.96698 80.9698 5.99994 79.4953 6.0285C78.0231 6.05706 76.5309 6.08123 75.0211 6.10101C73.5112 6.12078 71.9903 6.13616 70.4562 6.14495C68.9242 6.15593 67.3878 6.16033 65.8492 6.16033C64.3084 6.16033 62.7721 6.15593 61.2401 6.14495C59.7082 6.13616 58.1873 6.12078 56.6774 6.10101C55.1676 6.08123 53.6754 6.05706 52.2009 6.0285C50.7287 5.99994 49.2807 5.96698 47.8571 5.92744C46.4357 5.89009 45.0452 5.84615 43.6857 5.80001C42.3283 5.75167 41.0086 5.70114 39.7287 5.64621C38.4487 5.58909 37.213 5.52977 36.0237 5.46605C34.8344 5.40234 33.6937 5.33643 32.6061 5.26392C31.5162 5.19362 30.4839 5.12112 29.5068 5.04202C28.5297 4.96512 27.6145 4.88603 26.759 4.80254C25.9035 4.71905 25.1121 4.63337 24.387 4.54548C23.6597 4.4554 23.0032 4.36533 22.4129 4.27305C21.8249 4.18077 21.3076 4.0863 20.8589 3.99182C20.4123 3.89515 20.0388 3.79848 19.7381 3.69962C19.4375 3.60075 19.212 3.50188 19.0617 3.40301C18.9113 3.30414 18.8362 3.20308 18.8362 3.10421C18.8362 3.00315 18.9113 2.90428 19.0617 2.80321C19.212 2.70435 19.4375 2.60548 19.7381 2.50661C20.0388 2.40994 20.4123 2.31107 20.8589 2.2166C21.3076 2.11993 21.8249 2.02545 22.4129 1.93318C23.0032 1.8409 23.6597 1.75082 24.387 1.66294C25.1121 1.57505 25.9035 1.48937 26.759 1.40588C27.6145 1.32239 28.5297 1.2411 29.5068 1.1642C30.4839 1.08731 31.5162 1.01261 32.6061 0.9423C33.6937 0.871994 34.8344 0.803886 36.0237 0.740171C37.213 0.676456 38.4487 0.617135 39.7287 0.562208C41.0086 0.507282 42.3283 0.454552 43.6857 0.408414C45.0452 0.360078 46.4357 0.318334 47.8571 0.278787C49.2807 0.241437 50.7287 0.206284 52.2009 0.177722C53.6754 0.149161 55.1676 0.124993 56.6774 0.105219C58.1873 0.0854457 59.7082 0.0722631 61.2401 0.0612779C62.7721 0.0524896 64.3084 0.0458984 65.8492 0.0458984C67.3878 0.0458984 68.9242 0.0524896 70.4562 0.0612779C71.9903 0.0722631 73.5112 0.0854457 75.0211 0.105219C76.5309 0.124993 78.0231 0.149161 79.4953 0.177722C80.9698 0.206284 82.4178 0.241437 83.8392 0.278787C85.2628 0.318334 86.6533 0.360078 88.0106 0.408414C89.3679 0.454552 90.6877 0.507282 91.9676 0.562208C93.2476 0.617135 94.4833 0.676456 95.6748 0.740171C96.8641 0.803886 98.0026 0.871994 99.0924 0.9423C100.182 1.01261 101.215 1.08731 102.192 1.1642C103.167 1.2411 104.084 1.32239 104.939 1.40588C105.795 1.48937 106.584 1.57505 107.311 1.66294C108.037 1.75082 108.695 1.8409 109.283 1.93318C109.874 2.02545 110.391 2.11993 110.837 2.2166C111.284 2.31107 111.658 2.40994 111.958 2.50661C112.259 2.60548 112.484 2.70435 112.637 2.80321C112.787 2.90428 112.862 3.00315 112.862 3.10421Z" fill="#7DAAF5"/>
</g>
<path d="M65.8497 15.7355C53.2868 15.7355 41.4755 15.4169 32.5933 14.8391C28.2694 14.5579 24.8739 14.2305 22.4997 13.8658C19.0931 13.3429 18.6333 12.8706 18.6333 12.4773C18.6333 12.3674 18.7239 12.2773 18.8367 12.2773C18.9472 12.2773 19.0378 12.3674 19.0378 12.4773C19.0378 12.4839 19.0776 12.9343 22.5616 13.4703C24.9225 13.8329 28.3069 14.1602 32.6198 14.4393C41.4932 15.0171 53.2957 15.3357 65.8497 15.3357C78.4038 15.3357 90.204 15.0171 99.0796 14.4393C103.393 14.1602 106.775 13.8329 109.138 13.4703C112.622 12.9343 112.662 12.4839 112.662 12.4773C112.662 12.3674 112.752 12.2773 112.863 12.2773C112.973 12.2773 113.064 12.3674 113.064 12.4773C113.064 12.8706 112.604 13.3429 109.2 13.8658C106.826 14.2305 103.43 14.5579 99.1062 14.8391C90.2217 15.4169 78.4104 15.7355 65.8497 15.7355Z" fill="#6299F5"/>
<path d="M98.4896 11.2927C98.3857 11.2927 98.2973 11.2114 98.2885 11.1038C98.2818 10.9939 98.3658 10.8995 98.4786 10.8929C102.968 10.6116 106.499 10.2799 108.97 9.91078C112.62 9.36371 112.662 8.89573 112.662 8.89134C112.662 8.78149 112.752 8.69141 112.863 8.69141C112.974 8.69141 113.064 8.78149 113.064 8.89134C113.064 9.2912 112.584 9.77236 109.03 10.3062C106.547 10.6776 103.006 11.0093 98.5029 11.2905C98.4985 11.2927 98.494 11.2927 98.4896 11.2927Z" fill="#6299F5"/>
<path d="M65.85 12.1497C53.9348 12.1497 42.5678 11.8597 33.8426 11.3324C33.732 11.3258 33.648 11.2291 33.6547 11.1192C33.6613 11.0094 33.7564 10.9259 33.8691 10.9325C42.5833 11.4598 53.9414 11.7498 65.85 11.7498C75.013 11.7498 83.8908 11.5784 91.5262 11.2533C91.639 11.2489 91.7318 11.3346 91.7363 11.4444C91.7407 11.5543 91.6545 11.6487 91.5439 11.6531C83.9041 11.9761 75.0174 12.1497 65.85 12.1497Z" fill="#6299F5"/>
<path d="M27.2547 10.8379C27.2481 10.8379 27.2414 10.8379 27.237 10.8379C24.5401 10.5853 22.4466 10.3106 21.0141 10.0184C18.9163 9.5922 18.6333 9.20991 18.6333 8.89134C18.6333 8.78149 18.7239 8.69141 18.8367 8.69141C18.9472 8.69141 19.0378 8.78149 19.0378 8.89134C19.0378 8.89573 19.0599 9.21211 21.0959 9.62736C22.5129 9.91517 24.5931 10.1898 27.2746 10.4381C27.3851 10.4491 27.4669 10.5457 27.4558 10.6578C27.4448 10.761 27.3586 10.8379 27.2547 10.8379Z" fill="#6299F5"/>
<path d="M51.6819 6.21967C51.6797 6.21967 51.6797 6.21967 51.6775 6.21967C42.2139 6.02413 34.0612 5.64623 28.1013 5.12773C25.1369 4.86847 22.8335 4.58285 21.2529 4.27746C18.945 3.83146 18.6333 3.43379 18.6333 3.10423C18.6333 2.99218 18.7239 2.9043 18.8367 2.9043C18.9472 2.9043 19.0378 2.99218 19.0378 3.10423C19.0378 3.10643 19.0644 3.44697 21.328 3.88419C22.8976 4.18738 25.1878 4.4708 28.1367 4.72786C34.0015 5.23978 42.3664 5.62866 51.6864 5.8198C51.7969 5.822 51.8853 5.91208 51.8831 6.02413C51.8809 6.13178 51.7903 6.21967 51.6819 6.21967Z" fill="#6299F5"/>
<path d="M99.6234 5.43092C99.5173 5.43092 99.4289 5.34963 99.4222 5.24417C99.4156 5.13432 99.4996 5.03765 99.6101 5.03105C103.764 4.75203 107.018 4.42906 109.286 4.07313C112.622 3.54804 112.662 3.10862 112.662 3.10423C112.662 2.99218 112.752 2.9043 112.863 2.9043C112.973 2.9043 113.064 2.99218 113.064 3.10423C113.064 3.48872 112.622 3.9523 109.348 4.46861C107.069 4.82673 103.801 5.1497 99.6367 5.42872C99.6323 5.43092 99.6278 5.43092 99.6234 5.43092Z" fill="#6299F5"/>
</svg>
