<svg width="22" height="17" viewBox="0 0 22 17" fill="none" xmlns="http://www.w3.org/2000/svg">
<path fill-rule="evenodd" clip-rule="evenodd" d="M5.30196 12.0754C3.77881 10.7667 2.69089 9.27094 2.18051 8.49834C2.69089 7.72574 3.77881 6.22992 5.30196 4.92128C6.87451 3.57019 8.81623 2.49834 11.0005 2.49834C13.1848 2.49834 15.1266 3.57019 16.6991 4.92128C18.2223 6.22992 19.3102 7.72574 19.8206 8.49834C19.3102 9.27094 18.2223 10.7667 16.6991 12.0754C15.1266 13.4265 13.1848 14.4983 11.0005 14.4983C8.81623 14.4983 6.87451 13.4265 5.30196 12.0754ZM11.0005 0.498337C8.14803 0.498337 5.75766 1.89296 3.99861 3.40429C2.23317 4.9211 1.00806 6.63594 0.464357 7.46814C0.0535475 8.09684 0.0535475 8.89984 0.464357 9.52854C1.00806 10.3607 2.23317 12.0755 3.99861 13.5924C5.75766 15.1037 8.14803 16.4983 11.0005 16.4983C13.853 16.4983 16.2434 15.1037 18.0025 13.5924C19.7679 12.0755 20.993 10.3607 21.5367 9.52854C21.9475 8.89984 21.9475 8.09684 21.5367 7.46814C20.993 6.63594 19.7679 4.9211 18.0025 3.40429C16.2434 1.89296 13.853 0.498337 11.0005 0.498337ZM9.00049 8.49834C9.00049 7.39374 9.89599 6.49834 11.0005 6.49834C12.1051 6.49834 13.0005 7.39374 13.0005 8.49834C13.0005 9.60294 12.1051 10.4983 11.0005 10.4983C9.89599 10.4983 9.00049 9.60294 9.00049 8.49834ZM11.0005 4.49834C8.79139 4.49834 7.00053 6.2892 7.00053 8.49834C7.00053 10.7074 8.79139 12.4983 11.0005 12.4983C13.2097 12.4983 15.0005 10.7074 15.0005 8.49834C15.0005 6.2892 13.2097 4.49834 11.0005 4.49834Z" fill="#015486"/>
</svg>
