<svg width="29" height="29" viewBox="0 0 29 29" fill="none" xmlns="http://www.w3.org/2000/svg">
<path d="M21.1372 2.67755C21.1372 2.67755 19.9908 2.37958 19.4757 6.52943C18.9606 10.6793 21.654 4.60755 21.5794 4.11455C21.5049 3.62156 21.1372 2.67755 21.1372 2.67755Z" fill="#4CAF50"/>
<path d="M6.53997 26.5489C6.5313 26.767 6.50182 26.943 6.44285 27.1137C6.14801 27.9507 3.44068 28.7796 2.21103 28.166C2.048 28.0848 1.93353 27.9399 1.85548 27.7381C1.35079 26.4148 2.44516 22.5629 2.21103 16.7824C1.9422 10.1161 0.585938 3.41597 0.585938 3.41597C0.585938 3.41597 7.20943 0.00155914 9.0149 1.36407C9.0149 1.36407 6.58854 14.6926 6.44112 19.9937C6.32144 24.2153 6.57813 25.6983 6.53824 26.5489H6.53997Z" fill="url(#paint0_linear_65_1991)"/>
<path d="M0.587583 3.41586C1.20154 6.7788 8.66447 3.68132 9.01654 1.36397C9.36862 -0.95339 0.244181 1.53191 0.587583 3.41586Z" fill="#E2791C"/>
<g style="mix-blend-mode:multiply" opacity="0.5">
<path d="M1.93652 27.9049C2.50539 28.9274 4.57101 27.4715 5.19884 22.5144C5.57346 19.547 6.13539 16.8355 6.52389 15.1371C6.78578 13.998 6.96962 13.3154 6.96962 13.3154C6.96962 13.3154 5.45726 20.3095 5.38269 22.597C5.30811 24.8846 5.51276 26.3257 4.80168 27.5108C4.09059 28.6958 2.51059 28.6241 1.93652 27.9062V27.9049Z" fill="#960052"/>
</g>
<g style="mix-blend-mode:multiply" opacity="0.5">
<path d="M4.88184 28.123C4.88184 28.123 6.08548 26.9068 6.25024 24.8346C6.41501 22.7624 6.42541 20.7227 6.42541 20.7227C6.42541 20.7227 6.55202 24.2346 6.51907 25.6025C6.48611 26.9704 4.88184 28.123 4.88184 28.123Z" fill="#960052"/>
</g>
<g style="mix-blend-mode:multiply" opacity="0.5">
<path d="M1.90535 24.1787C2.24529 26.84 4.39936 22.1823 5.14166 13.1621C5.88396 4.14186 6.55342 4.773 6.66269 3.48092C6.77369 2.18748 3.81314 1.19336 3.81314 1.19336C3.81314 1.19336 6.72166 1.64708 7.5368 2.66287C8.35195 3.67866 5.83367 7.68087 5.47466 12.8519C5.11564 18.023 3.26162 25.464 2.43086 26.106C1.60011 26.7479 1.90535 24.1773 1.90535 24.1773V24.1787Z" fill="#960052"/>
</g>
<g style="mix-blend-mode:multiply" opacity="0.3">
<path d="M2.18304 20.7163C2.12754 21.6291 4.86782 15.5358 4.77416 10.2658C4.68051 4.99592 5.08635 5.56341 5.08635 4.23746C5.08635 2.91152 3.21151 1.69799 1.41992 2.21943C1.41992 2.21943 3.18896 1.8402 4.25732 2.79639C5.32742 3.75259 4.2209 4.91195 4.1099 7.28212C3.99891 9.6523 3.15081 16.4635 2.80047 17.757C2.45013 19.049 2.23854 19.0423 2.23854 19.0423L2.18304 20.7163Z" fill="#960052"/>
</g>
<path d="M4.25789 2.79688C4.25789 2.79688 5.02621 3.40229 5.08518 4.1621C5.14415 4.92191 4.45214 5.87811 4.25789 6.43747C4.06364 6.99683 4.63598 4.82846 4.6724 4.05104C4.71056 3.27362 4.25789 2.79688 4.25789 2.79688Z" fill="#9E001F"/>
<path d="M3.81543 1.19336C3.81543 1.19336 5.61222 1.79064 6.15334 2.46513C6.69446 3.13961 6.48807 2.01683 5.91747 1.72157C5.34686 1.42496 3.81543 1.19336 3.81543 1.19336Z" fill="#9E001F"/>
<path d="M1.94239 25.9456C2.15398 26.3926 2.87894 25.3456 3.56748 23.333C3.56748 23.333 3.04024 25.8914 2.48698 26.5118C1.93372 27.1334 1.94239 25.9443 1.94239 25.9443V25.9456Z" fill="#DD4D12"/>
<path d="M3.88477 28.294C3.88477 28.294 4.74327 28.2033 5.24103 27.0223C5.73879 25.8412 5.38845 24.2349 5.43528 22.8575C5.48037 21.4815 5.66942 20.1406 5.66942 20.1406C5.66942 20.1406 5.40753 21.5519 5.35203 22.6706C5.29653 23.7893 5.48557 25.6598 5.14911 26.6918C4.81265 27.7238 3.88477 28.2927 3.88477 28.2927V28.294Z" fill="#DD4D12"/>
<path d="M5.12598 27.9272C5.12598 27.9272 5.94633 27.4085 6.16659 26.9046C6.38859 26.4008 6.46316 26.0107 6.46316 26.0107C6.46316 26.0107 5.9602 27.185 5.12598 27.9272Z" fill="#DD4D12"/>
<g style="mix-blend-mode:multiply" opacity="0.5">
<path d="M2.12576 21.668C2.5871 20.1931 3.63811 21.7913 3.56701 22.2328C3.49763 22.6744 4.38389 19.9399 4.49489 18.3674C4.60588 16.7963 2.15177 19.6446 2.12402 21.668H2.12576Z" fill="#B53355"/>
</g>
<g style="mix-blend-mode:multiply" opacity="0.5">
<path d="M3.88455 22.2817C3.87067 23.3774 4.43781 24.3403 4.68235 24.2184C4.92863 24.0979 5.52525 20.2474 5.70215 18.6627C5.88079 17.0781 5.10727 17.1946 4.99453 17.3436C4.8818 17.4925 3.88281 22.2803 3.88281 22.2803L3.88455 22.2817Z" fill="#B53355"/>
</g>
<g style="mix-blend-mode:multiply" opacity="0.5">
<path d="M5.47701 24.3479C5.50822 25.0684 5.9713 25.4504 6.06495 25.4734C6.15861 25.4964 6.5471 22.3339 6.4257 20.6423C6.30429 18.952 6.43264 17.232 6.35979 17.2631C6.28695 17.2943 5.05036 21.6838 5.47701 24.3479Z" fill="#B53355"/>
</g>
<g style="mix-blend-mode:multiply" opacity="0.5">
<path d="M6.53996 26.5481C6.53129 26.7661 6.5018 26.9422 6.44283 27.1128C6.14799 27.9499 3.44067 28.7787 2.21101 28.1652C2.04798 28.0839 1.93351 27.939 1.85547 27.7372C1.89362 27.0763 2.34109 27.8713 3.09033 27.9255C3.85344 27.9837 4.6235 27.4826 4.67032 27.5666C4.72062 27.6532 4.20899 28.0094 4.33733 28.1232C4.46567 28.2356 5.96415 27.4799 6.06648 27.1914C6.16881 26.9056 6.52435 26.5088 6.52435 26.5088L6.53822 26.5481H6.53996Z" fill="#7D2B71"/>
</g>
<g style="mix-blend-mode:multiply" opacity="0.5">
<path d="M2.2334 16.8547C2.2334 16.8547 3.78738 17.9395 5.08815 18.1982C6.38891 18.4555 6.69589 16.6705 6.69589 16.6705L6.767 15.8809C6.767 15.8809 4.51061 17.4641 2.24034 16.5188L2.23513 16.856L2.2334 16.8547Z" fill="#7D2B71"/>
</g>
<g style="mix-blend-mode:soft-light" opacity="0.5">
<path d="M1.26407 4.50569C0.578997 3.87997 3.38692 3.19329 4.05117 3.33009C4.71543 3.46688 4.62178 4.55174 4.21941 4.71156C3.81704 4.87138 1.97862 5.15851 1.2658 4.50569H1.26407Z" fill="white"/>
</g>
<g style="mix-blend-mode:soft-light" opacity="0.5">
<path d="M5.14007 4.32478C4.91113 4.23133 5.60141 3.16678 6.04193 3.00696C6.48072 2.84715 6.67844 3.33066 6.56744 3.71531C6.45644 4.10131 5.41583 4.43584 5.14007 4.32478Z" fill="white"/>
</g>
<g style="mix-blend-mode:soft-light" opacity="0.5">
<path d="M7.8426 2.97614C7.65182 2.88404 8.26579 1.58654 8.61092 1.2669C8.95606 0.947266 8.93178 1.83168 8.93178 1.83168C8.93178 1.83168 8.1253 2.7784 7.8426 2.97614Z" fill="white"/>
</g>
<g style="mix-blend-mode:multiply">
<path d="M0.862844 4.91464C0.862844 4.91464 1.80807 6.34487 3.81298 6.52907C5.81963 6.71326 8.08296 4.35527 8.4333 3.50472C8.78364 2.65416 8.86689 2.18555 8.86689 2.18555L8.3778 4.86723C8.3778 4.86723 5.87339 6.88527 3.34124 6.88527C0.809079 6.88527 0.98078 5.61756 0.98078 5.61756L0.859375 4.91464H0.862844Z" fill="#B53355"/>
</g>
<path d="M23.5439 14.6201C22.7548 14.3858 22.1651 14.0405 21.7176 13.7032C21.7176 13.7032 21.7141 13.6991 21.7055 13.6924C20.6423 12.8825 20.4064 12.0983 20.2504 12.8648C20.0544 13.8278 20.1446 15.8729 16.8441 16.2698C16.7921 16.2765 16.7383 16.2806 16.6863 16.286C16.2804 16.3267 15.8278 16.3429 15.3196 16.3321C10.4617 16.2183 7.40746 15.3285 7.40746 15.3285C6.96694 16.0924 6.26799 16.5258 5.49967 16.7425C3.68901 17.2517 1.50719 16.542 1.50719 16.0924C1.50719 14.0621 0.990353 10.8901 0.563702 8.60936C0.291408 7.13173 0.0555359 6.0279 0.0208488 5.85047C0.00870829 5.78817 3.65252e-05 5.72858 3.65252e-05 5.6744C-0.00343218 5.33174 0.239377 5.11504 1.0632 4.92001C3.25368 9.43418 8.54693 4.11551 8.54693 4.11551L8.64926 3.45456C8.79321 3.31371 8.93543 3.19859 9.23374 3.00084C9.25108 2.9873 9.27536 2.97376 9.29791 2.9575C10.1183 2.42388 11.4121 1.90108 12.7614 2.43336C15.0334 3.32454 16.9325 7.51772 18.9964 6.76469C21.0638 6.01165 21.0256 3.19994 21.9119 3.50739C22.7999 3.81754 24.0139 5.90059 25.3442 10.3457C26.5357 14.3276 28.1833 12.9529 28.7938 12.8459C28.8632 12.8296 28.9187 12.835 28.9603 12.8662C29.3453 13.1723 26.886 15.6197 23.5456 14.6228L23.5439 14.6201Z" fill="#4CAF50"/>
<g style="mix-blend-mode:soft-light" opacity="0.5">
<path d="M5.38867 7.3915C2.3154 7.63122 0.31222 6.47458 3.65252e-05 5.67413C-0.00343218 5.33147 0.239377 5.11477 1.0632 4.91974C3.25368 9.43391 8.38217 4.2886 8.38217 4.2886C8.38217 4.2886 8.44114 4.22223 8.5452 4.11523C8.86605 4.3685 9.07071 7.10708 5.38867 7.39285V7.3915Z" fill="white"/>
</g>
<g style="mix-blend-mode:multiply" opacity="0.3">
<path d="M7.40918 15.3261C7.40918 15.3261 7.77686 8.95644 8.37001 6.90454C8.96143 4.85265 8.54692 4.11315 8.54692 4.11315C8.54692 4.11315 10.42 2.65312 12.3937 3.31271C14.3674 3.97229 15.3074 6.23277 15.604 9.23409C15.8988 12.2354 14.4611 15.3464 13.058 15.8801C11.6566 16.4137 7.41091 15.3261 7.41091 15.3261H7.40918Z" fill="#A50425"/>
</g>
<g style="mix-blend-mode:multiply" opacity="0.5">
<path d="M20.2647 11.9861C20.1346 10.9987 20.9047 8.94139 21.1527 7.73599C21.5568 5.764 21.5013 4.53151 21.8395 4.3744C22.5887 4.02632 24.2919 7.12922 24.1809 10.5829C24.0699 14.0366 22.4847 14.0339 22.1048 13.9079C21.1371 13.5842 20.2647 11.9874 20.2647 11.9874V11.9861Z" fill="#4CAF50"/>
</g>
<g style="mix-blend-mode:multiply" opacity="0.5">
<path d="M24.7062 14.71C24.1529 14.5949 26.7822 14.2576 28.22 13.231C29.6595 12.2057 28.3865 15.115 24.7062 14.71Z" fill="#823D65"/>
</g>
<path d="M28.7918 12.843C28.3772 13.21 27.909 13.5391 27.4476 13.6759C26.1503 14.0619 25.2311 13.5892 24.6293 11.0321C24.0275 8.4737 22.7215 3.82274 21.837 4.37397C20.9525 4.92385 21.811 8.14188 20.1599 8.05655C18.5122 7.97258 15.6003 5.6945 13.6057 4.02454C11.6685 2.40334 8.61428 3.4408 9.22997 2.99792C9.24732 2.98437 9.2716 2.97083 9.29414 2.95457C10.1145 2.42095 11.4083 1.89815 12.7576 2.43043C15.0297 3.32161 17.5774 7.17078 19.6413 6.41774C21.7086 5.6647 20.2483 2.36948 21.1328 2.67828C22.0208 2.98843 23.7344 4.09632 25.3387 10.3428C26.3689 14.3517 28.1778 12.95 28.7883 12.843H28.7918Z" fill="#4CAF50"/>
<g style="mix-blend-mode:multiply" opacity="0.2">
<path d="M8.15008 6.41737C6.64119 7.16499 6.02029 7.46702 5.38899 10.8381C4.75768 14.2092 4.28594 16.3911 4.72993 16.7364C5.17219 17.0818 5.83298 15.7518 5.99254 15.1003C6.97072 11.09 8.15008 6.41602 8.15008 6.41602V6.41737Z" fill="#823D65"/>
</g>
<g style="mix-blend-mode:soft-light">
<path d="M1.16026 6.69729C0.0554772 6.02009 1.26085 12.7284 2.23383 14.1166C3.2068 15.5049 4.92207 11.6801 5.47533 9.69319C6.02859 7.70495 6.06154 7.7185 5.91933 7.5343C5.77711 7.3501 3.65253 7.7212 1.16026 6.69729Z" fill="white"/>
</g>
<g style="mix-blend-mode:soft-light">
<path d="M1.85196 6.99195C0.575475 6.43665 1.60395 6.61137 3.35564 6.72107C5.10734 6.83078 6.57981 5.68632 7.06022 5.84885C7.54237 6.01002 7.46086 7.11655 5.7768 7.34815C4.09275 7.58111 2.28728 7.18021 1.85196 6.99195Z" fill="white"/>
</g>
<g style="mix-blend-mode:soft-light" opacity="0.5">
<path d="M13.445 2.7968C12.4547 2.74669 15.0059 4.79452 15.998 5.91866C16.9918 7.04145 19.6193 7.22836 19.5048 6.90466C19.3904 6.58096 17.5415 6.6717 16.0916 5.35388C14.6417 4.03607 14.0243 2.8266 13.4433 2.7968H13.445Z" fill="white"/>
</g>
<g style="mix-blend-mode:soft-light" opacity="0.5">
<path d="M23.4022 5.25922C22.9634 5.13326 23.6936 7.77296 24.5243 10.0565C25.3551 12.34 25.7852 12.1774 25.7852 12.1774C25.7852 12.1774 24.84 9.42125 24.5243 8.0005C24.2087 6.5811 23.4022 5.25787 23.4022 5.25787V5.25922Z" fill="white"/>
</g>
<g style="mix-blend-mode:multiply" opacity="0.3">
<path d="M8.54713 4.11319C10.3647 2.7561 13.2108 2.90373 14.0867 4.53576C14.9608 6.1678 10.9301 7.28517 9.15242 9.22736C7.37645 11.1696 8.87493 14.7682 9.40911 15.3045C9.94329 15.8408 7.41113 15.3262 7.41113 15.3262C7.41113 15.3262 7.81524 9.23819 8.37196 6.90459C8.92696 4.57098 8.54887 4.11319 8.54887 4.11319H8.54713Z" fill="#4CAF50"/>
</g>
<g style="mix-blend-mode:soft-light">
<path d="M7.40874 15.327C7.12257 16.0407 5.83048 16.6529 5.66745 16.4416C5.50442 16.2303 6.70113 12.2864 7.31509 10.057C7.92905 7.82772 8.22042 5.92616 8.41467 5.96544C8.60892 6.00472 8.09728 7.95639 7.69838 10.9103C7.29948 13.8629 7.59085 14.8732 7.40874 15.327Z" fill="white"/>
</g>
<g style="mix-blend-mode:multiply" opacity="0.5">
<path d="M5.50335 16.7398C3.69269 17.249 1.51087 16.5393 1.51087 16.0897C1.51087 14.0595 0.994034 10.8875 0.567383 8.6067L0.588195 8.40625C0.588195 8.40625 1.74501 12.2012 1.85254 13.6911C1.96354 15.1809 1.42415 15.6576 1.85254 16.175C2.36244 16.7926 4.56854 16.9091 5.50335 16.7398Z" fill="#823D65"/>
</g>
<g style="mix-blend-mode:multiply">
<path d="M0.863375 4.91567C0.585879 2.67822 2.13986 6.73326 3.81351 6.72513C3.81351 6.72513 1.69413 6.95808 0.863375 4.91567Z" fill="#B53355"/>
</g>
<g style="mix-blend-mode:multiply" opacity="0.5">
<path d="M20.6923 10.4271C20.4113 12.4384 21.5751 13.5706 21.7051 13.6912C20.642 12.8813 20.4061 12.0971 20.25 12.8637C20.054 13.8266 20.1442 15.8718 16.8438 16.2686C18.2711 16.0749 19.5979 14.7056 19.9725 13.4515C20.361 12.154 20.6524 9.42487 21.2455 7.39193C21.8352 5.36035 21.1172 4.41228 22.0676 4.34186C22.2029 4.33102 22.2428 5.8222 21.9393 6.41678C21.6323 7.01271 20.9906 8.29667 20.6923 10.4271Z" fill="#823D65"/>
</g>
<path d="M17.7546 7.10415C16.0566 6.37413 15.9508 12.1831 16.8458 13.7935C17.7407 15.4038 19.7838 13.1853 20.2139 10.7854C20.6405 8.40707 21.6655 7.67976 20.4948 7.73936C19.3241 7.7976 17.7546 7.10415 17.7546 7.10415Z" fill="#4CAF50"/>
<g style="mix-blend-mode:multiply" opacity="0.3">
<path d="M14.7369 6.12761C13.894 6.52309 12.6609 13.8043 12.1684 15.3022C11.6741 16.8002 15.2937 14.7672 15.6423 11.0955C15.9909 7.42241 15.0023 6.00301 14.7369 6.12761Z" fill="#4CAF50"/>
</g>
<g style="mix-blend-mode:multiply" opacity="0.5">
<path d="M16.8478 16.2678C16.7957 16.2746 16.742 16.2787 16.6899 16.2841C16.2841 16.3247 15.8314 16.341 15.3233 16.3301C10.4653 16.2164 7.41113 15.3265 7.41113 15.3265C7.41113 15.3265 7.60712 13.2164 7.65394 12.0652C7.70077 10.9112 8.46562 13.9491 9.35014 14.9798C10.5122 16.3342 16.8478 16.2678 16.8478 16.2678Z" fill="#823D65"/>
</g>
<g style="mix-blend-mode:multiply" opacity="0.5">
<path d="M8.6476 3.45153C9.97091 2.42626 10.1652 3.26463 10.8086 3.31203C11.4521 3.36079 9.19219 4.98064 8.8696 5.6944C8.54701 6.40816 8.03711 8.6131 8.03711 8.6131C8.03711 8.6131 8.51406 6.07363 8.62679 5.32194C8.67882 4.97522 8.70657 4.34678 8.54528 4.11247C8.53834 3.69532 8.6476 3.45153 8.6476 3.45153Z" fill="#823D65"/>
</g>
<defs>
<linearGradient id="paint0_linear_65_1991" x1="4.80215" y1="28.3773" x2="4.80215" y2="1.04308" gradientUnits="userSpaceOnUse">
<stop stop-color="#B42E0B"/>
<stop offset="1" stop-color="#CE5C1F"/>
</linearGradient>
</defs>
</svg>
