<svg width="25" height="24" viewBox="0 0 25 24" fill="none" xmlns="http://www.w3.org/2000/svg">
<rect x="4" y="10" width="18" height="4" fill="white"/>
<path fill-rule="evenodd" clip-rule="evenodd" d="M20.3669 4.0452C24.7605 8.43879 24.7605 15.5619 20.3669 19.9555C16.728 23.5944 11.2159 24.2193 6.93389 21.83L4.84936 22.3888L2.93967 22.9007C2.80654 22.9363 2.67483 22.9011 2.57733 22.8036C2.47983 22.7061 2.44467 22.5744 2.4803 22.4413L2.99217 20.5316L3.45389 18.8075C0.0943575 14.3975 0.428108 8.0741 4.45701 4.0452C8.85014 -0.348399 15.9737 -0.348399 20.3669 4.0452ZM19.0159 10.6499C18.2415 10.6499 17.6139 11.2775 17.6139 12.0519C17.6139 12.8263 18.2415 13.4539 19.0159 13.4539C19.7903 13.4539 20.418 12.8263 20.418 12.0519C20.418 11.2775 19.7903 10.6499 19.0159 10.6499ZM12.4122 10.6499C11.6378 10.6499 11.0101 11.2775 11.0101 12.0519C11.0101 12.8263 11.6378 13.4539 12.4122 13.4539C13.1865 13.4539 13.8142 12.8263 13.8142 12.0519C13.8142 11.2775 13.1865 10.6499 12.4122 10.6499ZM5.80842 10.6499C5.03405 10.6499 4.40639 11.2775 4.40639 12.0519C4.40639 12.8263 5.03405 13.4539 5.80842 13.4539C6.5828 13.4539 7.21045 12.8263 7.21045 12.0519C7.21045 11.2775 6.5828 10.6499 5.80842 10.6499Z" fill="url(#paint0_linear_1137_6713)"/>
<defs>
<linearGradient id="paint0_linear_1137_6713" x1="3.27515" y1="5.22701" x2="19.1853" y2="21.1372" gradientUnits="userSpaceOnUse">
<stop stop-color="#F6CB17"/>
<stop offset="1" stop-color="#FFB200"/>
</linearGradient>
</defs>
</svg>
