<svg width="152" height="152" viewBox="0 0 152 152" fill="none" xmlns="http://www.w3.org/2000/svg">
<g opacity="0.25">
<circle cx="76" cy="76" r="76" fill="#C294DF" fill-opacity="0.2"/>
<circle cx="73.7171" cy="76.0022" r="61.1428" fill="#C294DF" fill-opacity="0.3"/>
<circle cx="75.9986" cy="76.0006" r="46.2857" fill="#C294DF" fill-opacity="0.5"/>
</g>
<path d="M116 76C116 98.0914 98.0914 116 76 116C53.9086 116 36 98.0914 36 76C36 53.9086 53.9086 36 76 36C98.0914 36 116 53.9086 116 76Z" fill="#A421D9"/>
<path d="M95.542 57.1951C95.0266 56.8293 94.4451 56.57 93.8308 56.4322C93.2166 56.2943 92.5816 56.2806 91.9621 56.3917C91.3426 56.5029 90.7507 56.7367 90.2203 57.0799C89.6899 57.4231 89.2314 57.869 88.8709 58.392L70.6592 84.7746L58.7182 76.5007C57.7605 75.8362 56.5818 75.5848 55.4413 75.8018C54.3009 76.0189 53.2922 76.6866 52.6371 77.6581C51.9819 78.6295 51.7341 79.8252 51.9481 80.982C52.1621 82.1388 52.8203 83.162 53.778 83.8266L69.7843 94.9165C70.2772 95.2579 70.8344 95.4924 71.4208 95.6053C72.0072 95.7182 72.6102 95.7072 73.1922 95.5729C73.813 95.4629 74.4063 95.2296 74.938 94.8865C75.4697 94.5434 75.9295 94.0972 76.2909 93.5735L96.7227 63.9658C97.4509 62.9085 97.7355 61.6013 97.5139 60.3313C97.2924 59.0613 96.5829 57.9325 95.5413 57.1929" fill="white"/>
<path d="M22.8413 39.4041C23.3611 45.3249 27.0323 46.1093 29.0982 46.7432C25.6602 48.2195 23.9637 52.8683 24.318 55.5439C23.8574 52.0656 20.3335 47.9039 18.0611 48.2048C20.9178 47.8265 22.8514 42.806 22.8413 39.4041Z" fill="#A421D9"/>
<path d="M13.0962 73.5951C14.6186 76.6899 16.8359 76.3042 18.1237 76.1916C16.5071 77.7511 16.5247 80.6458 17.2795 82.018C16.2983 80.2342 13.4608 78.7565 12.252 79.4215C13.7717 78.5855 13.8094 75.437 13.0962 73.5951Z" fill="#A421D9"/>
<path d="M31.4608 100.567C30.2048 105.029 32.7693 106.635 34.1587 107.679C31.141 107.787 28.5593 110.699 28.0823 112.749C28.7025 110.083 27.1909 106.057 25.3844 105.637C27.6554 106.165 30.5204 103.05 31.4608 100.567Z" fill="#A421D9"/>
</svg>
