<svg width="20" height="20" viewBox="0 0 20 20" fill="none" xmlns="http://www.w3.org/2000/svg">
<g clip-path="url(#clip0_3026_18608)">
<mask id="mask0_3026_18608" style="mask-type:luminance" maskUnits="userSpaceOnUse" x="0" y="0" width="20" height="20">
<path d="M20 0H0V20H20V0Z" fill="white"/>
</mask>
<g mask="url(#mask0_3026_18608)">
<path fill-rule="evenodd" clip-rule="evenodd" d="M17.2 11.5279C18.1941 11.5279 19 10.722 19 9.72794C19 8.73379 18.1941 7.9279 17.2 7.92793L12.4 7.32792L11.8 2.52791C11.8 1.53381 10.9941 0.727916 10 0.727916C9.0059 0.727916 8.2 1.5338 8.20001 2.52791L7.60001 7.32792L2.8 7.92792C1.80592 7.92788 1.00003 8.73377 0.999993 9.72793C1.00002 10.722 1.80591 11.5279 2.79999 11.5279L7.60003 12.1279L8.20001 16.9279C8.20001 17.922 9.0059 18.7279 10 18.728C10.9941 18.7279 11.8 17.922 11.8 16.9279L12.4 12.1279L17.2 11.5279Z" fill="url(#paint0_linear_3026_18608)"/>
</g>
</g>
<defs>
<linearGradient id="paint0_linear_3026_18608" x1="5.12722" y1="1.25921" x2="5.12722" y2="19.4287" gradientUnits="userSpaceOnUse">
<stop stop-color="#FEFDF7"/>
<stop offset="1" stop-color="#FEE989"/>
</linearGradient>
<clipPath id="clip0_3026_18608">
<rect width="20" height="20" fill="white"/>
</clipPath>
</defs>
</svg>
