<svg width="24" height="24" viewBox="0 0 24 24" fill="none" xmlns="http://www.w3.org/2000/svg">
<path fill-rule="evenodd" clip-rule="evenodd" d="M2.51517 10.674C2.34101 10.8481 2.20285 11.0548 2.10859 11.2824C2.01433 11.5099 1.96582 11.7537 1.96582 12C1.96582 12.2463 2.01433 12.4901 2.10859 12.7176C2.20285 12.9452 2.34101 13.1519 2.51517 13.326L8.89017 19.7C9.24217 20.051 9.71917 20.249 10.2162 20.249H19.5002C20.2958 20.249 21.0589 19.9329 21.6215 19.3703C22.1841 18.8077 22.5002 18.0447 22.5002 17.249V6.75C22.5002 5.95435 22.1841 5.19129 21.6215 4.62868C21.0589 4.06607 20.2958 3.75 19.5002 3.75H10.2162C9.71917 3.75 9.24217 3.948 8.89017 4.3L2.51517 10.674ZM12.5302 9.22C12.4615 9.14631 12.3787 9.08721 12.2867 9.04622C12.1947 9.00523 12.0954 8.98318 11.9947 8.98141C11.894 8.97963 11.794 8.99816 11.7006 9.03588C11.6072 9.0736 11.5224 9.12974 11.4511 9.20096C11.3799 9.27218 11.3238 9.35701 11.286 9.4504C11.2483 9.54379 11.2298 9.64382 11.2316 9.74452C11.2334 9.84522 11.2554 9.94454 11.2964 10.0365C11.3374 10.1285 11.3965 10.2113 11.4702 10.28L13.1902 12L11.4702 13.72C11.3965 13.7887 11.3374 13.8715 11.2964 13.9635C11.2554 14.0555 11.2334 14.1548 11.2316 14.2555C11.2298 14.3562 11.2483 14.4562 11.286 14.5496C11.3238 14.643 11.3799 14.7278 11.4511 14.799C11.5224 14.8703 11.6072 14.9264 11.7006 14.9641C11.794 15.0018 11.894 15.0204 11.9947 15.0186C12.0954 15.0168 12.1947 14.9948 12.2867 14.9538C12.3787 14.9128 12.4615 14.8537 12.5302 14.78L14.2502 13.06L15.9702 14.78C16.0388 14.8537 16.1216 14.9128 16.2136 14.9538C16.3056 14.9948 16.4049 15.0168 16.5056 15.0186C16.6064 15.0204 16.7064 15.0018 16.7998 14.9641C16.8932 14.9264 16.978 14.8703 17.0492 14.799C17.1204 14.7278 17.1766 14.643 17.2143 14.5496C17.252 14.4562 17.2705 14.3562 17.2688 14.2555C17.267 14.1548 17.2449 14.0555 17.204 13.9635C17.163 13.8715 17.1039 13.7887 17.0302 13.72L15.3102 12L17.0302 10.28C17.1039 10.2113 17.163 10.1285 17.204 10.0365C17.2449 9.94454 17.267 9.84522 17.2688 9.74452C17.2705 9.64382 17.252 9.54379 17.2143 9.4504C17.1766 9.35701 17.1204 9.27218 17.0492 9.20096C16.978 9.12974 16.8932 9.0736 16.7998 9.03588C16.7064 8.99816 16.6064 8.97963 16.5056 8.98141C16.4049 8.98318 16.3056 9.00523 16.2136 9.04622C16.1216 9.08721 16.0388 9.14631 15.9702 9.22L14.2502 10.94L12.5302 9.22Z" fill="white"/>
</svg>
