<svg width="60" height="60" viewBox="0 0 60 60" fill="none" xmlns="http://www.w3.org/2000/svg">
<g clip-path="url(#clip0_3014_14377)">
<path d="M43.7682 51.3964C51.1563 44.0083 51.1563 32.0299 43.7682 24.6418C36.3801 17.2537 24.4016 17.2537 17.0135 24.6418C9.62541 32.0299 9.62541 44.0083 17.0135 51.3964C24.4016 58.7845 36.3801 58.7845 43.7682 51.3964Z" fill="url(#paint0_radial_3014_14377)"/>
<path style="mix-blend-mode:multiply" d="M43.7682 51.3964C51.1563 44.0083 51.1563 32.0299 43.7682 24.6418C36.3801 17.2537 24.4016 17.2537 17.0135 24.6418C9.62541 32.0299 9.62541 44.0083 17.0135 51.3964C24.4016 58.7845 36.3801 58.7845 43.7682 51.3964Z" fill="url(#paint1_radial_3014_14377)"/>
<path style="mix-blend-mode:multiply" d="M33.444 33.2758C28.0296 32.0445 17.5269 32.1934 11.5217 36.6095C11.3638 38.7144 11.5573 40.8803 12.1494 43.0323C14.919 53.1072 25.3301 59.0296 35.4049 56.2601C44.3083 53.8127 49.9672 45.3957 49.2515 36.5178C48.6276 36.7457 42.0838 35.2419 33.444 33.2758Z" fill="url(#paint2_radial_3014_14377)"/>
<path style="mix-blend-mode:screen" d="M29.6175 35.8378C38.6953 38.233 48.6072 34.1774 48.5092 32.578C45.5664 22.7642 35.3082 17.048 25.3772 19.7769C21.5991 20.8146 18.4068 22.9297 16.0358 25.6967C14.8923 27.6246 18.7684 32.9753 29.6175 35.8366V35.8378Z" fill="url(#paint3_radial_3014_14377)"/>
<path style="mix-blend-mode:screen" opacity="0.84" d="M47.7262 34.9905C49.7591 32.2028 47.2663 26.9235 42.1585 23.1988C37.0507 19.4741 31.2621 18.7146 29.2293 21.5023C27.1964 24.29 29.6892 29.5694 34.797 33.294C39.9048 37.0187 45.6934 37.7783 47.7262 34.9905Z" fill="url(#paint4_radial_3014_14377)"/>
<path style="mix-blend-mode:soft-light" d="M18.962 38.6952C18.6157 38.6952 18.2846 38.5259 18.077 38.2406C17.8313 37.9045 17.7778 37.4652 17.9255 37.0004C18.5609 35.0076 20.3398 33.8246 21.8207 33.5368C22.1531 33.4719 22.4867 33.4388 22.8152 33.4388C24.3624 33.4388 25.8127 34.1621 27.0097 35.5309C27.3675 35.9397 27.4719 36.4236 27.2898 36.8259C27.1307 37.1774 26.7843 37.3951 26.387 37.3951C26.1616 37.3951 25.8166 37.3238 25.46 36.9838C24.8246 36.379 24.0529 36.0594 23.2265 36.0594C21.9812 36.0594 20.8211 36.775 20.0457 38.0229C19.7795 38.4495 19.3848 38.6952 18.962 38.6952Z" fill="url(#paint5_linear_3014_14377)"/>
<path d="M26.8386 35.6812C25.3284 33.9545 23.5584 33.4299 21.8648 33.7597C20.3139 34.0615 18.7107 35.289 18.144 37.0692C17.7429 38.326 19.1538 39.0251 19.8529 37.9019C21.2842 35.5997 23.9035 35.1846 25.6187 36.8183C26.575 37.73 27.7121 36.6782 26.8386 35.6812Z" fill="url(#paint6_radial_3014_14377)"/>
<path style="mix-blend-mode:soft-light" d="M41.8187 38.6952C41.396 38.6952 41.0012 38.4507 40.7351 38.0228C39.9596 36.7749 38.7996 36.0593 37.5542 36.0593C36.7278 36.0593 35.9561 36.3789 35.3207 36.9838C34.9642 37.3238 34.6191 37.3951 34.3937 37.3951C33.9964 37.3951 33.6501 37.1773 33.4909 36.8259C33.3088 36.4235 33.4132 35.9396 33.771 35.5309C34.9693 34.162 36.4196 33.4387 37.9655 33.4387C38.294 33.4387 38.6289 33.4718 38.96 33.5368C40.4409 33.8246 42.2198 35.0075 42.8552 37.0003C43.003 37.4638 42.9495 37.9044 42.7037 38.2406C42.4962 38.5245 42.1651 38.6952 41.8187 38.6952Z" fill="url(#paint7_linear_3014_14377)"/>
<path d="M33.9431 35.6811C35.4533 33.9544 37.2232 33.4298 38.9168 33.7596C40.4678 34.0614 42.071 35.2889 42.6376 37.0691C43.0387 38.3259 41.6278 39.025 40.9287 37.9019C39.4975 35.5996 36.8782 35.1845 35.1629 36.8182C34.2066 37.73 33.0695 36.6782 33.9431 35.6811Z" fill="url(#paint8_radial_3014_14377)"/>
<path style="mix-blend-mode:soft-light" d="M30.4031 50.0638C29.7626 50.0638 29.0738 49.9187 28.4103 49.6449C27.9023 49.4348 27.7813 49.0592 27.836 48.7777C27.901 48.4505 28.19 48.2022 28.5084 48.2022C28.5555 48.2022 28.6039 48.2073 28.6497 48.2187C28.9197 48.2837 29.196 48.3181 29.4481 48.3181C29.8862 48.3181 30.4897 48.2149 30.873 47.7221C31.0156 47.5375 31.0577 47.3732 30.9991 47.2191C30.8628 46.8588 30.1981 46.5366 29.6353 46.4322C29.2278 46.3571 28.9362 46.0094 28.9082 45.5676C28.8789 45.1092 29.1451 44.7106 29.5704 44.5744C30.2032 44.3719 30.5942 44.1261 30.7304 43.8434C30.8004 43.6996 30.8017 43.5442 30.7355 43.3672C30.5967 42.9979 30.2453 42.8107 29.6913 42.8107C29.2304 42.8107 28.7809 42.9419 28.6102 42.9979C28.4396 43.054 28.2754 43.082 28.1251 43.082C27.7265 43.082 27.4286 42.877 27.3674 42.5586C27.3101 42.2632 27.4744 41.8252 28.1251 41.5628C29.1234 41.1617 29.8467 40.9835 30.4706 40.9835C31.3302 40.9835 32.0127 41.3451 32.5551 42.0913C33.1103 42.854 33.2224 44.3846 32.2699 45.3613C32.7283 45.6236 33.0759 46.0413 33.2619 46.5646C33.5051 47.2446 33.4376 48.0124 33.0823 48.6211C32.5309 49.5647 31.6052 50.0638 30.4044 50.0638H30.4031Z" fill="url(#paint9_linear_3014_14377)"/>
<path d="M31.857 45.4212C33.0514 44.5095 32.8604 42.9012 32.3689 42.2263C31.4062 40.9033 30.115 41.0102 28.2088 41.7768C27.1888 42.1868 27.4982 43.124 28.5386 42.7828C29.2096 42.5625 30.5861 42.3193 30.9491 43.2883C31.289 44.1949 30.171 44.6228 29.64 44.7921C28.9244 45.0214 28.9983 46.0808 29.677 46.2081C30.4588 46.3533 31.7513 46.9671 31.0535 47.8635C30.4575 48.6288 29.3943 48.6339 28.5959 48.4429C28.1438 48.3347 27.6841 49.0999 28.4953 49.4348C29.9737 50.0448 31.941 50.1199 32.8833 48.5078C33.5072 47.4395 33.1176 45.8923 31.857 45.4225V45.4212Z" fill="url(#paint10_radial_3014_14377)"/>
<path style="mix-blend-mode:multiply" d="M19.2254 48.3269C21.8724 48.3269 24.0183 46.1811 24.0183 43.534C24.0183 40.8869 21.8724 38.741 19.2254 38.741C16.5783 38.741 14.4324 40.8869 14.4324 43.534C14.4324 46.1811 16.5783 48.3269 19.2254 48.3269Z" fill="url(#paint11_radial_3014_14377)"/>
<path style="mix-blend-mode:multiply" d="M41.5565 48.3269C44.2036 48.3269 46.3494 46.181 46.3494 43.5339C46.3494 40.8868 44.2036 38.741 41.5565 38.741C38.9094 38.741 36.7635 40.8868 36.7635 43.5339C36.7635 46.181 38.9094 48.3269 41.5565 48.3269Z" fill="url(#paint12_radial_3014_14377)"/>
<path style="mix-blend-mode:multiply" d="M25.377 19.7768C18.18 21.7543 13.1031 27.6335 11.7991 34.502C14.2797 34.7745 18.8778 32.9994 23.4886 29.7982C29.0545 25.9335 32.6696 21.3596 32.01 19.1643C29.8402 18.9771 27.6003 19.1643 25.377 19.7755V19.7768Z" fill="url(#paint13_radial_3014_14377)"/>
<path d="M32.2508 18.1266C32.8021 18.3889 32.9969 19.0791 32.6608 19.5884C31.9019 20.737 29.7537 22.9068 23.7612 26.5652C17.7764 30.2198 14.8731 31.1366 13.5081 31.2856C12.9019 31.3518 12.3786 30.8628 12.3977 30.2529L13.0458 8.99146L32.252 18.1266H32.2508Z" fill="url(#paint14_radial_3014_14377)"/>
<path d="M21.2045 25.7018C18.566 27.7022 15.6055 29.0686 12.4106 29.8402L12.4628 28.1377C15.3126 27.3648 17.9586 26.0863 20.3322 24.2718C23.2202 22.0638 25.5314 19.1745 27.2339 15.7402L28.6384 16.4075C26.8353 20.1703 24.3433 23.3219 21.2057 25.7005L21.2045 25.7018ZM14.8109 9.83181C14.2442 10.5232 13.6266 11.1536 12.962 11.7215L12.897 13.8697C14.1755 12.9528 15.319 11.8412 16.3033 10.5411L14.8122 9.83181H14.8109ZM30.2275 17.1639C28.3137 21.3023 25.6192 24.7531 22.1964 27.3253C21.7584 27.6539 21.3127 27.9658 20.8581 28.2625C21.7342 27.7748 22.6981 27.2145 23.7601 26.5664C25.5568 25.4688 27.0059 24.5061 28.1787 23.6644C29.517 21.9046 30.6668 19.9525 31.6231 17.8286L30.2275 17.1651V17.1639ZM13.046 8.99139L13.0434 9.06779C13.06 9.04996 13.0766 9.03213 13.0931 9.01303L13.046 8.99011V8.99139ZM15.6156 16.5475C17.1526 15.2996 18.4654 13.7996 19.5453 12.0831L18.0936 11.393C17.1488 12.8064 16.0308 14.0568 14.7421 15.1176C14.1258 15.6256 13.484 16.0815 12.8181 16.4864L12.7582 18.4359C13.7591 17.9075 14.7128 17.2797 15.6156 16.5475ZM19.3453 22.6533C21.9494 20.6414 24.0555 18.0476 25.6383 14.98L24.2223 14.3064C22.7478 17.0518 20.825 19.3872 18.4718 21.2233C16.67 22.6304 14.6912 23.6924 12.5761 24.4284L12.5226 26.1831C14.9815 25.4229 17.2736 24.254 19.3453 22.6533ZM17.4799 19.5985C19.5491 17.9635 21.263 15.921 22.609 13.5386L21.1777 12.8573C19.954 14.924 18.4272 16.7118 16.6101 18.1724C15.3915 19.1516 14.0812 19.9513 12.6945 20.5803L12.6385 22.3987C14.3639 21.7085 15.9849 20.7789 17.4799 19.5985Z" fill="url(#paint15_radial_3014_14377)"/>
<path style="mix-blend-mode:multiply" d="M28.9312 16.5475C27.6948 17.5191 26.4074 18.4258 25.0398 19.2C23.1183 20.2887 20.9778 21.2679 18.7965 21.6919C16.7464 22.0905 14.7051 22.0905 12.655 21.7798L12.3965 30.2515C12.3774 30.8615 12.9008 31.3492 13.5069 31.2842C14.872 31.1365 17.774 30.2184 23.7601 26.5638C29.7538 22.9042 31.9007 20.7356 32.6596 19.5871C32.9958 19.0777 32.8022 18.3876 32.2496 18.1252L28.9299 16.5463L28.9312 16.5475Z" fill="url(#paint16_radial_3014_14377)"/>
<path style="mix-blend-mode:screen" opacity="0.5" d="M29.2575 20.953C30.1433 19.4718 27.2606 16.1179 22.819 13.4617C18.3773 10.8055 14.0586 9.85295 13.1728 11.3341C12.287 12.8153 15.1697 16.1693 19.6114 18.8254C24.053 21.4816 28.3718 22.4341 29.2575 20.953Z" fill="url(#paint17_radial_3014_14377)"/>
<path d="M13.6903 8.80545C13.6903 8.80545 9.96185 7.63395 7.21774 9.33008L7.37819 10.5398C7.37819 10.5398 11.2925 8.92387 13.2726 10.0826L13.6915 8.80672L13.6903 8.80545Z" fill="url(#paint18_radial_3014_14377)"/>
<path d="M10.9028 4.18567C10.9028 4.18567 10.6966 8.08854 13.0217 10.3246L14.1525 9.86871C14.1525 9.86871 11.6134 6.479 12.2424 4.27353L10.9016 4.18567H10.9028Z" fill="url(#paint19_linear_3014_14377)"/>
<path d="M8.94189 13.5118C8.94189 13.5118 10.1974 10.1336 13.0345 9.01941L13.8469 9.78598C13.8469 9.78598 11.0289 11.3026 10.4687 13.9919L8.94189 13.5106V13.5118Z" fill="url(#paint20_linear_3014_14377)"/>
<path d="M7.53351 7.11314C7.53351 7.11314 10.8048 6.68274 13.0446 8.74942L12.7085 9.81522C12.7085 9.81522 10.1146 7.9421 7.44946 8.61189L7.53223 7.11314H7.53351Z" fill="url(#paint21_linear_3014_14377)"/>
<path d="M15.2603 4.46826C15.2603 4.46826 12.6486 6.96406 12.9148 9.72981L14.0188 10.0431C14.0188 10.0431 14.6045 6.54894 16.172 5.2603L15.2603 4.46954V4.46826Z" fill="url(#paint22_radial_3014_14377)"/>
<path d="M7.05957 11.2783C7.05957 11.2783 9.87244 9.17847 13.0686 9.61141L13.457 10.5983C13.457 10.5983 10.6059 10.378 7.99422 12.1314L7.05957 11.2783Z" fill="url(#paint23_radial_3014_14377)"/>
<path d="M13.1478 10.3882C13.1478 10.3882 12.0871 7.04178 13.5438 4.16524L14.6032 4.12195C14.6032 4.12195 13.4598 6.74381 14.2607 9.78461L13.1478 10.3882Z" fill="url(#paint24_radial_3014_14377)"/>
<path d="M14.3105 9.92341C14.1551 9.58088 12.58 6.47004 9.14187 5.25525L8.37021 6.45731C8.37021 6.45731 11.3957 7.41997 13.2714 10.8415L14.3105 9.92214V9.92341Z" fill="url(#paint25_radial_3014_14377)"/>
<path style="mix-blend-mode:multiply" d="M36.0338 48.705C40.2385 48.705 43.6472 47.8607 43.6472 46.8191C43.6472 45.7776 40.2385 44.9333 36.0338 44.9333C31.829 44.9333 28.4203 45.7776 28.4203 46.8191C28.4203 47.8607 31.829 48.705 36.0338 48.705Z" fill="url(#paint26_radial_3014_14377)"/>
<path style="mix-blend-mode:multiply" d="M47.2089 45.7215C47.2624 46.3378 44.2508 47.1056 40.4817 47.4367C36.7125 47.7678 33.6119 47.5373 33.5584 46.921C33.5049 46.3047 36.5164 45.5368 40.2856 45.2057C44.0547 44.8747 47.1554 45.1051 47.2089 45.7215Z" fill="url(#paint27_radial_3014_14377)"/>
<path d="M32.9724 43.6879C32.9431 44.2749 32.733 44.8848 32.2669 45.3623C32.7253 45.6247 33.073 46.0423 33.2589 46.5657C33.264 46.5797 33.2678 46.5937 33.2729 46.6077H36.5289V43.6879H32.9724Z" fill="url(#paint28_linear_3014_14377)"/>
<path style="mix-blend-mode:multiply" opacity="0.31" d="M34.4048 43.6879C34.0903 45.2337 33.1811 45.7558 32.9124 45.9264C33.0576 46.1149 33.176 46.3288 33.2613 46.5657C33.2664 46.5797 33.2703 46.5937 33.2754 46.6077H36.5314V43.6879H34.4061H34.4048Z" fill="url(#paint29_linear_3014_14377)"/>
<path style="mix-blend-mode:screen" opacity="0.49" d="M32.9724 43.6879C32.9431 44.2749 32.733 44.8848 32.2669 45.3623C36.9886 45.2949 36.5289 43.6879 36.5289 43.6879H32.9724Z" fill="url(#paint30_radial_3014_14377)"/>
<path d="M43.0409 45.9188L37.3044 47.0393V43.3593L43.0409 44.4811V45.9188Z" fill="url(#paint31_linear_3014_14377)"/>
<path d="M37.3046 46.5759V45.1446C37.6038 44.6098 37.9031 44.0737 38.196 43.5338L38.7613 43.6446C38.2953 44.6365 37.8063 45.6094 37.3046 46.5759ZM40.3823 43.9617L39.5457 43.7987C39.0593 44.8505 38.5423 45.8806 38.0126 46.9019L39.0899 46.6918C39.5686 45.8131 39.9787 44.8912 40.3823 43.9629V43.9617ZM41.7919 44.2367L41.1565 44.1132C40.8064 44.9192 40.4575 45.7215 40.0691 46.4995L40.898 46.3378C41.2036 45.6412 41.508 44.946 41.7919 44.2367ZM42.5547 44.3857C42.3217 44.9842 42.0683 45.5725 41.8123 46.1582L43.0411 45.9176V44.4799L42.5547 44.3844V44.3857Z" fill="url(#paint32_linear_3014_14377)"/>
<path style="mix-blend-mode:screen" opacity="0.49" d="M43.0409 45.1993L37.3044 45.2719V43.3593L43.0409 44.4811V45.1993Z" fill="url(#paint33_radial_3014_14377)"/>
<path d="M37.3362 42.8079H35.1829C34.9712 42.8079 34.7996 42.9795 34.7996 43.1912V47.1017C34.7996 47.3134 34.9712 47.485 35.1829 47.485H37.3362C37.5478 47.485 37.7195 47.3134 37.7195 47.1017V43.1912C37.7195 42.9795 37.5478 42.8079 37.3362 42.8079Z" fill="url(#paint34_linear_3014_14377)"/>
<path style="mix-blend-mode:screen" opacity="0.49" d="M35.0174 44.583C35.9189 44.5855 36.8192 44.6085 37.7195 44.6314V43.1912C37.7195 42.9798 37.5475 42.8079 37.3362 42.8079H35.1829C34.9715 42.8079 34.7996 42.9798 34.7996 43.1912V44.5919C34.8722 44.5855 34.9435 44.5817 35.0161 44.5817L35.0174 44.583Z" fill="url(#paint35_radial_3014_14377)"/>
<path style="mix-blend-mode:multiply" opacity="0.19" d="M36.8279 45.9519C36.0499 45.5763 35.3521 44.993 34.7995 44.3067V47.103C34.7995 47.3144 34.9714 47.4863 35.1828 47.4863H37.336C37.5474 47.4863 37.7193 47.3144 37.7193 47.103V46.3199C37.4226 46.2168 37.1259 46.0958 36.8279 45.9519Z" fill="url(#paint36_linear_3014_14377)"/>
<path d="M47.0207 44.4811H43.0415V45.9187H47.0207V44.4811Z" fill="url(#paint37_linear_3014_14377)"/>
<path d="M49.3354 38.057C47.894 37.0968 46.236 37.0523 44.9028 37.9373C43.6562 38.7637 43.0259 40.2153 43.2971 41.6351C43.4792 42.5927 44.121 43.3873 45.0582 43.8151C45.9546 44.2252 46.944 44.2061 47.7017 43.7667C48.5739 43.2599 49.0935 42.4132 49.0922 41.5014C49.0909 40.6559 48.6312 39.8881 47.8621 39.4449C47.0828 38.9954 46.1176 39.1801 45.5675 39.883C45.0403 40.5566 45.09 41.4632 45.6898 42.0884C45.9648 42.375 46.4194 42.3839 46.7059 42.1088C46.9924 41.8338 47.0013 41.3792 46.7263 41.0927C46.6804 41.0443 46.5722 40.9322 46.6995 40.7692C46.7301 40.731 46.8931 40.5464 47.1452 40.6903C47.4737 40.8787 47.6546 41.1678 47.6546 41.5027C47.6546 41.8962 47.4037 42.2769 46.9797 42.5227C46.6295 42.7264 46.1214 42.72 45.6554 42.5074C45.1486 42.2756 44.8035 41.8592 44.7093 41.3664C44.5475 40.5171 44.9359 39.641 45.6974 39.1355C46.0985 38.8694 47.1783 38.3486 48.5383 39.2539C49.5735 39.9441 49.7696 41.4479 49.4284 42.5774C49.2552 43.1492 48.6784 44.4798 47.0675 44.4798H47.0192V45.9175H47.0675C48.8273 45.9175 50.2586 44.7969 50.8049 42.9925C51.3919 41.0532 50.787 39.0222 49.3354 38.0557V38.057Z" fill="url(#paint38_radial_3014_14377)"/>
<path style="mix-blend-mode:screen" opacity="0.42" d="M44.9833 44.4812C44.9502 44.5665 44.353 45.7049 44.2103 45.9188H43.1356C43.403 45.4476 43.6513 44.965 43.8984 44.4812H44.9833ZM47.4727 40.9743C47.5236 41.0418 47.5644 41.1131 47.5937 41.1895C48.2113 41.406 48.685 41.8135 48.9995 42.1598C49.0606 41.9472 49.0912 41.7256 49.0912 41.5002C49.0912 40.9998 48.9282 40.5274 48.6366 40.1313C48.3093 40.2701 47.8229 40.535 47.4714 40.973L47.4727 40.9743ZM47.8624 39.445C47.9426 39.4908 48.0177 39.5418 48.0916 39.594C47.6752 39.8054 47.1658 40.1543 46.7978 40.684C46.7724 40.6993 46.7507 40.7171 46.7354 40.7324C46.2121 40.5057 45.8237 40.102 45.6098 39.8359C46.1662 39.1738 47.1034 39.007 47.8636 39.445H47.8624ZM43.4196 42.0796C43.3674 41.9357 43.3253 41.788 43.2961 41.6352C43.1993 41.1297 43.2197 40.6203 43.3394 40.1364C43.6844 40.4904 44.1492 40.7999 44.6738 40.9705C44.6738 41.1016 44.684 41.2341 44.7082 41.3665C44.7439 41.5511 44.8139 41.7256 44.9158 41.8835C44.4001 42.1216 43.8309 42.1522 43.4196 42.0796ZM51.0254 41.5639C51.0203 42.035 50.949 42.5164 50.8038 42.9939C50.7873 43.0473 50.7682 43.0983 50.7504 43.1505C50.4855 42.6806 50.0767 42.2286 49.5585 41.9281C49.5992 41.5639 49.5852 41.1857 49.5126 40.8253C50.1799 40.903 50.7593 41.2608 51.0241 41.5639H51.0254ZM46.4107 44.1093C46.724 43.7108 47.0741 43.1187 47.1518 42.4056C47.325 42.2731 47.46 42.1165 47.5453 41.9446C48.0737 42.1878 48.4596 42.6119 48.6633 42.8767C48.4277 43.2269 48.1018 43.5325 47.7006 43.7655C47.3161 43.9884 46.8717 44.103 46.4107 44.1081V44.1093ZM48.4405 45.6667C48.0228 45.8258 47.572 45.9137 47.0945 45.9175C47.3275 45.5126 47.558 45.0032 47.6943 44.4022C47.9871 44.3271 48.2355 44.2036 48.4443 44.0508C48.5754 44.6123 48.5118 45.2184 48.4405 45.6667ZM45.6887 42.0885C45.2647 41.6466 45.117 41.0634 45.2532 40.521C45.611 40.9005 46.1955 41.355 46.9213 41.5384C46.9366 41.7447 46.8666 41.9548 46.7061 42.1089C46.4196 42.3839 45.965 42.375 45.69 42.0885H45.6887ZM50.348 39.1012C50.6281 39.5354 50.8255 40.0333 50.9324 40.5668C50.4664 40.2854 49.8755 40.0931 49.2656 40.0906C49.1459 39.8537 48.988 39.6398 48.7919 39.459C49.3153 39.1407 49.9278 39.0553 50.348 39.1012ZM45.0571 43.8165C44.5542 43.5873 44.1365 43.2498 43.8296 42.8398C44.3657 42.8398 44.9527 42.7048 45.4633 42.4068C45.5245 42.4438 45.5881 42.4782 45.6543 42.5074C45.8912 42.6157 46.1382 42.6704 46.37 42.6704C46.193 43.2995 45.7651 43.7834 45.5525 43.9947C45.3857 43.9489 45.2201 43.889 45.0571 43.8139V43.8165ZM50.3391 44.0457C50.0424 44.5397 49.6616 44.9498 49.2172 45.2579C49.2669 44.7116 49.2529 44.0635 49.0097 43.4599C49.2019 43.1798 49.3229 42.8945 49.3955 42.6793C49.9214 43.0639 50.2436 43.642 50.3391 44.0457ZM46.2452 45.9188H44.982C45.0431 45.8233 45.5843 44.9676 45.7677 44.4812H46.9315C46.7583 45.086 46.4858 45.5686 46.2439 45.9188H46.2452ZM48.3577 37.5604C48.69 37.6827 49.0173 37.8469 49.3344 38.0583C49.4821 38.1576 49.6196 38.2697 49.7495 38.3894C49.207 38.453 48.6289 38.6606 48.1501 39.0311C47.8102 38.8631 47.4931 38.7816 47.204 38.7548C47.4803 38.1602 47.9846 37.7298 48.3577 37.5617V37.5604ZM43.6297 39.3571C43.8933 38.8414 44.2842 38.3843 44.7795 38.0265C44.7668 38.5511 44.8776 39.1279 45.1514 39.6385C45.0024 39.827 44.8852 40.0346 44.8037 40.2536C44.2791 40.0562 43.8614 39.6844 43.6297 39.3559V39.3571ZM45.5576 37.591C46.1446 37.3465 46.7711 37.2599 47.4014 37.3299C46.9748 37.6967 46.5979 38.2175 46.412 38.8185C46.0975 38.9 45.8543 39.0324 45.704 39.1317C45.4722 38.5918 45.4659 38.0023 45.5576 37.591Z" fill="url(#paint39_radial_3014_14377)"/>
<path d="M41.1479 23.0367L42.541 21.3622C42.541 21.3622 44.3097 23.1691 46.1141 23.1143L44.7567 25.1313C44.7567 25.1313 42.3818 24.5889 41.1479 23.0354V23.0367Z" fill="url(#paint40_linear_3014_14377)"/>
<path d="M48.2353 17.0046L50.3784 17.3892C50.3784 17.3892 49.6793 19.8188 50.6178 21.3621L48.1933 21.1775C48.1933 21.1775 47.4929 18.8434 48.2353 17.0046Z" fill="url(#paint41_radial_3014_14377)"/>
<path d="M19.0052 55.1063L18.2565 53.0613C18.2565 53.0613 20.7064 52.4399 21.5659 50.852L22.6292 53.0384C22.6292 53.0384 20.9675 54.8198 19.0052 55.1063Z" fill="url(#paint42_radial_3014_14377)"/>
<path d="M9.66885 43.6982L10.3692 41.6367C10.3692 41.6367 12.6676 42.6897 14.3332 41.9932L13.7882 44.3629C13.7882 44.3629 11.3764 44.708 9.66885 43.6995V43.6982Z" fill="url(#paint43_radial_3014_14377)"/>
<path d="M7.18839 36.4413L6.02454 34.6C6.02454 34.6 8.28858 33.4743 8.79284 31.7413L10.2941 33.6539C10.2941 33.6539 9.04624 35.746 7.18839 36.4413Z" fill="url(#paint44_radial_3014_14377)"/>
<path d="M52.5242 33.5966L50.6765 34.749C50.6765 34.749 49.5649 32.4786 47.8344 31.9629L49.7571 30.4743C49.7571 30.4743 51.8416 31.7349 52.5254 33.5966H52.5242Z" fill="url(#paint45_radial_3014_14377)"/>
<path d="M11.2873 51.0481L9.43969 52.2005C9.43969 52.2005 8.32804 49.9301 6.59753 49.4143L8.51904 47.9258C8.51904 47.9258 10.6035 49.1864 11.2873 51.0481Z" fill="url(#paint46_radial_3014_14377)"/>
<path d="M38.2269 16.3425L37.063 14.5012C37.063 14.5012 39.3271 13.3755 39.8313 11.6425L41.3326 13.5551C41.3326 13.5551 40.0847 15.6472 38.2269 16.3425Z" fill="url(#paint47_linear_3014_14377)"/>
<path d="M36.8728 10.3246C35.1932 10.5856 34.9818 10.797 34.7208 12.4766C34.4597 10.797 34.2484 10.5856 32.5688 10.3246C34.2484 10.0636 34.4597 9.85218 34.7208 8.17261C34.9818 9.85218 35.1932 10.0636 36.8728 10.3246Z" fill="url(#paint48_radial_3014_14377)"/>
<path d="M52.0161 52.9798C50.3366 53.2408 50.1252 53.4522 49.8641 55.1318C49.6031 53.4522 49.3917 53.2408 47.7122 52.9798C49.3917 52.7188 49.6031 52.5074 49.8641 50.8278C50.1252 52.5074 50.3366 52.7188 52.0161 52.9798Z" fill="url(#paint49_radial_3014_14377)"/>
<path d="M8.5978 40.8434C6.91823 41.1044 6.70685 41.3158 6.44581 42.9954C6.18477 41.3158 5.97339 41.1044 4.29382 40.8434C5.97339 40.5824 6.18477 40.371 6.44581 38.6914C6.70685 40.371 6.91823 40.5824 8.5978 40.8434Z" fill="url(#paint50_radial_3014_14377)"/>
<path d="M54.4848 26.1844C52.8052 26.4454 52.5938 26.6568 52.3328 28.3364C52.0718 26.6568 51.8604 26.4454 50.1808 26.1844C51.8604 25.9234 52.0718 25.712 52.3328 24.0324C52.5938 25.712 52.8052 25.9234 54.4848 26.1844Z" fill="url(#paint51_radial_3014_14377)"/>
</g>
<defs>
<radialGradient id="paint0_radial_3014_14377" cx="0" cy="0" r="1" gradientUnits="userSpaceOnUse" gradientTransform="translate(29.2068 45.4769) rotate(-15.37) scale(26.9381)">
<stop stop-color="#FFA900"/>
<stop offset="1" stop-color="#FFED57"/>
</radialGradient>
<radialGradient id="paint1_radial_3014_14377" cx="0" cy="0" r="1" gradientUnits="userSpaceOnUse" gradientTransform="translate(26.8489 50.0578) rotate(-15.37) scale(31.116)">
<stop stop-color="#FFDE00"/>
<stop offset="0.15" stop-color="#FFDE03"/>
<stop offset="0.28" stop-color="#FFDF0E"/>
<stop offset="0.4" stop-color="#FFE21F"/>
<stop offset="0.52" stop-color="#FFE538"/>
<stop offset="0.63" stop-color="#FFE959"/>
<stop offset="0.74" stop-color="#FFEE81"/>
<stop offset="0.85" stop-color="#FFF4B0"/>
<stop offset="0.95" stop-color="#FFFBE5"/>
<stop offset="1" stop-color="white"/>
</radialGradient>
<radialGradient id="paint2_radial_3014_14377" cx="0" cy="0" r="1" gradientUnits="userSpaceOnUse" gradientTransform="translate(26.342 47.1405) rotate(4.18) scale(18.8751 14.3451)">
<stop stop-color="#FFB803"/>
<stop offset="0.17" stop-color="#FFCB44"/>
<stop offset="0.34" stop-color="#FFDA7D"/>
<stop offset="0.49" stop-color="#FFE7AB"/>
<stop offset="0.64" stop-color="#FFF1D0"/>
<stop offset="0.78" stop-color="#FFF9E9"/>
<stop offset="0.9" stop-color="#FFFDF9"/>
<stop offset="1" stop-color="white"/>
</radialGradient>
<radialGradient id="paint3_radial_3014_14377" cx="0" cy="0" r="1" gradientUnits="userSpaceOnUse" gradientTransform="translate(24.6165 44.0395) rotate(-15.37) scale(32.1729 26.3818)">
<stop offset="0.82"/>
<stop offset="1" stop-color="white"/>
</radialGradient>
<radialGradient id="paint4_radial_3014_14377" cx="0" cy="0" r="1" gradientUnits="userSpaceOnUse" gradientTransform="translate(39.8084 28.7842) rotate(30.3) scale(10.6011 5.90883)">
<stop stop-color="#FFFFB1"/>
<stop offset="0.07" stop-color="#FFFFB9" stop-opacity="0.9"/>
<stop offset="0.27" stop-color="#FFFFCE" stop-opacity="0.63"/>
<stop offset="0.46" stop-color="#FFFFDF" stop-opacity="0.4"/>
<stop offset="0.63" stop-color="#FFFFED" stop-opacity="0.23"/>
<stop offset="0.78" stop-color="#FFFFF6" stop-opacity="0.1"/>
<stop offset="0.91" stop-color="#FFFFFC" stop-opacity="0.03"/>
<stop offset="1" stop-color="white" stop-opacity="0"/>
</radialGradient>
<linearGradient id="paint5_linear_3014_14377" x1="17.844" y1="36.067" x2="27.379" y2="36.067" gradientUnits="userSpaceOnUse">
<stop stop-color="#FFB53E"/>
<stop offset="0.17" stop-color="#FFAF3D"/>
<stop offset="0.37" stop-color="#FFA03A"/>
<stop offset="0.6" stop-color="#FF8836"/>
<stop offset="0.83" stop-color="#FF6530"/>
<stop offset="1" stop-color="#FF492C"/>
</linearGradient>
<radialGradient id="paint6_radial_3014_14377" cx="0" cy="0" r="1" gradientUnits="userSpaceOnUse" gradientTransform="translate(22.7123 37.734) rotate(-12.59) scale(6.22676 5.16821)">
<stop offset="0.34"/>
<stop offset="0.43" stop-color="#0F0B07"/>
<stop offset="0.61" stop-color="#37291B"/>
<stop offset="0.69" stop-color="#4A3725"/>
<stop offset="0.78" stop-color="#473423"/>
<stop offset="0.84" stop-color="#3D2D1E"/>
<stop offset="0.9" stop-color="#2D2116"/>
<stop offset="0.96" stop-color="#16110B"/>
<stop offset="1"/>
</radialGradient>
<linearGradient id="paint7_linear_3014_14377" x1="42.9367" y1="4.12198" x2="33.403" y2="4.12198" gradientUnits="userSpaceOnUse">
<stop stop-color="#FFB53E"/>
<stop offset="0.17" stop-color="#FFAF3D"/>
<stop offset="0.37" stop-color="#FFA03A"/>
<stop offset="0.6" stop-color="#FF8836"/>
<stop offset="0.83" stop-color="#FF6530"/>
<stop offset="1" stop-color="#FF492C"/>
</linearGradient>
<radialGradient id="paint8_radial_3014_14377" cx="0" cy="0" r="1" gradientUnits="userSpaceOnUse" gradientTransform="translate(44.1596 10.4628) rotate(-167.41) scale(6.22676 5.16821)">
<stop offset="0.34"/>
<stop offset="0.43" stop-color="#0F0B07"/>
<stop offset="0.61" stop-color="#37291B"/>
<stop offset="0.69" stop-color="#4A3725"/>
<stop offset="0.78" stop-color="#473423"/>
<stop offset="0.84" stop-color="#3D2D1E"/>
<stop offset="0.9" stop-color="#2D2116"/>
<stop offset="0.96" stop-color="#16110B"/>
<stop offset="1"/>
</radialGradient>
<linearGradient id="paint9_linear_3014_14377" x1="31.7949" y1="40.4003" x2="28.2957" y2="51.9255" gradientUnits="userSpaceOnUse">
<stop stop-color="#FFB53E"/>
<stop offset="0.17" stop-color="#FFAF3D"/>
<stop offset="0.37" stop-color="#FFA03A"/>
<stop offset="0.6" stop-color="#FF8836"/>
<stop offset="0.83" stop-color="#FF6530"/>
<stop offset="1" stop-color="#FF492C"/>
</linearGradient>
<radialGradient id="paint10_radial_3014_14377" cx="0" cy="0" r="1" gradientUnits="userSpaceOnUse" gradientTransform="translate(29.3115 45.6965) scale(5.23736 6.75619)">
<stop offset="0.32"/>
<stop offset="0.41" stop-color="#0F0B07"/>
<stop offset="0.58" stop-color="#37291B"/>
<stop offset="0.65" stop-color="#4A3725"/>
<stop offset="0.75" stop-color="#473423"/>
<stop offset="0.82" stop-color="#3D2D1E"/>
<stop offset="0.89" stop-color="#2D2116"/>
<stop offset="0.95" stop-color="#16110B"/>
<stop offset="1"/>
</radialGradient>
<radialGradient id="paint11_radial_3014_14377" cx="0" cy="0" r="1" gradientUnits="userSpaceOnUse" gradientTransform="translate(19.2254 43.534) scale(4.79295)">
<stop stop-color="#FFA1C2"/>
<stop offset="1" stop-color="white"/>
</radialGradient>
<radialGradient id="paint12_radial_3014_14377" cx="0" cy="0" r="1" gradientUnits="userSpaceOnUse" gradientTransform="translate(41.5565 4.1856) scale(4.79295)">
<stop stop-color="#FFA1C2"/>
<stop offset="1" stop-color="white"/>
</radialGradient>
<radialGradient id="paint13_radial_3014_14377" cx="0" cy="0" r="1" gradientUnits="userSpaceOnUse" gradientTransform="translate(17.8169 26.1398) rotate(-22.4) scale(13.8428 8.16724)">
<stop stop-color="#FFDE00"/>
<stop offset="0.15" stop-color="#FFDE03"/>
<stop offset="0.28" stop-color="#FFDF0E"/>
<stop offset="0.4" stop-color="#FFE21F"/>
<stop offset="0.52" stop-color="#FFE538"/>
<stop offset="0.63" stop-color="#FFE959"/>
<stop offset="0.74" stop-color="#FFEE81"/>
<stop offset="0.85" stop-color="#FFF4B0"/>
<stop offset="0.95" stop-color="#FFFBE5"/>
<stop offset="1" stop-color="white"/>
</radialGradient>
<radialGradient id="paint14_radial_3014_14377" cx="0" cy="0" r="1" gradientUnits="userSpaceOnUse" gradientTransform="translate(21.626 17.2597) rotate(-31.41) scale(11.0694 14.1688)">
<stop stop-color="#F382DD"/>
<stop offset="0.3" stop-color="#DC69D0"/>
<stop offset="0.93" stop-color="#A32CB0"/>
<stop offset="1" stop-color="#9D25AD"/>
</radialGradient>
<radialGradient id="paint15_radial_3014_14377" cx="0" cy="0" r="1" gradientUnits="userSpaceOnUse" gradientTransform="translate(21.4588 17.3618) rotate(-31.41) scale(10.858 13.8982)">
<stop stop-color="#FFEAFF"/>
<stop offset="0.4" stop-color="#FFC1FB"/>
<stop offset="0.79" stop-color="#FFA0F9"/>
<stop offset="1" stop-color="#FF94F8"/>
</radialGradient>
<radialGradient id="paint16_radial_3014_14377" cx="0" cy="0" r="1" gradientUnits="userSpaceOnUse" gradientTransform="translate(21.3722 26.6722) rotate(-25.78) scale(15.7146 6.60014)">
<stop stop-color="#F382DD"/>
<stop offset="0.23" stop-color="#F59AE3"/>
<stop offset="0.71" stop-color="#FBD7F4"/>
<stop offset="1" stop-color="white"/>
</radialGradient>
<radialGradient id="paint17_radial_3014_14377" cx="0" cy="0" r="1" gradientUnits="userSpaceOnUse" gradientTransform="translate(21.3225 15.679) rotate(30.88) scale(9.3539 3.09772)">
<stop stop-color="white"/>
<stop offset="0.43" stop-color="white" stop-opacity="0.56"/>
<stop offset="1" stop-color="white" stop-opacity="0"/>
</radialGradient>
<radialGradient id="paint18_radial_3014_14377" cx="0" cy="0" r="1" gradientUnits="userSpaceOnUse" gradientTransform="translate(9.33119 10.1344) rotate(-57.21) scale(4.07477 2.40412)">
<stop stop-color="#FFEAFF"/>
<stop offset="0.4" stop-color="#FFC1FB"/>
<stop offset="0.79" stop-color="#FFA0F9"/>
<stop offset="1" stop-color="#FF94F8"/>
</radialGradient>
<linearGradient id="paint19_linear_3014_14377" x1="14.7881" y1="9.14428" x2="10.1135" y2="5.11216" gradientUnits="userSpaceOnUse">
<stop stop-color="#557BD0"/>
<stop offset="0.27" stop-color="#187BE2"/>
<stop offset="0.4" stop-color="#007CEA"/>
<stop offset="0.55" stop-color="#0A8EEE"/>
<stop offset="0.85" stop-color="#25BFF9"/>
<stop offset="1" stop-color="#34D9FF"/>
</linearGradient>
<linearGradient id="paint20_linear_3014_14377" x1="13.9496" y1="10.8188" x2="8.44562" y2="12.6572" gradientUnits="userSpaceOnUse">
<stop stop-color="#557BD0"/>
<stop offset="0.27" stop-color="#187BE2"/>
<stop offset="0.4" stop-color="#007CEA"/>
<stop offset="0.55" stop-color="#0A8EEE"/>
<stop offset="0.85" stop-color="#25BFF9"/>
<stop offset="1" stop-color="#34D9FF"/>
</linearGradient>
<linearGradient id="paint21_linear_3014_14377" x1="11.4558" y1="9.71559" x2="7.59663" y2="5.76651" gradientUnits="userSpaceOnUse">
<stop stop-color="#F55534"/>
<stop offset="0.66" stop-color="#FC8D33"/>
<stop offset="1" stop-color="#FFA633"/>
</linearGradient>
<radialGradient id="paint22_radial_3014_14377" cx="0" cy="0" r="1" gradientUnits="userSpaceOnUse" gradientTransform="translate(16.0791 7.22383) scale(3.45337)">
<stop stop-color="#F382DD"/>
<stop offset="0.3" stop-color="#DC69D0"/>
<stop offset="0.93" stop-color="#A32CB0"/>
<stop offset="1" stop-color="#9D25AD"/>
</radialGradient>
<radialGradient id="paint23_radial_3014_14377" cx="0" cy="0" r="1" gradientUnits="userSpaceOnUse" gradientTransform="translate(-34.9482 35.6846) rotate(-29.23) scale(4.41303 4.3171)">
<stop stop-color="#6AC443"/>
<stop offset="0.25" stop-color="#62B039"/>
<stop offset="0.73" stop-color="#558F29"/>
<stop offset="1" stop-color="#518324"/>
</radialGradient>
<radialGradient id="paint24_radial_3014_14377" cx="0" cy="0" r="1" gradientUnits="userSpaceOnUse" gradientTransform="translate(18.634 33.9279) rotate(-100.09) scale(4.41303 4.3171)">
<stop stop-color="#FFED57"/>
<stop offset="0.41" stop-color="#FFC12C"/>
<stop offset="0.79" stop-color="#FFA00C"/>
<stop offset="1" stop-color="#FF9400"/>
</radialGradient>
<radialGradient id="paint25_radial_3014_14377" cx="0" cy="0" r="1" gradientUnits="userSpaceOnUse" gradientTransform="translate(10.1291 7.79441) rotate(-22.4) scale(4.32181 2.54987)">
<stop stop-color="#F382DD"/>
<stop offset="0.3" stop-color="#DC69D0"/>
<stop offset="0.93" stop-color="#A32CB0"/>
<stop offset="1" stop-color="#9D25AD"/>
</radialGradient>
<radialGradient id="paint26_radial_3014_14377" cx="0" cy="0" r="1" gradientUnits="userSpaceOnUse" gradientTransform="translate(36.1115 46.7783) scale(6.76627 1.81144)">
<stop stop-color="#FFB800"/>
<stop offset="0.19" stop-color="#FFC42C"/>
<stop offset="0.62" stop-color="#FFE39A"/>
<stop offset="1" stop-color="white"/>
</radialGradient>
<radialGradient id="paint27_radial_3014_14377" cx="0" cy="0" r="1" gradientUnits="userSpaceOnUse" gradientTransform="translate(40.3924 46.3509) rotate(-5.02) scale(6.07365 1.06555)">
<stop stop-color="#FFB800"/>
<stop offset="0.19" stop-color="#FFC42C"/>
<stop offset="0.62" stop-color="#FFE39A"/>
<stop offset="1" stop-color="white"/>
</radialGradient>
<linearGradient id="paint28_linear_3014_14377" x1="32.2669" y1="45.1471" x2="36.5302" y2="45.1471" gradientUnits="userSpaceOnUse">
<stop stop-color="#1F3FA9"/>
<stop offset="0.26" stop-color="#2660C7"/>
<stop offset="0.57" stop-color="#2D82E5"/>
<stop offset="0.83" stop-color="#3297F8"/>
<stop offset="1" stop-color="#349FFF"/>
</linearGradient>
<linearGradient id="paint29_linear_3014_14377" x1="32.2668" y1="45.1471" x2="36.5301" y2="45.1471" gradientUnits="userSpaceOnUse">
<stop stop-color="#1F3FA9"/>
<stop offset="0.34" stop-color="#2855BC"/>
<stop offset="0.74" stop-color="#306ACE"/>
<stop offset="1" stop-color="#3472D5"/>
</linearGradient>
<radialGradient id="paint30_radial_3014_14377" cx="0" cy="0" r="1" gradientUnits="userSpaceOnUse" gradientTransform="translate(33.9183 43.7789) rotate(-1.12) scale(2.47288 0.667677)">
<stop stop-color="white"/>
<stop offset="0.07" stop-color="white" stop-opacity="0.9"/>
<stop offset="0.27" stop-color="white" stop-opacity="0.63"/>
<stop offset="0.46" stop-color="white" stop-opacity="0.4"/>
<stop offset="0.63" stop-color="white" stop-opacity="0.23"/>
<stop offset="0.78" stop-color="white" stop-opacity="0.1"/>
<stop offset="0.91" stop-color="white" stop-opacity="0.03"/>
<stop offset="1" stop-color="white" stop-opacity="0"/>
</radialGradient>
<linearGradient id="paint31_linear_3014_14377" x1="39.9517" y1="46.4651" x2="40.2229" y2="44.2214" gradientUnits="userSpaceOnUse">
<stop stop-color="#557BD0"/>
<stop offset="0.27" stop-color="#187BE2"/>
<stop offset="0.4" stop-color="#007CEA"/>
<stop offset="0.55" stop-color="#0A8EEE"/>
<stop offset="0.85" stop-color="#25BFF9"/>
<stop offset="1" stop-color="#34D9FF"/>
</linearGradient>
<linearGradient id="paint32_linear_3014_14377" x1="40.0334" y1="46.6854" x2="40.3237" y2="44.2864" gradientUnits="userSpaceOnUse">
<stop stop-color="#4A0060"/>
<stop offset="0.17" stop-color="#5D1070"/>
<stop offset="0.73" stop-color="#9A43A4"/>
<stop offset="1" stop-color="#B358B9"/>
</linearGradient>
<radialGradient id="paint33_radial_3014_14377" cx="0" cy="0" r="1" gradientUnits="userSpaceOnUse" gradientTransform="translate(40.0523 44.4092) rotate(6.95) scale(4.839 0.691285)">
<stop stop-color="white"/>
<stop offset="0.07" stop-color="white" stop-opacity="0.9"/>
<stop offset="0.27" stop-color="white" stop-opacity="0.63"/>
<stop offset="0.46" stop-color="white" stop-opacity="0.4"/>
<stop offset="0.63" stop-color="white" stop-opacity="0.23"/>
<stop offset="0.78" stop-color="white" stop-opacity="0.1"/>
<stop offset="0.91" stop-color="white" stop-opacity="0.03"/>
<stop offset="1" stop-color="white" stop-opacity="0"/>
</radialGradient>
<linearGradient id="paint34_linear_3014_14377" x1="34.7996" y1="45.1471" x2="37.7195" y2="45.1471" gradientUnits="userSpaceOnUse">
<stop stop-color="#55B7D0"/>
<stop offset="0.15" stop-color="#3E94E8"/>
<stop offset="0.27" stop-color="#2F7FF9"/>
<stop offset="0.35" stop-color="#2A77FF"/>
<stop offset="0.5" stop-color="#2C7AFF"/>
<stop offset="0.61" stop-color="#3283FF"/>
<stop offset="0.7" stop-color="#3E94FF"/>
<stop offset="0.8" stop-color="#4EABFF"/>
<stop offset="0.88" stop-color="#63C8FF"/>
<stop offset="0.96" stop-color="#7DECFF"/>
<stop offset="1" stop-color="#8AFFFF"/>
</linearGradient>
<radialGradient id="paint35_radial_3014_14377" cx="0" cy="0" r="1" gradientUnits="userSpaceOnUse" gradientTransform="translate(36.5671 42.9069) scale(2.78995 0.892783)">
<stop stop-color="white"/>
<stop offset="0.07" stop-color="white" stop-opacity="0.9"/>
<stop offset="0.27" stop-color="white" stop-opacity="0.63"/>
<stop offset="0.46" stop-color="white" stop-opacity="0.4"/>
<stop offset="0.63" stop-color="white" stop-opacity="0.23"/>
<stop offset="0.78" stop-color="white" stop-opacity="0.1"/>
<stop offset="0.91" stop-color="white" stop-opacity="0.03"/>
<stop offset="1" stop-color="white" stop-opacity="0"/>
</radialGradient>
<linearGradient id="paint36_linear_3014_14377" x1="34.7995" y1="45.8959" x2="37.7193" y2="45.8959" gradientUnits="userSpaceOnUse">
<stop stop-color="#1F3FA9"/>
<stop offset="0.34" stop-color="#2855BC"/>
<stop offset="0.74" stop-color="#306ACE"/>
<stop offset="1" stop-color="#3472D5"/>
</linearGradient>
<linearGradient id="paint37_linear_3014_14377" x1="45.0317" y1="46.5274" x2="45.0317" y2="44.1984" gradientUnits="userSpaceOnUse">
<stop stop-color="#557BD0"/>
<stop offset="0.2" stop-color="#185FE2"/>
<stop offset="0.3" stop-color="#0054EA"/>
<stop offset="0.38" stop-color="#035CEB"/>
<stop offset="0.51" stop-color="#0C73EE"/>
<stop offset="0.67" stop-color="#1B98F4"/>
<stop offset="0.75" stop-color="#23ADF8"/>
<stop offset="1" stop-color="#0054EA"/>
</linearGradient>
<radialGradient id="paint38_radial_3014_14377" cx="0" cy="0" r="1" gradientUnits="userSpaceOnUse" gradientTransform="translate(46.8995 41.3397) scale(4.41349 4.41349)">
<stop stop-color="#557BD0"/>
<stop offset="0.16" stop-color="#358EE5"/>
<stop offset="0.29" stop-color="#1D9DF6"/>
<stop offset="0.48" stop-color="#0868ED"/>
<stop offset="0.55" stop-color="#0054EA"/>
<stop offset="0.6" stop-color="#035CEB"/>
<stop offset="0.68" stop-color="#0C73EF"/>
<stop offset="0.77" stop-color="#1B98F5"/>
<stop offset="0.78" stop-color="#1D9DF6"/>
<stop offset="0.94" stop-color="#0868ED"/>
<stop offset="1" stop-color="#0054EA"/>
</radialGradient>
<radialGradient id="paint39_radial_3014_14377" cx="0" cy="0" r="1" gradientUnits="userSpaceOnUse" gradientTransform="translate(47.0818 41.6123) scale(4.12953)">
<stop stop-color="#41B2FF"/>
<stop offset="0.02" stop-color="#45B3FF"/>
<stop offset="0.51" stop-color="#A8CEFF"/>
<stop offset="0.84" stop-color="#E6E0FF"/>
<stop offset="1" stop-color="#FFE7FF"/>
</radialGradient>
<linearGradient id="paint40_linear_3014_14377" x1="41.9863" y1="24.3256" x2="45.451" y2="22.0833" gradientUnits="userSpaceOnUse">
<stop stop-color="#F55534"/>
<stop offset="0.66" stop-color="#FC8D33"/>
<stop offset="1" stop-color="#FFA633"/>
</linearGradient>
<radialGradient id="paint41_radial_3014_14377" cx="0" cy="0" r="1" gradientUnits="userSpaceOnUse" gradientTransform="translate(51.8172 18.0303) rotate(27.53) scale(4.81078 4.81078)">
<stop stop-color="#F382DD"/>
<stop offset="0.3" stop-color="#DC69D0"/>
<stop offset="0.93" stop-color="#A32CB0"/>
<stop offset="1" stop-color="#9D25AD"/>
</radialGradient>
<radialGradient id="paint42_radial_3014_14377" cx="0" cy="0" r="1" gradientUnits="userSpaceOnUse" gradientTransform="translate(18.0855 51.5074) rotate(-92.76) scale(4.81078)">
<stop stop-color="#F382DD"/>
<stop offset="0.3" stop-color="#DC69D0"/>
<stop offset="0.93" stop-color="#A32CB0"/>
<stop offset="1" stop-color="#9D25AD"/>
</radialGradient>
<radialGradient id="paint43_radial_3014_14377" cx="0" cy="0" r="1" gradientUnits="userSpaceOnUse" gradientTransform="translate(11.2152 40.3054) rotate(-53.9) scale(4.81078)">
<stop stop-color="#6AC443"/>
<stop offset="0.25" stop-color="#62B039"/>
<stop offset="0.73" stop-color="#558F29"/>
<stop offset="1" stop-color="#518324"/>
</radialGradient>
<radialGradient id="paint44_radial_3014_14377" cx="0" cy="0" r="1" gradientUnits="userSpaceOnUse" gradientTransform="translate(6.43456 30.0961) scale(5.83329)">
<stop stop-color="#FFED57"/>
<stop offset="0.41" stop-color="#FFC12C"/>
<stop offset="0.79" stop-color="#FFA00C"/>
<stop offset="1" stop-color="#FF9400"/>
</radialGradient>
<radialGradient id="paint45_radial_3014_14377" cx="0" cy="0" r="1" gradientUnits="userSpaceOnUse" gradientTransform="translate(52.4248 30.8232) scale(4.88973 4.88973)">
<stop stop-color="#FFEAFF"/>
<stop offset="0.4" stop-color="#FFC1FB"/>
<stop offset="0.79" stop-color="#FFA0F9"/>
<stop offset="1" stop-color="#FF94F8"/>
</radialGradient>
<radialGradient id="paint46_radial_3014_14377" cx="0" cy="0" r="1" gradientUnits="userSpaceOnUse" gradientTransform="translate(11.1867 48.276) scale(4.88973 4.88973)">
<stop stop-color="#FFEAFF"/>
<stop offset="0.4" stop-color="#FFC1FB"/>
<stop offset="0.79" stop-color="#FFA0F9"/>
<stop offset="1" stop-color="#FF94F8"/>
</radialGradient>
<linearGradient id="paint47_linear_3014_14377" x1="37.063" y1="13.9931" x2="41.3326" y2="13.9931" gradientUnits="userSpaceOnUse">
<stop stop-color="#557BD0"/>
<stop offset="0.27" stop-color="#187BE2"/>
<stop offset="0.4" stop-color="#007CEA"/>
<stop offset="0.55" stop-color="#0A8EEE"/>
<stop offset="0.85" stop-color="#25BFF9"/>
<stop offset="1" stop-color="#34D9FF"/>
</linearGradient>
<radialGradient id="paint48_radial_3014_14377" cx="0" cy="0" r="1" gradientUnits="userSpaceOnUse" gradientTransform="translate(32.7127 14.0301) scale(5.27301)">
<stop stop-color="#FF9400"/>
<stop offset="0.21" stop-color="#FFA00C"/>
<stop offset="0.59" stop-color="#FFC12C"/>
<stop offset="1" stop-color="#FFED57"/>
</radialGradient>
<radialGradient id="paint49_radial_3014_14377" cx="0" cy="0" r="1" gradientUnits="userSpaceOnUse" gradientTransform="translate(47.8548 56.684) scale(0.0636683)">
<stop stop-color="#FF9400"/>
<stop offset="0.21" stop-color="#FFA00C"/>
<stop offset="0.59" stop-color="#FFC12C"/>
<stop offset="1" stop-color="#FFED57"/>
</radialGradient>
<radialGradient id="paint50_radial_3014_14377" cx="0" cy="0" r="1" gradientUnits="userSpaceOnUse" gradientTransform="translate(4.43644 44.5476) scale(5.27301 5.27301)">
<stop stop-color="#FF9400"/>
<stop offset="0.21" stop-color="#FFA00C"/>
<stop offset="0.59" stop-color="#FFC12C"/>
<stop offset="1" stop-color="#FFED57"/>
</radialGradient>
<radialGradient id="paint51_radial_3014_14377" cx="0" cy="0" r="1" gradientUnits="userSpaceOnUse" gradientTransform="translate(50.3234 29.8886) scale(5.27302 5.27301)">
<stop stop-color="#FF9400"/>
<stop offset="0.21" stop-color="#FFA00C"/>
<stop offset="0.59" stop-color="#FFC12C"/>
<stop offset="1" stop-color="#FFED57"/>
</radialGradient>
<clipPath id="clip0_3014_14377">
<rect width="60" height="60" fill="white"/>
</clipPath>
</defs>
</svg>
