<svg width="60" height="60" viewBox="0 0 60 60" fill="none" xmlns="http://www.w3.org/2000/svg">
<path d="M8.39142 32.0397L24.6753 45.5572C29.4175 49.8222 36.7192 49.4354 40.9842 44.6932L42.636 42.8566C47.327 37.6408 46.817 29.5889 41.5054 25.0066L29.7858 15.1694C28.7645 14.3121 27.2474 14.4185 26.3557 15.4099C25.4235 16.4464 25.5313 18.0479 26.5938 18.9502L33.681 24.9684L33.3098 25.3811L18.1166 12.3705C17.0585 11.4645 15.4631 11.6025 14.5763 12.6768C13.7088 13.7278 13.8473 15.281 14.8871 16.162L26.3181 25.8471L25.9251 26.284L12.8261 15.1183C11.8428 14.2801 10.3784 14.3469 9.47543 15.271C8.48095 16.2889 8.55665 17.9361 9.64028 18.8584L22.7434 30.0112L22.391 30.4031L11.077 20.7045C10.0419 19.8171 8.48792 19.918 7.57624 20.9317C6.62784 21.9862 6.74053 23.6164 7.82501 24.5304L19.1956 34.1134L18.8984 34.4979L11.5669 28.261C10.5489 27.395 9.02651 27.4967 8.13278 28.4904C7.19567 29.5324 7.31316 31.1446 8.39142 32.0397Z" fill="#D49B01"/>
<path d="M16.8336 30.0548L32.3796 44.4149C36.8895 48.9248 44.2015 48.9248 48.7114 44.4149L50.458 42.6683C55.4183 37.7079 55.335 29.6403 50.2733 24.7834L39.0906 14.34C38.116 13.4298 36.5955 13.4558 35.6525 14.3987C34.6669 15.3844 34.6897 16.9894 35.703 17.9466L42.4619 24.3314L42.0694 24.7238L27.5858 10.9277C26.5771 9.96694 24.9766 10.0204 24.0343 11.0462C23.1123 12.0499 23.1684 13.6082 24.1602 14.543L35.0628 24.8193L34.6472 25.2348L22.1573 13.3917C21.2197 12.5027 19.7538 12.4919 18.8033 13.367C17.7563 14.3308 17.7448 15.9797 18.7781 16.9581L31.2729 28.7885L30.9002 29.1612L20.1152 18.8775C19.1285 17.9367 17.5713 17.9552 16.6073 18.9193C15.6044 19.9221 15.6307 21.556 16.6653 22.5261L27.513 32.6972L27.1959 33.0654L20.2045 26.4494C19.2338 25.5308 17.7082 25.5518 16.7631 26.4968C15.7722 27.4878 15.8042 29.1039 16.8336 30.0548Z" fill="#FECD00"/>
<path d="M41.2473 9.97063L41.3705 3.82974" stroke="#FECD00" stroke-width="2.35072" stroke-linecap="round"/>
<path d="M46.8814 13.1284L51.6834 4.6966" stroke="#FECD00" stroke-width="2.35072" stroke-linecap="round"/>
<path d="M52.4503 16.3516L58.019 13.3262" stroke="#FECD00" stroke-width="2.35072" stroke-linecap="round"/>
<path d="M9.25092 44.1758L3.66528 47.2942" stroke="#FECD00" stroke-width="2.35072" stroke-linecap="round"/>
<path d="M14.9568 47.4142L9.99851 56.0289" stroke="#FECD00" stroke-width="2.35072" stroke-linecap="round"/>
<path d="M20.4393 50.6011L20.5249 56.9235" stroke="#FECD00" stroke-width="2.35072" stroke-linecap="round"/>
</svg>
