<svg width="152" height="153" viewBox="0 0 152 153" fill="none" xmlns="http://www.w3.org/2000/svg">
    <circle cx="76" cy="76.5" r="76" fill="#C294DF" fill-opacity="0.2" />
    <circle cx="76.1429" cy="76.6429" r="61.1428" fill="#C294DF" fill-opacity="0.3" />
    <path
        d="M22.8413 39.9041C23.3611 45.8249 27.0323 46.6093 29.0981 47.2432C25.6602 48.7195 23.9637 53.3683 24.318 56.0439C23.8574 52.5656 20.3334 48.4039 18.0611 48.7048C20.9178 48.3265 22.8513 43.306 22.8413 39.9041Z"
        fill="#A421D9" />
    <path
        d="M13.0962 74.0951C14.6185 77.1899 16.8359 76.8042 18.1237 76.6916C16.507 78.2511 16.5247 81.1458 17.2794 82.518C16.2982 80.7342 13.4608 79.2565 12.2519 79.9215C13.7717 79.0855 13.8094 75.937 13.0962 74.0951Z"
        fill="#A421D9" />
    <path
        d="M31.4608 101.067C30.2048 105.529 32.7693 107.135 34.1586 108.179C31.141 108.287 28.5593 111.199 28.0823 113.249C28.7024 110.583 27.1909 106.557 25.3844 106.137C27.6554 106.665 30.5204 103.55 31.4608 101.067Z"
        fill="#A421D9" />
    <circle cx="76" cy="76.5" r="40" fill="#A421D9" />
    <path
        d="M90.3068 61.5H62.3696C59.4042 61.5 57 63.9588 57 66.9916V85.0684C57 88.1012 59.4042 90.5601 62.3696 90.5601H90.3068C93.2721 90.5601 95.6764 88.1012 95.6764 85.0684V66.9916C95.6764 63.9588 93.2721 61.5 90.3068 61.5ZM70.4586 81.1073L62.9394 87.668C62.409 88.1309 61.6117 88.0665 61.1591 87.5236C60.7065 86.9811 60.7694 86.1657 61.3004 85.7029L68.8196 79.1422C69.3499 78.6793 70.1472 78.7437 70.5998 79.2867C71.0524 79.829 70.9895 80.6445 70.4586 81.1073ZM76.3382 78.6132C75.3324 78.6106 74.3575 78.2688 73.5953 77.5947L73.5959 77.5953L73.5935 77.5935C73.5941 77.5941 73.5948 77.5941 73.5953 77.5947L62.0583 67.3537C61.531 66.8856 61.4749 66.0703 61.9318 65.5317C62.3894 64.9925 63.1867 64.9351 63.7132 65.4024L75.2535 75.646C75.5001 75.8705 75.9065 76.0326 76.3382 76.03C76.7692 76.0313 77.1687 75.8737 77.429 75.6416L77.4346 75.6366L88.9631 65.4025C89.4897 64.9351 90.287 64.9925 90.7445 65.5318C91.2014 66.0703 91.1453 66.8857 90.6181 67.3537L79.0779 77.5979C78.3182 78.265 77.3445 78.6119 76.3382 78.6132ZM91.5177 87.5236C91.0651 88.0665 90.2678 88.1309 89.7376 87.668L82.2183 81.1073C81.6875 80.6444 81.6245 79.829 82.0772 79.2867C82.5297 78.7437 83.327 78.6794 83.8573 79.1422L91.3766 85.7029C91.9075 86.1657 91.9704 86.9811 91.5177 87.5236Z"
        fill="white" />
</svg>
