<svg width="54" height="34" viewBox="0 0 54 34" fill="none" xmlns="http://www.w3.org/2000/svg">
<rect width="54" height="34" rx="17" fill="#015486"/>
<mask id="mask0_1622_1284" style="mask-type:alpha" maskUnits="userSpaceOnUse" x="15" y="5" width="24" height="24">
<rect x="15" y="5" width="24" height="24" fill="#D9D9D9"/>
</mask>
<g mask="url(#mask0_1622_1284)">
<path d="M35.15 18H24C23.7167 18 23.4792 17.9042 23.2875 17.7125C23.0958 17.5208 23 17.2833 23 17C23 16.7167 23.0958 16.4792 23.2875 16.2875C23.4792 16.0958 23.7167 16 24 16H35.15L34.3 15.15C34.1 14.95 34.0042 14.7167 34.0125 14.45C34.0208 14.1833 34.1167 13.95 34.3 13.75C34.5 13.55 34.7375 13.4458 35.0125 13.4375C35.2875 13.4292 35.525 13.525 35.725 13.725L38.3 16.3C38.5 16.5 38.6 16.7333 38.6 17C38.6 17.2667 38.5 17.5 38.3 17.7L35.725 20.275C35.525 20.475 35.2875 20.5708 35.0125 20.5625C34.7375 20.5542 34.5 20.45 34.3 20.25C34.1167 20.05 34.0208 19.8167 34.0125 19.55C34.0042 19.2833 34.1 19.05 34.3 18.85L35.15 18ZM30 13V10H20V24H30V21C30 20.7167 30.0958 20.4792 30.2875 20.2875C30.4792 20.0958 30.7167 20 31 20C31.2833 20 31.5208 20.0958 31.7125 20.2875C31.9042 20.4792 32 20.7167 32 21V24C32 24.55 31.8042 25.0208 31.4125 25.4125C31.0208 25.8042 30.55 26 30 26H20C19.45 26 18.9792 25.8042 18.5875 25.4125C18.1958 25.0208 18 24.55 18 24V10C18 9.45 18.1958 8.97917 18.5875 8.5875C18.9792 8.19583 19.45 8 20 8H30C30.55 8 31.0208 8.19583 31.4125 8.5875C31.8042 8.97917 32 9.45 32 10V13C32 13.2833 31.9042 13.5208 31.7125 13.7125C31.5208 13.9042 31.2833 14 31 14C30.7167 14 30.4792 13.9042 30.2875 13.7125C30.0958 13.5208 30 13.2833 30 13Z" fill="white"/>
</g>
</svg>
