<svg width="22" height="17" viewBox="0 0 22 17" fill="none" xmlns="http://www.w3.org/2000/svg">
<path fill-rule="evenodd" clip-rule="evenodd" d="M18.7076 2.20544C19.0981 1.81491 19.0981 1.18175 18.7076 0.791223C18.3171 0.400703 17.6839 0.400703 17.2934 0.791223L13.0325 5.05215C12.437 4.70026 11.7423 4.49833 11.0005 4.49833C8.79135 4.49833 7.00049 6.28919 7.00049 8.49833C7.00049 9.24013 7.20242 9.93483 7.55431 10.5303L3.29338 14.7912C2.90286 15.1817 2.90286 15.8149 3.29338 16.2054C3.68391 16.5959 4.31707 16.5959 4.7076 16.2054L8.96852 11.9445C9.56399 12.2964 10.2587 12.4983 11.0005 12.4983C13.2096 12.4983 15.0005 10.7074 15.0005 8.49833C15.0005 7.75653 14.7986 7.06183 14.4467 6.46636L18.7076 2.20544ZM11.5185 6.56603C11.3533 6.52193 11.1797 6.49833 11.0005 6.49833C9.89589 6.49833 9.00049 7.39373 9.00049 8.49833C9.00049 8.67753 9.02409 8.85113 9.06819 9.01633L11.5185 6.56603ZM10.4825 10.4306L12.9328 7.98033C12.9769 8.14553 13.0005 8.31913 13.0005 8.49833C13.0005 9.60293 12.1051 10.4983 11.0005 10.4983C10.8213 10.4983 10.6477 10.4747 10.4825 10.4306ZM14.7656 1.31903C13.6292 0.818823 12.368 0.498333 11.0005 0.498333C8.14803 0.498333 5.75766 1.89295 3.99861 3.40428C2.23317 4.92109 1.00806 6.63593 0.464357 7.46813C0.0535475 8.09683 0.0535475 8.89983 0.464357 9.52853C0.923247 10.2309 1.86755 11.562 3.21243 12.8722L4.62675 11.4579C3.45599 10.3212 2.61193 9.15143 2.18051 8.49833C2.69089 7.72573 3.77881 6.22991 5.30196 4.92127C6.87451 3.57018 8.81623 2.49833 11.0005 2.49833C11.7724 2.49833 12.514 2.63218 13.2198 2.86491L14.7656 1.31903ZM11.0005 14.4983C10.2287 14.4983 9.48709 14.3644 8.78132 14.1317L7.23545 15.6776C8.37185 16.1778 9.63309 16.4983 11.0005 16.4983C13.853 16.4983 16.2434 15.1037 18.0025 13.5924C19.7679 12.0755 20.993 10.3607 21.5367 9.52853C21.9475 8.89983 21.9475 8.09683 21.5367 7.46813C21.0778 6.76573 20.1335 5.4346 18.7886 4.12444L17.3743 5.53876C18.5451 6.67543 19.3892 7.84523 19.8206 8.49833C19.3102 9.27093 18.2223 10.7667 16.6991 12.0754C15.1266 13.4265 13.1848 14.4983 11.0005 14.4983Z" fill="#015486"/>
</svg>
