<svg width="19" height="21" viewBox="0 0 19 21" fill="none" xmlns="http://www.w3.org/2000/svg">
<path d="M13.5931 1.65614C13.5931 1.65614 12.8555 1.43677 12.5241 4.49191C12.1927 7.54705 13.9256 3.07702 13.8776 2.71407C13.8296 2.35112 13.5931 1.65614 13.5931 1.65614Z" fill="#07A8FF"/>
<path d="M4.2037 19.2289C4.19812 19.3894 4.17915 19.5191 4.14122 19.6447C3.95152 20.2609 2.20971 20.8711 1.41858 20.4194C1.31369 20.3596 1.24005 20.2529 1.18984 20.1044C0.865129 19.1302 1.56922 16.2944 1.41858 12.0388C1.24563 7.131 0.373047 2.19831 0.373047 2.19831C0.373047 2.19831 4.63441 -0.315397 5.796 0.687692C5.796 0.687692 4.23495 10.5002 4.1401 14.4029C4.06311 17.5109 4.22825 18.6027 4.20259 19.2289H4.2037Z" fill="#ACB40B"/>
<path d="M0.373272 2.19975C0.768277 4.67557 5.56971 2.39519 5.79622 0.689136C6.02274 -1.01691 0.152337 0.812778 0.373272 2.19975Z" fill="#E2791C"/>
<g style="mix-blend-mode:multiply" opacity="0.5">
<path d="M1.23584 20.2336C1.60183 20.9864 2.93079 19.9146 3.33472 16.2651C3.57574 14.0805 3.93727 12.0843 4.18722 10.8339C4.35571 9.99534 4.47399 9.4928 4.47399 9.4928C4.47399 9.4928 3.50098 14.6419 3.453 16.326C3.40502 18.0101 3.53669 19.071 3.0792 19.9435C2.6217 20.8159 1.60518 20.7631 1.23584 20.2346V20.2336Z" fill="#960052"/>
</g>
<g style="mix-blend-mode:multiply" opacity="0.5">
<path d="M3.13232 20.3883C3.13232 20.3883 3.90671 19.4929 4.01272 17.9673C4.11872 16.4418 4.12542 14.9401 4.12542 14.9401C4.12542 14.9401 4.20687 17.5256 4.18567 18.5327C4.16447 19.5398 3.13232 20.3883 3.13232 20.3883Z" fill="#960052"/>
</g>
<g style="mix-blend-mode:multiply" opacity="0.5">
<path d="M1.22615 17.4808C1.44486 19.4401 2.83072 16.011 3.3083 9.3703C3.78588 2.72957 4.21659 3.19422 4.28689 2.24298C4.3583 1.29074 2.45357 0.558868 2.45357 0.558868C2.45357 0.558868 4.32482 0.892899 4.84927 1.64073C5.37371 2.38856 3.75352 5.33501 3.52254 9.14196C3.29156 12.9489 2.09874 18.427 1.56425 18.8997C1.02977 19.3723 1.22615 17.4798 1.22615 17.4798V17.4808Z" fill="#960052"/>
</g>
<g style="mix-blend-mode:multiply" opacity="0.3">
<path d="M1.40063 14.9351C1.36493 15.6072 3.12794 11.1212 3.06769 7.24143C3.00743 3.36169 3.26854 3.77947 3.26854 2.80331C3.26854 1.82714 2.06232 0.933731 0.909668 1.31762C0.909668 1.31762 2.04782 1.03843 2.73517 1.74238C3.42364 2.44634 2.71174 3.29987 2.64033 5.0448C2.56891 6.78974 2.02327 11.8042 1.79787 12.7564C1.57247 13.7077 1.43634 13.7027 1.43634 13.7027L1.40063 14.9351Z" fill="#960052"/>
</g>
<path d="M2.73772 1.7496C2.73772 1.7496 3.23204 2.19531 3.26998 2.75469C3.30792 3.31406 2.8627 4.01802 2.73772 4.42983C2.61275 4.84163 2.98098 3.24526 3.00441 2.67292C3.02896 2.10058 2.73772 1.7496 2.73772 1.7496Z" fill="#9E001F"/>
<path d="M2.45361 0.557892C2.45361 0.557892 3.60962 0.997616 3.95776 1.49418C4.3059 1.99073 4.17311 1.16413 3.806 0.946763C3.43889 0.728397 2.45361 0.557892 2.45361 0.557892Z" fill="#9E001F"/>
<path d="M1.23877 18.7897C1.37491 19.1187 1.84132 18.3479 2.28431 16.8662C2.28431 16.8662 1.9451 18.7498 1.58915 19.2065C1.2332 19.6641 1.23877 18.7887 1.23877 18.7887V18.7897Z" fill="#DD4D12"/>
<path d="M2.48877 20.5145C2.48877 20.5145 3.04111 20.4477 3.36135 19.5783C3.6816 18.7088 3.4562 17.5262 3.48632 16.5122C3.51534 15.4991 3.63696 14.512 3.63696 14.512C3.63696 14.512 3.46847 15.5509 3.43276 16.3746C3.39706 17.1982 3.51868 18.5752 3.30221 19.335C3.08574 20.0948 2.48877 20.5135 2.48877 20.5135V20.5145Z" fill="#DD4D12"/>
<path d="M3.2915 20.2442C3.2915 20.2442 3.81929 19.8624 3.961 19.4914C4.10383 19.1205 4.15181 18.8333 4.15181 18.8333C4.15181 18.8333 3.82822 19.6978 3.2915 20.2442Z" fill="#DD4D12"/>
<g style="mix-blend-mode:multiply" opacity="0.5">
<path d="M1.36586 15.6431C1.66267 14.5573 2.33887 15.7339 2.29312 16.0589C2.24849 16.384 2.81868 14.3708 2.89009 13.2132C2.9615 12.0565 1.3826 14.1534 1.36475 15.6431H1.36586Z" fill="#B53355"/>
</g>
<g style="mix-blend-mode:multiply" opacity="0.5">
<path d="M2.48989 16.0923C2.48096 16.899 2.84584 17.6079 3.00317 17.5182C3.16162 17.4294 3.54546 14.5947 3.65928 13.4281C3.77421 12.2614 3.27655 12.3472 3.20402 12.4569C3.13149 12.5666 2.48877 16.0913 2.48877 16.0913L2.48989 16.0923Z" fill="#B53355"/>
</g>
<g style="mix-blend-mode:multiply" opacity="0.5">
<path d="M3.51742 17.6125C3.53751 18.143 3.83543 18.4242 3.89569 18.4411C3.95594 18.4581 4.20589 16.1298 4.12778 14.8845C4.04967 13.6401 4.13225 12.3737 4.08538 12.3967C4.03852 12.4196 3.24293 15.6512 3.51742 17.6125Z" fill="#B53355"/>
</g>
<g style="mix-blend-mode:multiply" opacity="0.5">
<path d="M4.20771 19.233C4.20213 19.3935 4.18317 19.5231 4.14523 19.6488C3.95554 20.265 2.21372 20.8752 1.42259 20.4235C1.31771 20.3637 1.24406 20.257 1.19385 20.1084C1.2184 19.6219 1.50628 20.2072 1.98832 20.247C2.47929 20.2899 2.97472 19.921 3.00485 19.9828C3.0372 20.0466 2.70803 20.3089 2.79061 20.3926C2.87318 20.4754 3.83726 19.919 3.90309 19.7066C3.96892 19.4962 4.19767 19.2041 4.19767 19.2041L4.2066 19.233H4.20771Z" fill="#7D2B71"/>
</g>
<g style="mix-blend-mode:multiply" opacity="0.5">
<path d="M1.42871 12.0895C1.42871 12.0895 2.4285 12.8882 3.26537 13.0786C4.10225 13.2681 4.29975 11.9539 4.29975 11.9539L4.3455 11.3726C4.3455 11.3726 2.8938 12.5382 1.43317 11.8422L1.42983 12.0905L1.42871 12.0895Z" fill="#7D2B71"/>
</g>
<g style="mix-blend-mode:soft-light" opacity="0.5">
<path d="M0.811414 2.99681C0.370659 2.53615 2.17719 2.03062 2.60456 2.13133C3.03192 2.23203 2.97167 3.03072 2.71279 3.14837C2.45392 3.26603 1.27114 3.47742 0.812529 2.99681H0.811414Z" fill="#07A8FF"/>
</g>
<g style="mix-blend-mode:soft-light" opacity="0.5">
<path d="M3.29724 2.87292C3.14995 2.80412 3.59405 2.0204 3.87747 1.90274C4.15978 1.78508 4.28698 2.14105 4.21557 2.42423C4.14415 2.7084 3.47466 2.95469 3.29724 2.87292Z" fill="#07A8FF"/>
</g>
<g style="mix-blend-mode:soft-light" opacity="0.5">
<path d="M5.04072 1.87041C4.91797 1.8026 5.31298 0.847374 5.53503 0.612057C5.75708 0.37674 5.74146 1.02785 5.74146 1.02785C5.74146 1.02785 5.2226 1.72483 5.04072 1.87041Z" fill="#07A8FF"/>
</g>
<g style="mix-blend-mode:multiply">
<path d="M0.554966 3.30849C0.554966 3.30849 1.1631 4.36143 2.453 4.49704C3.74402 4.63264 5.20018 2.89668 5.42558 2.2705C5.65098 1.64432 5.70454 1.29932 5.70454 1.29932L5.38987 3.27359C5.38987 3.27359 3.77861 4.75928 2.14949 4.75928C0.520375 4.75928 0.630843 3.82598 0.630843 3.82598L0.552734 3.30849H0.554966Z" fill="#B53355"/>
</g>
<path d="M15.1475 10.4479C14.6398 10.2754 14.2604 10.0211 13.9725 9.77287C13.9725 9.77287 13.9703 9.76988 13.9647 9.76489C13.2807 9.16862 13.1289 8.5913 13.0285 9.15566C12.9024 9.8646 12.9604 11.3702 10.837 11.6624C10.8035 11.6674 10.7689 11.6704 10.7355 11.6743C10.4744 11.7043 10.1831 11.7162 9.85618 11.7083C6.73073 11.6245 4.76575 10.9694 4.76575 10.9694C4.48233 11.5318 4.03264 11.8508 3.53833 12.0104C2.3734 12.3853 0.969683 11.8628 0.969683 11.5318C0.969683 10.0371 0.637164 7.70188 0.362669 6.02275C0.187483 4.9349 0.0357302 4.12226 0.0134135 3.99164C0.00560267 3.94577 2.34993e-05 3.9019 2.34993e-05 3.86202C-0.00220817 3.60975 0.154009 3.45021 0.684029 3.30663C2.09333 6.62999 5.49885 2.71435 5.49885 2.71435L5.56468 2.22776C5.6573 2.12406 5.7488 2.03931 5.94072 1.89373C5.95188 1.88376 5.9675 1.87379 5.98201 1.86182C6.50979 1.46896 7.34221 1.08408 8.21033 1.47594C9.67207 2.13204 10.8939 5.21908 12.2217 4.66469C13.5518 4.1103 13.5273 2.0403 14.0975 2.26665C14.6688 2.49498 15.4499 4.02853 16.3057 7.30104C17.0723 10.2325 18.1323 9.22047 18.5251 9.1417C18.5697 9.12973 18.6054 9.13372 18.6322 9.15666C18.8799 9.382 17.2977 11.1838 15.1486 10.4499L15.1475 10.4479Z" fill="#07A8FF"/>
<g style="mix-blend-mode:soft-light" opacity="0.5">
<path d="M3.46692 5.12544C1.48966 5.30193 0.200873 4.4504 2.34993e-05 3.86111C-0.00220817 3.60884 0.154009 3.4493 0.684029 3.30572C2.09333 6.62908 5.39285 2.84107 5.39285 2.84107C5.39285 2.84107 5.43078 2.79221 5.49773 2.71344C5.70416 2.8999 5.83583 4.91605 3.46692 5.12644V5.12544Z" fill="#07A8FF"/>
</g>
<g style="mix-blend-mode:multiply" opacity="0.3">
<path d="M4.76221 10.9684C4.76221 10.9684 4.99876 6.27905 5.38038 4.76844C5.76088 3.25782 5.49419 2.7134 5.49419 2.7134C5.49419 2.7134 6.69929 1.63852 7.96911 2.12411C9.23893 2.6097 9.84371 4.27387 10.0345 6.48346C10.2242 8.69305 9.29918 10.9834 8.39648 11.3763C7.49488 11.7691 4.76332 10.9684 4.76332 10.9684H4.76221Z" fill="#A50425"/>
</g>
<g style="mix-blend-mode:multiply" opacity="0.5">
<path d="M13.0387 8.50853C12.9551 7.78164 13.4505 6.26703 13.6101 5.37961C13.87 3.92782 13.8343 3.02045 14.0519 2.90479C14.534 2.64853 15.6297 4.93291 15.5583 7.47553C15.4869 10.0181 14.467 10.0162 14.2226 9.92342C13.6 9.68512 13.0387 8.50953 13.0387 8.50953V8.50853Z" fill="#07A8FF"/>
</g>
<g style="mix-blend-mode:multiply" opacity="0.5">
<path d="M15.899 10.5168C15.5431 10.4321 17.2347 10.1838 18.1597 9.42801C19.0859 8.6732 18.2668 10.815 15.899 10.5168Z" fill="#823D65"/>
</g>
<path d="M18.5231 9.13975C18.2564 9.40996 17.9551 9.65226 17.6583 9.75297C16.8236 10.0371 16.2323 9.68915 15.8451 7.80661C15.4579 5.92308 14.6176 2.49901 14.0486 2.90484C13.4795 3.30966 14.0318 5.67879 12.9696 5.61597C11.9095 5.55415 10.036 3.87702 8.75282 2.64758C7.50643 1.45405 5.54145 2.21783 5.93757 1.89178C5.94873 1.8818 5.96435 1.87183 5.97886 1.85987C6.50665 1.46701 7.33906 1.08212 8.20718 1.47399C9.66892 2.13008 11.3081 4.96386 12.6359 4.40947C13.966 3.85508 13.0265 1.42912 13.5955 1.65646C14.1668 1.8848 15.2693 2.70043 16.3014 7.29909C16.9642 10.2505 18.1281 9.21852 18.5208 9.13975H18.5231Z" fill="#07A8FF"/>
<g style="mix-blend-mode:multiply" opacity="0.2">
<path d="M5.24125 4.40981C4.27048 4.96021 3.87101 5.18257 3.46485 7.66437C3.05868 10.1462 2.75518 11.7525 3.04083 12.0068C3.32537 12.261 3.7505 11.2819 3.85316 10.8023C4.48249 7.84983 5.24125 4.40881 5.24125 4.40881V4.40981Z" fill="#823D65"/>
</g>
<g style="mix-blend-mode:soft-light">
<path d="M0.746318 4.61593C0.0355316 4.11738 0.811036 9.05605 1.43702 10.0781C2.063 11.1001 3.16656 8.28429 3.52251 6.82153C3.87846 5.35778 3.89966 5.36775 3.80817 5.23215C3.71667 5.09654 2.34977 5.36975 0.746318 4.61593Z" fill="#07A8FF"/>
</g>
<g style="mix-blend-mode:soft-light">
<path d="M1.19809 4.83497C0.376839 4.42615 1.03853 4.55478 2.16552 4.63555C3.29251 4.71631 4.23985 3.87376 4.54894 3.99341C4.85914 4.11207 4.8067 4.9267 3.72322 5.09721C2.63975 5.26871 1.47817 4.97357 1.19809 4.83497Z" fill="#07A8FF"/>
</g>
<g style="mix-blend-mode:soft-light" opacity="0.5">
<path d="M8.64626 1.74746C8.00912 1.71057 9.65051 3.21819 10.2888 4.04579C10.9281 4.87239 12.6186 5.00999 12.545 4.77169C12.4713 4.53338 11.2819 4.60018 10.349 3.63C9.41618 2.65981 9.01895 1.7694 8.64514 1.74746H8.64626Z" fill="#07A8FF"/>
</g>
<g style="mix-blend-mode:soft-light" opacity="0.5">
<path d="M15.0491 3.55697C14.7668 3.46424 15.2365 5.4076 15.771 7.08872C16.3055 8.76984 16.5822 8.65019 16.5822 8.65019C16.5822 8.65019 15.9741 6.62108 15.771 5.57511C15.568 4.53014 15.0491 3.55597 15.0491 3.55597V3.55697Z" fill="#07A8FF"/>
</g>
<g style="mix-blend-mode:multiply" opacity="0.3">
<path d="M5.49308 2.71512C6.66247 1.71602 8.49355 1.8247 9.05705 3.02622C9.61943 4.22773 7.02623 5.05035 5.8825 6.4802C4.73989 7.91005 5.70397 10.5594 6.04765 10.9542C6.39132 11.3491 4.76221 10.9702 4.76221 10.9702C4.76221 10.9702 5.0222 6.48817 5.38038 4.77016C5.73745 3.05214 5.49419 2.71512 5.49419 2.71512H5.49308Z" fill="#07A8FF"/>
</g>
<g style="mix-blend-mode:soft-light">
<path d="M4.77211 10.9741C4.58799 11.4996 3.7567 11.9503 3.65181 11.7948C3.54692 11.6392 4.31685 8.73563 4.71185 7.09439C5.10686 5.45316 5.29432 4.05322 5.41929 4.08214C5.54426 4.11105 5.21509 5.54788 4.95845 7.72257C4.70181 9.89627 4.88927 10.6401 4.77211 10.9741Z" fill="#07A8FF"/>
</g>
<g style="mix-blend-mode:multiply" opacity="0.5">
<path d="M3.54724 12.0093C2.38231 12.3842 0.978595 11.8617 0.978595 11.5307C0.978595 10.036 0.646077 7.70081 0.371582 6.02169L0.384972 5.87411C0.384972 5.87411 1.12923 8.66801 1.19841 9.76483C1.26983 10.8616 0.922804 11.2126 1.19841 11.5935C1.52647 12.0482 2.94581 12.134 3.54724 12.0093Z" fill="#823D65"/>
</g>
<g style="mix-blend-mode:multiply">
<path d="M0.563275 3.30527C0.384741 1.65805 1.38453 4.64339 2.46131 4.6374C2.46131 4.6374 1.09776 4.80891 0.563275 3.30527Z" fill="#B53355"/>
</g>
<g style="mix-blend-mode:multiply" opacity="0.5">
<path d="M13.3115 7.36127C13.1307 8.84197 13.8794 9.67556 13.9631 9.7643C13.2791 9.16803 13.1274 8.5907 13.0269 9.15507C12.9009 9.86401 12.9589 11.3696 10.8354 11.6618C11.7538 11.5192 12.6074 10.5111 12.8484 9.58781C13.0984 8.63258 13.2858 6.62341 13.6674 5.12675C14.0468 3.63109 13.5849 2.93312 14.1963 2.88127C14.2834 2.87329 14.309 3.97111 14.1138 4.40884C13.9163 4.84756 13.5034 5.79282 13.3115 7.36127Z" fill="#823D65"/>
</g>
<path d="M11.4144 4.91425C10.322 4.37681 10.2539 8.6534 10.8297 9.83896C11.4055 11.0245 12.7199 9.39126 12.9966 7.62438C13.2711 5.87346 13.9306 5.33802 13.1774 5.38189C12.4242 5.42477 11.4144 4.91425 11.4144 4.91425Z" fill="#07A8FF"/>
<g style="mix-blend-mode:multiply" opacity="0.3">
<path d="M9.48653 4.19784C8.94423 4.489 8.15088 9.84944 7.83398 10.9522C7.51597 12.055 9.84471 10.5584 10.069 7.85523C10.2933 5.15107 9.65725 4.10611 9.48653 4.19784Z" fill="#07A8FF"/>
</g>
<g style="mix-blend-mode:multiply" opacity="0.5">
<path d="M10.8335 11.6644C10.8 11.6694 10.7654 11.6724 10.7319 11.6764C10.4708 11.7063 10.1796 11.7183 9.85264 11.7103C6.72719 11.6265 4.76221 10.9714 4.76221 10.9714C4.76221 10.9714 4.8883 9.41794 4.91842 8.5704C4.94855 7.72087 5.44063 9.95738 6.00971 10.7162C6.75732 11.7133 10.8335 11.6644 10.8335 11.6644Z" fill="#823D65"/>
</g>
<g style="mix-blend-mode:multiply" opacity="0.5">
<path d="M5.57002 2.22695C6.4214 1.47214 6.54637 2.08935 6.96035 2.12425C7.37432 2.16014 5.92039 3.35268 5.71285 3.87816C5.5053 4.40363 5.17725 6.02692 5.17725 6.02692C5.17725 6.02692 5.4841 4.15735 5.55663 3.60395C5.5901 3.34869 5.60796 2.88604 5.50419 2.71354C5.49972 2.40643 5.57002 2.22695 5.57002 2.22695Z" fill="#823D65"/>
</g>
</svg>
