<svg width="19" height="21" viewBox="0 0 19 21" fill="none" xmlns="http://www.w3.org/2000/svg">
<path d="M13.5931 1.65904C13.5931 1.65904 12.8555 1.43967 12.5241 4.49481C12.1927 7.54995 13.9256 3.07991 13.8776 2.71697C13.8296 2.35402 13.5931 1.65904 13.5931 1.65904Z" fill="#07B50F"/>
<path d="M4.20761 19.2289C4.20203 19.3895 4.18306 19.5191 4.14512 19.6447C3.95543 20.2609 2.21361 20.8712 1.42249 20.4195C1.3176 20.3596 1.24396 20.253 1.19374 20.1044C0.869036 19.1302 1.57313 16.2944 1.42249 12.0388C1.24953 7.13103 0.376953 2.19834 0.376953 2.19834C0.376953 2.19834 4.63832 -0.315367 5.7999 0.687723C5.7999 0.687723 4.23885 10.5003 4.14401 14.4029C4.06701 17.5109 4.23216 18.6027 4.20649 19.2289H4.20761Z" fill="#ACB40B"/>
<path d="M0.377179 2.20012C0.772184 4.67593 5.57362 2.39555 5.80013 0.689503C6.02664 -1.01655 0.156244 0.813144 0.377179 2.20012Z" fill="#E2791C"/>
<g style="mix-blend-mode:multiply" opacity="0.5">
<path d="M1.23975 20.2366C1.60574 20.9894 2.9347 19.9175 3.33863 16.2681C3.57965 14.0834 3.94118 12.0872 4.19113 10.8368C4.35962 9.99827 4.47789 9.49573 4.47789 9.49573C4.47789 9.49573 3.50489 14.6448 3.45691 16.3289C3.40893 18.013 3.54059 19.0739 3.0831 19.9464C2.62561 20.8189 1.60909 20.766 1.23975 20.2376V20.2366Z" fill="#960052"/>
</g>
<g style="mix-blend-mode:multiply" opacity="0.5">
<path d="M3.13574 20.3873C3.13574 20.3873 3.91013 19.4919 4.01613 17.9664C4.12214 16.4408 4.12883 14.9391 4.12883 14.9391C4.12883 14.9391 4.21029 17.5246 4.18909 18.5317C4.16789 19.5388 3.13574 20.3873 3.13574 20.3873Z" fill="#960052"/>
</g>
<g style="mix-blend-mode:multiply" opacity="0.5">
<path d="M1.22908 17.48C1.44779 19.4393 2.83365 16.0102 3.31123 9.36951C3.78881 2.72878 4.21952 3.19343 4.28981 2.24219C4.36123 1.28995 2.4565 0.558075 2.4565 0.558075C2.4565 0.558075 4.32775 0.892106 4.85219 1.63994C5.37664 2.38777 3.75645 5.33422 3.52547 9.14117C3.29449 12.9481 2.10167 18.4262 1.56718 18.8989C1.0327 19.3715 1.22908 17.479 1.22908 17.479V17.48Z" fill="#960052"/>
</g>
<g style="mix-blend-mode:multiply" opacity="0.3">
<path d="M1.40454 14.9353C1.36883 15.6073 3.13185 11.1214 3.0716 7.24161C3.01134 3.36187 3.27245 3.77966 3.27245 2.80349C3.27245 1.82732 2.06623 0.933914 0.913574 1.3178C0.913574 1.3178 2.05172 1.03861 2.73908 1.74257C3.42755 2.44652 2.71565 3.30005 2.64423 5.04499C2.57282 6.78992 2.02718 11.8044 1.80178 12.7566C1.57638 13.7078 1.44025 13.7029 1.44025 13.7029L1.40454 14.9353Z" fill="#960052"/>
</g>
<path d="M2.74163 1.75076C2.74163 1.75076 3.23594 2.19647 3.27388 2.75585C3.31182 3.31522 2.8666 4.01918 2.74163 4.43099C2.61666 4.84279 2.98488 3.24642 3.00831 2.67408C3.03286 2.10174 2.74163 1.75076 2.74163 1.75076Z" fill="#9E001F"/>
<path d="M2.4585 0.558075C2.4585 0.558075 3.6145 0.997799 3.96264 1.49436C4.31078 1.99092 4.17799 1.16432 3.81089 0.946947C3.44378 0.72858 2.4585 0.558075 2.4585 0.558075Z" fill="#9E001F"/>
<path d="M1.24268 18.7899C1.37881 19.119 1.84523 18.3482 2.28822 16.8665C2.28822 16.8665 1.949 18.7501 1.59305 19.2067C1.2371 19.6644 1.24268 18.7889 1.24268 18.7889V18.7899Z" fill="#DD4D12"/>
<path d="M2.49365 20.5147C2.49365 20.5147 3.04599 20.4479 3.36623 19.5784C3.68648 18.709 3.46108 17.5264 3.49121 16.5123C3.52022 15.4993 3.64184 14.5121 3.64184 14.5121C3.64184 14.5121 3.47335 15.5511 3.43765 16.3747C3.40194 17.1984 3.52357 18.5754 3.3071 19.3352C3.09062 20.0949 2.49365 20.5137 2.49365 20.5137V20.5147Z" fill="#DD4D12"/>
<path d="M3.29395 20.2445C3.29395 20.2445 3.82173 19.8626 3.96345 19.4916C4.10627 19.1207 4.15425 18.8336 4.15425 18.8336C4.15425 18.8336 3.83066 19.698 3.29395 20.2445Z" fill="#DD4D12"/>
<g style="mix-blend-mode:multiply" opacity="0.5">
<path d="M1.37074 15.6443C1.66756 14.5584 2.34375 15.735 2.298 16.0601C2.25337 16.3851 2.82356 14.372 2.89497 13.2143C2.96639 12.0577 1.38748 14.1546 1.36963 15.6443H1.37074Z" fill="#B53355"/>
</g>
<g style="mix-blend-mode:multiply" opacity="0.5">
<path d="M2.49282 16.0935C2.48389 16.9002 2.84877 17.6091 3.0061 17.5194C3.16455 17.4306 3.54839 14.5959 3.66221 13.4292C3.77714 12.2626 3.27948 12.3484 3.20695 12.4581C3.13442 12.5677 2.4917 16.0925 2.4917 16.0925L2.49282 16.0935Z" fill="#B53355"/>
</g>
<g style="mix-blend-mode:multiply" opacity="0.5">
<path d="M3.52133 17.6147C3.54141 18.1452 3.83934 18.4263 3.89959 18.4433C3.95985 18.4602 4.2098 16.132 4.13169 14.8866C4.05358 13.6422 4.13615 12.3759 4.08929 12.3988C4.04242 12.4218 3.24683 15.6534 3.52133 17.6147Z" fill="#B53355"/>
</g>
<g style="mix-blend-mode:multiply" opacity="0.5">
<path d="M4.20967 19.2351C4.20409 19.3956 4.18512 19.5253 4.14718 19.6509C3.95749 20.2671 2.21567 20.8773 1.42455 20.4256C1.31966 20.3658 1.24601 20.2591 1.1958 20.1106C1.22035 19.624 1.50823 20.2093 1.99027 20.2491C2.48124 20.292 2.97667 19.9231 3.0068 19.9849C3.03916 20.0487 2.70999 20.311 2.79256 20.3947C2.87513 20.4775 3.83921 19.9211 3.90504 19.7087C3.97088 19.4983 4.19962 19.2062 4.19962 19.2062L4.20855 19.2351H4.20967Z" fill="#7D2B71"/>
</g>
<g style="mix-blend-mode:multiply" opacity="0.5">
<path d="M1.43262 12.0897C1.43262 12.0897 2.4324 12.8883 3.26928 13.0788C4.10615 13.2682 4.30366 11.9541 4.30366 11.9541L4.34941 11.3727C4.34941 11.3727 2.89771 12.5384 1.43708 11.8424L1.43373 12.0907L1.43262 12.0897Z" fill="#7D2B71"/>
</g>
<g style="mix-blend-mode:soft-light" opacity="0.5">
<path d="M0.817273 2.997C0.376519 2.53633 2.18305 2.0308 2.61042 2.13151C3.03778 2.23222 2.97753 3.0309 2.71865 3.14856C2.45978 3.26622 1.277 3.4776 0.818389 2.997H0.817273Z" fill="#DA6666"/>
</g>
<g style="mix-blend-mode:soft-light" opacity="0.5">
<path d="M3.30114 2.87329C3.15385 2.80449 3.59796 2.02076 3.88138 1.90311C4.16368 1.78545 4.29089 2.14141 4.21947 2.42459C4.14806 2.70877 3.47856 2.95505 3.30114 2.87329Z" fill="#DA6666"/>
</g>
<g style="mix-blend-mode:soft-light" opacity="0.5">
<path d="M5.04462 1.87245C4.92188 1.80465 5.31688 0.849419 5.53894 0.614102C5.76099 0.378785 5.74536 1.0299 5.74536 1.0299C5.74536 1.0299 5.2265 1.72687 5.04462 1.87245Z" fill="#DA6666"/>
</g>
<g style="mix-blend-mode:multiply">
<path d="M0.558872 3.31157C0.558872 3.31157 1.167 4.36451 2.45691 4.50012C3.74792 4.63573 5.20409 2.89976 5.42949 2.27358C5.65488 1.6474 5.70844 1.3024 5.70844 1.3024L5.39378 3.27667C5.39378 3.27667 3.78252 4.76236 2.1534 4.76236C0.524281 4.76236 0.634749 3.82907 0.634749 3.82907L0.556641 3.31157H0.558872Z" fill="#B53355"/>
</g>
<path d="M15.1475 10.4507C14.6398 10.2782 14.2604 10.0239 13.9725 9.77561C13.9725 9.77561 13.9703 9.77262 13.9647 9.76764C13.2807 9.17137 13.1289 8.59404 13.0285 9.1584C12.9024 9.86735 12.9604 11.373 10.837 11.6651C10.8035 11.6701 10.7689 11.6731 10.7355 11.6771C10.4744 11.707 10.1831 11.719 9.85618 11.711C6.73073 11.6272 4.76575 10.9721 4.76575 10.9721C4.48233 11.5345 4.03264 11.8536 3.53833 12.0131C2.3734 12.388 0.969683 11.8656 0.969683 11.5345C0.969683 10.0398 0.637164 7.70462 0.362669 6.02549C0.187483 4.93765 0.0357302 4.12501 0.0134135 3.99439C0.00560267 3.94852 2.34993e-05 3.90465 2.34993e-05 3.86476C-0.00220817 3.6125 0.154009 3.45296 0.684029 3.30938C2.09333 6.63273 5.49885 2.71709 5.49885 2.71709L5.56468 2.23051C5.6573 2.12681 5.7488 2.04205 5.94072 1.89648C5.95188 1.8865 5.9675 1.87653 5.98201 1.86457C6.50979 1.47171 7.34221 1.08682 8.21033 1.47869C9.67207 2.13478 10.8939 5.22183 12.2217 4.66743C13.5518 4.11304 13.5273 2.04305 14.0975 2.26939C14.6688 2.49773 15.4499 4.03128 16.3057 7.30379C17.0723 10.2353 18.1323 9.22322 18.5251 9.14444C18.5697 9.13248 18.6054 9.13647 18.6322 9.1594C18.8799 9.38475 17.2977 11.1865 15.1486 10.4526L15.1475 10.4507Z" fill="#07B50F"/>
<g style="mix-blend-mode:soft-light" opacity="0.5">
<path d="M3.46692 5.12709C1.48966 5.30358 0.200873 4.45205 2.34993e-05 3.86276C-0.00220817 3.61049 0.154009 3.45095 0.684029 3.30737C2.09333 6.63073 5.39285 2.84272 5.39285 2.84272C5.39285 2.84272 5.43078 2.79386 5.49773 2.71509C5.70416 2.90155 5.83583 4.9177 3.46692 5.12809V5.12709Z" fill="#DA6666"/>
</g>
<g style="mix-blend-mode:multiply" opacity="0.3">
<path d="M4.76123 10.9704C4.76123 10.9704 4.99779 6.281 5.3794 4.77039C5.7599 3.25977 5.49322 2.71535 5.49322 2.71535C5.49322 2.71535 6.69832 1.64047 7.96813 2.12606C9.23795 2.61165 9.84273 4.27582 10.0335 6.48541C10.2232 8.695 9.29821 10.9854 8.3955 11.3782C7.49391 11.7711 4.76235 10.9704 4.76235 10.9704H4.76123Z" fill="#A50425"/>
</g>
<g style="mix-blend-mode:multiply" opacity="0.5">
<path d="M13.0387 8.51149C12.9551 7.7846 13.4505 6.26999 13.6101 5.38257C13.87 3.93078 13.8343 3.02341 14.0519 2.90775C14.534 2.65149 15.6297 4.93587 15.5583 7.47849C15.4869 10.0211 14.467 10.0191 14.2226 9.92638C13.6 9.68808 13.0387 8.51249 13.0387 8.51249V8.51149Z" fill="#07B50F"/>
</g>
<g style="mix-blend-mode:multiply" opacity="0.5">
<path d="M15.899 10.5159C15.5431 10.4311 17.2347 10.1828 18.1597 9.42703C19.0859 8.67222 18.2668 10.814 15.899 10.5159Z" fill="#823D65"/>
</g>
<path d="M18.5235 9.14335C18.2569 9.41356 17.9556 9.65586 17.6588 9.75657C16.8241 10.0407 16.2327 9.69275 15.8455 7.81022C15.4584 5.92668 14.6181 2.50261 14.0491 2.90844C13.48 3.31326 14.0323 5.68239 12.97 5.61957C11.91 5.55775 10.0365 3.88062 8.75331 2.65118C7.50692 1.45765 5.54194 2.22143 5.93806 1.89538C5.94922 1.88541 5.96484 1.87543 5.97934 1.86347C6.50713 1.47061 7.33955 1.08573 8.20766 1.47759C9.66941 2.13369 11.3086 4.96746 12.6364 4.41307C13.9665 3.85868 13.0269 1.43272 13.596 1.66006C14.1673 1.8884 15.2698 2.70403 16.3019 7.30269C16.9647 10.2541 18.1285 9.22212 18.5213 9.14335H18.5235Z" fill="#07B50F"/>
<g style="mix-blend-mode:multiply" opacity="0.2">
<path d="M5.24125 4.41265C4.27048 4.96305 3.87101 5.18541 3.46485 7.66721C3.05868 10.149 2.75518 11.7553 3.04083 12.0096C3.32537 12.2639 3.7505 11.2847 3.85316 10.8051C4.48249 7.85267 5.24125 4.41165 5.24125 4.41165V4.41265Z" fill="#823D65"/>
</g>
<g style="mix-blend-mode:soft-light">
<path d="M0.746318 4.61868C0.0355316 4.12013 0.811036 9.0588 1.43702 10.0808C2.063 11.1029 3.16656 8.28704 3.52251 6.82428C3.87846 5.36053 3.89966 5.3705 3.80817 5.23489C3.71667 5.09929 2.34977 5.37249 0.746318 4.61868Z" fill="#DA6666"/>
</g>
<g style="mix-blend-mode:soft-light">
<path d="M1.19907 4.83689C0.377816 4.42808 1.03951 4.5567 2.1665 4.63747C3.29349 4.71824 4.24083 3.87568 4.54992 3.99533C4.86012 4.11399 4.80768 4.92862 3.7242 5.09913C2.64073 5.27063 1.47914 4.97549 1.19907 4.83689Z" fill="#DA6666"/>
</g>
<g style="mix-blend-mode:soft-light" opacity="0.5">
<path d="M8.64626 1.74844C8.00912 1.71154 9.65051 3.21917 10.2888 4.04677C10.9281 4.87337 12.6186 5.01097 12.545 4.77266C12.4713 4.53435 11.2819 4.60116 10.349 3.63097C9.41618 2.66079 9.01895 1.77037 8.64514 1.74844H8.64626Z" fill="#DA6666"/>
</g>
<g style="mix-blend-mode:soft-light" opacity="0.5">
<path d="M15.0501 3.55794C14.7678 3.46521 15.2375 5.40857 15.772 7.0897C16.3065 8.77082 16.5832 8.65117 16.5832 8.65117C16.5832 8.65117 15.9751 6.62205 15.772 5.57609C15.5689 4.53112 15.0501 3.55695 15.0501 3.55695V3.55794Z" fill="#DA6666"/>
</g>
<g style="mix-blend-mode:multiply" opacity="0.3">
<path d="M5.49601 2.7161C6.6654 1.717 8.49648 1.82568 9.05998 3.02719C9.62236 4.22871 7.02916 5.05132 5.88543 6.48117C4.74282 7.91102 5.7069 10.5603 6.05058 10.9552C6.39425 11.35 4.76514 10.9711 4.76514 10.9711C4.76514 10.9711 5.02513 6.48915 5.38331 4.77113C5.74038 3.05312 5.49712 2.7161 5.49712 2.7161H5.49601Z" fill="#07B50F"/>
</g>
<g style="mix-blend-mode:soft-light">
<path d="M4.77308 10.9761C4.58897 11.5016 3.75767 11.9523 3.65279 11.7967C3.5479 11.6412 4.31782 8.73759 4.71283 7.09635C5.10783 5.45511 5.29529 4.05517 5.42027 4.08409C5.54524 4.113 5.21607 5.54984 4.95943 7.72453C4.70279 9.89822 4.89025 10.6421 4.77308 10.9761Z" fill="#DA6666"/>
</g>
<g style="mix-blend-mode:multiply" opacity="0.5">
<path d="M3.54724 12.0103C2.38231 12.3852 0.978595 11.8627 0.978595 11.5317C0.978595 10.037 0.646077 7.70179 0.371582 6.02266L0.384972 5.87509C0.384972 5.87509 1.12923 8.66898 1.19841 9.7658C1.26983 10.8626 0.922804 11.2136 1.19841 11.5945C1.52647 12.0492 2.94581 12.1349 3.54724 12.0103Z" fill="#823D65"/>
</g>
<g style="mix-blend-mode:multiply">
<path d="M0.564251 3.30817C0.385718 1.66095 1.3855 4.64629 2.46228 4.6403C2.46228 4.6403 1.09874 4.81181 0.564251 3.30817Z" fill="#B53355"/>
</g>
<g style="mix-blend-mode:multiply" opacity="0.5">
<path d="M13.311 7.3642C13.1302 8.8449 13.879 9.67848 13.9626 9.76723C13.2786 9.17096 13.1269 8.59363 13.0265 9.15799C12.9004 9.86694 12.9584 11.3726 10.835 11.6647C11.7533 11.5221 12.6069 10.5141 12.8479 9.59074C13.0979 8.63551 13.2853 6.62634 13.6669 5.12968C14.0463 3.63402 13.5844 2.93605 14.1959 2.8842C14.2829 2.87622 14.3086 3.97404 14.1133 4.41177C13.9158 4.85049 13.5029 5.79575 13.311 7.3642Z" fill="#823D65"/>
</g>
<path d="M11.4144 4.91715C10.322 4.37971 10.2539 8.6563 10.8297 9.84186C11.4055 11.0274 12.7199 9.39415 12.9966 7.62728C13.2711 5.87636 13.9306 5.34092 13.1774 5.38479C12.4242 5.42766 11.4144 4.91715 11.4144 4.91715Z" fill="#07B50F"/>
<g style="mix-blend-mode:multiply" opacity="0.3">
<path d="M9.48751 4.19998C8.94521 4.49113 8.15185 9.85158 7.83496 10.9544C7.51694 12.0572 9.84569 10.5605 10.07 7.85736C10.2943 5.15321 9.65823 4.10824 9.48751 4.19998Z" fill="#07B50F"/>
</g>
<g style="mix-blend-mode:multiply" opacity="0.5">
<path d="M10.8364 11.6663C10.8029 11.6713 10.7683 11.6743 10.7348 11.6783C10.4737 11.7082 10.1825 11.7202 9.85557 11.7122C6.73012 11.6285 4.76514 10.9734 4.76514 10.9734C4.76514 10.9734 4.89123 9.41987 4.92135 8.57232C4.95148 7.72279 5.44356 9.9593 6.01264 10.7181C6.76025 11.7152 10.8364 11.6663 10.8364 11.6663Z" fill="#823D65"/>
</g>
<g style="mix-blend-mode:multiply" opacity="0.5">
<path d="M5.57002 2.22695C6.4214 1.47214 6.54637 2.08935 6.96035 2.12425C7.37432 2.16014 5.92039 3.35268 5.71285 3.87816C5.5053 4.40363 5.17725 6.02692 5.17725 6.02692C5.17725 6.02692 5.4841 4.15735 5.55663 3.60395C5.5901 3.34869 5.60796 2.88604 5.50419 2.71354C5.49972 2.40643 5.57002 2.22695 5.57002 2.22695Z" fill="#823D65"/>
</g>
</svg>
