<svg width="25" height="25" viewBox="0 0 25 25" fill="none" xmlns="http://www.w3.org/2000/svg">
<g clip-path="url(#clip0_1015_55006)">
<path fill-rule="evenodd" clip-rule="evenodd" d="M24.04 12.2614C24.04 11.4459 23.9668 10.6618 23.8309 9.90906H13V14.3575H19.1891C18.9225 15.795 18.1123 17.013 16.8943 17.8284V20.7139H20.6109C22.7855 18.7118 24.04 15.7636 24.04 12.2614Z" fill="white"/>
<path fill-rule="evenodd" clip-rule="evenodd" d="M12.9995 23.4998C16.1045 23.4998 18.7077 22.47 20.6104 20.7137L16.8938 17.8282C15.864 18.5182 14.5467 18.9259 12.9995 18.9259C10.0042 18.9259 7.46902 16.903 6.5647 14.1848H2.72266V17.1644C4.61493 20.9228 8.50402 23.4998 12.9995 23.4998Z" fill="white"/>
<path fill-rule="evenodd" clip-rule="evenodd" d="M6.56523 14.185C6.33523 13.495 6.20455 12.7579 6.20455 12C6.20455 11.242 6.33523 10.505 6.56523 9.815V6.83545H2.72318C1.94432 8.38795 1.5 10.1443 1.5 12C1.5 13.8556 1.94432 15.612 2.72318 17.1645L6.56523 14.185Z" fill="white"/>
<path fill-rule="evenodd" clip-rule="evenodd" d="M12.9995 5.07386C14.6879 5.07386 16.2038 5.65409 17.3956 6.79364L20.694 3.49523C18.7024 1.63955 16.0992 0.5 12.9995 0.5C8.50402 0.5 4.61493 3.07705 2.72266 6.83545L6.5647 9.815C7.46902 7.09682 10.0042 5.07386 12.9995 5.07386Z" fill="white"/>
</g>
<defs>
<clipPath id="clip0_1015_55006">
<rect width="24" height="24" fill="white" transform="translate(0.5 0.5)"/>
</clipPath>
</defs>
</svg>
