<svg width="23" height="24" viewBox="0 0 23 24" fill="none" xmlns="http://www.w3.org/2000/svg">
<path d="M16.1652 1.92786C16.1652 1.92786 15.3068 1.67246 14.9211 5.22946C14.5354 8.78647 16.5522 3.58214 16.4964 3.15957C16.4405 2.737 16.1652 1.92786 16.1652 1.92786Z" fill="#FEC84B"/>
<path d="M5.23554 22.3896C5.22904 22.5765 5.20697 22.7274 5.16281 22.8737C4.94205 23.5911 2.91489 24.3016 1.99416 23.7757C1.87209 23.706 1.78638 23.5818 1.72794 23.4088C1.35004 22.2746 2.16947 18.973 1.99416 14.0183C1.79287 8.30433 0.777344 2.56134 0.777344 2.56134C0.777344 2.56134 5.73681 -0.365293 7.08868 0.802575C7.08868 0.802575 5.2719 12.227 5.16152 16.7708C5.07191 20.3893 5.26411 21.6605 5.23424 22.3896H5.23554Z" fill="#ACB40B"/>
<path d="M0.778566 2.56125C1.23828 5.44377 6.82628 2.78879 7.08991 0.802484C7.35353 -1.18382 0.521437 0.946436 0.778566 2.56125Z" fill="#E2791C"/>
<g style="mix-blend-mode:multiply" opacity="0.5">
<path d="M1.78809 23.5521C2.21404 24.4286 3.7607 23.1806 4.23081 18.9317C4.51131 16.3882 4.93207 14.0641 5.22296 12.6083C5.41905 11.632 5.55671 11.0469 5.55671 11.0469C5.55671 11.0469 4.4243 17.0418 4.36846 19.0025C4.31262 20.9633 4.46586 22.1985 3.93342 23.2143C3.40098 24.2301 2.21793 24.1686 1.78809 23.5533V23.5521Z" fill="#960052"/>
</g>
<g style="mix-blend-mode:multiply" opacity="0.5">
<path d="M3.99316 23.7397C3.99316 23.7397 4.89441 22.6972 5.01778 20.921C5.14115 19.1448 5.14894 17.3965 5.14894 17.3965C5.14894 17.3965 5.24374 20.4067 5.21907 21.5792C5.1944 22.7517 3.99316 23.7397 3.99316 23.7397Z" fill="#960052"/>
</g>
<g style="mix-blend-mode:multiply" opacity="0.5">
<path d="M1.76562 20.3579C2.02015 22.6391 3.63305 18.6468 4.18886 10.9151C4.74467 3.18354 5.24595 3.72452 5.32776 2.61702C5.41087 1.50835 3.19411 0.65625 3.19411 0.65625C3.19411 0.65625 5.37191 1.04515 5.98227 1.91583C6.59262 2.78651 4.70701 6.21698 4.4382 10.6493C4.16938 15.0816 2.78115 21.4596 2.1591 22.0099C1.53706 22.5602 1.76562 20.3568 1.76562 20.3568V20.3579Z" fill="#960052"/>
</g>
<g style="mix-blend-mode:multiply" opacity="0.3">
<path d="M1.97276 17.3902C1.93121 18.1726 3.98304 12.9497 3.91292 8.43266C3.84279 3.91559 4.14667 4.402 4.14667 3.26548C4.14667 2.12896 2.74285 1.08879 1.40137 1.53573C1.40137 1.53573 2.72597 1.21068 3.52592 2.03028C4.32718 2.84988 3.49865 3.84361 3.41554 5.87519C3.33243 7.90677 2.6974 13.745 2.43508 14.8536C2.17275 15.9611 2.01432 15.9553 2.01432 15.9553L1.97276 17.3902Z" fill="#960052"/>
</g>
<path d="M3.52711 2.03125C3.52711 2.03125 4.1024 2.55017 4.14655 3.20144C4.19071 3.85271 3.67256 4.6723 3.52711 5.15176C3.38166 5.63121 3.81021 3.7726 3.83748 3.10625C3.86605 2.43989 3.52711 2.03125 3.52711 2.03125Z" fill="#9E001F"/>
<path d="M3.19531 0.65625C3.19531 0.65625 4.54069 1.16821 4.94587 1.74634C5.35104 2.32447 5.1965 1.36208 4.76925 1.109C4.342 0.854764 3.19531 0.65625 3.19531 0.65625Z" fill="#9E001F"/>
<path d="M1.792 21.8722C1.95043 22.2553 2.49326 21.3579 3.00881 19.6328C3.00881 19.6328 2.61403 21.8258 2.19977 22.3575C1.78551 22.8903 1.792 21.871 1.792 21.871V21.8722Z" fill="#DD4D12"/>
<path d="M3.24707 23.8851C3.24707 23.8851 3.88989 23.8073 4.2626 22.795C4.63531 21.7827 4.37298 20.4059 4.40805 19.2253C4.44181 18.0458 4.58336 16.8965 4.58336 16.8965C4.58336 16.8965 4.38727 18.1061 4.34571 19.0651C4.30415 20.024 4.44571 21.6272 4.19377 22.5118C3.94184 23.3964 3.24707 23.884 3.24707 23.884V23.8851Z" fill="#DD4D12"/>
<path d="M4.17676 23.5714C4.17676 23.5714 4.79101 23.1268 4.95594 22.6949C5.12216 22.2631 5.178 21.9287 5.178 21.9287C5.178 21.9287 4.8014 22.9352 4.17676 23.5714Z" fill="#DD4D12"/>
<g style="mix-blend-mode:multiply" opacity="0.5">
<path d="M1.93001 18.2068C2.27545 16.9426 3.06241 18.3125 3.00917 18.6909C2.95723 19.0694 3.62083 16.7255 3.70394 15.3777C3.78705 14.0311 1.94949 16.4724 1.92871 18.2068H1.93001Z" fill="#B53355"/>
</g>
<g style="mix-blend-mode:multiply" opacity="0.5">
<path d="M3.24739 18.7317C3.237 19.6708 3.66166 20.4962 3.84476 20.3917C4.02917 20.2884 4.4759 16.988 4.60836 15.6297C4.74212 14.2715 4.16293 14.3713 4.07852 14.499C3.9941 14.6267 3.24609 18.7305 3.24609 18.7305L3.24739 18.7317Z" fill="#B53355"/>
</g>
<g style="mix-blend-mode:multiply" opacity="0.5">
<path d="M4.43894 20.5027C4.46232 21.1203 4.80905 21.4477 4.87918 21.4674C4.94931 21.4872 5.2402 18.7765 5.14929 17.3265C5.05839 15.8777 5.15449 14.4033 5.09995 14.43C5.0454 14.4567 4.11948 18.2192 4.43894 20.5027Z" fill="#B53355"/>
</g>
<g style="mix-blend-mode:multiply" opacity="0.5">
<path d="M5.23514 22.3891C5.22864 22.576 5.20657 22.727 5.16241 22.8732C4.94165 23.5907 2.91449 24.3011 1.99376 23.7753C1.87169 23.7056 1.78598 23.5814 1.72754 23.4084C1.75611 22.8419 2.09116 23.5233 2.65216 23.5698C3.22356 23.6197 3.80015 23.1902 3.83521 23.2621C3.87287 23.3364 3.48978 23.6417 3.58588 23.7393C3.68198 23.8356 4.80399 23.1878 4.88061 22.9406C4.95723 22.6956 5.22345 22.3555 5.22345 22.3555L5.23384 22.3891H5.23514Z" fill="#7D2B71"/>
</g>
<g style="mix-blend-mode:multiply" opacity="0.5">
<path d="M2.01074 14.0798C2.01074 14.0798 3.17431 15.0097 4.14829 15.2314C5.12226 15.452 5.35212 13.9219 5.35212 13.9219L5.40536 13.2451C5.40536 13.2451 3.71584 14.6022 2.01594 13.7919L2.01204 14.081L2.01074 14.0798Z" fill="#7D2B71"/>
</g>
<g style="mix-blend-mode:soft-light" opacity="0.5">
<path d="M1.28508 3.49539C0.772118 2.95906 2.8746 2.37048 3.37197 2.48773C3.86935 2.60498 3.79922 3.53487 3.49794 3.67185C3.19666 3.80884 1.82011 4.05495 1.28638 3.49539H1.28508Z" fill="white"/>
</g>
<g style="mix-blend-mode:soft-light" opacity="0.5">
<path d="M4.18727 3.34102C4.01585 3.26092 4.53271 2.34845 4.86256 2.21147C5.19111 2.07448 5.33915 2.48892 5.25604 2.81862C5.17293 3.14948 4.39375 3.43622 4.18727 3.34102Z" fill="white"/>
</g>
<g style="mix-blend-mode:soft-light" opacity="0.5">
<path d="M6.21052 2.1849C6.06767 2.10596 6.52739 0.993817 6.78581 0.719844C7.04424 0.445871 7.02606 1.20394 7.02606 1.20394C7.02606 1.20394 6.4222 2.01541 6.21052 2.1849Z" fill="white"/>
</g>
<g style="mix-blend-mode:multiply">
<path d="M0.985019 3.84606C0.985019 3.84606 1.69277 5.07197 3.19399 5.22985C4.6965 5.38773 6.39121 3.3666 6.65354 2.63756C6.91586 1.90851 6.9782 1.50684 6.9782 1.50684L6.61198 3.80542C6.61198 3.80542 4.73676 5.53517 2.84076 5.53517C0.944762 5.53517 1.07333 4.44856 1.07333 4.44856L0.982422 3.84606H0.985019Z" fill="#B53355"/>
</g>
<path d="M17.9678 12.1648C17.3769 11.9639 16.9354 11.6679 16.6003 11.3788C16.6003 11.3788 16.5977 11.3754 16.5912 11.3696C15.7952 10.6753 15.6186 10.0032 15.5017 10.6602C15.3549 11.4856 15.4225 13.2386 12.9512 13.5788C12.9122 13.5846 12.872 13.588 12.833 13.5927C12.5291 13.6275 12.1902 13.6414 11.8097 13.6322C8.17223 13.5346 5.88534 12.7719 5.88534 12.7719C5.55549 13.4267 5.03214 13.7982 4.45685 13.9839C3.10108 14.4204 1.4674 13.8121 1.4674 13.4267C1.4674 11.6865 1.08041 8.96764 0.760949 7.01268C0.557064 5.74614 0.380451 4.8 0.354478 4.64792C0.345388 4.59452 0.338895 4.54344 0.338895 4.49701C0.336297 4.2033 0.518105 4.01755 1.13495 3.85038C2.77512 7.71967 6.73854 3.16081 6.73854 3.16081L6.81516 2.59429C6.92295 2.47355 7.02943 2.37488 7.2528 2.20538C7.26579 2.19377 7.28397 2.18217 7.30085 2.16823C7.9151 1.71084 8.88388 1.26273 9.89421 1.71897C11.5954 2.48284 13.0174 6.077 14.5628 5.43153C16.1108 4.78607 16.0822 2.37604 16.7458 2.63956C17.4107 2.90541 18.3197 4.69088 19.3158 8.50096C20.2079 11.914 21.4416 10.7357 21.8987 10.644C21.9507 10.6301 21.9922 10.6347 22.0234 10.6614C22.3117 10.9238 20.4703 13.0215 17.9691 12.1671L17.9678 12.1648Z" fill="#FEC84B"/>
<g style="mix-blend-mode:soft-light" opacity="0.5">
<path d="M4.37374 5.96838C2.07256 6.17386 0.572648 5.18245 0.338895 4.49636C0.336297 4.20265 0.518105 4.0169 1.13495 3.84973C2.77512 7.71902 6.61517 3.30875 6.61517 3.30875C6.61517 3.30875 6.65932 3.25187 6.73724 3.16016C6.97749 3.37725 7.13073 5.72459 4.37374 5.96954V5.96838Z" fill="white"/>
</g>
<g style="mix-blend-mode:multiply" opacity="0.3">
<path d="M5.88672 12.77C5.88672 12.77 6.16203 7.31032 6.60616 5.55155C7.04899 3.79278 6.73862 3.15893 6.73862 3.15893C6.73862 3.15893 8.14114 1.90747 9.61898 2.47283C11.0968 3.03819 11.8007 4.97574 12.0227 7.5483C12.2435 10.1209 11.1669 12.7875 10.1164 13.2449C9.06706 13.7023 5.88802 12.77 5.88802 12.77H5.88672Z" fill="#A50425"/>
</g>
<g style="mix-blend-mode:multiply" opacity="0.5">
<path d="M15.512 9.90657C15.4146 9.06027 15.9912 7.29686 16.1769 6.26366C16.4795 4.57338 16.4379 3.51696 16.6911 3.3823C17.2521 3.08395 18.5274 5.74357 18.4443 8.70388C18.3612 11.6642 17.1742 11.6619 16.8898 11.5539C16.1652 11.2764 15.512 9.90773 15.512 9.90773V9.90657Z" fill="#FEC84B"/>
</g>
<g style="mix-blend-mode:multiply" opacity="0.5">
<path d="M18.8376 12.2417C18.4234 12.143 20.3921 11.8539 21.4687 10.974C22.5465 10.0952 21.5933 12.5888 18.8376 12.2417Z" fill="#823D65"/>
</g>
<path d="M21.897 10.6411C21.5866 10.9557 21.236 11.2378 20.8906 11.355C19.9192 11.6859 19.2309 11.2807 18.7803 9.08893C18.3297 6.89599 17.3518 2.90944 16.6895 3.38193C16.0272 3.85326 16.67 6.61156 15.4337 6.53843C14.2 6.46645 12.0196 4.51381 10.5262 3.08242C9.07564 1.69282 6.78876 2.58207 7.24977 2.20245C7.26276 2.19085 7.28094 2.17924 7.29782 2.16531C7.91207 1.70791 8.88085 1.2598 9.89118 1.71604C11.5924 2.47991 13.5001 5.7792 15.0454 5.13374C16.5934 4.48827 15.5 1.6638 16.1623 1.92848C16.8272 2.19433 18.1102 3.14395 19.3114 8.49803C20.0828 11.9343 21.4373 10.7328 21.8944 10.6411H21.897Z" fill="#FEC84B"/>
<g style="mix-blend-mode:multiply" opacity="0.2">
<path d="M6.44139 5.13397C5.31158 5.77479 4.84667 6.03367 4.37397 8.92316C3.90127 11.8126 3.54804 13.6829 3.88049 13.9789C4.21164 14.2749 4.70642 13.1349 4.82589 12.5765C5.55832 9.13909 6.44139 5.13281 6.44139 5.13281V5.13397Z" fill="#823D65"/>
</g>
<g style="mix-blend-mode:soft-light">
<path d="M1.20779 5.37404C0.380561 4.79359 1.28311 10.5435 2.01164 11.7335C2.74017 12.9234 4.02452 9.64501 4.43878 7.94196C4.85304 6.23775 4.87772 6.24936 4.77123 6.09148C4.66474 5.9336 3.07392 6.25168 1.20779 5.37404Z" fill="white"/>
</g>
<g style="mix-blend-mode:soft-light">
<path d="M1.7264 5.62717C0.770612 5.1512 1.5407 5.30095 2.85231 5.39499C4.16393 5.48902 5.26647 4.50806 5.62619 4.64736C5.98721 4.78551 5.92617 5.73397 4.6652 5.93248C3.40423 6.13216 2.05236 5.78853 1.7264 5.62717Z" fill="white"/>
</g>
<g style="mix-blend-mode:soft-light" opacity="0.5">
<path d="M10.4053 2.03007C9.66373 1.98712 11.574 3.7424 12.3168 4.70595C13.0609 5.66834 15.0284 5.82855 14.9427 5.55109C14.857 5.27363 13.4726 5.35141 12.387 4.22186C11.3013 3.0923 10.839 2.05561 10.404 2.03007H10.4053Z" fill="white"/>
</g>
<g style="mix-blend-mode:soft-light" opacity="0.5">
<path d="M17.8613 4.14142C17.5328 4.03345 18.0795 6.29605 18.7015 8.25333C19.3236 10.2106 19.6456 10.0713 19.6456 10.0713C19.6456 10.0713 18.9379 7.70887 18.7015 6.49108C18.4652 5.27446 17.8613 4.14025 17.8613 4.14025V4.14142Z" fill="white"/>
</g>
<g style="mix-blend-mode:multiply" opacity="0.3">
<path d="M6.7383 3.15952C8.09926 1.9963 10.2303 2.12284 10.8861 3.52173C11.5406 4.92061 8.52261 5.87836 7.19152 7.54309C5.86172 9.20783 6.98374 12.2923 7.38372 12.7521C7.78369 13.2118 5.8877 12.7706 5.8877 12.7706C5.8877 12.7706 6.19028 7.55238 6.60714 5.55214C7.0227 3.55191 6.7396 3.15952 6.7396 3.15952H6.7383Z" fill="#FEC84B"/>
</g>
<g style="mix-blend-mode:soft-light">
<path d="M5.88643 12.7708C5.67215 13.3826 4.70467 13.9073 4.5826 13.7262C4.46053 13.5451 5.35658 10.1645 5.8163 8.25369C6.27601 6.34285 6.49418 4.71294 6.63963 4.74661C6.78508 4.78027 6.40198 6.45313 6.1033 8.98506C5.80461 11.5158 6.02278 12.3819 5.88643 12.7708Z" fill="white"/>
</g>
<g style="mix-blend-mode:multiply" opacity="0.5">
<path d="M4.45957 13.9819C3.1038 14.4184 1.47013 13.8101 1.47013 13.4247C1.47013 11.6845 1.08313 8.96564 0.763672 7.01068L0.779255 6.83887C0.779255 6.83887 1.64544 10.0917 1.72596 11.3687C1.80907 12.6457 1.40519 13.0543 1.72596 13.4978C2.10775 14.0272 3.75961 14.127 4.45957 13.9819Z" fill="#823D65"/>
</g>
<g style="mix-blend-mode:multiply">
<path d="M0.985138 3.8468C0.777357 1.92899 1.94093 5.40473 3.19411 5.39777C3.19411 5.39777 1.60718 5.59744 0.985138 3.8468Z" fill="#B53355"/>
</g>
<g style="mix-blend-mode:multiply" opacity="0.5">
<path d="M15.8328 8.57048C15.6225 10.2944 16.4938 11.2649 16.5912 11.3683C15.7952 10.674 15.6186 10.0019 15.5017 10.6589C15.3549 11.4843 15.4225 13.2373 12.9512 13.5775C14.0199 13.4114 15.0134 12.2378 15.2939 11.1628C15.5848 10.0506 15.803 7.71141 16.2471 5.9689C16.6886 4.22754 16.151 3.41491 16.8626 3.35454C16.9639 3.34526 16.9938 4.62341 16.7665 5.13305C16.5367 5.64384 16.0562 6.74438 15.8328 8.57048Z" fill="#823D65"/>
</g>
<path d="M13.6327 5.72208C12.3614 5.09636 12.2821 10.0755 12.9522 11.4558C13.6223 12.8361 15.1521 10.9345 15.4742 8.87742C15.7936 6.83887 16.5611 6.21547 15.6846 6.26655C14.808 6.31647 13.6327 5.72208 13.6327 5.72208Z" fill="#FEC84B"/>
<g style="mix-blend-mode:multiply" opacity="0.3">
<path d="M11.373 4.88631C10.7418 5.22529 9.81851 11.4663 9.4497 12.7503C9.07959 14.0342 11.7898 12.2917 12.0509 9.1445C12.3119 5.99613 11.5717 4.7795 11.373 4.88631Z" fill="#FEC84B"/>
</g>
<g style="mix-blend-mode:multiply" opacity="0.5">
<path d="M12.9535 13.5779C12.9146 13.5837 12.8743 13.5872 12.8354 13.5918C12.5315 13.6267 12.1925 13.6406 11.812 13.6313C8.17458 13.5338 5.8877 12.7711 5.8877 12.7711C5.8877 12.7711 6.03444 10.9624 6.0695 9.97563C6.10457 8.98654 6.67726 11.5905 7.33956 12.4739C8.20964 13.6348 12.9535 13.5779 12.9535 13.5779Z" fill="#823D65"/>
</g>
<g style="mix-blend-mode:multiply" opacity="0.5">
<path d="M6.81454 2.59197C7.80539 1.71316 7.95084 2.43176 8.43263 2.47239C8.91442 2.51419 7.22231 3.90263 6.98076 4.51442C6.73922 5.12622 6.35742 7.01617 6.35742 7.01617C6.35742 7.01617 6.71455 4.83948 6.79896 4.19517C6.83791 3.89798 6.85869 3.35932 6.73792 3.15849C6.73273 2.80093 6.81454 2.59197 6.81454 2.59197Z" fill="#823D65"/>
</g>
</svg>
