<svg width="34" height="37" viewBox="0 0 34 37" fill="none" xmlns="http://www.w3.org/2000/svg">
<path d="M24.4603 3.34475C24.4603 3.34475 23.1539 2.95605 22.5669 8.36959C21.9799 13.7831 25.0493 5.86247 24.9643 5.21935C24.8793 4.57622 24.4603 3.34475 24.4603 3.34475Z" fill="#C21CFB"/>
<path d="M7.8261 34.4857C7.81621 34.7701 7.78262 34.9998 7.71542 35.2224C7.37942 36.3143 4.29422 37.3956 2.89293 36.5952C2.70715 36.4892 2.5767 36.3002 2.48776 36.0369C1.91262 34.3107 3.15975 29.2859 2.89293 21.7451C2.58658 13.0488 1.04102 4.30838 1.04102 4.30838C1.04102 4.30838 8.589 -0.145767 10.6465 1.63165C10.6465 1.63165 7.88144 19.0189 7.71344 25.9343C7.57707 31.4414 7.86958 33.3761 7.82412 34.4857H7.8261Z" fill="url(#paint0_linear_53_7019)"/>
<path d="M1.04398 4.30821C1.74364 8.69523 10.2482 4.65451 10.6494 1.63148C11.0506 -1.39154 0.652648 1.85057 1.04398 4.30821Z" fill="#E2791C"/>
<g style="mix-blend-mode:multiply" opacity="0.5">
<path d="M2.58203 36.2552C3.2303 37.5891 5.58423 35.6898 6.2997 29.2233C6.7266 25.3522 7.36697 21.815 7.80969 19.5994C8.10813 18.1135 8.31763 17.223 8.31763 17.223C8.31763 17.223 6.59418 26.3469 6.5092 29.331C6.42421 32.3152 6.65743 34.1951 5.84709 35.7411C5.03676 37.287 3.23623 37.1934 2.58203 36.257V36.2552Z" fill="#960052"/>
</g>
<g style="mix-blend-mode:multiply" opacity="0.5">
<path d="M5.9375 36.5396C5.9375 36.5396 7.30914 34.953 7.4969 32.2498C7.68466 29.5466 7.69652 26.8857 7.69652 26.8857C7.69652 26.8857 7.8408 31.4671 7.80325 33.2516C7.7657 35.0361 5.9375 36.5396 5.9375 36.5396Z" fill="#960052"/>
</g>
<g style="mix-blend-mode:multiply" opacity="0.5">
<path d="M2.54484 31.3936C2.93222 34.8654 5.38694 28.7893 6.23285 17.0223C7.07876 5.2553 7.84167 6.07864 7.96618 4.39309C8.09267 2.70578 4.71891 1.40894 4.71891 1.40894C4.71891 1.40894 8.03338 2.00082 8.9623 3.32593C9.89122 4.65105 7.02145 9.872 6.61233 16.6177C6.20321 23.3634 4.0904 33.0703 3.14369 33.9078C2.19698 34.7453 2.54484 31.3919 2.54484 31.3919V31.3936Z" fill="#960052"/>
</g>
<g style="mix-blend-mode:multiply" opacity="0.3">
<path d="M2.86182 26.8768C2.79857 28.0676 5.92133 20.1187 5.8146 13.244C5.70787 6.36931 6.17036 7.10961 6.17036 5.37989C6.17036 3.65018 4.03384 2.06711 1.99219 2.74733C1.99219 2.74733 4.00815 2.25263 5.22563 3.5C6.44508 4.74737 5.18412 6.25977 5.05763 9.3517C4.93114 12.4436 3.96466 21.329 3.56543 23.0163C3.16619 24.7018 2.92506 24.693 2.92506 24.693L2.86182 26.8768Z" fill="#960052"/>
</g>
<path d="M5.2254 3.50085C5.2254 3.50085 6.10096 4.29062 6.16816 5.28181C6.23536 6.27299 5.44676 7.52037 5.2254 8.25006C5.00404 8.97976 5.65627 6.15108 5.69777 5.13693C5.74125 4.12277 5.2254 3.50085 5.2254 3.50085Z" fill="#9E001F"/>
<path d="M4.72266 1.40894C4.72266 1.40894 6.77024 2.1881 7.38688 3.06798C8.00353 3.94785 7.76833 2.48316 7.11809 2.098C6.46784 1.71106 4.72266 1.40894 4.72266 1.40894Z" fill="#9E001F"/>
<path d="M2.5879 33.6986C2.82902 34.2817 3.65517 32.9159 4.43981 30.2904C4.43981 30.2904 3.83898 33.6279 3.2085 34.4371C2.57802 35.2481 2.5879 33.6968 2.5879 33.6968V33.6986Z" fill="#DD4D12"/>
<path d="M4.80078 36.7622C4.80078 36.7622 5.77911 36.6438 6.34635 35.1032C6.91358 33.5625 6.51435 31.4671 6.56771 29.6702C6.6191 27.8751 6.83453 26.126 6.83453 26.126C6.83453 26.126 6.53609 27.967 6.47284 29.4264C6.4096 30.8858 6.62503 33.3258 6.2416 34.6721C5.85817 36.0184 4.80078 36.7605 4.80078 36.7605V36.7622Z" fill="#DD4D12"/>
<path d="M6.2168 36.2842C6.2168 36.2842 7.15165 35.6075 7.40265 34.9503C7.65564 34.293 7.74062 33.7842 7.74062 33.7842C7.74062 33.7842 7.16746 35.316 6.2168 36.2842Z" fill="#DD4D12"/>
<g style="mix-blend-mode:multiply" opacity="0.5">
<path d="M2.7969 28.1191C3.32263 26.195 4.52035 28.2799 4.43931 28.8559C4.36025 29.4319 5.37021 25.8646 5.4967 23.8134C5.62319 21.7639 2.82654 25.4795 2.79492 28.1191H2.7969Z" fill="#B53355"/>
</g>
<g style="mix-blend-mode:multiply" opacity="0.5">
<path d="M4.8008 28.919C4.78499 30.3484 5.43129 31.6046 5.70996 31.4456C5.99062 31.2883 6.67051 26.2653 6.8721 24.1981C7.07568 22.1309 6.19419 22.2829 6.06572 22.4772C5.93725 22.6716 4.79883 28.9173 4.79883 28.9173L4.8008 28.919Z" fill="#B53355"/>
</g>
<g style="mix-blend-mode:multiply" opacity="0.5">
<path d="M6.61545 31.6145C6.65102 32.5544 7.17873 33.0527 7.28546 33.0827C7.39219 33.1127 7.83491 28.9872 7.69656 26.7805C7.55821 24.5755 7.70446 22.3316 7.62145 22.3722C7.53844 22.4129 6.12925 28.1391 6.61545 31.6145Z" fill="#B53355"/>
</g>
<g style="mix-blend-mode:multiply" opacity="0.5">
<path d="M7.82662 34.4847C7.81673 34.7692 7.78314 34.9989 7.71594 35.2215C7.37994 36.3134 4.29474 37.3947 2.89345 36.5943C2.70766 36.4883 2.57722 36.2992 2.48828 36.036C2.53176 35.1738 3.04168 36.2109 3.8955 36.2816C4.76513 36.3575 5.64266 35.7038 5.69603 35.8134C5.75334 35.9264 5.1703 36.3911 5.31655 36.5395C5.46281 36.6862 7.17044 35.7003 7.28705 35.3239C7.40366 34.9511 7.80883 34.4335 7.80883 34.4335L7.82464 34.4847H7.82662Z" fill="#7D2B71"/>
</g>
<g style="mix-blend-mode:multiply" opacity="0.5">
<path d="M2.91992 21.8392C2.91992 21.8392 4.6908 23.2544 6.17313 23.5919C7.65545 23.9276 8.00528 21.5989 8.00528 21.5989L8.08631 20.5688C8.08631 20.5688 5.51497 22.6343 2.92783 21.401L2.9219 21.841L2.91992 21.8392Z" fill="#7D2B71"/>
</g>
<g style="mix-blend-mode:soft-light" opacity="0.5">
<path d="M1.81511 5.72976C1.03442 4.91349 4.23426 4.01771 4.99123 4.19616C5.74821 4.37461 5.64148 5.78983 5.18295 5.99832C4.72442 6.2068 2.6294 6.58137 1.81709 5.72976H1.81511Z" fill="white"/>
</g>
<g style="mix-blend-mode:soft-light" opacity="0.5">
<path d="M6.23136 5.49455C5.97047 5.37263 6.75709 3.98392 7.2591 3.77543C7.75914 3.56695 7.98445 4.1977 7.85796 4.69948C7.73147 5.20302 6.54561 5.63942 6.23136 5.49455Z" fill="white"/>
</g>
<g style="mix-blend-mode:soft-light" opacity="0.5">
<path d="M9.31051 3.73487C9.09311 3.61473 9.79276 1.92212 10.1861 1.50515C10.5794 1.08818 10.5517 2.24191 10.5517 2.24191C10.5517 2.24191 9.63267 3.47692 9.31051 3.73487Z" fill="white"/>
</g>
<g style="mix-blend-mode:multiply">
<path d="M1.35747 6.264C1.35747 6.264 2.43462 8.12976 4.71938 8.37005C7.0061 8.61033 9.58535 5.5343 9.98459 4.42474C10.3838 3.31518 10.4787 2.70386 10.4787 2.70386L9.92134 6.20216C9.92134 6.20216 7.06737 8.83472 4.18179 8.83472C1.2962 8.83472 1.49187 7.18098 1.49187 7.18098L1.35352 6.264H1.35747Z" fill="#B53355"/>
</g>
<path d="M27.2031 18.9237C26.3038 18.618 25.6319 18.1675 25.1219 17.7276C25.1219 17.7276 25.118 17.7223 25.1081 17.7134C23.8966 16.6569 23.6278 15.6339 23.4499 16.6339C23.2265 17.8901 23.3293 20.558 19.5682 21.0757C19.5089 21.0845 19.4476 21.0898 19.3883 21.0969C18.9258 21.1499 18.41 21.1711 17.8309 21.157C12.2949 21.0086 8.81442 19.8478 8.81442 19.8478C8.31241 20.8442 7.51591 21.4096 6.64035 21.6923C4.57695 22.3566 2.09061 21.4308 2.09061 20.8442C2.09061 18.1958 1.50163 14.0579 1.01543 11.0826C0.705129 9.15496 0.436334 7.715 0.396806 7.48355C0.382971 7.40228 0.373088 7.32454 0.373088 7.25386C0.369136 6.80686 0.645836 6.52417 1.58464 6.26975C4.08087 12.1586 10.1129 5.22026 10.1129 5.22026L10.2295 4.35805C10.3936 4.1743 10.5557 4.02412 10.8956 3.76616C10.9154 3.7485 10.943 3.73083 10.9687 3.70963C11.9036 3.0135 13.378 2.33151 14.9157 3.02587C17.5048 4.18843 19.669 9.65851 22.0209 8.67615C24.3768 7.6938 24.3333 4.02589 25.3433 4.42695C26.3552 4.83156 27.7387 7.54892 29.2547 13.3476C30.6125 18.5421 32.4901 16.7488 33.1858 16.6092C33.2648 16.588 33.3281 16.595 33.3755 16.6357C33.8143 17.035 31.0117 20.2276 27.2051 18.9272L27.2031 18.9237Z" fill="#C21CFB"/>
<g style="mix-blend-mode:soft-light" opacity="0.5">
<path d="M6.51385 9.49427C3.01162 9.807 0.728846 8.29814 0.373088 7.25395C0.369136 6.80694 0.645836 6.52425 1.58464 6.26983C4.08087 12.1586 9.92517 5.44649 9.92517 5.44649C9.92517 5.44649 9.99237 5.35992 10.111 5.22034C10.4766 5.55073 10.7098 9.12324 6.51385 9.49604V9.49427Z" fill="white"/>
</g>
<g style="mix-blend-mode:multiply" opacity="0.3">
<path d="M8.81641 19.8453C8.81641 19.8453 9.23541 11.536 9.91135 8.85926C10.5853 6.18252 10.1129 5.21784 10.1129 5.21784C10.1129 5.21784 12.2475 3.31321 14.4967 4.17365C16.7458 5.03409 17.8171 7.98291 18.155 11.8982C18.491 15.8135 16.8526 19.8718 15.2536 20.568C13.6567 21.2641 8.81838 19.8453 8.81838 19.8453H8.81641Z" fill="#A50425"/>
</g>
<g style="mix-blend-mode:multiply" opacity="0.5">
<path d="M23.466 15.4878C23.3177 14.1998 24.1953 11.516 24.4779 9.94357C24.9384 7.37108 24.8751 5.76328 25.2606 5.55832C26.1144 5.10425 28.0552 9.15203 27.9287 13.6574C27.8022 18.1628 25.9958 18.1593 25.5629 17.995C24.4601 17.5727 23.466 15.4896 23.466 15.4896V15.4878Z" fill="#C21CFB"/>
</g>
<g style="mix-blend-mode:multiply" opacity="0.5">
<path d="M28.5272 19.0422C27.8967 18.892 30.893 18.452 32.5315 17.1128C34.1719 15.7753 32.7212 19.5704 28.5272 19.0422Z" fill="#823D65"/>
</g>
<path d="M33.1847 16.6056C32.7124 17.0844 32.1787 17.5138 31.653 17.6922C30.1746 18.1958 29.1271 17.5792 28.4413 14.2434C27.7555 10.9059 26.2672 4.83862 25.2593 5.55771C24.2513 6.27504 25.2296 10.473 23.348 10.3617C21.4704 10.2522 18.152 7.28036 15.8791 5.10187C13.6714 2.98699 10.191 4.34037 10.8926 3.76262C10.9123 3.74496 10.94 3.72729 10.9657 3.70609C11.9006 3.00996 13.375 2.32797 14.9126 3.02233C17.5018 4.18489 20.4051 9.20619 22.7571 8.22384C25.113 7.24149 23.4488 2.94282 24.4568 3.34566C25.4688 3.75026 27.4215 5.19551 29.2497 13.3441C30.4237 18.5739 32.4851 16.7452 33.1808 16.6056H33.1847Z" fill="#C21CFB"/>
<g style="mix-blend-mode:multiply" opacity="0.2">
<path d="M9.66057 8.22357C7.94107 9.19885 7.23351 9.59285 6.51409 13.9905C5.79467 18.3881 5.25708 21.2344 5.76305 21.685C6.26704 22.1355 7.02006 20.4005 7.20189 19.5506C8.31659 14.3191 9.66057 8.2218 9.66057 8.2218V8.22357Z" fill="#823D65"/>
</g>
<g style="mix-blend-mode:soft-light">
<path d="M1.69538 8.58918C0.436396 7.70578 1.81001 16.4568 2.91879 18.2678C4.02757 20.0788 5.98226 15.0893 6.61274 12.4974C7.24322 9.9037 7.28077 9.92137 7.11871 9.68108C6.95664 9.44079 4.53551 9.9249 1.69538 8.58918Z" fill="white"/>
</g>
<g style="mix-blend-mode:soft-light">
<path d="M2.48324 8.97377C1.02859 8.24937 2.20061 8.47729 4.1968 8.62041C6.193 8.76352 7.87099 7.27056 8.41846 7.48257C8.9679 7.69283 8.87501 9.13632 6.9559 9.43844C5.03679 9.74234 2.97932 9.21936 2.48324 8.97377Z" fill="white"/>
</g>
<g style="mix-blend-mode:soft-light" opacity="0.5">
<path d="M15.6951 3.50032C14.5665 3.43495 17.4738 6.10638 18.6044 7.57284C19.7369 9.03753 22.7311 9.28136 22.6007 8.85909C22.4703 8.43682 20.3634 8.55519 18.7111 6.83608C17.0588 5.11696 16.3552 3.53919 15.6931 3.50032H15.6951Z" fill="white"/>
</g>
<g style="mix-blend-mode:soft-light" opacity="0.5">
<path d="M27.0407 6.7133C26.5407 6.54899 27.3727 9.99252 28.3195 12.9714C29.2662 15.9502 29.7563 15.7382 29.7563 15.7382C29.7563 15.7382 28.6792 12.1427 28.3195 10.2893C27.9597 8.43772 27.0407 6.71154 27.0407 6.71154V6.7133Z" fill="white"/>
</g>
<g style="mix-blend-mode:multiply" opacity="0.3">
<path d="M10.1129 5.21813C12.1842 3.44777 15.4275 3.64036 16.4256 5.76938C17.4218 7.89839 12.8285 9.35602 10.8027 11.8896C8.77883 14.4233 10.4865 19.1177 11.0952 19.8174C11.7039 20.517 8.81836 19.8456 8.81836 19.8456C8.81836 19.8456 9.27887 11.9038 9.9133 8.85954C10.5458 5.81531 10.1149 5.21813 10.1149 5.21813H10.1129Z" fill="#C21CFB"/>
</g>
<g style="mix-blend-mode:soft-light">
<path d="M8.81601 19.8463C8.48989 20.7774 7.01745 21.576 6.83167 21.3004C6.64589 21.0248 8.00962 15.8798 8.70928 12.9716C9.40893 10.0635 9.74097 7.58284 9.96233 7.63408C10.1837 7.68532 9.60065 10.2313 9.14607 14.0847C8.69149 17.9364 9.02353 19.2544 8.81601 19.8463Z" fill="white"/>
</g>
<g style="mix-blend-mode:multiply" opacity="0.5">
<path d="M6.64445 21.6898C4.58106 22.3542 2.09471 21.4284 2.09471 20.8418C2.09471 18.1933 1.50573 14.0554 1.01953 11.0801L1.04325 10.8186C1.04325 10.8186 2.36153 15.7692 2.48407 17.7127C2.61056 19.6562 1.99589 20.2782 2.48407 20.9531C3.06514 21.7587 5.57915 21.9107 6.64445 21.6898Z" fill="#823D65"/>
</g>
<g style="mix-blend-mode:multiply">
<path d="M1.35714 6.26468C1.04092 3.34589 2.8118 8.63575 4.71905 8.62515C4.71905 8.62515 2.30385 8.92904 1.35714 6.26468Z" fill="#B53355"/>
</g>
<g style="mix-blend-mode:multiply" opacity="0.5">
<path d="M23.9541 13.4545C23.6339 16.0782 24.9601 17.5553 25.1083 17.7125C23.8967 16.656 23.6279 15.633 23.4501 16.633C23.2267 17.8892 23.3295 20.5571 19.5684 21.0748C21.195 20.8221 22.7069 19.0359 23.1338 17.3998C23.5766 15.7072 23.9086 12.1471 24.5845 9.49507C25.2565 6.84484 24.4383 5.60806 25.5214 5.51619C25.6755 5.50206 25.721 7.44732 25.3751 8.22296C25.0253 9.00036 24.294 10.6753 23.9541 13.4545Z" fill="#823D65"/>
</g>
<path d="M20.6064 9.11935C18.6715 8.16703 18.5509 15.7449 19.5708 17.8457C20.5906 19.9464 22.9189 17.0524 23.409 13.9216C23.8952 10.819 25.0633 9.87024 23.7292 9.94798C22.3951 10.024 20.6064 9.11935 20.6064 9.11935Z" fill="#C21CFB"/>
<g style="mix-blend-mode:multiply" opacity="0.3">
<path d="M17.1673 7.84645C16.2068 8.36236 14.8016 17.8608 14.2403 19.8149C13.677 21.769 17.8018 19.117 18.199 14.3271C18.5963 9.53553 17.4697 7.6839 17.1673 7.84645Z" fill="#C21CFB"/>
</g>
<g style="mix-blend-mode:multiply" opacity="0.5">
<path d="M19.5721 21.0741C19.5128 21.083 19.4516 21.0883 19.3923 21.0953C18.9298 21.1484 18.4139 21.1696 17.8348 21.1554C12.2989 21.007 8.81836 19.8462 8.81836 19.8462C8.81836 19.8462 9.0417 17.0935 9.09506 15.5917C9.14842 14.0864 10.02 18.0494 11.028 19.3939C12.3522 21.1607 19.5721 21.0741 19.5721 21.0741Z" fill="#823D65"/>
</g>
<g style="mix-blend-mode:multiply" opacity="0.5">
<path d="M10.227 4.35525C11.735 3.01777 11.9563 4.11143 12.6896 4.17327C13.4228 4.23687 10.8476 6.34999 10.4799 7.2811C10.1123 8.21222 9.53125 11.0886 9.53125 11.0886C9.53125 11.0886 10.0748 7.77581 10.2032 6.79523C10.2625 6.34292 10.2942 5.52312 10.1103 5.21746C10.1024 4.67328 10.227 4.35525 10.227 4.35525Z" fill="#823D65"/>
</g>
<defs>
<linearGradient id="paint0_linear_53_7019" x1="5.84571" y1="36.8709" x2="5.84571" y2="1.21292" gradientUnits="userSpaceOnUse">
<stop stop-color="#B42E0B"/>
<stop offset="1" stop-color="#CE5C1F"/>
</linearGradient>
</defs>
</svg>
