<svg fill="none" height="42" viewBox="0 0 38 42" width="38" xmlns="http://www.w3.org/2000/svg">
    <path d="M18.0056 0.972522L2.49219 29.5767L17.8669 37.9151L33.3803 9.31096L18.0056 0.972522Z" fill="#FFF8FB" />
    <path d="M17.5773 1.76188L6.11108 22.9038L21.4858 31.2422L32.9521 10.1003L17.5773 1.76188Z" fill="#FFC0D4" />
    <path d="M15.7299 5.16897L10.0525 15.6372L25.4272 23.9756L31.1046 13.5074L15.7299 5.16897Z" fill="#FF8FB2" />
    <path d="M16.6158 12.56L17.8941 10.2031C18.6695 8.77336 20.443 8.23309 21.852 8.99731L30.0216 13.428L25.9336 20.9658L17.764 16.535C16.3549 15.7708 15.8404 13.9897 16.6158 12.56Z" fill="#8E003A" />
    <path d="M20.4085 14.2566L21.2525 12.7004C21.7646 11.7562 22.9357 11.3994 23.8663 11.9042L29.2611 14.83L26.5615 19.8075L21.1667 16.8817C20.2361 16.377 19.8964 15.2008 20.4085 14.2566Z"
        fill="#FFF8FB"
        opacity="0.5" />
    <path
        d="M24.1596 15.7874L24.5816 15.0093C24.8376 14.5374 25.4233 14.3587 25.8887 14.6111L28.5863 16.0741L27.2365 18.5629L24.539 17.0999C24.0738 16.8476 23.9036 16.2594 24.1598 15.7871L24.1596 15.7874Z"
        fill="#FFF8FB" />
    <path
        d="M6.03974 26.9071C6.1765 26.9813 6.27935 27.0558 6.34738 27.1301C6.41572 27.2046 6.45746 27.2831 6.47213 27.3655C6.48679 27.448 6.47032 27.5331 6.42271 27.6209L6.30488 27.557C6.34157 27.4894 6.34034 27.4154 6.30185 27.3347C6.2632 27.2543 6.14837 27.1619 5.95766 27.0584C5.76695 26.955 5.6258 26.9082 5.53746 26.9201C5.45008 26.9318 5.38756 26.9715 5.35039 27.0393L5.23193 26.9751C5.26674 26.9109 5.31017 26.8612 5.36157 26.8263C5.41297 26.7915 5.4714 26.7711 5.5356 26.7652C5.60028 26.7591 5.67158 26.766 5.74939 26.7846C5.82734 26.8037 5.92407 26.8444 6.03974 26.9071Z"
        fill="#9C7B9E" />
    <path
        d="M5.22918 28.4005L5.31126 28.2492C5.11931 28.1451 5.00462 28.0532 4.96645 27.9726C4.92855 27.893 4.92781 27.8189 4.96435 27.7508L4.8459 27.6865C4.81109 27.7507 4.79308 27.8143 4.79192 27.8763C4.79076 27.9384 4.80551 27.9985 4.83558 28.0556C4.86579 28.1131 4.91047 28.1691 4.96849 28.2241C5.02698 28.2791 5.11351 28.3378 5.22918 28.4005Z"
        fill="#9C7B9E" />
    <path
        d="M5.65254 27.6187C5.7896 27.693 5.89246 27.7675 5.96079 27.842C6.02913 27.9166 6.07088 27.995 6.08554 28.0775C6.10021 28.1599 6.08374 28.2451 6.03613 28.3328L5.91829 28.2689C5.95498 28.2013 5.95376 28.1273 5.91527 28.0466C5.87661 27.9662 5.76179 27.8738 5.57108 27.7703L5.65285 27.6188L5.65254 27.6187Z"
        fill="#9C7B9E" />
    <path
        d="M5.36359 28.7243C5.46344 28.7784 5.52754 28.86 5.55621 28.9692C5.58487 29.0784 5.5668 29.1924 5.50281 29.3104C5.48523 29.3428 5.4662 29.372 5.44523 29.398L5.3187 29.3294C5.3456 29.3057 5.36824 29.2773 5.38599 29.2446C5.42404 29.1744 5.4336 29.1043 5.41431 29.0348C5.39518 28.9649 5.35165 28.912 5.28374 28.8752C5.21583 28.8384 5.14504 28.8305 5.07417 28.8531C5.00361 28.876 4.94906 28.9225 4.9105 28.9936L5.06868 28.702C5.09395 28.6916 5.11957 28.6843 5.14599 28.6808C5.2189 28.6706 5.29133 28.6851 5.36328 28.7241L5.36359 28.7243Z"
        fill="#9C7B9E" />
    <path d="M7.03026 23.3827L5.59277 26.0332L7.2825 26.9496L8.71999 24.2991L7.03026 23.3827Z" fill="#2D559A" />
    <path d="M13.6509 14.7868L14.1373 14.8001L14.4328 14.401L14.56 14.8747L15.0192 15.0284L14.6116 15.3078L14.5997 15.8018L14.2204 15.5008L13.754 15.6526L13.9274 15.1872L13.6509 14.7868Z"
        fill="#C1709A" />
    <path d="M16.5066 13.5968L16.993 13.6102L17.2886 13.211L17.4155 13.685L17.8749 13.8385L17.4673 14.1179L17.4555 14.6119L17.0761 14.3109L16.6097 14.4627L16.7831 13.9972L16.5066 13.5968Z"
        fill="#C1709A"
        opacity="0.61" />
    <path d="M19.5889 14.0309L20.075 14.0441L20.3708 13.6451L20.498 14.1188L20.957 14.2721L20.5493 14.5518L20.5374 15.0458L20.1586 14.7446L19.692 14.8967L19.8653 14.4308L19.5889 14.0309Z"
        fill="#C1709A"
        opacity="0.61" />
    <path d="M22.011 16.0392L22.4974 16.0526L22.7931 15.6531L22.9201 16.1271L23.3795 16.2806L22.9717 16.5603L22.9599 17.0542L22.5807 16.7529L22.1141 16.905L22.2877 16.4393L22.011 16.0392Z"
        fill="#C1709A"
        opacity="0.61" />
    <path d="M23.0252 18.9274L23.5114 18.9411L23.8071 18.5416L23.9341 19.0156L24.3934 19.1691L23.9856 19.4483L23.9738 19.9427L23.5947 19.6414L23.1283 19.7932L23.3017 19.3278L23.0252 18.9274Z"
        fill="#C1709A"
        opacity="0.61" />
    <path d="M22.4424 22.0453L22.9286 22.0589L23.2243 21.6594L23.3513 22.1335L23.8106 22.2869L23.403 22.5663L23.391 23.0606L23.0118 22.7593L22.5453 22.9114L22.7188 22.4456L22.4424 22.0453Z"
        fill="#C1709A"
        opacity="0.61" />
    <path d="M20.3521 24.4889L20.8385 24.5023L21.134 24.1031L21.2612 24.5768L21.7205 24.7303L21.3128 25.01L21.3009 25.5039L20.9218 25.2026L20.4552 25.3547L20.6287 24.889L20.3521 24.4889Z"
        fill="#C1709A" />
    <path d="M17.3672 25.6803L17.8533 25.6935L18.1492 25.2945L18.2763 25.7682L18.7352 25.9218L18.3276 26.2012L18.3157 26.6952L17.9369 26.394L17.4703 26.5461L17.6434 26.0805L17.3672 25.6803Z"
        fill="#B5869E"
        opacity="0.54" />
    <path d="M14.3135 25.0783L14.7999 25.0917L15.0954 24.6925L15.2224 25.1665L15.6818 25.3199L15.2742 25.5993L15.2623 26.0933L14.883 25.7923L14.4166 25.9441L14.59 25.4787L14.3135 25.0783Z"
        fill="#B5869E"
        opacity="0.22" />
    <path d="M12.1074 22.786L12.5936 22.7997L12.8893 22.4002L13.0163 22.8742L13.4756 23.0276L13.0681 23.307L13.056 23.8013L12.6769 23.5L12.2103 23.6521L12.3839 23.1863L12.1074 22.786Z" fill="#B5869E"
        opacity="0.54" />
    <path d="M11.2396 19.8468L11.7256 19.86L12.0215 19.461L12.1486 19.9347L12.6075 20.0883L12.1999 20.3677L12.1881 20.8617L11.809 20.5609L11.3427 20.7127L11.5157 20.247L11.2396 19.8468Z"
        fill="#B5869E"
        opacity="0.92" />
    <path d="M11.9853 16.7411L12.4715 16.7547L12.7672 16.3552L12.8942 16.8293L13.3533 16.9825L12.9457 17.2619L12.9337 17.7562L12.5548 17.4551L12.0883 17.6072L12.2618 17.1414L11.9853 16.7411Z"
        fill="#C1709A" />
    <path
        d="M16.1128 17.1568L17.0133 17.9347C16.6877 18.0362 16.4133 18.2929 16.1899 18.7048C15.9665 19.1166 15.9293 19.5285 16.0787 19.9397C16.1628 20.1718 16.3104 20.3842 16.5209 20.5769L17.6517 18.4919L18.1577 18.9234L17.0514 20.9632C17.1068 20.9965 17.1784 21.037 17.2671 21.0851C17.3558 21.1332 17.4443 21.1779 17.5403 21.2235L18.5869 19.2938L19.0928 19.7254L18.1552 21.4543C18.4527 21.5339 18.712 21.5487 18.9334 21.4985C19.3607 21.4033 19.6841 21.1532 19.9034 20.7489C20.1665 20.2637 20.2311 19.7983 20.0972 19.3527L21.2259 19.9649C21.2075 20.38 21.0798 20.8063 20.8426 21.2436C20.4423 21.9818 19.8674 22.455 19.1179 22.6634C18.6079 22.8054 18.0753 22.793 17.5199 22.6257L17.2156 23.1867L16.7097 22.7551L16.9112 22.3835C16.8509 22.3541 16.7876 22.3214 16.7209 22.2852C16.6077 22.2238 16.5095 22.1673 16.4261 22.1156L16.1568 22.6121L15.6508 22.1805L15.8955 21.7293C15.4637 21.3579 15.1686 20.9246 15.0106 20.4301C14.7728 19.683 14.865 18.9203 15.2874 18.1416C15.5177 17.7168 15.7928 17.3888 16.1128 17.1568Z"
        fill="#560027" />
    <path
        d="M17.8833 35.594L17.7502 35.8394L15.8753 34.8226C15.9102 34.9144 15.9358 35.0264 15.9525 35.1584C15.9691 35.2904 15.9732 35.4058 15.9647 35.5043L15.6804 35.35C15.6773 35.1737 15.6488 35.0043 15.5948 34.8411C15.5407 34.6782 15.4728 34.5473 15.3912 34.4485L15.4775 34.2893L17.8836 35.5942L17.8833 35.594Z"
        fill="#560027" />
    <path
        d="M16.8573 34.6663C16.4551 34.4481 16.1804 34.2279 16.0333 34.0056C15.8859 33.7831 15.8705 33.5651 15.9869 33.3505C16.0899 33.1605 16.2552 33.0563 16.4823 33.0378C16.7572 33.015 17.1172 33.1244 17.5628 33.366C17.9629 33.583 18.2368 33.8024 18.3851 34.0246C18.5332 34.2466 18.5489 34.4656 18.432 34.6811C18.3289 34.8711 18.153 34.9773 17.904 34.999C17.655 35.0207 17.3066 34.9099 16.8576 34.6664L16.8573 34.6663ZM16.9922 34.4153C17.3816 34.6265 17.6631 34.7299 17.8366 34.7259C18.0102 34.7219 18.1293 34.6606 18.1936 34.542C18.2543 34.43 18.238 34.3002 18.1447 34.1519C18.0512 34.0039 17.8118 33.8252 17.4258 33.6158C17.0397 33.4064 16.7536 33.3005 16.5804 33.3047C16.4071 33.3089 16.288 33.3717 16.2225 33.4925C16.1624 33.6033 16.179 33.7324 16.2727 33.8801C16.3664 34.0279 16.6059 34.2062 16.992 34.4156L16.9922 34.4153Z"
        fill="#560027" />
    <path d="M23.1086 2.7375L1.40015 26.978L14.4294 38.6463L36.1379 14.4058L23.1086 2.7375Z" fill="#F9F5E4" />
    <path d="M22.5098 3.40655L6.4646 21.3232L19.4938 32.9915L35.539 15.0748L22.5098 3.40655Z" fill="#FFEABB" />
    <path d="M19.9239 6.29375L11.9792 15.165L25.0085 26.8333L32.9531 17.962L19.9239 6.29375Z" fill="#FFE98A" />
    <path d="M23.3094 15.2341L20.5496 18.3159L25.9922 23.1901L28.7521 20.1083L23.3094 15.2341Z" fill="#937700" />
    <path d="M25.3937 12.9075L23.2456 15.3062L28.6883 20.1803L30.8364 17.7816L25.3937 12.9075Z" fill="#937700" />
    <path d="M20.5496 18.3162C20.5496 18.3162 20.303 16.5122 21.6843 14.6107C21.9342 14.2665 22.2484 13.9723 22.6042 13.7461C23.2162 13.3572 24.2805 12.8208 25.3936 12.9072" fill="#937700" />
    <path
        d="M5.29099 25.0335C5.40707 25.1375 5.49005 25.2339 5.53916 25.3221C5.58852 25.4105 5.61108 25.4965 5.60634 25.5802C5.6016 25.6639 5.56592 25.7429 5.4993 25.8173L5.39927 25.7277C5.45061 25.6704 5.46648 25.5981 5.44762 25.5106C5.42853 25.4234 5.33801 25.3067 5.17613 25.1618C5.01425 25.0168 4.88758 24.9384 4.79878 24.9295C4.71099 24.9206 4.64092 24.9448 4.58908 25.0022L4.48853 24.9121C4.53724 24.8577 4.59101 24.8194 4.6491 24.7974C4.7072 24.7754 4.76882 24.7691 4.83271 24.7783C4.8971 24.7874 4.96495 24.8107 5.03645 24.8469C5.10797 24.8835 5.19281 24.9456 5.29099 25.0335Z"
        fill="#9C7B9E" />
    <path
        d="M4.15627 26.2993L4.27112 26.171C4.10819 26.0251 4.0177 25.909 3.9991 25.8217C3.98055 25.7354 3.99693 25.6631 4.04824 25.6053L3.94769 25.5152C3.89898 25.5696 3.86679 25.6273 3.85134 25.6875C3.83588 25.7476 3.83638 25.8096 3.85251 25.8721C3.86867 25.9351 3.89927 25.9999 3.94306 26.067C3.98736 26.1341 4.05809 26.2114 4.15627 26.2993Z"
        fill="#9C7B9E" />
    <path
        d="M4.74994 25.6368C4.86628 25.741 4.94926 25.8374 4.99863 25.9259C5.04799 26.0143 5.07056 26.1003 5.06582 26.184C5.06108 26.2677 5.0254 26.3467 4.95877 26.4211L4.85875 26.3315C4.91009 26.2742 4.92596 26.2019 4.9071 26.1144C4.888 26.0271 4.79749 25.9105 4.6356 25.7656L4.7502 25.6371L4.74994 25.6368Z"
        fill="#9C7B9E" />
    <path
        d="M4.21262 26.6451C4.29738 26.721 4.34099 26.8153 4.34371 26.9282C4.34643 27.0412 4.30254 27.1479 4.21299 27.2479C4.1884 27.2754 4.16313 27.2994 4.13669 27.3199L4.02929 27.2237C4.06095 27.2069 4.08956 27.1845 4.1144 27.1567C4.16765 27.0973 4.19313 27.0312 4.19038 26.9591C4.18787 26.8867 4.15768 26.8251 4.10003 26.7734C4.04239 26.7218 3.97526 26.6977 3.90101 26.7033C3.82702 26.7091 3.76315 26.7418 3.70919 26.802L3.93054 26.5549C3.95753 26.5507 3.98416 26.5495 4.01072 26.5522C4.08408 26.5593 4.15129 26.5901 4.21235 26.6448L4.21262 26.6451Z"
        fill="#9C7B9E" />
    <path d="M7.06842 21.833L5.05688 24.0791L6.49118 25.3636L8.50271 23.1174L7.06842 21.833Z" fill="#2D559A" />
    <path d="M15.8803 15.2659L16.3344 15.3876L16.701 15.0788L16.715 15.5526L17.1125 15.7995L16.6671 15.9705L16.5458 16.4322L16.2568 16.0643L15.7843 16.1024L16.0509 15.7041L15.8803 15.2659Z"
        fill="#C6AF6F" />
    <path d="M18.8279 14.7888L19.2819 14.9105L19.6488 14.6015L19.6628 15.0753L20.06 15.3224L19.6146 15.4934L19.4933 15.9551L19.2043 15.5872L18.7318 15.6254L18.9987 15.2268L18.8279 14.7888Z"
        fill="#C6AF6F"
        opacity="0.61" />
    <path d="M21.6296 15.8875L22.0834 16.0089L22.4505 15.7001L22.4645 16.1739L22.862 16.4208L22.4164 16.5921L22.2953 17.0535L22.0061 16.6859L21.5336 16.724L21.8002 16.3252L21.6296 15.8875Z"
        fill="#C6AF6F"
        opacity="0.61" />
    <path d="M23.4587 18.3167L23.9128 18.4384L24.2794 18.1296L24.2936 18.6031L24.6908 18.8502L24.2457 19.0215L24.1242 19.483L23.8352 19.1151L23.3627 19.1532L23.6296 18.7546L23.4587 18.3167Z"
        fill="#C6AF6F"
        opacity="0.61" />
    <path d="M23.7693 21.2581L24.223 21.3795L24.5899 21.071L24.6037 21.5445L25.0014 21.7916L24.556 21.9627L24.4347 22.4244L24.1454 22.0562L23.6732 22.0946L23.9396 21.696L23.7693 21.2581Z"
        fill="#C6AF6F"
        opacity="0.61" />
    <path d="M22.5271 24.0569L22.9811 24.1786L23.3478 23.8698L23.3617 24.3436L23.7592 24.5905L23.3141 24.7617L23.1926 25.2232L22.9035 24.8553L22.4311 24.8934L22.6977 24.4951L22.5271 24.0569Z"
        fill="#C6AF6F"
        opacity="0.61" />
    <path d="M20.0183 25.8836L20.4723 26.0053L20.839 25.6965L20.853 26.1703L21.2504 26.4171L20.8051 26.5882L20.6838 27.0499L20.3947 26.6819L19.9223 26.7201L20.1889 26.3218L20.0183 25.8836Z"
        fill="#C6AF6F" />
    <path d="M16.9468 26.3335L17.4008 26.4547L17.7677 26.1462L17.7817 26.62L18.1791 26.8668L17.7335 27.0381L17.6125 27.4996L17.3234 27.1317L16.851 27.1698L17.1173 26.7712L16.9468 26.3335Z"
        fill="#BAB386"
        opacity="0.54" />
    <path d="M14.2119 25.084L14.6662 25.2055L15.0328 24.8967L15.0468 25.3705L15.4442 25.6173L14.9989 25.7889L14.8776 26.2501L14.5886 25.8821L14.1161 25.9203L14.3827 25.522L14.2119 25.084Z"
        fill="#BAB386"
        opacity="0.22" />
    <path d="M12.6484 22.4363L13.1025 22.558L13.4693 22.249L13.4833 22.7227L13.8808 22.9696L13.4352 23.1409L13.3141 23.6023L13.0248 23.2347L12.5524 23.2728L12.8193 22.8742L12.6484 22.4363Z"
        fill="#BAB386"
        opacity="0.54" />
    <path d="M12.4863 19.4798L12.9403 19.6014L13.3075 19.2926L13.3212 19.7662L13.7189 20.0133L13.2733 20.1846L13.1523 20.646L12.8627 20.2781L12.3906 20.3165L12.6571 19.9177L12.4863 19.4798Z"
        fill="#BAB386"
        opacity="0.92" />
    <path d="M13.8779 16.7293L14.3319 16.851L14.6988 16.5419L14.7128 17.0157L15.1105 17.2628L14.6649 17.4341L14.5439 17.8955L14.2543 17.5276L13.7819 17.5658L14.0487 17.1672L13.8779 16.7293Z"
        fill="#C6AF6F" />
    <path
        d="M17.6654 18.0453L18.3386 18.9778C18.0102 19.0003 17.6949 19.1797 17.3931 19.5167C17.0913 19.8538 16.9649 20.2321 17.0135 20.6519C17.0409 20.8888 17.1323 21.1215 17.2871 21.3495L18.8144 19.6441L19.1941 20.1629L17.7 21.8313C17.7444 21.8749 17.803 21.9292 17.8754 21.994C17.9477 22.0589 18.0213 22.1208 18.1014 22.1854L19.5148 20.6072L19.8945 21.126L18.6282 22.54C18.8901 22.6813 19.1305 22.7534 19.3497 22.7561C19.7724 22.7623 20.1321 22.6001 20.4285 22.2692C20.784 21.8721 20.9482 21.4494 20.9216 21.0008L21.8463 21.8289C21.7364 22.2148 21.5214 22.5868 21.2012 22.9444C20.6606 23.548 20.0149 23.8639 19.2639 23.8915C18.7531 23.9106 18.255 23.7798 17.7703 23.498L17.3593 23.9569L16.9796 23.4381L17.2518 23.1341C17.2015 23.0929 17.1492 23.048 17.0947 22.9992C17.0021 22.9162 16.9224 22.841 16.8554 22.7738L16.4917 23.1799L16.112 22.6612L16.4425 22.2921C16.1195 21.8462 15.9384 21.3731 15.8999 20.8731C15.8428 20.1181 16.0995 19.422 16.6697 18.7853C16.9806 18.4382 17.3125 18.1915 17.6649 18.0448L17.6654 18.0453Z"
        fill="#5B4A00" />
    <path
        d="M13.9278 36.7135L14.0785 36.5059C14.2046 36.5924 14.3187 36.6345 14.4205 36.632C14.5224 36.6295 14.604 36.594 14.6653 36.5255C14.7422 36.4396 14.7694 36.3309 14.7471 36.199C14.7248 36.0671 14.6462 35.9404 14.5111 35.8195C14.3843 35.7059 14.2588 35.6478 14.1351 35.6451C14.0114 35.6424 13.909 35.6868 13.8276 35.7777C13.7787 35.8324 13.7478 35.8975 13.7354 35.9723C13.7229 36.0472 13.7314 36.123 13.7608 36.1993L13.5816 36.3458L12.798 35.3856L13.4537 34.6534L13.6619 34.8399L13.1351 35.4281L13.5419 35.9346C13.5455 35.7802 13.5915 35.6542 13.6794 35.556C13.7899 35.4326 13.938 35.3716 14.1234 35.3738C14.3088 35.3755 14.4897 35.4553 14.6657 35.613C14.8418 35.7707 14.9474 35.9473 14.9899 36.1498C15.0325 36.3522 14.9848 36.53 14.8472 36.6836C14.7331 36.8111 14.5929 36.8796 14.4265 36.8891C14.26 36.8986 14.094 36.8403 13.9283 36.7135L13.9278 36.7135Z"
        fill="#5B4A00" />
    <path
        d="M14.4876 35.2633C14.1899 34.9966 14.0006 34.7541 13.9202 34.5351C13.8396 34.3163 13.8705 34.1277 14.0125 33.9691C14.1384 33.8286 14.2998 33.7733 14.4964 33.8038C14.7343 33.84 15.0186 34.0062 15.3487 34.3018C15.6448 34.567 15.8336 34.809 15.9149 35.0275C15.9961 35.2462 15.9655 35.435 15.8227 35.5945C15.6968 35.735 15.5258 35.7894 15.31 35.7576C15.0942 35.7257 14.8201 35.561 14.4873 35.263L14.4876 35.2633ZM14.653 35.0775C14.9415 35.3358 15.1598 35.4809 15.3081 35.5123C15.4564 35.5442 15.5699 35.5161 15.6484 35.4283C15.7225 35.3457 15.7348 35.2318 15.6855 35.0872C15.6361 34.9426 15.4683 34.7423 15.1822 34.4861C14.896 34.2299 14.6743 34.0818 14.5263 34.0506C14.3785 34.0191 14.2644 34.0481 14.1844 34.1374C14.1111 34.2192 14.0992 34.3326 14.149 34.4767C14.1988 34.6207 14.3667 34.821 14.6528 35.0772L14.653 35.0775Z"
        fill="#5B4A00" />
    <path d="M26.3414 5.22999L0.923584 25.5474L11.8442 39.2094L37.262 18.8921L26.3414 5.22999Z" fill="#E3FCEB" />
    <path d="M25.6399 5.7911L6.85303 20.8081L17.7736 34.4702L36.5605 19.4532L25.6399 5.7911Z" fill="#8FFF9F" />
    <path d="M22.6122 8.21095L13.3101 15.6465L24.2306 29.3086L33.5328 21.873L22.6122 8.21095Z" fill="#68F279" />
    <path d="M27.7503 16.0907L21.7844 20.8594L24.985 24.8634L30.9508 20.0947L27.7503 16.0907Z" fill="#009444" />
    <path d="M32.0447 20.0645L24.6306 25.9908C24.535 26.0672 24.4061 25.9839 24.4457 25.8713L24.8579 24.7044L30.7592 19.9874L31.9701 19.8576C32.0879 19.845 32.1398 19.9885 32.0447 20.0645Z"
        fill="#009444" />
    <path
        d="M26.9777 15.2138L21.1844 19.8446C21.0173 19.9782 20.9887 20.2201 21.1205 20.3851L21.3718 20.6994C21.5037 20.8644 21.746 20.8898 21.9131 20.7563L27.7064 16.1255C27.8735 15.9919 27.902 15.7499 27.7702 15.585L27.5189 15.2706C27.3871 15.1057 27.1447 15.0803 26.9777 15.2138Z"
        fill="#009444" />
    <path
        d="M26.9833 13.9529L19.9534 19.5722C19.7863 19.7057 19.7578 19.9477 19.8896 20.1126L20.1409 20.427C20.2727 20.5919 20.515 20.6174 20.6821 20.4838L27.712 14.8645C27.8791 14.731 27.9077 14.489 27.7758 14.3241L27.5246 14.0097C27.3927 13.8448 27.1504 13.8193 26.9833 13.9529Z"
        fill="#009444" />
    <path d="M20.9332 19.2863C21.0001 19.3052 22.0131 16.6245 22.341 15.7518C22.4023 15.5883 22.5568 15.4702 22.7301 15.4543L26.1195 15.1425" fill="#009444" />
    <path
        d="M5.12046 24.3818C5.21776 24.5035 5.28366 24.6123 5.31751 24.7074C5.35157 24.8028 5.3596 24.8914 5.34108 24.9731C5.32257 25.0549 5.27432 25.1269 5.19631 25.1893L5.11247 25.0844C5.17259 25.0363 5.20019 24.9677 5.19606 24.8782C5.19165 24.789 5.12166 24.6591 4.98598 24.4893C4.8503 24.3196 4.73833 24.2213 4.65223 24.1979C4.56712 24.1745 4.49401 24.1868 4.4334 24.2348L4.34912 24.1294C4.40616 24.0838 4.46553 24.0549 4.52645 24.0428C4.58738 24.0308 4.6492 24.0347 4.71069 24.0543C4.77269 24.074 4.83575 24.1082 4.90028 24.1557C4.96476 24.2036 5.03817 24.2789 5.12046 24.3818Z"
        fill="#9C7B9E" />
    <path
        d="M3.79176 25.442L3.92624 25.3345C3.78968 25.1637 3.71963 25.0342 3.71572 24.9451C3.7117 24.8569 3.7398 24.7883 3.79997 24.7398L3.71569 24.6343C3.65866 24.6799 3.61738 24.7315 3.59219 24.7882C3.567 24.845 3.55725 24.9062 3.56282 24.9705C3.56834 25.0353 3.58779 25.1043 3.61989 25.1777C3.65249 25.2512 3.70947 25.3391 3.79176 25.442Z"
        fill="#9C7B9E" />
    <path
        d="M4.48669 24.8868C4.5842 25.0088 4.6501 25.1176 4.68417 25.2129C4.71824 25.3083 4.72627 25.3969 4.70775 25.4786C4.68924 25.5604 4.64098 25.6324 4.56298 25.6948L4.47914 25.5899C4.53925 25.5418 4.56685 25.4732 4.56273 25.3837C4.55832 25.2945 4.48833 25.1646 4.35265 24.9948L4.48691 24.887L4.48669 24.8868Z"
        fill="#9C7B9E" />
    <path
        d="M3.78999 25.7934C3.86103 25.8822 3.88844 25.9825 3.87245 26.0943C3.85646 26.2062 3.79552 26.3042 3.69067 26.388C3.66187 26.411 3.63299 26.4305 3.60351 26.4464L3.5135 26.3337C3.5475 26.3224 3.57943 26.305 3.60851 26.2818C3.67086 26.2319 3.70692 26.171 3.71613 26.0994C3.72562 26.0276 3.70604 25.9618 3.65772 25.9014C3.60941 25.8409 3.54718 25.8061 3.47303 25.7993C3.39911 25.7928 3.33072 25.8144 3.26753 25.8649L3.52671 25.6578C3.55401 25.6581 3.58046 25.6614 3.60622 25.6684C3.6774 25.6875 3.73858 25.7291 3.78976 25.7931L3.78999 25.7934Z"
        fill="#9C7B9E" />
    <path d="M7.40236 21.5197L5.04712 23.4023L6.24929 24.9063L8.60453 23.0237L7.40236 21.5197Z" fill="#2D559A" />
    <path d="M16.9504 15.7381L17.3966 15.9415L17.8274 15.6871L17.76 16.1766L18.1262 16.4995L17.6385 16.599L17.4343 17.0526L17.2 16.6243L16.7077 16.5822L17.0507 16.2179L16.9504 15.7381Z"
        fill="#6FC972" />
    <path d="M20.0671 15.756L20.5133 15.9593L20.9439 15.7047L20.8767 16.1945L21.243 16.5174L20.755 16.6166L20.5507 17.0707L20.3167 16.6421L19.8239 16.6L20.1672 16.236L20.0671 15.756Z" fill="#6FC972"
        opacity="0.61" />
    <path d="M22.7594 17.3695L23.2056 17.5728L23.6363 17.3182L23.5691 17.808L23.9353 18.1309L23.4473 18.2301L23.2434 18.684L23.0091 18.2556L22.5165 18.2132L22.8595 17.8495L22.7594 17.3695Z"
        fill="#6FC972"
        opacity="0.61" />
    <path d="M24.2236 20.1842L24.6698 20.3876L25.1004 20.1334L25.0329 20.6229L25.3995 20.9456L24.9117 21.0451L24.7072 21.4989L24.4729 21.0705L23.9806 21.0285L24.3237 20.6642L24.2236 20.1842Z"
        fill="#6FC972"
        opacity="0.61" />
    <path d="M24.0341 23.2638L24.4803 23.4671L24.911 23.2125L24.8435 23.7025L25.21 24.0252L24.722 24.1244L24.5178 24.5785L24.2838 24.1499L23.7909 24.1078L24.1342 23.7438L24.0341 23.2638Z"
        fill="#6FC972"
        opacity="0.61" />
    <path d="M22.2736 25.9288L22.7201 26.1325L23.1507 25.8778L23.0835 26.3676L23.4495 26.6902L22.9618 26.7897L22.7573 27.2436L22.5235 26.8152L22.0307 26.7731L22.3739 26.4091L22.2736 25.9288Z"
        fill="#6FC972"
        opacity="0.61" />
    <path d="M19.3779 27.3761L19.8241 27.5795L20.2547 27.3248L20.1872 27.8148L20.5538 28.1375L20.0658 28.2367L19.8615 28.6908L19.6272 28.2624L19.1347 28.2201L19.4779 27.8561L19.3779 27.3761Z"
        fill="#6FC972" />
    <path d="M16.1396 27.3092L16.5855 27.5128L17.0164 27.2584L16.9492 27.7482L17.3152 28.0708L16.8277 28.1701L16.6232 28.6239L16.3892 28.1958L15.8966 28.1535L16.2397 27.7892L16.1396 27.3092Z"
        fill="#BAB386"
        opacity="0.54" />
    <path d="M13.5422 25.5509L13.9884 25.7543L14.4187 25.4998L14.3516 25.9896L14.7178 26.3125L14.2301 26.4115L14.0258 26.8656L13.7915 26.4372L13.299 26.3949L13.6423 26.0309L13.5422 25.5509Z"
        fill="#BAB386"
        opacity="0.22" />
    <path d="M12.3898 22.5568L12.8363 22.7604L13.2666 22.506L13.1994 22.9957L13.5657 23.3181L13.078 23.4176L12.8735 23.8715L12.6394 23.4434L12.1469 23.401L12.4901 23.0371L12.3898 22.5568Z"
        fill="#BAB386"
        opacity="0.54" />
    <path d="M12.7326 19.4884L13.1785 19.692L13.6094 19.4376L13.5422 19.9274L13.9082 20.25L13.4207 20.3493L13.2163 20.8031L12.9822 20.375L12.4896 20.3327L12.8327 19.9684L12.7326 19.4884Z"
        fill="#BAB386"
        opacity="0.92" />
    <path d="M14.6396 16.8981L15.086 17.1017L15.5167 16.847L15.4492 17.337L15.8155 17.6595L15.3277 17.7589L15.1232 18.2128L14.8895 17.7845L14.3966 17.7423L14.7399 17.3784L14.6396 16.8981Z"
        fill="#6FC972" />
    <path
        d="M18.3094 18.9051L18.8412 19.9809C18.4991 19.9472 18.1439 20.0778 17.7754 20.3724C17.4069 20.6669 17.2113 21.0345 17.1889 21.4749C17.1763 21.7234 17.23 21.9786 17.3501 22.24L19.2155 20.7489L19.5167 21.3481L17.6918 22.8068C17.7302 22.8594 17.7809 22.9251 17.8444 23.0046C17.908 23.0841 17.9727 23.1604 18.044 23.2405L19.7704 21.8605L20.0716 22.4597L18.525 23.696C18.7701 23.8869 19.0051 24.0021 19.23 24.0426C19.664 24.1218 20.0618 24.017 20.4236 23.7278C20.8578 23.3807 21.0997 22.9742 21.1496 22.5082L21.9582 23.5198C21.7789 23.8979 21.4932 24.2434 21.1021 24.556C20.4417 25.0839 19.723 25.2974 18.9455 25.1961C18.4165 25.1276 17.9267 24.907 17.4764 24.5333L16.9745 24.9345L16.6733 24.3352L17.0057 24.0695C16.9611 24.0183 16.9152 23.9632 16.8676 23.9036C16.7866 23.8023 16.7173 23.711 16.6603 23.6305L16.216 23.9856L15.9148 23.3863L16.3185 23.0636C16.063 22.5491 15.9585 22.0314 16.0049 21.5098C16.0765 20.7229 16.4602 20.0512 17.1569 19.4943C17.5369 19.1906 17.9206 18.9942 18.3085 18.9045L18.3094 18.9051Z"
        fill="#006838" />
    <path
        d="M12.6229 37.2059L12.4277 37.3619L11.2337 35.8682C11.2307 35.9561 11.2127 36.0574 11.1806 36.1721C11.1483 36.287 11.1116 36.3833 11.0705 36.4619L10.8893 36.2353C10.9481 36.0887 10.9836 35.9387 10.9956 35.7853C11.0077 35.6318 10.9971 35.5 10.9641 35.3898L11.0907 35.2886L12.6232 37.2057L12.6229 37.2059Z"
        fill="#006838" />
    <path
        d="M12.0993 36.0809C11.8431 35.7604 11.6928 35.483 11.6484 35.248C11.604 35.013 11.6674 34.8275 11.8379 34.6911C11.9892 34.5702 12.1617 34.5418 12.3559 34.606C12.5907 34.6829 12.8497 34.8993 13.1337 35.2545C13.3883 35.573 13.5381 35.8499 13.5836 36.085C13.6288 36.3199 13.5655 36.5061 13.3941 36.6431C13.2429 36.764 13.0608 36.7902 12.8479 36.721C12.6352 36.6522 12.3854 36.4389 12.0995 36.0812L12.0993 36.0809ZM12.2979 35.9212C12.5459 36.2314 12.7422 36.4151 12.8871 36.4726C13.0317 36.5297 13.1515 36.5208 13.2458 36.4455C13.3347 36.3744 13.3665 36.2612 13.341 36.1066C13.3154 35.9519 13.1799 35.7205 12.9339 35.4128C12.688 35.105 12.4888 34.9177 12.3443 34.8609C12.1999 34.804 12.0797 34.8141 11.9838 34.8908C11.8957 34.9612 11.8647 35.0737 11.8905 35.2281C11.9163 35.3825 12.0524 35.6135 12.2984 35.9213L12.2979 35.9212Z"
        fill="#006838" />
    <path
        d="M13.4069 35.036C13.1507 34.7155 13.0004 34.438 12.956 34.203C12.9116 33.968 12.975 33.7825 13.1456 33.6462C13.2968 33.5253 13.4693 33.4969 13.6635 33.561C13.8983 33.638 14.1573 33.8543 14.4413 34.2096C14.6959 34.5281 14.8458 34.805 14.8912 35.0401C14.9364 35.2749 14.8731 35.4612 14.7017 35.5982C14.5505 35.7191 14.3684 35.7453 14.1555 35.6761C13.9428 35.6073 13.693 35.3939 13.4071 35.0362L13.4069 35.036ZM13.6055 34.8763C13.8535 35.1865 14.0498 35.3702 14.1947 35.4277C14.3394 35.4848 14.4592 35.4759 14.5534 35.4006C14.6423 35.3295 14.6741 35.2163 14.6486 35.0617C14.623 34.907 14.4876 34.6756 14.2416 34.3679C13.9956 34.0601 13.7964 33.8728 13.6519 33.8159C13.5075 33.7591 13.3873 33.7692 13.2914 33.8458C13.2033 33.9162 13.1723 34.0288 13.1981 34.1832C13.224 34.3376 13.36 34.5686 13.606 34.8763L13.6055 34.8763Z"
        fill="#006838" />
    <path d="M28.8484 8.41377L0.929443 25.1289L9.9138 40.1353L37.8327 23.4201L28.8484 8.41377Z" fill="#DED7E3" />
    <path d="M28.0774 8.87497L7.44189 21.2295L16.4262 36.2359L37.0617 23.8813L28.0774 8.87497Z" fill="#BDB7DB" />
    <path d="M24.7521 10.8657L14.5347 16.9829L23.519 31.9893L33.7364 25.8721L24.7521 10.8657Z" fill="#9892C5" />
    <path
        d="M20.3463 21.0401L19.4287 21.5894C19.308 21.6617 19.2679 21.8166 19.3391 21.9355L24.1314 29.9399C24.2025 30.0588 24.3581 30.0966 24.4787 30.0244L25.3963 29.475C25.517 29.4028 25.5571 29.2478 25.4859 29.129L20.6936 21.1245C20.6224 21.0056 20.4669 20.9678 20.3463 21.0401Z"
        fill="#814E83" />
    <path
        d="M28.3452 17.6964L24.9826 19.7096C24.8562 19.7853 24.8141 19.9477 24.8887 20.0722L29.0318 26.9923C29.1063 27.1169 29.2693 27.1565 29.3957 27.0808L32.7584 25.0676C32.8848 24.9919 32.9268 24.8295 32.8523 24.7049L28.7092 17.7849C28.6346 17.6603 28.4717 17.6207 28.3452 17.6964Z"
        fill="#814E83" />
    <path
        d="M26.3612 22.1613L24.7685 23.1149C24.642 23.1906 24.6 23.3529 24.6746 23.4775L27.3732 27.985C27.4478 28.1095 27.6108 28.1492 27.7372 28.0735L29.3299 27.1199C29.4563 27.0442 29.4984 26.8819 29.4238 26.7573L26.7251 22.2498C26.6506 22.1253 26.4876 22.0856 26.3612 22.1613Z"
        fill="#814E83" />
    <path
        d="M27.8341 28.317L25.7386 29.5715C25.5804 29.6662 25.3376 29.5518 25.1965 29.3162L19.5415 19.8708C19.3629 19.5725 19.4395 19.2466 19.6895 19.239L22.4865 19.1561C22.6356 19.1517 22.8053 19.2668 22.9118 19.4447L27.8653 27.7184C28.0065 27.9543 27.9925 28.2221 27.8344 28.3168L27.8341 28.317Z"
        fill="#814E83" />
    <path
        d="M5.25068 24.5331C5.33073 24.6668 5.38137 24.7835 5.40207 24.8823C5.42295 24.9814 5.4189 25.0703 5.38946 25.1489C5.36001 25.2275 5.30236 25.2924 5.21651 25.3438L5.14754 25.2286C5.2137 25.189 5.25039 25.1246 5.25841 25.0354C5.26613 24.9464 5.2143 24.8081 5.10268 24.6217C4.99105 24.4352 4.89326 24.3229 4.811 24.2881C4.72972 24.2536 4.65551 24.256 4.58887 24.2955L4.51953 24.1797C4.5823 24.1421 4.64513 24.1214 4.70722 24.1176C4.76931 24.1137 4.83011 24.1259 4.88847 24.1536C4.94732 24.1814 5.00526 24.2237 5.06286 24.2794C5.12033 24.3356 5.18298 24.42 5.25068 24.5331Z"
        fill="#9C7B9E" />
    <path
        d="M3.7899 25.4073L3.9379 25.3187C3.82555 25.131 3.7736 24.9933 3.7818 24.9043C3.78976 24.8164 3.82694 24.7521 3.89322 24.712L3.82388 24.5962C3.76111 24.6338 3.71317 24.6794 3.68048 24.7323C3.6478 24.7852 3.62983 24.8446 3.62665 24.9091C3.62334 24.9741 3.63328 25.0451 3.65518 25.1222C3.67708 25.1993 3.72219 25.2942 3.7899 25.4073Z"
        fill="#9C7B9E" />
    <path
        d="M4.55387 24.9497C4.63409 25.0837 4.68473 25.2004 4.70561 25.2995C4.72649 25.3986 4.72245 25.4875 4.693 25.5661C4.66356 25.6447 4.60591 25.7097 4.52006 25.7611L4.45109 25.6459C4.51724 25.6063 4.55393 25.5419 4.56196 25.4527C4.56967 25.3636 4.51785 25.2254 4.40622 25.0389L4.55405 24.95L4.55387 24.9497Z"
        fill="#9C7B9E" />
    <path
        d="M3.74079 25.7557C3.79923 25.8533 3.81285 25.9564 3.78183 26.0651C3.75081 26.1739 3.67705 26.2629 3.56166 26.332C3.52996 26.351 3.49867 26.3664 3.46727 26.3782L3.39322 26.2546C3.42849 26.2478 3.46253 26.2349 3.49453 26.2157C3.56315 26.1746 3.60719 26.119 3.62604 26.0493C3.64519 25.9793 3.63467 25.9115 3.59492 25.8451C3.55517 25.7787 3.49815 25.7358 3.42549 25.7192C3.35302 25.7029 3.28223 25.7152 3.21268 25.7568L3.49793 25.5861C3.52498 25.59 3.55078 25.5968 3.57539 25.6072C3.64343 25.6357 3.6985 25.6851 3.74061 25.7554L3.74079 25.7557Z"
        fill="#9C7B9E" />
    <path d="M7.90414 22.0008L5.31201 23.5527L6.30104 25.2047L8.89316 23.6528L7.90414 22.0008Z" fill="#2D559A" />
    <path d="M18.713 17.2145L19.1282 17.4758L19.5902 17.2811L19.4566 17.7577L19.7766 18.1266L19.2791 18.1601L19.0147 18.5828L18.8406 18.1265L18.3575 18.0191L18.7473 17.7038L18.713 17.2145Z"
        fill="#CA786D" />
    <path d="M21.8029 17.6486L22.218 17.9099L22.6798 17.7149L22.5465 18.1918L22.8664 18.5607L22.3688 18.5938L22.1046 19.0169L21.9305 18.5606L21.4472 18.4529L21.8371 18.1379L21.8029 17.6486Z"
        fill="#CA786D"
        opacity="0.61" />
    <path d="M24.256 19.609L24.6712 19.8703L25.133 19.6754L24.9996 20.1522L25.3196 20.5212L24.8219 20.5543L24.5577 20.9773L24.3836 20.521L23.9003 20.4134L24.2902 20.0984L24.256 19.609Z" fill="#CA786D"
        opacity="0.61" />
    <path d="M25.3265 22.5955L25.7417 22.8568L26.2036 22.6622L26.0704 23.1385L26.3901 23.5077L25.8926 23.5411L25.6285 23.9636L25.4541 23.5075L24.9713 23.4L25.361 23.0847L25.3265 22.5955Z"
        fill="#CA786D"
        opacity="0.61" />
    <path d="M24.7223 25.6237L25.1375 25.885L25.599 25.6902L25.4659 26.1669L25.7856 26.536L25.2882 26.5689L25.024 26.9919L24.8496 26.5359L24.3666 26.428L24.7565 26.113L24.7223 25.6237Z" fill="#CA786D"
        opacity="0.61" />
    <path d="M22.6144 28.0304L23.0296 28.2917L23.4915 28.0971L23.3582 28.5739L23.678 28.9425L23.1805 28.976L22.9161 29.3987L22.7419 28.9429L22.2589 28.8351L22.6486 28.5198L22.6144 28.0304Z"
        fill="#CA786D"
        opacity="0.61" />
    <path d="M19.5445 29.0789L19.9597 29.3402L20.4215 29.1453L20.2884 29.6219L20.6081 29.9911L20.1104 30.0242L19.8465 30.447L19.6721 29.9909L19.1891 29.8831L19.579 29.5681L19.5445 29.0789Z"
        fill="#CA786D" />
    <path d="M16.5072 28.4796L16.9224 28.7409L17.3844 28.5463L17.2513 29.0229L17.5708 29.3918L17.0733 29.4252L16.8089 29.8479L16.635 29.3919L16.1517 29.2843L16.5414 28.969L16.5072 28.4796Z"
        fill="#B586BB"
        opacity="0.54" />
    <path d="M14.1673 26.39L14.5825 26.6513L15.0443 26.4563L14.9112 26.933L15.2309 27.3021L14.7332 27.3352L14.4693 27.7581L14.2949 27.302L13.8119 27.1941L14.2015 26.8793L14.1673 26.39Z" fill="#B586BB"
        opacity="0.22" />
    <path d="M13.2623 23.3665L13.6774 23.6278L14.1394 23.4332L14.0064 23.9098L14.3259 24.2787L13.8284 24.3121L13.5643 24.7346L13.3901 24.2788L12.9071 24.171L13.2968 23.8557L13.2623 23.3665Z"
        fill="#B586BB"
        opacity="0.54" />
    <path d="M14.0198 20.369L14.435 20.6303L14.897 20.4356L14.764 20.9123L15.0834 21.2811L14.586 21.3145L14.3215 21.7372L14.1476 21.2813L13.6646 21.1734L14.0541 20.8583L14.0198 20.369Z" fill="#B586BB"
        opacity="0.92" />
    <path d="M16.2628 18.0558L16.678 18.3171L17.1397 18.1226L17.0066 18.5993L17.3261 18.9681L16.8289 19.0014L16.5645 19.4241L16.3903 18.9683L15.9073 18.8605L16.2971 18.5452L16.2628 18.0558Z"
        fill="#CA786D" />
    <path
        d="M19.6323 20.5363L20.0142 21.6741C19.6792 21.595 19.3091 21.677 18.9035 21.9198C18.498 22.1626 18.2541 22.5009 18.1722 22.9346C18.126 23.1793 18.1447 23.4395 18.2284 23.7148L20.2814 22.4856L20.4991 23.1201L18.4907 24.3225C18.5216 24.3798 18.563 24.4517 18.6153 24.539C18.6676 24.6264 18.7214 24.7107 18.7813 24.7996L20.6814 23.662L20.8991 24.2965L19.1968 25.3156C19.4142 25.5376 19.6318 25.6832 19.8494 25.7535C20.2694 25.89 20.6782 25.8392 21.0764 25.6008C21.5543 25.3147 21.8494 24.944 21.9622 24.4886L22.6274 25.5997C22.3982 25.9507 22.0679 26.255 21.6375 26.5128C20.9107 26.9479 20.1685 27.0636 19.4108 26.8591C18.8952 26.7206 18.4391 26.4364 18.0429 26.0056L17.4906 26.3363L17.2729 25.7019L17.6388 25.4828C17.6014 25.4261 17.5634 25.3653 17.5242 25.2998C17.4575 25.1885 17.4012 25.0888 17.3555 25.0013L16.8665 25.294L16.6489 24.6596L17.0932 24.3936C16.9094 23.8492 16.8759 23.3219 16.9926 22.811C17.1703 22.0403 17.642 21.4256 18.4088 20.9665C18.827 20.7161 19.2344 20.5727 19.6314 20.5356L19.6323 20.5363Z"
        fill="#412742" />
    <path
        d="M9.80145 38.2346L10.0138 38.0761C10.1116 38.1996 10.2109 38.2761 10.3119 38.3045C10.413 38.333 10.5045 38.3231 10.586 38.2743C10.6882 38.2131 10.7484 38.1141 10.7669 37.9774C10.7854 37.8407 10.7466 37.6922 10.6508 37.5321C10.5606 37.3814 10.455 37.2861 10.3339 37.2457C10.2129 37.2057 10.0982 37.218 9.99052 37.2825C9.92529 37.3215 9.87507 37.3759 9.83974 37.446C9.80442 37.5162 9.78944 37.5931 9.79499 37.6771L9.57334 37.767L9.09583 36.5826L9.96634 36.0614L10.1143 36.3085L9.41484 36.7273L9.66023 37.3501C9.71124 37.1993 9.7952 37.0889 9.91183 37.0191C10.0586 36.9312 10.2231 36.9163 10.4051 36.9745C10.5872 37.0327 10.7408 37.1665 10.8658 37.3753C10.9909 37.5842 11.0409 37.7907 11.0206 38.0025C11.0004 38.2144 10.8989 38.3752 10.7161 38.4847C10.5644 38.5755 10.4054 38.6003 10.2385 38.5589C10.0716 38.5176 9.92622 38.4094 9.80127 38.2343L9.80145 38.2346Z"
        fill="#412742" />
    <path
        d="M10.9554 36.8821C10.7438 36.5286 10.6319 36.232 10.6196 35.9922C10.6073 35.7525 10.6956 35.5761 10.8842 35.4631C11.0513 35.3631 11.2271 35.3579 11.4118 35.4479C11.6352 35.5563 11.8641 35.806 12.0986 36.1977C12.3089 36.5491 12.4208 36.8449 12.4338 37.0851C12.4468 37.3252 12.3586 37.502 12.1691 37.6154C12.002 37.7155 11.817 37.7171 11.6141 37.6199C11.4113 37.5226 11.1918 37.2768 10.9556 36.8824L10.9554 36.8821ZM11.1754 36.7496C11.3803 37.0918 11.5508 37.3011 11.6872 37.3776C11.8237 37.454 11.9441 37.461 12.0481 37.3987C12.1466 37.3398 12.1933 37.2315 12.1894 37.0741C12.1849 36.9165 12.0813 36.668 11.8782 36.3288C11.6751 35.9896 11.5021 35.776 11.3658 35.6999C11.2297 35.6241 11.1084 35.6176 11.0022 35.6812C10.9047 35.7396 10.8585 35.8475 10.8634 36.0044C10.8682 36.1617 10.9721 36.41 11.1752 36.7493L11.1754 36.7496Z"
        fill="#412742" />
    <path
        d="M12.401 36.0164C12.1894 35.6629 12.0774 35.3663 12.0651 35.1265C12.0528 34.8868 12.1412 34.7103 12.3298 34.5974C12.4969 34.4974 12.6727 34.4922 12.8574 34.5822C13.0807 34.6906 13.3096 34.9403 13.5441 35.332C13.7545 35.6833 13.8664 35.9792 13.8794 36.2193C13.8923 36.4595 13.8042 36.6362 13.6146 36.7497C13.4475 36.8497 13.2625 36.8514 13.0597 36.7542C12.8568 36.6569 12.6373 36.4111 12.4012 36.0167L12.401 36.0164ZM12.621 35.8839C12.8259 36.2261 12.9963 36.4354 13.1328 36.5119C13.2693 36.5883 13.3897 36.5953 13.4937 36.533C13.5921 36.4741 13.6389 36.3658 13.6349 36.2083C13.6305 36.0508 13.5269 35.8023 13.3238 35.4631C13.1207 35.1238 12.9477 34.9103 12.8114 34.8342C12.6753 34.7583 12.5539 34.7519 12.4478 34.8154C12.3502 34.8738 12.3041 34.9818 12.309 35.1387C12.3137 35.296 12.4177 35.5443 12.6208 35.8835L12.621 35.8839Z"
        fill="#412742" />
    <path d="M31.2593 15.9105L0.0786133 25.2178L5.08128 41.9774L36.262 32.6701L31.2593 15.9105Z" fill="#F4F8EA" />
    <path d="M30.3996 16.1676L7.35303 23.0469L12.3557 39.8065L35.4022 32.9272L30.3996 16.1676Z" fill="#EFEBA4" />
    <path d="M26.6856 17.2759L15.2744 20.6821L20.2771 37.4418L31.6883 34.0356L26.6856 17.2759Z" fill="#FFEB8A" />
    <path
        d="M4.42156 25.7053C4.46613 25.8546 4.48637 25.9802 4.48197 26.0811C4.47767 26.1823 4.45171 26.2675 4.40364 26.3364C4.35558 26.4053 4.2835 26.4541 4.18741 26.4828L4.14901 26.3541C4.22305 26.332 4.27463 26.2786 4.30454 26.1941C4.33411 26.1097 4.31806 25.9629 4.2559 25.7547C4.19375 25.5465 4.12666 25.4135 4.05541 25.3595C3.98506 25.306 3.91242 25.2901 3.83792 25.312L3.79932 25.1826C3.86957 25.1616 3.93571 25.157 3.99694 25.1686C4.05816 25.1802 4.11417 25.207 4.16397 25.2482C4.21422 25.2896 4.25998 25.3449 4.30209 25.4131C4.34396 25.4817 4.38386 25.579 4.42156 25.7053Z"
        fill="#9C7B9E" />
    <path
        d="M2.78658 26.1931L2.95224 26.1436C2.88968 25.934 2.87338 25.7877 2.90339 25.7035C2.93291 25.6202 2.98494 25.5671 3.05923 25.5445L3.02063 25.4152C2.95037 25.4362 2.89252 25.4685 2.84767 25.5118C2.80281 25.5551 2.77065 25.6082 2.75158 25.6699C2.73225 25.7321 2.72429 25.8034 2.72645 25.8835C2.72905 25.9639 2.74888 26.0668 2.78658 26.1931Z"
        fill="#9C7B9E" />
    <path
        d="M3.64342 25.9381C3.6881 26.0878 3.70833 26.2134 3.70404 26.3146C3.69974 26.4158 3.67378 26.501 3.62571 26.5699C3.57765 26.6389 3.50557 26.6877 3.40948 26.7163L3.37108 26.5877C3.44512 26.5656 3.4967 26.5122 3.52661 26.4277C3.55618 26.3433 3.54013 26.1965 3.47797 25.9883L3.64353 25.9385L3.64342 25.9381Z"
        fill="#9C7B9E" />
    <path
        d="M2.65249 26.5181C2.68503 26.6271 2.67272 26.7303 2.61564 26.8281C2.55856 26.9259 2.46487 26.9941 2.33572 27.0326C2.30025 27.0432 2.26603 27.0505 2.23263 27.0542L2.19139 26.916C2.2273 26.9182 2.26356 26.914 2.29938 26.9033C2.37618 26.8804 2.43272 26.8374 2.46831 26.7744C2.50424 26.7113 2.51085 26.6429 2.48872 26.5688C2.46658 26.4946 2.42185 26.439 2.35544 26.405C2.28912 26.3713 2.21734 26.3658 2.1395 26.3891L2.45876 26.2938C2.48404 26.3043 2.5074 26.3172 2.52872 26.3334C2.58772 26.3777 2.62894 26.4392 2.65239 26.5177L2.65249 26.5181Z"
        fill="#9C7B9E" />
    <path d="M7.62563 23.9035L4.72437 24.7695L5.27507 26.6145L8.17634 25.7485L7.62563 23.9035Z" fill="#2D559A" />
    <path
        d="M20.6667 23.7134L21.1829 23.5593C22.0842 23.2903 23.0304 23.7911 23.2949 24.6771L26.1978 34.4023L22.4163 35.5311L19.5133 25.8059C19.2488 24.9198 19.7657 23.9823 20.667 23.7133L20.6667 23.7134Z"
        fill="#827F4E" />
    <path d="M24.478 22.5756L25.0931 22.392C25.9945 22.123 26.9406 22.6238 27.2051 23.5098L30.108 33.235L26.2273 34.3934L23.3244 24.6682C23.0599 23.7821 23.5767 22.8446 24.478 22.5756Z"
        fill="#827F4E" />
    <path
        d="M6.78548 40.0861L6.86128 40.34L5.67378 40.6945C5.63995 40.5925 5.63738 40.4682 5.6654 40.3209C5.69352 40.1738 5.76988 39.9873 5.89447 39.7613C6.04019 39.498 6.1286 39.3016 6.15947 39.1726C6.19034 39.0435 6.19165 38.931 6.16335 38.8362C6.1306 38.7265 6.0712 38.6469 5.98549 38.5973C5.89978 38.5476 5.80888 38.5371 5.71348 38.5656C5.61085 38.5963 5.53793 38.6586 5.49448 38.753C5.45104 38.8475 5.45026 38.9643 5.4919 39.1038L5.25665 39.1437C5.21084 38.9325 5.22403 38.7593 5.29588 38.6243C5.36773 38.4892 5.48786 38.3966 5.65628 38.3463C5.8395 38.2916 5.99638 38.3108 6.12659 38.404C6.25689 38.4974 6.34521 38.6212 6.3913 38.7756C6.43223 38.9127 6.43459 39.0551 6.39838 39.2027C6.36218 39.3503 6.27248 39.56 6.12874 39.8311C6.0367 40.0028 5.97885 40.1181 5.95498 40.1776C5.9311 40.2371 5.91411 40.2946 5.90459 40.3494L6.78593 40.0863L6.78548 40.0861Z"
        fill="#383119" />
    <path
        d="M6.86317 39.1832C6.75534 38.8219 6.72327 38.5336 6.76697 38.3181C6.81067 38.1026 6.92891 37.9659 7.12212 37.9082C7.29329 37.8571 7.45083 37.8923 7.59431 38.0136C7.76819 38.1601 7.91469 38.4335 8.03415 38.8337C8.14138 39.1929 8.17359 39.4805 8.13078 39.6965C8.08797 39.9125 7.96939 40.0493 7.77514 40.1072C7.60397 40.1583 7.43924 40.1179 7.28095 39.9859C7.12265 39.854 6.98354 39.5865 6.86317 39.1832ZM7.08855 39.1152C7.19296 39.465 7.29699 39.6891 7.40111 39.7878C7.50477 39.8863 7.61038 39.9197 7.71714 39.8878C7.81805 39.8577 7.8841 39.7723 7.91597 39.6315C7.94784 39.4908 7.9122 39.247 7.80861 38.8999C7.70501 38.5529 7.59977 38.3247 7.49586 38.2266C7.39229 38.1285 7.28575 38.0957 7.17726 38.1281C7.07739 38.1579 7.01203 38.2431 6.9805 38.3838C6.94898 38.5245 6.98531 38.7681 7.0888 39.1148L7.08855 39.1152Z"
        fill="#383119" />
    <path
        d="M8.3435 38.7417C8.23566 38.3804 8.20359 38.0921 8.24695 37.8767C8.29066 37.6612 8.40889 37.5245 8.6021 37.4668C8.77327 37.4157 8.93081 37.4509 9.07429 37.5722C9.24817 37.7187 9.39467 37.9921 9.51413 38.3923C9.62136 38.7515 9.65357 39.0391 9.61076 39.2551C9.56795 39.471 9.44937 39.6078 9.25512 39.6658C9.08395 39.7169 8.91922 39.6765 8.76093 39.5445C8.60263 39.4126 8.46352 39.1451 8.34316 38.7418L8.3435 38.7417ZM8.56888 38.6737C8.67328 39.0235 8.77732 39.2476 8.88143 39.3463C8.9851 39.4448 9.0907 39.4782 9.19747 39.4463C9.29838 39.4162 9.36443 39.3308 9.3963 39.19C9.42816 39.0492 9.39252 38.8054 9.28893 38.4584C9.18534 38.1113 9.08009 37.8832 8.97618 37.7851C8.87227 37.6871 8.76608 37.6542 8.65759 37.6866C8.55771 37.7164 8.49235 37.8016 8.46083 37.9423C8.42931 38.0829 8.46563 38.3265 8.56912 38.6733L8.56888 38.6737Z"
        fill="#383119" />
    <path d="M18.5582 22.1487L18.8965 22.5042L19.3931 22.429L19.1458 22.8583L19.3646 23.2948L18.8733 23.2044L18.5122 23.5493L18.456 23.0642L18.0138 22.8407L18.4704 22.6314L18.5582 22.1487Z"
        fill="#C9C36F" />
    <path d="M21.4506 23.3307L21.7889 23.6862L22.2857 23.6113L22.0383 24.0406L22.2571 24.4769L21.7658 24.3868L21.4043 24.7314L21.3485 24.2466L20.906 24.0232L21.3625 23.8135L21.4506 23.3307Z"
        fill="#C9C36F"
        opacity="0.61" />
    <path d="M23.3465 25.8347L23.6848 26.1902L24.1816 26.1153L23.9341 26.5443L24.153 26.9809L23.6617 26.8908L23.3006 27.2353L23.2443 26.7502L22.8022 26.5271L23.2584 26.3175L23.3465 25.8347Z"
        fill="#C9C36F"
        opacity="0.61" />
    <path d="M23.6452 28.9938L23.9835 29.3493L24.4799 29.2745L24.2326 29.7038L24.4513 30.14L23.9604 30.0498L23.5989 30.3945L23.5427 29.9097L23.1006 29.6863L23.5571 29.4766L23.6452 28.9938Z"
        fill="#C9C36F"
        opacity="0.61" />
    <path d="M22.3073 31.7804L22.6456 32.1359L23.1423 32.061L22.8946 32.4901L23.1138 32.9266L22.6225 32.8365L22.261 33.1811L22.2051 32.6959L21.7627 32.4729L22.2192 32.2632L22.3073 31.7804Z"
        fill="#C9C36F"
        opacity="0.61" />
    <path d="M19.6642 33.5949L20.0025 33.9504L20.4993 33.8755L20.2515 34.3046L20.4707 34.741L19.9794 34.6509L19.6179 34.9956L19.562 34.5104L19.1196 34.2873L19.5761 34.0777L19.6642 33.5949Z"
        fill="#C9C36F"
        opacity="0.61" />
    <path d="M16.424 33.8541L16.7623 34.2097L17.2587 34.1349L17.0113 34.5638L17.2305 35.0003L16.7392 34.9102L16.3777 35.2548L16.3214 34.7698L15.8794 34.5466L16.3359 34.3369L16.424 33.8541Z"
        fill="#C9C36F" />
    <path d="M13.4374 32.5817L13.7754 32.9373L14.272 32.8621L14.0247 33.2914L14.2435 33.7279L13.7525 33.6374L13.3911 33.9824L13.3349 33.4973L12.8927 33.2738L13.3493 33.0645L13.4374 32.5817Z"
        fill="#BAB386"
        opacity="0.54" />
    <path d="M11.6833 29.9787L12.0216 30.3342L12.518 30.2594L12.2706 30.6884L12.4894 31.1249L11.9985 31.0347L11.637 31.3793L11.5807 30.8943L11.1386 30.6711L11.5952 30.4615L11.6833 29.9787Z"
        fill="#BAB386"
        opacity="0.22" />
    <path d="M11.7418 26.7697L12.0802 27.1252L12.5766 27.0504L12.3292 27.4794L12.548 27.9159L12.0571 27.8257L11.6956 28.1704L11.6393 27.6853L11.1972 27.4621L11.6538 27.2525L11.7418 26.7697Z"
        fill="#BAB386"
        opacity="0.54" />
    <path d="M13.2191 24.0514L13.5571 24.407L14.0538 24.3318L13.8064 24.7611L14.0253 25.1977L13.5343 25.1071L13.1729 25.4521L13.1166 24.967L12.6744 24.7435L13.1311 24.5342L13.2191 24.0514Z"
        fill="#BAB386"
        opacity="0.92" />
    <path d="M15.9701 22.3605L16.3084 22.716L16.8052 22.6411L16.5574 23.0702L16.7766 23.5066L16.2853 23.4165L15.9238 23.7612L15.8679 23.276L15.4255 23.053L15.882 22.8433L15.9701 22.3605Z"
        fill="#C9C36F" />
    <path
        d="M18.6266 25.5953L18.7154 26.7923C18.4098 26.6332 18.0301 26.6215 17.5762 26.757C17.1223 26.8925 16.8016 27.1604 16.6147 27.5606C16.5091 27.7865 16.4628 28.0433 16.4758 28.3307L18.7737 27.6448L18.8277 28.3135L16.5798 28.9845C16.5956 29.0476 16.618 29.1276 16.6471 29.2251C16.6762 29.3226 16.7076 29.4176 16.7437 29.5185L18.8704 28.8837L18.9245 29.5524L17.0192 30.1211C17.1752 30.3898 17.3504 30.5846 17.5442 30.7063C17.9181 30.9421 18.3276 30.9935 18.7733 30.8605C19.3082 30.7008 19.6866 30.4142 19.9089 30.0004L20.2793 31.2414C19.9698 31.5251 19.5738 31.7389 19.0919 31.8827C18.2784 32.1255 17.5293 32.0549 16.8443 31.6701C16.3781 31.4088 16.0058 31.021 15.7278 30.5058L15.1096 30.6903L15.0556 30.0217L15.4651 29.8995C15.4429 29.8353 15.421 29.767 15.3992 29.6938C15.3621 29.5696 15.3321 29.459 15.3094 29.3629L14.7622 29.5263L14.7081 28.8576L15.2054 28.7092C15.1619 28.1362 15.2601 27.6169 15.5001 27.1503C15.8636 26.447 16.474 25.9672 17.3322 25.711C17.8003 25.5713 18.2313 25.5326 18.626 25.5944L18.6266 25.5953Z"
        fill="#383119" />
</svg>
