<svg width="21" height="24" viewBox="0 0 21 24" fill="none" xmlns="http://www.w3.org/2000/svg">
<path d="M10.4119 4.25353C11.5865 4.25353 12.5387 3.30135 12.5387 2.12677C12.5387 0.952185 11.5865 0 10.4119 0C9.23734 0 8.28516 0.952185 8.28516 2.12677C8.28516 3.30135 9.23734 4.25353 10.4119 4.25353Z" fill="url(#paint0_linear_454_7980)"/>
<path d="M8.28516 2.1267C8.28516 3.3013 9.23733 4.25347 10.4119 4.25347C11.5865 4.25347 12.5387 3.3013 12.5387 2.1267C12.5387 1.87231 12.4939 1.62842 12.412 1.40234H8.41191C8.32782 1.63458 8.28492 1.87971 8.28516 2.1267Z" fill="url(#paint1_linear_454_7980)"/>
<path d="M8.90798 3.63046C9.73851 4.46099 11.0851 4.46104 11.9157 3.63046C12.7462 2.79993 12.7462 1.4533 11.9157 0.622773C11.7412 0.447963 11.5375 0.304957 11.3138 0.200195L8.48535 3.02868C8.59014 3.25233 8.73316 3.45598 8.90798 3.63046Z" fill="url(#paint2_linear_454_7980)"/>
<path d="M17.8226 12.0188C17.9374 11.4985 17.9973 10.9675 18.0012 10.4346C18.034 6.25823 14.643 2.81376 10.4666 2.78437C6.25003 2.7547 2.82253 6.16387 2.82253 10.3736C2.82253 10.9571 2.88839 11.5253 3.01308 12.071C3.52083 14.2933 2.82356 16.5952 1.28611 18.2781C1.07784 18.5061 0.966797 18.7457 0.966797 18.9929C0.966797 20.5186 5.19553 21.7554 10.4119 21.7554C15.6283 21.7554 19.857 20.5186 19.857 18.9929C19.857 18.7335 19.7348 18.4826 19.5064 18.2446C17.9232 16.5956 17.3292 14.2509 17.8226 12.0188Z" fill="url(#paint3_linear_454_7980)"/>
<path d="M17.8223 12.0188C17.9372 11.4985 17.997 10.9675 18.0009 10.4346C18.0338 6.25823 14.6428 2.81376 10.4664 2.78437C9.63149 2.77851 8.82773 2.90793 8.0752 3.15121V21.6701C8.82248 21.7258 9.60524 21.7554 10.4117 21.7554C15.6282 21.7554 19.8569 20.5186 19.8569 18.9929C19.8569 18.7335 19.7346 18.4826 19.5062 18.2446C17.923 16.5956 17.3289 14.2509 17.8223 12.0188Z" fill="url(#paint4_linear_454_7980)"/>
<path d="M2.82253 10.3737C2.82253 10.9572 2.88839 11.5253 3.01308 12.0711C3.52083 14.2933 2.82356 16.5952 1.28611 18.2782C1.07784 18.5062 0.966797 18.7457 0.966797 18.993C0.966797 20.5186 5.19553 21.7554 10.4119 21.7554C15.6283 21.7554 19.857 20.5186 19.857 18.993C19.857 18.7336 19.7348 18.4826 19.5064 18.2446C17.9232 16.5957 17.3291 14.251 17.8225 12.0189C17.9373 11.4985 17.9972 10.9675 18.0011 10.4347C18.0063 9.8052 17.9326 9.17756 17.7818 8.56641H3.03966C2.8952 9.15797 2.8223 9.76473 2.82253 10.3737Z" fill="url(#paint5_linear_454_7980)"/>
<path d="M10.4121 24.0002C15.9872 24.0002 20.5067 21.802 20.5067 19.0904C20.5067 16.3788 15.9872 14.1807 10.4121 14.1807C4.83692 14.1807 0.317383 16.3788 0.317383 19.0904C0.317383 21.802 4.83692 24.0002 10.4121 24.0002Z" fill="url(#paint6_linear_454_7980)"/>
<path d="M0.317383 19.0901C0.317383 18.1133 0.903883 17.2032 1.91479 16.4385H18.9093C19.9202 17.2032 20.5067 18.1133 20.5067 19.0901C20.5067 21.8016 15.9872 23.9998 10.4121 23.9998C4.83693 23.9998 0.317383 21.8016 0.317383 19.0901Z" fill="url(#paint7_linear_454_7980)"/>
<path d="M10.4122 23.1108C14.9772 23.1108 18.6779 21.4744 18.6779 19.4558C18.6779 17.4372 14.9772 15.8008 10.4122 15.8008C5.84717 15.8008 2.14648 17.4372 2.14648 19.4558C2.14648 21.4744 5.84717 23.1108 10.4122 23.1108Z" fill="url(#paint8_linear_454_7980)"/>
<path d="M10.4122 23.1108C14.9772 23.1108 18.6779 21.4744 18.6779 19.4558C18.6779 17.4372 14.9772 15.8008 10.4122 15.8008C5.84717 15.8008 2.14648 17.4372 2.14648 19.4558C2.14648 21.4744 5.84717 23.1108 10.4122 23.1108Z" fill="url(#paint9_linear_454_7980)"/>
<path d="M10.9922 14.1885C16.2973 14.3347 20.5067 16.4732 20.5067 19.09C20.5067 21.7069 16.2973 23.8453 10.9922 23.9915V14.1885Z" fill="url(#paint10_linear_454_7980)"/>
<path d="M11.2091 23.0937L8.0752 19.9599V15.9491C8.8162 15.8528 9.60018 15.8008 10.4117 15.8008C14.9767 15.8008 18.6774 17.4372 18.6774 19.4558C18.6774 21.3554 15.3999 22.9163 11.2091 23.0937Z" fill="url(#paint11_linear_454_7980)"/>
<path d="M7.05371 17.5471C7.05318 17.0274 7.17383 16.5147 7.40607 16.0497C7.40607 16.0497 8.33931 15.7461 10.4123 15.7461C12.4853 15.7461 13.4185 16.0497 13.4185 16.0497C13.6508 16.5147 13.7714 17.0274 13.7709 17.5471C13.7709 19.402 12.2672 20.9057 10.4123 20.9057C8.55742 20.9057 7.05371 19.402 7.05371 17.5471Z" fill="url(#paint12_linear_454_7980)"/>
<path d="M7.05371 17.5471C7.05318 17.0274 7.17383 16.5147 7.40607 16.0497C7.40607 16.0497 8.33931 15.7461 10.4123 15.7461C12.4853 15.7461 13.4185 16.0497 13.4185 16.0497C13.6508 16.5147 13.7714 17.0274 13.7709 17.5471C13.7709 19.402 12.2672 20.9057 10.4123 20.9057C8.55742 20.9057 7.05371 19.402 7.05371 17.5471Z" fill="url(#paint13_linear_454_7980)"/>
<path d="M10.4124 15.7461C12.4854 15.7461 13.4186 16.0498 13.4186 16.0498C13.6508 16.5147 13.7715 17.0274 13.771 17.5471C13.771 19.402 12.2672 20.9057 10.4124 20.9057C10.1532 20.9056 9.89486 20.8755 9.64258 20.816V15.761C9.89905 15.751 10.1557 15.746 10.4124 15.7461Z" fill="url(#paint14_linear_454_7980)"/>
<path d="M7.05371 17.5475C7.05371 17.5195 7.05549 17.4918 7.0562 17.4639H13.7684C13.7691 17.4918 13.7709 17.5195 13.7709 17.5475C13.7709 19.4024 12.2672 20.9061 10.4123 20.9061C8.55741 20.9061 7.05371 19.4024 7.05371 17.5475Z" fill="url(#paint15_linear_454_7980)"/>
<defs>
<linearGradient id="paint0_linear_454_7980" x1="9.30539" y1="1.02023" x2="11.1937" y2="2.90859" gradientUnits="userSpaceOnUse">
<stop stop-color="#FEF0AE"/>
<stop offset="1" stop-color="#FAC600"/>
</linearGradient>
<linearGradient id="paint1_linear_454_7980" x1="10.4119" y1="1.77959" x2="10.4119" y2="3.02384" gradientUnits="userSpaceOnUse">
<stop stop-color="#FE9738" stop-opacity="0"/>
<stop offset="1" stop-color="#FE9738"/>
</linearGradient>
<linearGradient id="paint2_linear_454_7980" x1="10.2738" y1="2.00755" x2="12.1262" y2="3.60548" gradientUnits="userSpaceOnUse">
<stop stop-color="#FE9738" stop-opacity="0"/>
<stop offset="1" stop-color="#FE9738"/>
</linearGradient>
<linearGradient id="paint3_linear_454_7980" x1="5.26261" y1="12.2698" x2="13.2432" y2="12.2698" gradientUnits="userSpaceOnUse">
<stop stop-color="#FEF0AE"/>
<stop offset="1" stop-color="#FAC600"/>
</linearGradient>
<linearGradient id="paint4_linear_454_7980" x1="11.0055" y1="12.4136" x2="17.4614" y2="13.1999" gradientUnits="userSpaceOnUse">
<stop stop-color="#FE9738" stop-opacity="0"/>
<stop offset="1" stop-color="#FE9738"/>
</linearGradient>
<linearGradient id="paint5_linear_454_7980" x1="10.412" y1="12.1253" x2="10.412" y2="16.6369" gradientUnits="userSpaceOnUse">
<stop stop-color="#FE9738" stop-opacity="0"/>
<stop offset="1" stop-color="#FE9738"/>
</linearGradient>
<linearGradient id="paint6_linear_454_7980" x1="-109.746" y1="14.6809" x2="-109.746" y2="23.8133" gradientUnits="userSpaceOnUse">
<stop stop-color="#FEF0AE"/>
<stop offset="1" stop-color="#FAC600"/>
</linearGradient>
<linearGradient id="paint7_linear_454_7980" x1="-109.746" y1="20.2675" x2="-109.746" y2="24.355" gradientUnits="userSpaceOnUse">
<stop stop-color="#FE9738" stop-opacity="0"/>
<stop offset="1" stop-color="#FE9738"/>
</linearGradient>
<linearGradient id="paint8_linear_454_7980" x1="-107.826" y1="10.8055" x2="-110.882" y2="24.5745" gradientUnits="userSpaceOnUse">
<stop stop-color="#FE9738" stop-opacity="0"/>
<stop offset="1" stop-color="#FE9738"/>
</linearGradient>
<linearGradient id="paint9_linear_454_7980" x1="-109.746" y1="20.9642" x2="-109.746" y2="15.746" gradientUnits="userSpaceOnUse">
<stop stop-color="#FE9738" stop-opacity="0"/>
<stop offset="1" stop-color="#FE9738"/>
</linearGradient>
<linearGradient id="paint10_linear_454_7980" x1="-113.975" y1="19.9867" x2="-118.152" y2="23.0615" gradientUnits="userSpaceOnUse">
<stop stop-color="#FE9738" stop-opacity="0"/>
<stop offset="1" stop-color="#FE9738"/>
</linearGradient>
<linearGradient id="paint11_linear_454_7980" x1="-114.601" y1="21.1877" x2="-111.198" y2="17.9001" gradientUnits="userSpaceOnUse">
<stop stop-color="#FE9738" stop-opacity="0"/>
<stop offset="1" stop-color="#FE9738"/>
</linearGradient>
<linearGradient id="paint12_linear_454_7980" x1="-108.308" y1="16.8839" x2="-111.654" y2="19.0692" gradientUnits="userSpaceOnUse">
<stop stop-color="#F5FBFF"/>
<stop offset="1" stop-color="#DBD5EF"/>
</linearGradient>
<linearGradient id="paint13_linear_454_7980" x1="-109.545" y1="18.9021" x2="-110.048" y2="15.4986" gradientUnits="userSpaceOnUse">
<stop stop-color="#DBD5EF" stop-opacity="0"/>
<stop offset="0.285" stop-color="#D9D2EE" stop-opacity="0.285"/>
<stop offset="0.474" stop-color="#D4C9E9" stop-opacity="0.474"/>
<stop offset="0.635" stop-color="#CBBAE2" stop-opacity="0.635"/>
<stop offset="0.779" stop-color="#BFA5D7" stop-opacity="0.78"/>
<stop offset="0.913" stop-color="#AF8ACA" stop-opacity="0.913"/>
<stop offset="1" stop-color="#A274BF"/>
</linearGradient>
<linearGradient id="paint14_linear_454_7980" x1="-109.943" y1="18.3259" x2="-113.192" y2="18.3259" gradientUnits="userSpaceOnUse">
<stop stop-color="#DBD5EF" stop-opacity="0"/>
<stop offset="0.285" stop-color="#D9D2EE" stop-opacity="0.285"/>
<stop offset="0.474" stop-color="#D4C9E9" stop-opacity="0.474"/>
<stop offset="0.635" stop-color="#CBBAE2" stop-opacity="0.635"/>
<stop offset="0.779" stop-color="#BFA5D7" stop-opacity="0.78"/>
<stop offset="0.913" stop-color="#AF8ACA" stop-opacity="0.913"/>
<stop offset="1" stop-color="#A274BF"/>
</linearGradient>
<linearGradient id="paint15_linear_454_7980" x1="-109.227" y1="17.4955" x2="-111.78" y2="20.551" gradientUnits="userSpaceOnUse">
<stop stop-color="#DBD5EF" stop-opacity="0"/>
<stop offset="0.285" stop-color="#D9D2EE" stop-opacity="0.285"/>
<stop offset="0.474" stop-color="#D4C9E9" stop-opacity="0.474"/>
<stop offset="0.635" stop-color="#CBBAE2" stop-opacity="0.635"/>
<stop offset="0.779" stop-color="#BFA5D7" stop-opacity="0.78"/>
<stop offset="0.913" stop-color="#AF8ACA" stop-opacity="0.913"/>
<stop offset="1" stop-color="#A274BF"/>
</linearGradient>
</defs>
</svg>
