<svg width="95" height="95" viewBox="0 0 95 95" fill="none" xmlns="http://www.w3.org/2000/svg">
<g filter="url(#filter0_d_4042_12724)">
<circle cx="43.0161" cy="43.0161" r="39.6819" fill="#5AE7E7" stroke="#38BEBE" stroke-width="4.66845"/>
<g filter="url(#filter1_f_4042_12724)">
<ellipse cx="24.7807" cy="21.4694" rx="13.2631" ry="4.66845" transform="rotate(-35.2607 24.7807 21.4694)" fill="white"/>
</g>
<g filter="url(#filter2_d_4042_12724)">
<path d="M56.5439 21.1633C53.9666 21.1633 51.4949 22.1872 49.6724 24.0096C47.85 25.832 46.8262 28.3037 46.8262 30.881V49.5066H66.2617V30.881C66.2617 28.3037 65.2379 25.832 63.4154 24.0096C61.593 22.1872 59.1212 21.1633 56.5439 21.1633Z" fill="url(#paint0_linear_4042_12724)"/>
<path d="M63.0224 61.6507H50.0654C48.7768 61.6507 47.5409 61.1388 46.6297 60.2276C45.7185 59.3164 45.2065 58.0805 45.2065 56.7919V50.7183C45.2065 48.4632 46.1024 46.3004 47.697 44.7058C49.2917 43.1112 51.4544 42.2153 53.7096 42.2153H59.3783C61.6334 42.2153 63.7962 43.1112 65.3908 44.7058C66.9855 46.3004 67.8813 48.4632 67.8813 50.7183V56.7919C67.8813 58.0805 67.3694 59.3164 66.4582 60.2276C65.547 61.1388 64.3111 61.6507 63.0224 61.6507Z" fill="url(#paint1_linear_4042_12724)"/>
<path d="M59.3777 42.2153H53.709C52.5975 42.2147 51.4969 42.433 50.4697 42.8575V43.0251C50.4697 44.636 51.1096 46.1808 52.2486 47.3198C53.3877 48.4588 54.9325 49.0987 56.5433 49.0987C58.1541 49.0987 59.699 48.4588 60.838 47.3198C61.977 46.1808 62.6169 44.636 62.6169 43.0251V42.8575C61.5898 42.433 60.4891 42.2147 59.3777 42.2153Z" fill="url(#paint2_linear_4042_12724)"/>
<path d="M52.8994 39.3818H60.1877V43.026C60.1877 43.9925 59.8038 44.9194 59.1204 45.6028C58.437 46.2862 57.5101 46.6701 56.5436 46.6701C55.5771 46.6701 54.6502 46.2862 53.9668 45.6028C53.2834 44.9194 52.8994 43.9925 52.8994 43.026V39.3818Z" fill="url(#paint3_linear_4042_12724)"/>
<path d="M63.8325 31.2831C63.8325 27.2579 60.5694 23.9949 56.5442 23.9949C52.519 23.9949 49.2559 27.2579 49.2559 31.2831V35.3322C49.2559 39.3574 52.519 42.6205 56.5442 42.6205C60.5694 42.6205 63.8325 39.3574 63.8325 35.3322V31.2831Z" fill="url(#paint4_linear_4042_12724)"/>
<path d="M64.6416 30.8757C64.6416 28.7279 63.7884 26.6681 62.2697 25.1495C60.751 23.6308 58.6912 22.7776 56.5434 22.7776C54.3957 22.7776 52.3359 23.6308 50.8172 25.1495C49.2985 26.6681 48.4453 28.7279 48.4453 30.8757L49.2551 33.71L50.4698 31.2806C56.5434 31.2806 58.9729 28.8511 58.9729 28.8511C59.3083 29.5444 59.8231 30.1353 60.4639 30.5625C61.1047 30.9897 61.8481 31.2376 62.6171 31.2806L63.8318 33.71L64.6416 30.8757Z" fill="url(#paint5_linear_4042_12724)"/>
<path d="M66.2632 34.9272C66.2632 33.5855 65.1755 32.4978 63.8337 32.4978C62.492 32.4978 61.4043 33.5855 61.4043 34.9272C61.4043 36.269 62.492 37.3567 63.8337 37.3567C65.1755 37.3567 66.2632 36.269 66.2632 34.9272Z" fill="url(#paint6_linear_4042_12724)"/>
<path d="M51.6851 34.9272C51.6851 33.5855 50.5974 32.4978 49.2556 32.4978C47.9139 32.4978 46.8262 33.5855 46.8262 34.9272C46.8262 36.269 47.9139 37.3567 49.2556 37.3567C50.5974 37.3567 51.6851 36.269 51.6851 34.9272Z" fill="url(#paint7_linear_4042_12724)"/>
<path d="M37.1089 61.6507H24.1519C22.8632 61.6507 21.6273 61.1388 20.7161 60.2276C19.8049 59.3164 19.293 58.0805 19.293 56.7919V50.7183C19.293 48.4632 20.1888 46.3004 21.7835 44.7058C23.3781 43.1112 25.5409 42.2153 27.796 42.2153H33.4647C35.7199 42.2153 37.8826 43.1112 39.4773 44.7058C41.0719 46.3004 41.9678 48.4632 41.9678 50.7183V56.7919C41.9678 58.0805 41.4558 59.3164 40.5446 60.2276C39.6334 61.1388 38.3975 61.6507 37.1089 61.6507Z" fill="url(#paint8_linear_4042_12724)"/>
<path d="M33.8686 47.0749H27.3901C26.9606 47.0749 26.5486 46.9043 26.2449 46.6005C25.9411 46.2968 25.7705 45.8848 25.7705 45.4553V44.6455C25.7705 43.7864 26.1118 42.9625 26.7193 42.355C27.3267 41.7475 28.1507 41.4062 29.0098 41.4062H32.249C33.1081 41.4062 33.932 41.7475 34.5395 42.355C35.147 42.9625 35.4883 43.7864 35.4883 44.6455V45.4553C35.4883 45.8848 35.3176 46.2968 35.0139 46.6005C34.7102 46.9043 34.2982 47.0749 33.8686 47.0749Z" fill="url(#paint9_linear_4042_12724)"/>
<path d="M26.9878 39.3818H34.2761V43.026C34.2761 43.9925 33.8922 44.9194 33.2088 45.6028C32.5254 46.2862 31.5984 46.6701 30.632 46.6701C29.6655 46.6701 28.7386 46.2862 28.0551 45.6028C27.3717 44.9194 26.9878 43.9925 26.9878 43.026V39.3818Z" fill="url(#paint10_linear_4042_12724)"/>
<path d="M37.9184 31.2831C37.9184 27.2579 34.6553 23.9949 30.6301 23.9949C26.6049 23.9949 23.3418 27.2579 23.3418 31.2831V35.3322C23.3418 39.3574 26.6049 42.6205 30.6301 42.6205C34.6553 42.6205 37.9184 39.3574 37.9184 35.3322V31.2831Z" fill="url(#paint11_linear_4042_12724)"/>
<path d="M23.3433 33.9707L24.5581 31.5413C25.327 31.4984 26.0704 31.2504 26.7112 30.8232C27.352 30.396 27.8668 29.8051 28.2022 29.1119C28.2022 29.1119 30.6317 31.5413 36.7053 31.5413L37.92 33.9707C37.92 33.9707 41.6079 29.4155 38.3322 24.9689C35.1107 20.5935 28.246 20.0396 25.7728 23.0383C25.7728 23.0383 21.4128 22.6261 20.9139 27.8972C20.4564 32.735 23.3433 33.9707 23.3433 33.9707Z" fill="url(#paint12_linear_4042_12724)"/>
<path d="M25.771 34.9272C25.771 33.5855 24.6833 32.4978 23.3416 32.4978C21.9998 32.4978 20.9121 33.5855 20.9121 34.9272C20.9121 36.269 21.9998 37.3567 23.3416 37.3567C24.6833 37.3567 25.771 36.269 25.771 34.9272Z" fill="url(#paint13_linear_4042_12724)"/>
<path d="M40.3496 34.322C40.3496 32.9803 39.2619 31.8926 37.9202 31.8926C36.5784 31.8926 35.4907 32.9803 35.4907 34.322C35.4907 35.6637 36.5784 36.7514 37.9202 36.7514C39.2619 36.7514 40.3496 35.6637 40.3496 34.322Z" fill="url(#paint14_linear_4042_12724)"/>
<path d="M50.346 64.8895H36.8286C36.2804 64.8896 35.7376 64.7818 35.2312 64.5721C34.7248 64.3623 34.2646 64.0549 33.877 63.6673C33.4894 63.2797 33.182 62.8196 32.9723 62.3131C32.7626 61.8067 32.6547 61.2639 32.6548 60.7158V58.6354C32.6547 57.6488 32.8489 56.6718 33.2264 55.7603C33.6039 54.8488 34.1573 54.0206 34.8549 53.323C35.5526 52.6253 36.3808 52.072 37.2923 51.6944C38.2039 51.3169 39.1808 51.1227 40.1674 51.1228H47.0071C47.9937 51.1227 48.9707 51.3169 49.8822 51.6944C50.7937 52.072 51.622 52.6253 52.3196 53.323C53.0172 54.0206 53.5706 54.8488 53.9481 55.7603C54.3256 56.6718 54.5199 57.6488 54.5198 58.6354V60.7158C54.5199 61.2639 54.412 61.8067 54.2023 62.3131C53.9925 62.8196 53.6851 63.2797 53.2975 63.6673C52.9099 64.0549 52.4498 64.3623 51.9433 64.5721C51.4369 64.7818 50.8941 64.8896 50.346 64.8895Z" fill="url(#paint15_linear_4042_12724)"/>
<path d="M47.0082 51.1228H40.1685C39.6855 51.1239 39.2036 51.1711 38.7295 51.2637V51.9326C38.7295 53.2213 39.2414 54.4571 40.1526 55.3683C41.0638 56.2796 42.2997 56.7915 43.5884 56.7915C44.877 56.7915 46.1129 56.2796 47.0241 55.3683C47.9353 54.4571 48.4473 53.2213 48.4473 51.9326V51.2637C47.9732 51.1711 47.4913 51.1239 47.0082 51.1228Z" fill="url(#paint16_linear_4042_12724)"/>
<path d="M40.3486 48.6912H46.8271V51.9304C46.8271 52.7895 46.4859 53.6134 45.8784 54.2209C45.2709 54.8284 44.447 55.1696 43.5879 55.1696C42.7288 55.1696 41.9049 54.8284 41.2974 54.2209C40.6899 53.6134 40.3486 52.7895 40.3486 51.9304V48.6912Z" fill="url(#paint17_linear_4042_12724)"/>
<path d="M43.6368 34.9277H43.538C39.9873 34.9277 37.1089 37.8061 37.1089 41.3568V44.6948C37.1089 48.2455 39.9873 51.1239 43.538 51.1239H43.6368C47.1875 51.1239 50.0659 48.2455 50.0659 44.6948V41.3568C50.0659 37.8061 47.1875 34.9277 43.6368 34.9277Z" fill="url(#paint18_linear_4042_12724)"/>
<path d="M37.0091 44.0604L38.1056 41.8674C38.7996 41.8287 39.4706 41.6049 40.0489 41.2193C40.6272 40.8337 41.0918 40.3003 41.3943 39.6745C41.3943 39.6745 43.5873 41.8674 49.0689 41.8674L50.1654 44.0604C50.1654 44.0604 53.4937 39.949 50.5371 35.9356C47.6299 31.9878 41.434 31.4865 39.1997 34.1929C39.1997 34.1929 35.2648 33.8212 34.8146 38.5788C34.4032 42.9445 37.0091 44.0604 37.0091 44.0604Z" fill="url(#paint19_linear_4042_12724)"/>
<path d="M52.0886 44.6424C52.0886 43.5243 51.1822 42.6179 50.0641 42.6179C48.946 42.6179 48.0396 43.5243 48.0396 44.6424C48.0396 45.7606 48.946 46.667 50.0641 46.667C51.1822 46.667 52.0886 45.7606 52.0886 44.6424Z" fill="url(#paint20_linear_4042_12724)"/>
<path d="M39.1326 44.6424C39.1326 43.5243 38.2261 42.6179 37.108 42.6179C35.9899 42.6179 35.0835 43.5243 35.0835 44.6424C35.0835 45.7606 35.9899 46.667 37.108 46.667C38.2261 46.667 39.1326 45.7606 39.1326 44.6424Z" fill="url(#paint21_linear_4042_12724)"/>
</g>
</g>
<defs>
<filter id="filter0_d_4042_12724" x="0.833269" y="0.833269" width="93.3691" height="93.3691" filterUnits="userSpaceOnUse" color-interpolation-filters="sRGB">
<feFlood flood-opacity="0" result="BackgroundImageFix"/>
<feColorMatrix in="SourceAlpha" type="matrix" values="0 0 0 0 0 0 0 0 0 0 0 0 0 0 0 0 0 0 127 0" result="hardAlpha"/>
<feOffset dx="4.50172" dy="4.50172"/>
<feGaussianBlur stdDeviation="2.33423"/>
<feComposite in2="hardAlpha" operator="out"/>
<feColorMatrix type="matrix" values="0 0 0 0 1 0 0 0 0 1 0 0 0 0 1 0 0 0 0.1 0"/>
<feBlend mode="normal" in2="BackgroundImageFix" result="effect1_dropShadow_4042_12724"/>
<feBlend mode="normal" in="SourceGraphic" in2="effect1_dropShadow_4042_12724" result="shape"/>
</filter>
<filter id="filter1_f_4042_12724" x="4.28126" y="3.5774" width="40.999" height="35.7839" filterUnits="userSpaceOnUse" color-interpolation-filters="sRGB">
<feFlood flood-opacity="0" result="BackgroundImageFix"/>
<feBlend mode="normal" in="SourceGraphic" in2="BackgroundImageFix" result="shape"/>
<feGaussianBlur stdDeviation="4.66845" result="effect1_foregroundBlur_4042_12724"/>
</filter>
<filter id="filter2_d_4042_12724" x="14.589" y="18.8077" width="57.9963" height="53.1379" filterUnits="userSpaceOnUse" color-interpolation-filters="sRGB">
<feFlood flood-opacity="0" result="BackgroundImageFix"/>
<feColorMatrix in="SourceAlpha" type="matrix" values="0 0 0 0 0 0 0 0 0 0 0 0 0 0 0 0 0 0 127 0" result="hardAlpha"/>
<feOffset dy="2.35198"/>
<feGaussianBlur stdDeviation="2.35198"/>
<feComposite in2="hardAlpha" operator="out"/>
<feColorMatrix type="matrix" values="0 0 0 0 0 0 0 0 0 0 0 0 0 0 0 0 0 0 0.35 0"/>
<feBlend mode="normal" in2="BackgroundImageFix" result="effect1_dropShadow_4042_12724"/>
<feBlend mode="normal" in="SourceGraphic" in2="effect1_dropShadow_4042_12724" result="shape"/>
</filter>
<linearGradient id="paint0_linear_4042_12724" x1="56.5439" y1="21.3949" x2="56.5439" y2="46.3994" gradientUnits="userSpaceOnUse">
<stop stop-color="#8A552E"/>
<stop offset="1" stop-color="#543426"/>
</linearGradient>
<linearGradient id="paint1_linear_4042_12724" x1="56.5439" y1="44.4277" x2="56.5439" y2="62.0216" gradientUnits="userSpaceOnUse">
<stop stop-color="#FED200"/>
<stop offset="1" stop-color="#F59815"/>
</linearGradient>
<linearGradient id="paint2_linear_4042_12724" x1="56.5433" y1="38.5712" x2="56.5433" y2="54.7285" gradientUnits="userSpaceOnUse">
<stop stop-color="#FED200"/>
<stop offset="1" stop-color="#F59815"/>
</linearGradient>
<linearGradient id="paint3_linear_4042_12724" x1="56.5436" y1="38.9624" x2="56.5436" y2="46.3154" gradientUnits="userSpaceOnUse">
<stop stop-color="#F1D2BD"/>
<stop offset="1" stop-color="#FEB592"/>
</linearGradient>
<linearGradient id="paint4_linear_4042_12724" x1="56.5442" y1="31.2184" x2="56.5442" y2="42.4755" gradientUnits="userSpaceOnUse">
<stop stop-color="#F1D2BD"/>
<stop offset="1" stop-color="#FEB592"/>
</linearGradient>
<linearGradient id="paint5_linear_4042_12724" x1="56.5434" y1="21.3896" x2="56.5434" y2="46.394" gradientUnits="userSpaceOnUse">
<stop stop-color="#8A552E"/>
<stop offset="1" stop-color="#543426"/>
</linearGradient>
<linearGradient id="paint6_linear_4042_12724" x1="63.8337" y1="31.2183" x2="63.8337" y2="42.4755" gradientUnits="userSpaceOnUse">
<stop stop-color="#F1D2BD"/>
<stop offset="1" stop-color="#FEB592"/>
</linearGradient>
<linearGradient id="paint7_linear_4042_12724" x1="49.2556" y1="31.2183" x2="49.2556" y2="42.4755" gradientUnits="userSpaceOnUse">
<stop stop-color="#F1D2BD"/>
<stop offset="1" stop-color="#FEB592"/>
</linearGradient>
<linearGradient id="paint8_linear_4042_12724" x1="30.6304" y1="40.0029" x2="30.6304" y2="60.828" gradientUnits="userSpaceOnUse">
<stop stop-color="#6FC6FC"/>
<stop offset="1" stop-color="#50A7F6"/>
</linearGradient>
<linearGradient id="paint9_linear_4042_12724" x1="30.6294" y1="41.8257" x2="30.6294" y2="46.3825" gradientUnits="userSpaceOnUse">
<stop stop-color="white"/>
<stop offset="1" stop-color="#EDF1F2"/>
</linearGradient>
<linearGradient id="paint10_linear_4042_12724" x1="30.632" y1="40.2208" x2="30.632" y2="45.9793" gradientUnits="userSpaceOnUse">
<stop stop-color="#F1D2BD"/>
<stop offset="1" stop-color="#FEB592"/>
</linearGradient>
<linearGradient id="paint11_linear_4042_12724" x1="30.6301" y1="31.999" x2="30.6301" y2="42.6731" gradientUnits="userSpaceOnUse">
<stop stop-color="#F1D2BD"/>
<stop offset="1" stop-color="#FEB592"/>
</linearGradient>
<linearGradient id="paint12_linear_4042_12724" x1="30.2762" y1="21.8455" x2="30.2762" y2="31.4903" gradientUnits="userSpaceOnUse">
<stop stop-color="#3E4154"/>
<stop offset="1" stop-color="#1B2129"/>
</linearGradient>
<linearGradient id="paint13_linear_4042_12724" x1="23.3416" y1="31.999" x2="23.3416" y2="42.673" gradientUnits="userSpaceOnUse">
<stop stop-color="#F1D2BD"/>
<stop offset="1" stop-color="#FEB592"/>
</linearGradient>
<linearGradient id="paint14_linear_4042_12724" x1="37.9202" y1="32.0011" x2="37.9202" y2="42.6752" gradientUnits="userSpaceOnUse">
<stop stop-color="#F1D2BD"/>
<stop offset="1" stop-color="#FEB592"/>
</linearGradient>
<linearGradient id="paint15_linear_4042_12724" x1="43.5873" y1="45.9894" x2="43.5873" y2="64.6021" gradientUnits="userSpaceOnUse">
<stop stop-color="#4793EB"/>
<stop offset="1" stop-color="#2367EC"/>
</linearGradient>
<linearGradient id="paint16_linear_4042_12724" x1="43.5884" y1="45.4687" x2="43.5884" y2="56.9283" gradientUnits="userSpaceOnUse">
<stop stop-color="#4793EB"/>
<stop offset="1" stop-color="#2367EC"/>
</linearGradient>
<linearGradient id="paint17_linear_4042_12724" x1="43.5879" y1="49.1754" x2="43.5879" y2="54.9688" gradientUnits="userSpaceOnUse">
<stop stop-color="#F1D2BD"/>
<stop offset="1" stop-color="#FEB592"/>
</linearGradient>
<linearGradient id="paint18_linear_4042_12724" x1="43.5874" y1="42.0856" x2="43.5874" y2="51.0049" gradientUnits="userSpaceOnUse">
<stop stop-color="#F1D2BD"/>
<stop offset="1" stop-color="#FEB592"/>
</linearGradient>
<linearGradient id="paint19_linear_4042_12724" x1="43.2666" y1="33.1166" x2="43.2666" y2="41.8213" gradientUnits="userSpaceOnUse">
<stop stop-color="#3E4154"/>
<stop offset="1" stop-color="#1B2129"/>
</linearGradient>
<linearGradient id="paint20_linear_4042_12724" x1="50.0641" y1="42.0826" x2="50.0641" y2="51.0019" gradientUnits="userSpaceOnUse">
<stop stop-color="#F1D2BD"/>
<stop offset="1" stop-color="#FEB592"/>
</linearGradient>
<linearGradient id="paint21_linear_4042_12724" x1="37.108" y1="42.0826" x2="37.108" y2="51.0019" gradientUnits="userSpaceOnUse">
<stop stop-color="#F1D2BD"/>
<stop offset="1" stop-color="#FEB592"/>
</linearGradient>
</defs>
</svg>
