<svg width="24" height="24" viewBox="0 0 24 24" fill="none" xmlns="http://www.w3.org/2000/svg">
<g clip-path="url(#clip0_2556_47137)">
<circle cx="12" cy="12" r="12" fill="white"/>
<mask id="mask0_2556_47137" style="mask-type:alpha" maskUnits="userSpaceOnUse" x="5" y="5" width="14" height="14">
<rect x="5" y="5" width="14" height="14" fill="#D9D9D9"/>
</mask>
<g mask="url(#mask0_2556_47137)">
<path d="M11.9993 14.3334C12.466 14.3334 12.8816 14.1949 13.2462 13.9178C13.6108 13.6407 13.8757 13.2834 14.041 12.8459H9.95768C10.123 13.2834 10.3879 13.6407 10.7525 13.9178C11.1171 14.1949 11.5327 14.3334 11.9993 14.3334ZM10.541 12.0001C10.7841 12.0001 10.9907 11.915 11.1608 11.7449C11.3309 11.5747 11.416 11.3681 11.416 11.1251C11.416 10.882 11.3309 10.6754 11.1608 10.5053C10.9907 10.3352 10.7841 10.2501 10.541 10.2501C10.298 10.2501 10.0914 10.3352 9.92122 10.5053C9.75109 10.6754 9.66602 10.882 9.66602 11.1251C9.66602 11.3681 9.75109 11.5747 9.92122 11.7449C10.0914 11.915 10.298 12.0001 10.541 12.0001ZM13.4577 12.0001C13.7007 12.0001 13.9073 11.915 14.0775 11.7449C14.2476 11.5747 14.3327 11.3681 14.3327 11.1251C14.3327 10.882 14.2476 10.6754 14.0775 10.5053C13.9073 10.3352 13.7007 10.2501 13.4577 10.2501C13.2146 10.2501 13.008 10.3352 12.8379 10.5053C12.6678 10.6754 12.5827 10.882 12.5827 11.1251C12.5827 11.3681 12.6678 11.5747 12.8379 11.7449C13.008 11.915 13.2146 12.0001 13.4577 12.0001ZM9.44727 8.73341L11.0806 6.61883C11.1973 6.46328 11.3358 6.34904 11.4962 6.27612C11.6566 6.20321 11.8243 6.16675 11.9993 6.16675C12.1743 6.16675 12.3421 6.20321 12.5025 6.27612C12.6629 6.34904 12.8014 6.46328 12.9181 6.61883L14.5514 8.73341L17.0306 9.56466C17.2834 9.64244 17.4827 9.78585 17.6285 9.99487C17.7743 10.2039 17.8473 10.4348 17.8473 10.6876C17.8473 10.8042 17.8303 10.9209 17.7962 11.0376C17.7622 11.1542 17.7063 11.2661 17.6285 11.373L16.0243 13.648L16.0827 16.0397C16.0924 16.3799 15.9806 16.6667 15.7473 16.9001C15.5139 17.1334 15.2417 17.2501 14.9306 17.2501C14.9112 17.2501 14.8042 17.2355 14.6098 17.2063L11.9993 16.4772L9.38893 17.2063C9.34032 17.2258 9.28685 17.2379 9.22852 17.2428C9.17018 17.2477 9.11671 17.2501 9.0681 17.2501C8.75699 17.2501 8.48477 17.1334 8.25143 16.9001C8.0181 16.6667 7.90629 16.3799 7.91602 16.0397L7.97435 13.6334L6.38477 11.373C6.30699 11.2661 6.25109 11.1542 6.21706 11.0376C6.18303 10.9209 6.16602 10.8042 6.16602 10.6876C6.16602 10.4445 6.2365 10.2185 6.37747 10.0095C6.51845 9.80043 6.71532 9.65216 6.9681 9.56466L9.44727 8.73341Z" fill="#676666"/>
</g>
</g>
<defs>
<clipPath id="clip0_2556_47137">
<rect width="24" height="24" fill="white"/>
</clipPath>
</defs>
</svg>
