<svg width="50" height="51" viewBox="0 0 50 51" fill="none" xmlns="http://www.w3.org/2000/svg">
<circle cx="25.5" cy="26.5" r="23.0667" fill="#D9D9D9" stroke="white" stroke-width="2.86667"/>
<g filter="url(#filter0_f_2702_3169)">
<ellipse cx="14.867" cy="13.9348" rx="7.73386" ry="2.72222" transform="rotate(-35.2607 14.867 13.9348)" fill="white"/>
</g>
<path d="M18.5 9.875C16.2231 10.7388 11.1105 13.8731 8.875 19.5" stroke="white" stroke-opacity="0.7" stroke-width="2.86667" stroke-linecap="round"/>
<circle cx="7.5625" cy="22.5625" r="1.3125" fill="white" fill-opacity="0.7"/>
<path d="M16.333 23.1154C16.333 21.795 17.4034 20.7246 18.7238 20.7246H31.2755C32.596 20.7246 33.6663 21.795 33.6663 23.1154V33.2763C33.6663 34.5968 32.596 35.6671 31.2755 35.6671H18.7238C17.4034 35.6671 16.333 34.5968 16.333 33.2763V23.1154Z" stroke="white" stroke-width="2.45" stroke-linecap="round" stroke-linejoin="round"/>
<path d="M20.2188 18.333V22.5169" stroke="white" stroke-width="2.45" stroke-linecap="round" stroke-linejoin="round"/>
<path d="M29.7812 18.333V22.5169" stroke="white" stroke-width="2.45" stroke-linecap="round" stroke-linejoin="round"/>
<path d="M21 27H29" stroke="white" stroke-width="2.45" stroke-linecap="round" stroke-linejoin="round"/>
<path d="M34.471 18.2644V15.4114H41.3239V18.2644H34.471Z" stroke="#FFC71B" stroke-width="5.64706" stroke-linecap="round" stroke-linejoin="round"/>
<path d="M33.6475 12.3379V12.1806C33.6475 10.6194 33.5536 8.87914 34.644 7.76179C35.2658 7.12459 36.272 6.58789 37.8975 6.58789C39.523 6.58789 40.5292 7.12459 41.151 7.76179C42.2414 8.87914 42.1475 10.6194 42.1475 12.1806V12.3379" stroke="#FFC71B" stroke-width="1.76471" stroke-linecap="round" stroke-linejoin="round"/>
<path d="M38.5447 16.2552C38.5893 16.3842 38.73 16.4525 38.8589 16.4079C38.9879 16.3633 39.0562 16.2226 39.0116 16.0936L38.5447 16.2552ZM38.3315 15.8374L38.3423 15.5904H38.3315V15.8374ZM37.6697 16.8485V17.0955V16.8485ZM38.3315 17.8595V18.1065V17.8595ZM37.6697 17.8595L37.6588 18.1065H37.6697V17.8595ZM37.4565 17.4417C37.4119 17.3127 37.2712 17.2444 37.1422 17.289C37.0133 17.3336 36.9449 17.4743 36.9895 17.6033L37.4565 17.4417ZM38.2476 15.3319C38.2476 15.1955 38.137 15.0849 38.0006 15.0849C37.8641 15.0849 37.7535 15.1955 37.7535 15.3319H38.2476ZM37.7535 15.8374C37.7535 15.9739 37.8641 16.0845 38.0006 16.0845C38.137 16.0845 38.2476 15.9739 38.2476 15.8374H37.7535ZM38.2476 17.8595C38.2476 17.723 38.137 17.6124 38.0006 17.6124C37.8641 17.6124 37.7535 17.723 37.7535 17.8595H38.2476ZM37.7535 18.365C37.7535 18.5015 37.8641 18.6121 38.0006 18.6121C38.137 18.6121 38.2476 18.5015 38.2476 18.365H37.7535ZM39.0116 16.0936C38.9628 15.9526 38.8734 15.829 38.7543 15.739L38.4567 16.1335C38.4967 16.1637 38.5276 16.2059 38.5447 16.2552L39.0116 16.0936ZM38.7543 15.739C38.635 15.6491 38.4916 15.5972 38.3423 15.5906L38.3206 16.0843C38.3693 16.0864 38.4167 16.1033 38.4567 16.1335L38.7543 15.739ZM38.3315 15.5904H37.6697V16.0845H38.3315V15.5904ZM37.6697 15.5904C37.4711 15.5904 37.2815 15.6708 37.1424 15.8124L37.495 16.1586C37.5421 16.1106 37.6051 16.0845 37.6697 16.0845V15.5904ZM37.1424 15.8124C37.0036 15.9539 36.9263 16.1448 36.9263 16.3429H37.4204C37.4204 16.273 37.4478 16.2067 37.495 16.1586L37.1424 15.8124ZM36.9263 16.3429C36.9263 16.5411 37.0036 16.732 37.1424 16.8735L37.495 16.5273C37.4478 16.4792 37.4204 16.4129 37.4204 16.3429H36.9263ZM37.1424 16.8735C37.2815 17.0151 37.4711 17.0955 37.6697 17.0955V16.6014C37.6051 16.6014 37.5421 16.5753 37.495 16.5273L37.1424 16.8735ZM37.6697 17.0955H38.3315V16.6014H37.6697V17.0955ZM38.3315 17.0955C38.3961 17.0955 38.459 17.1216 38.5061 17.1696L38.8587 16.8234C38.7197 16.6818 38.5301 16.6014 38.3315 16.6014V17.0955ZM38.5061 17.1696C38.5534 17.2177 38.5807 17.284 38.5807 17.354H39.0748C39.0748 17.1558 38.9976 16.9649 38.8587 16.8234L38.5061 17.1696ZM38.5807 17.354C38.5807 17.424 38.5534 17.4902 38.5061 17.5383L38.8587 17.8845C38.9976 17.743 39.0748 17.5521 39.0748 17.354H38.5807ZM38.5061 17.5383C38.459 17.5863 38.3961 17.6124 38.3315 17.6124V18.1065C38.5301 18.1065 38.7197 18.0261 38.8587 17.8845L38.5061 17.5383ZM38.3315 17.6124H37.6697V18.1065H38.3315V17.6124ZM37.6806 17.6127C37.6319 17.6105 37.5845 17.5936 37.5445 17.5634L37.2469 17.9579C37.3661 18.0478 37.5096 18.0997 37.6588 18.1063L37.6806 17.6127ZM37.5445 17.5634C37.5044 17.5332 37.4735 17.491 37.4565 17.4417L36.9895 17.6033C37.0383 17.7443 37.1277 17.868 37.2469 17.9579L37.5445 17.5634ZM37.7535 15.3319V15.8374H38.2476V15.3319H37.7535ZM37.7535 17.8595V18.365H38.2476V17.8595H37.7535ZM40.4006 16.8209C40.4006 18.1464 39.3261 19.2209 38.0006 19.2209V19.715C39.599 19.715 40.8947 18.4193 40.8947 16.8209H40.4006ZM38.0006 19.2209C36.6751 19.2209 35.6006 18.1464 35.6006 16.8209H35.1065C35.1065 18.4193 36.4022 19.715 38.0006 19.715V19.2209ZM35.6006 16.8209C35.6006 15.4954 36.6751 14.4209 38.0006 14.4209V13.9268C36.4022 13.9268 35.1065 15.2225 35.1065 16.8209H35.6006ZM38.0006 14.4209C39.3261 14.4209 40.4006 15.4954 40.4006 16.8209H40.8947C40.8947 15.2225 39.599 13.9268 38.0006 13.9268V14.4209Z" fill="white"/>
<defs>
<filter id="filter0_f_2702_3169" x="0.189862" y="0.778729" width="29.3537" height="26.3127" filterUnits="userSpaceOnUse" color-interpolation-filters="sRGB">
<feFlood flood-opacity="0" result="BackgroundImageFix"/>
<feBlend mode="normal" in="SourceGraphic" in2="BackgroundImageFix" result="shape"/>
<feGaussianBlur stdDeviation="4.08378" result="effect1_foregroundBlur_2702_3169"/>
</filter>
</defs>
</svg>
