<svg width="38" height="34" viewBox="0 0 38 34" fill="none" xmlns="http://www.w3.org/2000/svg">
<path d="M36.5672 19.3297L12.6242 33.1532C11.9939 33.5171 11.2449 33.6157 10.5418 33.4274C9.8388 33.2391 9.23933 32.7793 8.87529 32.1491L1.22068 18.8909C0.856899 18.2605 0.758404 17.5114 0.946854 16.8084C1.1353 16.1054 1.59527 15.5061 2.22558 15.1422L26.168 1.31901C26.7983 0.955096 27.5473 0.856441 28.2504 1.04474C28.9534 1.23304 29.5529 1.69287 29.9169 2.32311L37.5715 15.5813C37.9353 16.2117 38.0338 16.9607 37.8454 17.6637C37.6569 18.3667 37.1975 18.9658 36.5672 19.3297Z" fill="#FEBC1F"/>
<path d="M12.075 32.203L36.0179 18.3795C36.3301 18.1994 36.6038 17.9594 36.8233 17.6735C37.0428 17.3875 37.2038 17.0611 37.2971 16.713C37.3904 16.3648 37.4143 16.0016 37.3672 15.6442C37.3202 15.2868 37.2032 14.9422 37.023 14.63L29.3687 1.37233C29.0047 0.741926 28.4052 0.28193 27.7021 0.0935293C26.999 -0.0948722 26.2498 0.00375578 25.6194 0.367719L1.67652 14.1912C1.36438 14.3714 1.09079 14.6113 0.871371 14.8973C0.651954 15.1832 0.491007 15.5096 0.397721 15.8577C0.304434 16.2059 0.280634 16.569 0.32768 16.9263C0.374726 17.2837 0.491696 17.6283 0.671912 17.9404L8.32623 31.1981C8.5064 31.5103 8.74632 31.784 9.03227 32.0035C9.31822 32.223 9.64461 32.384 9.9928 32.4773C10.341 32.5706 10.7042 32.5945 11.0616 32.5474C11.419 32.5004 11.7628 32.3832 12.075 32.203Z" fill="#FFD475"/>
<path d="M1.67652 14.1912L25.6194 0.367719C26.2498 0.00375578 26.999 -0.0948722 27.7021 0.0935293C28.4052 0.28193 29.0047 0.741926 29.3687 1.37233L37.023 14.63C37.023 14.63 29.3294 1.93669 0.326412 16.2379C0.376781 15.8155 0.524943 15.4106 0.759135 15.0554C0.993326 14.7002 1.3071 14.4045 1.67554 14.1917L1.67652 14.1912Z" fill="#FEBC1F"/>
<path d="M34.0702 13.8163L34.283 14.1849L34.2779 14.1878C34.5756 14.6811 34.4016 15.3403 33.8996 15.6301L31.4881 17.0224C30.9958 17.3066 30.3327 17.141 30.0504 16.6285L30.0454 16.6315L29.8326 16.2629L29.8916 16.2288C29.8272 15.7881 30.073 15.3191 30.4803 15.0839L32.7253 13.7877C33.1326 13.5526 33.6617 13.5743 34.0112 13.8504L34.0702 13.8163Z" fill="#E3E7F0"/>
<path d="M33.6858 15.2654L31.3546 16.6113C30.8853 16.8823 30.2574 16.8199 29.9225 16.3928C29.8281 16.2734 29.7606 16.135 29.7244 15.9871C29.6882 15.8392 29.6843 15.6852 29.7129 15.5357C29.7415 15.3861 29.8019 15.2445 29.8901 15.1204C29.9783 14.9963 30.0922 14.8926 30.224 14.8164L32.546 13.4758C33.0438 13.1884 33.7168 13.2818 34.0337 13.7613C34.1145 13.8814 34.1698 14.0169 34.196 14.1592C34.2223 14.3016 34.219 14.4479 34.1864 14.5889C34.1537 14.73 34.0925 14.8628 34.0063 14.9792C33.9202 15.0956 33.8111 15.193 33.6858 15.2654Z" fill="white"/>
<path d="M27.1583 17.8069L27.3711 18.1755L27.366 18.1784C27.6643 18.6714 27.4897 19.3308 26.9883 19.6203L24.5767 21.0127C24.0839 21.2972 23.4213 21.1313 23.1386 20.6191L23.1335 20.6221L22.9207 20.2535L22.9797 20.2194C22.9153 19.7787 23.1616 19.3093 23.5689 19.0742L25.8134 17.7783C26.2207 17.5432 26.7503 17.5646 27.0998 17.8407L27.1583 17.8069Z" fill="#E3E7F0"/>
<path d="M26.7744 19.2557L24.4428 20.6019C23.9734 20.8729 23.3455 20.8105 23.0112 20.3831C22.9168 20.2637 22.8493 20.1253 22.8131 19.9775C22.7769 19.8296 22.7729 19.6757 22.8015 19.5262C22.83 19.3767 22.8904 19.2351 22.9785 19.111C23.0666 18.9869 23.1804 18.8832 23.3122 18.8069L25.6341 17.4664C26.1325 17.1786 26.805 17.2723 27.1224 17.7515C27.2032 17.8717 27.2584 18.0071 27.2847 18.1495C27.3109 18.2919 27.3077 18.4381 27.275 18.5792C27.2424 18.7202 27.1811 18.8531 27.095 18.9694C27.0089 19.0858 26.8998 19.1833 26.7744 19.2557Z" fill="white"/>
<path d="M20.2469 21.7972L20.4597 22.1657L20.4546 22.1687C20.7524 22.662 20.5783 23.3211 20.0764 23.6109L17.6648 25.0032C17.172 25.2878 16.5095 25.1218 16.2267 24.6097L16.2216 24.6126L16.0088 24.2441L16.0683 24.2097C16.004 23.769 16.2497 23.2999 16.657 23.0648L18.9021 21.7686C19.3093 21.5335 19.8384 21.5552 20.1879 21.8313L20.2469 21.7972Z" fill="#E3E7F0"/>
<path d="M19.8625 23.2463L17.5314 24.5922C17.062 24.8631 16.4341 24.8008 16.0993 24.3737C16.0049 24.2542 15.9373 24.1158 15.9012 23.9679C15.865 23.82 15.8611 23.6661 15.8897 23.5165C15.9183 23.367 15.9787 23.2253 16.0669 23.1012C16.1551 22.9771 16.269 22.8734 16.4008 22.7972L18.7222 21.457C19.2211 21.1689 19.8931 21.2629 20.2105 21.7421C20.2913 21.8623 20.3465 21.9977 20.3728 22.1401C20.399 22.2825 20.3958 22.4287 20.3631 22.5698C20.3305 22.7108 20.2692 22.8436 20.1831 22.96C20.097 23.0764 19.9879 23.1738 19.8625 23.2463Z" fill="white"/>
<path d="M13.3351 25.7877L13.5479 26.1563L13.5428 26.1592C13.841 26.6523 13.6665 27.3117 13.165 27.6012L10.7535 28.9935C10.2607 29.278 9.59811 29.1121 9.31533 28.6L9.31024 28.6029L9.09744 28.2343L9.1565 28.2002C9.09212 27.7595 9.33787 27.2905 9.74565 27.0551L11.9902 25.7592C12.3975 25.524 12.9271 25.5454 13.276 25.8218L13.3351 25.7877Z" fill="#E3E7F0"/>
<path d="M12.9511 27.2366L10.6195 28.5828C10.1501 28.8538 9.52218 28.7914 9.18787 28.364C9.0935 28.2446 9.02594 28.1062 8.98976 27.9584C8.95357 27.8105 8.94962 27.6566 8.97817 27.5071C9.00672 27.3576 9.0671 27.216 9.15521 27.0919C9.24333 26.9678 9.35711 26.8641 9.48884 26.7878L11.8108 25.4473C12.3092 25.1595 12.9816 25.2532 13.2991 25.7324C13.3799 25.8526 13.4351 25.988 13.4614 26.1304C13.4876 26.2728 13.4843 26.419 13.4517 26.5601C13.4191 26.7011 13.3578 26.834 13.2717 26.9503C13.1856 27.0667 13.0765 27.1642 12.9511 27.2366Z" fill="white"/>
<path d="M3.58142 18.6756L4.86174 20.8932C5.18447 21.4522 5.89915 21.6437 6.45812 21.321L10.6113 18.9231C11.1702 18.6004 11.3617 17.8857 11.039 17.3268L9.75869 15.1092C9.43596 14.5502 8.72099 14.3582 8.16201 14.6809L4.00887 17.0787C3.44989 17.4015 3.2584 18.1161 3.58142 18.6756Z" fill="#FEBC1F"/>
<path d="M3.38199 18.3302L4.66232 20.5478C4.98504 21.1068 5.70001 21.2988 6.25899 20.9761L10.4121 18.5782C10.9711 18.2555 11.1626 17.5408 10.8396 16.9813L9.55926 14.7638C9.23654 14.2048 8.52156 14.0128 7.96259 14.3355L3.80945 16.7333C3.25047 17.056 3.05897 17.7707 3.38199 18.3302Z" fill="#6A6A6A"/>
<path d="M6.86527 17.4785L5.77864 15.5964L5.29755 15.8742L6.38418 17.7563L3.88456 19.1994L4.16202 19.68L5.52943 18.8905L6.61489 20.7706L7.09547 20.4931L6.01001 18.6131L8.17516 17.363L9.26062 19.2431L9.74119 18.9656L8.65574 17.0855L10.3388 16.1138L10.0613 15.6333L6.86527 17.4785Z" fill="#434649"/>
</svg>
