<svg width="38" height="37" viewBox="0 0 38 37" fill="none" xmlns="http://www.w3.org/2000/svg">
<path d="M29.1806 34.24C29.1806 34.24 29.1806 34.24 29.1671 34.24C29.1063 34.254 28.8837 34.2959 28.5396 34.3448H28.5328C27.6219 34.4776 25.9282 34.6522 24.5585 34.3448C24.5517 34.3448 24.5382 34.3448 24.5247 34.3448L19.7947 31.8297L18.8365 31.3197L18.3844 31.6341L14.8622 34.0724L14.5248 34.3099C14.5248 34.3099 14.5248 34.3099 14.5046 34.3099C14.4574 34.3099 14.3156 34.3309 14.0997 34.3448C14.0727 34.3448 14.0457 34.3518 14.0188 34.3518C12.9729 34.4496 10.564 34.6313 9.47089 34.2959C9.45739 34.2959 9.45064 34.2959 9.43715 34.2889C9.28195 34.24 9.22797 34.0654 9.24822 33.7859C9.35618 32.4865 11.2253 28.9234 12.8582 26.0101C14.0997 23.7955 15.1928 21.986 15.1928 21.986L15.375 19.7294L15.9283 13.0575L16.7515 3.10893L16.7853 2.63386C16.7853 2.63386 19.7475 1.98413 21.6773 2.63386C21.6908 2.63386 21.6908 2.63386 21.7043 2.64783C22.3925 2.99016 23.6543 7.65703 24.9363 13.2531C25.294 14.825 25.6516 16.4458 25.9957 18.0806C26.3466 19.7364 26.6907 21.3852 27.0078 22.9571C28.2629 29.147 29.1806 34.24 29.1806 34.24Z" fill="url(#paint0_linear_53_7099)"/>
<path d="M29.6191 24.4732C29.6191 24.4732 31.306 32.7659 29.4369 34.1073C29.3627 34.1632 29.275 34.2051 29.1872 34.2401C29.1872 34.2401 29.1872 34.2401 29.1737 34.2401C28.9916 34.3099 28.7756 34.3449 28.5462 34.3449H28.5395C27.7837 34.3449 26.8053 34.0025 25.8202 33.5344C23.6205 32.4935 21.3196 30.8028 21.3196 30.8028C21.3196 30.8028 20.7055 31.2499 19.8014 31.8158C19.6259 31.9276 19.4437 32.0394 19.2481 32.1651C19.2481 32.1651 19.2413 32.1651 19.2346 32.1721C19.2346 32.1721 19.2211 32.1791 19.2008 32.1931C17.7636 33.0664 15.9012 34.0654 14.5315 34.2959C14.5315 34.2959 14.5315 34.2959 14.5112 34.2959C14.3763 34.3169 14.2346 34.3309 14.1064 34.3309C14.0794 34.3309 14.0524 34.3379 14.0254 34.3379C13.7825 34.3379 13.5666 34.3099 13.3709 34.2401C13.2697 34.1981 13.182 34.1492 13.101 34.0933C12.9256 33.9606 12.7839 33.772 12.6692 33.5344C11.9202 31.9555 12.4667 28.1689 12.8648 26.0032C13.0335 25.081 13.1752 24.4662 13.1752 24.4662C13.1752 24.4662 10.0376 21.8882 8.12804 19.3731C7.19688 18.1435 6.55585 16.9349 6.73803 16.0686C7.02818 14.6574 9.53828 13.8959 11.8864 13.4906C13.6948 13.1763 15.3952 13.0785 15.935 13.0575C16.0497 13.0505 16.1104 13.0505 16.1104 13.0505C16.1104 13.0505 17.4937 8.16706 19.2481 5.05814C20.0173 3.69581 20.8472 2.69676 21.6232 2.64087C21.6434 2.64087 21.6637 2.64087 21.6907 2.64087C21.7919 2.64087 21.8999 2.65484 22.0078 2.69676C24.5382 3.50019 26.9875 13.0575 26.9875 13.0575C26.9875 13.0575 35.7864 13.3369 36.2857 16.0756C36.7648 18.7304 29.6258 24.4732 29.6258 24.4732H29.6191Z" fill="url(#paint1_linear_53_7099)"/>
<path d="M25.3074 24.4732C25.3074 24.4732 26.8728 31.2848 25.8134 33.5414C25.7055 33.7859 25.5638 33.9746 25.3816 34.1073C25.1657 34.268 24.889 34.3449 24.5651 34.3518C23.1684 34.3938 20.9079 33.1921 19.248 32.1791C18.9377 31.9905 18.6475 31.8088 18.3911 31.6342C17.6556 31.1591 17.1698 30.8098 17.1698 30.8098C17.1698 30.8098 14.8689 32.5005 12.6692 33.5484C12.0214 33.8488 11.3804 34.1003 10.8068 34.2331C10.3008 34.3588 9.84191 34.3938 9.4708 34.2959C9.4573 34.2959 9.45055 34.2959 9.43706 34.289C9.28861 34.247 9.15366 34.1912 9.03895 34.1073C7.21036 32.7939 8.78255 24.8574 8.85677 24.4871C8.85677 24.4802 8.85677 24.4732 8.85677 24.4732C8.85677 24.4732 1.71783 18.7234 2.19691 16.0756C2.70297 13.33 11.4951 13.0575 11.4951 13.0575C11.4951 13.0575 14.1604 2.64087 16.7919 2.64087C17.5949 2.64087 18.4518 3.66087 19.2413 5.05814C20.9889 8.16706 22.3722 13.0505 22.3722 13.0505C22.3722 13.0505 23.4855 13.0854 24.943 13.2601C26.6029 13.4487 28.7149 13.812 30.1454 14.4967C30.9956 14.9019 31.6096 15.4189 31.7446 16.0686C32.1157 17.8571 29.032 21.0778 27.0145 22.9571C26.0429 23.8654 25.3074 24.4662 25.3074 24.4662V24.4732Z" fill="url(#paint2_linear_53_7099)"/>
<g style="mix-blend-mode:soft-light">
<path d="M22.373 13.0506C22.373 13.0506 25.9628 12.9458 27.4877 13.0786C33.4323 13.5956 35.0248 14.6156 35.4836 15.3352C35.9357 16.0408 32.1233 15.405 31.8534 15.3911C31.5835 15.3771 31.4013 14.378 28.1962 13.9449C24.9776 13.5117 22.373 13.0576 22.373 13.0576V13.0506Z" fill="white"/>
</g>
<g style="mix-blend-mode:multiply" opacity="0.3">
<path d="M29.612 24.473C28.7888 24.7315 26.3327 24.5149 25.9751 24.473C25.6175 24.4311 30.6782 19.8341 31.6566 17.9827C32.6484 16.0964 35.5769 16.306 36.0155 16.6343C36.4541 16.9627 34.1464 20.1624 32.608 21.7763C31.0965 23.3622 29.612 24.466 29.612 24.466V24.473Z" fill="#B30053"/>
</g>
<g style="mix-blend-mode:soft-light">
<path d="M28.7085 17.1166C27.9056 17.4659 26.9946 17.7942 25.996 18.0807C22.9393 18.9749 19.073 19.5688 15.3753 19.7294C12.7842 19.8412 10.2606 19.7364 8.12164 19.3731C5.733 18.9749 3.80319 18.2414 2.7978 17.1096C2.55489 16.8441 2.35921 16.4808 2.19727 16.0616C2.28498 15.6075 2.59537 15.2163 3.0677 14.8879C3.0677 14.8879 3.06771 14.8879 3.07445 14.8879C3.16217 14.825 3.26339 14.7622 3.37135 14.6993C3.38484 14.6923 3.39834 14.6853 3.41858 14.6783C5.96917 13.2322 11.4887 13.0575 11.4887 13.0575C11.4887 13.0575 14.154 2.64087 16.7855 2.64087C17.0082 2.64087 17.2376 2.71772 17.467 2.87142C18.0608 3.24169 18.6614 4.05909 19.2349 5.06513C20.9825 8.17405 22.3658 13.0575 22.3658 13.0575C22.3658 13.0575 23.4791 13.0924 24.9366 13.2671C26.5965 13.4557 28.7085 13.819 30.139 14.5037C30.3617 15.6424 29.9771 16.5646 28.7085 17.1235V17.1166Z" fill="white"/>
</g>
<g style="mix-blend-mode:multiply" opacity="0.2">
<path d="M3.43186 18.2484C2.41297 18.7025 5.03104 21.1547 7.23075 22.517C9.39672 23.8514 26.4479 19.8832 28.0133 20.2395C29.572 20.5958 32.0686 17.6685 31.6233 16.4179C31.1712 15.1534 30.4222 15.0277 30.4222 15.2373C30.4222 15.4538 29.4843 17.2982 27.4195 17.8292C25.3615 18.3601 9.36299 19.6107 7.52765 19.7714C5.6923 19.9321 3.60055 18.1715 3.43861 18.2414L3.43186 18.2484Z" fill="#DA0553"/>
</g>
<g style="mix-blend-mode:soft-light">
<path d="M9.48994 33.9676C7.938 33.6043 8.14043 29.2518 9.11208 28.0571C10.104 26.8415 22.3171 26.9463 24.6653 27.6868C26.9864 28.4204 25.9743 33.4576 25.1578 33.9676C24.3481 34.4776 17.5533 30.2578 17 30.3836C16.4535 30.5093 12.4926 34.6732 9.4832 33.9676H9.48994Z" fill="white"/>
</g>
<path d="M23.1882 22.6568L22.2233 23.4672L22.5067 24.6129C23.1073 27.0372 23.4311 29.5523 23.3772 30.9495C23.3772 31.0962 23.3637 31.222 23.3502 31.3408C22.2233 30.9495 20.1923 29.8038 18.4987 28.5602L17.6147 27.9035L17.1222 27.5402L15.7726 28.5532C14.4974 29.5034 13.0264 30.4046 11.9063 30.9425C11.5689 31.1102 11.2518 31.243 10.9954 31.3338C10.8199 30.0483 11.0763 27.2677 11.6566 24.599L11.913 23.4532L10.9279 22.6428C8.57972 20.7076 6.27205 18.1925 5.79297 17.0677C6.6904 16.5227 9.55812 15.9708 12.1289 15.88L13.7889 15.8241L14.2207 14.2801C14.9359 11.6533 16.0223 8.8797 16.8523 7.41956C17.0277 7.71298 17.2166 8.0623 17.4123 8.45353C18.1815 9.99751 19.0385 12.1842 19.6727 14.2801L20.1383 15.8311L21.805 15.887C24.3758 15.9708 27.2638 16.5227 28.1679 17.0677C27.7226 18.1925 25.4757 20.7076 23.1815 22.6428L23.1882 22.6568Z" fill="url(#paint3_linear_53_7099)"/>
<path d="M28.1746 17.0817C27.763 18.1087 25.8467 20.3094 23.7617 22.1538C23.5728 22.3215 23.3771 22.4891 23.1814 22.6498L22.2233 23.4602L22.4999 24.606C23.1004 27.0302 23.4176 29.5453 23.3704 30.9426C22.2435 30.4046 20.759 29.5034 19.4635 28.5533L18.0937 27.5403H17.1221L15.7726 28.5533C14.4973 29.5034 13.0263 30.4046 11.9062 30.9426C11.8995 30.7679 11.8927 30.5723 11.8927 30.3627C11.8927 30.1182 11.8995 29.8597 11.9197 29.5733C11.9872 28.3786 12.1829 26.8766 12.4933 25.3605C12.5405 25.109 12.5945 24.8575 12.6552 24.606L12.9116 23.4602L11.9332 22.6498C9.59854 20.7146 7.30436 18.1995 6.83203 17.0747C7.72946 16.5298 10.6107 15.9779 13.1748 15.887L14.8414 15.8312L15.2733 14.2872C15.8603 12.1913 16.6767 10.0046 17.419 8.46057C18.1882 10.0115 19.0452 12.1983 19.6727 14.2872L20.1383 15.8381L21.8049 15.894C24.3757 15.9779 27.2637 16.5298 28.1746 17.0747V17.0817Z" fill="url(#paint4_linear_53_7099)"/>
<path d="M17.123 27.5401C17.123 27.5401 18.0542 27.5122 18.4253 27.7846C18.7897 28.0571 21.1716 29.7338 21.1648 30.0063C21.1648 30.2788 18.6547 28.6998 17.123 27.5401Z" fill="#FFE016"/>
<g style="mix-blend-mode:soft-light">
<path d="M10.9948 31.3408C10.6507 31.208 11.3592 28.9025 11.6156 28.7069C11.872 28.5113 11.8045 30.8028 11.9057 30.9495C11.9057 30.9495 11.285 31.3617 10.9948 31.3408Z" fill="white"/>
</g>
<g style="mix-blend-mode:multiply" opacity="0.5">
<path d="M11.9128 23.4672H12.9047C12.9047 23.4672 11.8858 26.5481 11.7373 27.3725C11.5889 28.1899 11.1031 26.4922 11.9128 23.4672Z" fill="#D42F55"/>
</g>
<g style="mix-blend-mode:multiply" opacity="0.5">
<path d="M6.38783 18.0385C5.7603 16.8788 14.9708 17.2979 14.9708 17.2979C14.9708 17.2979 16.8466 10.9613 18.2366 10.2697C18.2366 10.2697 17.0692 7.4472 16.8601 7.43323C16.6509 7.42625 13.7967 15.8378 13.7967 15.8378C13.7967 15.8378 9.70088 15.6771 5.80078 17.0744L6.39457 18.0315L6.38783 18.0385Z" fill="#D42F55"/>
</g>
<g style="mix-blend-mode:multiply" opacity="0.5">
<path d="M20.1387 15.8452C20.1387 15.8452 27.0617 17.0818 27.7095 17.7385L28.1683 17.0748C28.1683 17.0748 26.0428 15.992 20.1387 15.8383V15.8452Z" fill="#D42F55"/>
</g>
<g style="mix-blend-mode:multiply" opacity="0.3">
<path d="M19.2218 3.42339C17.9128 3.42339 19.8089 5.75682 20.7333 7.93656C21.6307 10.0674 25.9289 10.0883 25.9289 10.0883C25.9289 10.0883 24.1003 4.59011 22.96 3.9264C21.8129 3.2627 19.2286 3.4164 19.2286 3.4164L19.2218 3.42339Z" fill="#B30053"/>
</g>
<g style="mix-blend-mode:multiply" opacity="0.3">
<path d="M25.3356 34.4775C25.0657 34.2679 25.9091 34.4077 26.26 32.8637C26.6176 31.2918 29.8227 31.4664 30.1331 31.6481C30.4435 31.8227 29.9374 33.7649 29.4314 34.1142C28.9253 34.4566 25.3288 34.4775 25.3288 34.4775H25.3356Z" fill="#B30053"/>
</g>
<g style="mix-blend-mode:soft-light">
<path d="M26.5621 31.5364C26.2044 31.4106 26.2382 27.8127 26.2517 27.135C26.2652 26.4503 29.7469 26.7368 29.9223 27.135C30.0978 27.5332 30.253 31.1032 30.0505 31.3408C29.8549 31.5783 26.7915 31.6202 26.5621 31.5364Z" fill="white"/>
</g>
<g style="mix-blend-mode:soft-light" opacity="0.5">
<path d="M15.1053 34.0515C15.9015 33.9048 17.6019 33.1153 17.6626 32.8708C17.7233 32.6263 15.78 32.4167 15.3347 32.3678C14.8894 32.3189 12.2511 33.9257 12.0554 34.0445C11.8597 34.1703 15.1053 34.0445 15.1053 34.0445V34.0515Z" fill="white"/>
</g>
<g style="mix-blend-mode:multiply" opacity="0.5">
<path d="M17.2035 30.9492C16.8324 31.082 15.5098 31.9343 15.4693 32.1579C15.4289 32.3814 17.4936 32.6399 17.7703 32.6888C18.0402 32.7377 19.2277 32.1788 19.2277 32.1788C19.2277 32.1788 17.2844 30.9143 17.2035 30.9422V30.9492Z" fill="#D42F55"/>
</g>
<g style="mix-blend-mode:multiply" opacity="0.5">
<path d="M32.1228 17.5496C31.8867 17.822 30.5776 19.4499 30.5979 19.8621C30.6181 20.2742 34.2821 19.8062 34.5047 19.4918C34.7342 19.1774 36.3738 16.8859 36.0162 16.6274C35.6653 16.3689 32.8043 16.7531 32.1161 17.5426L32.1228 17.5496Z" fill="#D42F55"/>
</g>
<path d="M22.373 13.0504C22.373 13.0504 29.9573 13.8119 30.9762 15.3699C32.5282 17.7382 27.6024 22.4051 27.6024 22.4051C27.6024 22.4051 32.5147 17.885 31.8331 15.6633C31.1381 13.3788 22.373 13.0504 22.373 13.0504Z" fill="#FFE016"/>
<path d="M31.1301 14.8252C30.5498 14.5458 31.4404 16.0199 31.3055 17.0888C31.1705 18.1507 31.906 16.7814 31.8925 16.0618C31.879 15.3282 31.1301 14.8252 31.1301 14.8252Z" fill="white"/>
<g style="mix-blend-mode:soft-light">
<path d="M17.9722 3.27671C16.4675 2.69684 17.3717 8.18112 18.9574 12.1284C20.4756 15.908 21.9938 14.4059 22.3042 13.4279C22.6213 12.4358 19.2205 4.24781 17.9722 3.27671Z" fill="white"/>
</g>
<path d="M19.5244 6.81859C18.4313 6.67886 19.0656 10.1161 19.7403 11.3248C20.4083 12.5194 21.3732 11.73 21.3935 10.682C21.4205 9.62011 19.936 6.87448 19.5244 6.81859Z" fill="white"/>
<g style="mix-blend-mode:soft-light">
<path d="M17.77 2.73874C17.2774 2.89244 19.1465 3.24875 20.577 3.4234C22.0075 3.59806 22.3584 3.61204 22.3449 3.23477C22.3314 2.85052 20.4151 1.90737 17.7633 2.73874H17.77Z" fill="white"/>
</g>
<g style="mix-blend-mode:soft-light">
<path d="M25.3137 34.3516C25.1855 34.2188 28.9507 33.7088 29.3286 33.7857C29.7064 33.8555 28.8427 34.2747 28.8427 34.2747C28.8427 34.2747 26.3394 34.7009 25.3137 34.3516Z" fill="white"/>
</g>
<g style="mix-blend-mode:soft-light" opacity="0.5">
<path d="M22.5078 24.6058C23.1084 27.03 23.4255 29.5451 23.3783 30.9424C22.2514 30.4044 20.767 29.5032 19.4714 28.553L18.1017 27.54H17.13L15.7805 28.553C14.5052 29.5032 13.0342 30.4044 11.9141 30.9424C11.9074 30.7677 11.9006 30.5721 11.9006 30.3625L12.2313 30.0341C12.1031 30.0132 11.9951 29.8455 11.9276 29.573C11.7117 28.7766 11.7927 27.058 12.5012 25.3603C13.041 24.0608 13.9519 22.7753 15.3622 21.944C19.3635 19.5896 23.7629 22.1466 23.7629 22.1466C23.574 22.3142 23.3783 22.4819 23.1826 22.6426L22.2244 23.453L22.5011 24.5988L22.5078 24.6058Z" fill="white"/>
</g>
<path d="M8.58785 32.9196C8.4394 31.8996 8.81726 31.2079 9.16814 31.2428C9.51901 31.2778 9.97785 33.5903 9.65396 33.8627C9.33008 34.1352 8.62158 33.185 8.58785 32.9126V32.9196Z" fill="white"/>
<g style="mix-blend-mode:multiply" opacity="0.8">
<path d="M19.1868 32.1999C17.7496 33.0732 15.8873 34.0722 14.5175 34.3028C14.5175 34.3028 14.5175 34.3028 14.4972 34.3028C14.3623 34.3237 14.2206 34.3377 14.0924 34.3377C14.0654 34.3377 14.0384 34.3447 14.0114 34.3447C12.9656 34.4425 10.5567 34.6241 9.46355 34.2888C9.45006 34.2888 9.44331 34.2888 9.42981 34.2818C9.28137 34.2399 9.14642 34.184 9.03171 34.1002C7.20311 32.7867 8.7753 24.8503 8.84952 24.48C8.80229 24.8363 7.9386 31.606 8.70107 33.2339C8.80903 33.4574 8.99122 33.6391 9.23414 33.7788C9.6255 34.0163 10.1788 34.1491 10.7928 34.2259C11.6025 34.3237 12.5202 34.3098 13.3569 34.2469C13.9102 34.198 14.4298 34.1351 14.8481 34.0652C15.2327 34.0024 15.5364 33.9325 15.7118 33.8696C16.697 33.5413 18.8764 32.3676 19.1801 32.1999H19.1868Z" fill="#D42F55"/>
</g>
<g style="mix-blend-mode:multiply" opacity="0.8">
<path d="M22.0019 2.69674C22.0019 2.69674 21.9007 2.68277 21.7117 2.65482C21.6847 2.65482 21.651 2.65482 21.6173 2.64085C20.848 2.55701 19.0397 2.43126 17.4742 2.86441C17.2246 2.92729 16.9817 3.01112 16.7523 3.10893C16.6645 3.14386 16.5633 3.17181 16.4823 3.2277C12.7307 5.75675 11.8805 13.4906 11.8805 13.4906C11.8805 13.4906 5.13292 13.9727 3.42578 14.6713C5.97637 13.2251 11.4959 13.0505 11.4959 13.0505C11.4959 13.0505 14.1612 2.63386 16.7927 2.63386C16.7927 2.63386 19.7549 1.98413 21.6847 2.63386C21.786 2.63386 21.8939 2.64783 22.0019 2.68975V2.69674Z" fill="#D42F55"/>
</g>
<path d="M29.8818 20.2395C29.8683 19.2544 27.6551 21.1827 27.4999 21.5669C27.3447 21.9512 27.23 22.4542 27.3312 22.6288C27.4392 22.7965 29.6659 22.2725 29.8818 20.2395Z" fill="#DC2C00"/>
<g style="mix-blend-mode:multiply" opacity="0.5">
<path d="M29.6864 20.0298C29.0724 19.9669 28.3436 20.6306 28.2762 21.3222C28.2087 22.0069 28.8834 21.9999 29.457 21.3222C30.0373 20.6376 29.8551 20.0507 29.6864 20.0298Z" fill="#D42F55"/>
</g>
<path d="M27.5198 21.5112C27.5198 21.5112 27.4928 22.0701 27.6885 22.2169C28.0123 22.4474 28.7343 22.154 28.7343 22.154C28.7343 22.154 27.9111 22.7548 27.3106 22.8037C26.7168 22.8526 27.5198 21.5182 27.5198 21.5182V21.5112Z" fill="#FFBA00"/>
<path d="M27.142 22.7406C26.953 22.4891 28.1069 22.4751 28.2081 22.4472C28.3093 22.4192 27.3444 22.9851 27.142 22.7406Z" fill="white"/>
<path d="M13.5522 33.1154C13.4038 33.0875 13.7074 32.4308 14.065 32.305C14.4227 32.1862 14.922 32.2002 14.9017 32.4447C14.8815 32.6893 14.2742 33.2342 13.5522 33.1154Z" fill="#DC2C00"/>
<path d="M13.8241 32.4724C13.5542 33.1152 13.9725 33.0663 14.3909 32.9754C14.3909 32.9754 13.9253 33.2269 13.291 33.2409C13.291 33.2409 13.3585 32.8287 13.8241 32.4724Z" fill="#FFBA00"/>
<path d="M13.3517 33.2269C13.3113 33.178 13.5812 32.9963 13.7499 32.9963C13.9185 32.9963 14.0805 33.0662 14.0872 33.0941C14.1007 33.1221 13.6689 33.2828 13.3517 33.2269Z" fill="white"/>
<g style="mix-blend-mode:multiply" opacity="0.5">
<path d="M14.3077 32.2487C13.7477 32.5352 13.9163 32.9683 14.3617 32.9194C14.807 32.8775 14.9555 32.4164 14.8475 32.3186C14.7463 32.2208 14.301 32.2418 14.301 32.2418L14.3077 32.2487Z" fill="#D42F55"/>
</g>
<g style="mix-blend-mode:soft-light">
<path d="M9.87655 20.7984C8.66198 20.1696 10.5648 22.3563 11.0979 22.7965C11.6242 23.2296 11.9143 23.4672 11.9143 23.4672H12.9062C12.9062 23.4672 10.3421 21.022 9.8698 20.8054L9.87655 20.7984Z" fill="white"/>
</g>
<path d="M11.9134 23.4671C11.6637 23.2645 11.4815 22.5938 11.7717 22.6288C12.0551 22.6637 12.912 23.4671 12.912 23.4671H11.9201H11.9134Z" fill="white"/>
<path d="M17.123 27.54C17.123 27.54 18.1082 27.54 18.4253 27.7776C18.7357 28.0081 19.3902 28.6928 19.3902 28.6928C19.3902 28.6928 18.2027 28.3155 17.1298 27.54H17.123Z" fill="#FFE016"/>
<g style="mix-blend-mode:multiply" opacity="0.8">
<path d="M18.668 31.8228C18.668 31.8228 22.5478 33.6741 24.5114 34.1282C26.4614 34.5824 28.9648 34.3029 28.9648 34.3029C28.9648 34.3029 26.4344 34.764 24.1942 34.3518C21.9405 33.9326 18.668 31.8228 18.668 31.8228Z" fill="#D42F55"/>
</g>
<path d="M2.35938 16.1453C2.56855 17.2422 4.01253 15.789 4.32967 15.1533C4.6468 14.5245 2.42685 14.5455 2.35938 16.1453Z" fill="white"/>
<path d="M22.2246 23.467C22.2246 23.467 27.0289 20.0577 28.1692 17.0885C28.1692 17.0885 25.8751 20.9589 22.2246 23.467Z" fill="#FFE016"/>
<g style="mix-blend-mode:multiply" opacity="0.3">
<path d="M13.256 22.6498C12.7972 22.6987 10.6042 20.7775 10.2601 19.8762C9.92273 18.975 12.9322 19.8972 17.561 19.6317C22.1898 19.3662 27.3922 17.1515 27.3113 17.438C27.2303 17.7244 24.376 21.0988 23.6608 21.2525C22.9456 21.4132 21.4071 20.3164 18.1548 20.4072C14.8957 20.498 13.8836 22.5799 13.256 22.6498Z" fill="#B30053"/>
</g>
<defs>
<linearGradient id="paint0_linear_53_7099" x1="22.1361" y1="36.8948" x2="10.1642" y2="5.13719" gradientUnits="userSpaceOnUse">
<stop stop-color="#FF5900"/>
<stop offset="0.23" stop-color="#FE6800"/>
<stop offset="0.66" stop-color="#FA9300"/>
<stop offset="0.85" stop-color="#F66A00"/>
<stop offset="1" stop-color="#F63F00"/>
</linearGradient>
<linearGradient id="paint1_linear_53_7099" x1="27.9322" y1="34.7151" x2="16.5485" y2="4.50921" gradientUnits="userSpaceOnUse">
<stop stop-color="#FF5900"/>
<stop offset="0.23" stop-color="#FE6800"/>
<stop offset="0.66" stop-color="#FA9300"/>
<stop offset="0.85" stop-color="#F66A00"/>
<stop offset="1" stop-color="#F63F00"/>
</linearGradient>
<linearGradient id="paint2_linear_53_7099" x1="23.4585" y1="34.8688" x2="11.9743" y2="4.37861" gradientUnits="userSpaceOnUse">
<stop stop-color="#FFEA34"/>
<stop offset="0.63" stop-color="#FF8100"/>
<stop offset="0.7" stop-color="#FFA400"/>
<stop offset="1" stop-color="#FFBA00"/>
</linearGradient>
<linearGradient id="paint3_linear_53_7099" x1="22.1559" y1="31.7879" x2="13.455" y2="8.71803" gradientUnits="userSpaceOnUse">
<stop stop-color="#FFBA00"/>
<stop offset="0.21" stop-color="#FE6800"/>
<stop offset="1" stop-color="#D41B00"/>
</linearGradient>
<linearGradient id="paint4_linear_53_7099" x1="22.4932" y1="31.2779" x2="14.3373" y2="9.62792" gradientUnits="userSpaceOnUse">
<stop offset="0.04" stop-color="#FF9000"/>
<stop offset="1" stop-color="#E13E00"/>
</linearGradient>
</defs>
</svg>
