<svg fill="none" height="19" viewBox="0 0 18 19" width="18" xmlns="http://www.w3.org/2000/svg">
    <path clip-rule="evenodd" d="M5.79008 4.0399L6.38073 4.76586C6.99656 5.52277 6.49954 6.65916 5.5257 6.72079L1.27613 6.98977C0.508543 7.03836 -0.105941 6.36245 0.0153361 5.60295L0.748439 1.01191C0.91196 -0.0121401 2.20978 -0.360615 2.86426 0.443796L3.7886 1.57989C5.21693 0.626078 6.9347 0.0688672 8.78136 0.0688672C13.7519 0.0688672 17.7813 4.0983 17.7813 9.06885C17.7813 14.0394 13.7519 18.0688 8.78136 18.0688C6.55159 18.0688 4.50767 17.2559 2.93586 15.9123C1.78298 14.9267 0.881011 13.6534 0.341773 12.2008C0.0390665 11.3853 0.45472 10.4789 1.27016 10.1762C2.0856 9.8735 2.99204 10.2892 3.29474 11.1046C3.64411 12.0457 4.23026 12.8748 4.98261 13.518C6.00552 14.3924 7.32995 14.919 8.78136 14.919C12.0123 14.919 14.6315 12.2998 14.6315 9.06885C14.6315 5.83792 12.0123 3.21874 8.78136 3.21874C7.68799 3.21874 6.66552 3.51783 5.79008 4.0399Z"
        fill="url(#paint0_linear_1851_4280)"
        fill-rule="evenodd" />
    <defs>
        <linearGradient gradientUnits="userSpaceOnUse" id="paint0_linear_1851_4280" x1="8.89067" x2="8.89067" y1="0" y2="18.0688">
            <stop stop-color="#FEFDF7" />
            <stop offset="1" stop-color="#FEE989" />
        </linearGradient>
    </defs>
</svg>
