<svg width="133" height="181" viewBox="0 0 133 181" fill="none" xmlns="http://www.w3.org/2000/svg">
<path fill-rule="evenodd" clip-rule="evenodd" d="M112.78 2.92229C112.744 2.88284 112.696 2.84332 112.637 2.80346C112.484 2.70459 112.259 2.60572 111.958 2.50685C111.658 2.41018 111.284 2.31132 110.837 2.21684C110.391 2.12017 109.874 2.0257 109.283 1.93342C108.695 1.84114 108.037 1.75106 107.312 1.66318C106.584 1.5753 105.795 1.48961 104.94 1.40612C104.084 1.32264 103.167 1.24135 102.192 1.16445C101.215 1.08755 100.182 1.01285 99.0925 0.942545C98.0027 0.872238 96.8642 0.80413 95.6749 0.740415C94.4834 0.6767 93.2476 0.617379 91.9677 0.562452C90.6878 0.507526 89.368 0.454796 88.0107 0.408658C86.6534 0.360322 85.2629 0.318578 83.8393 0.279031C82.4179 0.241681 80.9699 0.206529 79.4954 0.177966C78.0232 0.149405 76.531 0.125237 75.0211 0.105463C73.5113 0.0856899 71.9904 0.0725072 70.4562 0.061522C68.9243 0.0527338 67.3879 0.0461426 65.8493 0.0461426C64.3085 0.0461426 62.7722 0.0527338 61.2402 0.061522C59.7082 0.0725072 58.1874 0.0856899 56.6775 0.105463C55.1677 0.125237 53.6755 0.149405 52.201 0.177966C50.7287 0.206529 49.2808 0.241681 47.8572 0.279031C46.4357 0.318578 45.0453 0.360322 43.6857 0.408658C42.3284 0.454796 41.0087 0.507526 39.7287 0.562452C38.4488 0.617379 37.2131 0.6767 36.0238 0.740415C34.8345 0.80413 33.6938 0.872238 32.6062 0.942545C31.5163 1.01285 30.484 1.08755 29.5069 1.16445C28.5298 1.24135 27.6146 1.32264 26.7591 1.40612C25.9036 1.48961 25.1122 1.5753 24.3871 1.66318C23.6598 1.75106 23.0033 1.84114 22.413 1.93342C21.825 2.0257 21.3077 2.12017 20.859 2.21684C20.4124 2.31132 20.0388 2.41018 19.7382 2.50685C19.4376 2.60572 19.2121 2.70459 19.0618 2.80346C19.0026 2.84324 18.9551 2.88267 18.9192 2.92204C18.894 2.91084 18.866 2.90465 18.8367 2.90465C18.7239 2.90465 18.6333 2.99253 18.6333 3.10458C18.6333 3.22405 18.6743 3.35246 18.8364 3.48889V12.2772C18.7238 12.2773 18.6333 12.3674 18.6333 12.4771C18.6333 12.8489 19.0442 13.2914 21.9668 13.7804V20.5316C21.9668 24.3501 19.4711 27.7292 15.8014 28.8783C6.3953 31.8223 0 40.4832 0 50.2733V142.568C0 151.112 4.95177 158.509 12.1606 162.086C14.968 163.477 31.0016 169.813 66.5814 169.813C100.844 169.813 116.517 163.591 119.411 162.198C126.745 158.665 131.801 151.202 131.801 142.568V50.2733C131.801 40.4832 125.406 31.8223 116 28.8783C112.33 27.7292 109.834 24.3501 109.834 20.5316V13.7631C112.663 13.281 113.064 12.8445 113.064 12.4771C113.064 12.3673 112.973 12.2772 112.863 12.2772H112.863V3.48649C113.021 3.35203 113.064 3.22446 113.064 3.10458C113.064 2.99253 112.973 2.90465 112.863 2.90465C112.833 2.90465 112.805 2.91093 112.78 2.92229Z" fill="#828282"/>
</svg>
