<svg width="324" height="164" viewBox="0 0 324 164" fill="none" xmlns="http://www.w3.org/2000/svg">
    <rect x="0.889068" y="0.981597" width="321.821" height="161.8" rx="25.3367" fill="#9C00CC" stroke="#9D10D3" stroke-width="1.77802" />
    <path fill-rule="evenodd" clip-rule="evenodd"
        d="M26.2258 1.89014C12.7237 1.89014 1.77808 12.8358 1.77808 26.3379V89.013C1.77808 91.4078 2.12241 93.7222 2.76426 95.9093V84.5615C6.96475 67.6249 16.9787 31.7635 23.4307 23.8107C31.3325 14.0706 47.4602 12.4599 93.1481 7.89685C94.0911 7.80266 95.0467 7.70722 96.0151 7.61043C134.324 3.78128 257.146 14.1151 313.768 19.7606L315.76 22.0717C318.842 25.6464 320.916 29.9384 321.821 34.5096V26.3379C321.821 12.8358 310.876 1.89014 297.373 1.89014H26.2258Z"
        fill="#F4D8FF" fill-opacity="0.4" />
    <path fill-rule="evenodd" clip-rule="evenodd"
        d="M1.77808 132.618V137.464C1.77808 150.966 12.7237 161.911 26.2258 161.911H297.373C310.876 161.911 321.821 150.966 321.821 137.464V28.0816C321.821 18.1676 315.92 9.63192 307.439 5.79541C311.954 10.2311 314.754 16.4065 314.754 23.2358V128.173C314.754 144.13 301.818 157.066 285.861 157.066H26.2258C12.7237 157.066 1.77808 146.12 1.77808 132.618Z"
        fill="#8102A6" />
</svg>
