<svg width="69" height="69" viewBox="0 0 69 69" fill="none" xmlns="http://www.w3.org/2000/svg">
<path d="M66.7088 15.4065C66.5167 11.9905 65.0732 8.76488 62.6539 6.34557C60.2346 3.92627 57.009 2.48271 53.593 2.29052C40.8747 1.57178 28.1259 1.57178 15.4075 2.29052C11.9914 2.48279 8.76585 3.92634 6.34648 6.34562C3.92711 8.76489 2.48341 11.9904 2.29101 15.4065C1.57227 28.1251 1.57227 40.8741 2.29101 53.5927C2.48348 57.0087 3.92719 60.2342 6.34655 62.6534C8.76592 65.0727 11.9915 66.5162 15.4075 66.7085C28.1258 67.4289 40.8747 67.4289 53.593 66.7085C57.0091 66.5164 60.2347 65.0729 62.654 62.6536C65.0733 60.2343 66.5168 57.0087 66.7088 53.5927C67.4276 40.8741 67.4276 28.1251 66.7088 15.4065Z" fill="url(#paint0_linear_955_23905)"/>
<path d="M17.3848 19.4062V13.3418H21.4277V19.4062H27.4922V23.4492H21.4277V29.5137H17.3848V23.4492H11.3203V19.4062H17.3848ZM23.4492 31.5352V25.4707H29.5137V19.4062H43.6641L47.3634 23.4492H53.7715C55.9951 23.4492 57.8145 25.2686 57.8145 27.4922V51.75C57.8145 53.9736 55.9951 55.793 53.7715 55.793H21.4277C19.2041 55.793 17.3848 53.9736 17.3848 51.75V31.5352H23.4492ZM37.5996 49.7285C43.1789 49.7285 47.707 45.2004 47.707 39.6211C47.707 34.0418 43.1789 29.5137 37.5996 29.5137C32.0203 29.5137 27.4922 34.0418 27.4922 39.6211C27.4922 45.2004 32.0203 49.7285 37.5996 49.7285ZM31.1309 39.6211C31.1309 43.1991 34.0216 46.0898 37.5996 46.0898C41.1776 46.0898 44.0684 43.1991 44.0684 39.6211C44.0684 36.0431 41.1776 33.1523 37.5996 33.1523C34.0216 33.1523 31.1309 36.0431 31.1309 39.6211Z" fill="url(#paint1_linear_955_23905)"/>
<defs>
<linearGradient id="paint0_linear_955_23905" x1="34.4999" y1="1.4981" x2="34.4999" y2="66.0979" gradientUnits="userSpaceOnUse">
<stop stop-color="#FAE8FF"/>
<stop offset="1" stop-color="#CDB4FF"/>
</linearGradient>
<linearGradient id="paint1_linear_955_23905" x1="34.5674" y1="13.3418" x2="34.5674" y2="55.793" gradientUnits="userSpaceOnUse">
<stop stop-color="#A421D9"/>
<stop offset="1" stop-color="#C750F7"/>
</linearGradient>
</defs>
</svg>
