<svg width="24" height="25" viewBox="0 0 24 25" fill="none" xmlns="http://www.w3.org/2000/svg">
<mask id="mask0_116_1867" style="mask-type:alpha" maskUnits="userSpaceOnUse" x="0" y="0" width="24" height="25">
<rect y="0.498291" width="24" height="24" fill="#D9D9D9"/>
</mask>
<g mask="url(#mask0_116_1867)">
<path d="M10 21.7482V15.7482H9C8.71667 15.7482 8.47917 15.6524 8.2875 15.4607C8.09583 15.269 8 15.0315 8 14.7482V9.74819C8 9.19819 8.19583 8.72736 8.5875 8.33569C8.97917 7.94403 9.45 7.74819 10 7.74819H14C14.55 7.74819 15.0208 7.94403 15.4125 8.33569C15.8042 8.72736 16 9.19819 16 9.74819V14.7482C16 15.0315 15.9042 15.269 15.7125 15.4607C15.5208 15.6524 15.2833 15.7482 15 15.7482H14V21.7482C14 22.0315 13.9042 22.269 13.7125 22.4607C13.5208 22.6524 13.2833 22.7482 13 22.7482H11C10.7167 22.7482 10.4792 22.6524 10.2875 22.4607C10.0958 22.269 10 22.0315 10 21.7482ZM11.3 6.29819L10.45 5.44819C10.25 5.24819 10.15 5.01486 10.15 4.74819C10.15 4.48153 10.25 4.24819 10.45 4.04819L11.3 3.19819C11.5 2.99819 11.7333 2.89819 12 2.89819C12.2667 2.89819 12.5 2.99819 12.7 3.19819L13.55 4.04819C13.75 4.24819 13.85 4.48153 13.85 4.74819C13.85 5.01486 13.75 5.24819 13.55 5.44819L12.7 6.29819C12.5 6.49819 12.2667 6.59819 12 6.59819C11.7333 6.59819 11.5 6.49819 11.3 6.29819Z" fill="#015486"/>
</g>
</svg>
