<svg width="46" height="50" viewBox="0 0 46 50" fill="none" xmlns="http://www.w3.org/2000/svg">
<g filter="url(#filter0_d_1850_6274)">
<path d="M22.0056 0.972522L6.49219 29.5767L21.8669 37.9151L37.3803 9.31096L22.0056 0.972522Z" fill="#FFF8FB"/>
<path d="M21.5773 1.76188L10.1111 22.9038L25.4858 31.2422L36.9521 10.1003L21.5773 1.76188Z" fill="#FFC0D4"/>
<path d="M19.7299 5.16897L14.0525 15.6372L29.4272 23.9756L35.1046 13.5074L19.7299 5.16897Z" fill="#FF8FB2"/>
<path d="M20.6158 12.56L21.8941 10.2031C22.6695 8.77336 24.443 8.23309 25.852 8.99731L34.0216 13.428L29.9336 20.9658L21.764 16.535C20.3549 15.7708 19.8404 13.9897 20.6158 12.56Z" fill="#8E003A"/>
<path opacity="0.5" d="M24.4085 14.2566L25.2525 12.7004C25.7646 11.7562 26.9357 11.3994 27.8663 11.9042L33.2611 14.83L30.5615 19.8075L25.1667 16.8817C24.2361 16.377 23.8964 15.2008 24.4085 14.2566Z" fill="#FFF8FB"/>
<path d="M28.1596 15.7874L28.5816 15.0093C28.8376 14.5374 29.4233 14.3587 29.8887 14.6111L32.5863 16.0741L31.2365 18.5629L28.539 17.0999C28.0738 16.8476 27.9036 16.2594 28.1598 15.7871L28.1596 15.7874Z" fill="#FFF8FB"/>
<path d="M10.0397 26.9071C10.1765 26.9813 10.2794 27.0558 10.3474 27.1301C10.4157 27.2046 10.4575 27.2831 10.4721 27.3655C10.4868 27.448 10.4703 27.5331 10.4227 27.6209L10.3049 27.557C10.3416 27.4894 10.3403 27.4154 10.3019 27.3347C10.2632 27.2543 10.1484 27.1619 9.95766 27.0584C9.76695 26.955 9.6258 26.9082 9.53746 26.9201C9.45008 26.9318 9.38756 26.9715 9.35039 27.0393L9.23193 26.9751C9.26674 26.9109 9.31017 26.8612 9.36157 26.8263C9.41297 26.7915 9.4714 26.7711 9.5356 26.7652C9.60028 26.7591 9.67158 26.766 9.74939 26.7846C9.82734 26.8037 9.92407 26.8444 10.0397 26.9071Z" fill="#9C7B9E"/>
<path d="M9.22918 28.4005L9.31126 28.2492C9.11931 28.1451 9.00462 28.0532 8.96645 27.9726C8.92855 27.893 8.92781 27.8189 8.96435 27.7508L8.8459 27.6865C8.81109 27.7507 8.79308 27.8143 8.79192 27.8763C8.79076 27.9384 8.80551 27.9985 8.83558 28.0556C8.86579 28.1131 8.91047 28.1691 8.96849 28.2241C9.02698 28.2791 9.11351 28.3378 9.22918 28.4005Z" fill="#9C7B9E"/>
<path d="M9.65254 27.6187C9.7896 27.693 9.89246 27.7675 9.96079 27.842C10.0291 27.9166 10.0709 27.995 10.0855 28.0775C10.1002 28.1599 10.0837 28.2451 10.0361 28.3328L9.91829 28.2689C9.95498 28.2013 9.95376 28.1273 9.91527 28.0466C9.87661 27.9662 9.76179 27.8738 9.57108 27.7703L9.65285 27.6188L9.65254 27.6187Z" fill="#9C7B9E"/>
<path d="M9.36359 28.7243C9.46344 28.7784 9.52754 28.86 9.55621 28.9692C9.58487 29.0784 9.5668 29.1924 9.50281 29.3104C9.48523 29.3428 9.4662 29.372 9.44523 29.398L9.3187 29.3294C9.3456 29.3057 9.36824 29.2773 9.38599 29.2446C9.42404 29.1744 9.4336 29.1043 9.41431 29.0348C9.39518 28.9649 9.35165 28.912 9.28374 28.8752C9.21583 28.8384 9.14504 28.8305 9.07417 28.8531C9.00361 28.876 8.94906 28.9225 8.9105 28.9936L9.06868 28.702C9.09395 28.6916 9.11957 28.6843 9.14599 28.6808C9.2189 28.6706 9.29133 28.6851 9.36328 28.7241L9.36359 28.7243Z" fill="#9C7B9E"/>
<path d="M11.0303 23.3827L9.59277 26.0332L11.2825 26.9496L12.72 24.2991L11.0303 23.3827Z" fill="#2D559A"/>
<path d="M17.6509 14.7868L18.1373 14.8001L18.4328 14.401L18.56 14.8747L19.0192 15.0284L18.6116 15.3078L18.5997 15.8018L18.2204 15.5008L17.754 15.6526L17.9274 15.1872L17.6509 14.7868Z" fill="#C1709A"/>
<path opacity="0.61" d="M20.5066 13.5968L20.993 13.6102L21.2886 13.211L21.4155 13.685L21.8749 13.8385L21.4673 14.1179L21.4555 14.6119L21.0761 14.3109L20.6097 14.4627L20.7831 13.9972L20.5066 13.5968Z" fill="#C1709A"/>
<path opacity="0.61" d="M23.5889 14.0309L24.075 14.0441L24.3708 13.6451L24.498 14.1188L24.957 14.2721L24.5493 14.5518L24.5374 15.0458L24.1586 14.7446L23.692 14.8967L23.8653 14.4308L23.5889 14.0309Z" fill="#C1709A"/>
<path opacity="0.61" d="M26.011 16.0392L26.4974 16.0526L26.7931 15.6531L26.9201 16.1271L27.3795 16.2806L26.9717 16.5603L26.9599 17.0542L26.5807 16.7529L26.1141 16.905L26.2877 16.4393L26.011 16.0392Z" fill="#C1709A"/>
<path opacity="0.61" d="M27.0252 18.9274L27.5114 18.9411L27.8071 18.5416L27.9341 19.0156L28.3934 19.1691L27.9856 19.4483L27.9738 19.9427L27.5947 19.6414L27.1283 19.7932L27.3017 19.3278L27.0252 18.9274Z" fill="#C1709A"/>
<path opacity="0.61" d="M26.4424 22.0453L26.9286 22.0589L27.2243 21.6594L27.3513 22.1335L27.8106 22.2869L27.403 22.5663L27.391 23.0606L27.0118 22.7593L26.5453 22.9114L26.7188 22.4456L26.4424 22.0453Z" fill="#C1709A"/>
<path d="M24.3521 24.4889L24.8385 24.5023L25.134 24.1031L25.2612 24.5768L25.7205 24.7303L25.3128 25.01L25.3009 25.5039L24.9218 25.2026L24.4552 25.3547L24.6287 24.889L24.3521 24.4889Z" fill="#C1709A"/>
<path opacity="0.54" d="M21.3672 25.6803L21.8533 25.6935L22.1492 25.2945L22.2763 25.7682L22.7352 25.9218L22.3276 26.2012L22.3157 26.6952L21.9369 26.394L21.4703 26.5461L21.6434 26.0805L21.3672 25.6803Z" fill="#B5869E"/>
<path opacity="0.22" d="M18.3135 25.0783L18.7999 25.0917L19.0954 24.6925L19.2224 25.1665L19.6818 25.3199L19.2742 25.5993L19.2623 26.0933L18.883 25.7923L18.4166 25.9441L18.59 25.4787L18.3135 25.0783Z" fill="#B5869E"/>
<path opacity="0.54" d="M16.1074 22.786L16.5936 22.7997L16.8893 22.4002L17.0163 22.8742L17.4756 23.0276L17.0681 23.307L17.056 23.8013L16.6769 23.5L16.2103 23.6521L16.3839 23.1863L16.1074 22.786Z" fill="#B5869E"/>
<path opacity="0.92" d="M15.2396 19.8468L15.7256 19.86L16.0215 19.461L16.1486 19.9347L16.6075 20.0883L16.1999 20.3677L16.1881 20.8617L15.809 20.5609L15.3427 20.7127L15.5157 20.247L15.2396 19.8468Z" fill="#B5869E"/>
<path d="M15.9853 16.7411L16.4715 16.7547L16.7672 16.3552L16.8942 16.8293L17.3533 16.9825L16.9457 17.2619L16.9337 17.7562L16.5548 17.4551L16.0883 17.6072L16.2618 17.1414L15.9853 16.7411Z" fill="#C1709A"/>
<path d="M20.1128 17.1568L21.0133 17.9347C20.6877 18.0362 20.4133 18.2929 20.1899 18.7048C19.9665 19.1166 19.9293 19.5285 20.0787 19.9397C20.1628 20.1718 20.3104 20.3842 20.5209 20.5769L21.6517 18.4919L22.1577 18.9234L21.0514 20.9632C21.1068 20.9965 21.1784 21.037 21.2671 21.0851C21.3558 21.1332 21.4443 21.1779 21.5403 21.2235L22.5869 19.2938L23.0928 19.7254L22.1552 21.4543C22.4527 21.5339 22.712 21.5487 22.9334 21.4985C23.3607 21.4033 23.6841 21.1532 23.9034 20.7489C24.1665 20.2637 24.2311 19.7983 24.0972 19.3527L25.2259 19.9649C25.2075 20.38 25.0798 20.8063 24.8426 21.2436C24.4423 21.9818 23.8674 22.455 23.1179 22.6634C22.6079 22.8054 22.0753 22.793 21.5199 22.6257L21.2156 23.1867L20.7097 22.7551L20.9112 22.3835C20.8509 22.3541 20.7876 22.3214 20.7209 22.2852C20.6077 22.2238 20.5095 22.1673 20.4261 22.1156L20.1568 22.6121L19.6508 22.1805L19.8955 21.7293C19.4637 21.3579 19.1686 20.9246 19.0106 20.4301C18.7728 19.683 18.865 18.9203 19.2874 18.1416C19.5177 17.7168 19.7928 17.3888 20.1128 17.1568Z" fill="#560027"/>
<path d="M21.8833 35.594L21.7502 35.8394L19.8753 34.8226C19.9102 34.9144 19.9358 35.0264 19.9525 35.1584C19.9691 35.2904 19.9732 35.4058 19.9647 35.5043L19.6804 35.35C19.6773 35.1737 19.6488 35.0043 19.5948 34.8411C19.5407 34.6782 19.4728 34.5473 19.3912 34.4485L19.4775 34.2893L21.8836 35.5942L21.8833 35.594Z" fill="#560027"/>
<path d="M20.8573 34.6663C20.4551 34.4481 20.1804 34.2279 20.0333 34.0056C19.8859 33.7831 19.8705 33.5651 19.9869 33.3505C20.0899 33.1605 20.2552 33.0563 20.4823 33.0378C20.7572 33.015 21.1172 33.1244 21.5628 33.366C21.9629 33.583 22.2368 33.8024 22.3851 34.0246C22.5332 34.2466 22.5489 34.4656 22.432 34.6811C22.3289 34.8711 22.153 34.9773 21.904 34.999C21.655 35.0207 21.3066 34.9099 20.8576 34.6664L20.8573 34.6663ZM20.9922 34.4153C21.3816 34.6265 21.6631 34.7299 21.8366 34.7259C22.0102 34.7219 22.1293 34.6606 22.1936 34.542C22.2543 34.43 22.238 34.3002 22.1447 34.1519C22.0512 34.0039 21.8118 33.8252 21.4258 33.6158C21.0397 33.4064 20.7536 33.3005 20.5804 33.3047C20.4071 33.3089 20.288 33.3717 20.2225 33.4925C20.1624 33.6033 20.179 33.7324 20.2727 33.8801C20.3664 34.0279 20.6059 34.2062 20.992 34.4156L20.9922 34.4153Z" fill="#560027"/>
</g>
<g filter="url(#filter1_d_1850_6274)">
<path d="M27.1086 2.7375L5.40015 26.978L18.4294 38.6463L40.1379 14.4058L27.1086 2.7375Z" fill="#F9F5E4"/>
<path d="M26.5098 3.40655L10.4646 21.3232L23.4938 32.9915L39.539 15.0748L26.5098 3.40655Z" fill="#FFEABB"/>
<path d="M23.9239 6.29375L15.9792 15.165L29.0085 26.8333L36.9531 17.962L23.9239 6.29375Z" fill="#FFE98A"/>
<path d="M27.3094 15.2341L24.5496 18.3159L29.9922 23.1901L32.7521 20.1083L27.3094 15.2341Z" fill="#937700"/>
<path d="M29.3937 12.9075L27.2456 15.3062L32.6883 20.1803L34.8364 17.7816L29.3937 12.9075Z" fill="#937700"/>
<path d="M24.5496 18.3162C24.5496 18.3162 24.303 16.5122 25.6843 14.6107C25.9342 14.2665 26.2484 13.9723 26.6042 13.7461C27.2162 13.3572 28.2805 12.8208 29.3936 12.9072" fill="#937700"/>
<path d="M9.29099 25.0335C9.40707 25.1375 9.49005 25.2339 9.53916 25.3221C9.58852 25.4105 9.61108 25.4965 9.60634 25.5802C9.6016 25.6639 9.56592 25.7429 9.4993 25.8173L9.39927 25.7277C9.45061 25.6704 9.46648 25.5981 9.44762 25.5106C9.42853 25.4234 9.33801 25.3067 9.17613 25.1618C9.01425 25.0168 8.88758 24.9384 8.79878 24.9295C8.71099 24.9206 8.64092 24.9448 8.58908 25.0022L8.48853 24.9121C8.53724 24.8577 8.59101 24.8194 8.6491 24.7974C8.7072 24.7754 8.76882 24.7691 8.83271 24.7783C8.8971 24.7874 8.96495 24.8107 9.03645 24.8469C9.10797 24.8835 9.19281 24.9456 9.29099 25.0335Z" fill="#9C7B9E"/>
<path d="M8.15627 26.2993L8.27112 26.171C8.10819 26.0251 8.0177 25.909 7.9991 25.8217C7.98055 25.7354 7.99693 25.6631 8.04824 25.6053L7.94769 25.5152C7.89898 25.5696 7.86679 25.6273 7.85134 25.6875C7.83588 25.7476 7.83638 25.8096 7.85251 25.8721C7.86867 25.9351 7.89927 25.9999 7.94306 26.067C7.98736 26.1341 8.05809 26.2114 8.15627 26.2993Z" fill="#9C7B9E"/>
<path d="M8.74994 25.6368C8.86628 25.741 8.94926 25.8374 8.99863 25.9259C9.04799 26.0143 9.07056 26.1003 9.06582 26.184C9.06108 26.2677 9.0254 26.3467 8.95877 26.4211L8.85875 26.3315C8.91009 26.2742 8.92596 26.2019 8.9071 26.1144C8.888 26.0271 8.79749 25.9105 8.6356 25.7656L8.7502 25.6371L8.74994 25.6368Z" fill="#9C7B9E"/>
<path d="M8.21262 26.6451C8.29738 26.721 8.34099 26.8153 8.34371 26.9282C8.34643 27.0412 8.30254 27.1479 8.21299 27.2479C8.1884 27.2754 8.16313 27.2994 8.13669 27.3199L8.02929 27.2237C8.06095 27.2069 8.08956 27.1845 8.1144 27.1567C8.16765 27.0973 8.19313 27.0312 8.19038 26.9591C8.18787 26.8867 8.15768 26.8251 8.10003 26.7734C8.04239 26.7218 7.97526 26.6977 7.90101 26.7033C7.82702 26.7091 7.76315 26.7418 7.70919 26.802L7.93054 26.5549C7.95753 26.5507 7.98416 26.5495 8.01072 26.5522C8.08408 26.5593 8.15129 26.5901 8.21235 26.6448L8.21262 26.6451Z" fill="#9C7B9E"/>
<path d="M11.0684 21.833L9.05688 24.0791L10.4912 25.3636L12.5027 23.1174L11.0684 21.833Z" fill="#2D559A"/>
<path d="M19.8803 15.2659L20.3344 15.3876L20.701 15.0788L20.715 15.5526L21.1125 15.7995L20.6671 15.9705L20.5458 16.4322L20.2568 16.0643L19.7843 16.1024L20.0509 15.7041L19.8803 15.2659Z" fill="#C6AF6F"/>
<path opacity="0.61" d="M22.8279 14.7888L23.2819 14.9105L23.6488 14.6015L23.6628 15.0753L24.06 15.3224L23.6146 15.4934L23.4933 15.9551L23.2043 15.5872L22.7318 15.6254L22.9987 15.2268L22.8279 14.7888Z" fill="#C6AF6F"/>
<path opacity="0.61" d="M25.6296 15.8875L26.0834 16.0089L26.4505 15.7001L26.4645 16.1739L26.862 16.4208L26.4164 16.5921L26.2953 17.0535L26.0061 16.6859L25.5336 16.724L25.8002 16.3252L25.6296 15.8875Z" fill="#C6AF6F"/>
<path opacity="0.61" d="M27.4587 18.3167L27.9128 18.4384L28.2794 18.1296L28.2936 18.6031L28.6908 18.8502L28.2457 19.0215L28.1242 19.483L27.8352 19.1151L27.3627 19.1532L27.6296 18.7546L27.4587 18.3167Z" fill="#C6AF6F"/>
<path opacity="0.61" d="M27.7693 21.2581L28.223 21.3795L28.5899 21.071L28.6037 21.5445L29.0014 21.7916L28.556 21.9627L28.4347 22.4244L28.1454 22.0562L27.6732 22.0946L27.9396 21.696L27.7693 21.2581Z" fill="#C6AF6F"/>
<path opacity="0.61" d="M26.5271 24.0569L26.9811 24.1786L27.3478 23.8698L27.3617 24.3436L27.7592 24.5905L27.3141 24.7617L27.1926 25.2232L26.9035 24.8553L26.4311 24.8934L26.6977 24.4951L26.5271 24.0569Z" fill="#C6AF6F"/>
<path d="M24.0183 25.8836L24.4723 26.0053L24.839 25.6965L24.853 26.1703L25.2504 26.4171L24.8051 26.5882L24.6838 27.0499L24.3947 26.6819L23.9223 26.7201L24.1889 26.3218L24.0183 25.8836Z" fill="#C6AF6F"/>
<path opacity="0.54" d="M20.9468 26.3335L21.4008 26.4547L21.7677 26.1462L21.7817 26.62L22.1791 26.8668L21.7335 27.0381L21.6125 27.4996L21.3234 27.1317L20.851 27.1698L21.1173 26.7712L20.9468 26.3335Z" fill="#BAB386"/>
<path opacity="0.22" d="M18.2119 25.084L18.6662 25.2055L19.0328 24.8967L19.0468 25.3705L19.4442 25.6173L18.9989 25.7889L18.8776 26.2501L18.5886 25.8821L18.1161 25.9203L18.3827 25.522L18.2119 25.084Z" fill="#BAB386"/>
<path opacity="0.54" d="M16.6484 22.4363L17.1025 22.558L17.4693 22.249L17.4833 22.7227L17.8808 22.9696L17.4352 23.1409L17.3141 23.6023L17.0248 23.2347L16.5524 23.2728L16.8193 22.8742L16.6484 22.4363Z" fill="#BAB386"/>
<path opacity="0.92" d="M16.4863 19.4798L16.9403 19.6014L17.3075 19.2926L17.3212 19.7662L17.7189 20.0133L17.2733 20.1846L17.1523 20.646L16.8627 20.2781L16.3906 20.3165L16.6571 19.9177L16.4863 19.4798Z" fill="#BAB386"/>
<path d="M17.8779 16.7293L18.3319 16.851L18.6988 16.5419L18.7128 17.0157L19.1105 17.2628L18.6649 17.4341L18.5439 17.8955L18.2543 17.5276L17.7819 17.5658L18.0487 17.1672L17.8779 16.7293Z" fill="#C6AF6F"/>
<path d="M21.6654 18.0453L22.3386 18.9778C22.0102 19.0003 21.6949 19.1797 21.3931 19.5167C21.0913 19.8538 20.9649 20.2321 21.0135 20.6519C21.0409 20.8888 21.1323 21.1215 21.2871 21.3495L22.8144 19.6441L23.1941 20.1629L21.7 21.8313C21.7444 21.8749 21.803 21.9292 21.8754 21.994C21.9477 22.0589 22.0213 22.1208 22.1014 22.1854L23.5148 20.6072L23.8945 21.126L22.6282 22.54C22.8901 22.6813 23.1305 22.7534 23.3497 22.7561C23.7724 22.7623 24.1321 22.6001 24.4285 22.2692C24.784 21.8721 24.9482 21.4494 24.9216 21.0008L25.8463 21.8289C25.7364 22.2148 25.5214 22.5868 25.2012 22.9444C24.6606 23.548 24.0149 23.8639 23.2639 23.8915C22.7531 23.9106 22.255 23.7798 21.7703 23.498L21.3593 23.9569L20.9796 23.4381L21.2518 23.1341C21.2015 23.0929 21.1492 23.048 21.0947 22.9992C21.0021 22.9162 20.9224 22.841 20.8554 22.7738L20.4917 23.1799L20.112 22.6612L20.4425 22.2921C20.1195 21.8462 19.9384 21.3731 19.8999 20.8731C19.8428 20.1181 20.0995 19.422 20.6697 18.7853C20.9806 18.4382 21.3125 18.1915 21.6649 18.0448L21.6654 18.0453Z" fill="#5B4A00"/>
<path d="M17.9278 36.7135L18.0785 36.5059C18.2046 36.5924 18.3187 36.6345 18.4205 36.632C18.5224 36.6295 18.604 36.594 18.6653 36.5255C18.7422 36.4396 18.7694 36.3309 18.7471 36.199C18.7248 36.0671 18.6462 35.9404 18.5111 35.8195C18.3843 35.7059 18.2588 35.6478 18.1351 35.6451C18.0114 35.6424 17.909 35.6868 17.8276 35.7777C17.7787 35.8324 17.7478 35.8975 17.7354 35.9723C17.7229 36.0472 17.7314 36.123 17.7608 36.1993L17.5816 36.3458L16.798 35.3856L17.4537 34.6534L17.6619 34.8399L17.1351 35.4281L17.5419 35.9346C17.5455 35.7802 17.5915 35.6542 17.6794 35.556C17.7899 35.4326 17.938 35.3716 18.1234 35.3738C18.3088 35.3755 18.4897 35.4553 18.6657 35.613C18.8418 35.7707 18.9474 35.9473 18.9899 36.1498C19.0325 36.3522 18.9848 36.53 18.8472 36.6836C18.7331 36.8111 18.5929 36.8796 18.4265 36.8891C18.26 36.8986 18.094 36.8403 17.9283 36.7135L17.9278 36.7135Z" fill="#5B4A00"/>
<path d="M18.4876 35.2633C18.1899 34.9966 18.0006 34.7541 17.9202 34.5351C17.8396 34.3163 17.8705 34.1277 18.0125 33.9691C18.1384 33.8286 18.2998 33.7733 18.4964 33.8038C18.7343 33.84 19.0186 34.0062 19.3487 34.3018C19.6448 34.567 19.8336 34.809 19.9149 35.0275C19.9961 35.2462 19.9655 35.435 19.8227 35.5945C19.6968 35.735 19.5258 35.7894 19.31 35.7576C19.0942 35.7257 18.8201 35.561 18.4873 35.263L18.4876 35.2633ZM18.653 35.0775C18.9415 35.3358 19.1598 35.4809 19.3081 35.5123C19.4564 35.5442 19.5699 35.5161 19.6484 35.4283C19.7225 35.3457 19.7348 35.2318 19.6855 35.0872C19.6361 34.9426 19.4683 34.7423 19.1822 34.4861C18.896 34.2299 18.6743 34.0818 18.5263 34.0506C18.3785 34.0191 18.2644 34.0481 18.1844 34.1374C18.1111 34.2192 18.0992 34.3326 18.149 34.4767C18.1988 34.6207 18.3667 34.821 18.6528 35.0772L18.653 35.0775Z" fill="#5B4A00"/>
</g>
<g filter="url(#filter2_d_1850_6274)">
<path d="M30.3414 5.22999L4.92358 25.5474L15.8442 39.2094L41.262 18.8921L30.3414 5.22999Z" fill="#E3FCEB"/>
<path d="M29.6399 5.7911L10.853 20.8081L21.7736 34.4702L40.5605 19.4532L29.6399 5.7911Z" fill="#8FFF9F"/>
<path d="M26.6122 8.21095L17.3101 15.6465L28.2306 29.3086L37.5328 21.873L26.6122 8.21095Z" fill="#68F279"/>
<path d="M31.7503 16.0907L25.7844 20.8594L28.985 24.8634L34.9508 20.0947L31.7503 16.0907Z" fill="#009444"/>
<path d="M36.0447 20.0645L28.6306 25.9908C28.535 26.0672 28.4061 25.9839 28.4457 25.8713L28.8579 24.7044L34.7592 19.9874L35.9701 19.8576C36.0879 19.845 36.1398 19.9885 36.0447 20.0645Z" fill="#009444"/>
<path d="M30.9777 15.2138L25.1844 19.8446C25.0173 19.9782 24.9887 20.2201 25.1205 20.3851L25.3718 20.6994C25.5037 20.8644 25.746 20.8898 25.9131 20.7563L31.7064 16.1255C31.8735 15.9919 31.902 15.7499 31.7702 15.585L31.5189 15.2706C31.3871 15.1057 31.1447 15.0803 30.9777 15.2138Z" fill="#009444"/>
<path d="M30.9833 13.9529L23.9534 19.5722C23.7863 19.7057 23.7578 19.9477 23.8896 20.1126L24.1409 20.427C24.2727 20.5919 24.515 20.6174 24.6821 20.4838L31.712 14.8645C31.8791 14.731 31.9077 14.489 31.7758 14.3241L31.5246 14.0097C31.3927 13.8448 31.1504 13.8193 30.9833 13.9529Z" fill="#009444"/>
<path d="M24.9332 19.2863C25.0001 19.3052 26.0131 16.6245 26.341 15.7518C26.4023 15.5883 26.5568 15.4702 26.7301 15.4543L30.1195 15.1425" fill="#009444"/>
<path d="M9.12046 24.3818C9.21776 24.5035 9.28366 24.6123 9.31751 24.7074C9.35157 24.8028 9.3596 24.8914 9.34108 24.9731C9.32257 25.0549 9.27432 25.1269 9.19631 25.1893L9.11247 25.0844C9.17259 25.0363 9.20019 24.9677 9.19606 24.8782C9.19165 24.789 9.12166 24.6591 8.98598 24.4893C8.8503 24.3196 8.73833 24.2213 8.65223 24.1979C8.56712 24.1745 8.49401 24.1868 8.4334 24.2348L8.34912 24.1294C8.40616 24.0838 8.46553 24.0549 8.52645 24.0428C8.58738 24.0308 8.6492 24.0347 8.71069 24.0543C8.77269 24.074 8.83575 24.1082 8.90028 24.1557C8.96476 24.2036 9.03817 24.2789 9.12046 24.3818Z" fill="#9C7B9E"/>
<path d="M7.79176 25.442L7.92624 25.3345C7.78968 25.1637 7.71963 25.0342 7.71572 24.9451C7.7117 24.8569 7.7398 24.7883 7.79997 24.7398L7.71569 24.6343C7.65866 24.6799 7.61738 24.7315 7.59219 24.7882C7.567 24.845 7.55725 24.9062 7.56282 24.9705C7.56834 25.0353 7.58779 25.1043 7.61989 25.1777C7.65249 25.2512 7.70947 25.3391 7.79176 25.442Z" fill="#9C7B9E"/>
<path d="M8.48669 24.8868C8.5842 25.0088 8.6501 25.1176 8.68417 25.2129C8.71824 25.3083 8.72627 25.3969 8.70775 25.4786C8.68924 25.5604 8.64098 25.6324 8.56298 25.6948L8.47914 25.5899C8.53925 25.5418 8.56685 25.4732 8.56273 25.3837C8.55832 25.2945 8.48833 25.1646 8.35265 24.9948L8.48691 24.887L8.48669 24.8868Z" fill="#9C7B9E"/>
<path d="M7.78999 25.7934C7.86103 25.8822 7.88844 25.9825 7.87245 26.0943C7.85646 26.2062 7.79552 26.3042 7.69067 26.388C7.66187 26.411 7.63299 26.4305 7.60351 26.4464L7.5135 26.3337C7.5475 26.3224 7.57943 26.305 7.60851 26.2818C7.67086 26.2319 7.70692 26.171 7.71613 26.0994C7.72562 26.0276 7.70604 25.9618 7.65772 25.9014C7.60941 25.8409 7.54718 25.8061 7.47303 25.7993C7.39911 25.7928 7.33072 25.8144 7.26753 25.8649L7.52671 25.6578C7.55401 25.6581 7.58046 25.6614 7.60622 25.6684C7.6774 25.6875 7.73858 25.7291 7.78976 25.7931L7.78999 25.7934Z" fill="#9C7B9E"/>
<path d="M11.4024 21.5197L9.04712 23.4023L10.2493 24.9063L12.6045 23.0237L11.4024 21.5197Z" fill="#2D559A"/>
<path d="M20.9504 15.7381L21.3966 15.9415L21.8274 15.6871L21.76 16.1766L22.1262 16.4995L21.6385 16.599L21.4343 17.0526L21.2 16.6243L20.7077 16.5822L21.0507 16.2179L20.9504 15.7381Z" fill="#6FC972"/>
<path opacity="0.61" d="M24.0671 15.756L24.5133 15.9593L24.9439 15.7047L24.8767 16.1945L25.243 16.5174L24.755 16.6166L24.5507 17.0707L24.3167 16.6421L23.8239 16.6L24.1672 16.236L24.0671 15.756Z" fill="#6FC972"/>
<path opacity="0.61" d="M26.7594 17.3695L27.2056 17.5728L27.6363 17.3182L27.5691 17.808L27.9353 18.1309L27.4473 18.2301L27.2434 18.684L27.0091 18.2556L26.5165 18.2132L26.8595 17.8495L26.7594 17.3695Z" fill="#6FC972"/>
<path opacity="0.61" d="M28.2236 20.1842L28.6698 20.3876L29.1004 20.1334L29.0329 20.6229L29.3995 20.9456L28.9117 21.0451L28.7072 21.4989L28.4729 21.0705L27.9806 21.0285L28.3237 20.6642L28.2236 20.1842Z" fill="#6FC972"/>
<path opacity="0.61" d="M28.0341 23.2638L28.4803 23.4671L28.911 23.2125L28.8435 23.7025L29.21 24.0252L28.722 24.1244L28.5178 24.5785L28.2838 24.1499L27.7909 24.1078L28.1342 23.7438L28.0341 23.2638Z" fill="#6FC972"/>
<path opacity="0.61" d="M26.2736 25.9288L26.7201 26.1325L27.1507 25.8778L27.0835 26.3676L27.4495 26.6902L26.9618 26.7897L26.7573 27.2436L26.5235 26.8152L26.0307 26.7731L26.3739 26.4091L26.2736 25.9288Z" fill="#6FC972"/>
<path d="M23.3779 27.3761L23.8241 27.5795L24.2547 27.3248L24.1872 27.8148L24.5538 28.1375L24.0658 28.2367L23.8615 28.6908L23.6272 28.2624L23.1347 28.2201L23.4779 27.8561L23.3779 27.3761Z" fill="#6FC972"/>
<path opacity="0.54" d="M20.1396 27.3092L20.5855 27.5128L21.0164 27.2584L20.9492 27.7482L21.3152 28.0708L20.8277 28.1701L20.6232 28.6239L20.3892 28.1958L19.8966 28.1535L20.2397 27.7892L20.1396 27.3092Z" fill="#BAB386"/>
<path opacity="0.22" d="M17.5422 25.5509L17.9884 25.7543L18.4187 25.4998L18.3516 25.9896L18.7178 26.3125L18.2301 26.4115L18.0258 26.8656L17.7915 26.4372L17.299 26.3949L17.6423 26.0309L17.5422 25.5509Z" fill="#BAB386"/>
<path opacity="0.54" d="M16.3898 22.5568L16.8363 22.7604L17.2666 22.506L17.1994 22.9957L17.5657 23.3181L17.078 23.4176L16.8735 23.8715L16.6394 23.4434L16.1469 23.401L16.4901 23.0371L16.3898 22.5568Z" fill="#BAB386"/>
<path opacity="0.92" d="M16.7326 19.4884L17.1785 19.692L17.6094 19.4376L17.5422 19.9274L17.9082 20.25L17.4207 20.3493L17.2163 20.8031L16.9822 20.375L16.4896 20.3327L16.8327 19.9684L16.7326 19.4884Z" fill="#BAB386"/>
<path d="M18.6396 16.8981L19.086 17.1017L19.5167 16.847L19.4492 17.337L19.8155 17.6595L19.3277 17.7589L19.1232 18.2128L18.8895 17.7845L18.3966 17.7423L18.7399 17.3784L18.6396 16.8981Z" fill="#6FC972"/>
<path d="M22.3094 18.9051L22.8412 19.9809C22.4991 19.9472 22.1439 20.0778 21.7754 20.3724C21.4069 20.6669 21.2113 21.0345 21.1889 21.4749C21.1763 21.7234 21.23 21.9786 21.3501 22.24L23.2155 20.7489L23.5167 21.3481L21.6918 22.8068C21.7302 22.8594 21.7809 22.9251 21.8444 23.0046C21.908 23.0841 21.9727 23.1604 22.044 23.2405L23.7704 21.8605L24.0716 22.4597L22.525 23.696C22.7701 23.8869 23.0051 24.0021 23.23 24.0426C23.664 24.1218 24.0618 24.017 24.4236 23.7278C24.8578 23.3807 25.0997 22.9742 25.1496 22.5082L25.9582 23.5198C25.7789 23.8979 25.4932 24.2434 25.1021 24.556C24.4417 25.0839 23.723 25.2974 22.9455 25.1961C22.4165 25.1276 21.9267 24.907 21.4764 24.5333L20.9745 24.9345L20.6733 24.3352L21.0057 24.0695C20.9611 24.0183 20.9152 23.9632 20.8676 23.9036C20.7866 23.8023 20.7173 23.711 20.6603 23.6305L20.216 23.9856L19.9148 23.3863L20.3185 23.0636C20.063 22.5491 19.9585 22.0314 20.0049 21.5098C20.0765 20.7229 20.4602 20.0512 21.1569 19.4943C21.5369 19.1906 21.9206 18.9942 22.3085 18.9045L22.3094 18.9051Z" fill="#006838"/>
<path d="M16.6229 37.2059L16.4277 37.3619L15.2337 35.8682C15.2307 35.9561 15.2127 36.0574 15.1806 36.1721C15.1483 36.287 15.1116 36.3833 15.0705 36.4619L14.8893 36.2353C14.9481 36.0887 14.9836 35.9387 14.9956 35.7853C15.0077 35.6318 14.9971 35.5 14.9641 35.3898L15.0907 35.2886L16.6232 37.2057L16.6229 37.2059Z" fill="#006838"/>
<path d="M16.0993 36.0809C15.8431 35.7604 15.6928 35.483 15.6484 35.248C15.604 35.013 15.6674 34.8275 15.8379 34.6911C15.9892 34.5702 16.1617 34.5418 16.3559 34.606C16.5907 34.6829 16.8497 34.8993 17.1337 35.2545C17.3883 35.573 17.5381 35.8499 17.5836 36.085C17.6288 36.3199 17.5655 36.5061 17.3941 36.6431C17.2429 36.764 17.0608 36.7902 16.8479 36.721C16.6352 36.6522 16.3854 36.4389 16.0995 36.0812L16.0993 36.0809ZM16.2979 35.9212C16.5459 36.2314 16.7422 36.4151 16.8871 36.4726C17.0317 36.5297 17.1515 36.5208 17.2458 36.4455C17.3347 36.3744 17.3665 36.2612 17.341 36.1066C17.3154 35.9519 17.1799 35.7205 16.9339 35.4128C16.688 35.105 16.4888 34.9177 16.3443 34.8609C16.1999 34.804 16.0797 34.8141 15.9838 34.8908C15.8957 34.9612 15.8647 35.0737 15.8905 35.2281C15.9163 35.3825 16.0524 35.6135 16.2984 35.9213L16.2979 35.9212Z" fill="#006838"/>
<path d="M17.4069 35.036C17.1507 34.7155 17.0004 34.438 16.956 34.203C16.9116 33.968 16.975 33.7825 17.1456 33.6462C17.2968 33.5253 17.4693 33.4969 17.6635 33.561C17.8983 33.638 18.1573 33.8543 18.4413 34.2096C18.6959 34.5281 18.8458 34.805 18.8912 35.0401C18.9364 35.2749 18.8731 35.4612 18.7017 35.5982C18.5505 35.7191 18.3684 35.7453 18.1555 35.6761C17.9428 35.6073 17.693 35.3939 17.4071 35.0362L17.4069 35.036ZM17.6055 34.8763C17.8535 35.1865 18.0498 35.3702 18.1947 35.4277C18.3394 35.4848 18.4592 35.4759 18.5534 35.4006C18.6423 35.3295 18.6741 35.2163 18.6486 35.0617C18.623 34.907 18.4876 34.6756 18.2416 34.3679C17.9956 34.0601 17.7964 33.8728 17.6519 33.8159C17.5075 33.7591 17.3873 33.7692 17.2914 33.8458C17.2033 33.9162 17.1723 34.0288 17.1981 34.1832C17.224 34.3376 17.36 34.5686 17.606 34.8763L17.6055 34.8763Z" fill="#006838"/>
</g>
<g filter="url(#filter3_d_1850_6274)">
<path d="M32.8484 8.41377L4.92944 25.1289L13.9138 40.1353L41.8327 23.4201L32.8484 8.41377Z" fill="#DED7E3"/>
<path d="M32.0774 8.87497L11.4419 21.2295L20.4262 36.2359L41.0617 23.8813L32.0774 8.87497Z" fill="#BDB7DB"/>
<path d="M28.7521 10.8657L18.5347 16.9829L27.519 31.9893L37.7364 25.8721L28.7521 10.8657Z" fill="#9892C5"/>
<path d="M24.3463 21.0401L23.4287 21.5894C23.308 21.6617 23.2679 21.8166 23.3391 21.9355L28.1314 29.9399C28.2025 30.0588 28.3581 30.0966 28.4787 30.0244L29.3963 29.475C29.517 29.4028 29.5571 29.2478 29.4859 29.129L24.6936 21.1245C24.6224 21.0056 24.4669 20.9678 24.3463 21.0401Z" fill="#814E83"/>
<path d="M32.3452 17.6964L28.9826 19.7096C28.8562 19.7853 28.8141 19.9477 28.8887 20.0722L33.0318 26.9923C33.1063 27.1169 33.2693 27.1565 33.3957 27.0808L36.7584 25.0676C36.8848 24.9919 36.9268 24.8295 36.8523 24.7049L32.7092 17.7849C32.6346 17.6603 32.4717 17.6207 32.3452 17.6964Z" fill="#814E83"/>
<path d="M30.3612 22.1613L28.7685 23.1149C28.642 23.1906 28.6 23.3529 28.6746 23.4775L31.3732 27.985C31.4478 28.1095 31.6108 28.1492 31.7372 28.0735L33.3299 27.1199C33.4563 27.0442 33.4984 26.8819 33.4238 26.7573L30.7251 22.2498C30.6506 22.1253 30.4876 22.0856 30.3612 22.1613Z" fill="#814E83"/>
<path d="M31.8341 28.317L29.7386 29.5715C29.5804 29.6662 29.3376 29.5518 29.1965 29.3162L23.5415 19.8708C23.3629 19.5725 23.4395 19.2466 23.6895 19.239L26.4865 19.1561C26.6356 19.1517 26.8053 19.2668 26.9118 19.4447L31.8653 27.7184C32.0065 27.9543 31.9925 28.2221 31.8344 28.3168L31.8341 28.317Z" fill="#814E83"/>
<path d="M9.25068 24.5331C9.33073 24.6668 9.38137 24.7835 9.40207 24.8823C9.42295 24.9814 9.4189 25.0703 9.38946 25.1489C9.36001 25.2275 9.30236 25.2924 9.21651 25.3438L9.14754 25.2286C9.2137 25.189 9.25039 25.1246 9.25841 25.0354C9.26613 24.9464 9.2143 24.8081 9.10268 24.6217C8.99105 24.4352 8.89326 24.3229 8.811 24.2881C8.72972 24.2536 8.65551 24.256 8.58887 24.2955L8.51953 24.1797C8.5823 24.1421 8.64513 24.1214 8.70722 24.1176C8.76931 24.1137 8.83011 24.1259 8.88847 24.1536C8.94732 24.1814 9.00526 24.2237 9.06286 24.2794C9.12033 24.3356 9.18298 24.42 9.25068 24.5331Z" fill="#9C7B9E"/>
<path d="M7.7899 25.4073L7.9379 25.3187C7.82555 25.131 7.7736 24.9933 7.7818 24.9043C7.78976 24.8164 7.82694 24.7521 7.89322 24.712L7.82388 24.5962C7.76111 24.6338 7.71317 24.6794 7.68048 24.7323C7.6478 24.7852 7.62983 24.8446 7.62665 24.9091C7.62334 24.9741 7.63328 25.0451 7.65518 25.1222C7.67708 25.1993 7.72219 25.2942 7.7899 25.4073Z" fill="#9C7B9E"/>
<path d="M8.55387 24.9497C8.63409 25.0837 8.68473 25.2004 8.70561 25.2995C8.72649 25.3986 8.72245 25.4875 8.693 25.5661C8.66356 25.6447 8.60591 25.7097 8.52006 25.7611L8.45109 25.6459C8.51724 25.6063 8.55393 25.5419 8.56196 25.4527C8.56967 25.3636 8.51785 25.2254 8.40622 25.0389L8.55405 24.95L8.55387 24.9497Z" fill="#9C7B9E"/>
<path d="M7.74079 25.7557C7.79923 25.8533 7.81285 25.9564 7.78183 26.0651C7.75081 26.1739 7.67705 26.2629 7.56166 26.332C7.52996 26.351 7.49867 26.3664 7.46727 26.3782L7.39322 26.2546C7.42849 26.2478 7.46253 26.2349 7.49453 26.2157C7.56315 26.1746 7.60719 26.119 7.62604 26.0493C7.64519 25.9793 7.63467 25.9115 7.59492 25.8451C7.55517 25.7787 7.49815 25.7358 7.42549 25.7192C7.35302 25.7029 7.28223 25.7152 7.21268 25.7568L7.49793 25.5861C7.52498 25.59 7.55078 25.5968 7.57539 25.6072C7.64343 25.6357 7.6985 25.6851 7.74061 25.7554L7.74079 25.7557Z" fill="#9C7B9E"/>
<path d="M11.9041 22.0008L9.31201 23.5527L10.301 25.2047L12.8932 23.6528L11.9041 22.0008Z" fill="#2D559A"/>
<path d="M22.713 17.2145L23.1282 17.4758L23.5902 17.2811L23.4566 17.7577L23.7766 18.1266L23.2791 18.1601L23.0147 18.5828L22.8406 18.1265L22.3575 18.0191L22.7473 17.7038L22.713 17.2145Z" fill="#CA786D"/>
<path opacity="0.61" d="M25.8029 17.6486L26.218 17.9099L26.6798 17.7149L26.5465 18.1918L26.8664 18.5607L26.3688 18.5938L26.1046 19.0169L25.9305 18.5606L25.4472 18.4529L25.8371 18.1379L25.8029 17.6486Z" fill="#CA786D"/>
<path opacity="0.61" d="M28.256 19.609L28.6712 19.8703L29.133 19.6754L28.9996 20.1522L29.3196 20.5212L28.8219 20.5543L28.5577 20.9773L28.3836 20.521L27.9003 20.4134L28.2902 20.0984L28.256 19.609Z" fill="#CA786D"/>
<path opacity="0.61" d="M29.3265 22.5955L29.7417 22.8568L30.2036 22.6622L30.0704 23.1385L30.3901 23.5077L29.8926 23.5411L29.6285 23.9636L29.4541 23.5075L28.9713 23.4L29.361 23.0847L29.3265 22.5955Z" fill="#CA786D"/>
<path opacity="0.61" d="M28.7223 25.6237L29.1375 25.885L29.599 25.6902L29.4659 26.1669L29.7856 26.536L29.2882 26.5689L29.024 26.9919L28.8496 26.5359L28.3666 26.428L28.7565 26.113L28.7223 25.6237Z" fill="#CA786D"/>
<path opacity="0.61" d="M26.6144 28.0304L27.0296 28.2917L27.4915 28.0971L27.3582 28.5739L27.678 28.9425L27.1805 28.976L26.9161 29.3987L26.7419 28.9429L26.2589 28.8351L26.6486 28.5198L26.6144 28.0304Z" fill="#CA786D"/>
<path d="M23.5445 29.0789L23.9597 29.3402L24.4215 29.1453L24.2884 29.6219L24.6081 29.9911L24.1104 30.0242L23.8465 30.447L23.6721 29.9909L23.1891 29.8831L23.579 29.5681L23.5445 29.0789Z" fill="#CA786D"/>
<path opacity="0.54" d="M20.5072 28.4796L20.9224 28.7409L21.3844 28.5463L21.2513 29.0229L21.5708 29.3918L21.0733 29.4252L20.8089 29.8479L20.635 29.3919L20.1517 29.2843L20.5414 28.969L20.5072 28.4796Z" fill="#B586BB"/>
<path opacity="0.22" d="M18.1673 26.39L18.5825 26.6513L19.0443 26.4563L18.9112 26.933L19.2309 27.3021L18.7332 27.3352L18.4693 27.7581L18.2949 27.302L17.8119 27.1941L18.2015 26.8793L18.1673 26.39Z" fill="#B586BB"/>
<path opacity="0.54" d="M17.2623 23.3665L17.6774 23.6278L18.1394 23.4332L18.0064 23.9098L18.3259 24.2787L17.8284 24.3121L17.5643 24.7346L17.3901 24.2788L16.9071 24.171L17.2968 23.8557L17.2623 23.3665Z" fill="#B586BB"/>
<path opacity="0.92" d="M18.0198 20.369L18.435 20.6303L18.897 20.4356L18.764 20.9123L19.0834 21.2811L18.586 21.3145L18.3215 21.7372L18.1476 21.2813L17.6646 21.1734L18.0541 20.8583L18.0198 20.369Z" fill="#B586BB"/>
<path d="M20.2628 18.0558L20.678 18.3171L21.1397 18.1226L21.0066 18.5993L21.3261 18.9681L20.8289 19.0014L20.5645 19.4241L20.3903 18.9683L19.9073 18.8605L20.2971 18.5452L20.2628 18.0558Z" fill="#CA786D"/>
<path d="M23.6323 20.5363L24.0142 21.6741C23.6792 21.595 23.3091 21.677 22.9035 21.9198C22.498 22.1626 22.2541 22.5009 22.1722 22.9346C22.126 23.1793 22.1447 23.4395 22.2284 23.7148L24.2814 22.4856L24.4991 23.1201L22.4907 24.3225C22.5216 24.3798 22.563 24.4517 22.6153 24.539C22.6676 24.6264 22.7214 24.7107 22.7813 24.7996L24.6814 23.662L24.8991 24.2965L23.1968 25.3156C23.4142 25.5376 23.6318 25.6832 23.8494 25.7535C24.2694 25.89 24.6782 25.8392 25.0764 25.6008C25.5543 25.3147 25.8494 24.944 25.9622 24.4886L26.6274 25.5997C26.3982 25.9507 26.0679 26.255 25.6375 26.5128C24.9107 26.9479 24.1685 27.0636 23.4108 26.8591C22.8952 26.7206 22.4391 26.4364 22.0429 26.0056L21.4906 26.3363L21.2729 25.7019L21.6388 25.4828C21.6014 25.4261 21.5634 25.3653 21.5242 25.2998C21.4575 25.1885 21.4012 25.0888 21.3555 25.0013L20.8665 25.294L20.6489 24.6596L21.0932 24.3936C20.9094 23.8492 20.8759 23.3219 20.9926 22.811C21.1703 22.0403 21.642 21.4256 22.4088 20.9665C22.827 20.7161 23.2344 20.5727 23.6314 20.5356L23.6323 20.5363Z" fill="#412742"/>
<path d="M13.8015 38.2346L14.0138 38.0761C14.1116 38.1996 14.2109 38.2761 14.3119 38.3045C14.413 38.333 14.5045 38.3231 14.586 38.2743C14.6882 38.2131 14.7484 38.1141 14.7669 37.9774C14.7854 37.8407 14.7466 37.6922 14.6508 37.5321C14.5606 37.3814 14.455 37.2861 14.3339 37.2457C14.2129 37.2057 14.0982 37.218 13.9905 37.2825C13.9253 37.3215 13.8751 37.3759 13.8397 37.446C13.8044 37.5162 13.7894 37.5931 13.795 37.6771L13.5733 37.767L13.0958 36.5826L13.9663 36.0614L14.1143 36.3085L13.4148 36.7273L13.6602 37.3501C13.7112 37.1993 13.7952 37.0889 13.9118 37.0191C14.0586 36.9312 14.2231 36.9163 14.4051 36.9745C14.5872 37.0327 14.7408 37.1665 14.8658 37.3753C14.9909 37.5842 15.0409 37.7907 15.0206 38.0025C15.0004 38.2144 14.8989 38.3752 14.7161 38.4847C14.5644 38.5755 14.4054 38.6003 14.2385 38.5589C14.0716 38.5176 13.9262 38.4094 13.8013 38.2343L13.8015 38.2346Z" fill="#412742"/>
<path d="M14.9554 36.8821C14.7438 36.5286 14.6319 36.232 14.6196 35.9922C14.6073 35.7525 14.6956 35.5761 14.8842 35.4631C15.0513 35.3631 15.2271 35.3579 15.4118 35.4479C15.6352 35.5563 15.8641 35.806 16.0986 36.1977C16.3089 36.5491 16.4208 36.8449 16.4338 37.0851C16.4468 37.3252 16.3586 37.502 16.1691 37.6154C16.002 37.7155 15.817 37.7171 15.6141 37.6199C15.4113 37.5226 15.1918 37.2768 14.9556 36.8824L14.9554 36.8821ZM15.1754 36.7496C15.3803 37.0918 15.5508 37.3011 15.6872 37.3776C15.8237 37.454 15.9441 37.461 16.0481 37.3987C16.1466 37.3398 16.1933 37.2315 16.1894 37.0741C16.1849 36.9165 16.0813 36.668 15.8782 36.3288C15.6751 35.9896 15.5021 35.776 15.3658 35.6999C15.2297 35.6241 15.1084 35.6176 15.0022 35.6812C14.9047 35.7396 14.8585 35.8475 14.8634 36.0044C14.8682 36.1617 14.9721 36.41 15.1752 36.7493L15.1754 36.7496Z" fill="#412742"/>
<path d="M16.401 36.0164C16.1894 35.6629 16.0774 35.3663 16.0651 35.1265C16.0528 34.8868 16.1412 34.7103 16.3298 34.5974C16.4969 34.4974 16.6727 34.4922 16.8574 34.5822C17.0807 34.6906 17.3096 34.9403 17.5441 35.332C17.7545 35.6833 17.8664 35.9792 17.8794 36.2193C17.8923 36.4595 17.8042 36.6362 17.6146 36.7497C17.4475 36.8497 17.2625 36.8514 17.0597 36.7542C16.8568 36.6569 16.6373 36.4111 16.4012 36.0167L16.401 36.0164ZM16.621 35.8839C16.8259 36.2261 16.9963 36.4354 17.1328 36.5119C17.2693 36.5883 17.3897 36.5953 17.4937 36.533C17.5921 36.4741 17.6389 36.3658 17.6349 36.2083C17.6305 36.0508 17.5269 35.8023 17.3238 35.4631C17.1207 35.1238 16.9477 34.9103 16.8114 34.8342C16.6753 34.7583 16.5539 34.7519 16.4478 34.8154C16.3502 34.8738 16.3041 34.9818 16.309 35.1387C16.3137 35.296 16.4177 35.5443 16.6208 35.8835L16.621 35.8839Z" fill="#412742"/>
</g>
<g filter="url(#filter4_d_1850_6274)">
<path d="M35.2593 15.9105L4.07861 25.2178L9.08128 41.9774L40.262 32.6701L35.2593 15.9105Z" fill="#F4F8EA"/>
<path d="M34.3996 16.1676L11.353 23.0469L16.3557 39.8065L39.4022 32.9272L34.3996 16.1676Z" fill="#EFEBA4"/>
<path d="M30.6856 17.2759L19.2744 20.6821L24.2771 37.4418L35.6883 34.0356L30.6856 17.2759Z" fill="#FFEB8A"/>
<path d="M8.42156 25.7053C8.46613 25.8546 8.48637 25.9802 8.48197 26.0811C8.47767 26.1823 8.45171 26.2675 8.40364 26.3364C8.35558 26.4053 8.2835 26.4541 8.18741 26.4828L8.14901 26.3541C8.22305 26.332 8.27463 26.2786 8.30454 26.1941C8.33411 26.1097 8.31806 25.9629 8.2559 25.7547C8.19375 25.5465 8.12666 25.4135 8.05541 25.3595C7.98506 25.306 7.91242 25.2901 7.83792 25.312L7.79932 25.1826C7.86957 25.1616 7.93571 25.157 7.99694 25.1686C8.05816 25.1802 8.11417 25.207 8.16397 25.2482C8.21422 25.2896 8.25998 25.3449 8.30209 25.4131C8.34396 25.4817 8.38386 25.579 8.42156 25.7053Z" fill="#9C7B9E"/>
<path d="M6.78658 26.1931L6.95224 26.1436C6.88968 25.934 6.87338 25.7877 6.90339 25.7035C6.93291 25.6202 6.98494 25.5671 7.05923 25.5445L7.02063 25.4152C6.95037 25.4362 6.89252 25.4685 6.84767 25.5118C6.80281 25.5551 6.77065 25.6082 6.75158 25.6699C6.73225 25.7321 6.72429 25.8034 6.72645 25.8835C6.72905 25.9639 6.74888 26.0668 6.78658 26.1931Z" fill="#9C7B9E"/>
<path d="M7.64342 25.9381C7.6881 26.0878 7.70833 26.2134 7.70404 26.3146C7.69974 26.4158 7.67378 26.501 7.62571 26.5699C7.57765 26.6389 7.50557 26.6877 7.40948 26.7163L7.37108 26.5877C7.44512 26.5656 7.4967 26.5122 7.52661 26.4277C7.55618 26.3433 7.54013 26.1965 7.47797 25.9883L7.64353 25.9385L7.64342 25.9381Z" fill="#9C7B9E"/>
<path d="M6.65249 26.5181C6.68503 26.6271 6.67272 26.7303 6.61564 26.8281C6.55856 26.9259 6.46487 26.9941 6.33572 27.0326C6.30025 27.0432 6.26603 27.0505 6.23263 27.0542L6.19139 26.916C6.2273 26.9182 6.26356 26.914 6.29938 26.9033C6.37618 26.8804 6.43272 26.8374 6.46831 26.7744C6.50424 26.7113 6.51085 26.6429 6.48872 26.5688C6.46658 26.4946 6.42185 26.439 6.35544 26.405C6.28912 26.3713 6.21734 26.3658 6.1395 26.3891L6.45876 26.2938C6.48404 26.3043 6.5074 26.3172 6.52872 26.3334C6.58772 26.3777 6.62894 26.4392 6.65239 26.5177L6.65249 26.5181Z" fill="#9C7B9E"/>
<path d="M11.6256 23.9035L8.72437 24.7695L9.27507 26.6145L12.1763 25.7485L11.6256 23.9035Z" fill="#2D559A"/>
<path d="M24.6667 23.7134L25.1829 23.5593C26.0842 23.2903 27.0304 23.7911 27.2949 24.6771L30.1978 34.4023L26.4163 35.5311L23.5133 25.8059C23.2488 24.9198 23.7657 23.9823 24.667 23.7133L24.6667 23.7134Z" fill="#827F4E"/>
<path d="M28.478 22.5756L29.0931 22.392C29.9945 22.123 30.9406 22.6238 31.2051 23.5098L34.108 33.235L30.2273 34.3934L27.3244 24.6682C27.0599 23.7821 27.5767 22.8446 28.478 22.5756Z" fill="#827F4E"/>
<path d="M10.7855 40.0861L10.8613 40.34L9.67378 40.6945C9.63995 40.5925 9.63738 40.4682 9.6654 40.3209C9.69352 40.1738 9.76988 39.9873 9.89447 39.7613C10.0402 39.498 10.1286 39.3016 10.1595 39.1726C10.1903 39.0435 10.1916 38.931 10.1633 38.8362C10.1306 38.7265 10.0712 38.6469 9.98549 38.5973C9.89978 38.5476 9.80888 38.5371 9.71348 38.5656C9.61085 38.5963 9.53793 38.6586 9.49448 38.753C9.45104 38.8475 9.45026 38.9643 9.4919 39.1038L9.25665 39.1437C9.21084 38.9325 9.22403 38.7593 9.29588 38.6243C9.36773 38.4892 9.48786 38.3966 9.65628 38.3463C9.8395 38.2916 9.99638 38.3108 10.1266 38.404C10.2569 38.4974 10.3452 38.6212 10.3913 38.7756C10.4322 38.9127 10.4346 39.0551 10.3984 39.2027C10.3622 39.3503 10.2725 39.56 10.1287 39.8311C10.0367 40.0028 9.97885 40.1181 9.95498 40.1776C9.9311 40.2371 9.91411 40.2946 9.90459 40.3494L10.7859 40.0863L10.7855 40.0861Z" fill="#383119"/>
<path d="M10.8632 39.1832C10.7553 38.8219 10.7233 38.5336 10.767 38.3181C10.8107 38.1026 10.9289 37.9659 11.1221 37.9082C11.2933 37.8571 11.4508 37.8923 11.5943 38.0136C11.7682 38.1601 11.9147 38.4335 12.0342 38.8337C12.1414 39.1929 12.1736 39.4805 12.1308 39.6965C12.088 39.9125 11.9694 40.0493 11.7751 40.1072C11.604 40.1583 11.4392 40.1179 11.2809 39.9859C11.1227 39.854 10.9835 39.5865 10.8632 39.1832ZM11.0886 39.1152C11.193 39.465 11.297 39.6891 11.4011 39.7878C11.5048 39.8863 11.6104 39.9197 11.7171 39.8878C11.8181 39.8577 11.8841 39.7723 11.916 39.6315C11.9478 39.4908 11.9122 39.247 11.8086 38.8999C11.705 38.5529 11.5998 38.3247 11.4959 38.2266C11.3923 38.1285 11.2858 38.0957 11.1773 38.1281C11.0774 38.1579 11.012 38.2431 10.9805 38.3838C10.949 38.5245 10.9853 38.7681 11.0888 39.1148L11.0886 39.1152Z" fill="#383119"/>
<path d="M12.3435 38.7417C12.2357 38.3804 12.2036 38.0921 12.247 37.8767C12.2907 37.6612 12.4089 37.5245 12.6021 37.4668C12.7733 37.4157 12.9308 37.4509 13.0743 37.5722C13.2482 37.7187 13.3947 37.9921 13.5141 38.3923C13.6214 38.7515 13.6536 39.0391 13.6108 39.2551C13.5679 39.471 13.4494 39.6078 13.2551 39.6658C13.084 39.7169 12.9192 39.6765 12.7609 39.5445C12.6026 39.4126 12.4635 39.1451 12.3432 38.7418L12.3435 38.7417ZM12.5689 38.6737C12.6733 39.0235 12.7773 39.2476 12.8814 39.3463C12.9851 39.4448 13.0907 39.4782 13.1975 39.4463C13.2984 39.4162 13.3644 39.3308 13.3963 39.19C13.4282 39.0492 13.3925 38.8054 13.2889 38.4584C13.1853 38.1113 13.0801 37.8832 12.9762 37.7851C12.8723 37.6871 12.7661 37.6542 12.6576 37.6866C12.5577 37.7164 12.4924 37.8016 12.4608 37.9423C12.4293 38.0829 12.4656 38.3265 12.5691 38.6733L12.5689 38.6737Z" fill="#383119"/>
<path d="M22.5582 22.1487L22.8965 22.5042L23.3931 22.429L23.1458 22.8583L23.3646 23.2948L22.8733 23.2044L22.5122 23.5493L22.456 23.0642L22.0138 22.8407L22.4704 22.6314L22.5582 22.1487Z" fill="#C9C36F"/>
<path opacity="0.61" d="M25.4506 23.3307L25.7889 23.6862L26.2857 23.6113L26.0383 24.0406L26.2571 24.4769L25.7658 24.3868L25.4043 24.7314L25.3485 24.2466L24.906 24.0232L25.3625 23.8135L25.4506 23.3307Z" fill="#C9C36F"/>
<path opacity="0.61" d="M27.3465 25.8347L27.6848 26.1902L28.1816 26.1153L27.9341 26.5443L28.153 26.9809L27.6617 26.8908L27.3006 27.2353L27.2443 26.7502L26.8022 26.5271L27.2584 26.3175L27.3465 25.8347Z" fill="#C9C36F"/>
<path opacity="0.61" d="M27.6452 28.9938L27.9835 29.3493L28.4799 29.2745L28.2326 29.7038L28.4513 30.14L27.9604 30.0498L27.5989 30.3945L27.5427 29.9097L27.1006 29.6863L27.5571 29.4766L27.6452 28.9938Z" fill="#C9C36F"/>
<path opacity="0.61" d="M26.3073 31.7804L26.6456 32.1359L27.1423 32.061L26.8946 32.4901L27.1138 32.9266L26.6225 32.8365L26.261 33.1811L26.2051 32.6959L25.7627 32.4729L26.2192 32.2632L26.3073 31.7804Z" fill="#C9C36F"/>
<path opacity="0.61" d="M23.6642 33.5949L24.0025 33.9504L24.4993 33.8755L24.2515 34.3046L24.4707 34.741L23.9794 34.6509L23.6179 34.9956L23.562 34.5104L23.1196 34.2873L23.5761 34.0777L23.6642 33.5949Z" fill="#C9C36F"/>
<path d="M20.424 33.8541L20.7623 34.2097L21.2587 34.1349L21.0113 34.5638L21.2305 35.0003L20.7392 34.9102L20.3777 35.2548L20.3214 34.7698L19.8794 34.5466L20.3359 34.3369L20.424 33.8541Z" fill="#C9C36F"/>
<path opacity="0.54" d="M17.4374 32.5817L17.7754 32.9373L18.272 32.8621L18.0247 33.2914L18.2435 33.7279L17.7525 33.6374L17.3911 33.9824L17.3349 33.4973L16.8927 33.2738L17.3493 33.0645L17.4374 32.5817Z" fill="#BAB386"/>
<path opacity="0.22" d="M15.6833 29.9787L16.0216 30.3342L16.518 30.2594L16.2706 30.6884L16.4894 31.1249L15.9985 31.0347L15.637 31.3793L15.5807 30.8943L15.1386 30.6711L15.5952 30.4615L15.6833 29.9787Z" fill="#BAB386"/>
<path opacity="0.54" d="M15.7418 26.7697L16.0802 27.1252L16.5766 27.0504L16.3292 27.4794L16.548 27.9159L16.0571 27.8257L15.6956 28.1704L15.6393 27.6853L15.1972 27.4621L15.6538 27.2525L15.7418 26.7697Z" fill="#BAB386"/>
<path opacity="0.92" d="M17.2191 24.0514L17.5571 24.407L18.0538 24.3318L17.8064 24.7611L18.0253 25.1977L17.5343 25.1071L17.1729 25.4521L17.1166 24.967L16.6744 24.7435L17.1311 24.5342L17.2191 24.0514Z" fill="#BAB386"/>
<path d="M19.9701 22.3605L20.3084 22.716L20.8052 22.6411L20.5574 23.0702L20.7766 23.5066L20.2853 23.4165L19.9238 23.7612L19.8679 23.276L19.4255 23.053L19.882 22.8433L19.9701 22.3605Z" fill="#C9C36F"/>
<path d="M22.6266 25.5953L22.7154 26.7923C22.4098 26.6332 22.0301 26.6215 21.5762 26.757C21.1223 26.8925 20.8016 27.1604 20.6147 27.5606C20.5091 27.7865 20.4628 28.0433 20.4758 28.3307L22.7737 27.6448L22.8277 28.3135L20.5798 28.9845C20.5956 29.0476 20.618 29.1276 20.6471 29.2251C20.6762 29.3226 20.7076 29.4176 20.7437 29.5185L22.8704 28.8837L22.9245 29.5524L21.0192 30.1211C21.1752 30.3898 21.3504 30.5846 21.5442 30.7063C21.9181 30.9421 22.3276 30.9935 22.7733 30.8605C23.3082 30.7008 23.6866 30.4142 23.9089 30.0004L24.2793 31.2414C23.9698 31.5251 23.5738 31.7389 23.0919 31.8827C22.2784 32.1255 21.5293 32.0549 20.8443 31.6701C20.3781 31.4088 20.0058 31.021 19.7278 30.5058L19.1096 30.6903L19.0556 30.0217L19.4651 29.8995C19.4429 29.8353 19.421 29.767 19.3992 29.6938C19.3621 29.5696 19.3321 29.459 19.3094 29.3629L18.7622 29.5263L18.7081 28.8576L19.2054 28.7092C19.1619 28.1362 19.2601 27.6169 19.5001 27.1503C19.8636 26.447 20.474 25.9672 21.3322 25.711C21.8003 25.5713 22.2313 25.5326 22.626 25.5944L22.6266 25.5953Z" fill="#383119"/>
</g>
<defs>
<filter id="filter0_d_1850_6274" x="2.49219" y="0.972656" width="38.8882" height="44.9424" filterUnits="userSpaceOnUse" color-interpolation-filters="sRGB">
<feFlood flood-opacity="0" result="BackgroundImageFix"/>
<feColorMatrix in="SourceAlpha" type="matrix" values="0 0 0 0 0 0 0 0 0 0 0 0 0 0 0 0 0 0 127 0" result="hardAlpha"/>
<feOffset dy="4"/>
<feGaussianBlur stdDeviation="2"/>
<feComposite in2="hardAlpha" operator="out"/>
<feColorMatrix type="matrix" values="0 0 0 0 0 0 0 0 0 0 0 0 0 0 0 0 0 0 0.05 0"/>
<feBlend mode="normal" in2="BackgroundImageFix" result="effect1_dropShadow_1850_6274"/>
<feBlend mode="normal" in="SourceGraphic" in2="effect1_dropShadow_1850_6274" result="shape"/>
</filter>
<filter id="filter1_d_1850_6274" x="1.40015" y="2.7373" width="42.7378" height="43.9092" filterUnits="userSpaceOnUse" color-interpolation-filters="sRGB">
<feFlood flood-opacity="0" result="BackgroundImageFix"/>
<feColorMatrix in="SourceAlpha" type="matrix" values="0 0 0 0 0 0 0 0 0 0 0 0 0 0 0 0 0 0 127 0" result="hardAlpha"/>
<feOffset dy="4"/>
<feGaussianBlur stdDeviation="2"/>
<feComposite in2="hardAlpha" operator="out"/>
<feColorMatrix type="matrix" values="0 0 0 0 0 0 0 0 0 0 0 0 0 0 0 0 0 0 0.05 0"/>
<feBlend mode="normal" in2="BackgroundImageFix" result="effect1_dropShadow_1850_6274"/>
<feBlend mode="normal" in="SourceGraphic" in2="effect1_dropShadow_1850_6274" result="shape"/>
</filter>
<filter id="filter2_d_1850_6274" x="0.923584" y="5.22998" width="44.3384" height="41.9795" filterUnits="userSpaceOnUse" color-interpolation-filters="sRGB">
<feFlood flood-opacity="0" result="BackgroundImageFix"/>
<feColorMatrix in="SourceAlpha" type="matrix" values="0 0 0 0 0 0 0 0 0 0 0 0 0 0 0 0 0 0 127 0" result="hardAlpha"/>
<feOffset dy="4"/>
<feGaussianBlur stdDeviation="2"/>
<feComposite in2="hardAlpha" operator="out"/>
<feColorMatrix type="matrix" values="0 0 0 0 0 0 0 0 0 0 0 0 0 0 0 0 0 0 0.05 0"/>
<feBlend mode="normal" in2="BackgroundImageFix" result="effect1_dropShadow_1850_6274"/>
<feBlend mode="normal" in="SourceGraphic" in2="effect1_dropShadow_1850_6274" result="shape"/>
</filter>
<filter id="filter3_d_1850_6274" x="0.929443" y="8.41357" width="44.9033" height="39.7217" filterUnits="userSpaceOnUse" color-interpolation-filters="sRGB">
<feFlood flood-opacity="0" result="BackgroundImageFix"/>
<feColorMatrix in="SourceAlpha" type="matrix" values="0 0 0 0 0 0 0 0 0 0 0 0 0 0 0 0 0 0 127 0" result="hardAlpha"/>
<feOffset dy="4"/>
<feGaussianBlur stdDeviation="2"/>
<feComposite in2="hardAlpha" operator="out"/>
<feColorMatrix type="matrix" values="0 0 0 0 0 0 0 0 0 0 0 0 0 0 0 0 0 0 0.05 0"/>
<feBlend mode="normal" in2="BackgroundImageFix" result="effect1_dropShadow_1850_6274"/>
<feBlend mode="normal" in="SourceGraphic" in2="effect1_dropShadow_1850_6274" result="shape"/>
</filter>
<filter id="filter4_d_1850_6274" x="0.0786133" y="15.9106" width="44.1833" height="34.0669" filterUnits="userSpaceOnUse" color-interpolation-filters="sRGB">
<feFlood flood-opacity="0" result="BackgroundImageFix"/>
<feColorMatrix in="SourceAlpha" type="matrix" values="0 0 0 0 0 0 0 0 0 0 0 0 0 0 0 0 0 0 127 0" result="hardAlpha"/>
<feOffset dy="4"/>
<feGaussianBlur stdDeviation="2"/>
<feComposite in2="hardAlpha" operator="out"/>
<feColorMatrix type="matrix" values="0 0 0 0 0 0 0 0 0 0 0 0 0 0 0 0 0 0 0.05 0"/>
<feBlend mode="normal" in2="BackgroundImageFix" result="effect1_dropShadow_1850_6274"/>
<feBlend mode="normal" in="SourceGraphic" in2="effect1_dropShadow_1850_6274" result="shape"/>
</filter>
</defs>
</svg>
