<svg width="51" height="51" viewBox="0 0 51 51" fill="none" xmlns="http://www.w3.org/2000/svg">
<circle cx="25.0096" cy="25.0096" r="23.6201" fill="#5AE7E7" stroke="#38BEBE" stroke-width="2.77884"/>
<g filter="url(#filter0_f_1015_67905)">
<ellipse cx="14.1555" cy="12.1841" rx="7.89471" ry="2.77884" transform="rotate(-35.2607 14.1555 12.1841)" fill="white"/>
</g>
<g filter="url(#filter1_d_1015_67905)">
<path d="M33.0622 12.002C31.5281 12.002 30.0568 12.6114 28.972 13.6961C27.8873 14.7809 27.2778 16.2522 27.2778 17.7863V28.873H38.8466V17.7863C38.8466 16.2522 38.2372 14.7809 37.1524 13.6961C36.0676 12.6114 34.5963 12.002 33.0622 12.002Z" fill="url(#paint0_linear_1015_67905)"/>
<path d="M36.9187 36.1019H29.2062C28.4391 36.1019 27.7035 35.7972 27.1611 35.2548C26.6187 34.7124 26.314 33.9768 26.314 33.2097V29.5945C26.314 28.2522 26.8472 26.9648 27.7964 26.0156C28.7456 25.0664 30.033 24.5332 31.3753 24.5332H34.7495C36.0919 24.5332 37.3792 25.0664 38.3284 26.0156C39.2776 26.9648 39.8109 28.2522 39.8109 29.5945V33.2097C39.8109 33.9768 39.5061 34.7124 38.9638 35.2548C38.4214 35.7972 37.6857 36.1019 36.9187 36.1019Z" fill="url(#paint1_linear_1015_67905)"/>
<path d="M34.7491 24.5332H31.3749C30.7133 24.5329 30.0582 24.6627 29.4468 24.9155V25.0152C29.4468 25.974 29.8277 26.8936 30.5057 27.5716C31.1836 28.2496 32.1032 28.6304 33.062 28.6304C34.0208 28.6304 34.9404 28.2496 35.6184 27.5716C36.2964 26.8936 36.6773 25.974 36.6773 25.0152V24.9155C36.0659 24.6627 35.4107 24.5329 34.7491 24.5332Z" fill="url(#paint2_linear_1015_67905)"/>
<path d="M30.8931 22.8472H35.2314V25.0163C35.2314 25.5916 35.0028 26.1433 34.596 26.5501C34.1892 26.9569 33.6375 27.1854 33.0622 27.1854C32.4869 27.1854 31.9352 26.9569 31.5284 26.5501C31.1216 26.1433 30.8931 25.5916 30.8931 25.0163V22.8472Z" fill="url(#paint3_linear_1015_67905)"/>
<path d="M37.4007 18.0258C37.4007 15.6298 35.4584 13.6875 33.0624 13.6875C30.6664 13.6875 28.7241 15.6298 28.7241 18.0258V20.4359C28.7241 22.8319 30.6664 24.7742 33.0624 24.7742C35.4584 24.7742 37.4007 22.8319 37.4007 20.4359V18.0258Z" fill="url(#paint4_linear_1015_67905)"/>
<path d="M37.8828 17.7827C37.8828 16.5043 37.375 15.2782 36.471 14.3742C35.567 13.4703 34.3409 12.9624 33.0625 12.9624C31.7841 12.9624 30.558 13.4703 29.654 14.3742C28.75 15.2782 28.2422 16.5043 28.2422 17.7827L28.7242 19.4698L29.4473 18.0237C33.0625 18.0237 34.5086 16.5776 34.5086 16.5776C34.7082 16.9903 35.0147 17.342 35.3961 17.5963C35.7775 17.8506 36.22 17.9981 36.6777 18.0237L37.4008 19.4698L37.8828 17.7827Z" fill="url(#paint5_linear_1015_67905)"/>
<path d="M38.8478 20.1951C38.8478 19.3965 38.2003 18.749 37.4017 18.749C36.603 18.749 35.9556 19.3965 35.9556 20.1951C35.9556 20.9938 36.603 21.6412 37.4017 21.6412C38.2003 21.6412 38.8478 20.9938 38.8478 20.1951Z" fill="url(#paint6_linear_1015_67905)"/>
<path d="M30.17 20.1951C30.17 19.3965 29.5226 18.749 28.7239 18.749C27.9253 18.749 27.2778 19.3965 27.2778 20.1951C27.2778 20.9938 27.9253 21.6412 28.7239 21.6412C29.5226 21.6412 30.17 20.9938 30.17 20.1951Z" fill="url(#paint7_linear_1015_67905)"/>
<path d="M21.4939 36.1019H13.7814C13.0143 36.1019 12.2787 35.7972 11.7363 35.2548C11.1939 34.7124 10.8892 33.9768 10.8892 33.2097V29.5945C10.8892 28.2522 11.4224 26.9648 12.3716 26.0156C13.3208 25.0664 14.6081 24.5332 15.9505 24.5332H19.3247C20.6671 24.5332 21.9544 25.0664 22.9036 26.0156C23.8528 26.9648 24.3861 28.2522 24.3861 29.5945V33.2097C24.3861 33.9768 24.0813 34.7124 23.539 35.2548C22.9966 35.7972 22.2609 36.1019 21.4939 36.1019Z" fill="url(#paint8_linear_1015_67905)"/>
<path d="M19.5654 27.426H15.7092C15.4535 27.426 15.2083 27.3244 15.0275 27.1436C14.8467 26.9628 14.7451 26.7176 14.7451 26.4619V25.9799C14.7451 25.4685 14.9483 24.9781 15.3099 24.6165C15.6714 24.2549 16.1619 24.0518 16.6732 24.0518H18.6014C19.1127 24.0518 19.6032 24.2549 19.9648 24.6165C20.3264 24.9781 20.5295 25.4685 20.5295 25.9799V26.4619C20.5295 26.7176 20.4279 26.9628 20.2471 27.1436C20.0663 27.3244 19.8211 27.426 19.5654 27.426Z" fill="url(#paint9_linear_1015_67905)"/>
<path d="M15.4692 22.8472H19.8075V25.0163C19.8075 25.5916 19.579 26.1433 19.1722 26.5501C18.7654 26.9569 18.2137 27.1854 17.6384 27.1854C17.0631 27.1854 16.5114 26.9569 16.1046 26.5501C15.6978 26.1433 15.4692 25.5916 15.4692 25.0163V22.8472Z" fill="url(#paint10_linear_1015_67905)"/>
<path d="M21.9754 18.0258C21.9754 15.6298 20.0331 13.6875 17.6371 13.6875C15.2411 13.6875 13.2988 15.6298 13.2988 18.0258V20.4359C13.2988 22.8319 15.2411 24.7742 17.6371 24.7742C20.0331 24.7742 21.9754 22.8319 21.9754 20.4359V18.0258Z" fill="url(#paint11_linear_1015_67905)"/>
<path d="M13.2996 19.6256L14.0226 18.1795C14.4803 18.154 14.9229 18.0064 15.3043 17.7521C15.6857 17.4978 15.9921 17.1461 16.1918 16.7335C16.1918 16.7335 17.6379 18.1795 21.2531 18.1795L21.9761 19.6256C21.9761 19.6256 24.1713 16.9142 22.2215 14.2674C20.304 11.663 16.2178 11.3333 14.7457 13.1182C14.7457 13.1182 12.1504 12.8729 11.8535 16.0104C11.5811 18.89 13.2996 19.6256 13.2996 19.6256Z" fill="url(#paint12_linear_1015_67905)"/>
<path d="M14.7457 20.1951C14.7457 19.3965 14.0983 18.749 13.2996 18.749C12.501 18.749 11.8535 19.3965 11.8535 20.1951C11.8535 20.9938 12.501 21.6412 13.2996 21.6412C14.0983 21.6412 14.7457 20.9938 14.7457 20.1951Z" fill="url(#paint13_linear_1015_67905)"/>
<path d="M23.4225 19.8343C23.4225 19.0356 22.775 18.3882 21.9764 18.3882C21.1777 18.3882 20.5303 19.0356 20.5303 19.8343C20.5303 20.6329 21.1777 21.2804 21.9764 21.2804C22.775 21.2804 23.4225 20.6329 23.4225 19.8343Z" fill="url(#paint14_linear_1015_67905)"/>
<path d="M29.3732 38.0294H21.3272C21.0009 38.0295 20.6778 37.9653 20.3764 37.8405C20.0749 37.7156 19.801 37.5326 19.5703 37.3019C19.3396 37.0712 19.1566 36.7973 19.0318 36.4959C18.9069 36.1944 18.8427 35.8713 18.8428 35.5451V34.3067C18.8427 33.7195 18.9583 33.138 19.183 32.5954C19.4077 32.0528 19.7371 31.5598 20.1524 31.1446C20.5677 30.7293 21.0606 30.3999 21.6032 30.1752C22.1458 29.9505 22.7273 29.8349 23.3146 29.835H27.3858C27.9731 29.8349 28.5546 29.9505 29.0972 30.1752C29.6398 30.3999 30.1328 30.7293 30.548 31.1446C30.9633 31.5598 31.2927 32.0528 31.5174 32.5954C31.7421 33.138 31.8577 33.7195 31.8576 34.3067V35.5451C31.8577 35.8713 31.7935 36.1944 31.6687 36.4959C31.5438 36.7973 31.3608 37.0712 31.1301 37.3019C30.8994 37.5326 30.6255 37.7156 30.3241 37.8405C30.0226 37.9653 29.6995 38.0295 29.3732 38.0294Z" fill="url(#paint15_linear_1015_67905)"/>
<path d="M27.3858 29.835H23.3146C23.027 29.8356 22.7402 29.8637 22.458 29.9188V30.317C22.458 31.084 22.7627 31.8197 23.3051 32.3621C23.8475 32.9045 24.5831 33.2092 25.3502 33.2092C26.1173 33.2092 26.8529 32.9045 27.3953 32.3621C27.9377 31.8197 28.2424 31.084 28.2424 30.317V29.9188C27.9602 29.8637 27.6734 29.8356 27.3858 29.835Z" fill="url(#paint16_linear_1015_67905)"/>
<path d="M23.4219 28.3882H27.2781V30.3163C27.2781 30.8277 27.075 31.3181 26.7134 31.6797C26.3518 32.0413 25.8614 32.2444 25.35 32.2444C24.8386 32.2444 24.3482 32.0413 23.9866 31.6797C23.625 31.3181 23.4219 30.8277 23.4219 30.3163V28.3882Z" fill="url(#paint17_linear_1015_67905)"/>
<path d="M25.3798 20.1953H25.321C23.2075 20.1953 21.4941 21.9086 21.4941 24.0221V26.0091C21.4941 28.1226 23.2075 29.8359 25.321 29.8359H25.3798C27.4933 29.8359 29.2067 28.1226 29.2067 26.0091V24.0221C29.2067 21.9086 27.4933 20.1953 25.3798 20.1953Z" fill="url(#paint18_linear_1015_67905)"/>
<path d="M21.4351 25.6315L22.0877 24.3262C22.5008 24.3031 22.9002 24.1699 23.2445 23.9404C23.5887 23.7108 23.8652 23.3933 24.0453 23.0208C24.0453 23.0208 25.3506 24.3262 28.6135 24.3262L29.2662 25.6315C29.2662 25.6315 31.2473 23.1842 29.4874 20.7953C27.7569 18.4454 24.0689 18.147 22.739 19.758C22.739 19.758 20.3968 19.5367 20.1288 22.3687C19.8839 24.9673 21.4351 25.6315 21.4351 25.6315Z" fill="url(#paint19_linear_1015_67905)"/>
<path d="M30.4111 25.9775C30.4111 25.312 29.8716 24.7725 29.2061 24.7725C28.5405 24.7725 28.001 25.312 28.001 25.9775C28.001 26.6431 28.5405 27.1826 29.2061 27.1826C29.8716 27.1826 30.4111 26.6431 30.4111 25.9775Z" fill="url(#paint20_linear_1015_67905)"/>
<path d="M22.6987 25.9775C22.6987 25.312 22.1592 24.7725 21.4937 24.7725C20.8281 24.7725 20.2886 25.312 20.2886 25.9775C20.2886 26.6431 20.8281 27.1826 21.4937 27.1826C22.1592 27.1826 22.6987 26.6431 22.6987 25.9775Z" fill="url(#paint21_linear_1015_67905)"/>
</g>
<defs>
<filter id="filter0_f_1015_67905" x="1.95355" y="1.53411" width="24.4039" height="21.2999" filterUnits="userSpaceOnUse" color-interpolation-filters="sRGB">
<feFlood flood-opacity="0" result="BackgroundImageFix"/>
<feBlend mode="normal" in="SourceGraphic" in2="BackgroundImageFix" result="shape"/>
<feGaussianBlur stdDeviation="2.77884" result="effect1_foregroundBlur_1015_67905"/>
</filter>
<filter id="filter1_d_1015_67905" x="8.08919" y="10.6" width="34.5218" height="31.6292" filterUnits="userSpaceOnUse" color-interpolation-filters="sRGB">
<feFlood flood-opacity="0" result="BackgroundImageFix"/>
<feColorMatrix in="SourceAlpha" type="matrix" values="0 0 0 0 0 0 0 0 0 0 0 0 0 0 0 0 0 0 127 0" result="hardAlpha"/>
<feOffset dy="1.39999"/>
<feGaussianBlur stdDeviation="1.39999"/>
<feComposite in2="hardAlpha" operator="out"/>
<feColorMatrix type="matrix" values="0 0 0 0 0 0 0 0 0 0 0 0 0 0 0 0 0 0 0.35 0"/>
<feBlend mode="normal" in2="BackgroundImageFix" result="effect1_dropShadow_1015_67905"/>
<feBlend mode="normal" in="SourceGraphic" in2="effect1_dropShadow_1015_67905" result="shape"/>
</filter>
<linearGradient id="paint0_linear_1015_67905" x1="33.0622" y1="12.1398" x2="33.0622" y2="27.0234" gradientUnits="userSpaceOnUse">
<stop stop-color="#8A552E"/>
<stop offset="1" stop-color="#543426"/>
</linearGradient>
<linearGradient id="paint1_linear_1015_67905" x1="33.0624" y1="25.8501" x2="33.0624" y2="36.3227" gradientUnits="userSpaceOnUse">
<stop stop-color="#FED200"/>
<stop offset="1" stop-color="#F59815"/>
</linearGradient>
<linearGradient id="paint2_linear_1015_67905" x1="33.062" y1="22.3641" x2="33.062" y2="31.9815" gradientUnits="userSpaceOnUse">
<stop stop-color="#FED200"/>
<stop offset="1" stop-color="#F59815"/>
</linearGradient>
<linearGradient id="paint3_linear_1015_67905" x1="33.0622" y1="22.5975" x2="33.0622" y2="26.9743" gradientUnits="userSpaceOnUse">
<stop stop-color="#F1D2BD"/>
<stop offset="1" stop-color="#FEB592"/>
</linearGradient>
<linearGradient id="paint4_linear_1015_67905" x1="33.0624" y1="17.9872" x2="33.0624" y2="24.6879" gradientUnits="userSpaceOnUse">
<stop stop-color="#F1D2BD"/>
<stop offset="1" stop-color="#FEB592"/>
</linearGradient>
<linearGradient id="paint5_linear_1015_67905" x1="33.0625" y1="12.1362" x2="33.0625" y2="27.0198" gradientUnits="userSpaceOnUse">
<stop stop-color="#8A552E"/>
<stop offset="1" stop-color="#543426"/>
</linearGradient>
<linearGradient id="paint6_linear_1015_67905" x1="37.4017" y1="17.9874" x2="37.4017" y2="24.6881" gradientUnits="userSpaceOnUse">
<stop stop-color="#F1D2BD"/>
<stop offset="1" stop-color="#FEB592"/>
</linearGradient>
<linearGradient id="paint7_linear_1015_67905" x1="28.7239" y1="17.9874" x2="28.7239" y2="24.6881" gradientUnits="userSpaceOnUse">
<stop stop-color="#F1D2BD"/>
<stop offset="1" stop-color="#FEB592"/>
</linearGradient>
<linearGradient id="paint8_linear_1015_67905" x1="17.6376" y1="23.2163" x2="17.6376" y2="35.6122" gradientUnits="userSpaceOnUse">
<stop stop-color="#6FC6FC"/>
<stop offset="1" stop-color="#50A7F6"/>
</linearGradient>
<linearGradient id="paint9_linear_1015_67905" x1="17.6373" y1="24.3014" x2="17.6373" y2="27.0138" gradientUnits="userSpaceOnUse">
<stop stop-color="white"/>
<stop offset="1" stop-color="#EDF1F2"/>
</linearGradient>
<linearGradient id="paint10_linear_1015_67905" x1="17.6384" y1="23.3465" x2="17.6384" y2="26.7743" gradientUnits="userSpaceOnUse">
<stop stop-color="#F1D2BD"/>
<stop offset="1" stop-color="#FEB592"/>
</linearGradient>
<linearGradient id="paint11_linear_1015_67905" x1="17.6371" y1="18.4519" x2="17.6371" y2="24.8055" gradientUnits="userSpaceOnUse">
<stop stop-color="#F1D2BD"/>
<stop offset="1" stop-color="#FEB592"/>
</linearGradient>
<linearGradient id="paint12_linear_1015_67905" x1="17.4263" y1="12.4082" x2="17.4263" y2="18.1492" gradientUnits="userSpaceOnUse">
<stop stop-color="#3E4154"/>
<stop offset="1" stop-color="#1B2129"/>
</linearGradient>
<linearGradient id="paint13_linear_1015_67905" x1="13.2996" y1="18.4521" x2="13.2996" y2="24.8057" gradientUnits="userSpaceOnUse">
<stop stop-color="#F1D2BD"/>
<stop offset="1" stop-color="#FEB592"/>
</linearGradient>
<linearGradient id="paint14_linear_1015_67905" x1="21.9764" y1="18.4528" x2="21.9764" y2="24.8064" gradientUnits="userSpaceOnUse">
<stop stop-color="#F1D2BD"/>
<stop offset="1" stop-color="#FEB592"/>
</linearGradient>
<linearGradient id="paint15_linear_1015_67905" x1="25.3502" y1="26.7794" x2="25.3502" y2="37.8583" gradientUnits="userSpaceOnUse">
<stop stop-color="#4793EB"/>
<stop offset="1" stop-color="#2367EC"/>
</linearGradient>
<linearGradient id="paint16_linear_1015_67905" x1="25.3502" y1="26.4694" x2="25.3502" y2="33.2906" gradientUnits="userSpaceOnUse">
<stop stop-color="#4793EB"/>
<stop offset="1" stop-color="#2367EC"/>
</linearGradient>
<linearGradient id="paint17_linear_1015_67905" x1="25.35" y1="28.6764" x2="25.35" y2="32.1249" gradientUnits="userSpaceOnUse">
<stop stop-color="#F1D2BD"/>
<stop offset="1" stop-color="#FEB592"/>
</linearGradient>
<linearGradient id="paint18_linear_1015_67905" x1="25.3504" y1="24.456" x2="25.3504" y2="29.765" gradientUnits="userSpaceOnUse">
<stop stop-color="#F1D2BD"/>
<stop offset="1" stop-color="#FEB592"/>
</linearGradient>
<linearGradient id="paint19_linear_1015_67905" x1="25.1597" y1="19.1174" x2="25.1597" y2="24.2987" gradientUnits="userSpaceOnUse">
<stop stop-color="#3E4154"/>
<stop offset="1" stop-color="#1B2129"/>
</linearGradient>
<linearGradient id="paint20_linear_1015_67905" x1="29.2061" y1="24.4538" x2="29.2061" y2="29.7629" gradientUnits="userSpaceOnUse">
<stop stop-color="#F1D2BD"/>
<stop offset="1" stop-color="#FEB592"/>
</linearGradient>
<linearGradient id="paint21_linear_1015_67905" x1="21.4937" y1="24.4538" x2="21.4937" y2="29.7629" gradientUnits="userSpaceOnUse">
<stop stop-color="#F1D2BD"/>
<stop offset="1" stop-color="#FEB592"/>
</linearGradient>
</defs>
</svg>
