<svg width="361" height="252" viewBox="0 0 361 252" fill="none" xmlns="http://www.w3.org/2000/svg">
    <path fill-rule="evenodd" clip-rule="evenodd"
        d="M347.905 94.5879C347.942 95.1092 347.453 95.6304 346.889 95.662C346.294 95.6989 345.698 95.1882 345.682 94.6248C345.666 94.0983 346.161 93.6507 346.767 93.635C347.347 93.6244 347.868 94.0614 347.905 94.5827V94.5879Z"
        fill="#F0F0F0" />
    <path fill-rule="evenodd" clip-rule="evenodd"
        d="M4.33723 2.2851C4.33723 2.76949 3.93304 3.16438 3.45971 3.14858C2.97043 3.12752 2.53433 2.63787 2.57156 2.12715C2.60347 1.63223 2.91725 1.38477 3.37994 1.33738C3.8639 1.28999 4.33723 1.78492 4.33723 2.2851Z"
        fill="#E7EBEB" />
    <path fill-rule="evenodd" clip-rule="evenodd"
        d="M263.072 0C263.567 0.0263256 263.981 0.463331 263.971 0.905601C263.96 1.3584 263.498 1.73749 263.029 1.67957C262.567 1.62166 262.168 1.15833 262.242 0.726587C262.327 0.263256 262.631 0.0157954 263.072 0Z"
        fill="#E5E7E7" />
    <path fill-rule="evenodd" clip-rule="evenodd"
        d="M38.2522 87.7484C38.6776 87.8221 39.0127 88.0222 39.0552 88.5277C39.0925 89.0015 38.7202 89.4227 38.2362 89.4596C37.7416 89.5017 37.2949 89.1068 37.3162 88.6488C37.3321 88.2276 37.8054 87.7537 38.2522 87.7432V87.7484Z"
        fill="#E6EAEA" />
    <path fill-rule="evenodd" clip-rule="evenodd"
        d="M128.03 83.3995C127.626 83.3679 127.381 83.131 127.392 82.6835C127.403 82.2254 127.594 81.8674 128.11 81.8253C128.562 81.7884 128.817 82.0464 128.881 82.4676C128.945 82.9204 128.519 83.389 128.03 83.3943V83.3995Z"
        fill="#E8ECEC" />
    <path fill-rule="evenodd" clip-rule="evenodd"
        d="M206.837 132.544C206.789 132.881 206.544 133.155 206.108 133.134C205.661 133.113 205.438 132.818 205.459 132.376C205.486 131.912 205.704 131.57 206.204 131.533C206.571 131.502 206.89 131.991 206.837 132.544Z"
        fill="#F0EFEF" />
    <path fill-rule="evenodd" clip-rule="evenodd"
        d="M147.176 17.1539C146.777 17.096 146.522 16.8538 146.581 16.4799C146.639 16.0851 146.719 15.6112 147.277 15.5849C147.703 15.5638 147.889 15.8376 147.857 16.2272C147.82 16.659 147.687 17.0486 147.182 17.1539H147.176Z"
        fill="#E5E5E5" />
    <path fill-rule="evenodd" clip-rule="evenodd"
        d="M7.38958 72.4275C7.34703 72.8122 7.15557 73.0651 6.74606 73.0651C6.40569 73.0651 6.18232 72.8701 6.15573 72.5277C6.11851 72.1325 6.3206 71.8585 6.71416 71.8216C7.11835 71.7794 7.31512 72.0587 7.38958 72.4328V72.4275Z"
        fill="#D4DCDC" />
    <path fill-rule="evenodd" clip-rule="evenodd"
        d="M308.688 21.0243C308.635 21.3931 308.459 21.6776 308.044 21.646C307.709 21.6197 307.497 21.3667 307.491 21.0506C307.486 20.6607 307.715 20.4236 308.135 20.4447C308.491 20.4605 308.645 20.6976 308.683 21.0243H308.688Z"
        fill="#DFDFDF" />
    <path fill-rule="evenodd" clip-rule="evenodd"
        d="M189.286 251.81C189.286 247.756 189.626 243.744 190.466 239.768C191.674 234.056 194.45 229.238 198.736 225.279C204.283 220.15 210.729 216.628 218.137 214.885C218.823 214.722 219.201 214.517 219.265 213.701C219.451 211.431 219.93 209.21 220.664 207.046C222.365 202.028 225.317 197.89 229.609 194.741C235.034 190.761 241.166 188.344 247.771 187.143C253.919 186.027 260.046 186.322 266.108 187.838C267.225 188.118 268.31 188.486 269.363 188.934C270.374 189.365 270.193 189.46 271.049 188.549C273.517 185.922 276.187 183.516 279.112 181.394C284.02 177.84 289.397 175.334 295.439 174.349C299.018 173.765 302.624 173.575 306.24 173.939C306.958 174.012 307.389 173.833 307.788 173.191C313.532 163.866 322.036 158.517 332.709 156.311C335.677 155.7 338.655 155.311 341.697 155.453C343.708 155.547 345.665 155.9 347.574 156.511C348.659 156.858 348.664 156.858 349.446 155.932C352.579 152.199 356.424 149.429 360.966 147.608C364.742 146.097 368.682 145.296 372.719 144.896C375.176 144.654 377.644 144.633 380.111 144.696C380.404 144.701 380.702 144.664 380.994 144.649V251.804H189.28L189.286 251.81Z"
        fill="#DEF5FE" />
    <path fill-rule="evenodd" clip-rule="evenodd"
        d="M-18 195.199C-15.9046 193.999 -13.7932 192.819 -11.4319 192.188C-5.53391 190.608 0.332174 190.55 6.10253 192.73C6.79391 192.993 7.08109 192.746 7.48528 192.314C10.288 189.286 13.5428 186.864 17.4837 185.522C23.871 183.342 30.1838 183.532 36.3105 186.522C36.9433 186.833 37.2943 186.88 37.789 186.275C39.2408 184.495 41.0278 183.053 42.9158 181.747C46.9471 178.962 51.1857 176.582 56.0094 175.392C67.5555 172.533 79.5429 177.056 86.2014 186.801C86.6109 187.402 86.9938 187.591 87.7437 187.502C91.2113 187.091 94.6256 187.533 97.9815 188.381C106.597 190.561 114.17 194.673 120.68 200.659C123.488 203.244 125.525 206.398 126.982 209.91C127.2 210.431 127.424 210.831 128.056 211.016C134.683 212.953 140.326 216.56 145.357 221.151C154.228 229.243 159.684 239.21 161.897 250.936C161.95 251.22 161.95 251.52 161.971 251.815H-18V195.204V195.199Z"
        fill="#DEF5FE" />
    <g opacity="0.4">
        <path fill-rule="evenodd" clip-rule="evenodd"
            d="M189.286 251.81C189.286 247.756 189.626 243.744 190.466 239.768C191.674 234.056 194.45 229.238 198.736 225.279C204.283 220.15 210.729 216.628 218.137 214.885C218.823 214.722 219.201 214.517 219.265 213.701C219.451 211.431 219.93 209.21 220.664 207.046C222.365 202.028 225.317 197.89 229.609 194.741C235.034 190.761 241.166 188.344 247.771 187.143C253.919 186.027 260.046 186.322 266.108 187.838C267.225 188.118 268.31 188.486 269.363 188.934C270.374 189.365 270.193 189.46 271.049 188.549C273.517 185.922 276.187 183.516 279.112 181.394C284.02 177.84 289.397 175.334 295.439 174.349C299.018 173.765 302.624 173.575 306.24 173.939C306.958 174.012 307.389 173.833 307.788 173.191C313.532 163.866 322.036 158.517 332.709 156.311C335.677 155.7 338.655 155.311 341.697 155.453C343.708 155.547 345.665 155.9 347.574 156.511C348.659 156.858 348.664 156.858 349.446 155.932C352.579 152.199 356.424 149.429 360.966 147.608C364.742 146.097 368.682 145.296 372.719 144.896C375.176 144.654 377.644 144.633 380.111 144.696C380.404 144.701 380.702 144.664 380.994 144.649V251.804H189.28L189.286 251.81Z"
            fill="url(#paint0_linear_104_5651)" />
        <path fill-rule="evenodd" clip-rule="evenodd"
            d="M-18 195.199C-15.9046 193.999 -13.7932 192.819 -11.4319 192.188C-5.53391 190.608 0.332174 190.55 6.10253 192.73C6.79391 192.993 7.08109 192.746 7.48528 192.314C10.288 189.286 13.5428 186.864 17.4837 185.522C23.871 183.342 30.1838 183.532 36.3105 186.522C36.9433 186.833 37.2943 186.88 37.789 186.275C39.2408 184.495 41.0278 183.053 42.9158 181.747C46.9471 178.962 51.1857 176.582 56.0094 175.392C67.5555 172.533 79.5429 177.056 86.2014 186.801C86.6109 187.402 86.9938 187.591 87.7437 187.502C91.2113 187.091 94.6256 187.533 97.9815 188.381C106.597 190.561 114.17 194.673 120.68 200.659C123.488 203.244 125.525 206.398 126.982 209.91C127.2 210.431 127.424 210.831 128.056 211.016C134.683 212.953 140.326 216.56 145.357 221.151C154.228 229.243 159.684 239.21 161.897 250.936C161.95 251.22 161.95 251.52 161.971 251.815H-18V195.204V195.199Z"
            fill="url(#paint1_linear_104_5651)" />
    </g>
    <path fill-rule="evenodd" clip-rule="evenodd"
        d="M-18 182.237C-15.1707 181.073 -12.2881 180.068 -9.23544 179.636C-1.35373 178.525 6.27803 179.352 13.5801 182.606C18.4676 184.785 22.8924 187.649 26.7428 191.367C28.9659 193.51 31.1996 195.647 33.279 197.927C33.7577 198.448 34.1459 198.511 34.816 198.29C41.5383 196.068 48.4096 195.542 55.451 196.311C65.726 197.432 73.847 202.397 80.681 209.758C82.3244 211.527 83.6859 213.517 84.8878 215.613C85.542 216.755 85.542 216.745 86.8556 216.513C92.8067 215.455 98.7101 215.623 104.534 217.287C111.049 219.156 116.819 222.41 121.903 226.822C129.859 233.73 135.709 242.086 139.251 251.989H-18V182.237Z"
        fill="#DDF5FE" />
    <path fill-rule="evenodd" clip-rule="evenodd"
        d="M243.916 251.989C243.927 251.863 243.911 251.726 243.959 251.616C246.134 246.877 248.718 242.396 252.473 238.679C256.504 234.678 261.376 232.603 267.088 232.482C268.577 232.451 270.071 232.44 271.545 232.645C272.204 232.74 272.523 232.572 272.81 231.966C275.64 226.085 279.559 220.978 284.287 216.471C288.287 212.664 292.765 209.61 298.115 207.926C302.736 206.467 307.464 206.293 312.246 206.609C314.495 206.757 316.739 206.962 318.947 207.436C319.494 207.552 319.813 207.362 320.154 206.988C321.632 205.356 323.201 203.819 324.903 202.413C327.328 200.396 329.966 198.717 332.896 197.522C333.567 197.248 334.008 196.864 334.348 196.226C335.588 193.894 337.231 191.862 339.305 190.198C342.969 187.255 347.16 186.307 351.75 187.144C352.627 187.302 353.175 187.091 353.813 186.597C359.062 182.537 364.934 179.805 371.491 178.583C374.629 177.999 377.799 177.709 381 177.951V252H243.916V251.989Z"
        fill="#DDF5FE" />
    <g opacity="0.3">
        <path fill-rule="evenodd" clip-rule="evenodd"
            d="M-18 182.237C-15.1707 181.073 -12.2881 180.068 -9.23544 179.636C-1.35373 178.525 6.27803 179.352 13.5801 182.606C18.4676 184.785 22.8924 187.649 26.7428 191.367C28.9659 193.51 31.1996 195.647 33.279 197.927C33.7577 198.448 34.1459 198.511 34.816 198.29C41.5383 196.068 48.4096 195.542 55.451 196.311C65.726 197.432 73.847 202.397 80.681 209.758C82.3244 211.527 83.6859 213.517 84.8878 215.613C85.542 216.755 85.542 216.745 86.8556 216.513C92.8067 215.455 98.7101 215.623 104.534 217.287C111.049 219.156 116.819 222.41 121.903 226.822C129.859 233.73 135.709 242.086 139.251 251.989H-18V182.237Z"
            fill="url(#paint2_linear_104_5651)" />
        <path fill-rule="evenodd" clip-rule="evenodd"
            d="M243.916 251.989C243.927 251.863 243.911 251.726 243.959 251.616C246.134 246.877 248.718 242.396 252.473 238.679C256.504 234.678 261.376 232.603 267.088 232.482C268.577 232.451 270.071 232.44 271.545 232.645C272.204 232.74 272.523 232.572 272.81 231.966C275.64 226.085 279.559 220.978 284.287 216.471C288.287 212.664 292.765 209.61 298.115 207.926C302.736 206.467 307.464 206.293 312.246 206.609C314.495 206.757 316.739 206.962 318.947 207.436C319.494 207.552 319.813 207.362 320.154 206.988C321.632 205.356 323.201 203.819 324.903 202.413C327.328 200.396 329.966 198.717 332.896 197.522C333.567 197.248 334.008 196.864 334.348 196.226C335.588 193.894 337.231 191.862 339.305 190.198C342.969 187.255 347.16 186.307 351.75 187.144C352.627 187.302 353.175 187.091 353.813 186.597C359.062 182.537 364.934 179.805 371.491 178.583C374.629 177.999 377.799 177.709 381 177.951V252H243.916V251.989Z"
            fill="url(#paint3_linear_104_5651)" />
    </g>
    <path fill-rule="evenodd" clip-rule="evenodd"
        d="M84.8242 251.736C84.8561 250.025 85.3561 248.408 85.9836 246.845C88.7279 240.042 93.4984 234.988 99.8803 231.402C104.954 228.554 110.442 227.016 116.266 226.653C118.165 226.532 118.165 226.542 118.824 224.694C120.441 220.15 122.877 216.07 126.052 212.437C132.099 205.524 139.369 200.232 148.123 197.258C160.514 193.04 172.262 194.946 183.335 201.622C184.276 202.191 185.207 202.802 186.053 203.502C186.723 204.055 187.324 204.108 188.137 203.865C193.307 202.333 198.583 201.528 203.991 201.701C214.399 202.033 222.744 206.308 228.955 214.585C229.535 215.359 230.035 215.607 231.04 215.486C237.513 214.712 243.974 214.748 250.245 216.749C258.972 219.534 265.423 225.179 270.167 232.839C270.231 232.95 270.311 233.05 270.358 233.166C270.635 233.85 271.044 234.05 271.842 233.882C273.884 233.455 275.959 233.282 278.054 233.276C285.399 233.276 290.727 236.546 294.163 242.922C295.493 245.391 296.354 248.029 296.955 250.757C297.03 251.083 297.125 251.404 297.216 251.731H84.8242V251.736Z"
        fill="#DEF5FE" />
    <g opacity="0.3">
        <path fill-rule="evenodd" clip-rule="evenodd"
            d="M84.8242 251.736C84.8561 250.025 85.3561 248.408 85.9836 246.845C88.7279 240.042 93.4984 234.988 99.8803 231.402C104.954 228.554 110.442 227.016 116.266 226.653C118.165 226.532 118.165 226.542 118.824 224.694C120.441 220.15 122.877 216.07 126.052 212.437C132.099 205.524 139.369 200.232 148.123 197.258C160.514 193.04 172.262 194.946 183.335 201.622C184.276 202.191 185.207 202.802 186.053 203.502C186.723 204.055 187.324 204.108 188.137 203.865C193.307 202.333 198.583 201.528 203.991 201.701C214.399 202.033 222.744 206.308 228.955 214.585C229.535 215.359 230.035 215.607 231.04 215.486C237.513 214.712 243.974 214.748 250.245 216.749C258.972 219.534 265.423 225.179 270.167 232.839C270.231 232.95 270.311 233.05 270.358 233.166C270.635 233.85 271.044 234.05 271.842 233.882C273.884 233.455 275.959 233.282 278.054 233.276C285.399 233.276 290.727 236.546 294.163 242.922C295.493 245.391 296.354 248.029 296.955 250.757C297.03 251.083 297.125 251.404 297.216 251.731H84.8242V251.736Z"
            fill="url(#paint4_linear_104_5651)" />
    </g>
    <g opacity="0.7">
        <path fill-rule="evenodd" clip-rule="evenodd"
            d="M100.438 33.9075C100.72 33.8285 100.843 34.0655 100.991 34.2076C102.204 35.3818 103.48 36.5032 104.315 38.0038C104.619 38.5145 104.204 38.7725 103.911 39.0305C100.678 41.8263 96.9442 43.1636 92.6152 42.8793C89.121 42.6476 85.8981 41.6999 83.0635 39.6202C82.4093 39.1411 81.7605 39.0937 81.0425 39.4359C79.5694 40.1467 78.0324 40.689 76.4741 41.1734C71.7461 42.6318 67.3107 42.1264 63.2954 39.1568C62.354 38.4619 61.6042 38.4303 60.6309 39.0568C58.5568 40.3889 56.3444 41.4472 54.0203 42.3212C50.6697 43.5795 47.2873 43.985 43.74 43.4374C41.0277 43.0162 38.3153 42.6845 35.97 41.1049C35.6562 40.8943 35.2626 40.8101 34.8797 40.847C32.9119 41.0312 30.9708 41.2682 29.1998 42.3001C26.0035 44.164 22.4987 45.117 18.8291 45.4434C17.6484 45.5487 16.4678 45.3381 15.4786 44.601C15.0691 44.2956 14.5691 43.9955 14.7287 43.3374C15.5477 42.3633 16.5582 41.6473 17.6857 41.0681C17.8718 41.1102 18.0526 41.1155 18.2388 41.0312C21.5946 39.5043 24.9983 38.1459 28.7158 37.7405C29.1306 37.6931 29.5401 37.6036 29.9284 37.4352C30.0667 37.3772 30.2102 37.3193 30.3166 37.1035C30.0666 36.7928 29.5082 36.9981 29.2902 36.6085C29.5508 36.44 29.8646 36.3927 30.1464 36.4243C31.1197 36.5453 31.7579 36.1979 32.0185 35.2396C34.6351 32.0068 38.3366 30.3904 42.0275 28.8162C44.8462 27.6157 47.7659 26.6469 50.6963 25.7255C52.9194 25.0253 55.2488 25.0253 57.541 24.7515C63.3007 24.067 68.5233 25.9888 73.7777 27.8316C74.2404 28.2738 74.6925 27.7157 75.1499 27.8158C78.4951 28.4897 81.9413 28.3265 85.2759 29.0847C86.2385 29.3058 87.2064 29.5006 88.1318 29.8271C90.5623 30.68 92.9874 31.5277 95.5243 32.0384C97.2687 32.3912 98.8961 33.0546 100.444 33.9128L100.438 33.9075Z"
            fill="#E9FBFF" />
        <path fill-rule="evenodd" clip-rule="evenodd"
            d="M14.7228 43.332C15.7759 45.001 17.398 45.1906 19.1743 45.0537C20.8442 44.9273 22.4503 44.5429 24.0458 44.0743C25.8328 43.5531 27.5453 42.8897 29.1514 41.9262C30.3906 41.1785 31.7893 40.91 33.2146 40.631C34.8792 40.3098 36.2088 40.7257 37.5862 41.5681C38.7775 42.2947 40.1603 42.5948 41.5803 42.7317C43.0056 42.8686 44.4096 43.1898 45.8296 43.3425C46.8401 43.4478 47.8559 43.3214 48.877 43.2161C50.3289 43.0687 51.6957 42.7317 53.0625 42.2842C55.7748 41.3891 58.3116 40.1518 60.7049 38.6197C60.9282 38.4775 61.1675 38.367 61.3962 38.2248C61.827 37.9615 62.2153 37.9405 62.6354 38.2932C63.0928 38.6776 63.614 38.9935 64.1086 39.3463C66.3103 40.9153 68.8206 41.4576 71.4797 41.5945C74.4208 41.7419 77.0427 40.6415 79.6965 39.6569C80.473 39.3673 81.2122 38.804 81.9993 38.746C82.813 38.6829 83.4353 39.4779 84.116 39.9307C85.9774 41.1627 88.0462 41.8209 90.2161 42.2737C91.3702 42.5159 92.5402 42.4948 93.6996 42.6633C94.6835 42.8055 95.7259 42.5264 96.7097 42.2684C98.7679 41.7314 100.815 41.1311 102.496 39.7622C103.145 39.2304 103.969 38.8566 104.31 38.0037C104.783 38.5196 104.958 39.1778 105.203 39.8043C105.352 40.1887 105.41 40.6046 105.687 40.9363C108.559 42.2473 109.522 45.5486 107.841 48.2391C106.644 50.1608 104.98 51.2876 102.661 51.4455C100.204 51.614 97.7415 51.9404 95.2898 51.6667C91.5882 51.2507 88.0835 50.1766 85.0361 47.9442C84.249 47.3703 83.6214 47.3229 82.8183 47.96C76.9044 52.6354 68.0973 51.4034 62.8747 48.1022C62.7471 48.0232 62.5929 47.9547 62.5078 47.8389C61.4388 46.4279 60.3432 46.7754 58.9924 47.5493C53.9028 50.4767 48.3611 51.1981 42.5961 50.482C39.9848 50.1608 37.6447 49.0867 35.4802 47.6336C34.1293 46.728 34.0974 46.7069 32.7732 47.6336C29.279 50.0661 25.4658 51.4087 21.1367 51.1875C17.8287 51.019 15.2334 49.6606 13.4358 46.8807C13.0635 46.3015 12.7444 45.696 13.1593 44.9957C13.5847 44.3534 14.1006 43.7953 14.7282 43.3425L14.7228 43.332Z"
            fill="#B8EFFF" />
        <path fill-rule="evenodd" clip-rule="evenodd"
            d="M13.1544 44.9852C13.0853 46.1066 13.7767 46.8964 14.4149 47.6704C16.239 49.8817 18.6642 50.7715 21.5095 50.8558C25.4982 50.9769 29.0295 49.7554 32.279 47.5598C32.8959 47.1439 33.4809 46.391 34.1883 46.4699C34.8265 46.5384 35.3955 47.1913 36.0018 47.5756C38.1664 48.9445 40.4692 49.9028 43.0592 50.1976C45.1067 50.4293 47.1224 50.3977 49.1646 50.2082C51.1377 50.0239 53.047 49.6553 54.9243 49.0499C56.6315 48.5023 58.1791 47.623 59.748 46.7858C60.0139 46.6437 60.2745 46.491 60.5351 46.333C60.8649 46.133 61.1521 46.1224 61.4446 46.4278C63.5506 48.6181 66.2576 49.6764 69.1561 50.224C72.6449 50.8874 76.1603 51.0874 79.5108 49.5026C80.8404 48.8708 82.1593 48.1864 83.2549 47.186C83.691 46.7911 84.0473 46.7964 84.4409 47.1175C84.8238 47.4282 85.2812 47.6388 85.6535 47.9442C87.7116 49.629 90.2431 50.2556 92.7108 50.8979C94.3914 51.3349 96.1571 51.814 97.96 51.3191C98.311 51.2243 98.7152 51.2717 99.0928 51.2981C100.539 51.3928 101.965 51.1928 103.395 51.0506C105.262 50.8663 107.379 48.9182 107.996 47.1439C108.852 44.6693 108.006 42.8581 106.038 41.3628C105.895 41.2522 105.794 41.0785 105.677 40.9363C108.517 40.8468 110.703 42.1262 112.537 44.1428C112.984 44.6324 113.224 45.2432 113.367 45.8539C113.851 47.9073 113.761 49.966 113.107 51.9773C112.67 53.3199 111.617 54.1096 110.41 54.7414C109.272 55.3364 108.028 55.468 106.778 55.5628C99.6512 56.0893 92.5141 56.2209 85.3769 56.2473C78.1227 56.2736 70.8686 56.2578 63.6144 56.4421C59.4342 56.5474 55.2594 56.3684 51.0845 56.2736C46.5267 56.1736 41.9743 56.4105 37.4218 56.6211C31.7685 56.8843 26.1098 57.0212 20.4511 57.0634C19.5045 57.0686 18.5525 56.9897 17.6058 56.9212C15.771 56.7843 14.1436 56.0841 12.6917 55.01C10.8144 53.6252 10.0964 51.4034 10.7825 49.1815C11.2664 47.623 12.0429 46.2119 13.1438 44.9904L13.1544 44.9852Z"
            fill="#9CDBF1" />
        <path fill-rule="evenodd" clip-rule="evenodd"
            d="M73.7723 27.8315C73.5596 28.0947 73.3203 28.0105 73.0543 27.9157C72.1609 27.6103 71.2514 27.3418 70.3633 27.0259C68.2626 26.2677 66.1033 25.736 63.9388 25.2042C63.5612 25.1094 63.1889 25.1199 62.8113 25.1147C62.205 25.0989 61.604 25.1568 61.0137 24.9462C60.8063 24.8725 60.5457 24.8514 60.3383 24.9093C58.7853 25.3516 57.1792 24.9988 55.5997 25.2832C54.4988 25.4832 53.3607 25.4832 52.2438 25.6991C50.526 26.0361 48.9093 26.6784 47.2659 27.2207C45.4736 27.8104 43.692 28.4528 41.9636 29.2057C39.4693 30.285 36.9963 31.4118 34.7839 33.0229C34.135 33.4967 33.6351 34.1128 33.0501 34.6445C32.747 34.9183 32.513 35.2974 32.0184 35.25C31.9971 34.6445 32.4172 34.2181 32.6619 33.7231C33.8213 31.3433 35.2732 29.1635 37.0973 27.2155C39.0385 25.1463 41.3679 23.7457 44.0749 22.9454C49.7974 21.2448 55.6316 20.8025 61.519 21.7713C65.2364 22.3821 68.8476 23.414 71.9003 25.7833C72.6501 26.3625 73.3894 26.9469 73.7776 27.8473L73.7723 27.8315Z"
            fill="#FAFEFF" />
        <path fill-rule="evenodd" clip-rule="evenodd"
            d="M100.438 33.9075C100.311 34.1076 100.141 34.097 99.9544 33.997C97.7792 32.8018 95.3647 32.328 92.9768 31.7909C91.5302 31.4645 90.1847 30.8748 88.7966 30.3904C87.0097 29.7638 85.1642 29.3584 83.3188 29.0267C82.1487 28.8161 80.9202 28.7529 79.7183 28.7424C78.3834 28.7319 77.107 28.3949 75.8093 28.2159C75.554 28.179 75.3094 28.0474 75.1445 27.8158C75.3413 27.6209 75.6498 27.7947 75.8466 27.6051C82.5263 25.7518 88.9455 26.1783 95.0084 29.7481C96.6092 30.6905 98.0717 31.812 99.5343 32.9492C99.8959 33.2283 100.034 33.6864 100.438 33.9075Z"
            fill="#F9FEFF" />
        <path fill-rule="evenodd" clip-rule="evenodd"
            d="M29.2852 36.6032C29.8117 36.6242 30.3382 36.64 30.8647 36.6663C30.9232 36.6663 30.9711 36.7559 31.0668 36.8401C30.8169 37.6246 30.1148 37.8089 29.4235 37.9458C28.5034 38.13 27.5833 38.3249 26.6526 38.388C25.6102 38.4618 24.6636 38.8356 23.7276 39.1989C21.9779 39.8781 20.1324 40.3309 18.4571 41.1996C18.1646 41.3523 17.8828 41.4102 17.6807 41.0575C20.9621 39.1146 24.3285 37.3613 28.163 36.719C28.5353 36.6558 28.9129 36.6348 29.2852 36.5979V36.6032Z"
            fill="#F6FCFE" />
        <path fill-rule="evenodd" clip-rule="evenodd" d="M75.8466 27.6052C75.6657 27.8486 75.4104 27.8592 75.1445 27.8169C75.3413 27.6211 75.5806 27.5735 75.8466 27.6052Z" fill="#CFF4FF" />
    </g>
    <g opacity="0.6">
        <path fill-rule="evenodd" clip-rule="evenodd"
            d="M170.847 82.9992C168.39 83.0308 166.241 83.8943 164.353 85.4107C163.705 85.9319 163.061 86.4848 162.705 87.2693C162.455 88.1801 162.955 88.8909 163.513 89.4332C165.204 91.0865 167.22 92.0184 169.677 91.6762C170.384 91.5761 171.039 91.3445 171.581 90.8653C172.118 90.3862 172.666 90.3388 173.24 90.8074C174.448 91.792 175.83 92.1395 177.394 92.1132C179.729 92.0763 182.047 92.071 184.281 91.2234C185.185 90.8811 185.994 90.3915 186.797 89.886C187.536 89.4227 188.163 89.4227 188.86 89.9913C190.402 91.2444 192.142 92.1237 194.131 92.4554C195.673 92.7134 197.205 92.6607 198.72 92.2553C199.667 92.0026 200.374 91.434 200.832 90.5863C201.14 90.0124 201.555 89.9123 202.161 90.0545C203.044 90.2651 203.884 90.56 204.671 91.0022C205.501 91.4656 206.395 91.6762 207.347 91.5867C209.437 91.3971 211.463 91.0128 213.175 89.6807C214.17 88.912 214.553 87.7958 214.181 86.6743C213.686 85.9846 213.032 85.4739 212.287 85.079C210.532 84.147 208.724 83.3731 206.719 83.1625C206.442 83.1309 206.251 83.0308 206.107 82.815C203.613 81.2828 201.342 79.3926 198.529 78.3765C194.838 77.0391 191.099 76.4705 187.339 77.8605C185.382 78.5818 183.436 78.8082 181.383 78.9767C177.974 79.261 174.708 80.2087 171.953 82.4043C171.629 82.6623 171.267 82.8834 170.852 82.994L170.847 82.9992Z"
            fill="#E9FBFF" />
        <path fill-rule="evenodd" clip-rule="evenodd"
            d="M214.175 86.6799C214.25 87.1906 214.117 87.6803 213.979 88.1542C213.808 88.7175 213.468 89.1598 212.973 89.5442C211.708 90.5129 210.24 90.9078 208.713 91.1711C208.272 91.2448 207.841 91.3343 207.389 91.3606C206.4 91.4185 205.491 91.229 204.656 90.713C203.81 90.1865 202.847 89.9864 201.911 89.7179C201.3 89.5442 201.023 89.66 200.757 90.2286C200.241 91.3343 199.364 91.9293 198.183 92.1451C195.115 92.7085 192.285 92.1978 189.759 90.3129C189.381 90.0285 188.983 89.7653 188.6 89.4915C188.126 89.1493 187.69 89.0703 187.137 89.4231C185.627 90.3918 184.053 91.2395 182.25 91.5449C181.425 91.6871 180.596 91.7924 179.761 91.8345C178.809 91.8871 177.851 91.8187 176.899 91.8555C175.495 91.9135 174.336 91.3869 173.294 90.5235C172.725 90.0496 172.118 89.997 171.65 90.4656C170.565 91.5607 169.22 91.6028 167.826 91.4343C166.321 91.2553 165.072 90.5024 163.955 89.5652C163.269 88.9913 162.854 88.1752 162.705 87.2644C161.062 89.6495 162.45 92.8138 164.29 93.93C165.662 94.7619 167.167 95.1462 168.736 95.3674C169.826 95.5201 170.922 95.5043 172.012 95.599C177.793 96.094 183.574 96.0255 189.36 95.7307C191.046 95.6464 192.732 95.6517 194.418 95.7254C198.774 95.9149 203.129 95.7675 207.485 95.8149C208.581 95.8254 209.676 95.8728 210.766 95.7096C211.628 95.578 212.484 95.4148 213.314 95.1568C215.255 94.546 216.489 92.4768 216.127 90.4919C215.861 89.0282 215.228 87.754 214.175 86.6905V86.6799Z"
            fill="#9BD9F5" />
        <path fill-rule="evenodd" clip-rule="evenodd"
            d="M170.847 82.9994C170.937 83.1257 171.07 83.1836 171.209 83.1205C171.485 82.9941 171.799 82.8941 172.022 82.6993C173.942 81.0513 176.245 80.251 178.66 79.6666C180.303 79.2717 181.957 79.0611 183.643 79.1611C184.425 79.2085 185.127 79.0137 185.823 78.6714C187.164 78.0133 188.61 77.6921 190.078 77.4815C190.573 77.4078 191.067 77.3183 191.572 77.3078C193.008 77.2762 194.412 77.4868 195.8 77.8238C198.242 78.4187 200.528 79.377 202.608 80.7775C203.23 81.1987 203.81 81.6778 204.427 82.1096C204.927 82.4571 205.432 82.8204 206.091 82.8204C205.262 80.2615 204.039 77.9343 201.794 76.3074C199.89 74.9279 197.715 74.175 195.348 74.2014C192.982 74.2224 190.652 74.5752 188.408 75.3649C187.142 75.8072 186.004 76.439 185.047 77.371C184.744 77.6658 184.483 77.7237 184.084 77.6132C181.962 77.0235 179.877 77.1551 177.814 77.9449C176.607 78.4082 175.447 78.9505 174.288 79.5139C172.852 80.2089 171.719 81.1882 171.038 82.6466C170.98 82.773 170.9 82.8888 170.831 83.0046L170.847 82.9994Z"
            fill="#FAFEFF" />
    </g>
    <g opacity="0.7">
        <path fill-rule="evenodd" clip-rule="evenodd"
            d="M268.028 60.7279C269.209 60.1856 270.464 59.875 271.725 59.6275C272.432 59.4906 272.847 59.1852 273.022 58.5166C274.65 57.5109 275.777 55.9682 277.165 54.7099C280.09 52.0563 283.531 50.2135 286.908 48.2548C287.467 47.9284 288.116 47.9389 288.727 47.8073C288.865 47.7757 288.701 47.8494 288.802 47.7652C288.855 47.7231 288.669 47.7652 288.669 47.6599C289.7 47.3966 290.748 47.4861 291.79 47.5125C292.381 47.5283 292.976 47.6441 293.567 47.5125C293.673 47.9969 293.285 47.8231 293.051 47.8863C293.732 47.9389 294.061 47.3124 294.63 47.1334C297.933 46.0961 301.193 44.9115 304.645 44.385C307.623 43.9269 310.596 44.1428 313.542 44.5429C317.882 45.1274 322.195 45.8855 326.508 46.6385C327.365 46.7859 328.263 46.7122 329.056 47.1808C329.572 47.4861 329.822 48.1022 330.428 48.2812C330.704 48.576 331.029 48.6445 331.444 48.6339C332.401 48.6023 333.374 48.4497 334.321 48.7498C333.528 49.4079 332.566 48.9393 331.609 49.1973C333.066 49.787 334.465 50.3398 335.874 50.8663C338.421 51.8193 340.995 52.7091 343.362 54.0675C344.899 54.9521 346.431 55.8524 347.792 57.0002C347.904 57.095 348.037 57.1213 348.18 57.1055C348.441 57.3003 348.558 57.6004 348.67 57.8795C349.159 59.1221 349.685 60.3541 349.983 61.6598C349.983 62.3864 349.361 62.4075 348.904 62.5602C347.308 63.0814 345.638 63.0551 344 62.9761C340.033 62.7866 336.22 61.9547 332.709 60.0277C331.444 59.3327 330.311 58.4586 329.12 57.6636C327.742 56.7422 326.439 56.4368 324.807 57.2266C322.764 58.2112 320.594 58.9799 318.425 59.6222C314.968 60.6489 311.474 60.1751 308.102 58.9957C306.815 58.5429 305.501 58.485 304.177 58.406C303.735 58.3797 303.358 58.5482 303.017 58.8219C300.151 61.1491 296.752 62.1179 293.152 62.2021C289.892 62.2759 286.829 61.3861 284.35 59.1115C283.691 58.506 283.143 58.4376 282.414 58.943C280.829 60.0382 279.069 60.8385 277.389 61.7809C275.048 63.092 272.533 63.5184 269.868 62.9551C269.103 62.7918 268.385 62.5338 267.757 62.0653C267.38 61.7809 267.05 61.4598 267.374 60.928H267.369C267.55 60.77 267.848 60.928 268.012 60.7121L268.028 60.7279Z"
            fill="#E9FBFF" />
        <path fill-rule="evenodd" clip-rule="evenodd"
            d="M355.833 66.5091C356.408 67.3778 356.61 68.3729 356.642 69.3733C356.7 71.095 355.791 72.3481 354.382 73.2326C352.972 74.1172 351.35 74.491 349.749 74.849C346.734 75.5282 343.66 75.8915 340.581 75.96C334.066 76.1074 327.545 75.9863 321.025 75.902C318.887 75.8757 316.749 75.8441 314.611 75.8283C307.533 75.7757 300.449 75.7757 293.37 75.6598C288.536 75.5756 283.707 75.3281 278.872 75.1491C277.543 75.1017 276.213 75.0491 274.878 75.007C272.097 74.9227 269.4 74.2856 266.693 73.7328C265.656 73.5222 264.715 73.0431 263.768 72.585C261.545 71.5109 260.668 69.626 260.721 67.3146C260.78 64.8716 262.093 63.171 264.284 62.1074C264.593 62.5286 264.29 62.9025 264.183 63.2868C263.838 64.4767 264.072 65.2823 265.066 66.0352C266.481 67.1093 268.066 67.8306 269.863 67.9359C272.836 68.1097 275.809 68.1781 278.734 67.4568C280.276 67.0724 281.712 66.4564 283.047 65.5877C284.605 64.5715 285.297 64.5768 286.329 66.0405C288.126 68.5888 290.801 69.0679 293.583 69.347C295.114 69.4997 296.657 69.5997 298.194 69.3838C300.486 69.0679 302.379 67.8675 304.294 66.7144C304.953 66.3195 305.613 65.9299 306.278 65.5403C307.107 65.0559 307.772 65.1507 308.575 65.7298C310.761 67.3199 313.138 68.5467 315.872 68.9837C319.93 69.6365 323.472 68.4203 326.716 66.1037C327.428 65.5982 328.088 65.0243 328.769 64.482C329.864 63.608 330.561 63.6922 331.672 64.5136C335.331 67.2199 339.288 69.0784 344.006 69.1258C346.388 69.1469 348.755 69.2575 351.111 68.8047C352.69 68.5045 354.174 68.0465 355.28 66.7986C355.419 66.6407 355.605 66.5354 355.828 66.5143L355.833 66.5091Z"
            fill="#9CDDF3" />
        <path fill-rule="evenodd" clip-rule="evenodd"
            d="M267.395 60.9493C267.411 61.2705 267.454 61.5706 267.773 61.7549C268.379 62.0971 268.959 62.4499 269.666 62.6131C272.623 63.2923 275.309 62.7184 277.872 61.1757C279.542 60.1701 281.35 59.3856 282.956 58.2588C283.323 58.0008 283.653 58.043 283.988 58.3589C284.515 58.8643 285.009 59.4435 285.632 59.8068C287.445 60.8809 289.386 61.5969 291.519 61.8181C294.072 62.0761 296.523 61.6654 298.895 60.8124C300.374 60.2806 301.783 59.5699 302.943 58.4694C303.267 58.1588 303.65 58.0482 304.086 58.0851C305.022 58.1535 305.963 58.2114 306.899 58.2852C307.07 58.301 307.25 58.3325 307.405 58.4063C308.968 59.1592 310.654 59.533 312.351 59.691C313.606 59.8068 314.882 59.9121 316.185 59.7647C317.786 59.5804 319.238 59.1434 320.663 58.4484C321.408 58.0851 322.253 57.9271 323.04 57.6376C323.955 57.3006 324.881 56.9636 325.763 56.5477C326.322 56.2844 326.811 56.3107 327.38 56.4687C328.587 56.8109 329.587 57.5428 330.55 58.2641C332.879 60.0069 335.464 61.1652 338.267 61.8707C339.713 62.234 341.197 62.4341 342.692 62.592C344.133 62.7447 345.553 62.6552 346.983 62.6447C347.829 62.6394 348.632 62.3814 349.425 62.1182C349.653 62.0392 349.877 61.9286 349.999 61.6917C350.137 61.7812 350.275 61.8654 350.408 61.955C350.93 62.2445 350.536 62.6184 350.509 62.9606C350.467 63.466 350.525 63.8767 351.169 63.4397C351.616 63.1396 352.02 63.2344 352.445 63.4713C353.328 63.9504 354.041 64.6086 354.61 65.4141C355.264 66.3461 355.152 66.9516 354.19 67.6097C352.972 68.4416 351.547 68.7838 350.116 68.8786C347.361 69.0629 344.59 69.2156 341.83 68.9786C340.607 68.8733 339.415 68.4995 338.283 68.0362C335.916 67.0727 333.544 66.1302 331.608 64.3716C330.64 63.4924 329.869 63.4766 328.901 64.3401C327.056 65.9986 324.843 67.0463 322.711 68.231C321.131 69.1102 319.424 69.026 317.717 69.0313C314.18 69.0365 311.197 67.5992 308.479 65.53C307.819 65.0298 307.277 65.0298 306.564 65.3615C304.905 66.1302 303.448 67.2359 301.831 68.073C300.326 68.8523 298.81 69.3788 297.034 69.3051C294.795 69.2156 292.577 69.3156 290.365 68.7154C288.769 68.2889 287.615 67.4623 286.599 66.2513C285.094 64.4559 284.818 64.4138 282.85 65.6247C280.34 67.1674 277.596 67.8414 274.676 67.9677C272.958 68.0414 271.24 68.0362 269.528 67.8572C267.985 67.6939 266.629 67.0305 265.374 66.1934C264.369 65.5194 264.47 64.856 265.597 64.4032C266.342 64.1031 267.033 63.703 267.884 63.3081C267.044 63.266 266.406 63.4976 265.762 63.724C265.379 63.8609 264.906 64.1031 264.64 63.6029C264.358 63.0764 264.661 62.6447 265.114 62.3762C265.704 62.0181 266.422 61.8444 266.778 61.1704C266.943 60.9756 267.172 60.9493 267.406 60.9546L267.395 60.9493Z"
            fill="#B8EFFF" />
        <path fill-rule="evenodd" clip-rule="evenodd"
            d="M330.444 48.2918C330.412 48.4129 330.417 48.6288 330.221 48.5077C329.987 48.3655 329.795 48.1496 329.593 47.9601C328.987 47.3914 328.285 47.1387 327.428 47.0703C326.115 46.965 324.812 46.6965 323.509 46.4859C320.073 45.9225 316.654 45.2749 313.202 44.8115C310.75 44.4851 308.261 44.3429 305.788 44.5588C303.773 44.7326 301.805 45.2222 299.88 45.8435C297.822 46.5069 295.7 46.9755 293.732 47.8969C293.434 48.0338 293.12 47.9864 292.679 47.9969C292.987 47.681 293.466 47.918 293.572 47.5231C295.253 45.5539 297.322 44.0744 299.678 43.053C306.942 39.8939 314.34 39.4253 321.834 42.2369C324.541 43.2531 326.982 44.7326 329.082 46.728C329.582 47.2072 330.093 47.6863 330.439 48.2971L330.444 48.2918Z"
            fill="#FAFEFF" />
        <path fill-rule="evenodd" clip-rule="evenodd"
            d="M266.768 61.1599C266.891 61.7338 266.667 62.076 266.098 62.2551C265.673 62.3919 265.199 62.4551 264.907 62.8553C264.747 63.0711 264.678 63.3133 264.822 63.5345C264.976 63.7714 265.21 63.6187 265.385 63.5345C266.056 63.2238 266.763 63.0606 267.481 62.9237C267.736 62.8763 267.96 62.8553 268.188 62.9711C268.369 63.0659 268.619 63.1133 268.582 63.3765C268.555 63.5713 268.353 63.6345 268.178 63.6398C267.651 63.6398 267.236 63.8767 266.853 64.1979C266.407 64.5717 265.79 64.5191 265.306 64.8192C264.769 65.1509 264.742 65.2141 265.167 65.6511C265.311 65.7985 265.455 65.9722 265.635 66.067C266.821 66.662 267.97 67.4254 269.316 67.5254C270.321 67.5992 271.326 67.8045 272.342 67.715C273.592 67.6097 274.868 67.5149 276.102 67.4991C277.963 67.4728 279.543 66.7199 281.213 66.1934C281.766 66.0196 282.271 65.6563 282.75 65.3141C283.159 65.0245 283.627 64.8981 284.063 64.6875C284.819 64.3242 285.425 64.5243 285.957 65.0824C286.536 65.6826 287.175 66.246 287.643 66.9252C288.127 67.6202 288.781 67.9098 289.525 68.1415C291.61 68.7785 293.716 69.184 295.923 68.9944C296.716 68.926 297.519 68.9523 298.327 69.0313C299.151 69.1102 299.949 68.6417 300.699 68.2942C301.773 67.794 302.826 67.2411 303.805 66.5514C304.752 65.888 305.799 65.3983 306.847 64.9192C307.512 64.6138 308.054 64.7507 308.581 65.2035C310.719 67.0253 313.213 68.1678 315.973 68.6153C316.888 68.7627 317.888 68.9418 318.845 68.6153C318.973 68.5732 319.143 68.5469 319.26 68.5943C320.69 69.1734 321.775 68.2573 322.924 67.7308C323.456 67.4886 323.935 67.1253 324.498 66.9252C325.881 66.4408 326.939 65.4668 328.051 64.577C328.514 64.2084 328.971 63.8293 329.508 63.5713C330.051 63.3081 330.582 63.3186 331.098 63.6293C331.37 63.7925 331.651 63.9452 331.88 64.1505C334.412 66.4303 337.528 67.5044 340.725 68.4574C341.82 68.7838 342.921 68.6732 344.011 68.7312C346.096 68.847 348.191 68.689 350.276 68.5679C351.271 68.51 352.265 68.1941 353.212 67.8203C353.441 67.7308 353.659 67.6097 353.866 67.4833C354.924 66.8462 355.057 66.225 354.228 65.3404C353.643 64.7191 353.047 64.0926 352.255 63.6714C351.808 63.4344 351.521 63.3449 351.191 63.7714C351.047 63.961 350.851 64.1136 350.675 64.2821C349.962 63.4081 349.936 63.2607 350.43 62.4235C350.537 62.2393 350.473 62.0971 350.404 61.9391C352.627 62.7026 354.557 63.8451 355.664 66.0249C355.738 66.1776 355.775 66.3461 355.834 66.5093C355.073 67.6623 354.02 68.3784 352.675 68.7575C350.324 69.4209 347.92 69.6841 345.516 69.5051C343.852 69.384 342.171 69.5841 340.517 69.126C338.587 68.589 336.736 67.8729 334.954 66.9831C333.55 66.2776 332.167 65.5458 331.051 64.398C330.577 63.9083 329.785 64.0241 329.141 64.5454C328.657 64.9403 328.189 65.3615 327.711 65.7616C326.057 67.1358 324.121 68.0362 322.169 68.8891C321.291 69.2682 320.323 69.2735 319.398 69.384C317.398 69.6157 315.383 69.4735 313.516 68.7259C311.617 67.9624 309.671 67.199 308.134 65.7774C307.65 65.3299 307.272 65.3667 306.741 65.6458C305.001 66.5461 303.417 67.6992 301.662 68.5837C299.423 69.7105 297.093 70.0158 294.641 69.6999C293.812 69.5946 292.972 69.7789 292.137 69.5262C291.27 69.2682 290.36 69.1418 289.493 68.8891C288.499 68.5995 287.653 68.0467 286.978 67.2569C286.595 66.8094 286.217 66.3566 285.85 65.8933C285.17 65.0403 284.611 64.9139 283.696 65.5352C282.824 66.1249 281.92 66.6304 280.952 67.0463C279.197 67.7992 277.373 68.2046 275.469 68.2678C274.24 68.3099 273.012 68.2942 271.789 68.3731C269.699 68.51 267.773 67.9572 265.939 67.0568C265.322 66.7515 264.742 66.3092 264.274 65.8143C263.609 65.0982 263.567 64.1926 263.843 63.2765C263.96 62.8816 264.253 62.5446 264.29 62.1182C265.05 61.6338 265.901 61.381 266.768 61.1704V61.1599Z"
            fill="#B8EFFF" />
        <path fill-rule="evenodd" clip-rule="evenodd"
            d="M348.196 57.1213C348.02 57.4372 347.829 57.3213 347.606 57.1581C345.909 55.9366 344.154 54.8204 342.33 53.799C341.681 53.4357 340.984 53.2303 340.314 52.9302C337.767 51.793 335.108 50.9347 332.518 49.8923C331.938 49.6606 331.379 49.4184 330.598 49.013C332.007 48.7181 333.182 48.9235 334.331 48.7603C336.347 48.8708 338.229 49.4974 340.048 50.2977C342.596 51.4191 344.792 53.0513 346.765 54.9889C347.388 55.5996 347.861 56.3157 348.191 57.1213H348.196Z"
            fill="#F9FEFF" />
        <path fill-rule="evenodd" clip-rule="evenodd"
            d="M288.679 47.6654C288.887 47.6917 289.094 47.718 289.296 47.7391C286.69 48.255 284.648 49.8609 282.489 51.2193C281.866 51.6089 281.212 51.9354 280.59 52.3197C279.463 53.02 278.516 53.9519 277.505 54.7996C276.357 55.7684 275.373 56.8951 274.288 57.9218C273.969 58.2219 273.681 58.8221 273.027 58.5168C273.846 55.6789 275.357 53.2727 277.718 51.4562C280.319 49.4608 283.345 48.4446 286.557 47.9339C287.057 47.7022 287.631 47.9707 288.126 47.7075C288.302 47.6338 288.488 47.6022 288.674 47.6601L288.679 47.6654Z"
            fill="#F9FEFF" />
        <path fill-rule="evenodd" clip-rule="evenodd" d="M288.127 47.7125C287.648 48.0867 287.089 47.9286 286.558 47.9391C287.058 47.6915 287.589 47.6915 288.127 47.7125Z" fill="#CFF4FF" />
        <path fill-rule="evenodd" clip-rule="evenodd" d="M268.028 60.728C267.879 60.9873 267.635 60.9767 267.385 60.9503C267.55 60.7386 267.784 60.728 268.028 60.728Z" fill="#B8EFFF" />
        <path fill-rule="evenodd" clip-rule="evenodd"
            d="M349.361 63.4715C349.361 63.7613 349.228 63.9562 348.946 63.9984C348.627 64.0511 348.51 63.7982 348.441 63.5716C348.34 63.2344 348.638 63.1501 348.861 63.0921C349.164 63.0131 349.303 63.2186 349.361 63.4715Z"
            fill="#B8EFFF" />
    </g>
    <path opacity="0.7" fill-rule="evenodd" clip-rule="evenodd"
        d="M276.096 135.435C278.553 135.466 280.702 136.33 282.59 137.846C283.239 138.367 283.882 138.92 284.239 139.705C284.489 140.615 283.989 141.326 283.43 141.869C281.739 143.522 279.723 144.454 277.266 144.111C276.559 144.011 275.905 143.78 275.362 143.301C274.825 142.822 274.278 142.774 273.703 143.243C272.496 144.227 271.113 144.575 269.55 144.548C267.215 144.512 264.896 144.501 262.662 143.659C261.758 143.316 260.95 142.827 260.147 142.321C259.408 141.858 258.78 141.858 258.083 142.427C256.541 143.68 254.802 144.559 252.813 144.891C251.271 145.149 249.739 145.096 248.223 144.691C247.277 144.438 246.569 143.869 246.112 143.022C245.803 142.448 245.389 142.348 244.782 142.49C243.899 142.7 243.059 142.995 242.272 143.438C241.442 143.901 240.549 144.111 239.597 144.022C237.507 143.832 235.481 143.448 233.768 142.116C232.774 141.347 232.391 140.231 232.763 139.11C233.258 138.42 233.912 137.909 234.656 137.514C236.411 136.582 238.219 135.808 240.224 135.598C240.501 135.566 240.692 135.466 240.836 135.25C243.33 133.718 245.601 131.828 248.415 130.812C252.106 129.474 255.844 128.906 259.604 130.296C261.561 131.017 263.508 131.244 265.561 131.412C268.97 131.696 272.235 132.644 274.99 134.84C275.315 135.098 275.676 135.319 276.091 135.429L276.096 135.435Z"
        fill="#E9FBFF" />
    <path opacity="0.7" fill-rule="evenodd" clip-rule="evenodd"
        d="M232.763 139.115C232.688 139.626 232.821 140.115 232.959 140.589C233.13 141.153 233.47 141.6 233.965 141.979C235.23 142.948 236.698 143.343 238.225 143.606C238.666 143.68 239.097 143.769 239.549 143.796C240.538 143.854 241.447 143.664 242.282 143.148C243.128 142.622 244.091 142.421 245.027 142.153C245.638 141.979 245.915 142.095 246.181 142.664C246.697 143.769 247.574 144.364 248.755 144.58C251.823 145.144 254.653 144.633 257.179 142.748C257.557 142.464 257.955 142.2 258.338 141.927C258.812 141.584 259.248 141.505 259.801 141.858C261.311 142.827 262.886 143.675 264.688 143.98C265.513 144.122 266.342 144.227 267.177 144.27C268.129 144.322 269.087 144.254 270.039 144.291C271.443 144.349 272.602 143.822 273.644 142.959C274.214 142.485 274.82 142.432 275.288 142.901C276.373 143.996 277.718 144.038 279.112 143.869C280.617 143.69 281.867 142.937 282.983 142C283.669 141.426 284.084 140.61 284.233 139.699C285.877 142.085 284.488 145.249 282.648 146.365C281.276 147.197 279.771 147.581 278.202 147.802C277.112 147.955 276.016 147.939 274.926 148.034C269.145 148.529 263.364 148.461 257.578 148.166C255.892 148.081 254.206 148.087 252.52 148.16C248.164 148.35 243.809 148.203 239.453 148.25C238.358 148.261 237.262 148.308 236.172 148.139C235.31 148.008 234.454 147.845 233.624 147.587C231.683 146.976 230.449 144.907 230.811 142.922C231.077 141.458 231.71 140.184 232.763 139.12V139.115Z"
        fill="#9BD9F5" />
    <path opacity="0.7" fill-rule="evenodd" clip-rule="evenodd"
        d="M276.096 135.435C276.006 135.561 275.873 135.619 275.734 135.556C275.458 135.429 275.144 135.329 274.921 135.135C273.001 133.487 270.698 132.686 268.283 132.102C266.64 131.707 264.986 131.496 263.3 131.596C262.518 131.644 261.816 131.449 261.12 131.107C259.779 130.449 258.333 130.127 256.865 129.917C256.37 129.843 255.876 129.754 255.371 129.743C253.935 129.711 252.531 129.922 251.142 130.259C248.701 130.854 246.414 131.812 244.335 133.213C243.713 133.629 243.133 134.113 242.516 134.545C242.016 134.892 241.511 135.256 240.852 135.256C241.681 132.697 242.904 130.37 245.149 128.743C247.053 127.363 249.228 126.61 251.595 126.637C253.961 126.658 256.291 127.01 258.535 127.8C259.801 128.243 260.939 128.874 261.896 129.806C262.199 130.101 262.46 130.159 262.859 130.048C264.981 129.459 267.065 129.59 269.129 130.38C270.336 130.843 271.496 131.391 272.655 131.949C274.091 132.644 275.224 133.623 275.904 135.082C275.963 135.208 276.043 135.324 276.112 135.44L276.096 135.435Z"
        fill="#FAFEFF" />
    <g opacity="0.6">
        <path fill-rule="evenodd" clip-rule="evenodd"
            d="M108.124 122.646C108.177 122.714 108.262 122.783 108.278 122.856C108.395 123.472 108.773 123.625 109.379 123.63C111.257 123.636 113.033 124.062 114.676 124.994C116.32 125.926 117.272 127.358 117.803 129.117C117.83 129.854 117.516 130.438 117 130.949C114.724 133.197 111.964 133.892 108.885 133.271C106.986 132.886 105.061 132.571 103.263 131.791C102.774 131.581 102.322 131.649 101.902 131.986C98.7427 134.519 95.1422 134.692 91.3715 133.866C90.3185 133.634 89.3984 133.155 88.606 132.391C87.4253 131.254 87.0477 131.259 85.7235 132.26C84.0748 133.513 82.1496 134.034 80.1393 134.25C78.6608 134.408 77.1663 134.345 75.6825 134.266C74.47 134.203 73.4595 133.676 72.5873 132.892C71.981 132.344 71.3907 132.318 70.6727 132.639C69.3112 133.244 67.8646 133.608 66.3915 133.855C65.0353 134.087 63.8068 133.808 62.7644 132.855C61.9188 132.086 61.8816 131.57 62.6846 130.754C63.2803 130.238 64.0089 129.912 64.7587 129.78C65.4927 129.648 65.8543 129.306 65.9713 128.622C66.4606 128.474 66.7903 128.111 67.1147 127.758C68.9549 125.742 71.1248 124.099 73.2787 122.43C75.0656 121.05 77.1238 120.419 79.3202 120.113C79.4426 120.097 79.299 120.082 79.4107 120.108C81.4422 120.582 83.1335 119.671 84.8619 118.834C86.1117 118.228 87.4891 118.139 88.856 118.065C93.0946 117.849 97.1206 118.771 101.019 120.329C102.29 120.84 103.598 121.229 104.97 121.361C106.156 121.477 107.172 121.982 108.129 122.64L108.124 122.646Z"
            fill="#E1F7F9" />
        <path fill-rule="evenodd" clip-rule="evenodd"
            d="M62.6842 130.754C62.5938 130.906 62.4768 131.054 62.4183 131.222C62.2853 131.601 62.2215 132.012 62.5353 132.323C63.5457 133.334 64.7583 133.897 66.2102 133.623C67.8483 133.318 69.465 132.934 70.9807 132.207C71.5604 131.928 72.0657 132.007 72.539 132.491C73.608 133.576 74.9269 134.076 76.4586 134.044C77.4903 134.023 78.5274 134.102 79.5592 134.029C81.6333 133.876 83.6276 133.418 85.372 132.202C85.7922 131.907 86.1326 131.528 86.6219 131.307C87.0314 131.122 87.3877 131.128 87.7387 131.37C88.0844 131.607 88.4886 131.791 88.7492 132.128C89.4405 133.028 90.4457 133.402 91.4828 133.623C92.7219 133.887 93.9771 134.108 95.2588 134.044C97.7105 133.929 99.9867 133.355 101.843 131.654C102.295 131.238 102.768 131.238 103.268 131.475C105.177 132.375 107.267 132.66 109.299 133.081C111.538 133.544 113.681 133.034 115.612 131.78C116.628 131.122 117.378 130.243 117.803 129.111C118.016 129.401 117.994 129.743 117.984 130.064C117.888 132.444 116.91 134.276 114.644 135.319C113.139 136.008 111.527 136.287 109.911 136.566C106.039 137.23 102.119 137.298 98.2051 137.346C95.4715 137.377 92.7432 137.362 90.0096 137.409C84.1222 137.509 78.2296 137.541 72.3422 137.477C69.5501 137.446 66.758 137.488 63.9659 137.488C61.8173 137.488 60.3122 135.708 60.6792 133.586C60.8972 132.333 61.5248 131.354 62.6842 130.749V130.754Z"
            fill="#9EDEF4" />
        <path fill-rule="evenodd" clip-rule="evenodd"
            d="M108.123 122.646C108.07 122.761 108.049 123.025 107.863 122.856C106.815 121.909 105.517 121.735 104.183 121.55C102.624 121.329 101.162 120.692 99.6886 120.145C97.5028 119.334 95.2691 118.744 92.9291 118.491C91.658 118.355 90.3922 118.355 89.1212 118.349C87.281 118.339 85.5207 118.665 83.8879 119.581C82.8828 120.145 81.8085 120.713 80.6225 120.487C79.3727 120.25 78.2346 120.592 77.0699 120.855C75.6552 121.171 74.4214 121.877 73.2992 122.756C72.4004 123.462 71.5282 124.209 70.5603 124.831C70.0444 125.162 69.6562 125.631 69.2254 126.052C68.4223 126.831 67.6352 127.621 66.8428 128.406C66.6726 128.574 66.5077 128.753 66.2684 128.837C66.0504 128.916 66.0131 128.769 65.96 128.627C66.1089 127.179 66.5662 125.805 67.1725 124.499C67.9011 122.919 69.119 121.756 70.7358 121.035C72.9429 120.045 75.2457 119.466 77.6762 119.423C78.3516 119.413 79.0217 119.465 79.6439 119.713C80.1545 119.913 80.4949 119.776 80.8565 119.418C81.5054 118.786 82.1861 118.191 82.8562 117.581C84.691 115.917 86.8183 114.827 89.2913 114.458C90.371 114.295 91.4506 114.116 92.5355 114.016C97.2635 113.579 101.279 115.211 104.81 118.223C106.161 119.376 107.326 120.655 108.012 122.309C108.054 122.419 108.081 122.535 108.118 122.651L108.123 122.646Z"
            fill="#FAFEFF" />
    </g>
    <defs>
        <linearGradient id="paint0_linear_104_5651" x1="285.143" y1="144.654" x2="285.143" y2="251.81" gradientUnits="userSpaceOnUse">
            <stop stop-color="#87DDEC" />
            <stop offset="1" stop-color="#3DDDEC" stop-opacity="0" />
        </linearGradient>
        <linearGradient id="paint1_linear_104_5651" x1="71.9856" y1="174.544" x2="71.9856" y2="7.13712e-05" gradientUnits="userSpaceOnUse">
            <stop stop-color="#87DDEC" />
            <stop offset="1" stop-color="#3DDDEC" stop-opacity="0" />
        </linearGradient>
        <linearGradient id="paint2_linear_104_5651" x1="60.6257" y1="179.167" x2="60.6257" y2="251.989" gradientUnits="userSpaceOnUse">
            <stop stop-color="#87DDEC" />
            <stop offset="1" stop-color="#3DDDEC" stop-opacity="0" />
        </linearGradient>
        <linearGradient id="paint3_linear_104_5651" x1="312.458" y1="177.856" x2="312.458" y2="251.989" gradientUnits="userSpaceOnUse">
            <stop stop-color="#87DDEC" />
            <stop offset="1" stop-color="#3DDDEC" stop-opacity="0" />
        </linearGradient>
        <linearGradient id="paint4_linear_104_5651" x1="191.02" y1="195.02" x2="191.02" y2="251.736" gradientUnits="userSpaceOnUse">
            <stop stop-color="#87DDEC" />
            <stop offset="1" stop-color="#3DDDEC" stop-opacity="0" />
        </linearGradient>
    </defs>
</svg>
