<svg width="22" height="22" viewBox="0 0 22 22" fill="none" xmlns="http://www.w3.org/2000/svg">
<path d="M15.3916 2.36817C15.7667 2.21279 16.1688 2.13281 16.5748 2.13281C16.9808 2.13281 17.3829 2.21279 17.7581 2.36817C18.1332 2.52356 18.474 2.75131 18.7612 3.03842C19.0483 3.32553 19.276 3.66638 19.4314 4.04152C19.5867 4.41664 19.6667 4.81871 19.6667 5.22474C19.6667 5.63077 19.5867 6.03284 19.4314 6.40798C19.276 6.7831 19.0483 7.12395 18.7612 7.41106L18.312 7.86014L13.9395 3.48748L14.3885 3.03842C14.6756 2.75131 15.0165 2.52356 15.3916 2.36817Z" fill="white"/>
<path d="M12.7139 4.71411L3.76748 13.6605C3.66083 13.7671 3.58386 13.8998 3.54418 14.0453L2.36405 18.3724C2.28222 18.6725 2.36744 18.9934 2.58736 19.2133C2.80728 19.4332 3.12817 19.5184 3.42822 19.4366L7.75534 18.2565C7.90085 18.2168 8.03348 18.1398 8.14013 18.0331L17.0865 9.08679L12.7139 4.71411Z" fill="white"/>
</svg>
