<svg width="22" height="23" viewBox="0 0 22 23" fill="none" xmlns="http://www.w3.org/2000/svg">
<circle cx="10.8284" cy="11.7718" r="9.97347" fill="#FF9E29" stroke="#E28424" stroke-width="1.42478"/>
<path d="M9.21633 7.42517L10.8285 8.92219L12.5978 7.52821C13.3468 6.93811 14.4133 6.97866 15.1152 7.62393C15.8982 8.34361 15.9571 9.55898 15.2475 10.351L13.8973 11.8581L15.1116 13.2135C15.8822 14.0736 15.7764 15.4033 14.8795 16.1307C14.1109 16.7542 13.0037 16.7289 12.2642 16.0711L10.8285 14.794L9.38183 16.1743C8.61793 16.9031 7.41901 16.9123 6.64401 16.1953C5.81536 15.4286 5.78535 14.1284 6.57776 13.3244L8.0228 11.8581L6.45625 10.2685C5.71352 9.5149 5.69384 8.31071 6.41154 7.5332C7.1555 6.72725 8.41259 6.67883 9.21633 7.42517Z" fill="#FFEE9C" stroke="#FFDA67" stroke-width="0.238057"/>
<g filter="url(#filter0_f_955_24682)">
<ellipse cx="13.4442" cy="10.4336" rx="1.5832" ry="0.890488" transform="rotate(-41.395 13.4442 10.4336)" fill="white"/>
</g>
<g filter="url(#filter1_f_955_24682)">
<ellipse cx="13.6674" cy="13.8697" rx="2.6067" ry="0.890488" transform="rotate(-131.701 13.6674 13.8697)" fill="white"/>
</g>
<g filter="url(#filter2_f_955_24682)">
<ellipse cx="6.19048" cy="6.29144" rx="3.37318" ry="1.18732" transform="rotate(-35.2607 6.19048 6.29144)" fill="white"/>
</g>
<path d="M7.77541 4.52039C6.78233 4.89713 4.55242 6.26418 3.57739 8.7184" stroke="white" stroke-opacity="0.7" stroke-width="1.52655" stroke-linecap="round"/>
<circle cx="3.00483" cy="10.0545" r="0.572457" fill="white" fill-opacity="0.7"/>
<defs>
<filter id="filter0_f_955_24682" x="10.5919" y="7.6651" width="5.70496" height="5.53711" filterUnits="userSpaceOnUse" color-interpolation-filters="sRGB">
<feFlood flood-opacity="0" result="BackgroundImageFix"/>
<feBlend mode="normal" in="SourceGraphic" in2="BackgroundImageFix" result="shape"/>
<feGaussianBlur stdDeviation="0.763276" result="effect1_foregroundBlur_955_24682"/>
</filter>
<filter id="filter1_f_955_24682" x="10.2833" y="10.3082" width="6.76843" height="7.12305" filterUnits="userSpaceOnUse" color-interpolation-filters="sRGB">
<feFlood flood-opacity="0" result="BackgroundImageFix"/>
<feBlend mode="normal" in="SourceGraphic" in2="BackgroundImageFix" result="shape"/>
<feGaussianBlur stdDeviation="0.763276" result="effect1_foregroundBlur_955_24682"/>
</filter>
<filter id="filter2_f_955_24682" x="0.185382" y="0.94942" width="12.0103" height="10.684" filterUnits="userSpaceOnUse" color-interpolation-filters="sRGB">
<feFlood flood-opacity="0" result="BackgroundImageFix"/>
<feBlend mode="normal" in="SourceGraphic" in2="BackgroundImageFix" result="shape"/>
<feGaussianBlur stdDeviation="1.58309" result="effect1_foregroundBlur_955_24682"/>
</filter>
</defs>
</svg>
