<svg width="152" height="152" viewBox="0 0 152 152" fill="none" xmlns="http://www.w3.org/2000/svg">
<circle cx="76" cy="76" r="40" fill="#A421D9"/>
<path d="M95.542 57.1951C95.0266 56.8292 94.4451 56.5699 93.8308 56.4321C93.2166 56.2942 92.5816 56.2805 91.9621 56.3916C91.3426 56.5028 90.7507 56.7366 90.2203 57.0799C89.69 57.4231 89.2314 57.8689 88.8709 58.3919L70.6592 84.7745L58.7182 76.5006C57.7605 75.8361 56.5818 75.5847 55.4413 75.8017C54.3009 76.0188 53.2922 76.6865 52.6371 77.658C51.982 78.6294 51.7341 79.8251 51.9481 80.9819C52.1621 82.1388 52.8203 83.162 53.778 83.8265L69.7843 94.9165C70.2773 95.2578 70.8344 95.4923 71.4208 95.6052C72.0072 95.7182 72.6102 95.7071 73.1922 95.5729C73.813 95.4628 74.4063 95.2295 74.938 94.8864C75.4697 94.5433 75.9295 94.0971 76.2909 93.5734L96.7227 63.9657C97.4509 62.9085 97.7355 61.6012 97.5139 60.3312C97.2924 59.0613 96.5829 57.9324 95.5413 57.1928" fill="white"/>
<path d="M22.8413 39.4036C23.3611 45.3244 27.0323 46.1088 29.0981 46.7427C25.6602 48.219 23.9637 52.8678 24.318 55.5434C23.8574 52.0651 20.3334 47.9034 18.0611 48.2043C20.9178 47.826 22.8513 42.8055 22.8413 39.4036Z" fill="#A421D9"/>
<path d="M13.0962 73.5951C14.6185 76.6899 16.8359 76.3042 18.1237 76.1916C16.507 77.7511 16.5247 80.6458 17.2794 82.018C16.2982 80.2342 13.4608 78.7565 12.2519 79.4215C13.7717 78.5855 13.8094 75.437 13.0962 73.5951Z" fill="#A421D9"/>
<path d="M31.4608 100.567C30.2048 105.029 32.7693 106.635 34.1586 107.679C31.141 107.787 28.5593 110.699 28.0823 112.749C28.7024 110.083 27.1909 106.057 25.3844 105.637C27.6554 106.165 30.5204 103.05 31.4608 100.567Z" fill="#A421D9"/>
<g opacity="0.25">
<circle cx="76" cy="76" r="76" fill="#C294DF" fill-opacity="0.2"/>
<circle cx="73.7171" cy="76.0022" r="61.1428" fill="#C294DF" fill-opacity="0.3"/>
<circle cx="75.9986" cy="76.0006" r="46.2857" fill="#C294DF" fill-opacity="0.5"/>
</g>
</svg>
