<svg width="47" height="40" viewBox="0 0 47 40" fill="none" xmlns="http://www.w3.org/2000/svg">
<path d="M44.5284 1.24389C44.0129 0.878033 43.4314 0.618769 42.8172 0.480916C42.2029 0.343063 41.5679 0.32932 40.9484 0.440465C40.3289 0.55161 39.737 0.785469 39.2067 1.12868C38.6763 1.4719 38.2178 1.91773 37.8573 2.44074L19.6455 28.8234L7.70452 20.5494C6.74681 19.8849 5.56809 19.6335 4.42766 19.8506C3.28722 20.0676 2.2785 20.7353 1.62339 21.7068C0.968281 22.6783 0.720452 23.8739 0.934424 25.0308C1.1484 26.1876 1.80664 27.2108 2.76435 27.8753L18.7706 38.9653C19.2636 39.3066 19.8207 39.5411 20.4071 39.654C20.9935 39.767 21.5966 39.756 22.1786 39.6217C22.7994 39.5116 23.3926 39.2783 23.9243 38.9352C24.4561 38.5921 24.9158 38.1459 25.2772 37.6222L45.709 8.01452C46.4372 6.95729 46.7218 5.65005 46.5003 4.38007C46.2788 3.11009 45.5692 1.98127 44.5276 1.24167" fill="white"/>
</svg>
