<svg width="24" height="25" viewBox="0 0 24 25" fill="none" xmlns="http://www.w3.org/2000/svg">
<mask id="mask0_116_1863" style="mask-type:alpha" maskUnits="userSpaceOnUse" x="0" y="0" width="24" height="25">
<rect y="0.498291" width="24" height="24" fill="#D9D9D9"/>
</mask>
<g mask="url(#mask0_116_1863)">
<path d="M10.0007 21.4983V16.4983H8.4757C8.1257 16.4983 7.8507 16.3525 7.6507 16.0608C7.4507 15.7691 7.41737 15.4566 7.5507 15.1233L10.0507 8.79829C10.2174 8.39829 10.4757 8.08162 10.8257 7.84829C11.1757 7.61496 11.5674 7.49829 12.0007 7.49829C12.434 7.49829 12.8257 7.61496 13.1757 7.84829C13.5257 8.08162 13.784 8.39829 13.9507 8.79829L16.4507 15.1233C16.584 15.4566 16.5507 15.7691 16.3507 16.0608C16.1507 16.3525 15.8757 16.4983 15.5257 16.4983H14.0007V21.4983C14.0007 21.7816 13.9049 22.0191 13.7132 22.2108C13.5215 22.4025 13.284 22.4983 13.0007 22.4983H11.0007C10.7174 22.4983 10.4799 22.4025 10.2882 22.2108C10.0965 22.0191 10.0007 21.7816 10.0007 21.4983ZM12.0007 6.49829C11.4507 6.49829 10.9799 6.30246 10.5882 5.91079C10.1965 5.51912 10.0007 5.04829 10.0007 4.49829C10.0007 3.94829 10.1965 3.47746 10.5882 3.08579C10.9799 2.69412 11.4507 2.49829 12.0007 2.49829C12.5507 2.49829 13.0215 2.69412 13.4132 3.08579C13.8049 3.47746 14.0007 3.94829 14.0007 4.49829C14.0007 5.04829 13.8049 5.51912 13.4132 5.91079C13.0215 6.30246 12.5507 6.49829 12.0007 6.49829Z" fill="#015486"/>
</g>
</svg>
