<svg xmlns="http://www.w3.org/2000/svg" xmlns:xlink="http://www.w3.org/1999/xlink" width="900" zoomAndPan="magnify" viewBox="0 0 675 675.000002" height="900" preserveAspectRatio="xMidYMid meet" version="1.0"><defs><clipPath id="da483e24ac"><path d="M 324 21.339844 L 390 21.339844 L 390 214 L 324 214 Z M 324 21.339844 " clip-rule="nonzero"/></clipPath><clipPath id="9dc3d89b00"><path d="M 132 310.226562 L 565.269531 310.226562 L 565.269531 652.652344 L 132 652.652344 Z M 132 310.226562 " clip-rule="nonzero"/></clipPath><clipPath id="56c3a69356"><path d="M 132.324219 340.269531 L 565 340.269531 L 565 652.652344 L 132.324219 652.652344 Z M 132.324219 340.269531 " clip-rule="nonzero"/></clipPath><clipPath id="d35af6e244"><path d="M 113.835938 205 L 583.339844 205 L 583.339844 331.796875 L 113.835938 331.796875 Z M 113.835938 205 " clip-rule="nonzero"/></clipPath><clipPath id="2a780ee7bb"><path d="M 113.785156 205 L 228 205 L 228 320 L 113.785156 320 Z M 113.785156 205 " clip-rule="nonzero"/></clipPath><clipPath id="5f8cc3ef71"><path d="M 166.21875 340.269531 L 523.667969 340.269531 L 523.667969 652.652344 L 166.21875 652.652344 Z M 166.21875 340.269531 " clip-rule="nonzero"/></clipPath><clipPath id="d6e4c4bb5b"><path d="M 487.460938 236 L 583.339844 236 L 583.339844 331.796875 L 487.460938 331.796875 Z M 487.460938 236 " clip-rule="nonzero"/></clipPath><clipPath id="346bf157e0"><path d="M 310.277344 398.046875 L 564.5 398.046875 L 564.5 652.652344 L 310.277344 652.652344 Z M 310.277344 398.046875 " clip-rule="nonzero"/></clipPath><clipPath id="9680d13f35"><path d="M 453.566406 543 L 562.957031 543 L 562.957031 652.652344 L 453.566406 652.652344 Z M 453.566406 543 " clip-rule="nonzero"/></clipPath><clipPath id="844b843a5d"><path d="M 302.574219 340.269531 L 395 340.269531 L 395 652.652344 L 302.574219 652.652344 Z M 302.574219 340.269531 " clip-rule="nonzero"/></clipPath></defs><path fill="#ffa10b" d="M 326.976562 222.421875 C 310.675781 205.109375 290.652344 191.488281 268.488281 183.167969 C 232.785156 169.4375 191.640625 170.984375 157.027344 186.644531 C 157.027344 186.644531 141.890625 147.414062 141.890625 147.414062 C 178.136719 135.167969 217.960938 134.238281 254.328125 145.46875 C 289.804688 156.277344 321.648438 178.675781 344.214844 207.9375 L 326.976562 222.421875 " fill-opacity="1" fill-rule="nonzero"/><path fill="#ffa10b" d="M 350.859375 223.652344 L 329.917969 231.917969 C 329.308594 230.308594 328.664062 228.71875 328.023438 227.125 L 329.46875 224.535156 C 328.246094 223.636719 327.023438 222.71875 325.800781 221.832031 C 310.765625 186.917969 288.441406 155.351562 258.351562 132.609375 C 245.585938 123.347656 223.425781 109.417969 206.921875 112.136719 L 203.640625 100.640625 C 201.570312 93.351562 200.957031 85.765625 201.792969 78.28125 C 209.835938 78.492188 217.78125 80.632812 225.066406 83.171875 C 269.609375 98.835938 302.964844 136.085938 326.832031 175.339844 C 336.097656 190.699219 343.960938 207.101562 350.859375 223.652344 " fill-opacity="1" fill-rule="nonzero"/><path fill="#ffbf1f" d="M 328.023438 227.125 L 318.453125 244.171875 C 280.820312 228.636719 217.328125 196.296875 184.117188 157.941406 C 180.550781 153.503906 177.347656 148.980469 174.546875 144.398438 C 174.402344 144.160156 174.257812 143.933594 174.113281 143.6875 C 170.0625 136.953125 166.910156 130.085938 164.914062 123.121094 C 163.597656 118.523438 162.617188 114.4375 161.941406 110.753906 C 161.746094 109.597656 161.554688 108.488281 161.410156 107.410156 L 161.410156 107.390625 C 161.167969 105.625 161.007812 103.96875 160.929688 102.410156 C 160.957031 101.765625 161.023438 101.152344 161.101562 100.558594 C 161.363281 98.546875 161.828125 96.777344 162.503906 95.203125 C 166.21875 86.40625 176.078125 83.75 188.863281 79.828125 C 193.125 78.527344 197.480469 78.15625 201.792969 78.28125 C 201.617188 79.859375 201.503906 81.417969 201.453125 82.996094 C 201.40625 84.828125 201.4375 86.644531 201.550781 88.480469 C 201.714844 90.925781 202.015625 93.351562 202.484375 95.765625 C 202.789062 97.40625 203.175781 99.03125 203.640625 100.640625 L 206.921875 112.136719 C 207.871094 114.46875 208.710938 116.753906 210.398438 119.839844 C 211.601562 121.914062 212.90625 123.941406 214.289062 125.90625 C 216.460938 129.023438 218.808594 132.011719 221.332031 134.960938 C 221.671875 135.375 222.039062 135.792969 222.394531 136.210938 C 225.175781 139.429688 228.152344 142.582031 231.207031 145.730469 C 248.65625 163.359375 268.066406 178.78125 288.125 193.996094 C 300.441406 203.40625 313.144531 212.472656 325.800781 221.832031 C 326.574219 223.585938 327.296875 225.355469 328.023438 227.125 " fill-opacity="1" fill-rule="nonzero"/><path fill="#ffa10b" d="M 340.148438 208.910156 L 359.125 220.503906 C 360.007812 219.074219 360.921875 217.664062 361.839844 216.253906 L 360.890625 213.519531 C 362.25 212.878906 363.605469 212.214844 364.960938 211.582031 C 385.945312 180.84375 413.441406 154.585938 446.945312 138.140625 C 461.089844 131.527344 485.257812 122.117188 500.894531 127.621094 L 506.167969 117.203125 C 509.511719 110.601562 511.476562 103.449219 512.003906 96.148438 C 504.109375 94.933594 495.960938 95.578125 488.382812 96.722656 C 442.023438 103.855469 402.722656 133.597656 372.328125 166.9375 C 360.511719 179.992188 349.871094 194.296875 340.148438 208.910156 " fill-opacity="1" fill-rule="nonzero"/><path fill="#ffbf1f" d="M 537.9375 146.664062 C 535.734375 150.011719 533.179688 153.308594 530.3125 156.527344 C 495.324219 195.910156 414.601562 224.597656 368.125 234.25 L 361.835938 216.257812 C 362.871094 214.683594 363.886719 213.125 364.957031 211.582031 C 379.015625 204.867188 393.066406 198.433594 406.808594 191.597656 C 429.140625 180.589844 450.878906 169.265625 471.109375 155.46875 C 476.449219 151.75 481.566406 148.023438 486.277344 143.976562 C 489.78125 140.988281 493.085938 137.804688 496.105469 134.375 C 498.320312 131.722656 499.542969 129.679688 500.898438 127.625 L 506.167969 117.210938 C 509.507812 110.59375 511.472656 103.449219 511.996094 96.152344 C 516.234375 96.78125 535.328125 104.871094 539.105469 107.128906 C 553.609375 115.800781 548.613281 130.414062 537.9375 146.664062 " fill-opacity="1" fill-rule="nonzero"/><g clip-path="url(#da483e24ac)"><path fill="#ffbf1f" d="M 333.1875 213.277344 C 343.738281 194.710938 355.585938 162.742188 356.855469 141.574219 C 359.140625 107.910156 347.144531 73.550781 324.914062 48.570312 L 361.132812 21.34375 C 380.492188 50.539062 390.667969 85.511719 389.25 120.246094 C 388.015625 153.746094 375.785156 186.867188 355.414062 213.277344 L 333.1875 213.277344 " fill-opacity="1" fill-rule="nonzero"/></g><g clip-path="url(#9dc3d89b00)"><path fill="#6d0887" d="M 565.152344 310.976562 L 564.953125 331.65625 L 564.878906 340.386719 L 564.320312 398.742188 L 563.902344 442.945312 L 562.9375 543.5625 L 562.519531 587.765625 L 561.902344 652.664062 L 135.324219 652.664062 L 134.679688 585.300781 L 134.273438 541.90625 L 133.332031 443.207031 L 132.914062 399.824219 L 132.355469 340.386719 L 132.273438 331.65625 L 132.082031 310.976562 L 565.152344 310.976562 " fill-opacity="1" fill-rule="nonzero"/></g><g clip-path="url(#56c3a69356)"><path fill="#9c00cc" d="M 564.878906 340.386719 L 564.320312 398.742188 L 563.902344 442.945312 L 562.9375 543.5625 L 562.519531 587.765625 L 561.902344 652.664062 L 135.324219 652.664062 L 134.679688 585.300781 L 134.273438 541.90625 L 133.332031 443.207031 L 132.914062 399.824219 L 132.355469 340.386719 L 564.878906 340.386719 " fill-opacity="1" fill-rule="nonzero"/></g><g clip-path="url(#d35af6e244)"><path fill="#9c00cc" d="M 583.402344 205.292969 L 583.402344 331.65625 L 113.835938 331.65625 L 113.835938 205.292969 L 583.402344 205.292969 " fill-opacity="1" fill-rule="nonzero"/></g><g clip-path="url(#2a780ee7bb)"><path fill="#c21cfb" d="M 227.804688 205.292969 L 113.835938 319.265625 L 113.835938 275.464844 L 184.007812 205.292969 L 227.804688 205.292969 " fill-opacity="1" fill-rule="nonzero"/></g><path fill="#c21cfb" d="M 192.355469 340.386719 L 236.152344 340.386719 L 133.332031 443.207031 L 132.914062 399.824219 L 192.355469 340.386719 " fill-opacity="1" fill-rule="nonzero"/><path fill="#c21cfb" d="M 371.246094 205.292969 L 265.566406 310.976562 L 244.886719 331.65625 L 201.085938 331.65625 L 221.765625 310.976562 L 327.445312 205.292969 L 371.246094 205.292969 " fill-opacity="1" fill-rule="nonzero"/><path fill="#c21cfb" d="M 514.6875 205.292969 L 134.679688 585.300781 L 134.273438 541.90625 L 470.886719 205.292969 L 514.6875 205.292969 " fill-opacity="1" fill-rule="nonzero"/><g clip-path="url(#5f8cc3ef71)"><path fill="#c21cfb" d="M 523.035156 340.386719 L 210.757812 652.664062 L 166.960938 652.664062 L 479.234375 340.386719 L 523.035156 340.386719 " fill-opacity="1" fill-rule="nonzero"/></g><g clip-path="url(#d6e4c4bb5b)"><path fill="#c21cfb" d="M 583.402344 236.21875 L 583.402344 280.015625 L 531.765625 331.65625 L 487.96875 331.65625 L 583.402344 236.21875 " fill-opacity="1" fill-rule="nonzero"/></g><g clip-path="url(#346bf157e0)"><path fill="#c21cfb" d="M 564.320312 398.742188 L 563.902344 442.945312 L 354.199219 652.664062 L 310.402344 652.664062 L 564.320312 398.742188 " fill-opacity="1" fill-rule="nonzero"/></g><g clip-path="url(#9680d13f35)"><path fill="#c21cfb" d="M 562.9375 543.5625 L 562.519531 587.765625 L 497.640625 652.664062 L 453.839844 652.664062 L 562.9375 543.5625 " fill-opacity="1" fill-rule="nonzero"/></g><g clip-path="url(#844b843a5d)"><path fill="#ffbf1f" d="M 394.558594 340.386719 L 393.925781 652.664062 L 303.304688 652.664062 L 302.675781 340.386719 L 394.558594 340.386719 " fill-opacity="1" fill-rule="nonzero"/></g><path fill="#ffbf1f" d="M 398.492188 331.660156 L 298.738281 331.660156 L 298.738281 205.296875 L 398.492188 205.296875 L 398.492188 331.660156 " fill-opacity="1" fill-rule="nonzero"/><path fill="#ffa10b" d="M 394.558594 331.65625 L 394.558594 340.386719 L 302.667969 340.386719 L 302.667969 331.65625 L 394.558594 331.65625 " fill-opacity="1" fill-rule="nonzero"/></svg>