<svg xmlns="http://www.w3.org/2000/svg" xmlns:xlink="http://www.w3.org/1999/xlink" width="900" zoomAndPan="magnify" viewBox="0 0 675 675.000002" height="900" preserveAspectRatio="xMidYMid meet" version="1.0"><defs><clipPath id="b221f564d1"><path d="M 313 16.8125 L 379 16.8125 L 379 212 L 313 212 Z M 313 16.8125 " clip-rule="nonzero"/></clipPath><clipPath id="5815289f1e"><path d="M 117.332031 310 L 557.273438 310 L 557.273438 657.113281 L 117.332031 657.113281 Z M 117.332031 310 " clip-rule="nonzero"/></clipPath><clipPath id="cfc66fb091"><path d="M 118.117188 340.316406 L 557 340.316406 L 557 657.113281 L 118.117188 657.113281 Z M 118.117188 340.316406 " clip-rule="nonzero"/></clipPath><clipPath id="aa84c6dd77"><path d="M 99.359375 203 L 575.605469 203 L 575.605469 331.722656 L 99.359375 331.722656 Z M 99.359375 203 " clip-rule="nonzero"/></clipPath><clipPath id="c615410a2f"><path d="M 99.308594 203 L 215 203 L 215 320 L 99.308594 320 Z M 99.308594 203 " clip-rule="nonzero"/></clipPath><clipPath id="2809d22fe7"><path d="M 153 340.316406 L 515 340.316406 L 515 657.113281 L 153 657.113281 Z M 153 340.316406 " clip-rule="nonzero"/></clipPath><clipPath id="f41d2d4b8a"><path d="M 478.347656 234.046875 L 575.605469 234.046875 L 575.605469 331.722656 L 478.347656 331.722656 Z M 478.347656 234.046875 " clip-rule="nonzero"/></clipPath><clipPath id="7dfd9f3131"><path d="M 298.621094 399 L 556.492188 399 L 556.492188 657.113281 L 298.621094 657.113281 Z M 298.621094 399 " clip-rule="nonzero"/></clipPath><clipPath id="f6bfea62b1"><path d="M 444 546 L 554.925781 546 L 554.925781 657.113281 L 444 657.113281 Z M 444 546 " clip-rule="nonzero"/></clipPath><clipPath id="5719c24a06"><path d="M 290.808594 340.316406 L 384.578125 340.316406 L 384.578125 657.113281 L 290.808594 657.113281 Z M 290.808594 340.316406 " clip-rule="nonzero"/></clipPath></defs><path fill="#ffa10b" d="M 315.558594 220.78125 C 299.027344 203.21875 278.71875 189.402344 256.234375 180.960938 C 220.015625 167.035156 178.285156 168.605469 143.175781 184.488281 C 143.175781 184.488281 127.820312 144.695312 127.820312 144.695312 C 164.585938 132.273438 204.980469 131.332031 241.871094 142.71875 C 277.855469 153.683594 310.15625 176.402344 333.046875 206.089844 L 315.558594 220.78125 " fill-opacity="1" fill-rule="nonzero"/><path fill="#ffa10b" d="M 339.789062 222.023438 L 318.546875 230.410156 C 317.925781 228.78125 317.273438 227.164062 316.621094 225.550781 L 318.089844 222.921875 C 316.847656 222.007812 315.609375 221.078125 314.371094 220.179688 C 299.117188 184.765625 276.472656 152.742188 245.953125 129.675781 C 233.003906 120.28125 210.523438 106.15625 193.785156 108.910156 L 190.457031 97.25 C 188.355469 89.859375 187.734375 82.160156 188.582031 74.570312 C 196.738281 74.785156 204.796875 76.957031 212.1875 79.53125 C 257.371094 95.417969 291.207031 133.203125 315.414062 173.019531 C 324.8125 188.601562 332.789062 205.238281 339.789062 222.023438 " fill-opacity="1" fill-rule="nonzero"/><path fill="#ffbf1f" d="M 316.621094 225.550781 L 306.917969 242.84375 C 268.742188 227.082031 204.339844 194.277344 170.652344 155.371094 C 167.035156 150.871094 163.785156 146.285156 160.945312 141.636719 C 160.800781 141.390625 160.652344 141.164062 160.507812 140.914062 C 156.394531 134.082031 153.199219 127.117188 151.175781 120.054688 C 149.839844 115.390625 148.84375 111.242188 148.15625 107.507812 C 147.960938 106.335938 147.765625 105.207031 147.621094 104.117188 L 147.621094 104.097656 C 147.375 102.304688 147.210938 100.625 147.132812 99.042969 C 147.160156 98.390625 147.230469 97.769531 147.308594 97.164062 C 147.570312 95.125 148.042969 93.332031 148.726562 91.734375 C 152.496094 82.808594 162.496094 80.117188 175.46875 76.140625 C 179.789062 74.820312 184.210938 74.445312 188.582031 74.570312 C 188.402344 76.171875 188.289062 77.753906 188.238281 79.351562 C 188.191406 81.210938 188.222656 83.054688 188.335938 84.917969 C 188.5 87.394531 188.808594 89.859375 189.28125 92.304688 C 189.59375 93.96875 189.984375 95.617188 190.457031 97.25 L 193.785156 108.910156 C 194.75 111.277344 195.597656 113.59375 197.308594 116.726562 C 198.53125 118.828125 199.851562 120.886719 201.257812 122.875 C 203.460938 126.039062 205.839844 129.074219 208.402344 132.0625 C 208.746094 132.480469 209.121094 132.90625 209.480469 133.332031 C 212.300781 136.59375 215.320312 139.792969 218.417969 142.988281 C 236.117188 160.871094 255.804688 176.511719 276.152344 191.941406 C 288.644531 201.488281 301.53125 210.6875 314.371094 220.179688 C 315.15625 221.960938 315.886719 223.753906 316.621094 225.550781 " fill-opacity="1" fill-rule="nonzero"/><path fill="#ffa10b" d="M 328.921875 207.070312 L 348.167969 218.832031 C 349.066406 217.382812 349.996094 215.949219 350.925781 214.523438 L 349.960938 211.75 C 351.339844 211.097656 352.71875 210.425781 354.089844 209.785156 C 375.375 178.605469 403.269531 151.96875 437.25 135.289062 C 451.601562 128.582031 476.113281 119.035156 491.976562 124.621094 L 497.324219 114.050781 C 500.714844 107.355469 502.707031 100.097656 503.246094 92.695312 C 495.234375 91.460938 486.96875 92.113281 479.28125 93.277344 C 432.261719 100.511719 392.394531 130.679688 361.5625 164.5 C 349.578125 177.742188 338.785156 192.25 328.921875 207.070312 " fill-opacity="1" fill-rule="nonzero"/><path fill="#ffbf1f" d="M 529.550781 143.933594 C 527.316406 147.328125 524.722656 150.675781 521.816406 153.9375 C 486.324219 193.886719 404.445312 222.984375 357.300781 232.773438 L 350.921875 214.523438 C 351.96875 212.929688 353 211.347656 354.085938 209.78125 C 368.347656 202.972656 382.597656 196.445312 396.539062 189.511719 C 419.191406 178.34375 441.242188 166.859375 461.761719 152.863281 C 467.175781 149.09375 472.367188 145.3125 477.144531 141.207031 C 480.703125 138.179688 484.054688 134.949219 487.117188 131.46875 C 489.363281 128.777344 490.605469 126.707031 491.976562 124.621094 L 497.324219 114.058594 C 500.710938 107.34375 502.703125 100.097656 503.234375 92.695312 C 507.53125 93.335938 526.902344 101.542969 530.734375 103.832031 C 545.445312 112.628906 540.375 127.449219 529.550781 143.933594 " fill-opacity="1" fill-rule="nonzero"/><g clip-path="url(#b221f564d1)"><path fill="#ffbf1f" d="M 321.859375 211.503906 C 332.566406 192.667969 344.582031 160.242188 345.871094 138.769531 C 348.1875 104.621094 336.019531 69.773438 313.46875 44.433594 L 350.207031 16.8125 C 369.84375 46.429688 380.164062 81.902344 378.726562 117.136719 C 377.476562 151.117188 365.070312 184.710938 344.40625 211.503906 L 321.859375 211.503906 " fill-opacity="1" fill-rule="nonzero"/></g><g clip-path="url(#5815289f1e)"><path fill="#6d0887" d="M 557.15625 310.601562 L 556.953125 331.578125 L 556.878906 340.433594 L 556.308594 399.625 L 555.886719 444.464844 L 554.910156 546.527344 L 554.484375 591.363281 L 553.855469 657.191406 L 121.160156 657.191406 L 120.503906 588.863281 L 120.09375 544.847656 L 119.140625 444.730469 L 118.714844 400.726562 L 118.148438 340.433594 L 118.066406 331.578125 L 117.871094 310.601562 L 557.15625 310.601562 " fill-opacity="1" fill-rule="nonzero"/></g><g clip-path="url(#cfc66fb091)"><path fill="#175cd3" d="M 556.878906 340.433594 L 556.308594 399.625 L 555.886719 444.464844 L 554.910156 546.527344 L 554.484375 591.363281 L 553.855469 657.191406 L 121.160156 657.191406 L 120.503906 588.863281 L 120.09375 544.847656 L 119.140625 444.730469 L 118.714844 400.726562 L 118.148438 340.433594 L 556.878906 340.433594 " fill-opacity="1" fill-rule="nonzero"/></g><g clip-path="url(#aa84c6dd77)"><path fill="#175cd3" d="M 575.664062 203.40625 L 575.664062 331.578125 L 99.359375 331.578125 L 99.359375 203.40625 L 575.664062 203.40625 " fill-opacity="1" fill-rule="nonzero"/></g><g clip-path="url(#c615410a2f)"><path fill="#1570ef" d="M 214.964844 203.40625 L 99.359375 319.011719 L 99.359375 274.585938 L 170.539062 203.40625 L 214.964844 203.40625 " fill-opacity="1" fill-rule="nonzero"/></g><path fill="#1570ef" d="M 179.011719 340.433594 L 223.4375 340.433594 L 119.140625 444.730469 L 118.714844 400.726562 L 179.011719 340.433594 " fill-opacity="1" fill-rule="nonzero"/><path fill="#1570ef" d="M 360.464844 203.40625 L 232.292969 331.578125 L 187.867188 331.578125 L 208.84375 310.601562 L 316.035156 203.40625 L 360.464844 203.40625 " fill-opacity="1" fill-rule="nonzero"/><path fill="#1570ef" d="M 505.964844 203.40625 L 120.503906 588.863281 L 120.09375 544.847656 L 461.535156 203.40625 L 505.964844 203.40625 " fill-opacity="1" fill-rule="nonzero"/><g clip-path="url(#2809d22fe7)"><path fill="#1570ef" d="M 514.429688 340.433594 L 197.675781 657.191406 L 153.25 657.191406 L 470.003906 340.433594 L 514.429688 340.433594 " fill-opacity="1" fill-rule="nonzero"/></g><g clip-path="url(#f41d2d4b8a)"><path fill="#1570ef" d="M 575.664062 234.773438 L 575.664062 279.199219 L 523.289062 331.578125 L 478.863281 331.578125 L 575.664062 234.773438 " fill-opacity="1" fill-rule="nonzero"/></g><g clip-path="url(#7dfd9f3131)"><path fill="#1570ef" d="M 556.308594 399.625 L 555.886719 444.464844 L 343.175781 657.191406 L 298.746094 657.191406 L 556.308594 399.625 " fill-opacity="1" fill-rule="nonzero"/></g><g clip-path="url(#f6bfea62b1)"><path fill="#1570ef" d="M 554.910156 546.527344 L 554.484375 591.363281 L 488.671875 657.191406 L 444.242188 657.191406 L 554.910156 546.527344 " fill-opacity="1" fill-rule="nonzero"/></g><g clip-path="url(#5719c24a06)"><path fill="#ffbf1f" d="M 384.113281 340.433594 L 383.46875 657.191406 L 291.550781 657.191406 L 290.914062 340.433594 L 384.113281 340.433594 " fill-opacity="1" fill-rule="nonzero"/></g><path fill="#ffbf1f" d="M 388.105469 331.582031 L 286.917969 331.582031 L 286.917969 203.40625 L 388.105469 203.40625 L 388.105469 331.582031 " fill-opacity="1" fill-rule="nonzero"/><path fill="#ffa10b" d="M 384.113281 331.578125 L 384.113281 340.433594 L 290.902344 340.433594 L 290.902344 331.578125 L 384.113281 331.578125 " fill-opacity="1" fill-rule="nonzero"/></svg>