<svg width="60" height="60" viewBox="0 0 60 60" fill="none" xmlns="http://www.w3.org/2000/svg">
<g clip-path="url(#clip0_1015_55980)">
<rect width="60" height="60" rx="30" fill="#FAF5F9"/>
<path d="M41.1706 35.4842L40.0352 20.8844C40.0352 20.8844 43.3651 18.5033 45.3451 22.6939C47.327 26.8824 42.2217 40.8202 44.972 42.1061C44.972 42.1061 40.5988 41.9316 41.1706 35.4842Z" fill="#591315"/>
<mask id="mask0_1015_55980" style="mask-type:luminance" maskUnits="userSpaceOnUse" x="15" y="8" width="27" height="26">
<path d="M15.2285 8.57153H41.9326V33.5424H15.2285V8.57153Z" fill="white"/>
</mask>
<g mask="url(#mask0_1015_55980)">
<path d="M41.5898 20.9467C41.5898 21.3519 41.5678 21.7571 41.5276 22.1603C41.4855 22.5635 41.4233 22.9627 41.3391 23.3599C41.2568 23.7591 41.1525 24.1503 41.0301 24.5394C40.9058 24.9266 40.7633 25.3077 40.5989 25.6829C40.4364 26.056 40.2558 26.4231 40.0552 26.7801C39.8546 27.1372 39.636 27.4843 39.3993 27.8213C39.1625 28.1583 38.9078 28.4833 38.639 28.7982C38.3682 29.1111 38.0833 29.41 37.7824 29.6969C37.4815 29.9838 37.1666 30.2546 36.8376 30.5133C36.5066 30.7701 36.1656 31.0108 35.8125 31.2355C35.4574 31.4622 35.0923 31.6688 34.7172 31.8614C34.3421 32.052 33.9589 32.2245 33.5638 32.3789C33.1706 32.5354 32.7714 32.6718 32.3642 32.7882C31.9569 32.9065 31.5437 33.0048 31.1264 33.0831C30.7092 33.1633 30.2879 33.2215 29.8647 33.2616C29.4414 33.3017 29.0161 33.3218 28.5908 33.3218C28.1636 33.3218 27.7403 33.3017 27.315 33.2616C26.8917 33.2215 26.4725 33.1633 26.0532 33.0831C25.636 33.0048 25.2247 32.9065 24.8175 32.7882C24.4083 32.6718 24.0091 32.5354 23.6159 32.3789C23.2227 32.2245 22.8376 32.052 22.4625 31.8614C22.0873 31.6688 21.7222 31.4622 21.3672 31.2355C21.0141 31.0108 20.6731 30.7701 20.3441 30.5133C20.0151 30.2546 19.7002 29.9838 19.3973 29.6969C19.0964 29.41 18.8115 29.1111 18.5407 28.7982C18.2719 28.4833 18.0171 28.1583 17.7824 27.8213C17.5457 27.4843 17.3271 27.1372 17.1265 26.7801C16.9259 26.4231 16.7433 26.056 16.5808 25.6829C16.4183 25.3077 16.2739 24.9266 16.1515 24.5394C16.0272 24.1503 15.9228 23.7591 15.8406 23.3599C15.7583 22.9627 15.6942 22.5635 15.654 22.1603C15.6119 21.7571 15.5898 21.3519 15.5898 20.9467C15.5898 20.5414 15.6119 20.1362 15.654 19.733C15.6942 19.3298 15.7583 18.9306 15.8406 18.5314C15.9228 18.1342 16.0272 17.741 16.1515 17.3539C16.2739 16.9667 16.4183 16.5856 16.5808 16.2104C16.7433 15.8353 16.9259 15.4702 17.1265 15.1132C17.3271 14.7561 17.5457 14.409 17.7824 14.072C18.0171 13.735 18.2719 13.408 18.5407 13.0951C18.8115 12.7822 19.0964 12.4833 19.3973 12.1964C19.7002 11.9095 20.0151 11.6367 20.3441 11.38C20.6731 11.1232 21.0141 10.8825 21.3672 10.6578C21.7222 10.4311 22.0873 10.2245 22.4625 10.0319C22.8376 9.84134 23.2227 9.66882 23.6159 9.51236C24.0091 9.35789 24.4083 9.22148 24.8175 9.10313C25.2247 8.98678 25.636 8.88848 26.0532 8.80824C26.4725 8.73001 26.8917 8.66983 27.315 8.63171C27.7403 8.59159 28.1636 8.57153 28.5908 8.57153C29.0161 8.57153 29.4414 8.59159 29.8647 8.63171C30.2879 8.66983 30.7092 8.73001 31.1264 8.80824C31.5437 8.88848 31.9569 8.98678 32.3642 9.10313C32.7714 9.22148 33.1706 9.35789 33.5638 9.51236C33.9589 9.66882 34.3421 9.84134 34.7172 10.0319C35.0923 10.2245 35.4574 10.4311 35.8125 10.6578C36.1656 10.8825 36.5086 11.1232 36.8376 11.38C37.1666 11.6367 37.4815 11.9095 37.7824 12.1964C38.0833 12.4833 38.3682 12.7822 38.639 13.0951C38.9078 13.408 39.1625 13.735 39.3993 14.072C39.636 14.409 39.8546 14.7561 40.0552 15.1132C40.2558 15.4702 40.4364 15.8353 40.5989 16.2104C40.7633 16.5856 40.9058 16.9667 41.0301 17.3539C41.1525 17.741 41.2568 18.1342 41.3391 18.5314C41.4233 18.9306 41.4855 19.3298 41.5276 19.733C41.5678 20.1362 41.5898 20.5414 41.5898 20.9467Z" fill="#591315"/>
</g>
<path d="M38.8832 53.1091C38.8832 53.1091 38.133 54.6036 38.8832 55.9416C39.6355 57.2816 39.451 57.6528 40.2794 57.6528C41.1079 57.6528 40.2794 55.9416 40.2794 55.9416C40.2794 55.9416 41.3747 55.7149 41.5633 55.9416C41.7539 56.1683 41.5593 57.747 41.5633 58.8584C41.5693 59.9717 42.7649 60.5274 43.4108 59.3218C44.0548 58.1161 43.8702 55.4281 43.8702 55.4281L42.3055 53.1091H38.8832Z" fill="#EBBA79"/>
<path d="M37.3091 38.4192L36.1878 55.5365C36.0875 57.0872 35.277 58.3851 34.1617 58.7822L32.4385 59.3961C32.258 59.4603 32.0774 59.5205 31.8969 59.5726C29.933 60.1564 27.8969 60.1403 25.935 59.5285C25.8026 59.4864 25.6702 59.4442 25.5398 59.3961L23.8167 58.7822C22.7013 58.3851 21.8889 57.0872 21.7886 55.5365L20.6692 38.4192C20.5248 36.2326 21.8187 34.3068 23.4415 34.4031C23.5017 34.4051 23.5639 34.4111 23.6221 34.4212L26.5428 34.8424L28.6973 35.1534C28.8919 35.1815 29.0865 35.1815 29.2811 35.1534L31.2289 34.8725L33.8628 34.4914L34.3543 34.4212C34.4145 34.4111 34.4746 34.4051 34.5348 34.4031C36.1597 34.3068 37.4516 36.2326 37.3091 38.4192Z" fill="#EBD8A5"/>
<path d="M15.0967 41.0067L19.7165 43.3117L24.7175 37.6547L24.4768 35.8633C24.3223 34.7279 22.21 34.3167 21.209 35.2294L15.0967 41.0067Z" fill="#EBD8A5"/>
<path d="M41.5879 44.2105L35.9972 44.8103L32.6973 38.0922L33.3753 36.4212C33.8066 35.36 35.9069 35.4904 36.621 36.6218L41.5879 44.2105Z" fill="#EBD8A5"/>
<path d="M18.7893 50.9447L23.0019 47.723L19.7803 43.1714L15.1885 40.9307C14.4423 41.4141 14.3018 42.9427 15.1624 43.6247L18.7893 50.9447Z" fill="#EBD8A5"/>
<path d="M34.7715 44.8342L38.3923 53.8332L43.9269 53.1732L41.6662 44.2986C41.6662 44.2966 39.6722 41.7289 34.7715 44.8342Z" fill="#EBD8A5"/>
<path d="M26.4639 31.9116H31.2723V36.5696H26.4639V31.9116Z" fill="#EBBA79"/>
<path d="M32.149 33.5023H25.0999C21.9163 33.5023 19.3125 30.8785 19.3125 27.6708V18.5394C19.3125 15.3338 21.9163 12.71 25.0999 12.71H32.149C35.3326 12.71 37.9384 15.3338 37.9384 18.5394V27.6708C37.9384 30.8785 35.3326 33.5023 32.149 33.5023Z" fill="#EBBA79"/>
<path d="M27.2652 23.7049C27.2652 23.9035 27.2431 24.0941 27.201 24.2786C27.1569 24.4632 27.0967 24.6257 27.0184 24.7661C26.9382 24.9065 26.8479 25.0168 26.7436 25.0931C26.6413 25.1693 26.533 25.2074 26.4207 25.2074C26.3103 25.2074 26.202 25.1693 26.0977 25.0931C25.9954 25.0168 25.9051 24.9065 25.8249 24.7661C25.7466 24.6257 25.6844 24.4632 25.6423 24.2786C25.6002 24.0941 25.5781 23.9035 25.5781 23.7049C25.5781 23.5043 25.6002 23.3137 25.6423 23.1292C25.6844 22.9446 25.7466 22.7821 25.8249 22.6417C25.9051 22.5013 25.9954 22.393 26.0977 22.3167C26.202 22.2405 26.3103 22.2024 26.4207 22.2024C26.533 22.2024 26.6413 22.2405 26.7436 22.3167C26.8479 22.393 26.9382 22.5013 27.0184 22.6417C27.0967 22.7821 27.1569 22.9446 27.201 23.1292C27.2431 23.3137 27.2652 23.5043 27.2652 23.7049Z" fill="#1A1614"/>
<path d="M25.0821 21.0391C25.054 21.0391 25.0259 21.0311 25.0019 21.011C24.9477 20.9669 24.9377 20.8867 24.9818 20.8305C25.2847 20.4433 25.7922 20.2126 26.3379 20.2126C26.8755 20.2126 27.379 20.4373 27.6839 20.8165C27.728 20.8706 27.722 20.9529 27.6658 20.997C27.6117 21.0431 27.5314 21.0351 27.4873 20.9789C27.2285 20.66 26.7992 20.4694 26.3379 20.4694C25.8705 20.4694 25.4392 20.664 25.1824 20.989C25.1583 21.0231 25.1202 21.0391 25.0821 21.0391Z" fill="#1A1614"/>
<path d="M31.3169 23.7049C31.3169 23.9035 31.2949 24.0941 31.2528 24.2786C31.2086 24.4632 31.1484 24.6257 31.0702 24.7661C30.99 24.9065 30.8997 25.0168 30.7954 25.0931C30.6931 25.1693 30.5847 25.2074 30.4724 25.2074C30.3621 25.2074 30.2538 25.1693 30.1514 25.0931C30.0471 25.0168 29.9569 24.9065 29.8766 24.7661C29.7984 24.6257 29.7382 24.4632 29.6941 24.2786C29.6519 24.0941 29.6299 23.9035 29.6299 23.7049C29.6299 23.5043 29.6519 23.3137 29.6941 23.1292C29.7382 22.9446 29.7984 22.7821 29.8766 22.6417C29.9569 22.5013 30.0471 22.393 30.1514 22.3167C30.2538 22.2405 30.3621 22.2024 30.4724 22.2024C30.5847 22.2024 30.6931 22.2405 30.7954 22.3167C30.8997 22.393 30.99 22.5013 31.0702 22.6417C31.1484 22.7821 31.2086 22.9446 31.2528 23.1292C31.2949 23.3137 31.3169 23.5043 31.3169 23.7049Z" fill="#1A1614"/>
<path d="M29.1364 21.0391C29.1083 21.0391 29.0803 21.0311 29.0562 21.011C29 20.9669 28.992 20.8867 29.0361 20.8305C29.341 20.4433 29.8486 20.2126 30.3942 20.2126C30.9318 20.2126 31.4333 20.4373 31.7402 20.8165C31.7844 20.8706 31.7763 20.9529 31.7202 20.997C31.666 21.0431 31.5858 21.0351 31.5416 20.9789C31.2829 20.66 30.8556 20.4694 30.3942 20.4694C29.9268 20.4694 29.4935 20.664 29.2367 20.989C29.2107 21.0231 29.1745 21.0391 29.1364 21.0391Z" fill="#1A1614"/>
<path d="M25.935 22.7881L25.6983 23.7048C25.6983 23.7048 25.0323 23.3117 24.9541 22.3528C24.9541 22.3528 25.5459 22.9626 25.935 22.7881Z" fill="#1A1614"/>
<path d="M30.9121 22.7881L31.1488 23.7048C31.1488 23.7048 31.8128 23.3117 31.891 22.3528C31.891 22.3528 31.3013 22.9626 30.9121 22.7881Z" fill="#1A1614"/>
<path d="M30.9115 28.1622C30.9115 29.0709 29.7962 29.8071 28.422 29.8071C27.0479 29.8071 25.9346 29.0709 25.9346 28.1622C25.9346 27.2514 27.0479 27.444 28.422 27.444C29.7962 27.444 30.9115 27.2514 30.9115 28.1622Z" fill="#EB8A7F"/>
<path d="M33.754 25.5304C33.6678 25.5023 33.5735 25.5485 33.5454 25.6347C32.8493 27.6989 30.3538 28.3689 28.4301 28.3188C28.418 28.3188 28.408 28.3188 28.3959 28.3208C26.5504 28.2767 24.3618 27.5746 23.7059 25.6709C23.6758 25.5846 23.5835 25.5385 23.4973 25.5685C23.411 25.6006 23.3649 25.6949 23.3949 25.7792C24.0489 27.6709 26.0549 28.4672 27.8904 28.6237C28.2194 28.6518 28.5424 28.6598 28.8513 28.6498C28.8553 28.6498 28.8593 28.6478 28.8634 28.6478C29.0339 28.6438 29.2064 28.6317 29.3809 28.6177C31.2164 28.4472 33.2164 27.6347 33.8563 25.7411C33.8844 25.6548 33.8383 25.5605 33.754 25.5304Z" fill="#1A1614"/>
<path d="M27.3192 44.2183C27.3513 44.2183 27.3834 44.2183 27.4155 44.2183C27.4596 44.2183 27.4997 44.2103 27.5379 44.1903C27.578 44.1762 27.6121 44.1541 27.6402 44.1241C27.6723 44.094 27.6943 44.0599 27.7064 44.0197C27.7264 43.9816 27.7365 43.9415 27.7345 43.8974C27.7304 43.8693 27.7264 43.8392 27.7224 43.8111C27.7084 43.757 27.6803 43.7088 27.6402 43.6707C27.6201 43.6526 27.598 43.6366 27.576 43.6205C27.5278 43.5905 27.4737 43.5764 27.4155 43.5764C27.3834 43.5764 27.3513 43.5764 27.3192 43.5764C27.2751 43.5764 27.2329 43.5844 27.1968 43.6045C27.1567 43.6185 27.1226 43.6406 27.0945 43.6707C27.0624 43.7008 27.0404 43.7349 27.0283 43.775C27.0083 43.8131 26.9982 43.8532 27.0003 43.8974C27.0043 43.9255 27.0083 43.9556 27.0123 43.9836C27.0263 44.0378 27.0544 44.0859 27.0945 44.1241C27.1146 44.1401 27.1367 44.1582 27.1587 44.1742C27.2069 44.2023 27.261 44.2183 27.3192 44.2183Z" fill="white"/>
<path d="M33.8648 34.4672C33.8648 34.4752 33.8648 34.4832 33.8628 34.4913C33.5659 45.404 31.9872 54.6698 31.8969 59.5725C29.933 60.1562 27.8969 60.1402 25.935 59.5284C25.935 54.2927 23.6662 34.7841 23.6221 34.4211C23.6221 34.417 23.6221 34.415 23.6221 34.415L26.4205 34.5033C26.4566 34.6237 26.4967 34.736 26.5428 34.8423C26.9862 35.8534 27.941 36.3649 28.8979 36.3649C29.8347 36.3649 30.7715 35.8734 31.2289 34.8724C31.259 34.8042 31.2891 34.734 31.3151 34.6598C31.3171 34.6578 31.3171 34.6558 31.3212 34.6558L33.8648 34.4672Z" fill="#F4F2F4"/>
<path d="M19.0665 50.7719C19.0665 50.7719 18.4346 53.6867 20.577 54.5733C22.7194 55.46 23.1447 54.6476 23.7806 53.5783C24.4165 52.5071 22.2621 51.139 22.1878 50.5794C22.1598 50.3667 22.3764 50.0518 22.6252 49.7067C23.0344 49.1451 23.5279 48.5091 23.1748 48.138C22.6051 47.5382 21.9351 47.5523 21.9351 47.5523L19.0665 50.7719Z" fill="#EBBA79"/>
<path d="M24.0146 38.0901C25.2624 38.3468 26.5282 38.4993 27.8 38.5474C29.0798 38.5956 30.3637 38.5394 31.6355 38.3749C32.3436 38.2827 33.0477 38.1603 33.7458 38.0038C33.8261 37.9858 33.792 37.8634 33.7117 37.8815C32.476 38.1583 31.2182 38.3328 29.9544 38.403C28.6967 38.4732 27.4309 38.4391 26.1771 38.3027C25.463 38.2245 24.7528 38.1121 24.0487 37.9697C23.9685 37.9517 23.9364 38.074 24.0146 38.0901Z" fill="#1A1614"/>
<path d="M24.2539 40.2608C25.4555 40.5096 26.6772 40.6661 27.9028 40.7222C29.1265 40.7784 30.3582 40.7383 31.5758 40.5999C32.2579 40.5236 32.9379 40.4153 33.6099 40.2789C33.6902 40.2629 33.6561 40.1405 33.5758 40.1585C32.3843 40.3993 31.1746 40.5477 29.961 40.5999C28.7514 40.65 27.5357 40.6079 26.3321 40.4695C25.6461 40.3912 24.964 40.2789 24.288 40.1405C24.2077 40.1224 24.1757 40.2448 24.2539 40.2608Z" fill="#1A1614"/>
<path d="M24.4883 42.427C25.6317 42.6698 26.7932 42.8242 27.9607 42.8904C29.1382 42.9586 30.3198 42.9346 31.4933 42.8222C32.1473 42.76 32.8012 42.6678 33.4492 42.5514C33.5274 42.5374 33.4933 42.413 33.4151 42.429C32.2716 42.6357 31.1101 42.758 29.9487 42.7921C28.7852 42.8242 27.6197 42.7721 26.4642 42.6296C25.8123 42.5494 25.1643 42.4411 24.5204 42.3047C24.4421 42.2886 24.408 42.411 24.4883 42.427Z" fill="#1A1614"/>
<path d="M24.7152 44.5935C25.8105 44.8282 26.9218 44.9847 28.0372 45.0589C29.1545 45.1332 30.2739 45.1271 31.3892 45.0389C32.0151 44.9887 32.639 44.9145 33.2589 44.8162C33.3371 44.8022 33.303 44.6818 33.2247 44.6938C32.1315 44.8684 31.0241 44.9647 29.9168 44.9807C28.8095 44.9968 27.7002 44.9326 26.6009 44.7921C25.979 44.7119 25.3612 44.6036 24.7493 44.4712C24.6711 44.4551 24.637 44.5775 24.7152 44.5935Z" fill="#1A1614"/>
<path d="M24.9374 46.7581C25.9725 46.9848 27.0256 47.1392 28.0808 47.2215C29.144 47.3057 30.2112 47.3138 31.2744 47.2496C31.8682 47.2155 32.4579 47.1553 33.0477 47.075C33.1279 47.065 33.0938 46.9426 33.0136 46.9527C31.9685 47.0971 30.9133 47.1653 29.8601 47.1653C28.811 47.1633 27.7618 47.0931 26.7227 46.9487C26.135 46.8664 25.5512 46.7621 24.9715 46.6357C24.8912 46.6197 24.8571 46.742 24.9374 46.7581Z" fill="#1A1614"/>
<path d="M25.1488 48.9205C27.1007 49.3558 29.1067 49.5363 31.1027 49.4561C31.6724 49.432 32.2401 49.3899 32.8058 49.3237C32.886 49.3157 32.886 49.1873 32.8058 49.1973C30.8218 49.422 28.8078 49.3919 26.8319 49.103C26.2782 49.0208 25.7286 48.9185 25.1829 48.7961C25.1047 48.7801 25.0706 48.9024 25.1488 48.9205Z" fill="#1A1614"/>
<path d="M25.351 51.081C27.1885 51.4982 29.0761 51.6888 30.9598 51.6507C31.4974 51.6406 32.035 51.6106 32.5706 51.5624C32.6509 51.5544 32.6509 51.428 32.5706 51.434C30.695 51.6025 28.8013 51.5464 26.9397 51.2575C26.4182 51.1752 25.9006 51.077 25.3851 50.9586C25.3068 50.9405 25.2727 51.0629 25.351 51.081Z" fill="#1A1614"/>
<path d="M25.542 53.2377C27.2752 53.6409 29.0525 53.8435 30.8319 53.8395C31.3354 53.8375 31.8369 53.8194 32.3404 53.7874C32.4206 53.7813 32.4206 53.655 32.3404 53.659C30.5711 53.7773 28.7897 53.6951 27.0385 53.4062C26.547 53.324 26.0595 53.2277 25.5741 53.1153C25.4959 53.0973 25.4618 53.2197 25.542 53.2377Z" fill="#1A1614"/>
<path d="M25.7118 55.3879C27.3427 55.777 29.0137 55.9897 30.6887 56.0177C31.1682 56.0258 31.6456 56.0177 32.125 55.9977C32.2053 55.9937 32.2053 55.8653 32.125 55.8693C30.452 55.9435 28.771 55.8392 27.122 55.5503C26.6606 55.4701 26.2013 55.3758 25.7459 55.2655C25.6656 55.2474 25.6315 55.3698 25.7118 55.3879Z" fill="#1A1614"/>
<path d="M31.9572 58.0678C30.3423 58.1079 28.7255 57.9795 27.1387 57.6806C26.6954 57.5964 26.2521 57.5021 25.8148 57.3918C25.7365 57.3697 25.7024 57.4941 25.7807 57.5121C27.3494 57.9093 28.9662 58.132 30.5831 58.1882C31.0404 58.2022 31.4998 58.2062 31.9572 58.1942C32.0374 58.1922 32.0374 58.0658 31.9572 58.0678Z" fill="#1A1614"/>
<path d="M26.2374 34.5534C26.5765 35.6968 27.6276 36.5173 28.8071 36.5534C29.9867 36.5915 31.1562 35.8814 31.5012 34.7059C31.5714 34.4692 31.2043 34.3689 31.1361 34.6056C30.4862 36.8182 27.2244 36.5394 26.6025 34.4531C26.5323 34.2184 26.1672 34.3167 26.2374 34.5534Z" fill="#1A1614"/>
<path d="M19.3908 28.6178C19.3908 28.6178 19.6356 21.7351 24.9555 17.0551C24.9555 17.0551 32.0207 17.7692 32.6967 13.2176C32.6967 13.2176 34.8572 23.4743 36.5363 25.2055C38.2153 26.9347 37.5332 29.8073 37.5332 29.8073C37.5332 29.8073 44.0708 10.9428 29.0077 11.009C13.9445 11.0752 19.3908 28.6178 19.3908 28.6178Z" fill="#7C2925"/>
</g>
<rect x="0.5" y="0.5" width="59" height="59" rx="29.5" stroke="#DBB7EA"/>
<defs>
<clipPath id="clip0_1015_55980">
<rect width="60" height="60" rx="30" fill="white"/>
</clipPath>
</defs>
</svg>
