<svg width="60" height="60" viewBox="0 0 60 60" fill="none" xmlns="http://www.w3.org/2000/svg">
<g clip-path="url(#clip0_1015_55672)">
<rect width="60" height="60" rx="30" fill="#FAF5F9"/>
<path d="M21.0197 26.3335C19.789 27.0867 18.3984 27.0527 17.9109 26.2595C17.4234 25.4663 18.0288 24.2136 19.2595 23.4604C20.4903 22.7071 20.0487 23.862 20.5342 24.6552C21.0197 25.4484 22.2525 25.5802 21.0197 26.3335Z" fill="#151724"/>
<path d="M22.8839 25.0169C21.9389 26.1078 20.6042 26.4974 19.8989 25.89C19.1936 25.2806 19.3875 23.904 20.3325 22.8151C21.2755 21.7242 21.2056 22.957 21.9089 23.5664C22.6162 24.1757 23.829 23.926 22.8839 25.0169Z" fill="#152031"/>
<path d="M17.9684 28.8151C17.0254 29.906 15.6887 30.2956 14.9834 29.6862C14.2801 29.0789 14.4739 27.7002 15.417 26.6113C16.362 25.5204 16.2901 26.7552 16.9954 27.3646C17.7007 27.974 18.9135 27.7242 17.9684 28.8151Z" fill="#151724"/>
<path d="M19.2154 27.5383C18.0426 28.3795 16.652 28.4474 16.1085 27.6942C15.5631 26.9389 16.0725 25.6442 17.2434 24.8031C18.4142 23.9599 18.0605 25.1448 18.604 25.902C19.1474 26.6572 20.3862 26.6972 19.2154 27.5383Z" fill="#152031"/>
<path d="M16.2258 31.6284C15.9281 33.039 14.9471 34.026 14.036 33.8322C13.1229 33.6404 12.6254 32.3437 12.9251 30.9331C13.2248 29.5225 13.7603 30.6354 14.6714 30.8292C15.5824 31.021 16.5235 30.2178 16.2258 31.6284Z" fill="#151724"/>
<path d="M16.864 30.1437C16.1547 31.4004 14.9219 32.0457 14.1108 31.5882C13.2996 31.1307 13.2177 29.7441 13.927 28.4893C14.6342 27.2326 14.8121 28.4574 15.6212 28.9149C16.4344 29.3724 17.5753 28.8889 16.864 30.1437Z" fill="#152031"/>
<path d="M12.5657 37.4704C12.5497 35.1667 13.291 33.2926 14.224 33.2866C15.1551 33.2806 15.9243 35.1428 15.9423 37.4464C15.9583 39.7501 15.191 38.1897 14.26 38.1977C13.3269 38.2037 12.5837 39.7761 12.5657 37.4704Z" fill="#151724"/>
<path d="M14.1506 33.6664C14.1227 33.7603 14.1406 33.8662 14.1986 33.9461C14.2146 33.9681 14.2366 33.9801 14.2645 33.9761C14.2905 33.9721 14.3085 33.9541 14.3185 33.9301C14.3604 33.8202 14.3804 33.7004 14.3764 33.5845C14.3744 33.5505 14.3464 33.5186 14.3105 33.5186C14.2765 33.5206 14.2445 33.5465 14.2465 33.5845C14.2465 33.6125 14.2465 33.6404 14.2445 33.6684C14.2425 33.6804 14.2425 33.6944 14.2405 33.7044C14.2405 33.7084 14.2405 33.7124 14.2405 33.7164C14.2405 33.7104 14.2405 33.7104 14.2405 33.7184C14.2386 33.7243 14.2386 33.7303 14.2366 33.7363C14.2286 33.7903 14.2126 33.8442 14.1926 33.8962C14.2326 33.8902 14.2725 33.8842 14.3105 33.8802C14.2985 33.8642 14.2905 33.8482 14.2825 33.8322C14.2885 33.8442 14.2825 33.8302 14.2805 33.8282C14.2805 33.8242 14.2785 33.8202 14.2765 33.8163C14.2745 33.8083 14.2725 33.7983 14.2705 33.7883C14.2705 33.7863 14.2685 33.7723 14.2685 33.7823C14.2705 33.7923 14.2685 33.7783 14.2685 33.7763C14.2685 33.7663 14.2685 33.7563 14.2685 33.7443C14.2685 33.7423 14.2705 33.7363 14.2705 33.7323C14.2685 33.7443 14.2705 33.7243 14.2705 33.7323C14.2725 33.7223 14.2745 33.7124 14.2785 33.7024C14.2885 33.6704 14.2665 33.6304 14.2326 33.6224C14.1966 33.6125 14.1626 33.6324 14.1506 33.6664Z" fill="#E83B3A"/>
<path d="M13.8607 33.5344C13.4191 33.5025 13.0195 33.2987 12.6179 33.1369C12.2762 32.999 11.7847 32.8012 11.4371 33.021C11.1294 33.2128 11.0815 33.6683 11.2073 33.984C11.2733 34.1498 11.4011 34.2737 11.579 34.3197C11.7847 34.3736 12.0145 34.3396 12.2223 34.3157C12.7358 34.2557 13.2333 34.1159 13.7028 33.9041C13.7787 33.8701 13.7128 33.7582 13.6389 33.7922C13.2553 33.964 12.8537 34.0859 12.4401 34.1558C12.2383 34.1898 12.0305 34.2158 11.8267 34.2158C11.6369 34.2178 11.4531 34.1738 11.3572 33.998C11.2073 33.7283 11.2433 33.2567 11.549 33.1089C11.7188 33.025 11.9266 33.0569 12.1024 33.1009C12.2902 33.1468 12.4701 33.2168 12.6479 33.2887C13.0415 33.4505 13.4311 33.6343 13.8607 33.6643C13.9446 33.6703 13.9426 33.5404 13.8607 33.5344Z" fill="#E83B3A"/>
<path d="M15.0613 33.6024C15.1093 33.4625 15.2491 33.3886 15.381 33.3447C15.5388 33.2927 15.7067 33.2667 15.8725 33.2528C16.2142 33.2288 16.5778 33.2687 16.8955 33.3986C17.0194 33.4506 17.1632 33.5325 17.2052 33.6703C17.2531 33.8262 17.1392 33.98 17.0194 34.0639C16.7356 34.2617 16.37 34.2018 16.0563 34.1239C15.6447 34.022 15.2352 33.9101 14.8256 33.8042C14.7436 33.7842 14.7097 33.9081 14.7896 33.9281C15.2312 34.042 15.6687 34.1698 16.1123 34.2697C16.4579 34.3496 16.8555 34.3736 17.1432 34.1299C17.2691 34.024 17.363 33.8621 17.343 33.6943C17.321 33.5365 17.2032 33.4186 17.0693 33.3407C16.9135 33.2488 16.7276 33.2028 16.5518 33.1668C16.354 33.1289 16.1482 33.1109 15.9464 33.1209C15.7327 33.1289 15.5049 33.1588 15.3031 33.2368C15.1392 33.2987 14.9954 33.3966 14.9355 33.5684C14.9075 33.6464 15.0334 33.6783 15.0613 33.6024Z" fill="#E83B3A"/>
<path d="M13.5628 33.7523C13.1053 34.4476 12.5878 35.103 12.0184 35.7083C11.9624 35.7703 12.0544 35.8622 12.1103 35.8003C12.6877 35.1869 13.2112 34.5235 13.6747 33.8183C13.7207 33.7483 13.6088 33.6844 13.5628 33.7523Z" fill="#E83B3A"/>
<path d="M14.5196 33.868C15.0071 34.3895 15.4926 34.9089 15.9801 35.4304C16.0381 35.4924 16.13 35.4004 16.072 35.3385C15.5845 34.817 15.099 34.2976 14.6115 33.7761C14.5536 33.7161 14.4636 33.8081 14.5196 33.868Z" fill="#E83B3A"/>
<path d="M38.7834 26.3335C40.0142 27.0867 41.4068 27.0527 41.8943 26.2595C42.3798 25.4663 41.7764 24.2136 40.5457 23.4604C39.3149 22.7071 39.7565 23.862 39.2709 24.6552C38.7834 25.4484 37.5527 25.5802 38.7834 26.3335Z" fill="#151724"/>
<path d="M36.9194 25.0169C37.8645 26.1078 39.1991 26.4974 39.9044 25.89C40.6097 25.2806 40.4159 23.904 39.4728 22.8151C38.5298 21.7242 38.5997 22.957 37.8944 23.5664C37.1891 24.1757 35.9764 23.926 36.9194 25.0169Z" fill="#152031"/>
<path d="M41.8345 28.8152C42.7775 29.9061 44.1142 30.2957 44.8195 29.6863C45.5228 29.079 45.329 27.7003 44.3859 26.6114C43.4429 25.5225 43.5128 26.7553 42.8075 27.3647C42.1042 27.9721 40.8914 27.7243 41.8345 28.8152Z" fill="#151724"/>
<path d="M40.5899 27.5383C41.7607 28.3795 43.1513 28.4474 43.6947 27.6942C44.2402 26.9389 43.7307 25.6442 42.5599 24.8031C41.3891 23.9599 41.7427 25.1448 41.1993 25.902C40.6558 26.6572 39.4171 26.6972 40.5899 27.5383Z" fill="#152031"/>
<path d="M43.5766 31.6284C43.8763 33.039 44.8553 34.026 45.7684 33.8322C46.6795 33.6404 47.177 32.3437 46.8793 30.9331C46.5816 29.5225 46.0441 30.6354 45.133 30.8292C44.2199 31.021 43.2789 30.2178 43.5766 31.6284Z" fill="#151724"/>
<path d="M42.9397 30.1437C43.649 31.4004 44.8818 32.0457 45.6929 31.5882C46.5041 31.1307 46.586 29.7441 45.8768 28.4893C45.1695 27.2326 44.9936 28.4574 44.1825 28.9149C43.3693 29.3724 42.2304 28.8889 42.9397 30.1437Z" fill="#152031"/>
<path d="M47.2372 37.4704C47.2532 35.1667 46.5119 33.2926 45.5789 33.2866C44.6478 33.2806 43.8786 35.1428 43.8606 37.4464C43.8446 39.7501 44.6118 38.1897 45.5429 38.1977C46.476 38.2037 47.2192 39.7761 47.2372 37.4704Z" fill="#151724"/>
<path d="M45.5272 33.7002C45.5312 33.7102 45.5332 33.7202 45.5352 33.7281C45.5352 33.7301 45.5352 33.7341 45.5352 33.7361C45.5352 33.7341 45.5352 33.7301 45.5352 33.7301C45.5352 33.7301 45.5352 33.7421 45.5352 33.7441C45.5352 33.7541 45.5352 33.7641 45.5352 33.7741C45.5352 33.7781 45.5352 33.7821 45.5352 33.7861C45.5391 33.7741 45.5352 33.7861 45.5332 33.7881C45.5312 33.7981 45.5292 33.8061 45.5272 33.8141C45.5252 33.8181 45.5232 33.824 45.5212 33.828C45.5192 33.832 45.5132 33.844 45.5192 33.832C45.5132 33.848 45.5012 33.866 45.4912 33.88C45.5312 33.884 45.5711 33.89 45.6091 33.896C45.5891 33.844 45.5751 33.7901 45.5651 33.7361C45.5651 33.7301 45.5631 33.7241 45.5631 33.7182C45.5611 33.7102 45.5611 33.7102 45.5631 33.7162C45.5631 33.7142 45.5611 33.7102 45.5611 33.7082C45.5611 33.6942 45.5591 33.6822 45.5571 33.6682C45.5571 33.6382 45.5551 33.6103 45.5571 33.5823C45.5571 33.5483 45.5252 33.5164 45.4912 33.5164C45.4552 33.5184 45.4273 33.5463 45.4273 33.5823C45.4233 33.7002 45.4432 33.8181 45.4832 33.9279C45.4932 33.9539 45.5092 33.9719 45.5391 33.9759C45.5651 33.9799 45.5871 33.9659 45.6031 33.9439C45.661 33.866 45.679 33.7581 45.651 33.6642C45.641 33.6322 45.6051 33.6083 45.5711 33.6203C45.5391 33.6322 45.5172 33.6662 45.5272 33.7002Z" fill="#E83B3A"/>
<mask id="mask0_1015_55672" style="mask-type:luminance" maskUnits="userSpaceOnUse" x="45" y="32" width="4" height="3">
<path d="M45.8701 32.4192H48.7112V34.4651H45.8701V32.4192Z" fill="white"/>
</mask>
<g mask="url(#mask0_1015_55672)">
<path d="M45.9445 33.6641C46.3261 33.6361 46.6778 33.4883 47.0294 33.3404C47.2072 33.2665 47.3851 33.1926 47.5709 33.1366C47.7487 33.0827 47.9445 33.0327 48.1303 33.0687C48.5019 33.1386 48.5899 33.5662 48.4979 33.8799C48.442 34.0697 48.3061 34.1876 48.1103 34.2095C47.9185 34.2315 47.7147 34.2036 47.5249 34.1776C47.0574 34.1156 46.5979 33.9858 46.1683 33.792C46.0924 33.758 46.0264 33.8699 46.1024 33.9019C46.5259 34.0937 46.9755 34.2275 47.435 34.2955C47.7927 34.3474 48.3241 34.4533 48.5499 34.0817C48.7237 33.796 48.7057 33.3244 48.456 33.0887C48.1523 32.801 47.6688 32.9548 47.3291 33.0807C46.8756 33.2485 46.438 33.4983 45.9465 33.5322C45.8606 33.5402 45.8606 33.6701 45.9445 33.6641Z" fill="#E83B3A"/>
</g>
<path d="M44.8672 33.5664C44.7494 33.2308 44.3118 33.1609 44.0041 33.1309C43.6185 33.0909 43.1969 33.1329 42.8393 33.2887C42.7014 33.3487 42.5616 33.4406 42.4956 33.5804C42.4217 33.7383 42.4697 33.9141 42.5755 34.044C42.8073 34.3277 43.2049 34.3576 43.5426 34.3017C43.7883 34.2597 44.0301 34.1858 44.2738 34.1239C44.5216 34.0579 44.7673 33.994 45.0151 33.9301C45.095 33.9101 45.063 33.7842 44.9811 33.8062C44.6155 33.9021 44.2479 33.996 43.8842 34.0919C43.5606 34.1758 43.1969 34.2737 42.8792 34.1199C42.7434 34.054 42.6035 33.9301 42.5895 33.7702C42.5755 33.6224 42.6934 33.5165 42.8113 33.4486C43.099 33.2867 43.4746 33.2428 43.7983 33.2488C43.9941 33.2528 44.1919 33.2787 44.3817 33.3347C44.5276 33.3766 44.6894 33.4506 44.7454 33.6044C44.7713 33.6783 44.8952 33.6464 44.8672 33.5664Z" fill="#E83B3A"/>
<path d="M46.128 33.8183C46.5916 34.5235 47.1151 35.1869 47.6925 35.8003C47.7484 35.8622 47.8403 35.7703 47.7844 35.7083C47.215 35.103 46.6975 34.4496 46.2399 33.7523C46.194 33.6844 46.0821 33.7483 46.128 33.8183Z" fill="#E83B3A"/>
<path d="M45.1908 33.7761C44.7053 34.2976 44.2178 34.817 43.7323 35.3385C43.6744 35.4004 43.7663 35.4924 43.8242 35.4304C44.3097 34.9089 44.7972 34.3895 45.2827 33.868C45.3407 33.8081 45.2488 33.7161 45.1908 33.7761Z" fill="#E83B3A"/>
<path d="M17.1691 46.4133C17.0373 46.5312 14.8855 47.6141 14.8855 47.75C14.8855 47.8079 14.7256 48.2575 14.5458 48.749C14.2141 49.6461 14.2341 50.6351 14.5997 51.5182L14.8195 52.0476L16.0443 51.2544L16.2101 49.5701L16.8714 49.2305L16.5977 50.2954L17.1691 50.3613L18.6576 47.748L17.1691 46.4133Z" fill="#FBE4CE"/>
<path d="M44.4436 45.3586C44.5754 45.4765 46.7273 46.5594 46.7273 46.6953C46.7273 46.7532 46.8871 47.2008 47.0669 47.6943C47.3986 48.5914 47.3786 49.5804 47.013 50.4615L46.7932 50.993L45.5684 50.1998L45.4026 48.5155L44.7413 48.1738L45.015 49.2407L44.4436 49.3067L42.9551 46.6933L44.4436 45.3586Z" fill="#FBE4CE"/>
<mask id="mask1_1015_55672" style="mask-type:luminance" maskUnits="userSpaceOnUse" x="19" y="8" width="22" height="19">
<path d="M19.2734 8.57153H40.7558V26.7931H19.2734V8.57153Z" fill="white"/>
</mask>
<g mask="url(#mask1_1015_55672)">
<path d="M28.8735 8.80117C29.1592 8.84513 29.401 8.969 29.6887 8.93903C31.2431 8.7732 34.9794 8.6713 37.8804 10.955C38.5597 11.4885 39.0932 12.2956 39.5128 13.2567C42.212 19.4524 37.9703 26.5572 31.5728 26.7371C30.9254 26.757 30.2401 26.767 29.5069 26.767C29.0174 26.767 28.5458 26.759 28.0943 26.7451C21.9185 26.5473 17.7487 19.914 19.9765 13.7602C20.5 12.3136 21.1413 11.1009 21.9205 10.4555C24.0684 8.6753 27.395 8.5774 28.8735 8.80117Z" fill="#151724"/>
</g>
<path d="M34.6737 29.85L30.404 30.3075C30.2402 30.3235 30.0764 30.3235 29.9125 30.3075L25.6448 29.85C25.6029 29.846 25.5609 29.844 25.521 29.84C24.1443 29.7641 23.0375 30.9689 23.1573 32.3395L24.1004 43.0027C24.1863 43.9677 24.8676 44.7769 25.8047 45.0247L29.5689 46.0157C29.9525 46.1176 30.3581 46.1176 30.7457 46.0157L34.5079 45.0247C35.4469 44.7769 36.1282 43.9677 36.2142 43.0027L37.1552 32.3395C37.2771 30.9689 36.1702 29.7621 34.7916 29.84C34.7556 29.844 34.7137 29.846 34.6737 29.85Z" fill="#FBE4CE"/>
<path d="M42.2302 39.3722L39.4171 40.1115L36.1084 35.634L37.0115 33.7699C37.1473 32.8288 38.3741 32.5471 38.9076 33.3363L42.5019 38.6509C42.6858 38.9207 42.5459 39.2903 42.2302 39.3722Z" fill="#152031"/>
<path d="M28 27.7622H31.8881V31.6463H28V27.7622Z" fill="#FBE4CE"/>
<path d="M20.2382 35.8399L22.4879 36.9787L24.7057 36.693L24.5378 44.617C24.5378 44.617 26.9894 46.639 30.8435 46.3652C34.6956 46.0915 36.7755 44.3453 36.7755 44.3453L36.4758 37.9417L39.0632 36.0496C39.2869 35.8838 39.4867 35.676 39.6566 35.4343C40.7275 33.9198 40.17 31.7999 38.5337 30.9248L37.6546 30.4553C37.6546 30.4553 36.8034 29.6201 34.9393 29.8179C33.0772 30.0137 34.298 29.8139 34.298 29.8139C34.298 29.8139 35.1871 33.9618 32.8355 33.9058C31.303 33.8718 28.6017 33.7779 26.9014 33.716C26.0163 33.682 25.2831 33.0167 25.1692 32.1396L24.8515 29.6821C24.8515 29.6821 23.1372 28.8549 20.8536 31.1826C19.6648 32.3873 18.8376 34.8908 20.2382 35.8399Z" fill="#152031"/>
<path d="M29.9443 30.2695C28.6476 30.2695 27.5986 29.2206 27.5986 27.9279C27.5986 26.6332 28.6476 25.5842 29.9443 25.5842C31.239 25.5842 32.2899 26.6332 32.2899 27.9279C32.2899 29.2226 31.239 30.2695 29.9443 30.2695Z" fill="#D8A76A"/>
<path d="M32.8197 29.0885H26.8896C24.2103 29.0885 22.0186 26.8988 22.0186 24.2254V16.6111C22.0186 13.9358 24.2123 11.748 26.8896 11.748H32.8197C35.4989 11.748 37.6887 13.9358 37.6887 16.6111V24.2254C37.6887 26.9007 35.4969 29.0885 32.8197 29.0885Z" fill="#FBE4CE"/>
<path d="M28.7076 20.917C28.7076 21.0829 28.6896 21.2427 28.6536 21.3966C28.6177 21.5504 28.5677 21.6863 28.4998 21.8021C28.4339 21.92 28.3579 22.0119 28.27 22.0739C28.1841 22.1378 28.0942 22.1698 28.0003 22.1698C27.9064 22.1698 27.8145 22.1378 27.7286 22.0739C27.6407 22.0119 27.5647 21.92 27.4988 21.8021C27.4329 21.6863 27.3809 21.5504 27.345 21.3966C27.309 21.2427 27.291 21.0829 27.291 20.917C27.291 20.7512 27.309 20.5914 27.345 20.4375C27.3809 20.2857 27.4329 20.1498 27.4988 20.0319C27.5647 19.9141 27.6407 19.8241 27.7286 19.7602C27.8145 19.6963 27.9064 19.6643 28.0003 19.6643C28.0942 19.6643 28.1841 19.6963 28.27 19.7602C28.3579 19.8241 28.4339 19.9141 28.4998 20.0319C28.5677 20.1498 28.6177 20.2857 28.6536 20.4375C28.6896 20.5914 28.7076 20.7512 28.7076 20.917Z" fill="#1A1614"/>
<path d="M26.874 18.6952C26.85 18.6952 26.828 18.6872 26.8081 18.6712C26.7621 18.6353 26.7541 18.5673 26.7901 18.5194C27.0458 18.1977 27.4734 18.0039 27.9309 18.0039C28.3845 18.0039 28.806 18.1937 29.0638 18.5094C29.1017 18.5553 29.0957 18.6233 29.0478 18.6592C29.0018 18.6972 28.9339 18.6912 28.8959 18.6453C28.6802 18.3775 28.3185 18.2197 27.9309 18.2197C27.5373 18.2197 27.1757 18.3835 26.9579 18.6552C26.9379 18.6812 26.906 18.6952 26.874 18.6952Z" fill="#1A1614"/>
<path d="M32.1177 20.917C32.1177 21.0829 32.0998 21.2427 32.0638 21.3966C32.0278 21.5504 31.9759 21.6863 31.91 21.8021C31.844 21.92 31.7681 22.0119 31.6802 22.0739C31.5943 22.1378 31.5024 22.1698 31.4085 22.1698C31.3146 22.1698 31.2246 22.1378 31.1387 22.0739C31.0508 22.0119 30.9749 21.92 30.909 21.8021C30.841 21.6863 30.7911 21.5504 30.7551 21.3966C30.7192 21.2427 30.7012 21.0829 30.7012 20.917C30.7012 20.7512 30.7192 20.5914 30.7551 20.4375C30.7911 20.2857 30.841 20.1498 30.909 20.0319C30.9749 19.9141 31.0508 19.8241 31.1387 19.7602C31.2246 19.6963 31.3146 19.6643 31.4085 19.6643C31.5024 19.6643 31.5943 19.6963 31.6802 19.7602C31.7681 19.8241 31.844 19.9141 31.91 20.0319C31.9759 20.1498 32.0278 20.2857 32.0638 20.4375C32.0998 20.5914 32.1177 20.7512 32.1177 20.917Z" fill="#1A1614"/>
<path d="M30.2838 18.6952C30.2598 18.6952 30.2358 18.6872 30.2179 18.6712C30.1699 18.6353 30.1639 18.5673 30.1999 18.5194C30.4556 18.1977 30.8812 18.0039 31.3407 18.0039C31.7923 18.0039 32.2158 18.1937 32.4736 18.5094C32.5095 18.5553 32.5036 18.6233 32.4576 18.6592C32.4116 18.6972 32.3437 18.6912 32.3058 18.6453C32.09 18.3775 31.7283 18.2197 31.3407 18.2197C30.9471 18.2197 30.5835 18.3835 30.3677 18.6552C30.3477 18.6812 30.3138 18.6952 30.2838 18.6952Z" fill="#1A1614"/>
<path d="M27.5908 20.1539L27.393 20.9171C27.393 20.9171 26.8335 20.5875 26.7676 19.7903C26.7656 19.7903 27.2631 20.2978 27.5908 20.1539Z" fill="#1A1614"/>
<path d="M31.7764 20.1539L31.9762 20.9171C31.9762 20.9171 32.5356 20.5875 32.6015 19.7903C32.6015 19.7903 32.104 20.2978 31.7764 20.1539Z" fill="#1A1614"/>
<path d="M31.7765 24.6354C31.7765 25.3926 30.8415 26.008 29.6847 26.008C28.5298 26.008 27.5928 25.3926 27.5928 24.6354C27.5928 23.8762 28.5298 24.036 29.6847 24.036C30.8415 24.036 31.7765 23.8762 31.7765 24.6354Z" fill="#E83B3A"/>
<path d="M34.1677 22.4417C34.0958 22.4178 34.0178 22.4557 33.9919 22.5277C33.4065 24.2499 31.3086 24.8094 29.6882 24.7674C29.6802 24.7674 29.6702 24.7674 29.6622 24.7694C28.1058 24.7334 26.2677 24.146 25.7142 22.5596C25.6903 22.4877 25.6123 22.4497 25.5384 22.4737C25.4665 22.4997 25.4285 22.5776 25.4525 22.6495C26.0019 24.2279 27.6902 24.8913 29.2347 25.0231C29.5104 25.0471 29.7841 25.0531 30.0419 25.0431C30.0459 25.0431 30.0479 25.0431 30.0518 25.0431C30.1957 25.0391 30.3396 25.0291 30.4874 25.0171C32.0318 24.8753 33.7161 24.198 34.2536 22.6176C34.2776 22.5436 34.2396 22.4657 34.1677 22.4417Z" fill="#1A1614"/>
<path d="M39.0615 39.7041L42.7158 46.735L45.4551 45.8499L42.53 38.835C42.53 38.833 40.9896 36.8869 39.0615 39.7041Z" fill="#152031"/>
<path d="M22.9958 42.6592L20.2566 41.6842L20.0947 34.7532L21.851 35.0928C22.4963 34.3915 23.6671 34.8491 23.6631 35.8021L23.6272 42.2156C23.6272 42.5413 23.3055 42.7671 22.9958 42.6592Z" fill="#152031"/>
<path d="M21.0492 39.9639L16.5957 46.5173L18.6756 48.5032L23.4668 42.5972C23.4668 42.5972 24.4478 40.3195 21.0492 39.9639Z" fill="#152031"/>
<path d="M25.4468 33.1068C25.4468 33.1068 29.3409 31.4025 29.5407 30.4455C29.7385 29.4884 29.5407 28.927 29.5407 28.927H27.1791C27.1791 28.927 27.5647 29.6603 27.1791 29.8381C26.7955 30.0159 24.4478 29.7062 24.4478 29.7062C24.4478 29.7062 23.9324 32.4654 25.4468 33.1068Z" fill="#151724"/>
<path d="M34.1244 33.1068C34.1244 33.1068 29.8028 31.4025 29.583 30.4455C29.3633 29.4884 29.583 28.927 29.583 28.927H32.2044C32.2044 28.927 31.7768 29.6603 32.2044 29.8381C32.63 30.0159 35.2373 29.7062 35.2373 29.7062C35.2373 29.7062 35.8047 32.4654 34.1244 33.1068Z" fill="#151724"/>
<path d="M23.9828 44.5572L23.5053 35.4644L22.7021 29.8061C22.6781 29.6523 22.79 29.5124 22.9439 29.4964L23.817 29.4085C23.9469 29.3945 24.0687 29.4765 24.1047 29.6023L25.2096 33.3645L25.4493 33.912C28.4084 35.0149 31.5292 35.5244 34.2624 33.946L34.714 29.8761C34.74 29.6363 34.9438 29.4545 35.1835 29.4545H35.8688C36.1266 29.4545 36.3384 29.6603 36.3443 29.918L36.5801 41.79C36.6121 43.3684 37.5351 44.793 38.9637 45.4683L45.4052 48.5152C45.4052 48.5152 46.5421 54.6131 44.2783 57.2664C41.671 60.3213 35.3494 59.9897 30.724 59.9897C22.0827 59.9897 18.6582 58.9507 18.6582 58.9507L18.9139 55.3324C19.2017 51.2365 21.0098 47.3944 23.9828 44.5572Z" fill="#151724"/>
<path d="M29.9547 36.3776C30.1165 37.5444 30.2264 38.7153 30.2883 39.8921C30.3483 41.0569 30.3583 42.2237 30.3203 43.3905C30.2983 44.0519 30.2604 44.7152 30.2064 45.3745C30.2004 45.4585 30.3303 45.4585 30.3363 45.3745C30.4322 44.2017 30.4781 43.0249 30.4741 41.8461C30.4682 40.6633 30.4122 39.4825 30.3063 38.3037C30.2464 37.6483 30.1705 36.995 30.0805 36.3437C30.0686 36.2617 29.9447 36.2957 29.9547 36.3776Z" fill="#152031"/>
<path d="M31.7768 38.4851C31.7928 38.5011 31.8108 38.5191 31.8248 38.5351C31.8328 38.5411 31.8388 38.5451 31.8467 38.5471C31.8547 38.5511 31.8627 38.5531 31.8707 38.5531C31.8807 38.5531 31.8887 38.5511 31.8947 38.5471C31.9027 38.5451 31.9107 38.5411 31.9167 38.5351C31.9207 38.5311 31.9227 38.5251 31.9267 38.5211C31.9327 38.5111 31.9367 38.5011 31.9367 38.4891C31.9347 38.4831 31.9347 38.4771 31.9327 38.4732C31.9307 38.4612 31.9247 38.4512 31.9167 38.4432C31.8987 38.4272 31.8827 38.4092 31.8667 38.3952C31.8607 38.3872 31.8547 38.3832 31.8467 38.3812C31.8388 38.3772 31.8308 38.3753 31.8228 38.3772C31.8128 38.3772 31.8048 38.3772 31.7968 38.3812C31.7888 38.3832 31.7808 38.3872 31.7768 38.3952C31.7728 38.3992 31.7708 38.4032 31.7668 38.4072C31.7588 38.4172 31.7568 38.4292 31.7568 38.4392C31.7588 38.4452 31.7588 38.4512 31.7588 38.4572C31.7628 38.4672 31.7688 38.4752 31.7768 38.4851Z" fill="#152031"/>
<path d="M32.1061 41.1328C32.1081 41.1368 32.1081 41.1408 32.1081 41.1448C32.1081 41.1408 32.1081 41.1328 32.1061 41.1288C32.1081 41.1348 32.1081 41.1408 32.1061 41.1468C32.1081 41.1408 32.1081 41.1348 32.1081 41.1308C32.1081 41.1368 32.1061 41.1448 32.1041 41.1508C32.1061 41.1448 32.1081 41.1408 32.1101 41.1348C32.1081 41.1408 32.1041 41.1488 32.1001 41.1528C32.1041 41.1488 32.1061 41.1448 32.1101 41.1408C32.1061 41.1448 32.1021 41.1488 32.0981 41.1528C32.1021 41.1488 32.1061 41.1468 32.1101 41.1428C32.1061 41.1468 32.1001 41.1488 32.0941 41.1528C32.1001 41.1488 32.1061 41.1488 32.1101 41.1448C32.1081 41.1468 32.1061 41.1468 32.1041 41.1488C32.0881 41.1528 32.0741 41.1628 32.0641 41.1767C32.0601 41.1847 32.0581 41.1927 32.0581 41.2027C32.0561 41.2107 32.0561 41.2187 32.0581 41.2287C32.0641 41.2447 32.0721 41.2587 32.0881 41.2667C32.1041 41.2746 32.1201 41.2786 32.1381 41.2726C32.16 41.2667 32.176 41.2567 32.194 41.2427C32.198 41.2387 32.202 41.2347 32.204 41.2307C32.21 41.2227 32.216 41.2147 32.222 41.2047C32.226 41.1967 32.23 41.1847 32.234 41.1767C32.236 41.1668 32.238 41.1548 32.238 41.1448C32.238 41.1408 32.238 41.1348 32.238 41.1308C32.238 41.1188 32.236 41.1088 32.234 41.0968C32.228 41.0828 32.22 41.0669 32.204 41.0589C32.196 41.0529 32.188 41.0509 32.178 41.0509C32.17 41.0489 32.162 41.0489 32.154 41.0529C32.1381 41.0569 32.1221 41.0669 32.1141 41.0828C32.1061 41.0968 32.1021 41.1148 32.1061 41.1328Z" fill="#152031"/>
<path d="M32.2203 43.5423C32.2523 43.5083 32.2862 43.4744 32.3182 43.4424C32.3302 43.4304 32.3382 43.4124 32.3382 43.3965C32.3382 43.3805 32.3302 43.3625 32.3182 43.3505C32.3042 43.3405 32.2902 43.3325 32.2722 43.3325C32.2562 43.3325 32.2383 43.3385 32.2263 43.3505C32.1943 43.3845 32.1603 43.4164 32.1284 43.4504C32.1164 43.4624 32.1084 43.4784 32.1084 43.4964C32.1084 43.5123 32.1164 43.5303 32.1284 43.5423C32.1424 43.5523 32.1564 43.5603 32.1743 43.5603C32.1903 43.5603 32.2063 43.5543 32.2203 43.5423Z" fill="#152031"/>
<path d="M22.018 18.3495C22.018 18.3495 25.6364 18.5533 26.4296 14.855V17.1667H32.1897L32.2896 14.855L33.3106 17.2326L38.4055 17.7401C38.4055 17.7401 38.9349 11.6842 32.9809 10.6273C27.027 9.57034 19.7243 11.1428 22.018 18.3495Z" fill="#151724"/>
<path d="M37.3113 31.4662C37.3792 31.3942 37.2913 31.2983 37.2054 31.3303C37.1654 31.3443 37.1454 31.3842 37.1514 31.4242C37.1574 31.4861 37.2054 31.5221 37.2553 31.5501C37.4871 31.6899 37.7029 31.8438 37.9007 32.0296C38.2923 32.3952 38.606 32.8468 38.8078 33.3423C38.9236 33.624 39.0036 33.9217 39.0435 34.2214C39.0535 34.3033 39.1834 34.3053 39.1734 34.2214C39.0515 33.3123 38.592 32.4592 37.9007 31.8558C37.8068 31.7739 37.7109 31.6979 37.609 31.626C37.557 31.588 37.5011 31.5501 37.4471 31.5161C37.4192 31.4981 37.3912 31.4802 37.3652 31.4642C37.3532 31.4582 37.3432 31.4502 37.3333 31.4462C37.3213 31.4402 37.3093 31.4322 37.2993 31.4242C37.2753 31.4042 37.2533 31.4142 37.2294 31.4522C37.2234 31.4362 37.2174 31.4222 37.2094 31.4062C37.2094 31.4102 37.2094 31.4122 37.2094 31.4142C37.2174 31.3982 37.2234 31.3842 37.2294 31.3703C37.2274 31.3723 37.2254 31.3743 37.2214 31.3763C37.1614 31.4362 37.2533 31.5281 37.3113 31.4662Z" fill="#151724"/>
<path d="M36.8596 34.0798C36.8995 34.7511 37.3411 35.3585 37.9665 35.6062C38.0444 35.6382 38.0783 35.5123 38.0024 35.4824C37.433 35.2566 37.0254 34.6892 36.9894 34.0798C36.9835 33.9979 36.8536 33.9959 36.8596 34.0798Z" fill="#151724"/>
<path d="M22.294 32.0299C21.8065 32.1977 21.4368 32.5674 21.247 33.0409C21.1371 33.3126 21.0752 33.6063 21.0173 33.892C20.9553 34.1897 20.9214 34.4914 20.9713 34.7931C20.9833 34.875 21.1092 34.8391 21.0952 34.7572C21.0492 34.4754 21.0872 34.1877 21.1451 33.91C21.1991 33.6463 21.259 33.3806 21.3509 33.1288C21.5208 32.6733 21.8664 32.3136 22.3279 32.1558C22.4079 32.1298 22.3739 32.0059 22.294 32.0299Z" fill="#151724"/>
<path d="M22.0483 34.0657C21.9005 34.6372 21.9384 35.2445 22.1602 35.79C22.1922 35.8659 22.318 35.834 22.2841 35.756C22.0703 35.2306 22.0303 34.6492 22.1742 34.0997C22.1962 34.0198 22.0703 33.9838 22.0483 34.0657Z" fill="#151724"/>
</g>
<rect x="0.5" y="0.5" width="59" height="59" rx="29.5" stroke="#DBB7EA"/>
<defs>
<clipPath id="clip0_1015_55672">
<rect width="60" height="60" rx="30" fill="white"/>
</clipPath>
</defs>
</svg>
