<svg width="60" height="60" viewBox="0 0 60 60" fill="none" xmlns="http://www.w3.org/2000/svg">
<rect x="0.5" y="0.5" width="59" height="59" rx="29.5" fill="#FAF5F9"/>
<rect x="0.5" y="0.5" width="59" height="59" rx="29.5" stroke="#DBB7EA"/>
<path d="M26.9611 19.9713C26.0059 20.5195 25.702 22.3506 25.267 24.2294C24.8857 25.8798 24.4587 27.4766 24.854 28.8589C25.2909 30.3802 26.554 31.4785 27.9522 31.5241C29.682 31.5817 31.1775 30.0068 31.813 28.0525C33.6124 22.5373 29.5132 18.6347 26.9611 19.9713Z" fill="#886047"/>
<mask id="mask0_1015_55049" style="mask-type:luminance" maskUnits="userSpaceOnUse" x="33" y="19" width="16" height="38">
<path d="M33.9141 19.3201H48.5532V56.3915H33.9141V19.3201Z" fill="white"/>
</mask>
<g mask="url(#mask0_1015_55049)">
<path d="M47.9259 19.322C48.3549 22.5017 48.4085 25.7151 48.1225 28.8808C47.8603 31.7765 47.2606 34.6384 46.9825 37.532C46.7283 40.1893 46.7045 42.8765 47.2884 45.4245C47.8107 47.7065 48.8136 49.8276 48.4919 51.7243C48.047 54.3419 45.4552 56.2306 42.4126 56.3716C39.3919 56.5086 36.5081 54.8563 35.0087 52.0381C32.683 47.6648 34.3811 41.3512 37.1874 35.0892C39.801 29.2582 43.4672 24.0508 47.9259 19.322Z" fill="#886047"/>
</g>
<path d="M39.8484 11.3799C37.6717 10.7503 35.1376 11.5765 32.8755 13.0184C30.6074 14.4622 28.7644 16.4701 27.815 18.8235C27.3165 20.0569 27.0881 21.3696 26.9729 22.6983C26.8558 24.0707 26.8836 25.447 27.0246 26.8253C26.8717 27.3854 26.538 27.8521 26.1011 28.1917C25.5748 28.6028 24.8936 28.8014 24.1925 28.8967C23.2511 29.0219 22.2938 28.9305 21.3366 28.7101C21.277 32.1658 22.8817 35.1031 25.4894 36.5609C27.7058 37.7982 30.5141 37.816 33.1734 37.0077C36.8892 35.8777 40.0212 33.1568 42.2376 29.7051C44.6924 25.8839 45.8443 21.4848 44.8453 17.4869C44.1125 14.5476 42.331 12.0988 39.8484 11.3799Z" fill="#F7BD9A"/>
<path d="M44.8678 13.4332C43.4577 11.8503 41.7576 10.5872 39.8074 10.0867C36.7866 9.31017 33.5017 10.3548 30.9635 12.5792C28.7888 14.4898 27.3986 17.1491 27.1543 20.2274C27.8415 19.016 28.6478 17.8799 29.5832 16.9664C30.1512 16.4123 30.7609 15.9475 31.5176 15.7152C32.8483 15.306 34.6059 15.7092 36.3715 15.7489C37.8888 15.7847 39.4459 15.6397 40.9116 15.1531C41.6762 16.5672 42.0635 18.1322 42.2264 19.721C42.4687 22.1162 42.0357 24.6484 41.6524 27.1647C41.43 28.6204 41.1916 30.0127 41.7477 30.676C42.9294 32.0881 46.0872 30.9759 47.3126 27.4944C47.7992 26.1101 47.7098 24.4795 47.8171 22.8113C47.8786 21.8679 48.0097 20.9384 47.9422 19.9732C47.7833 17.7389 46.5937 15.3716 44.8678 13.4332Z" fill="#886047"/>
<mask id="mask1_1015_55049" style="mask-type:luminance" maskUnits="userSpaceOnUse" x="12" y="27" width="31" height="33">
<path d="M12.8203 27.4727H42.8691V60H12.8203V27.4727Z" fill="white"/>
</mask>
<g mask="url(#mask1_1015_55049)">
<path d="M23.4339 27.4827L16.8562 27.9117L14.316 43.083C14.0201 44.8565 13.2396 46.4255 12.9576 48.0759C12.5604 50.4036 13.1085 52.8047 14.459 54.7053C15.8254 56.6338 17.9803 57.9465 20.3178 58.8065C25.9165 60.868 31.535 60.2881 34.2996 56.8562C37.08 53.4025 36.0751 47.1127 39.1117 43.5001C40.0094 42.4316 41.2229 41.6094 41.9776 40.4813C42.8594 39.1626 43.1096 37.4963 42.6111 36.0405C41.9716 34.1756 40.1763 32.7457 37.8268 32.2829C37.076 33.0436 36.1744 33.6056 35.2231 34.0406C33.382 34.8827 31.386 35.2004 29.543 34.6503C26.7089 33.8062 24.5521 31.0556 23.4339 27.4827Z" fill="#FFEACA"/>
</g>
<mask id="mask2_1015_55049" style="mask-type:luminance" maskUnits="userSpaceOnUse" x="11" y="19" width="16" height="30">
<path d="M11.1426 19.2324H26.3V48.2127H11.1426V19.2324Z" fill="white"/>
</mask>
<g mask="url(#mask2_1015_55049)">
<path d="M17.0693 28.0167C15.8856 28.3841 15.0018 29.2302 14.4914 30.3086C13.695 31.9908 13.9234 34.2648 13.3236 36.3164C12.841 37.9688 11.8639 39.4523 11.562 41.059C11.1429 43.2854 12.0029 45.5336 13.7089 46.8364C14.553 47.4799 15.5539 47.8453 16.5311 47.6586C18.1894 47.3389 19.5876 45.4661 20.3999 43.2218C20.8825 41.8872 21.1347 40.4712 21.377 39.0412C21.667 37.3213 21.9351 35.5915 22.3462 33.9093C22.662 32.6084 23.0214 31.3195 23.508 30.0723C24.0979 29.9094 24.5845 29.5916 24.9737 29.0733C25.8595 27.8956 26.2011 25.8738 26.1375 23.7884C26.1296 23.5044 26.1137 23.2264 25.9707 23.0357C25.8516 22.8729 25.645 22.7815 25.4246 22.712C25.0889 22.6067 24.7294 22.563 24.364 22.5551C24.2945 22.2393 24.3243 21.9215 24.4335 21.6296C24.5725 21.2522 24.8426 20.9285 25.1902 20.6703L25.6311 19.3635C24.8387 19.4529 24.1416 19.7985 23.6212 20.3446C23.0353 20.9583 22.7116 21.7766 22.654 22.6822C22.3939 22.573 22.1198 22.6147 21.8934 22.7676C21.4406 23.0734 21.2022 23.8659 21.0235 24.6821C20.7812 25.7943 20.6819 26.9303 20.3264 27.9949C19.8815 29.3215 19.1268 30.6164 18.0881 31.6591C17.8975 30.9759 17.7068 30.2947 17.5161 29.6115C17.3672 29.0812 17.2182 28.549 17.0693 28.0167Z" fill="#F7BD9A"/>
</g>
<path d="M30.9953 20.2138C31.1959 19.7828 31.6348 19.5663 31.9724 19.7272C32.3121 19.8861 32.4213 20.3627 32.2167 20.7937C32.0141 21.2227 31.5772 21.4412 31.2376 21.2803C30.902 21.1214 30.7907 20.6448 30.9953 20.2138Z" fill="#393939"/>
<path d="M36.8653 23.7626C37.0679 23.3316 37.5068 23.1151 37.8445 23.274C38.1821 23.4349 38.2913 23.9095 38.0887 24.3405C37.8862 24.7695 37.4473 24.988 37.1096 24.8271C36.772 24.6682 36.6608 24.1916 36.8653 23.7626Z" fill="#393939"/>
<path d="M38.0436 21.2743C38.546 21.0121 39.3007 21.2783 39.8568 21.8681C40.7883 22.8532 40.8161 23.9574 40.3931 24.0428C40.1289 24.0964 39.6662 23.5046 39.0406 23.0697C38.7585 22.875 38.4527 22.7142 38.1647 22.5235C37.9324 22.3706 37.7179 22.2077 37.6583 21.9992C37.5828 21.7311 37.7417 21.4292 38.0436 21.2743Z" fill="#886047"/>
<path d="M34.0732 18.5038C33.9977 17.9497 33.4138 17.477 32.6909 17.3559C31.4616 17.1513 30.6115 17.7591 30.7942 18.1602C30.9035 18.4025 31.5827 18.4522 32.2182 18.7144C32.5122 18.8355 32.7882 18.9944 33.0802 19.1215C33.3145 19.2208 33.5509 19.3002 33.7336 19.2347C33.9818 19.1473 34.1209 18.8434 34.0732 18.5038Z" fill="#886047"/>
<path d="M34.284 21.2542C34.0635 21.7289 33.7378 22.142 33.3486 22.4737C32.8441 22.9066 32.2344 23.1827 32.012 23.6494C31.6882 24.3306 32.0775 25.1727 32.9911 25.5659" stroke="#886047" stroke-width="0.773762"/>
<path d="M30.4512 25.8999C30.7431 25.8383 31.2238 26.4024 31.8414 26.8194C32.6219 27.3457 33.5157 27.5861 33.5176 27.9296C33.5196 28.1898 33.0827 28.4579 32.5445 28.5394C31.8454 28.6426 31.1582 28.3666 30.7094 27.8442C29.9746 26.9863 30.0063 26.0151 30.4512 25.8999Z" fill="white"/>
<path d="M35.922 27.4726C35.912 26.6444 36.6926 25.9632 37.6816 25.9473C38.6687 25.9314 39.477 26.5868 39.4889 27.415C39.5028 28.2412 38.7183 28.9224 37.7313 28.9403C36.7422 28.9562 35.9398 28.3008 35.922 27.4726Z" fill="#FFA598"/>
<path d="M28.846 23.3734C29.5272 23.1728 29.8886 22.3605 29.6523 21.5462C29.4179 20.7319 28.6772 20.2334 27.994 20.4301C27.3127 20.6287 26.9513 21.4449 27.1876 22.2592C27.422 23.0735 28.1608 23.568 28.846 23.3734Z" fill="#FFA598"/>
<path d="M27.2275 27.5841C27.3904 28.4123 27.7002 29.1948 28.1193 29.9018C28.4867 30.5194 28.9375 31.0696 29.5909 31.443C30.9176 32.1996 33.0069 32.1778 35.1439 31.6694" stroke="#886047" stroke-width="0.773762"/>
<mask id="mask3_1015_55049" style="mask-type:luminance" maskUnits="userSpaceOnUse" x="24" y="8" width="25" height="26">
<path d="M24.7744 8.57153H48.5533V33.4685H24.7744V8.57153Z" fill="white"/>
</mask>
<g mask="url(#mask3_1015_55049)">
<path d="M38.1408 30.8869C38.7366 30.2971 39.2788 29.6496 39.7833 28.9883C40.1983 28.4461 40.5677 27.8801 41.0206 27.3856C41.9977 26.319 43.3105 25.6279 44.3372 25.7054C44.794 25.7411 45.1873 25.9159 45.4852 26.2555C46.0432 25.0698 46.4325 23.8286 46.653 22.5515C46.935 20.9011 46.9608 19.2309 46.5695 17.644C46.1267 15.8407 45.1734 14.2082 43.8407 12.9113C42.7186 11.817 41.3363 11.0166 39.8607 10.6075C36.554 9.69192 33.1717 10.7425 30.8123 13.3164C30.1271 14.0632 29.5472 14.9192 29.3228 15.946C29.7696 15.9241 30.1033 16.1902 30.1887 16.5716C30.3198 17.1594 29.7756 17.9161 29.2414 18.7304C28.3993 20.0114 27.7479 21.4056 27.0527 22.7779C26.5026 23.1315 25.9167 23.1096 25.5513 22.768C24.8701 22.1285 25.2017 20.4801 25.8115 18.782C26.1094 17.9519 26.4847 17.1555 26.9574 16.8734C27.156 16.7563 27.3645 16.7245 27.5771 16.7841C27.728 15.6639 28.1649 14.6451 28.7786 13.7176C29.8888 12.0414 31.5928 10.7207 33.4954 9.92032C36.6711 8.58371 40.1606 8.61946 42.955 10.2103C46.1565 12.0335 48.0253 15.6123 48.3014 19.6142C48.496 22.4264 47.8208 25.2545 46.1306 27.7013C46.1426 28.6963 45.8645 29.6357 45.4018 30.4818C44.5299 32.0825 43.1794 33.2344 41.6283 33.3238C40.103 33.4132 38.7386 32.4936 38.1408 30.8869Z" fill="#4E4E4E"/>
</g>
<path d="M35.1477 32.4754C35.1001 32.1001 35.1994 31.7485 35.4119 31.4546C35.7694 30.966 36.3672 30.7039 37.0226 30.7059C37.2927 30.7078 37.5568 30.7635 37.8011 30.8945C37.9163 30.6741 38.1109 30.547 38.3393 30.545C38.6173 30.541 38.8517 30.7198 39.0026 31.0038C39.237 30.7913 39.5369 30.7495 39.803 30.8608C40.2022 31.0276 40.4485 31.534 40.5954 32.0941C40.7603 32.7157 40.7603 33.3612 40.653 34.0166C41.0761 33.9232 41.4892 33.8041 41.8884 33.6512C42.2101 33.53 42.5199 33.383 42.6927 33.1407C42.8953 32.8567 42.9052 32.4536 43.0939 32.1517C43.2687 31.8717 43.5626 31.6949 43.789 31.7704C44.2239 31.9154 44.2974 32.7991 43.8327 33.7604C43.5685 34.3085 43.1435 34.7772 42.6113 35.1069C42.0552 35.4525 41.4057 35.6392 40.7841 35.9053C40.1466 36.1774 39.5468 36.5349 38.8974 36.7136C38.2499 36.8904 37.5568 36.8864 36.9133 37.0711C36.4307 37.2101 35.964 37.4385 35.5807 37.7841L35.6403 41.5337C36.7167 40.4593 37.8726 39.4901 39.1059 38.6182C40.4862 37.6451 41.7632 36.9003 42.2458 37.3392C42.5755 37.6391 42.4623 38.4554 42.2141 39.3928C41.5666 41.8376 39.9579 44.6796 38.8378 47.6805C38.2559 49.2455 37.811 50.8562 37.0563 52.316C36.3076 53.7638 35.2768 55.0249 33.9581 55.8769C32.5103 56.8124 30.8718 57.2056 29.853 56.4926C29.0069 55.9008 28.6971 54.6039 28.5342 53.1521C28.1728 49.9287 28.7328 46.191 29.7199 42.6678C30.1072 41.2914 30.552 39.933 31.0068 38.5765C31.2928 37.7265 31.5788 36.8785 31.8569 36.0284C32.0853 35.3254 32.2958 34.6203 32.7049 34.0464C33.2531 33.2798 34.1309 32.7296 35.1477 32.4754Z" fill="#F7BD9A"/>
<path d="M39.0605 31.1766C39.275 31.5499 39.4458 31.9432 39.5809 32.3483C39.7418 32.8269 39.849 33.3215 39.9106 33.8259" stroke="#886047" stroke-width="0.773762"/>
<path d="M37.7256 30.8132C37.7951 30.7477 37.8745 30.698 37.9639 30.6583C38.1307 30.5809 38.3313 30.5411 38.5339 30.5213" stroke="#886047" stroke-width="0.773762"/>
<path d="M35.3028 32.5252C35.2115 32.2074 35.2631 31.8917 35.422 31.6216C35.6683 31.2025 36.1529 30.9225 36.697 30.8033C37.1181 30.71 37.5471 30.7159 37.8509 30.9245C38.1707 31.1449 38.3236 31.5739 38.4586 32.0227C38.5937 32.4756 38.693 32.9363 38.7705 33.405" stroke="#886047" stroke-width="0.773762"/>
<path d="M36.4423 31.7605C36.339 31.9432 36.192 32.0922 36.0272 32.2113C35.8008 32.3702 35.5267 32.4715 35.2487 32.545C34.9706 32.6185 34.6846 32.6701 34.4105 32.7555C33.8247 32.9402 33.3103 33.2937 32.8972 33.7584C32.5179 34.1874 32.2259 34.7038 32.0889 35.2817" stroke="#886047" stroke-width="0.773762"/>
<path d="M35.6009 41.8974C35.5552 43.0275 35.6188 44.1595 35.728 45.2836C35.879 46.8069 36.2007 48.3143 36.1868 49.7303C36.1769 50.5248 36.0895 51.2934 35.875 52.0361" stroke="#886047" stroke-width="0.773762"/>
<mask id="mask4_1015_55049" style="mask-type:luminance" maskUnits="userSpaceOnUse" x="11" y="29" width="9" height="14">
<path d="M11.1426 29.9097H19.6905V42.6203H11.1426V29.9097Z" fill="white"/>
</mask>
<g mask="url(#mask4_1015_55049)">
<path d="M17.9928 31.8876C17.4308 32.8906 16.7932 33.8479 16.112 34.7694C15.3474 35.8101 14.4914 36.7872 13.7844 37.8557C13.2005 38.7375 12.6921 39.6709 12.2988 40.656" stroke="#886047" stroke-width="0.773762"/>
</g>
<path d="M22.9082 23.3339C23.5696 23.1512 24.221 23.2763 24.7175 23.6656C25.214 24.0548 25.498 24.6586 25.5139 25.3041C25.5298 25.9138 25.2954 26.5155 24.8784 26.9882C24.7592 27.1233 24.6301 27.2444 24.4752 27.2921C24.3223 27.3397 24.1554 27.3199 24.0363 27.2166C23.7821 26.9922 23.784 26.448 24.0422 25.878" stroke="#886047" stroke-width="0.773762"/>
<path d="M23.1895 22.7898C23.6224 22.76 24.0534 22.7898 24.4645 22.893C24.8101 22.9784 25.1378 23.1135 25.3721 23.3618C25.7236 23.7351 25.8507 24.3468 25.9282 24.9744C26.0772 26.2077 26.0652 27.3477 25.5211 27.6536C25.2152 27.8244 24.8021 27.7132 24.4804 27.3636" stroke="#886047" stroke-width="0.773762"/>
<path d="M25.3093 28.6147C25.2179 28.8371 25.1047 29.0476 24.9617 29.2363C24.8465 29.3892 24.7135 29.5302 24.5605 29.6514" stroke="#886047" stroke-width="0.773762"/>
<path d="M45.0283 26.9144C44.1862 27.109 43.4097 27.4725 42.7026 27.9511C41.7037 28.6283 40.8536 29.5439 40.1387 30.5786" stroke="#9E9E9E" stroke-width="0.773762"/>
<path d="M28.3294 16.3884C27.7911 17.2106 27.3463 18.0864 26.9828 18.994C26.5439 20.0943 26.2281 21.2422 26.0156 22.418" stroke="#9E9E9E" stroke-width="0.773762"/>
<path d="M41.4571 12.2577C39.7511 11.4216 37.9259 11.1217 36.1484 11.4275C34.4663 11.7155 32.9211 12.5338 31.6699 13.8108" stroke="#C7A66A" stroke-width="0.773762"/>
<path d="M39.7416 12.4739C38.8181 12.1701 37.8569 12.0926 36.9175 12.2157C35.7854 12.3627 34.6991 12.7957 33.7061 13.4431" stroke="#C7A66A" stroke-width="0.773762"/>
<mask id="mask5_1015_55049" style="mask-type:luminance" maskUnits="userSpaceOnUse" x="40" y="34" width="9" height="23">
<path d="M40.0273 34.0684H48.5534V56.8463H40.0273V34.0684Z" fill="white"/>
</mask>
<g mask="url(#mask5_1015_55049)">
<path d="M46.1995 35.7441C45.4945 39.0568 45.276 42.4589 45.9016 45.6028C46.3425 47.8153 47.2621 49.8589 46.8569 51.6443C46.3604 53.8151 44.3108 55.3543 41.7012 55.1577" stroke="#C7A66A" stroke-width="0.773762"/>
</g>
<path d="M45.408 47.9905C45.9442 49.5555 45.8727 51.1026 45.0465 52.2804C44.3911 53.2158 43.3544 53.7739 42.123 53.8076" stroke="#C7A66A" stroke-width="0.773762"/>
</svg>
