<svg width="60" height="60" viewBox="0 0 60 60" fill="none" xmlns="http://www.w3.org/2000/svg">
<g clip-path="url(#clip0_1015_56275)">
<rect width="60" height="60" rx="30" fill="#FAF5F9"/>
<path d="M35.7578 15.3821C35.7578 15.3821 45.0781 18.1639 47.02 21.4977C48.9619 24.8295 41.7781 27.103 38.1862 26.7932C34.5943 26.4855 30.7402 20.6061 30.7402 20.6061L35.7578 15.3821Z" fill="#D7D8E5"/>
<path d="M30.9679 37.3287L23.4743 38.2679C20.0889 38.6928 16.9715 36.2644 16.5466 32.8731L15.3413 23.2132C14.9164 19.8218 17.3388 16.6985 20.7262 16.2736L28.2198 15.3344C31.6052 14.9095 34.7226 17.3379 35.1475 20.7292L36.3528 30.3891C36.7777 33.7805 34.3553 36.9018 30.9679 37.3287Z" fill="#FBE4CE"/>
<path d="M23.0894 28.4592C23.1291 28.6676 23.145 28.8722 23.1351 29.0747C23.1271 29.2752 23.0954 29.4579 23.0398 29.6207C22.9842 29.7855 22.9107 29.9166 22.8174 30.0178C22.7241 30.1171 22.6168 30.1787 22.4997 30.2025C22.3825 30.2243 22.2614 30.2065 22.1363 30.1469C22.0132 30.0873 21.8961 29.992 21.7849 29.861C21.6737 29.728 21.5764 29.5711 21.495 29.3864C21.4136 29.2018 21.354 29.0072 21.3143 28.7987C21.2746 28.5882 21.2587 28.3837 21.2666 28.1832C21.2746 27.9806 21.3063 27.7999 21.3619 27.6351C21.4175 27.4723 21.493 27.3413 21.5863 27.24C21.6796 27.1388 21.7849 27.0772 21.902 27.0554C22.0212 27.0335 22.1403 27.0514 22.2654 27.111C22.3885 27.1705 22.5076 27.2658 22.6188 27.3969C22.73 27.5279 22.8253 27.6868 22.9067 27.8694C22.9881 28.0541 23.0497 28.2507 23.0894 28.4592Z" fill="#1A1614"/>
<path d="M27.3549 27.6468C27.3946 27.8553 27.4105 28.0598 27.4026 28.2624C27.3946 28.4629 27.3628 28.6456 27.3073 28.8084C27.2517 28.9712 27.1762 29.1042 27.0829 29.2035C26.9896 29.3048 26.8843 29.3663 26.7672 29.3882C26.648 29.412 26.5269 29.3922 26.4038 29.3346C26.2807 29.275 26.1616 29.1797 26.0504 29.0467C25.9392 28.9156 25.8439 28.7588 25.7625 28.5741C25.6811 28.3894 25.6195 28.1929 25.5798 27.9844C25.5401 27.7759 25.5242 27.5714 25.5341 27.3708C25.5421 27.1683 25.5738 26.9856 25.6294 26.8228C25.685 26.66 25.7585 26.527 25.8518 26.4277C25.9451 26.3264 26.0524 26.2649 26.1695 26.243C26.2867 26.2192 26.4078 26.2391 26.5309 26.2966C26.656 26.3562 26.7731 26.4515 26.8843 26.5845C26.9955 26.7156 27.0928 26.8725 27.1742 27.0571C27.2556 27.2418 27.3152 27.4383 27.3549 27.6468Z" fill="#1A1614"/>
<path d="M21.5066 27.7684L21.4391 28.7751C21.4391 28.7751 20.6607 28.4971 20.3867 27.5083C20.3887 27.5083 21.1333 28.0285 21.5066 27.7684Z" fill="#1A1614"/>
<path d="M26.7451 26.7695L27.178 27.6808C27.178 27.6808 27.7995 27.1368 27.6903 26.1162C27.6922 26.1162 27.1899 26.8747 26.7451 26.7695Z" fill="#1A1614"/>
<path d="M27.8135 32.3965C27.9962 33.3496 26.9696 34.3444 25.5221 34.6204C24.0766 34.8964 22.7562 34.3483 22.5755 33.3953C22.3949 32.4422 23.6061 32.4203 25.0516 32.1443C26.4991 31.8684 27.6328 31.4454 27.8135 32.3965Z" fill="#EBBA79"/>
<path d="M30.2836 29.0726C30.1863 29.0587 30.0989 29.1262 30.085 29.2235C29.7614 31.5228 27.2695 32.7261 25.2323 33.0597C25.2204 33.0597 25.2104 33.0636 25.1985 33.0676C23.2447 33.3932 20.8024 33.0954 19.7322 31.2349C19.6846 31.1495 19.5773 31.1217 19.492 31.1694C19.4086 31.217 19.3788 31.3262 19.4284 31.4096C20.4907 33.2602 22.7602 33.6931 24.726 33.4885C25.0774 33.4508 25.4189 33.3932 25.7406 33.3218C25.7446 33.3198 25.7485 33.3198 25.7525 33.3178C25.9312 33.2781 26.1099 33.2344 26.2906 33.1828C28.1888 32.6367 30.1347 31.3858 30.4305 29.2732C30.4464 29.1759 30.3789 29.0845 30.2836 29.0726Z" fill="#1A1614"/>
<path d="M23.072 26.2848C23.0621 26.2848 23.0522 26.2848 23.0402 26.2808L18.7156 25.1828C18.6442 25.1649 18.6025 25.0915 18.6203 25.02C18.6382 24.9505 18.7097 24.9068 18.7812 24.9247L23.1058 26.0247C23.1772 26.0425 23.2189 26.116 23.2011 26.1855C23.1852 26.2471 23.1316 26.2848 23.072 26.2848Z" fill="#1A1614"/>
<path d="M24.7002 25.975C24.6604 25.975 24.6187 25.9571 24.5929 25.9214C24.5492 25.8618 24.5631 25.7784 24.6227 25.7367L28.2424 23.1237C28.302 23.08 28.3854 23.0939 28.4271 23.1535C28.4688 23.213 28.4549 23.2964 28.3953 23.3381L24.7756 25.9512C24.7538 25.967 24.726 25.975 24.7002 25.975Z" fill="#1A1614"/>
<mask id="mask0_1015_56275" style="mask-type:luminance" maskUnits="userSpaceOnUse" x="18" y="38" width="19" height="23">
<path d="M18.6084 38.1807H36.9075V60.0002H18.6084V38.1807Z" fill="white"/>
</mask>
<g mask="url(#mask0_1015_56275)">
<path d="M36.8663 42.8826L34.559 56.5712C34.3505 57.8102 33.3895 58.7851 32.1545 59.0075L28.1495 59.7342L27.2024 59.905C26.6961 59.9983 26.1739 59.9566 25.6874 59.7839L23.5251 59.0254L20.9399 58.116C19.7565 57.699 18.9603 56.5851 18.9484 55.3282L18.8292 41.447C18.8133 39.662 20.3641 38.2165 22.1293 38.4587C22.1829 38.4667 22.2345 38.4746 22.2881 38.4845L24.6232 38.9253L27.7425 39.5131C27.951 39.5528 28.1634 39.5687 28.3739 39.5627L30.2721 39.5111L33.9216 39.4098C33.9752 39.4078 34.0269 39.4078 34.0805 39.4098C35.8615 39.4515 37.1641 41.1234 36.8663 42.8826Z" fill="#1A1614"/>
</g>
<mask id="mask1_1015_56275" style="mask-type:luminance" maskUnits="userSpaceOnUse" x="23" y="38" width="8" height="23">
<path d="M23.1826 38.689H30.2989V60.0002H23.1826V38.689Z" fill="white"/>
</mask>
<g mask="url(#mask1_1015_56275)">
<path d="M30.2694 39.5086L28.1488 59.7337L27.2037 59.9045C26.6954 59.9978 26.1731 59.9561 25.6887 59.7833L23.5264 59.0249C23.7904 54.0132 24.4834 40.968 24.6244 38.9248L27.7437 39.5125C27.9502 39.5522 28.1647 39.5681 28.3732 39.5622L30.2694 39.5086Z" fill="#1A1614"/>
</g>
<path d="M14.5459 48.9542L20.8362 50.2766L20.8223 43.7261L21.7516 41.8557C21.9501 40.5134 19.6786 39.6299 18.8626 40.5293L14.5459 48.9542Z" fill="#1A1614"/>
<path d="M36.838 52.8917L28.8877 50.507L32.2334 42.2827L34.2925 41.0278C35.599 40.2316 37.1993 41.4646 36.7665 42.9359L36.838 52.8917Z" fill="#1A1614"/>
<path d="M30.74 50.2768L28.7564 48.0549L19.4281 49.9809L16.001 53.7416C16.412 54.3691 17.9925 54.7523 18.8145 54.2619L30.74 50.2768Z" fill="#FBD1AD"/>
<path d="M30.933 50.493C30.933 50.493 32.4639 50.084 32.9345 48.7001C33.4031 47.3161 33.7823 47.2129 33.2541 46.6212C32.726 46.0314 32.0469 47.7033 32.0469 47.7033C32.0469 47.7033 31.1891 47.0679 31.2308 46.7899C31.2686 46.5119 32.5056 45.6522 33.2899 44.9453C34.0722 44.2365 33.7049 43.0312 32.442 43.335C31.1812 43.6388 29.4001 45.4715 29.4001 45.4715L28.7588 48.0528L30.933 50.493Z" fill="#FBE4CE"/>
<path d="M26.9975 41.3735C25.6314 41.3735 24.5234 40.2636 24.5234 38.8955V36.4175H29.4695V38.8955C29.4715 40.2636 28.3636 41.3735 26.9975 41.3735Z" fill="#FBE4CE"/>
<path d="M23.2147 45.7913C23.2147 45.7913 20.7943 44.864 19.7518 46.6054C18.7094 48.3487 19.3508 48.8233 20.1887 49.5123C21.0246 50.2033 22.6091 49.2145 23.0975 49.2224C23.2842 49.2264 23.4013 48.7538 23.6634 49.0139C24.0923 49.4408 24.5748 49.9511 24.9402 49.695C25.5279 49.28 25.6053 48.6962 25.6053 48.6962L23.2147 45.7913Z" fill="#FBE4CE"/>
<path d="M33.5041 51.8415L24.4796 47.3223L23.0977 49.2225L30.5873 55.3381C30.5873 55.3381 33.6312 56.1919 33.5041 51.8415Z" fill="#FBE4CE"/>
<path d="M36.8637 43.3074L36.7327 43.2677C36.7843 43.089 36.4845 42.0188 35.8054 41.4767C35.2951 41.0697 34.7054 41.0558 34.0521 41.433C32.1281 42.5469 31.8938 43.2995 31.8918 43.3074L31.7588 43.2697C31.7667 43.2359 31.9951 42.4616 33.9826 41.3139C34.8642 40.8036 35.5056 41.0637 35.8908 41.3675C36.5917 41.9255 36.9431 43.0433 36.8637 43.3074Z" fill="#EAEBF4"/>
<path d="M21.8246 42.4535L21.6976 42.3979C21.7115 42.3622 22.0411 41.562 20.9768 40.5791C19.9205 39.6042 18.9495 40.5374 18.9098 40.5771L18.8125 40.4798C18.8244 40.4679 19.9165 39.4136 21.0701 40.4778C22.2118 41.5322 21.8425 42.4158 21.8246 42.4535Z" fill="#EAEBF4"/>
<path d="M20.8533 40.1939L20.748 40.1045C21.2901 39.4672 22.1459 39.1018 22.9798 39.1515L22.9719 39.2904C22.1797 39.2408 21.3675 39.5883 20.8533 40.1939Z" fill="#EAEBF4"/>
<path d="M35.0703 41.2204C34.2225 40.3944 32.9735 40.0132 31.81 40.2237L31.7842 40.0887C32.9914 39.8683 34.286 40.2634 35.1656 41.1212L35.0703 41.2204Z" fill="#EAEBF4"/>
<path d="M16.0012 49.1907C15.9972 49.2582 15.4929 53.3187 16.0012 53.7396C16.5115 54.1606 19.4283 49.979 19.4283 49.979L16.0012 49.1907Z" fill="#FBE4CE"/>
<path d="M26.7447 14.5222C26.6315 14.8141 23.3414 23.5229 19.2094 25.9751C15.0794 28.4292 18.1531 40.7776 18.1531 40.7776L14.9821 38.4306C14.9821 38.4306 6.57118 15.3721 18.8262 13.0628C27.4277 11.4426 26.7447 14.5222 26.7447 14.5222Z" fill="#1A1614"/>
<path d="M24.9183 14.3277C24.9183 14.3277 25.8496 21.6386 30.2695 23.8188C34.6914 25.999 33.6966 38.4307 33.6966 38.4307C33.6966 38.4307 39.3495 33.6832 39.6414 33.2463C39.9333 32.8075 41.8573 16.9527 35.1679 13.3548C28.4785 9.75691 18.8186 11.4824 15.0559 14.8996C11.2952 18.3168 24.9183 14.3277 24.9183 14.3277Z" fill="#1A1614"/>
<path d="M12.0412 20.3575C12.0412 20.3575 12.0412 20.3548 12.0412 20.3521C12.0331 20.3548 12.0331 20.3575 12.0412 20.3575Z" fill="#EAEBF4"/>
<mask id="mask2_1015_56275" style="mask-type:luminance" maskUnits="userSpaceOnUse" x="12" y="8" width="29" height="13">
<path d="M12 8.57153H40.4653V20.898H12V8.57153Z" fill="white"/>
</mask>
<g mask="url(#mask2_1015_56275)">
<path d="M26.6182 8.58742C12.4332 8.60529 12.046 20.1812 12.04 20.352C12.4054 20.2885 35.5156 21.3011 40.1201 19.6769C40.1201 19.6769 38.8653 8.57352 26.6182 8.58742ZM16.0013 18.2254L16.7002 16.7581H24.5234L24.9205 18.2254H16.0013Z" fill="#EAEBF4"/>
</g>
</g>
<rect x="0.5" y="0.5" width="59" height="59" rx="29.5" stroke="#DBB7EA"/>
<defs>
<clipPath id="clip0_1015_56275">
<rect width="60" height="60" rx="30" fill="white"/>
</clipPath>
</defs>
</svg>
