<svg width="60" height="60" viewBox="0 0 60 60" fill="none" xmlns="http://www.w3.org/2000/svg">
<g clip-path="url(#clip0_1015_55107)">
<rect width="60" height="60" rx="30" fill="#FAF5F9"/>
<mask id="mask0_1015_55107" style="mask-type:luminance" maskUnits="userSpaceOnUse" x="7" y="32" width="23" height="25">
<path d="M7.71387 32.22H29.4501V56.6188H7.71387V32.22Z" fill="white"/>
</mask>
<g mask="url(#mask0_1015_55107)">
<path d="M28.0865 38.4704C26.637 36.7549 24.1471 36.7231 22.503 35.2994C22.1535 34.9976 21.8458 34.6323 21.673 34.1994C21.5876 33.985 21.3891 33.836 21.1508 33.9016C21.1806 33.7804 21.1647 33.6474 21.1012 33.5442C21.0972 33.5382 21.0932 33.5322 21.0893 33.5283C21.0773 33.5084 21.0634 33.4925 21.0476 33.4767C21.0416 33.4687 21.0337 33.4628 21.0277 33.4568C21.0118 33.4429 20.9959 33.431 20.98 33.4211C20.9701 33.4151 20.9622 33.4091 20.9522 33.4032C20.9324 33.3933 20.9125 33.3873 20.8907 33.3794C20.8808 33.3774 20.8728 33.3734 20.8609 33.3714C20.8291 33.3635 20.7934 33.3575 20.7557 33.3575C20.7299 33.3575 20.704 33.3615 20.6822 33.3655C20.6643 33.3674 20.6465 33.3714 20.6306 33.3774C20.6365 33.2602 20.5948 33.1391 20.5114 33.0438C19.6656 32.0848 18.0533 32.2853 17.4894 33.4409C17.3564 33.7149 17.2869 34.0068 17.2928 34.3126C17.2928 34.3344 17.2948 34.3642 17.2988 34.396C17.2749 34.398 17.2511 34.4019 17.2273 34.4019C16.6872 34.398 16.1769 34.114 15.6428 34.0545C15.1901 34.0048 14.7036 34.124 14.3502 34.4178C14.1874 34.5528 14.0682 34.7296 13.9967 34.9301C13.957 35.0433 13.9431 35.1684 13.9352 35.2895C13.9272 35.4086 13.9531 35.5575 13.9034 35.6648C13.7724 35.9447 13.2561 35.9884 12.9821 36.0361C12.5115 36.1195 12.035 36.2664 11.7431 36.6715C11.6081 36.8581 11.5366 37.0805 11.4929 37.3049C11.4572 37.4836 11.4512 37.7298 11.34 37.8827C11.2308 38.0356 11.0025 38.0971 10.8416 38.1785C10.5974 38.3016 10.3731 38.4545 10.1606 38.6273C9.79326 38.9251 9.48748 39.3004 9.30878 39.7412C9.11419 40.2157 9.13206 40.7022 9.29091 41.1847C9.35643 41.3872 9.48549 41.6394 9.46564 41.8578C9.44777 42.0325 9.29091 42.1259 9.16184 42.2192C8.75281 42.515 8.45299 42.8705 8.28422 43.349C8.1353 43.7759 8.11941 44.2743 8.25642 44.7071C8.32988 44.9454 8.45696 45.1578 8.57014 45.3782C8.63566 45.5073 8.75678 45.6959 8.66346 45.831C8.54234 46.0116 8.28819 46.103 8.14324 46.2658C7.98241 46.4465 7.86724 46.6669 7.82157 46.9052C7.72428 47.3956 7.86327 47.896 8.08566 48.3348C8.14324 48.444 8.20678 48.5492 8.27627 48.6505C8.31003 48.6981 8.34577 48.7716 8.38747 48.8093C8.38945 48.8113 8.39144 48.8133 8.39144 48.8153C8.33783 48.8629 8.21671 49.0714 8.18891 49.1171C8.12537 49.2184 8.07374 49.3256 8.02609 49.4348C7.8037 49.9491 7.75208 50.507 7.85136 51.055C7.94468 51.5693 8.20082 52.0458 8.56815 52.4152C8.77466 52.6217 9.01888 52.7964 9.20354 53.0227C9.31473 53.1598 9.45571 53.402 9.36835 53.5847C9.26708 53.7912 9.31076 54.0453 9.52123 54.1664C9.70788 54.2757 10.0017 54.222 10.101 54.0136C10.3592 53.4834 10.2082 52.9215 9.85084 52.4767C9.54109 52.0955 9.10029 51.8433 8.86202 51.4025C8.67935 51.065 8.61382 50.6599 8.65949 50.2807C8.6853 50.0821 8.74289 49.8796 8.83422 49.7029C8.94542 49.4844 9.13802 49.3097 9.21744 49.0754C9.39813 48.5433 8.90968 48.1779 8.73693 47.7193C8.60787 47.3718 8.56418 46.9945 8.87791 46.7423C9.06852 46.5895 9.27701 46.4703 9.40607 46.2539C9.553 46.0037 9.57683 45.7118 9.50734 45.4338C9.39416 44.9851 9.03675 44.6337 9.01491 44.1591C8.99704 43.7779 9.12412 43.3927 9.39614 43.1187C9.55499 42.9578 9.75553 42.8506 9.92232 42.6997C10.1189 42.525 10.2539 42.2946 10.2956 42.0345C10.383 41.4984 10.0534 41.0675 10.0117 40.5553C9.97991 40.1482 10.2023 39.7729 10.4763 39.489C10.8079 39.1455 11.207 38.9807 11.6101 38.7444C12.0985 38.4605 12.2097 38.0157 12.3169 37.4994C12.3527 37.3327 12.3864 37.1718 12.5314 37.0666C12.6902 36.9514 12.9027 36.9157 13.0893 36.8799C13.2184 36.8541 13.3475 36.8303 13.4745 36.8025C13.2561 36.9375 13.0615 37.1063 12.9007 37.3009C12.7339 37.5034 12.6048 37.7198 12.5095 37.9641C12.4718 38.0653 12.442 38.1686 12.4222 38.2738C12.4003 38.3989 12.4043 38.5657 12.3408 38.6809C12.2455 38.8536 11.9575 38.9231 11.7947 39.0164C11.5465 39.1594 11.342 39.354 11.1732 39.5823C10.8694 39.9914 10.7126 40.5314 10.7642 41.0397C10.7761 41.1708 10.796 41.3038 10.8357 41.4329C10.8794 41.5739 10.9568 41.7049 10.9945 41.8479C11.0184 41.9392 11.0104 41.965 10.9806 42.0127C10.9389 42.0802 10.8476 42.1596 10.7741 42.2192C10.5815 42.3741 10.3651 42.5031 10.1943 42.6858C10.0077 42.8863 9.87268 43.1246 9.78532 43.3827C9.61456 43.8811 9.6642 44.4629 9.92232 44.9235C9.98785 45.0427 10.0772 45.1459 10.1586 45.2551C10.2063 45.3187 10.2638 45.4259 10.2738 45.4636C10.2698 45.4696 10.2678 45.5033 10.2678 45.5192C10.2599 45.5411 10.2499 45.5788 10.246 45.5927C10.236 45.6086 10.2281 45.6264 10.2182 45.6443C10.1924 45.686 10.1666 45.7317 10.1388 45.7734C9.95806 46.0414 9.63838 46.3373 9.48152 46.6808C9.38026 46.8992 9.33459 47.1275 9.38224 47.3658C9.43983 47.6498 9.64037 47.8205 9.79326 48.0528C10.0693 48.4738 9.72376 49.1131 9.58874 49.5281C9.43188 50.0066 9.36636 50.5686 9.56889 51.0431C9.68008 51.3012 9.87467 51.5197 10.1268 51.6428C10.3234 51.7381 10.655 51.7659 10.79 51.9426C10.8893 52.0717 10.8933 52.296 10.8953 52.4628C10.8972 52.6971 10.8714 52.9334 10.8953 53.1677C10.9509 53.68 11.1673 54.2538 11.7014 54.4285C11.8225 54.4683 11.9556 54.4822 12.0846 54.4702C12.2296 54.4563 12.3805 54.3928 12.5234 54.3928C12.7121 54.3908 12.8669 54.5497 12.9821 54.6887C13.3077 55.0878 13.4348 55.6417 13.959 55.8502C14.2668 55.9713 14.5944 55.8939 14.8347 55.6735C14.9498 55.5703 15.067 55.328 15.206 55.2883C15.3867 55.2347 15.6408 55.4352 15.7639 55.5425C15.9724 55.7212 16.1412 55.9435 16.3497 56.1242C16.8103 56.5194 17.4517 56.7834 18.0056 56.3903C18.3908 56.1163 18.5616 55.5802 19.0481 55.4551C19.5226 55.334 20.0607 55.5008 20.5273 55.5941C21.0813 55.7033 21.7544 55.8621 22.227 55.4571C22.6082 55.1334 22.6221 54.6311 22.8068 54.2022C22.9656 53.8368 23.3806 53.7693 23.7638 53.682C24.2483 53.5728 24.7447 53.4278 25.0823 53.0347C25.4297 52.6316 25.5429 52.1173 25.6184 51.6031C25.6879 51.1166 25.7474 50.6381 25.9797 50.1992C26.224 49.7366 26.5516 49.3256 26.7859 48.857C26.911 48.6088 27.0182 48.3447 27.0659 48.0707C27.1234 47.7371 27.0837 47.4174 27.0877 47.0819C27.0917 46.7821 27.2108 46.5219 27.3538 46.2638C27.5067 45.9838 27.6675 45.7098 27.8184 45.4279C28.4319 44.2981 28.9581 43.0928 29.0614 41.7963C29.1587 40.6089 28.8628 39.3897 28.0865 38.4704ZM15.613 35.3034C15.2953 35.6191 15.1027 36.0103 15.0332 36.4312C14.787 36.4034 14.5348 36.4173 14.2906 36.4689C14.3144 36.453 14.3383 36.4372 14.3621 36.4173C14.5626 36.2525 14.7076 36.0242 14.7533 35.768C14.7969 35.5397 14.7314 35.2359 14.8744 35.0889C15.1563 34.7991 15.6507 34.8963 16.0141 34.9976C15.8692 35.083 15.7341 35.1823 15.613 35.3034Z" fill="#3C1712"/>
</g>
<path d="M30.0223 36.2425C29.8416 36.1055 29.6331 36.0578 29.4187 36.0181C29.367 35.9069 29.2678 35.8215 29.1447 35.7719C29.0394 35.7302 28.9362 35.6865 28.8329 35.6409C28.7952 35.623 28.7555 35.6071 28.7178 35.5912C27.7885 35.1842 26.899 34.6898 26.061 34.1179C25.9836 34.0305 25.9101 33.9412 25.8406 33.8479C25.7354 33.7029 25.5706 33.6156 25.4018 33.6434C25.1278 33.4369 24.8617 33.2224 24.6016 33C24.5957 32.9921 24.5917 32.9861 24.5877 32.9782C24.2661 32.4222 24.0298 31.8265 23.8431 31.213C23.7439 30.8953 23.6585 30.5717 23.581 30.248C23.4977 29.9025 23.4957 29.4875 23.0985 29.3684C22.4096 29.1639 21.79 29.5352 21.2956 30.0594C21.248 30.0792 21.2043 30.109 21.1705 30.1507C21.109 30.2282 21.0594 30.3076 21.0157 30.387C20.7734 30.6987 20.5729 31.0303 20.422 31.3123C20.0983 31.9159 20.0129 32.5731 20.1837 33.2403C20.3445 33.8697 20.688 34.4416 21.0633 34.9638C21.7305 35.895 22.5009 36.7568 23.3884 37.4815C24.274 38.2042 25.2589 38.7999 26.345 39.1712C26.8791 39.3559 27.4331 39.473 27.997 39.5326C28.5887 39.5942 29.2876 39.6517 29.6073 39.0342C29.7681 38.7245 29.8793 38.379 30.0084 38.0533C30.1235 37.7654 30.2764 37.4696 30.3301 37.1618C30.3896 36.8124 30.3122 36.4669 30.0223 36.2425Z" fill="#F53C47"/>
<path d="M44.8499 13.1602C44.3416 12.7472 42.9914 12.1535 42.4056 11.8716C41.113 11.2481 40.4161 11.5102 39.0559 11.0535C38.9368 11.0138 38.8395 11.0396 38.766 11.0992C38.0413 10.7477 37.2332 10.571 36.425 10.6107C35.9723 10.6345 35.5355 10.7299 35.1026 10.8569C34.6777 10.982 34.225 11.1448 33.7763 11.0853C33.5618 11.0555 33.3613 10.9681 33.1568 10.9086C32.9304 10.843 32.6941 10.8133 32.4578 10.8252C31.9654 10.847 31.471 10.9622 30.9865 11.0416C29.9957 11.2064 29.0029 11.3692 28.0121 11.532C27.4621 11.6234 26.9101 11.7107 26.3601 11.8041C26.102 11.8477 25.8538 11.9133 25.6374 12.0324C25.3574 11.8716 25.0099 11.8517 24.7002 11.945C24.6327 11.9371 24.5651 11.9331 24.4976 11.9351C23.9834 11.9411 23.5346 12.1952 23.2844 12.6479C23.2169 12.7671 23.1435 12.918 23.076 13.0212C23.0382 13.0331 22.9985 13.047 22.9628 13.0629C22.9489 13.0609 22.937 13.0589 22.935 13.0589C22.8476 13.0331 22.7801 12.9994 22.6927 12.9597C22.2222 12.7512 21.6404 12.6916 21.3684 13.2416C21.2671 13.4501 21.2572 13.6765 21.2353 13.9048C21.2313 13.9525 21.2155 14.0637 21.2016 14.0875C21.1539 14.1768 21.1738 14.1232 21.1877 14.1113C21.1519 14.1391 21.1301 14.1371 21.0626 14.147C20.6694 14.2007 20.179 14.0934 19.8295 14.4429C19.4761 14.7963 19.5535 15.2768 19.5555 15.7256C19.5555 15.7673 19.5555 15.811 19.5535 15.8507C19.5515 15.8527 19.5396 15.9122 19.5357 15.9301C19.5357 15.9321 19.5357 15.9341 19.5376 15.9321C19.5376 15.9341 19.5357 15.9341 19.5357 15.9341C19.5337 15.9341 19.5337 15.9361 19.5337 15.9361C19.5357 15.9341 19.5337 15.9341 19.5357 15.9341C19.4205 15.9857 19.2775 15.9817 19.1584 16.0195C19.0115 16.0651 18.8645 16.1465 18.7593 16.2637C18.4495 16.6032 18.527 17.052 18.6521 17.453C18.7017 17.6139 18.7851 17.8641 18.797 17.9772C18.8129 18.146 18.7891 18.1996 18.662 18.3327C18.3284 18.6821 17.9353 19.0276 18.0822 19.5737C18.1438 19.798 18.2887 19.9628 18.4198 20.1475C18.4535 20.1932 18.4893 20.2388 18.5131 20.2904C18.5151 20.2924 18.531 20.3421 18.5349 20.3421C18.5369 20.358 18.5349 20.3719 18.5349 20.3877C18.529 20.3719 18.4952 20.5108 18.521 20.4493C18.3721 20.8007 18.0246 21.047 17.8598 21.4202C17.6374 21.9246 17.7983 22.3872 18.1219 22.8022C18.2331 22.9432 18.3503 23.0683 18.4416 23.2172C18.5171 23.3443 18.5468 23.4237 18.4912 23.5726C18.4118 23.7791 18.2569 23.9539 18.1577 24.1524C18.0346 24.3986 17.9631 24.6528 18.0087 24.9288C18.0882 25.3994 18.4833 25.6317 18.803 25.9057C18.9539 26.0347 19.0452 26.1301 19.0214 26.3465C18.9916 26.6165 18.8526 26.8687 18.7732 27.1248C18.6282 27.5954 18.6223 28.197 19.0194 28.5525C19.21 28.7252 19.4423 28.7927 19.6885 28.8384C19.7839 28.8543 19.8891 28.8662 19.9765 28.9059C19.9804 28.9079 19.9923 28.9138 20.0043 28.9198C20.0102 28.9337 20.0162 28.9416 20.0182 28.9416C20.0201 28.9496 20.0221 28.9575 20.0241 28.9655C20.0261 28.9734 20.0281 28.9774 20.0281 28.9794C20.0281 28.9833 20.0281 28.9833 20.0281 28.9893C20.0301 29.0231 20.0281 29.0548 20.0261 29.0886C20.0241 29.1045 20.0162 29.172 20.0142 29.174C20.0062 29.2196 19.9963 29.2633 19.9844 29.309C19.9387 29.4916 19.8811 29.6723 19.8454 29.857C19.762 30.3117 19.8236 30.7862 20.2445 31.0583C20.4351 31.1834 20.6516 31.2231 20.8739 31.2489C20.9752 31.2608 21.0785 31.2668 21.1817 31.2787C21.2055 31.2826 21.2174 31.2826 21.2254 31.2826C21.2333 31.2866 21.2472 31.2886 21.2651 31.2926C21.2631 31.2926 21.4001 31.3303 21.3386 31.3065C21.3882 31.3263 21.3902 31.3085 21.4001 31.3819C21.4041 31.4216 21.3703 31.5388 21.3545 31.6003C21.2949 31.8585 21.2274 32.1325 21.2989 32.3966C21.4259 32.8532 21.825 33.0677 22.2639 33.1312C22.4346 33.1551 22.6749 33.1729 22.794 33.1928C22.8496 33.2027 22.9072 33.2146 22.9628 33.2285C22.7245 33.987 22.6451 34.8507 23.3361 35.4047C23.6994 35.6966 24.1263 35.7204 24.5612 35.5874C24.6883 35.5477 24.8848 35.4405 25.0218 35.4782C25.0735 35.4921 25.0556 35.4921 25.0893 35.5298C25.0973 35.5378 25.1608 35.641 25.1866 35.6906C25.3495 35.9944 25.4904 36.3101 25.8041 36.4908C26.1079 36.6636 26.4554 36.6576 26.789 36.5961C27.0769 36.5425 27.3529 36.4313 27.6408 36.3876C27.6527 36.3876 27.6766 36.3856 27.6805 36.3856C27.7163 36.3816 27.754 36.3816 27.7897 36.3816C27.7997 36.3816 27.8215 36.3856 27.8374 36.3876C27.8553 36.3916 27.8731 36.3975 27.891 36.4035C27.891 36.4035 27.9188 36.4174 27.9367 36.4352C27.9962 36.4968 28.032 36.5782 28.0776 36.6517C28.304 37.0329 28.6554 37.2652 29.1062 37.2791C29.1717 37.2811 29.2372 37.2751 29.3027 37.2672C29.3941 37.4876 29.5629 37.6842 29.7177 37.8589C29.952 38.127 30.2221 38.3632 30.5159 38.5638C30.7205 38.7048 30.9369 38.8299 31.1573 38.9391C31.467 38.806 31.7827 38.6928 32.1223 38.6631C32.1957 38.6551 32.2652 38.6313 32.3228 38.5896C32.6107 38.5638 32.8967 38.5161 33.1766 38.4486C34.0364 38.2401 34.8544 37.8251 35.5017 37.2176C35.8194 36.9177 36.2305 36.5008 36.3079 36.052C36.3377 35.8793 36.3238 35.6946 36.2642 35.5397C37.0684 34.8229 37.251 33.6435 37.5727 32.6448C37.7653 32.0451 38.0373 31.5487 38.4861 31.1039C38.9606 30.6314 39.5186 30.1528 39.6159 29.45C39.7132 28.7332 39.3041 28.1534 38.8097 27.6848C39.6258 27.244 40.1897 26.3584 40.2056 25.4192C40.2175 24.7481 39.8819 24.1584 39.7529 23.515C39.6913 23.2112 39.7132 22.8995 39.5543 22.6215C39.4392 22.423 39.2485 22.2701 39.05 22.1609C38.917 22.0894 38.776 22.0318 38.635 21.9742C38.8157 21.9742 38.9944 21.9683 39.1691 21.9186C39.6099 21.7935 39.8025 21.3905 39.9812 21.0072C40.3565 20.2071 40.6524 19.3632 41.1726 18.6404C41.6293 18.009 42.2428 17.4967 42.8881 17.0678C43.6486 16.5675 44.1073 15.9857 44.9233 15.5886C45.0167 15.5449 45.0683 15.4774 45.0882 15.4019C45.1517 15.3384 45.1914 15.249 45.2053 15.1498C45.2907 14.4866 45.3443 13.5593 44.8499 13.1602Z" fill="#3C1712"/>
<mask id="mask1_1015_55107" style="mask-type:luminance" maskUnits="userSpaceOnUse" x="18" y="13" width="34" height="48">
<path d="M18.2676 13.4124H51.7962V60.0001H18.2676V13.4124Z" fill="white"/>
</mask>
<g mask="url(#mask1_1015_55107)">
<path d="M51.3476 30.2718C51.4707 30.1249 51.5839 29.978 51.6455 29.7953C51.7448 29.4994 51.6971 29.1976 51.566 28.9236C51.4648 28.7092 51.3059 28.5285 51.161 28.3418C50.7798 27.9586 50.9108 27.8871 51.0637 27.7422C51.1947 27.6251 51.3159 27.494 51.4171 27.3411C51.7388 26.8467 51.7884 26.1915 51.4628 25.6891C51.1868 25.2622 50.742 24.9405 50.3568 24.6169C49.9736 24.2913 49.5864 23.9696 49.229 23.6162C48.8994 23.2905 48.6016 22.9411 48.3832 22.53C48.1469 22.0853 48.0754 21.6028 48.0833 21.1044C48.0952 20.4948 48.1945 19.8912 48.1727 19.2816C48.1528 18.7316 48.0575 18.1776 47.8868 17.6534C47.4936 16.4581 46.755 15.4455 45.7622 14.681C45.6887 14.6234 44.7396 13.9603 44.3584 13.6584C44.2571 13.7399 44.1539 13.8213 44.0347 13.8848C43.6892 14.0734 43.4688 13.9861 43.0896 14.0675C42.8692 14.1151 42.4125 14.1191 42.0213 14.5122C41.8526 14.681 41.7434 15.5011 41.656 15.7135C41.5587 15.9478 40.7426 16.1305 40.2998 16.5753C40.0298 16.8453 40.0437 17.8699 39.8312 18.1955C39.6247 18.5072 39.041 18.6006 38.8146 18.9004C38.6061 19.1764 38.8643 20.1374 38.6836 20.4154C38.1872 21.1739 37.8834 20.9575 37.5101 21.3029C37.2698 21.5253 37.2559 22.4546 37.1964 22.7663C36.6761 24.0411 34.9884 23.5248 34.7203 23.503C34.5019 22.3355 33.1795 21.2096 32.0477 21.0011C31.3488 20.8741 30.1138 21.1084 29.5161 21.8827C29.1011 22.4208 28.702 23.0523 28.6385 23.7135C28.5174 24.9664 28.6742 27.0234 30.5923 28.2386C31.5434 28.8402 32.842 28.4431 32.846 28.4332C33.4913 28.9991 31.9584 33.0417 31.184 34.3363C29.7365 36.7587 26.1208 40.7557 24.8897 42.2489C23.5097 43.9227 22.0265 46.1625 20.3328 50.2051C18.6629 54.1962 18.5537 60 18.5537 60H47.2851C47.2851 60 45.0017 52.3932 43.3795 49.6849C41.0345 45.7713 39.3706 42.4296 38.9338 41.7029C38.5108 40.994 39.3626 39.4472 40.1271 37.1837C40.1271 37.1837 40.8101 35.6945 40.8439 35.7044C42.2278 36.1114 43.6277 36.453 45.0633 36.6217C46.4452 36.7846 47.7339 36.9533 49.0483 36.4569C50.476 35.9188 50.4899 34.3979 50.4938 34.1775C50.5018 33.7704 50.4958 33.3594 50.607 32.9702C50.6606 32.7816 50.7381 32.593 50.881 32.454C50.9307 32.4044 50.9724 32.3726 51.0339 32.3388C51.2642 32.2137 51.4132 32.0886 51.4846 31.8266C51.5561 31.5684 51.5224 31.2964 51.439 31.0462C51.3794 30.8695 51.2007 30.5597 51.2265 30.4208C51.2186 30.4664 51.3238 30.2996 51.3476 30.2718Z" fill="#BB5122"/>
</g>
<path d="M50.6286 26.9242C50.6028 26.8428 50.5512 26.7634 50.4738 26.7217C50.446 26.7098 50.4182 26.6979 50.3924 26.688C50.3308 26.6701 50.2712 26.6701 50.2117 26.688C50.1303 26.7217 50.0508 26.7535 49.9754 26.8031C49.9039 26.8508 49.8344 26.9044 49.7709 26.964C49.7073 27.0255 49.6537 27.095 49.6041 27.1645C49.5683 27.2141 49.5386 27.2678 49.5127 27.3214C49.4869 27.3611 49.473 27.4028 49.471 27.4484C49.4611 27.4941 49.4631 27.5398 49.477 27.5854C49.4988 27.6629 49.5604 27.7483 49.6339 27.788C49.7133 27.8297 49.8086 27.8515 49.896 27.8217C49.9754 27.7959 50.0628 27.7443 50.0985 27.6669C50.1223 27.6152 50.1521 27.5676 50.1839 27.5219C50.2176 27.4822 50.2554 27.4445 50.2951 27.4107C50.3407 27.3789 50.3884 27.3511 50.438 27.3273C50.448 27.3234 50.4559 27.3194 50.4638 27.3134C50.4658 27.3134 50.4658 27.3134 50.4658 27.3134C50.4797 27.3035 50.4936 27.2956 50.5075 27.2836C50.5453 27.2598 50.573 27.228 50.5949 27.1883C50.6207 27.1486 50.6326 27.1069 50.6346 27.0613C50.6465 27.0156 50.6425 26.9699 50.6286 26.9242Z" fill="#9C4418"/>
<mask id="mask2_1015_55107" style="mask-type:luminance" maskUnits="userSpaceOnUse" x="47" y="28" width="5" height="3">
<path d="M47.749 28.1533H51.7956V30.6949H47.749V28.1533Z" fill="white"/>
</mask>
<g mask="url(#mask2_1015_55107)">
<path d="M51.0275 28.614C50.7237 28.5922 50.0764 28.8165 49.7726 29.2831C49.4688 29.7498 48.9029 30.1747 48.5376 30.1747C48.1742 30.1747 48.1127 29.9523 47.9498 29.992C47.789 30.0337 47.646 30.5599 48.1127 30.5003C48.5773 30.4388 48.7798 30.3573 49.3278 30.4586C49.8203 30.5499 50.7376 30.5758 51.2261 30.4606C51.2261 30.4467 51.2241 30.4328 51.2261 30.4209C51.2181 30.4666 51.3233 30.2998 51.3472 30.272C51.4703 30.125 51.5835 29.9781 51.645 29.7954C51.7443 29.4996 51.6966 29.1978 51.5656 28.9238C51.5517 28.894 51.5358 28.8682 51.5199 28.8384C51.504 28.8503 51.4941 28.8562 51.4941 28.8562C51.4941 28.8562 51.3313 28.6339 51.0275 28.614Z" fill="#9C4418"/>
</g>
<path d="M51.0338 32.3389C51.1271 32.2873 51.2065 32.2357 51.274 32.1761C51.1489 32.2536 50.994 32.3032 50.8054 32.2853C50.1978 32.2238 49.8146 31.8187 49.5704 31.8783C49.3579 31.9319 49.9735 33.1768 50.5096 33.6137C50.5215 33.3953 50.5473 33.1808 50.6069 32.9703C50.6605 32.7817 50.7379 32.5931 50.8809 32.4541C50.9305 32.4045 50.9722 32.3727 51.0338 32.3389Z" fill="#9C4418"/>
<path d="M40.9287 35.6668C40.327 35.4702 39.7413 35.2419 39.1674 34.9758C38.5757 34.6998 38.0575 35.5794 38.6512 35.8574C39.3044 36.1612 39.7274 36.3439 40.4124 36.5682C41.0379 36.7727 41.5501 35.8713 40.9287 35.6668Z" fill="#9C4418"/>
<path d="M47.3125 23.0585C47.1934 22.6236 46.7526 22.3437 46.3118 22.4707C45.8352 22.6097 45.6248 23.124 45.726 23.5827C45.8333 24.0652 46.2721 24.4345 46.7744 24.2518C47.1358 24.1208 47.3225 23.7911 47.3344 23.4397C47.3503 23.3106 47.3463 23.1796 47.3125 23.0585Z" fill="#1A1A1A"/>
<path d="M46.764 19.7203C45.6501 19.9268 44.6454 20.5046 43.8849 21.3445C43.4441 21.833 43.9107 22.3929 44.417 21.9739C45.104 21.4061 46.1147 20.8719 47.0698 20.6932C47.7131 20.5741 47.4033 19.6012 46.764 19.7203Z" fill="#3C1712"/>
<path d="M38.9411 26.6087C38.2064 25.8145 37.0965 25.3459 36.0123 25.4412C35.784 25.461 35.5874 25.6219 35.5874 25.8661C35.5874 26.0825 35.784 26.3129 36.0123 26.293C37.5234 26.16 39.0264 27.3493 39.0006 28.9199C38.9907 29.6447 38.675 30.3555 38.1548 30.8559C37.6266 31.3642 36.8999 31.5786 36.1791 31.4813C35.4107 31.3761 34.6899 30.9373 34.2988 30.2562C34.0248 29.7817 33.2901 30.2106 33.5641 30.6851C34.5132 32.3371 36.8939 32.8951 38.4308 31.7315C39.2051 31.1458 39.6996 30.2602 39.8227 29.2972C39.9478 28.3084 39.6142 27.3354 38.9411 26.6087Z" fill="#C61818"/>
<path d="M33.1514 29.8427C33.3401 29.7137 33.4255 29.4694 33.3043 29.261C33.1951 29.0743 32.9112 28.977 32.7226 29.1081C32.5498 29.2272 32.4267 29.3682 32.3393 29.525C31.8092 29.7315 31.6742 30.3252 31.7953 30.8415C31.8231 30.9606 31.8628 31.0758 31.8946 31.1949C31.9025 31.2207 31.9521 31.3558 31.9363 31.3736C31.9382 31.3697 31.9303 31.2863 31.9323 31.3498C31.9323 31.3716 31.9343 31.3955 31.9343 31.4173C31.9343 31.4352 31.9323 31.453 31.9323 31.4709C31.9244 31.4888 31.9224 31.5106 31.9184 31.5305C31.9164 31.5305 31.9065 31.5484 31.9005 31.5623C31.8827 31.5742 31.8608 31.5861 31.8588 31.5881C31.6623 31.6794 31.5967 31.9693 31.696 32.152C31.6682 32.1579 31.6424 32.1679 31.6146 32.1798C31.2989 32.3287 31.148 32.6603 31.1321 32.9958C31.1242 33.1487 31.15 33.3056 31.1877 33.4525C31.2274 33.6094 31.3088 33.7861 31.277 33.9509C31.2751 33.937 31.2413 34.0164 31.2552 34.0065C31.2274 34.0383 31.1956 34.0681 31.1659 34.0939C31.1599 34.0978 31.144 34.1098 31.0964 34.1395C31.0388 34.1753 30.9792 34.2071 30.9196 34.2368C30.7251 34.3401 30.5205 34.4255 30.3399 34.5565C30.0678 34.7551 29.8852 35.0192 29.8613 35.3627C29.8534 35.5056 29.903 35.6605 29.8137 35.7836C29.7501 35.871 29.6568 35.9067 29.5555 35.9047C29.0075 35.8968 29.0075 36.7466 29.5555 36.7565C29.9189 36.7605 30.2604 36.5898 30.4808 36.3018C30.5841 36.1688 30.6615 36.0139 30.6933 35.8471C30.7231 35.6943 30.6893 35.5235 30.7151 35.3805C30.7191 35.3944 30.7548 35.319 30.735 35.3329C30.7568 35.311 30.7926 35.2773 30.7985 35.2713C30.8859 35.2038 30.9872 35.1542 31.0864 35.1045C31.3128 34.9894 31.5372 34.8861 31.7337 34.7233C31.972 34.5267 32.1249 34.2468 32.1348 33.935C32.1428 33.7325 32.0911 33.532 32.0375 33.3374C32.0018 33.2083 31.9641 33.0832 31.9859 32.978C31.9879 32.972 31.9919 32.9621 31.9958 32.9522C32.0296 32.9522 32.0713 32.9482 32.0991 32.9462C32.2877 32.9343 32.4684 32.8926 32.6272 32.7874C32.9092 32.6007 33.0998 32.285 33.1653 31.9554C33.2587 31.5027 33.1236 31.0659 33.0323 30.6251C32.9866 30.4027 32.9271 29.9976 33.1514 29.8427Z" fill="#3C1712"/>
<mask id="mask3_1015_55107" style="mask-type:luminance" maskUnits="userSpaceOnUse" x="24" y="40" width="25" height="21">
<path d="M24.3672 40.8611H48.7661V60.0001H24.3672V40.8611Z" fill="white"/>
</mask>
<g mask="url(#mask3_1015_55107)">
<path d="M24.7803 42.3004C24.7803 42.3004 27.3635 41.2064 30.7489 43.4223C33.1952 45.0247 36.8427 55.2782 34.1344 57.2459C34.2178 58.894 34.2237 59.9999 34.2237 59.9999H48.5676C48.5676 59.9999 46.9215 57.4187 45.2278 53.1139C43.5361 48.8092 40.9568 45.3106 40.9568 45.3106C40.9568 45.3106 35.9571 45.118 34.7856 44.4667C33.6141 43.8134 30.0123 40.1957 25.8465 41.1091C25.2072 41.4149 24.7803 42.3004 24.7803 42.3004Z" fill="#E5E5E5"/>
</g>
<path d="M36.5028 54.8156C36.7748 52.7844 36.5664 50.6916 35.9191 48.7477C35.6232 47.8581 35.234 47.0024 34.7595 46.1942C35.1864 46.3908 35.651 46.5 36.1236 46.5675C36.9297 46.6807 37.7498 46.7343 38.5619 46.778C39.7016 46.8415 40.8413 46.8574 41.981 46.8316C41.9056 46.7105 41.8321 46.5993 41.7626 46.4921C40.7798 46.5099 39.7949 46.5 38.814 46.4524C37.9999 46.4107 37.1859 46.357 36.3777 46.2597C35.6728 46.1744 34.9382 46.0235 34.3683 45.5708C34.2313 45.4596 33.9871 45.6005 34.1022 45.7773C35.1963 47.4392 35.9052 49.3453 36.1673 51.321C36.4095 53.1517 36.334 55.1651 35.6232 56.8926C35.3095 57.6491 34.8449 58.344 34.1995 58.8424C34.2035 58.9933 34.2075 59.1303 34.2115 59.2554C35.653 58.2745 36.2784 56.4855 36.5028 54.8156Z" fill="#CBCBCB"/>
<mask id="mask4_1015_55107" style="mask-type:luminance" maskUnits="userSpaceOnUse" x="32" y="51" width="3" height="10">
<path d="M32.5 51.5356H34.5332V60.0002H32.5V51.5356Z" fill="white"/>
</mask>
<g mask="url(#mask4_1015_55107)">
<path d="M34.0047 54.4383C33.8995 53.5905 33.7645 52.7486 33.5719 51.9146C33.4487 51.3825 32.6287 51.6069 32.7518 52.141C33.3435 54.7044 33.3753 57.3929 33.6294 59.9999H34.4813C34.2986 58.1672 34.2311 56.267 34.0047 54.4383Z" fill="#9C4418"/>
</g>
<mask id="mask5_1015_55107" style="mask-type:luminance" maskUnits="userSpaceOnUse" x="32" y="8" width="4" height="4">
<path d="M32.5 8.57153H35.0415V11.3792H32.5V8.57153Z" fill="white"/>
</mask>
<g mask="url(#mask5_1015_55107)">
<path d="M34.8929 10.5312C34.8929 10.5312 34.6924 8.58528 33.9895 8.60315C32.9709 8.63095 32.8418 11.3194 32.8418 11.3194L34.8929 10.5312Z" fill="#D28B0F"/>
</g>
<path d="M32.6584 26.5091C32.6584 26.5091 36.9374 17.3654 38.7661 14.951C40.841 12.2128 41.6234 11.9686 41.947 11.6549C42.3898 11.226 39.3777 11.1525 39.189 10.8388C39.0004 10.5251 39.0639 9.96119 37.9361 10.0863C36.8083 10.2114 35.9307 10.0227 34.928 9.77256C33.9252 9.52039 33.8617 9.96119 33.2978 10.0227C32.7339 10.0863 31.5425 9.52039 31.1057 9.45884C30.6669 9.3953 30.1407 9.8083 29.5768 9.68321C29.1261 9.58393 25.2204 10.1816 24.2257 10.5867C23.9973 10.68 23.8822 10.9321 23.9616 11.1645C24.5592 12.9058 27.8692 20.5265 28.8481 23.9616C29.9759 27.9149 32.6584 26.5091 32.6584 26.5091Z" fill="#F53C47"/>
<path d="M38.4861 11.1664C36.3893 12.5941 34.4196 14.1905 33.121 16.3726C32.7577 16.9842 32.434 17.6176 32.1481 18.2709C32.0746 18.4396 32.1004 18.6362 32.2712 18.7375C32.4142 18.8209 32.6624 18.7831 32.7358 18.6144C33.7127 16.3746 35.1701 14.3652 36.9969 12.747C37.5171 12.2863 38.0651 11.8614 38.637 11.4702C38.9984 11.226 38.8494 10.9182 38.4861 11.1664Z" fill="#C61818"/>
<path d="M34.0944 10.3486C32.635 12.6261 31.9738 15.2828 31.3424 17.8839C31.2372 18.3089 31.8944 18.4915 31.9977 18.0646C32.6152 15.5191 32.8952 12.8922 34.3228 10.6624C34.5611 10.293 34.3307 9.97933 34.0944 10.3486Z" fill="#C61818"/>
<path d="M37.5134 24.3431C37.5729 24.7124 37.5987 25.0837 37.5908 25.455C37.5829 25.8283 37.5412 26.1956 37.4657 26.557C37.3903 26.9184 37.285 27.2679 37.146 27.6034C37.007 27.941 36.8402 28.2587 36.6437 28.5565C36.4471 28.8563 36.2247 29.1303 35.9765 29.3805C35.7283 29.6307 35.4603 29.8511 35.1704 30.0417C34.8825 30.2323 34.5787 30.3912 34.259 30.5163C33.9393 30.6414 33.6117 30.7307 33.2741 30.7843C32.9366 30.8379 32.597 30.8558 32.2555 30.836C31.912 30.8181 31.5745 30.7625 31.2409 30.6712C30.9053 30.5798 30.5817 30.4547 30.2699 30.2939C29.9562 30.135 29.6604 29.9424 29.3804 29.7201C29.1004 29.4977 28.8403 29.2475 28.604 28.9715C28.3678 28.6935 28.1593 28.3957 27.9746 28.076C27.7919 27.7563 27.639 27.4188 27.5159 27.0693C27.3908 26.7179 27.2995 26.3565 27.2419 25.9872C27.1824 25.6198 27.1565 25.2485 27.1645 24.8752C27.1724 24.5039 27.2141 24.1366 27.2896 23.7752C27.365 23.4138 27.4703 23.0644 27.6093 22.7288C27.7482 22.3913 27.915 22.0736 28.1116 21.7737C28.3082 21.4759 28.5306 21.1999 28.7788 20.9517C29.027 20.7015 29.295 20.4811 29.5849 20.2885C29.8728 20.0979 30.1766 19.9411 30.4963 19.816C30.816 19.6909 31.1436 19.6015 31.4811 19.5479C31.8187 19.4923 32.1582 19.4764 32.4998 19.4943C32.8433 19.5141 33.1808 19.5697 33.5144 19.6611C33.85 19.7504 34.1736 19.8775 34.4853 20.0364C34.7991 20.1972 35.0949 20.3878 35.3749 20.6122C35.6568 20.8346 35.915 21.0847 36.1512 21.3607C36.3875 21.6367 36.596 21.9366 36.7807 22.2562C36.9634 22.5759 37.1162 22.9115 37.2413 23.2629C37.3644 23.6144 37.4558 23.9738 37.5134 24.3431Z" fill="#EEB240"/>
<mask id="mask6_1015_55107" style="mask-type:luminance" maskUnits="userSpaceOnUse" x="28" y="8" width="7" height="8">
<path d="M28.9414 8.57153H34.0245V15.9539H28.9414V8.57153Z" fill="white"/>
</mask>
<g mask="url(#mask6_1015_55107)">
<path d="M33.0315 14.6415C33.0315 14.6415 33.1765 11.0754 33.2877 9.78675C33.383 8.66886 33.8933 8.60334 33.9886 8.60334C34.0839 8.60334 30.0671 8.57157 29.7474 8.98854C29.4297 9.40353 29.3979 15.1518 29.4615 15.5986C29.525 16.0453 33.0315 14.6415 33.0315 14.6415Z" fill="#EEB240"/>
</g>
<path d="M35.1131 22.4843C35.1131 22.4843 33.9893 20.9832 33.5862 18.6958C33.4591 17.9731 33.3857 17.028 33.344 16.2992C33.3499 16.2953 33.755 16.1781 33.8364 16.0272C33.9138 15.8823 33.8562 15.4018 33.8364 15.2131C33.8126 15.0106 33.8185 14.7981 33.7033 14.6194C33.616 14.4824 33.5465 14.4666 33.332 14.4666C33.201 14.4666 31.821 14.6889 31.4835 14.7465C30.6892 14.8835 29.6845 14.9987 29.1226 15.1099C28.9518 15.1436 28.8625 15.3144 28.8407 15.3958C28.7374 15.7929 28.7434 16.2 28.8685 16.5911C28.9161 16.744 29.0392 16.8294 29.1961 16.8413C29.2636 16.8453 29.3311 16.8473 29.3986 16.8493C29.3509 17.5561 29.3152 18.5092 29.3768 19.3987C29.4939 21.0984 28.7314 23.7273 28.7314 23.7273L35.1131 22.4843Z" fill="#D7992C"/>
<path d="M36.0998 25.0239C36.0998 25.278 36.076 25.5282 36.0284 25.7784C35.9787 26.0266 35.9072 26.2688 35.8119 26.5031C35.7166 26.7374 35.5995 26.9598 35.4605 27.1703C35.3215 27.3827 35.1646 27.5773 34.9879 27.756C34.8112 27.9367 34.6186 28.0956 34.4121 28.2365C34.2036 28.3775 33.9852 28.4966 33.7549 28.5939C33.5245 28.6912 33.2863 28.7647 33.042 28.8143C32.7978 28.864 32.5496 28.8878 32.2994 28.8878C32.0512 28.8878 31.803 28.864 31.5588 28.8143C31.3146 28.7647 31.0763 28.6912 30.846 28.5939C30.6157 28.4966 30.3953 28.3775 30.1888 28.2365C29.9803 28.0956 29.7897 27.9367 29.6129 27.756C29.4362 27.5773 29.2794 27.3827 29.1404 27.1703C29.0014 26.9598 28.8842 26.7374 28.7889 26.5031C28.6936 26.2688 28.6221 26.0266 28.5725 25.7784C28.5248 25.5282 28.499 25.278 28.499 25.0239C28.499 24.7697 28.5248 24.5195 28.5725 24.2693C28.6221 24.0211 28.6936 23.7789 28.7889 23.5446C28.8842 23.3103 29.0014 23.0879 29.1404 22.8774C29.2794 22.665 29.4362 22.4704 29.6129 22.2917C29.7897 22.111 29.9803 21.9522 30.1888 21.8112C30.3953 21.6702 30.6157 21.5511 30.846 21.4538C31.0763 21.3565 31.3146 21.283 31.5588 21.2334C31.803 21.1837 32.0512 21.1599 32.2994 21.1599C32.5496 21.1599 32.7978 21.1837 33.042 21.2334C33.2863 21.283 33.5245 21.3565 33.7549 21.4538C33.9852 21.5511 34.2036 21.6702 34.4121 21.8112C34.6186 21.9522 34.8112 22.111 34.9879 22.2917C35.1646 22.4704 35.3215 22.665 35.4605 22.8774C35.5995 23.0879 35.7166 23.3103 35.8119 23.5446C35.9072 23.7789 35.9787 24.0211 36.0284 24.2693C36.076 24.5195 36.0998 24.7697 36.0998 25.0239Z" fill="#D7992C"/>
<path d="M34.2568 24.4761C34.2568 24.6091 34.2429 24.7422 34.2171 24.8732C34.1933 25.0043 34.1536 25.1314 34.1039 25.2545C34.0543 25.3776 33.9927 25.4947 33.9193 25.6059C33.8458 25.7171 33.7644 25.8204 33.6711 25.9137C33.5777 26.009 33.4765 26.0924 33.3673 26.1658C33.2581 26.2413 33.1429 26.3028 33.0218 26.3545C32.9007 26.4061 32.7756 26.4438 32.6465 26.4696C32.5174 26.4954 32.3884 26.5093 32.2573 26.5093C32.1243 26.5093 31.9952 26.4954 31.8662 26.4696C31.7371 26.4438 31.612 26.4061 31.4909 26.3545C31.3698 26.3028 31.2546 26.2413 31.1454 26.1658C31.0362 26.0924 30.9349 26.009 30.8416 25.9137C30.7503 25.8204 30.6669 25.7171 30.5934 25.6059C30.5199 25.4947 30.4584 25.3776 30.4087 25.2545C30.3591 25.1314 30.3214 25.0043 30.2956 24.8732C30.2698 24.7422 30.2559 24.6091 30.2559 24.4761C30.2559 24.3431 30.2698 24.21 30.2956 24.079C30.3214 23.9479 30.3591 23.8209 30.4087 23.6978C30.4584 23.5747 30.5199 23.4575 30.5934 23.3463C30.6669 23.2351 30.7503 23.1319 30.8416 23.0385C30.9349 22.9432 31.0362 22.8598 31.1454 22.7844C31.2546 22.7109 31.3698 22.6474 31.4909 22.5977C31.612 22.5461 31.7371 22.5084 31.8662 22.4806C31.9952 22.4548 32.1243 22.4429 32.2573 22.4429C32.3884 22.4429 32.5174 22.4548 32.6465 22.4806C32.7756 22.5084 32.9007 22.5461 33.0218 22.5977C33.1429 22.6474 33.2581 22.7109 33.3673 22.7844C33.4765 22.8598 33.5777 22.9432 33.6711 23.0385C33.7644 23.1319 33.8458 23.2351 33.9193 23.3463C33.9927 23.4575 34.0543 23.5747 34.1039 23.6978C34.1536 23.8209 34.1933 23.9479 34.2171 24.079C34.2429 24.21 34.2568 24.3431 34.2568 24.4761Z" fill="#EEB240"/>
</g>
<rect x="0.5" y="0.5" width="59" height="59" rx="29.5" stroke="#DBB7EA"/>
<defs>
<clipPath id="clip0_1015_55107">
<rect width="60" height="60" rx="30" fill="white"/>
</clipPath>
</defs>
</svg>
