<svg width="60" height="60" viewBox="0 0 60 60" fill="none" xmlns="http://www.w3.org/2000/svg">
<rect x="0.5" y="0.5" width="59" height="59" rx="29.5" fill="#FAF5F9"/>
<rect x="0.5" y="0.5" width="59" height="59" rx="29.5" stroke="#DBB7EA"/>
<path d="M22.1717 13.8413C22.1717 13.8413 13.8144 26.6483 16.4056 31.0345C18.9968 35.4206 16.0323 36.2546 16.4056 39.3064C16.7789 42.3603 22.9322 45.5829 22.9322 45.5829C22.9322 45.5829 35.4374 53.6185 38.5806 51.9328C41.7218 50.249 41.4438 45.0785 41.4438 45.0785C41.5371 49.4726 44.6783 48.6188 44.6783 48.6188C42.5537 47.9596 46.8962 43.7363 46.2489 40.5951C45.6036 37.4559 41.7218 34.3147 43.0144 31.0345C44.0667 28.3698 42.8655 25.5245 42.379 24.5535C42.2658 24.3272 42.1924 24.2021 42.1924 24.2021" fill="#201812"/>
<mask id="mask0_1015_55939" style="mask-type:luminance" maskUnits="userSpaceOnUse" x="17" y="8" width="27" height="27">
<path d="M17.2236 8.57153H43.6557V34.6224H17.2236V8.57153Z" fill="white"/>
</mask>
<g mask="url(#mask0_1015_55939)">
<path d="M43.58 21.589C43.58 22.0159 43.5582 22.4408 43.5165 22.8657C43.4748 23.2886 43.4132 23.7116 43.3298 24.1285C43.2464 24.5475 43.1432 24.9605 43.0181 25.3675C42.895 25.7746 42.752 26.1757 42.5892 26.5708C42.4244 26.9639 42.2437 27.3491 42.0412 27.7244C41.8406 28.0997 41.6222 28.465 41.3859 28.8205C41.1477 29.1739 40.8955 29.5154 40.6235 29.845C40.3534 30.1746 40.0675 30.4903 39.7657 30.7922C39.4639 31.094 39.1482 31.3799 38.8186 31.6499C38.489 31.92 38.1474 32.1741 37.792 32.4104C37.4386 32.6467 37.0732 32.8651 36.698 33.0676C36.3207 33.2682 35.9355 33.4489 35.5424 33.6137C35.1472 33.7765 34.7461 33.9194 34.3391 34.0426C33.9301 34.1676 33.5171 34.2709 33.1001 34.3543C32.6811 34.4357 32.2602 34.4992 31.8353 34.5409C31.4104 34.5826 30.9854 34.6025 30.5585 34.6025C30.1336 34.6025 29.7067 34.5826 29.2838 34.5409C28.8589 34.4992 28.4379 34.4357 28.019 34.3543C27.6 34.2709 27.187 34.1676 26.78 34.0426C26.3709 33.9194 25.9699 33.7765 25.5767 33.6137C25.1836 33.4489 24.7984 33.2682 24.4211 33.0676C24.0458 32.8651 23.6805 32.6467 23.3251 32.4104C22.9716 32.1741 22.6281 31.92 22.2985 31.6499C21.9689 31.3799 21.6532 31.094 21.3534 30.7922C21.0516 30.4903 20.7656 30.1746 20.4936 29.845C20.2236 29.5154 19.9694 29.1739 19.7331 28.8205C19.4968 28.465 19.2764 28.0997 19.0759 27.7244C18.8754 27.3491 18.6927 26.9639 18.5299 26.5708C18.3671 26.1757 18.2241 25.7746 18.099 25.3675C17.9759 24.9605 17.8726 24.5475 17.7892 24.1285C17.7059 23.7116 17.6443 23.2886 17.6026 22.8657C17.5589 22.4408 17.5391 22.0159 17.5391 21.589C17.5391 21.164 17.5589 20.7391 17.6026 20.3142C17.6443 19.8893 17.7059 19.4684 17.7892 19.0514C17.8726 18.6324 17.9759 18.2194 18.099 17.8124C18.2241 17.4034 18.3671 17.0042 18.5299 16.6091C18.6927 16.216 18.8754 15.8308 19.0759 15.4555C19.2764 15.0802 19.4968 14.7149 19.7331 14.3594C19.9694 14.006 20.2236 13.6645 20.4936 13.3349C20.7656 13.0053 21.0516 12.6896 21.3534 12.3878C21.6532 12.086 21.9689 11.8 22.2985 11.53C22.6281 11.26 22.9716 11.0058 23.3251 10.7695C23.6805 10.5332 24.0458 10.3128 24.4211 10.1123C24.7984 9.91174 25.1836 9.72906 25.5767 9.56625C25.9699 9.40343 26.3709 9.26047 26.78 9.13736C27.187 9.01227 27.6 8.90902 28.019 8.82562C28.4379 8.74223 28.8589 8.68068 29.2838 8.63898C29.7067 8.59728 30.1336 8.57544 30.5585 8.57544C30.9854 8.57544 31.4104 8.59728 31.8353 8.63898C32.2602 8.68068 32.6811 8.74223 33.1001 8.82562C33.5171 8.90902 33.9301 9.01227 34.3391 9.13736C34.7461 9.26047 35.1472 9.40343 35.5424 9.56625C35.9355 9.72906 36.3207 9.91174 36.698 10.1123C37.0732 10.3128 37.4386 10.5332 37.792 10.7695C38.1474 11.0058 38.489 11.26 38.8186 11.53C39.1482 11.8 39.4639 12.086 39.7657 12.3878C40.0675 12.6896 40.3534 13.0053 40.6235 13.3349C40.8955 13.6645 41.1477 14.006 41.3859 14.3594C41.6222 14.7149 41.8406 15.0802 42.0412 15.4555C42.2437 15.8308 42.4244 16.216 42.5892 16.6091C42.752 17.0042 42.895 17.4034 43.0181 17.8124C43.1432 18.2194 43.2464 18.6324 43.3298 19.0514C43.4132 19.4684 43.4748 19.8893 43.5165 20.3142C43.5582 20.7391 43.58 21.164 43.58 21.589Z" fill="#E5D9E1"/>
</g>
<mask id="mask1_1015_55939" style="mask-type:luminance" maskUnits="userSpaceOnUse" x="34" y="41" width="10" height="19">
<path d="M34.5068 41.2302H43.6564V60H34.5068V41.2302Z" fill="white"/>
</mask>
<g mask="url(#mask1_1015_55939)">
<path d="M43.581 59.851L34.7471 60.0059L34.5645 53.0901L37.7176 47.6913L37.1318 41.3374C37.793 41.534 43.581 59.851 43.581 59.851Z" fill="#1D2B3A"/>
</g>
<path d="M39.2361 50.1517L35.9459 52.8283L34.6474 40.7123L33.7638 38.9352C33.5732 37.6584 35.7375 36.8225 36.5138 37.6763L39.2361 50.1517Z" fill="#1D2B3A"/>
<path d="M19.545 39.9118L22.8351 48.9303C23.0317 50.1057 20.9289 55.991 22.1044 56.2035H27.8427L30.5233 56.3663C31.0038 56.4537 34.7943 55.4887 34.7943 55.4887L36.7123 38.5457C36.7282 36.852 35.251 35.4799 33.5711 35.7083C33.5215 35.7142 33.4719 35.7222 33.4222 35.7321L31.1984 36.1511L28.2299 36.709C28.0314 36.7467 27.8308 36.7626 27.6283 36.7567L25.6784 36.0796L22.3486 36.6117C22.297 36.6117 22.2474 36.6117 22.1977 36.6117C20.502 36.6514 19.263 38.2399 19.545 39.9118Z" fill="#201812"/>
<path d="M14.1084 46.919L18.014 49.1329L22.835 42.2092L22.7675 39.9198C22.7239 38.4644 19.2352 37.694 19.4715 38.5656L14.1084 46.919Z" fill="#1D2B3A"/>
<path d="M28.4007 38.6651L28.909 38.7286C30.3267 38.9073 31.6233 37.9007 31.8 36.4829L32.0621 34.3822L26.4151 33.6733L26.151 35.7761C25.9743 37.1938 26.981 38.4884 28.4007 38.6651Z" fill="#FBE4CE"/>
<path d="M25.0651 34.5749L32.1993 35.4664C35.4199 35.8695 38.3884 33.5643 38.7914 30.3436L39.9411 21.1722C40.3461 17.9516 38.0389 14.9851 34.8163 14.5821L27.6821 13.6905C24.4595 13.2875 21.491 15.5927 21.088 18.8133L19.9383 27.9848C19.5352 31.2054 21.8425 34.1718 25.0651 34.5749Z" fill="#FBE4CE"/>
<path d="M33.6325 24.8853C33.7437 24.9051 33.845 24.9647 33.9343 25.06C34.0237 25.1553 34.0932 25.2804 34.1468 25.4353C34.1984 25.5902 34.2302 25.7629 34.2381 25.9555C34.2461 26.1461 34.2302 26.3407 34.1924 26.5393C34.1547 26.7358 34.0971 26.9225 34.0197 27.0972C33.9423 27.2719 33.8509 27.4228 33.7437 27.5479C33.6385 27.673 33.5273 27.7624 33.4081 27.82C33.291 27.8756 33.1758 27.8934 33.0646 27.8716C32.9515 27.8498 32.8522 27.7922 32.7628 27.6969C32.6735 27.6016 32.602 27.4765 32.5504 27.3216C32.4987 27.1647 32.467 26.992 32.459 26.8014C32.4511 26.6107 32.467 26.4162 32.5047 26.2176C32.5424 26.019 32.6 25.8324 32.6774 25.6577C32.7549 25.4829 32.8462 25.334 32.9515 25.2089C33.0587 25.0838 33.1699 24.9925 33.287 24.9369C33.4062 24.8813 33.5213 24.8634 33.6325 24.8853Z" fill="#1A1614"/>
<path d="M29.572 24.1126C29.6832 24.1344 29.7844 24.192 29.8738 24.2873C29.9631 24.3826 30.0326 24.5077 30.0862 24.6646C30.1379 24.8194 30.1676 24.9922 30.1776 25.1828C30.1855 25.3734 30.1696 25.568 30.1319 25.7666C30.0942 25.9651 30.0366 26.1518 29.9591 26.3265C29.8817 26.5012 29.7904 26.6501 29.6832 26.7752C29.5779 26.9003 29.4667 26.9917 29.3476 27.0473C29.2304 27.1029 29.1153 27.1207 29.0041 27.0989C28.8909 27.079 28.7916 27.0195 28.7023 26.9242C28.6129 26.8288 28.5414 26.7038 28.4898 26.5489C28.4382 26.394 28.4064 26.2213 28.3985 26.0287C28.3905 25.838 28.4064 25.6435 28.4441 25.4449C28.4819 25.2483 28.5395 25.0617 28.6169 24.8869C28.6943 24.7122 28.7857 24.5613 28.8909 24.4362C28.9981 24.3111 29.1093 24.2218 29.2265 24.1642C29.3456 24.1086 29.4608 24.0907 29.572 24.1126Z" fill="#1A1614"/>
<path d="M34.0059 25.5582L34.0714 26.5153C34.0714 26.5153 34.812 26.2512 35.0721 25.312C35.0721 25.312 34.3633 25.8064 34.0059 25.5582Z" fill="#1A1614"/>
<path d="M29.02 24.611L28.6089 25.4767C28.6089 25.4767 28.0172 24.9584 28.1205 23.9915C28.1205 23.9915 28.597 24.7102 29.02 24.611Z" fill="#1A1614"/>
<path d="M28.0061 29.9546C27.8334 30.858 28.8103 31.8051 30.1883 32.0652C31.5643 32.3273 32.8192 31.8071 32.9919 30.9017C33.1647 29.9982 32.0111 29.9764 30.635 29.7143C29.257 29.4522 28.1769 29.0491 28.0061 29.9546Z" fill="#BE7A5F"/>
<path d="M25.6546 26.7971C25.7479 26.7852 25.8313 26.8487 25.8452 26.9401C26.151 29.1242 28.5238 30.2679 30.4617 30.5836C30.4736 30.5856 30.4835 30.5896 30.4955 30.5935C32.354 30.9013 34.6791 30.6193 35.6957 28.8522C35.7414 28.7708 35.8446 28.7449 35.924 28.7906C36.0055 28.8363 36.0313 28.9376 35.9856 29.019C34.9749 30.7742 32.8146 31.1852 30.9442 30.9906C30.6086 30.9569 30.285 30.9013 29.9772 30.8318C29.9733 30.8318 29.9693 30.8298 29.9653 30.8298C29.7965 30.7921 29.6258 30.7484 29.453 30.7007C27.6461 30.1825 25.7956 28.9931 25.5136 26.9877C25.4997 26.8944 25.5633 26.811 25.6546 26.7971Z" fill="#1A1614"/>
<path d="M33.5276 22.7663C34.0935 22.5936 34.705 22.8259 35.1736 23.1436C35.6164 23.4414 35.9718 23.8564 36.2002 24.3349C36.232 24.4064 36.3372 24.3448 36.3034 24.2734C35.9282 23.4851 35.1776 22.8159 34.3099 22.6293C34.0419 22.5697 33.7619 22.5677 33.4958 22.6472C33.4224 22.673 33.4541 22.7901 33.5276 22.7663Z" fill="#1A1614"/>
<path d="M30.3444 22.2323C29.999 21.8471 29.4489 21.7538 28.9545 21.7776C28.4045 21.8035 27.8644 21.9583 27.38 22.2224C27.1079 22.3713 26.8578 22.554 26.6334 22.7684C26.5758 22.8221 26.6612 22.9055 26.7188 22.8538C27.098 22.4964 27.5547 22.2264 28.0491 22.0655C28.5256 21.9107 29.0637 21.8352 29.5582 21.9405C29.8262 21.9961 30.0764 22.1112 30.2591 22.3177C30.3127 22.3753 30.3961 22.2899 30.3444 22.2323Z" fill="#1A1614"/>
<path d="M24.4095 27.3771C24.4095 27.5836 24.3876 27.7901 24.3479 27.9946C24.3062 28.1991 24.2467 28.3977 24.1672 28.5903C24.0878 28.7829 23.9905 28.9656 23.8734 29.1383C23.7582 29.313 23.6272 29.4719 23.4782 29.6208C23.3313 29.7677 23.1705 29.8988 22.9977 30.014C22.825 30.1311 22.6423 30.2284 22.4497 30.3078C22.2571 30.3872 22.0585 30.4488 21.854 30.4885C21.6495 30.5282 21.443 30.5501 21.2345 30.5501C21.026 30.5501 20.8195 30.5282 20.615 30.4885C20.4105 30.4488 20.2119 30.3872 20.0193 30.3078C19.8267 30.2284 19.6441 30.1311 19.4693 30.014C19.2966 29.8988 19.1358 29.7677 18.9888 29.6208C18.8419 29.4719 18.7108 29.313 18.5937 29.1383C18.4785 28.9656 18.3812 28.7829 18.2998 28.5903C18.2204 28.3977 18.1608 28.1991 18.1191 27.9946C18.0794 27.7901 18.0596 27.5836 18.0596 27.3771C18.0596 27.1686 18.0794 26.9621 18.1191 26.7576C18.1608 26.5531 18.2204 26.3545 18.2998 26.1619C18.3812 25.9693 18.4785 25.7866 18.5937 25.6139C18.7108 25.4392 18.8419 25.2803 18.9888 25.1314C19.1358 24.9845 19.2966 24.8534 19.4693 24.7383C19.6441 24.6211 19.8267 24.5238 20.0193 24.4444C20.2119 24.365 20.4105 24.3054 20.615 24.2637C20.8195 24.224 21.026 24.2021 21.2345 24.2021C21.443 24.2021 21.6495 24.224 21.854 24.2637C22.0585 24.3054 22.2571 24.365 22.4497 24.4444C22.6423 24.5238 22.825 24.6211 22.9977 24.7383C23.1705 24.8534 23.3313 24.9845 23.4782 25.1314C23.6272 25.2803 23.7582 25.4392 23.8734 25.6139C23.9905 25.7866 24.0878 25.9693 24.1672 26.1619C24.2467 26.3545 24.3062 26.5531 24.3479 26.7576C24.3876 26.9621 24.4095 27.1686 24.4095 27.3771Z" fill="#FBE4CE"/>
<path d="M19.9062 26.6285C19.9757 26.0169 20.7998 25.7151 21.3438 26.001C21.8879 26.289 22.1341 26.9581 22.1162 27.5736C22.1043 27.9429 21.9812 28.352 21.6516 28.5188C21.322 28.6836 20.8156 28.3778 20.9407 28.0303C21.177 27.8437 21.4907 27.7583 21.7886 27.798" stroke="#1A1614" stroke-width="0.316493" stroke-miterlimit="10"/>
<path d="M36.546 54.2459C36.546 54.2459 36.2044 54.929 35.5333 55.7093C34.6378 56.7497 33.1566 57.9609 31.1114 57.9649C29.1914 57.9669 26.7431 57.4606 24.8846 56.99C23.2723 56.5829 22.1048 56.2017 22.1048 56.2017L22.22 55.06L22.7799 49.4706L22.7898 49.3693L22.8355 48.9285L22.3808 47.9437L21.0107 44.9653C22.0015 44.2465 22.3609 42.5826 22.4404 40.8829C22.5138 39.3461 22.357 37.7795 22.2378 36.8581C22.1723 36.3459 22.1167 36.0321 22.1167 36.0321L25.802 35.3491L25.8774 35.3352C25.8774 35.3352 25.8774 35.3392 25.8774 35.3491C25.9032 35.5437 26.1713 37.7934 26.6319 40.4818C26.6617 40.6546 26.6915 40.8293 26.7233 41.004C26.8702 41.836 27.033 42.6958 27.2137 43.5436C27.5969 45.3584 28.0516 47.1097 28.5619 48.3547C28.6294 48.5175 28.6969 48.6704 28.7645 48.8153C29.239 49.8121 29.7533 50.3482 30.3013 50.104C30.75 49.9034 31.0896 49.3296 31.3417 48.5215C31.4093 48.307 31.4708 48.0767 31.5264 47.8325C31.7806 46.7106 31.9215 45.2929 31.989 43.8276C32.0307 42.936 32.0446 42.0266 32.0446 41.155C32.0427 40.7221 32.0387 40.2972 32.0307 39.8901C31.9871 37.5213 31.8461 35.6827 31.8461 35.6827L34.3757 35.7204L34.7113 36.6735L35.6604 39.362C35.8808 39.9835 36.0178 40.6248 36.0754 41.2701C36.0972 41.5044 36.1071 41.7407 36.1071 41.977C36.1071 43.0353 35.8967 44.0896 35.4718 45.0785L35.5413 45.6741L35.708 47.0958L35.8133 48.0013L36.397 52.9791L36.546 54.2459Z" fill="#1D2B3A"/>
<path d="M26.6318 40.4819L27.2851 41.02L26.7232 41.0041L22.4402 40.8829C22.5137 39.3461 22.3569 37.7795 22.2377 36.8582L21.3164 36.0977C21.5209 35.643 21.654 35.3491 21.654 35.3491H25.8773C25.9031 35.5437 26.1712 37.7934 26.6318 40.4819Z" fill="#DBD4CB"/>
<path d="M36.075 41.2703L32.0443 41.1551C32.0423 40.7223 32.0383 40.2974 32.0304 39.8903C31.9867 37.5215 31.8457 35.6829 31.8457 35.6829L34.3753 35.7206L34.7109 36.6737L35.66 39.3622C35.8804 39.9836 36.0174 40.625 36.075 41.2703Z" fill="#DBD4CB"/>
<path d="M35.813 48.0014L36.3968 52.9792L31.6989 53.6682L27.9223 54.2222L22.2197 55.0601L22.7797 49.4707L22.7896 49.3694L28.5617 48.3548C28.6292 48.5176 28.6967 48.6705 28.7642 48.8155C29.2388 49.8122 29.753 50.3483 30.3011 50.1041C30.7498 49.9036 31.0893 49.3297 31.3415 48.5216C31.409 48.3072 31.4706 48.0768 31.5262 47.8326L35.7078 47.0959C35.7078 47.0959 36.647 47.9021 35.813 48.0014Z" fill="#DBD4CB"/>
<path d="M26.6318 40.4818L22.2377 36.8581L21.3164 36.0977C21.5209 35.643 21.654 35.3491 21.654 35.3491H25.8018L25.8773 35.3352C25.8773 35.3352 25.8773 35.3392 25.8773 35.3491C25.9031 35.5437 26.1712 37.7934 26.6318 40.4818Z" fill="#BE7A5F"/>
<path d="M34.7109 36.6737L32.0304 39.8903C31.9867 37.5215 31.8457 35.6829 31.8457 35.6829L34.3753 35.7206L34.7109 36.6737Z" fill="#BE7A5F"/>
<path d="M28.562 48.3548C28.6295 48.5176 28.697 48.6705 28.7645 48.8154C26.5069 49.0676 24.3347 49.3079 22.78 49.4707L22.7899 49.3694L22.8356 48.9286L22.3809 47.9438L27.2138 43.5437C27.597 45.3585 28.0517 47.1098 28.562 48.3548Z" fill="#BE7A5F"/>
<path d="M35.8133 48.0013C34.5167 48.1562 32.9581 48.3369 31.3418 48.5216C31.4093 48.3071 31.4709 48.0768 31.5265 47.8326C31.7806 46.7107 31.9216 45.293 31.9891 43.8276C32.9263 44.326 34.2685 45.019 35.5413 45.6742L35.7081 47.0959C35.7081 47.0959 36.6473 47.9021 35.8133 48.0013Z" fill="#BE7A5F"/>
<path d="M35.5335 55.7094C34.638 56.7499 33.1567 57.9611 31.1116 57.965C29.1915 57.967 26.7433 57.4607 24.8848 56.9901L27.9227 54.2222L28.57 53.6325C28.57 53.6325 31.7906 53.5689 31.6636 53.6325C31.6576 53.6365 31.6695 53.6484 31.6993 53.6682C31.9733 53.8569 33.7067 54.7663 35.5335 55.7094Z" fill="#BE7A5F"/>
<path d="M28.8829 15.0583C28.8829 15.0583 28.0569 21.3983 24.8145 22.8101C21.574 24.2218 24.4173 34.5925 24.4094 39.1633C24.4015 43.7342 20.6507 47.4552 20.6507 47.4552C20.6507 47.4552 22.8606 42.9479 21.2344 39.3937C19.6102 35.8395 19.3223 33.5839 19.6122 30.1071C19.9041 26.6284 17.3904 23.924 18.4705 20.1851C19.5507 16.4443 21.2384 9.51658 33.007 10.9025C44.7755 12.2885 44.718 24.6666 44.2216 30.1071C43.7272 35.5496 40.3695 39.5386 42.4206 43.0055C44.4698 46.4743 41.1717 52.8718 41.1717 52.8718C41.1717 52.8718 41.9441 49.6036 39.2358 45.0069C36.5294 40.4103 35.9734 36.3935 36.4937 32.9306C37.0159 29.4677 39.4403 27.6013 36.4937 23.4772C33.549 19.3552 29.6235 21.1541 28.8829 15.0583Z" fill="#201812"/>
<path d="M25.3868 52.4849C26.3518 52.7569 27.43 53.8033 27.2374 54.0555C27.0468 54.3077 26.4193 55.3481 26.0619 55.4732C25.7025 55.6003 23.9612 54.8775 23.4727 55.0165C22.9862 55.1535 21.5586 54.7048 21.5586 54.7048L22.5295 52.0918C22.5295 52.0918 23.5223 51.6768 23.7944 51.3511C24.0644 51.0235 24.39 51.8396 23.7328 52.1414C22.881 52.5326 24.4238 52.2109 25.3868 52.4849Z" fill="#FBE4CE"/>
<path d="M16.1994 45.0071L22.9325 52.3637L19.5054 58.2509L14.2476 48.734C14.2476 48.734 12.1746 47.3203 16.1994 45.0071Z" fill="#1D2B3A"/>
<path d="M24.4102 35.3352C24.4102 35.3352 25.0078 46.9549 28.1093 50.9419L28.9472 57.8021L31.1115 57.963C31.1115 57.963 32.6523 50.0683 33.0077 48.0489C33.3632 46.0296 33.0077 35.6827 33.0077 35.6827H31.8462C31.8462 35.6827 32.3247 47.8563 30.3034 50.102C30.3034 50.102 28.3019 50.0365 26.6757 40.4064L25.8775 35.3333H24.4102V35.3352Z" fill="#1D2B3A"/>
</svg>
