<svg width="60" height="60" viewBox="0 0 60 60" fill="none" xmlns="http://www.w3.org/2000/svg">
<g clip-path="url(#clip0_1015_55632)">
<rect width="60" height="60" rx="30" fill="#FAF5F9"/>
<path d="M36.2512 37.1487L30.8708 37.7269C30.6659 37.7492 30.459 37.7492 30.2521 37.7269L24.8717 37.1487C24.821 37.1426 24.7682 37.1385 24.7175 37.1365C22.9808 37.0391 21.585 38.5628 21.7392 40.2974L22.926 53.7869C23.0336 55.0083 23.8938 56.0308 25.0766 56.3432L29.822 57.599C30.3089 57.7269 30.8181 57.7269 31.303 57.599L36.0484 56.3432C37.2312 56.0287 38.0914 55.0083 38.1989 53.7869L39.3878 40.2974C39.5399 38.5628 38.1441 37.0391 36.4095 37.1365C36.3547 37.1385 36.304 37.1426 36.2512 37.1487Z" fill="#EBBA79"/>
<path d="M42.8485 47.7125L38.3466 47.9459L36.3604 41.2549L37.0075 39.4715C37.4174 38.3415 39.0039 38.309 39.4583 39.4228L42.8485 47.7125Z" fill="#EBBA79"/>
<path d="M37.1416 48.439L43.9908 55.7386L47.0097 53.722L41.0511 46.187C41.0511 46.187 38.511 44.3489 37.1416 48.439Z" fill="#EBBA79"/>
<path d="M43.5938 55.1664C43.5938 55.1664 43.5958 56.9335 44.9449 57.8303C46.2961 58.729 46.2961 59.1672 47.0813 58.7676C47.8644 58.3679 46.2637 57.1587 46.2637 57.1587C46.2637 57.1587 47.1908 56.4182 47.4789 56.5399C47.765 56.6617 48.333 58.2401 48.8686 59.2829C49.4042 60.3277 50.8021 60.275 50.8366 58.8325C50.8711 57.388 49.4144 54.9453 49.4144 54.9453L46.8277 53.519L43.5938 55.1664Z" fill="#EBBA79"/>
<path d="M27.8398 34.5071H32.7414V39.4208H27.8398V34.5071Z" fill="#EBBA79"/>
<path d="M31.2018 38.3498C29.8486 38.3498 28.749 37.2502 28.749 35.8929C28.749 34.5356 29.8486 33.436 31.2018 33.436C32.5571 33.436 33.6547 34.5356 33.6547 35.8929C33.6547 37.2502 32.5571 38.3498 31.2018 38.3498Z" fill="#876353"/>
<path d="M21.7266 41.0542L22.6192 50.2995C22.6192 50.2995 26.1372 51.7967 30.562 51.8515C34.9889 51.9083 38.4642 50.758 38.4642 50.758L39.1601 42.87C39.1601 42.87 27.8657 44.7365 21.7266 41.0542Z" fill="#F7EC66"/>
<path d="M26.5715 36.0346C26.8353 37.1018 27.1396 38.1629 27.5677 39.1752C27.9613 40.1024 28.4624 40.9849 29.1096 41.7579C29.4626 42.1819 29.8623 42.5654 30.3005 42.9021C30.3674 42.9529 30.4324 42.8393 30.3654 42.7906C29.5965 42.2022 28.9635 41.4515 28.4563 40.6279C27.9065 39.7372 27.5028 38.7614 27.1863 37.7652C26.9996 37.1829 26.8414 36.5946 26.6953 36.0001C26.677 35.919 26.5513 35.9535 26.5715 36.0346Z" fill="#1A1614"/>
<path d="M36.276 37.244C35.8499 38.1002 35.3691 38.9279 34.8335 39.7192C34.5637 40.1188 34.2796 40.5084 33.9834 40.8898C33.7075 41.2448 33.4255 41.5978 33.109 41.9164C32.7702 42.2572 32.3786 42.5554 31.912 42.6914C31.8329 42.7157 31.8674 42.8415 31.9465 42.8171C32.8006 42.5615 33.3951 41.8332 33.9307 41.1657C34.5393 40.4029 35.0972 39.5995 35.5963 38.7616C35.8783 38.2889 36.1421 37.804 36.3876 37.3089C36.4241 37.2339 36.3125 37.169 36.276 37.244Z" fill="#1A1614"/>
<path d="M31.4878 41.7499C31.0557 41.4618 30.445 41.5673 30.0332 41.8858C29.6234 42.2043 29.3799 42.6953 29.2115 43.1863C29.1567 43.3445 29.1101 43.5129 29.1385 43.6773C29.1689 43.8599 29.2866 44.014 29.4042 44.154C29.7329 44.5496 30.1021 44.929 30.5627 45.1563C31.0212 45.3835 31.5913 45.4403 32.0417 45.1948C32.6138 44.8844 32.8613 44.1479 32.7396 43.5089C32.6179 42.8698 32.1918 42.3281 31.6948 41.9102" fill="#876353"/>
<path d="M31.5224 41.6955C31.214 41.4967 30.8285 41.4743 30.4856 41.5819C30.1225 41.6934 29.8263 41.9389 29.6051 42.2433C29.3779 42.5577 29.2075 42.9371 29.1061 43.3124C29.0533 43.5072 29.0513 43.6979 29.1405 43.8825C29.2258 44.0631 29.3718 44.2173 29.5017 44.3654C30.017 44.9517 30.7149 45.4975 31.5447 45.4122C31.9017 45.3737 32.2304 45.2114 32.4597 44.9314C32.6707 44.6758 32.7904 44.3573 32.8269 44.0266C32.9202 43.1643 32.3704 42.3934 31.7435 41.8639C31.6786 41.8111 31.5873 41.9024 31.6502 41.9552C32.1736 42.3974 32.6524 43.002 32.7031 43.7101C32.7457 44.3248 32.4495 45.0065 31.8348 45.2175C31.1024 45.4691 30.3659 45.0552 29.8547 44.55C29.7228 44.4202 29.5991 44.2802 29.4794 44.1402C29.3617 44.0002 29.2318 43.846 29.2034 43.6594C29.171 43.4646 29.2542 43.2617 29.3211 43.0811C29.384 42.9107 29.455 42.7423 29.5443 42.5841C29.735 42.2392 30.0008 41.9288 30.3639 41.7665C30.7108 41.6082 31.1308 41.594 31.4574 41.8071C31.5244 41.8537 31.5893 41.7401 31.5224 41.6955Z" fill="#7C2925"/>
<path d="M30.8873 42.4355C30.4897 42.537 30.1955 42.9509 30.2422 43.3587C30.2868 43.7644 30.6763 44.1073 31.0841 44.0911C31.2221 44.087 31.3661 44.0403 31.4574 43.9369C31.6481 43.7198 31.5224 43.3505 31.2789 43.1963" stroke="#FFFDFE" stroke-width="0.332373" stroke-miterlimit="10"/>
<path d="M22.2074 44.4643C22.181 44.941 22.5543 45.3407 22.9864 45.4827C23.5261 45.6633 24.1144 45.4401 24.577 45.1602C24.5466 45.152 24.5182 45.1439 24.4898 45.1358C24.7393 45.6471 25.2567 45.996 25.8085 46.0954C26.0864 46.1462 26.3725 46.1401 26.6444 46.063C26.7904 46.0204 26.9223 45.9554 27.0542 45.8804C27.1333 45.8378 27.2104 45.7952 27.3037 45.7972C27.3991 45.7992 27.4863 45.8439 27.5634 45.8946C27.7176 45.992 27.8495 46.1198 27.9996 46.2212C28.1477 46.3227 28.306 46.4099 28.4723 46.4809C28.7949 46.6168 29.1499 46.6818 29.4948 46.6128C29.6673 46.5803 29.8255 46.5052 29.9838 46.4342C30.1501 46.3551 30.3307 46.2659 30.5194 46.2659C30.7121 46.2659 30.8399 46.3815 30.9759 46.5032C31.1037 46.6168 31.2457 46.7081 31.406 46.7629C32.2155 47.0469 32.9864 46.5296 33.5565 46.0041C33.522 46.0001 33.4896 45.996 33.4551 45.992C33.7168 46.3429 34.1104 46.5905 34.5425 46.6676C34.9746 46.7426 35.421 46.6412 35.7821 46.3977C35.987 46.2577 36.1615 46.0772 36.2913 45.8662C36.2569 45.8702 36.2224 45.8743 36.1879 45.8783C36.4902 46.2435 36.9791 46.4363 37.4478 46.3693C37.9022 46.3044 38.31 45.998 38.5027 45.5821C38.5393 45.5071 38.4277 45.4422 38.3932 45.5193C38.2146 45.8986 37.8535 46.1786 37.4376 46.2415C37.0055 46.3085 36.5571 46.1218 36.2812 45.7871C36.2528 45.7546 36.198 45.7688 36.1777 45.8013C35.912 46.2374 35.4291 46.5337 34.9178 46.5621C34.3964 46.5905 33.875 46.3429 33.5646 45.927C33.5403 45.8926 33.4977 45.8824 33.4632 45.9128C32.9519 46.3876 32.2824 46.8583 31.546 46.6716C31.3837 46.631 31.2315 46.556 31.1037 46.4464C30.9779 46.3389 30.8643 46.2172 30.704 46.1644C30.3733 46.0569 30.0446 46.2719 29.7505 46.3977C29.0485 46.6939 28.3405 46.347 27.7906 45.9027C27.6669 45.8033 27.5289 45.6978 27.3687 45.6734C27.1962 45.6471 27.0623 45.7282 26.9183 45.8094C26.6728 45.9453 26.3948 46.0062 26.1149 46.0001C25.492 45.9838 24.8773 45.6389 24.5993 45.0709C24.5831 45.0405 24.5385 45.0303 24.5101 45.0486C24.0901 45.3042 23.5606 45.5152 23.0635 45.3711C22.6659 45.2575 22.3108 44.8984 22.3352 44.4643C22.3413 44.3791 22.2114 44.3811 22.2074 44.4643Z" fill="#FFFDFE"/>
<path d="M22.5381 47.9682C22.5503 48.4003 22.9398 48.6864 23.3395 48.7371C23.4612 48.7513 23.587 48.7493 23.7087 48.7351C23.8365 48.7189 23.9603 48.6783 24.0881 48.6661C24.218 48.6539 24.3113 48.7331 24.3985 48.8183C24.4675 48.8872 24.5385 48.9542 24.6136 49.0171C25.2019 49.4878 26.0094 49.6338 26.7357 49.4614C27.1476 49.364 27.533 49.1591 27.8353 48.8588C27.8089 48.8629 27.7826 48.8649 27.7562 48.869C28.5353 49.3904 29.4827 49.9787 30.4484 49.6034C30.6716 49.5182 30.8684 49.3843 31.0205 49.1997C30.9962 49.2037 30.9698 49.2058 30.9434 49.2098C31.2255 49.3924 31.5237 49.5486 31.8361 49.6785C32.1141 49.7921 32.4062 49.8976 32.7024 49.9483C32.9479 49.9889 33.2117 50.0011 33.4511 49.9138C33.5566 49.8773 33.656 49.8205 33.7391 49.7414C33.7797 49.7049 33.8142 49.6622 33.8426 49.6176C33.8872 49.5527 33.9217 49.4655 33.9927 49.4269C34.1307 49.3518 34.3153 49.4533 34.4452 49.502C34.6115 49.5628 34.7779 49.6136 34.9503 49.646C35.2587 49.7069 35.5813 49.7191 35.8856 49.6379C36.1555 49.5689 36.4131 49.433 36.6038 49.2281C36.6951 49.1327 36.76 49.0211 36.829 48.9096C36.8818 48.8223 36.969 48.6661 37.0907 48.6783C37.1719 48.6864 37.2267 48.7655 37.2754 48.8244C37.322 48.8771 37.3727 48.9258 37.4336 48.9603C37.5513 49.0293 37.6892 49.0455 37.8211 49.0272C38.1274 48.9867 38.4034 48.802 38.6346 48.6073C38.6996 48.5545 38.6083 48.4632 38.5434 48.516C38.3344 48.6884 38.0828 48.8609 37.8089 48.8994C37.6872 48.9177 37.5614 48.8994 37.462 48.8244C37.3606 48.7473 37.3038 48.6235 37.1841 48.5728C36.9386 48.4653 36.7742 48.7452 36.6728 48.9197C36.5328 49.1611 36.3157 49.3376 36.0601 49.4452C35.772 49.5649 35.4535 49.5872 35.1451 49.5486C34.9787 49.5263 34.8124 49.4857 34.6501 49.435C34.502 49.3884 34.3559 49.3133 34.2017 49.2849C34.078 49.2605 33.9501 49.2768 33.8568 49.3721C33.7655 49.4655 33.7209 49.5912 33.6154 49.6785C33.4267 49.8327 33.165 49.859 32.9297 49.8448C32.6132 49.8246 32.3007 49.7211 32.0065 49.6054C31.6556 49.4715 31.3228 49.2991 31.0063 49.0962C30.9861 49.082 30.9455 49.0861 30.9292 49.1064C30.6635 49.431 30.2577 49.577 29.8479 49.5892C29.3813 49.6014 28.937 49.433 28.5353 49.2078C28.2877 49.0719 28.0544 48.9136 27.8211 48.7574C27.7968 48.7412 27.7603 48.7473 27.742 48.7675C27.2328 49.2747 26.4821 49.4797 25.7801 49.3782C25.4271 49.3275 25.0863 49.1997 24.7941 48.9948C24.642 48.8872 24.5284 48.7452 24.3823 48.6336C24.3032 48.5748 24.2139 48.5363 24.1145 48.5363C24.0009 48.5383 23.8852 48.5789 23.7737 48.5971C23.5221 48.6377 23.2441 48.6336 23.0169 48.5038C22.8221 48.3942 22.67 48.1995 22.6639 47.9702C22.6659 47.883 22.5361 47.883 22.5381 47.9682Z" fill="#FFFDFE"/>
<path d="M52.8163 18.2465C52.867 18.4494 52.8812 18.6624 52.8589 18.8815C52.8366 19.1026 52.7778 19.3299 52.6824 19.5652C52.5871 19.8006 52.4572 20.042 52.2909 20.2895C52.1245 20.537 51.9236 20.7886 51.6883 21.0483C51.453 21.3059 51.1831 21.5676 50.8788 21.8314C50.5745 22.0972 50.2397 22.365 49.8705 22.6368C49.5033 22.9067 49.1036 23.1785 48.6755 23.4524C48.2454 23.7243 47.7889 23.9982 47.302 24.27C46.8151 24.5439 46.3039 24.8158 45.7642 25.0856C45.2266 25.3554 44.6646 25.6232 44.0783 25.889C43.494 26.1527 42.8874 26.4145 42.2604 26.6701C41.6335 26.9277 40.9884 27.1793 40.327 27.4268C39.6636 27.6723 38.986 27.9137 38.2962 28.1471C37.6043 28.3804 36.9024 28.6076 36.1882 28.8267C35.4741 29.0458 34.7518 29.2548 34.0235 29.4577C33.2931 29.6585 32.5607 29.8513 31.8222 30.0338C31.0858 30.2164 30.3473 30.3889 29.6068 30.5512C28.8683 30.7115 28.1319 30.8636 27.3995 31.0016C26.665 31.1416 25.9387 31.2694 25.2185 31.385C24.4983 31.5007 23.7861 31.6041 23.0862 31.6954C22.3863 31.7867 21.6985 31.8638 21.0229 31.9288C20.3494 31.9957 19.692 32.0464 19.0509 32.085C18.4098 32.1255 17.787 32.1499 17.1864 32.1621C16.5839 32.1742 16.0037 32.1742 15.4457 32.158C14.8898 32.1438 14.3583 32.1154 13.8511 32.0748C13.3439 32.0343 12.8651 31.9795 12.4127 31.9125C11.9623 31.8435 11.5403 31.7644 11.1487 31.6711C10.7551 31.5778 10.396 31.4723 10.0674 31.3526C9.7387 31.2349 9.44249 31.1051 9.18078 30.9651C8.91906 30.8231 8.69184 30.6709 8.49707 30.5066C8.30433 30.3422 8.14812 30.1678 8.02436 29.9831C7.90263 29.7985 7.81742 29.6058 7.7667 29.4029C7.71598 29.198 7.70178 28.987 7.7241 28.7658C7.74641 28.5467 7.80525 28.3195 7.9006 28.0842C7.99596 27.8488 8.1258 27.6074 8.29216 27.3599C8.45852 27.1124 8.65938 26.8588 8.89472 26.6011C9.13209 26.3435 9.40192 26.0817 9.70421 25.816C10.0085 25.5502 10.3433 25.2824 10.7125 25.0126C11.0797 24.7427 11.4794 24.4709 11.9075 24.197C12.3376 23.9231 12.7961 23.6512 13.281 23.3773C13.7679 23.1055 14.2792 22.8336 14.8188 22.5638C15.3565 22.2919 15.9184 22.0262 16.5048 21.7604C17.0891 21.4946 17.6957 21.2349 18.3226 20.9773C18.9495 20.7196 19.5946 20.468 20.2581 20.2225C20.9194 19.975 21.5971 19.7356 22.2869 19.5023C22.9787 19.267 23.6827 19.0418 24.3948 18.8227C25.1089 18.6036 25.8312 18.3926 26.5595 18.1917C27.2899 17.9909 28.0223 17.7981 28.7608 17.6155C29.4972 17.4329 30.2357 17.2605 30.9762 17.0982C31.7147 16.9359 32.4512 16.7858 33.1836 16.6458C33.918 16.5058 34.6443 16.38 35.3645 16.2623C36.0848 16.1467 36.7969 16.0432 37.4968 15.9539C38.1988 15.8626 38.8845 15.7835 39.5601 15.7186C40.2337 15.6537 40.891 15.6009 41.5321 15.5624C42.1732 15.5238 42.7961 15.4975 43.3986 15.4853C43.9991 15.4731 44.5794 15.4751 45.1373 15.4893C45.6932 15.5035 46.2247 15.532 46.7319 15.5746C47.2391 15.6151 47.7179 15.6699 48.1704 15.7369C48.6208 15.8038 49.0427 15.885 49.4343 15.9783C49.8279 16.0716 50.187 16.1771 50.5157 16.2948C50.8443 16.4125 51.1405 16.5423 51.4022 16.6843C51.664 16.8263 51.8912 16.9785 52.086 17.1428C52.2787 17.3072 52.4369 17.4796 52.5587 17.6642C52.6804 17.8488 52.7656 18.0436 52.8163 18.2465Z" fill="#876353"/>
<path d="M30.9562 17.9216C30.1081 18.792 30.0757 20.2142 30.5342 21.3361C30.9927 22.4601 31.8529 23.3649 32.6685 24.2616C34.7013 26.5014 36.6916 29.5568 35.5311 32.3525C34.8068 34.0953 32.9505 35.3531 32.7983 37.2338C32.561 40.131 36.5252 42.2774 35.9105 45.1178C35.7299 45.9536 35.1599 46.6597 34.9549 47.4894C34.5593 49.082 35.5595 50.6503 36.509 51.9853C36.2838 50.348 36.7504 48.6276 37.7689 47.3271C38.201 46.7753 38.7448 46.2661 38.9111 45.5844C39.3493 43.7645 36.8904 41.8899 37.846 40.2811C37.4889 42.1435 40.1122 43.1498 40.7715 44.9291C41.2199 46.1423 40.6681 47.4671 40.3901 48.7331C40.1122 49.9991 40.3293 51.6546 41.5506 52.0847C41.0434 51.4294 41.2463 50.4515 41.7048 49.7617C42.1633 49.0719 42.8348 48.5464 43.3258 47.879C44.2874 46.5765 44.464 44.7363 43.7701 43.2715C44.1759 44.9514 44.5837 46.6292 44.9914 48.307C45.2329 49.3052 45.4297 50.4961 44.7236 51.2427C46.8417 50.0741 47.8297 47.2034 46.8803 44.9757C46.5922 44.2981 46.1418 43.6448 46.1702 42.9104C46.2108 41.823 47.2678 41.0074 47.4118 39.9321C47.6674 38.0088 45.034 36.8342 44.7825 34.9108C44.6303 33.7565 45.3911 32.6548 45.3627 31.4903C45.3384 30.482 44.7297 29.5751 44.5938 28.5769C44.3118 26.5359 46.0058 24.357 45.0543 22.527C44.675 21.7987 43.9507 21.326 43.2365 20.9222C39.1546 18.6155 34.397 17.528 29.7227 17.8324" fill="#FBE4CE"/>
<path d="M31.6787 37.244L24.7158 36.2012C21.5712 35.7305 19.3801 32.7644 19.8508 29.6117L21.1918 20.6362C21.6625 17.4855 24.6225 15.2903 27.7672 15.763L34.73 16.8058C37.8767 17.2786 40.0658 20.2426 39.5951 23.3954L38.2541 32.3708C37.7834 35.5216 34.8254 37.7167 31.6787 37.244Z" fill="#EBBA79"/>
<path d="M31.4244 25.8157C31.5339 25.8319 31.6353 25.8867 31.7246 25.976C31.8159 26.0673 31.891 26.187 31.9478 26.3371C32.0046 26.4872 32.0411 26.6556 32.0573 26.8423C32.0715 27.0309 32.0655 27.2217 32.035 27.4184C32.0066 27.6132 31.9579 27.7978 31.889 27.9743C31.8179 28.1488 31.7348 28.2989 31.6353 28.4247C31.538 28.5525 31.4304 28.6459 31.3189 28.7047C31.2052 28.7656 31.0937 28.7859 30.9821 28.7696C30.8725 28.7534 30.7711 28.6986 30.6798 28.6094C30.5905 28.5201 30.5154 28.3984 30.4586 28.2482C30.4018 28.0981 30.3653 27.9297 30.3491 27.7431C30.3349 27.5564 30.341 27.3637 30.3714 27.1689C30.3998 26.9721 30.4485 26.7875 30.5175 26.613C30.5885 26.4385 30.6717 26.2864 30.7711 26.1606C30.8685 26.0348 30.976 25.9415 31.0876 25.8806C31.2012 25.8218 31.3128 25.7995 31.4244 25.8157Z" fill="#1A1614"/>
<path d="M29.946 24.4748C29.9196 24.4707 29.8912 24.4585 29.8729 24.4362C29.8243 24.3835 29.8263 24.3043 29.879 24.2536C30.2381 23.9189 30.7717 23.7667 31.3114 23.8479C31.8409 23.927 32.3055 24.2232 32.551 24.6411C32.5875 24.702 32.5672 24.7811 32.5063 24.8156C32.4455 24.8521 32.3663 24.8318 32.3319 24.771C32.1229 24.42 31.7293 24.1684 31.2728 24.0994C30.8123 24.0305 30.3558 24.1583 30.0535 24.4403C30.0231 24.4687 29.9845 24.4808 29.946 24.4748Z" fill="#1A1614"/>
<path d="M35.103 26.4163C35.2146 26.4325 35.314 26.4873 35.4053 26.5766C35.4966 26.6678 35.5696 26.7875 35.6285 26.9377C35.6853 27.0878 35.7218 27.2562 35.736 27.4429C35.7522 27.6315 35.7441 27.8222 35.7157 28.019C35.6873 28.2138 35.6366 28.3984 35.5676 28.5749C35.4986 28.7494 35.4154 28.8995 35.316 29.0253C35.2166 29.1531 35.1111 29.2465 34.9975 29.3053C34.8839 29.3641 34.7723 29.3864 34.6627 29.3702C34.5512 29.354 34.4517 29.2992 34.3605 29.2099C34.2692 29.1207 34.1961 28.9989 34.1393 28.8488C34.0805 28.6987 34.044 28.5303 34.0298 28.3436C34.0135 28.157 34.0216 27.9643 34.05 27.7695C34.0805 27.5727 34.1292 27.3881 34.1981 27.2136C34.2671 27.0391 34.3523 26.887 34.4497 26.7612C34.5491 26.6334 34.6546 26.5421 34.7682 26.4812C34.8819 26.4224 34.9934 26.4 35.103 26.4163Z" fill="#1A1614"/>
<path d="M33.9502 25.0751C33.9218 25.071 33.8954 25.0568 33.8751 25.0366C33.8285 24.9838 33.8305 24.9027 33.8832 24.854C34.2403 24.5192 34.7739 24.365 35.3135 24.4482C35.8451 24.5273 36.3097 24.8235 36.5552 25.2415C36.5917 25.3023 36.5694 25.3815 36.5085 25.4159C36.4476 25.4525 36.3685 25.4301 36.334 25.3693C36.1271 25.0183 35.7315 24.7667 35.277 24.6998C34.8145 24.6308 34.358 24.7586 34.0577 25.0406C34.0252 25.069 33.9867 25.0792 33.9502 25.0751Z" fill="#1A1614"/>
<path d="M36.3973 31.5268C36.2735 32.3039 34.4578 32.6609 32.3377 32.3241C30.2196 31.9874 28.6026 31.0845 28.7264 30.3075C28.8481 29.5325 30.4448 30.5814 32.5629 30.9182C34.6809 31.255 36.5211 30.7518 36.3973 31.5268Z" fill="#FFFDFE"/>
<path d="M32.3272 32.4033C30.1198 32.0523 28.4948 31.1251 28.6266 30.2933C28.651 30.1493 28.72 30.0498 28.8376 29.9951C29.1298 29.8591 29.6573 30.0296 30.3856 30.2649C30.9922 30.4617 31.7469 30.7052 32.5747 30.837C33.4024 30.9669 34.1957 30.9709 34.8327 30.9709C35.5996 30.973 36.1515 30.975 36.3868 31.1941C36.4822 31.2813 36.5187 31.399 36.4964 31.541C36.3645 32.3769 34.5325 32.7542 32.3272 32.4033ZM29.29 30.1249C29.1399 30.1026 29.0243 30.1026 28.9451 30.1391C28.8802 30.1675 28.8417 30.2284 28.8255 30.3237C28.7118 31.0419 30.3268 31.9204 32.3515 32.243C34.3783 32.5656 36.1839 32.2308 36.2975 31.5126C36.3138 31.4173 36.2955 31.3483 36.2407 31.2976C36.0703 31.1393 35.5286 31.1373 34.8449 31.1373C34.1998 31.1353 33.3943 31.1332 32.5483 30.9993C31.7003 30.8634 30.9354 30.6159 30.3227 30.4191C29.9088 30.2832 29.5497 30.1675 29.29 30.1249Z" fill="#191614"/>
<path d="M30.887 26.3188L30.5178 27.1831C30.5178 27.1831 29.9193 26.6982 29.9822 25.7446C29.9822 25.7467 30.4772 26.4324 30.887 26.3188Z" fill="#1A1614"/>
<path d="M35.4453 27.0575L35.5468 27.9927C35.5468 27.9927 36.2609 27.7047 36.48 26.7734C36.48 26.7734 35.8064 27.2867 35.4453 27.0575Z" fill="#1A1614"/>
<path d="M31.8952 16.4246C32.7432 17.2949 32.7777 18.7171 32.3172 19.8411C31.8586 20.963 30.9984 21.8678 30.1828 22.7646C28.15 25.0044 26.1597 28.0618 27.3222 30.8575C28.0465 32.5982 29.9008 33.8561 30.055 35.7368C30.2904 38.6339 26.3261 40.7804 26.9408 43.6207C27.1214 44.4566 27.6915 45.1646 27.8964 45.9924C28.292 47.585 27.2938 49.1532 26.3423 50.4882C26.5675 48.853 26.1009 47.1305 25.0824 45.8301C24.6503 45.2782 24.1066 44.769 23.9422 44.0873C23.502 42.2675 25.9609 40.3949 25.0074 38.784C25.3624 40.6465 22.7392 41.6528 22.0798 43.432C21.6314 44.6473 22.1833 45.97 22.4632 47.2381C22.7412 48.502 22.5241 50.1595 21.3028 50.5876C21.81 49.9323 21.6071 48.9544 21.1465 48.2646C20.688 47.5748 20.0185 47.0514 19.5255 46.3839C18.5659 45.0794 18.3874 43.2393 19.0833 41.7765C18.6755 43.4543 18.2677 45.1322 17.8599 46.81C17.6185 47.8081 17.4217 48.9991 18.1277 49.7457C16.0116 48.5771 15.0236 45.7063 15.9731 43.4787C16.2612 42.8031 16.7096 42.1478 16.6832 41.4134C16.6426 40.3259 15.5836 39.5124 15.4415 38.4351C15.1839 36.5118 17.8173 35.3371 18.0709 33.4138C18.221 32.2594 17.4602 31.1577 17.4886 29.9932C17.513 28.9849 18.1216 28.08 18.2596 27.0819C18.5395 25.0389 16.8475 22.862 17.797 21.032C18.1764 20.3036 18.9027 19.8289 19.6148 19.4252C23.6968 17.1184 28.4543 16.031 33.1307 16.3353" fill="#FBE4CE"/>
<path d="M43.9892 18.3579C43.9892 18.3579 41.7636 9.82068 36.5719 8.81033C31.3802 7.79999 17.7142 10.1007 16.9554 13.7302C16.1966 17.3597 16.9554 22.0787 16.9554 22.0787L43.9892 18.3579Z" fill="#EBBA79"/>
<path d="M19.5723 16.8972C20.0429 17.8954 20.6861 18.8124 21.4672 19.5935" stroke="#1A1614" stroke-width="0.332373" stroke-miterlimit="10"/>
<path d="M18.9922 12.9998C20.7857 15.1645 22.5811 17.3292 24.3787 19.496" stroke="#1A1614" stroke-width="0.332373" stroke-miterlimit="10"/>
<path d="M23.5264 16.4875C24.3298 17.3194 25.1352 18.1512 25.9386 18.983" stroke="#1A1614" stroke-width="0.332373" stroke-miterlimit="10"/>
<path d="M22.524 13.8013C21.2783 15.5136 19.9353 17.1529 18.5029 18.7089" stroke="#1A1614" stroke-width="0.332373" stroke-miterlimit="10"/>
<path d="M26.198 15.1116C24.932 16.9355 23.5139 18.6518 21.9639 20.2424" stroke="#1A1614" stroke-width="0.332373" stroke-miterlimit="10"/>
<path d="M52.8164 18.2483C53.6624 21.6769 42.4431 18.9218 30.0005 22.0015C17.5598 25.0833 8.61279 32.8313 7.76678 29.4026C6.92077 25.9719 16.3202 20.697 28.7609 17.6153C41.2015 14.5355 51.9724 14.8196 52.8164 18.2483Z" fill="#876353"/>
<path d="M13.2207 27.5806L17.7307 28.1385L20.3053 34.2898L18.6396 38.1182C17.9133 38.0938 16.5723 36.8319 16.3735 35.7729L13.2207 27.5806Z" fill="#EBBA79"/>
<path d="M19.4931 32.675L16.6162 36.1544L22.4653 47.2358L22.5992 42.2896C23.7495 42.6365 24.7233 41.3807 24.1045 40.348L19.4931 32.675Z" fill="#EBBA79"/>
<path d="M13.492 28.0151C13.492 28.0151 11.2502 25.8118 12.6399 23.781C14.0317 21.7522 14.8777 22.2208 16.0584 22.797C17.2392 23.3732 16.1173 25.8361 16.3729 26.3718C16.4703 26.5767 16.8456 26.7288 17.2635 26.8871C17.9493 27.1468 18.7567 27.4206 18.6553 27.9542C18.4971 28.8144 17.8925 29.1918 17.8925 29.1918L13.492 28.0151Z" fill="#EBBA79"/>
<path d="M18.777 31.3098L14.1473 32.0544C13.7354 32.1193 13.3479 31.8373 13.281 31.4255L13.2384 31.1617C13.1714 30.7499 13.4534 30.3583 13.8653 30.2934L18.495 29.5488C18.9048 29.4819 19.2943 29.7659 19.3613 30.1778L19.4039 30.4415C19.4688 30.8534 19.1868 31.2449 18.777 31.3098Z" fill="#F7EC66"/>
<path d="M46.9733 53.8642L43.6928 55.7632C43.3458 55.964 42.8975 55.8423 42.6966 55.4954L42.4998 55.1545C42.299 54.8056 42.4187 54.3572 42.7656 54.1563L46.0462 52.2574C46.3931 52.0565 46.8415 52.1762 47.0423 52.5232L47.2411 52.866C47.44 53.213 47.3203 53.6633 46.9733 53.8642Z" fill="#F7EC66"/>
</g>
<rect x="0.5" y="0.5" width="59" height="59" rx="29.5" stroke="#DBB7EA"/>
<defs>
<clipPath id="clip0_1015_55632">
<rect width="60" height="60" rx="30" fill="white"/>
</clipPath>
</defs>
</svg>
