<svg width="60" height="60" viewBox="0 0 60 60" fill="none" xmlns="http://www.w3.org/2000/svg">
<g clip-path="url(#clip0_1015_55375)">
<rect width="60" height="60" rx="30" fill="#FAF5F9"/>
<mask id="mask0_1015_55375" style="mask-type:luminance" maskUnits="userSpaceOnUse" x="12" y="8" width="34" height="50">
<path d="M12.8574 8.57153H45.7495V57.083H12.8574V8.57153Z" fill="white"/>
</mask>
<g mask="url(#mask0_1015_55375)">
<path d="M45.3704 13.8755C44.8322 12.4522 43.6206 11.404 42.1691 10.9907C41.4434 10.7831 40.6773 10.7488 39.9395 10.8899C39.9536 10.3295 39.5948 9.84363 39.1472 9.50898C38.5646 9.07555 37.8026 8.89009 37.0869 8.8417C35.5306 8.73889 35.3734 9.71662 34.0792 10.5371C33.7344 10.7548 33.4824 11.0109 33.1538 11.2528C32.3293 11.0935 30.0574 10.6218 29.2369 10.6964C28.62 10.7548 27.9568 11.0048 27.5778 11.4826C27.3701 11.4665 27.0536 11.0512 25.7372 10.4C20.4494 7.78334 18.2621 11.5854 17.7601 12.4966C17.2783 13.3675 16.9659 14.3553 17.107 15.3592C17.2461 16.341 17.8186 17.1917 18.5403 17.8449C19.4979 18.7137 20.778 19.3609 22.0904 19.508C22.1126 19.5927 22.1347 19.6794 22.1549 19.7661C22.0783 20.2237 21.9412 20.6753 21.7497 21.1026C21.2296 22.2678 20.3627 23.2234 19.4031 24.0459C18.9233 24.4572 18.4194 24.8361 17.9053 25.201C17.3771 25.578 16.8489 25.9449 16.4579 26.4711C15.7482 27.4286 15.6112 28.6987 15.6797 29.8578C15.7724 31.4323 16.2845 33.0209 15.9559 34.5993C15.8692 35.0207 16.5123 35.2001 16.599 34.7787C16.9034 33.3132 16.5566 31.8657 16.3933 30.4082C16.2663 29.2672 16.2663 27.9891 16.9074 26.9892C17.2541 26.4529 17.7884 26.1022 18.2984 25.7393C18.8286 25.3583 19.3507 24.9652 19.8487 24.5418C20.8103 23.7213 21.6953 22.7537 22.2476 21.6026C22.167 22.2981 21.9553 22.9795 21.6187 23.5963C20.9352 24.8503 19.7438 25.6002 18.6855 26.4973C18.1916 26.9126 17.7198 27.3742 17.3932 27.9346C17.0465 28.5273 16.9034 29.2047 16.9578 29.8881C17.0727 31.3617 17.9517 32.7144 17.8791 34.2103C17.8025 35.7585 16.3954 36.6536 15.6071 37.841C14.8169 39.0324 14.8149 40.4798 14.962 41.8527C15.1132 43.2719 15.4519 44.7576 15.1314 46.1769C14.96 46.9389 14.5568 47.5517 14.0891 48.1646C13.5851 48.8238 13.1457 49.4911 13.0025 50.3257C12.8634 51.1361 12.9602 51.9626 13.1437 52.7549C13.2424 53.1742 13.3654 53.5874 13.4985 53.9967C13.6154 54.3575 13.7263 54.7285 13.9037 55.0651C14.0448 55.3353 15.0205 56.6134 15.3007 56.7464C15.6091 56.8936 15.9438 56.825 16.224 56.6476C16.607 56.4037 16.1736 55.0692 16.5244 54.7829L17.6553 53.8697C19.1653 52.65 20.6772 51.4324 22.1851 50.2067C22.8504 49.6664 23.4834 49.1 23.9592 48.3803C24.4389 47.6586 24.7696 46.8542 25.1163 46.066C25.713 44.7052 26.3783 43.3062 27.4487 42.2518C27.989 41.7216 28.618 41.3285 29.3236 41.0584C30.0312 40.7883 30.773 40.5988 31.4403 40.2278C32.0552 39.8871 32.5531 39.3791 32.8555 38.7401C33.1478 38.1292 33.2667 37.4559 33.3171 36.7846C33.3695 36.0609 33.3413 35.3351 33.3252 34.6114C33.3091 33.8393 33.2183 32.9886 33.8917 32.4604C34.4178 32.0472 35.0851 31.8597 35.577 31.392C36.0588 30.9344 36.2987 30.2953 36.3834 29.6462C36.4761 28.9507 36.4055 28.2451 36.2765 27.5597C36.1193 26.7069 35.8955 25.8098 36.3733 25.0196C36.714 24.4572 37.2442 24.0459 37.6474 23.5359C37.8348 23.298 37.9961 23.044 38.0969 22.7577C38.228 22.3807 38.1675 21.9896 38.2521 21.6066C38.3429 21.1913 38.6795 20.9111 38.994 20.6571C39.3166 20.3971 39.6593 20.1592 40.0141 19.9455C40.7277 19.5161 41.4978 19.1855 42.2981 18.9597C43.0662 18.742 44.5681 18.5343 44.5923 18.498C45.447 17.1998 45.9208 15.327 45.3704 13.8755Z" fill="#83282C"/>
</g>
<mask id="mask1_1015_55375" style="mask-type:luminance" maskUnits="userSpaceOnUse" x="14" y="14" width="34" height="46">
<path d="M14.2686 14.7644H47.2977V60H14.2686V14.7644Z" fill="white"/>
</mask>
<g mask="url(#mask1_1015_55375)">
<path d="M43.3444 15.1719C43.3444 15.1719 44.4028 17.1394 44.6548 18.7361C44.9088 20.3327 44.3927 21.4213 44.4391 22.5099C44.4976 23.9009 46.582 26.1567 46.582 26.1567C46.582 26.1567 47.4368 26.8058 46.957 27.6485C46.4772 28.4932 45.9006 28.5174 45.8281 28.7815C45.7555 29.0476 46.1728 29.8781 46.4953 30.0938C47.0356 30.4547 46.1889 31.4324 46.1889 31.4324C46.1889 31.4324 46.5518 31.7953 46.5357 32.3376C46.5095 33.2064 45.8039 32.8799 45.4672 33.146C45.1326 33.4121 45.949 33.9423 45.4209 35.4361C44.8927 36.9319 43.4755 37.196 41.5059 37.0508C39.5363 36.9077 38.9981 36.2687 37.4377 36.2928C35.8774 36.317 34.2405 40.6513 33.8151 42.2318C33.8151 42.2318 34.1256 43.77 36.2241 46.6165C38.3227 49.465 42.4655 60.0003 42.4655 60.0003H14.5186C14.5186 60.0003 15.3532 51.4567 18.1311 46.2758C20.9111 41.0928 24.1447 40.4094 26.4126 36.7646C28.6805 33.1198 30.1038 29.606 30.1038 29.606C30.1038 29.606 28.9668 30.0918 27.6383 29.4387C26.3098 28.7875 25.4046 25.439 26.4509 23.6791C27.4972 21.9192 30.0977 21.637 31.3113 23.7638C31.3113 23.7638 31.906 25.8644 33.1498 25.2112C34.3917 24.5581 35.0993 23.1711 35.8068 22.4333C36.5124 21.6954 36.71 20.2742 38.9719 19.4235C41.2317 18.5707 43.3444 15.1719 43.3444 15.1719Z" fill="#EC896B"/>
</g>
<mask id="mask2_1015_55375" style="mask-type:luminance" maskUnits="userSpaceOnUse" x="15" y="43" width="28" height="18">
<path d="M15.8164 43.665H42.6526V60.0002H15.8164V43.665Z" fill="white"/>
</mask>
<g mask="url(#mask2_1015_55375)">
<path d="M34.5887 44.0683C33.3227 44.0884 32.0567 44.157 30.7968 44.1872C27.0471 44.2739 23.2914 44.1812 19.5418 44.04C19.064 44.6851 19.9873 45.4169 19.5256 46.2757C16.7477 51.4567 15.9131 60.0002 15.9131 60.0002H42.465C42.465 60.0002 38.3222 49.4649 36.2237 46.6164C35.4717 45.5943 34.9496 44.7436 34.5887 44.0683Z" fill="#E5E5E5"/>
</g>
<path d="M44.191 13.4721C44.1084 13.331 43.8806 13.2423 43.7354 13.3532C42.0824 14.6011 42.8504 17.129 41.2558 18.4051C40.8123 18.7599 40.2983 19.0119 39.8346 19.3365C39.3064 19.7054 38.8569 20.163 38.4013 20.6166C37.9477 21.0702 37.478 21.4815 36.9337 21.8221C36.3753 22.1729 35.7906 22.4773 35.2524 22.8583C34.1456 23.6425 33.2223 24.6666 32.555 25.854C32.3454 26.229 32.9199 26.5656 33.1316 26.1907C33.7001 25.1787 34.4682 24.2735 35.3955 23.576C35.9076 23.193 36.464 22.8866 37.0123 22.558C37.5707 22.2233 38.0888 21.8463 38.5605 21.3948C39.0081 20.9694 39.4233 20.5078 39.9011 20.1167C40.3487 19.7518 40.8688 19.4897 41.3425 19.1651C41.8001 18.8507 42.2114 18.4797 42.4876 17.9898C42.7174 17.5786 42.8585 17.121 42.9674 16.6634C43.1851 15.7542 43.2637 14.5406 44.0721 13.9297C44.2152 13.8209 44.2898 13.6415 44.191 13.4721Z" fill="#83282C"/>
<path d="M43.4996 23.5074C43.4916 23.4993 43.4855 23.4953 43.4795 23.4872C43.419 23.3965 43.3404 23.3279 43.2436 23.2917C42.9654 23.1909 42.665 23.3683 42.5158 23.6565C42.3767 23.9307 42.3546 24.2815 42.4796 24.5698C42.6348 24.9226 42.9936 25.102 43.296 24.9024C43.544 24.7391 43.6609 24.3863 43.6669 24.0597C43.671 23.8622 43.6105 23.6525 43.4996 23.5074Z" fill="#1A1A1A"/>
<path d="M46.1161 27.7471C46.1141 27.7027 46.0999 27.6604 46.0758 27.6221C46.0314 27.5515 45.9629 27.489 45.8762 27.4689C45.848 27.4649 45.8177 27.4608 45.7895 27.4568C45.729 27.4568 45.6726 27.4729 45.6201 27.5032C45.469 27.6181 45.3057 27.7168 45.1323 27.7955C45.094 27.8156 45.0638 27.8459 45.0396 27.8821C45.0093 27.9144 44.9912 27.9507 44.9811 27.995C44.967 28.0394 44.965 28.0837 44.975 28.1281C44.9771 28.1724 44.9892 28.2148 45.0134 28.2531C45.0597 28.3236 45.1283 28.3882 45.2129 28.4063C45.2432 28.4103 45.2714 28.4144 45.3016 28.4184C45.3621 28.4184 45.4186 28.4023 45.469 28.372C45.6423 28.2934 45.8056 28.1966 45.9568 28.0797C45.9951 28.0596 46.0274 28.0313 46.0495 27.995C46.0798 27.9628 46.0999 27.9245 46.11 27.8801C46.1241 27.8358 46.1261 27.7914 46.1161 27.7471Z" fill="#DF775C"/>
<path d="M45.6765 33.051C45.5314 33.0631 45.2511 33.0732 44.9367 33.0087C44.4831 32.9139 44.7653 33.3997 45.108 33.6679C45.2915 33.809 45.4588 34.0126 45.5858 34.186C45.5152 33.6013 45.2511 33.3171 45.4669 33.1457C45.5273 33.0994 45.5999 33.0711 45.6765 33.051Z" fill="#DF775C"/>
<path d="M46.608 30.2168C46.4064 30.0596 46.1706 30.1059 45.717 30.4204C45.2654 30.7329 44.3844 31.1179 44.0558 31.2288C43.7272 31.3377 43.818 31.0877 43.5519 31.0413C43.2858 30.993 43.2716 31.2611 43.3644 31.3377C43.4591 31.4163 43.9047 31.5816 44.3905 31.5494C44.8743 31.5171 45.3581 31.4445 45.717 31.4909C46.0758 31.5373 46.1887 31.4324 46.1887 31.4324C46.1887 31.4324 46.8681 30.6462 46.6161 30.2229C46.6141 30.2208 46.6121 30.2188 46.608 30.2168Z" fill="#D1674A"/>
<path d="M39.3467 22.5096C39.3467 22.5096 41.2155 22.1589 42.0238 21.9028C42.8322 21.6448 43.5136 21.7738 43.7253 21.4755C43.939 21.1751 44.0237 20.536 43.939 20.3223C43.8543 20.1087 42.8746 20.3223 42.0238 20.6207C41.1731 20.9191 39.3467 22.5096 39.3467 22.5096Z" fill="#83282C"/>
<path d="M40.9128 22.3484C40.8281 22.5016 40.6305 22.2234 40.5943 22.1549C40.5197 22.0158 40.4915 21.8545 40.4834 21.6993C40.4753 21.5521 40.4834 21.3989 40.5338 21.2598C40.5822 21.1247 40.693 20.9655 40.8523 20.9735C40.9591 20.9796 40.9591 20.8123 40.8523 20.8062C40.6326 20.7941 40.4673 20.9836 40.3907 21.1711C40.31 21.3666 40.302 21.5904 40.3241 21.7981C40.3483 22.0097 40.4108 22.2194 40.5499 22.3847C40.6729 22.5319 40.935 22.6528 41.0579 22.4331C41.1103 22.3403 40.9652 22.2557 40.9128 22.3484Z" fill="#EEB240"/>
<path d="M40.2221 22.6588C40.0951 22.6588 39.9923 22.5539 39.9217 22.4572C39.8471 22.3544 39.7987 22.2354 39.7766 22.1104C39.7564 21.9854 39.7685 21.8564 39.8068 21.7375C39.827 21.673 39.8552 21.6145 39.8894 21.5581C39.9197 21.5097 39.9681 21.421 40.0326 21.427C40.1394 21.4351 40.1394 21.2678 40.0326 21.2597C39.8592 21.2456 39.7423 21.4593 39.6838 21.5964C39.6133 21.7576 39.5871 21.935 39.6092 22.1104C39.6496 22.4108 39.8753 22.8261 40.2241 22.8261C40.3309 22.8261 40.3309 22.6588 40.2221 22.6588Z" fill="#EEB240"/>
<path d="M38.4115 36.331C37.5567 36.0952 36.7524 35.7202 36.0186 35.2202C35.8694 35.1174 35.6496 35.192 35.563 35.3392C35.4662 35.5045 35.5327 35.696 35.6819 35.7968C36.46 36.327 36.708 36.4459 37.6152 36.6959C37.7885 36.7423 38.1353 36.6999 38.3026 36.6354C38.6171 36.5185 38.5869 36.3794 38.4115 36.331Z" fill="#DF775C"/>
<path d="M22.9067 16.8833C22.7697 16.4781 22.1266 16.6515 22.2637 17.0607C22.6648 18.2521 22.2778 19.5665 21.5077 20.5221C20.7073 21.5159 19.5986 22.1671 18.4676 22.7154C17.3428 23.2617 16.1876 23.8141 15.5042 24.9188C14.8591 25.9591 14.7099 27.2392 14.7321 28.4407C14.7624 30.0696 15.1252 31.7246 14.7402 33.3374C14.6394 33.7567 15.2825 33.9341 15.3812 33.5148C15.736 32.029 15.5103 30.5191 15.4216 29.0172C15.351 27.8218 15.3853 26.5276 15.9679 25.449C16.5827 24.3141 17.7601 23.802 18.8648 23.2637C20.0199 22.7013 21.1609 22.0098 21.9794 20.9958C22.8946 19.8629 23.3885 18.3106 22.9067 16.8833Z" fill="#83282C"/>
<path d="M26.9283 11.2307C26.7045 12.1419 27.0734 13.1217 26.6078 13.9764C26.3981 14.3655 26.0977 14.6921 25.7671 14.9864C25.7873 14.7606 25.7933 14.5308 25.7812 14.301C25.753 13.7668 24.9184 13.7628 24.9486 14.301C25.0252 15.7444 24.3237 17.1818 23.1081 17.97C22.6585 18.2623 23.0758 18.9861 23.5274 18.6917C24.4124 18.1192 25.0877 17.2624 25.4607 16.2867C26.1582 15.7726 26.8618 15.2162 27.2972 14.4522C27.5432 14.0248 27.6722 13.5551 27.6923 13.0632C27.7145 12.527 27.6036 11.9807 27.7327 11.4525C27.8597 10.9304 27.0573 10.7086 26.9283 11.2307Z" fill="#712226"/>
<mask id="mask3_1015_55375" style="mask-type:luminance" maskUnits="userSpaceOnUse" x="14" y="39" width="29" height="21">
<path d="M14.2686 39.02H42.653V59.9999H14.2686V39.02Z" fill="white"/>
</mask>
<g mask="url(#mask3_1015_55375)">
<path d="M18.1311 46.2754C15.3532 51.4563 14.5186 59.9999 14.5186 59.9999H42.4655C42.4655 59.9999 40.1089 54.0045 38.0506 49.8376C34.7747 47.9728 27.4528 39.6228 24.5378 39.0745C22.544 41.038 20.2116 42.3987 18.1311 46.2754Z" fill="#F53C47"/>
</g>
<path d="M34.4101 29.1784C34.0049 27.985 33.4143 26.6887 33.7368 25.4066C33.8678 24.8845 33.0655 24.6627 32.9345 25.1848C32.6361 26.3682 32.9647 27.5475 33.3518 28.6684C33.6723 29.5977 34.0211 30.523 34.0049 31.5209C33.9989 31.9201 33.9364 32.3354 33.7509 32.6942C33.6642 32.8656 33.5594 33.0188 33.4264 33.1559C33.2369 33.3494 33.001 33.4865 32.8115 33.68C32.4265 34.0751 32.3176 34.6114 32.3438 35.1496C32.366 35.6274 32.493 36.1273 32.3922 36.6031C32.2994 37.0486 32.0656 37.4538 31.7128 37.7441C31.362 38.0344 30.9125 38.1534 30.4871 38.2884C30.0053 38.4437 29.5316 38.6271 29.1445 38.9658C28.7897 39.2762 28.572 39.7036 28.4026 40.135C28.1063 40.887 27.9954 41.8647 27.2818 42.3586C26.4633 42.9211 25.3868 42.7719 24.4756 42.5884C23.8305 42.4594 23.1854 42.3082 22.5262 42.282C21.9617 42.2578 21.3852 42.3243 20.8388 42.4675C19.72 42.7578 18.6858 43.3787 17.9137 44.2415C17.5569 44.6427 18.1435 45.2354 18.5024 44.8342C19.1696 44.0883 20.0325 43.552 20.9961 43.29C21.4658 43.163 21.9436 43.1025 22.4294 43.1146C22.9959 43.1267 23.5483 43.2517 24.1026 43.3646C25.1348 43.5762 26.2254 43.7436 27.2314 43.3242C27.7071 43.1267 28.1003 42.8162 28.3926 42.3889C28.6526 42.0119 28.8038 41.5643 28.9429 41.1309C29.0739 40.7277 29.1889 40.3145 29.4086 39.9476C29.6324 39.5766 29.9731 39.3569 30.3742 39.2097C30.8601 39.0303 31.3701 38.9134 31.8297 38.6654C32.2853 38.4195 32.6704 38.0264 32.9163 37.5708C33.1643 37.1111 33.2772 36.6011 33.255 36.079C33.2328 35.6113 33.0917 35.0972 33.2066 34.6335C33.3215 34.1658 33.8396 33.9683 34.1299 33.6195C34.4283 33.2627 34.6359 32.8394 34.7387 32.3838C34.9786 31.3133 34.7549 30.1965 34.4101 29.1784Z" fill="#83282C"/>
<path d="M33.6638 28.9165C33.2667 27.9609 32.4986 26.701 33.1195 25.6809C33.2707 25.4329 33.1296 25.1971 32.926 25.1043C32.8272 24.9088 32.5933 24.7717 32.3454 24.9007C29.4686 26.3804 27.1059 28.6605 25.0315 31.1139C23.9732 32.3678 22.9773 33.6741 21.9895 34.9824C20.9876 36.313 19.9857 37.6536 19.1934 39.1252C18.3144 40.7621 17.7097 42.5765 17.8024 44.4573C17.8044 44.5057 17.8165 44.5481 17.8306 44.5884C17.5847 45.0581 17.9032 46.2475 18.1592 45.7778C18.6168 44.9331 19.651 43.8223 20.4977 43.3748C21.5016 42.8426 22.6527 42.4656 23.7615 42.4414C24.8421 42.4172 25.9327 42.3346 26.8902 41.7822C27.3055 41.5443 27.6724 41.2258 27.9446 40.8287C28.2429 40.3972 28.3437 39.9054 28.3861 39.3913C28.4224 38.9619 28.4445 38.5103 28.763 38.2402C28.8397 38.1737 29.0231 38.0809 29.1299 38.0426C29.3134 37.9801 29.5029 37.9378 29.6944 37.9015C30.4524 37.7564 31.0572 37.7342 31.6075 37.1153C32.2909 36.3432 32.0289 35.3493 31.9724 34.424C31.9482 34.037 32.2405 33.6015 32.4845 33.279C32.7748 32.9 33.2183 32.6641 33.5328 32.3073C34.3956 31.3316 34.1214 30.0111 33.6638 28.9165Z" fill="#83282C"/>
<mask id="mask4_1015_55375" style="mask-type:luminance" maskUnits="userSpaceOnUse" x="24" y="44" width="10" height="16">
<path d="M24.0742 44.1809H33.3637V60H24.0742V44.1809Z" fill="white"/>
</mask>
<g mask="url(#mask4_1015_55375)">
<path d="M31.686 53.4744C31.307 52.2266 30.8514 51.0029 30.3313 49.8054C29.8273 48.6503 29.2971 47.4528 28.402 46.5416C27.4646 45.5881 26.2551 44.9793 25.0717 44.3967C24.8701 44.2979 24.6221 44.3422 24.5032 44.5459C24.3943 44.7313 24.4488 45.0196 24.6524 45.1184C25.6483 45.6103 26.6764 46.1062 27.515 46.8501C28.4262 47.6585 28.9463 48.7471 29.4402 49.8417C30.4663 52.1197 31.2203 54.5268 31.7001 56.9802C31.8977 57.978 32.0428 58.986 32.1416 60H32.9762C32.7605 57.7885 32.3331 55.5992 31.686 53.4744Z" fill="#C61818"/>
</g>
<path d="M34.148 22.9836C34.3073 23.2759 34.4363 23.5783 34.5371 23.8928C34.6379 24.2093 34.7064 24.5318 34.7447 24.8604C34.783 25.187 34.7891 25.5156 34.7629 25.8442C34.7387 26.1728 34.6802 26.4954 34.5935 26.8119C34.5048 27.1284 34.3859 27.4308 34.2387 27.7231C34.0916 28.0134 33.9162 28.2875 33.7146 28.5436C33.515 28.7976 33.2892 29.0314 33.0433 29.2411C32.7953 29.4507 32.5312 29.6342 32.247 29.7894C31.9628 29.9467 31.6664 30.0716 31.358 30.1684C31.0495 30.2652 30.733 30.3297 30.4105 30.3619C30.0879 30.3962 29.7634 30.3962 29.4388 30.364C29.1162 30.3337 28.7977 30.2692 28.4853 30.1745C28.1708 30.0797 27.8704 29.9547 27.5801 29.7995C27.2918 29.6443 27.0197 29.4628 26.7637 29.2532C26.5076 29.0455 26.2758 28.8137 26.0641 28.5577C25.8524 28.3037 25.669 28.0315 25.5097 27.7392C25.3505 27.4489 25.2215 27.1465 25.1207 26.83C25.0199 26.5155 24.9513 26.193 24.913 25.8644C24.8747 25.5358 24.8687 25.2072 24.8949 24.8786C24.9191 24.552 24.9755 24.2295 25.0642 23.913C25.1529 23.5965 25.2719 23.2941 25.419 23.0018C25.5662 22.7115 25.7396 22.4373 25.9411 22.1813C26.1427 21.9252 26.3665 21.6934 26.6145 21.4838C26.8624 21.2741 27.1265 21.0906 27.4108 20.9354C27.695 20.7782 27.9914 20.6532 28.2998 20.5564C28.6082 20.4597 28.9247 20.3951 29.2473 20.3609C29.5698 20.3286 29.8944 20.3286 30.217 20.3589C30.5415 20.3911 30.86 20.4556 31.1725 20.5504C31.485 20.6451 31.7874 20.7701 32.0756 20.9253C32.3659 21.0806 32.6381 21.262 32.8941 21.4717C33.1481 21.6793 33.382 21.9111 33.5936 22.1672C33.8033 22.4212 33.9888 22.6933 34.148 22.9836Z" fill="#CFE3E0"/>
<path d="M32.0509 21.1469C32.0509 21.1469 31.7828 13.446 34.0971 10.4765C34.0971 10.4765 31.303 10.2003 30.5732 10.7688C29.8435 11.3393 28.1924 17.5464 27.6904 21.5702L32.0509 21.1469Z" fill="#CFE3E0"/>
<path d="M29.3783 29.5412C29.2432 29.5412 29.1323 29.4323 29.1283 29.2973C29.1243 29.1582 29.2311 29.0433 29.3702 29.0392C30.4185 29.005 31.3781 28.5715 32.0676 27.8196C32.7187 27.11 33.0533 26.1927 33.007 25.2392C32.9062 23.2091 31.114 21.6125 29.0013 21.6811C28.8642 21.6851 28.7493 21.5762 28.7433 21.4371C28.7392 21.3001 28.8481 21.1831 28.9852 21.1791C31.366 21.0985 33.394 22.9128 33.5049 25.215C33.5593 26.3036 33.1783 27.3499 32.4365 28.1583C31.6523 29.011 30.5697 29.5009 29.3864 29.5392C29.3823 29.5412 29.3803 29.5412 29.3783 29.5412Z" fill="#9FC6C1"/>
<path d="M32.1454 20.0866C31.2201 19.6935 30.2222 19.5221 29.2223 19.633C29.0066 19.6572 28.795 19.8084 28.805 20.0503C28.8151 20.2559 28.9905 20.4958 29.2223 20.4696C30.0852 20.3728 30.948 20.4797 31.7241 20.8083C31.9318 20.895 32.1696 20.8708 32.2946 20.6571C32.3954 20.4837 32.3531 20.1733 32.1454 20.0866Z" fill="#9FC6C1"/>
</g>
<rect x="0.5" y="0.5" width="59" height="59" rx="29.5" stroke="#DBB7EA"/>
<defs>
<clipPath id="clip0_1015_55375">
<rect width="60" height="60" rx="30" fill="white"/>
</clipPath>
</defs>
</svg>
