<svg width="60" height="60" viewBox="0 0 60 60" fill="none" xmlns="http://www.w3.org/2000/svg">
<g clip-path="url(#clip0_1015_55161)">
<rect width="60" height="60" rx="30" fill="#FAF5F9"/>
<path d="M31.6023 16.4106C31.6023 16.4106 22.3713 17.2961 22.3177 24.2357C22.2641 31.1753 23.1894 33.1828 23.1894 33.1828C23.1894 33.1828 14.568 15.6143 31.4355 15.8764" fill="#E83B3A"/>
<path d="M41.3253 18.0547C41.3253 18.0547 48.6382 29.3229 46.3706 33.1828C44.1031 37.0408 46.6963 37.7755 46.3706 40.462C46.045 43.1485 40.6601 45.9819 40.6601 45.9819C40.6601 45.9819 29.7195 53.0525 26.9715 51.5713C24.2235 50.0881 24.4657 45.5411 24.4657 45.5411C24.3843 49.405 21.6362 48.6545 21.6362 48.6545C23.4947 48.0747 19.6963 44.3577 20.2622 41.5957C20.8281 38.8318 24.2235 36.0699 23.0917 33.1828C22.1724 30.8379 23.2227 28.336 23.6496 27.4802C23.7469 27.2817 23.8124 27.1725 23.8124 27.1725" fill="#201812"/>
<mask id="mask0_1015_55161" style="mask-type:luminance" maskUnits="userSpaceOnUse" x="26" y="48" width="5" height="13">
<path d="M26.126 48.3469H30.7008V60.0003H26.126V48.3469Z" fill="white"/>
</mask>
<g mask="url(#mask0_1015_55161)">
<path d="M26.8864 59.996L30.3255 58.6736L30.4843 52.5897L27.2935 48.6523C26.7117 48.8271 26.122 49.8516 26.3761 50.5049L26.8864 59.996Z" fill="#DC4674"/>
</g>
<path d="M26.3955 50.0028L29.2746 52.3597L30.4123 41.6972L31.1847 40.1345C31.3495 39.0127 29.4573 38.276 28.7782 39.0266L26.3955 50.0028Z" fill="#DC4674"/>
<path d="M43.6245 40.992L40.7455 48.9283C40.5727 49.9628 42.4133 55.1412 41.3848 55.3278H36.3653L34.0203 55.4728C33.5993 55.5482 30.2814 54.6984 30.2814 54.6984L29.243 59.0349C28.2581 58.6855 28.7128 52.4408 28.7029 51.3904L28.6036 39.7927C28.5897 38.3015 29.8804 37.0943 31.3517 37.2948C31.3954 37.3008 31.439 37.3087 31.4827 37.3166L33.4266 37.686L36.0237 38.1764C36.1965 38.2082 36.3732 38.2241 36.5499 38.2181L38.2575 37.6204L41.1684 38.091C41.214 38.089 41.2597 38.089 41.3014 38.091C42.7866 38.1248 43.8708 39.5226 43.6245 40.992Z" fill="#DC4674"/>
<path d="M48.3806 47.1591L44.9635 49.1069L40.7461 43.0151L40.8057 40.9998C40.8434 39.7191 43.8952 39.042 43.6887 39.8084L48.3806 47.1591Z" fill="#DC4674"/>
<path d="M35.8766 39.896L35.4318 39.9536C34.1908 40.1084 33.0571 39.2229 32.9022 37.9759L32.6719 36.1273L37.614 35.5059L37.8443 37.3544C37.9992 38.6014 37.1176 39.7411 35.8766 39.896Z" fill="#FBE4CE"/>
<path d="M38.7939 36.2961L32.5532 37.0824C29.7337 37.4378 27.1366 35.4085 26.7851 32.5731L25.7784 24.5057C25.425 21.6723 27.4443 19.0612 30.2639 18.7058L36.5045 17.9215C39.3241 17.5661 41.9212 19.5954 42.2727 22.4308L43.2793 30.4982C43.6328 33.3316 41.6134 35.9426 38.7939 36.2961Z" fill="#FBE4CE"/>
<path d="M32.2867 28.9415C32.3205 29.1163 32.3324 29.287 32.3264 29.4558C32.3185 29.6246 32.2927 29.7755 32.247 29.9125C32.2013 30.0495 32.1398 30.1587 32.0604 30.2441C31.9829 30.3275 31.8956 30.3791 31.7983 30.397C31.699 30.4168 31.5997 30.4009 31.4965 30.3513C31.3932 30.3016 31.2939 30.2222 31.2026 30.113C31.1093 30.0018 31.0298 29.8708 30.9623 29.7159C30.8928 29.563 30.8432 29.3982 30.8094 29.2235C30.7777 29.0507 30.7638 28.878 30.7717 28.7112C30.7777 28.5424 30.8055 28.3895 30.8511 28.2545C30.8968 28.1175 30.9584 28.0063 31.0358 27.9229C31.1152 27.8395 31.2026 27.7879 31.2999 27.77C31.3972 27.7502 31.4984 27.7661 31.6017 27.8157C31.7049 27.8653 31.8022 27.9448 31.8956 28.054C31.9889 28.1632 32.0683 28.2962 32.1358 28.4491C32.2033 28.604 32.255 28.7668 32.2867 28.9415Z" fill="#1A1614"/>
<path d="M35.8417 28.2626C35.8735 28.4374 35.8874 28.6081 35.8794 28.7769C35.8735 28.9437 35.8457 29.0966 35.8 29.2336C35.7543 29.3686 35.6928 29.4798 35.6153 29.5632C35.5359 29.6486 35.4486 29.6982 35.3513 29.7181C35.254 29.7359 35.1527 29.722 35.0495 29.6724C34.9462 29.6228 34.8489 29.5433 34.7556 29.4321C34.6642 29.3229 34.5828 29.1899 34.5153 29.037C34.4478 28.8841 34.3962 28.7193 34.3644 28.5446C34.3307 28.3699 34.3188 28.1991 34.3247 28.0303C34.3327 27.8635 34.3585 27.7107 34.4041 27.5736C34.4498 27.4386 34.5114 27.3274 34.5908 27.244C34.6682 27.1606 34.7556 27.109 34.8549 27.0892C34.9522 27.0713 35.0514 27.0872 35.1547 27.1348C35.2579 27.1845 35.3572 27.2639 35.4486 27.3751C35.5419 27.4843 35.6213 27.6173 35.6908 27.7702C35.7583 27.9251 35.8079 28.0879 35.8417 28.2626Z" fill="#1A1614"/>
<path d="M30.9703 28.3639L30.9127 29.2058C30.9127 29.2058 30.2674 28.9735 30.0391 28.1475C30.0391 28.1475 30.6586 28.5823 30.9703 28.3639Z" fill="#1A1614"/>
<path d="M35.333 27.5319L35.6924 28.2924C35.6924 28.2924 36.2106 27.8377 36.1213 26.9858C36.1213 26.9858 35.7043 27.6173 35.333 27.5319Z" fill="#1A1614"/>
<path d="M36.2221 32.2318C36.373 33.028 35.5172 33.86 34.3139 34.0903C33.1087 34.3206 32.0106 33.862 31.8597 33.0657C31.7088 32.2715 32.7175 32.2517 33.9227 32.0213C35.126 31.791 36.0711 31.4356 36.2221 32.2318Z" fill="#E83B3A"/>
<path d="M38.2773 29.456C38.1979 29.444 38.1244 29.4996 38.1125 29.581C37.8444 31.5031 35.7675 32.5098 34.0718 32.7858C34.0619 32.7878 34.054 32.7917 34.044 32.7937C32.4178 33.0657 30.3846 32.8175 29.4931 31.2628C29.4534 31.1913 29.364 31.1675 29.2925 31.2092C29.223 31.2489 29.1992 31.3383 29.2389 31.4098C30.1245 32.9545 32.0148 33.3159 33.6509 33.1452C33.9428 33.1134 34.2267 33.0657 34.4967 33.0062C34.5007 33.0042 34.5027 33.0022 34.5067 33.0022C34.6556 32.9684 34.8045 32.9307 34.9554 32.889C36.5359 32.4323 38.1562 31.3859 38.4024 29.6227C38.4143 29.5413 38.3587 29.4659 38.2773 29.456Z" fill="#1A1614"/>
<path d="M31.4195 25.8044C31.0085 25.6793 30.5717 25.7845 30.1964 25.9731C29.8549 26.1419 29.5511 26.3881 29.3108 26.684C29.1738 26.8527 29.0567 27.0374 28.9613 27.236C28.9335 27.2975 29.0229 27.3511 29.0527 27.2896C29.2552 26.8666 29.565 26.5033 29.9502 26.2412C30.3612 25.9612 30.8953 25.7587 31.3917 25.9096C31.4552 25.9275 31.483 25.8242 31.4195 25.8044Z" fill="#1A1614"/>
<path d="M34.2507 25.5124C34.5406 25.1888 35.0013 25.1212 35.4143 25.1451C35.873 25.1709 36.3237 25.3059 36.7248 25.5283C36.9511 25.6534 37.1596 25.8063 37.3483 25.985C37.3979 26.0326 37.4714 25.9572 37.4237 25.9095C37.0723 25.5759 36.6493 25.3277 36.1887 25.1808C35.7518 25.0418 35.2574 24.9803 34.8047 25.0855C34.5645 25.1411 34.3401 25.2543 34.1753 25.437C34.1296 25.4886 34.2051 25.564 34.2507 25.5124Z" fill="#1A1614"/>
<path d="M44.9228 29.9641C44.9228 30.1468 44.905 30.3294 44.8692 30.5081C44.8335 30.6888 44.7819 30.8636 44.7124 31.0323C44.6429 31.2011 44.5555 31.3619 44.4542 31.5148C44.353 31.6677 44.2378 31.8087 44.1088 31.9378C43.9817 32.0668 43.8407 32.184 43.6898 32.2852C43.5369 32.3865 43.3781 32.4739 43.2093 32.5434C43.0405 32.6129 42.8658 32.6665 42.6871 32.7022C42.5084 32.7379 42.3277 32.7558 42.145 32.7558C41.9623 32.7558 41.7817 32.7379 41.603 32.7022C41.4242 32.6665 41.2515 32.6129 41.0827 32.5434C40.914 32.4739 40.7531 32.3865 40.6022 32.2852C40.4513 32.184 40.3103 32.0668 40.1813 31.9378C40.0522 31.8087 39.937 31.6677 39.8358 31.5148C39.7345 31.3619 39.6491 31.2011 39.5796 31.0323C39.5101 30.8636 39.4565 30.6888 39.4208 30.5081C39.3851 30.3294 39.3672 30.1468 39.3672 29.9641C39.3672 29.7794 39.3851 29.5987 39.4208 29.42C39.4565 29.2394 39.5101 29.0646 39.5796 28.8958C39.6491 28.7251 39.7345 28.5643 39.8358 28.4134C39.937 28.2605 40.0522 28.1195 40.1813 27.9904C40.3103 27.8594 40.4513 27.7442 40.6022 27.6429C40.7531 27.5397 40.914 27.4543 41.0827 27.3848C41.2515 27.3133 41.4242 27.2617 41.603 27.226C41.7817 27.1902 41.9623 27.1724 42.145 27.1724C42.3277 27.1724 42.5084 27.1902 42.6871 27.226C42.8658 27.2617 43.0405 27.3133 43.2093 27.3848C43.3781 27.4543 43.5369 27.5397 43.6898 27.6429C43.8407 27.7442 43.9817 27.8594 44.1088 27.9904C44.2378 28.1195 44.353 28.2605 44.4542 28.4134C44.5555 28.5643 44.6429 28.7251 44.7124 28.8958C44.7819 29.0646 44.8335 29.2394 44.8692 29.42C44.905 29.5987 44.9228 29.7794 44.9228 29.9641Z" fill="#FBE4CE"/>
<path d="M43.3088 29.3051C43.2472 28.767 42.5265 28.5009 42.0499 28.7551C41.5734 29.0072 41.359 29.5969 41.3748 30.139C41.3848 30.4627 41.492 30.824 41.7799 30.969C42.0678 31.1159 42.5106 30.8459 42.4034 30.5401C42.1969 30.3753 41.9209 30.3018 41.6608 30.3356" stroke="#1A1614" stroke-width="0.277678" stroke-miterlimit="10"/>
<path d="M28.751 53.6045L29.6902 45.541C29.0091 43.9446 28.9515 42.1477 29.5254 40.5115L30.6492 37.3068L32.8631 37.2751C32.8631 37.2751 32.2933 38.8774 34.529 39.8841C36.7668 40.8908 38.0852 36.9673 38.0852 36.9673L41.3733 37.5808C41.3733 37.5808 40.2554 43.9228 42.3403 45.4398L40.7459 48.9304L41.3852 55.3299C41.3852 55.3299 36.6377 56.8827 33.5045 56.8787C30.3692 56.8767 28.751 53.6045 28.751 53.6045Z" fill="#E5D9E1"/>
<path d="M32.5812 37.6045L32.742 37.1836C32.742 37.1836 34.3602 38.6231 35.8772 37.7475C37.3942 36.8738 37.7079 36.6435 37.7079 36.6435C37.7079 36.6435 38.109 36.576 38.2738 36.852C38.4386 37.128 38.0355 37.7455 38.2341 38.3054C38.4327 38.8654 37.9065 40.3605 36.3736 40.7259C34.8407 41.0872 32.6765 40.1322 32.7062 39.6973C32.734 39.2605 32.8869 38.8515 32.6129 38.1287C32.3369 37.406 32.5812 37.6045 32.5812 37.6045Z" fill="#DC4674"/>
<path d="M35.4539 19.1251C35.4539 19.1251 36.1766 24.7045 39.012 25.9475C41.8494 27.1885 39.3615 36.3123 39.3675 40.335C39.3754 44.3558 42.6556 47.632 42.6556 47.632C42.6556 47.632 40.7216 43.6649 42.1453 40.5376C43.567 37.4123 43.8191 35.4267 43.563 32.3669C43.3088 29.3071 45.5089 26.9264 44.5637 23.6363C43.6186 20.3462 42.1413 14.2505 31.8461 15.4696C21.5489 16.6868 21.6005 27.5777 22.0333 32.3669C22.4682 37.1541 25.4049 40.6646 23.6099 43.7185C21.8169 46.7703 24.702 52.3974 24.702 52.3974C24.702 52.3974 24.0269 49.5223 26.3957 45.4777C28.7645 41.4331 29.2509 37.8987 28.7942 34.8509C28.3396 31.805 26.219 30.1629 28.7942 26.5353C31.3715 22.9076 34.8066 24.4881 35.4539 19.1251Z" fill="#201812"/>
<path d="M38.1561 52.0557C37.3143 52.296 36.3711 53.2153 36.5379 53.4377C36.7047 53.6601 37.2547 54.5754 37.5664 54.6866C37.8802 54.7978 39.4051 54.1604 39.832 54.2835C40.2569 54.4027 41.5058 54.0075 41.5058 54.0075L40.658 51.7102C40.658 51.7102 39.7883 51.3449 39.552 51.059C39.3137 50.771 39.0298 51.4878 39.6056 51.7539C40.3502 52.0974 39 51.8155 38.1561 52.0557Z" fill="#FBE4CE"/>
<path d="M46.5514 45.4756L40.6602 51.9506L41.8455 54.5159L48.257 48.7578C48.259 48.7558 50.0718 47.5108 46.5514 45.4756Z" fill="#DC4674"/>
<mask id="mask1_1015_55161" style="mask-type:luminance" maskUnits="userSpaceOnUse" x="11" y="19" width="13" height="14">
<path d="M11.1426 19.8813H23.5842V32.0808H11.1426V19.8813Z" fill="white"/>
</mask>
<g mask="url(#mask1_1015_55161)">
<path d="M23.0998 21.6984C22.1447 21.0074 21.1241 20.3402 19.9665 20.1337C18.384 19.8498 16.7102 20.5031 15.5903 21.6606C13.845 23.4636 13.295 26.3685 11.1406 27.6452C11.8177 28.6042 12.5027 29.5732 13.3903 30.3416C14.2759 31.11 15.3957 31.668 16.5672 31.6501C18.0584 31.6283 19.3927 30.6871 20.3895 29.5692C22.3055 27.4188 23.3063 24.4683 23.0958 21.5872L23.0998 21.6984Z" fill="#DC4674"/>
</g>
<mask id="mask2_1015_55161" style="mask-type:luminance" maskUnits="userSpaceOnUse" x="21" y="8" width="13" height="13">
<path d="M21.5508 8.57153H33.7502V20.898H21.5508V8.57153Z" fill="white"/>
</mask>
<g mask="url(#mask2_1015_55161)">
<path d="M23.4827 20.5386C22.8036 19.5736 22.1483 18.5411 21.9538 17.3756C21.6857 15.7832 22.3489 14.1053 23.5105 12.9894C25.3193 11.2521 28.2143 10.7259 29.5049 8.57153C30.454 9.26053 31.4111 9.95945 32.1676 10.8569C32.9241 11.7544 33.4681 12.8842 33.4403 14.0597C33.4046 15.5608 32.4555 16.8931 31.3356 17.8839C29.1773 19.792 26.2347 20.7709 23.3695 20.5327L23.4827 20.5386Z" fill="#DC4674"/>
</g>
<path d="M20.3279 21.035C20.2862 20.4473 20.731 19.9509 21.146 19.5339C21.3247 19.3533 21.5074 19.1686 21.7397 19.0634C22.1169 18.8886 22.5736 18.9542 22.935 19.1607C23.2964 19.3672 23.5743 19.6948 23.7967 20.0462C24.0449 20.4334 24.2415 20.8861 24.178 21.3428C24.1144 21.7995 23.7054 22.2284 23.2507 22.1708L20.3279 21.035Z" fill="#DC4674"/>
<path d="M20.5502 20.6099C21.2948 21.0407 22.0414 21.4736 22.788 21.9084C22.8495 21.9442 22.9051 21.8469 22.8436 21.8111C22.099 21.3783 21.3524 20.9454 20.6058 20.5126C20.5443 20.4748 20.4887 20.5741 20.5502 20.6099Z" fill="#E5D9E1"/>
<path d="M21.2789 21.0926C20.0558 21.1184 18.9915 21.853 17.9769 22.4626C17.7088 22.6234 17.4348 22.7783 17.1727 22.9511C16.9702 23.0841 16.7716 23.235 16.6326 23.4375C16.5135 23.6162 16.3924 23.928 16.5949 24.0908C16.8114 24.2635 17.1271 24.2139 17.3693 24.1345C17.6969 24.0292 18.0166 23.8823 18.3263 23.7334C18.644 23.5785 18.9538 23.4077 19.2556 23.2231C19.3172 23.1854 19.2616 23.0881 19.2 23.1258C18.7056 23.4316 18.1834 23.6957 17.6453 23.9121C17.3971 24.0133 17.1052 24.1444 16.8312 24.0769C16.7716 24.063 16.7061 24.0392 16.6585 23.9975C16.5969 23.9458 16.5929 23.8724 16.6068 23.7969C16.6247 23.6877 16.6704 23.5864 16.7319 23.4951C16.863 23.3005 17.0595 23.1576 17.2561 23.0325C17.4984 22.8756 17.7525 22.7307 17.9987 22.5817C18.4951 22.2859 18.9836 21.9761 19.4998 21.716C20.0558 21.438 20.6534 21.2196 21.2809 21.2077C21.3524 21.2018 21.3524 21.0906 21.2789 21.0926Z" fill="#E5D9E1"/>
<path d="M21.8949 21.5274C21.7182 21.3368 21.5217 21.6803 21.4502 21.8014C21.2973 22.0575 21.1424 22.3137 20.9895 22.5698C20.6837 23.0821 20.376 23.5944 20.0702 24.1047C20.0325 24.1682 20.1278 24.2238 20.1655 24.1622C20.4395 23.7056 20.7115 23.2489 20.9855 22.7942C21.1206 22.5698 21.2536 22.3454 21.3886 22.1211C21.4283 22.0516 21.7103 21.4936 21.8155 21.6068C21.8652 21.6604 21.9446 21.581 21.8949 21.5274Z" fill="#E5D9E1"/>
<path d="M23.9955 20.0976C23.5725 19.7204 23.3521 19.1823 23.1992 18.6462C23.0305 18.0624 22.8875 17.4469 22.9252 16.8373C22.963 16.2575 23.2072 15.7194 23.6659 15.3581C23.8724 15.1933 24.1146 15.0721 24.3687 15.0066C24.4919 14.9729 24.6725 14.9192 24.7857 15.0046C24.8929 15.084 24.9088 15.2369 24.881 15.3581C24.8393 15.5368 24.7281 15.7016 24.6408 15.8624C24.5494 16.0332 24.4561 16.2039 24.3648 16.3767C24.1781 16.7222 23.9935 17.0676 23.8068 17.4131C23.7711 17.4787 23.8684 17.5343 23.9021 17.4707C24.0828 17.1371 24.2635 16.8036 24.4422 16.47C24.5316 16.3012 24.6209 16.1364 24.7103 15.9676C24.7937 15.8128 24.889 15.6579 24.9545 15.4951C25.0061 15.36 25.026 15.2131 24.9724 15.0781C24.9247 14.959 24.8294 14.8716 24.7003 14.8557C24.5613 14.8359 24.4104 14.8775 24.2774 14.9153C24.1404 14.955 24.0074 15.0126 23.8823 15.0801C23.372 15.36 23.0047 15.8465 22.8736 16.4164C22.7227 17.0716 22.8518 17.7566 23.0146 18.396C23.1794 19.0433 23.4038 19.7224 23.916 20.179C23.9696 20.2247 24.0491 20.1453 23.9955 20.0976Z" fill="#E5D9E1"/>
<path d="M23.6717 19.9928C24.1442 18.8709 24.9067 17.9099 25.7386 17.0363C26.5825 16.1527 27.4999 15.3406 28.3398 14.453C28.4549 14.3319 28.5701 14.2088 28.6813 14.0837C28.7944 13.9566 28.9116 13.8335 29.0089 13.6945C29.1757 13.4642 29.3325 13.1108 29.1002 12.8705C29.0506 12.8189 28.9712 12.8963 29.0208 12.9499C29.2333 13.1703 29.0129 13.5218 28.858 13.7084C28.6694 13.9388 28.4648 14.1572 28.2603 14.3736C27.8473 14.8104 27.4165 15.2294 26.9836 15.6464C26.1358 16.4644 25.278 17.2864 24.5691 18.2336C24.176 18.7617 23.8325 19.3296 23.5744 19.9392C23.5466 20.0027 23.6419 20.0583 23.6717 19.9928Z" fill="#E5D9E1"/>
<path d="M33.1826 15.3483C33.1826 15.3483 42.4136 16.2319 42.4672 23.1715C42.5208 30.1111 41.5935 32.1185 41.5935 32.1185C41.5935 32.1185 50.2149 14.5501 33.3474 14.8122" fill="#DC4674"/>
</g>
<rect x="0.5" y="0.5" width="59" height="59" rx="29.5" stroke="#DBB7EA"/>
<defs>
<clipPath id="clip0_1015_55161">
<rect width="60" height="60" rx="30" fill="white"/>
</clipPath>
</defs>
</svg>
