<svg width="22" height="20" viewBox="0 0 22 20" fill="none" xmlns="http://www.w3.org/2000/svg">
<path d="M19 6C18.7167 6 18.4792 5.90417 18.2875 5.7125C18.0958 5.52083 18 5.28333 18 5V4H17C16.7167 4 16.4792 3.90417 16.2875 3.7125C16.0958 3.52083 16 3.28333 16 3C16 2.71667 16.0958 2.47917 16.2875 2.2875C16.4792 2.09583 16.7167 2 17 2H18V1C18 0.716667 18.0958 0.479167 18.2875 0.2875C18.4792 0.0958333 18.7167 0 19 0C19.2833 0 19.5208 0.0958333 19.7125 0.2875C19.9042 0.479167 20 0.716667 20 1V2H21C21.2833 2 21.5208 2.09583 21.7125 2.2875C21.9042 2.47917 22 2.71667 22 3C22 3.28333 21.9042 3.52083 21.7125 3.7125C21.5208 3.90417 21.2833 4 21 4H20V5C20 5.28333 19.9042 5.52083 19.7125 5.7125C19.5208 5.90417 19.2833 6 19 6ZM10 16.5C11.25 16.5 12.3125 16.0625 13.1875 15.1875C14.0625 14.3125 14.5 13.25 14.5 12C14.5 10.75 14.0625 9.6875 13.1875 8.8125C12.3125 7.9375 11.25 7.5 10 7.5C8.75 7.5 7.6875 7.9375 6.8125 8.8125C5.9375 9.6875 5.5 10.75 5.5 12C5.5 13.25 5.9375 14.3125 6.8125 15.1875C7.6875 16.0625 8.75 16.5 10 16.5ZM10 14.5C9.3 14.5 8.70833 14.2583 8.225 13.775C7.74167 13.2917 7.5 12.7 7.5 12C7.5 11.3 7.74167 10.7083 8.225 10.225C8.70833 9.74167 9.3 9.5 10 9.5C10.7 9.5 11.2917 9.74167 11.775 10.225C12.2583 10.7083 12.5 11.3 12.5 12C12.5 12.7 12.2583 13.2917 11.775 13.775C11.2917 14.2583 10.7 14.5 10 14.5ZM2 20C1.45 20 0.979167 19.8042 0.5875 19.4125C0.195833 19.0208 0 18.55 0 18V6C0 5.45 0.195833 4.97917 0.5875 4.5875C0.979167 4.19583 1.45 4 2 4H5.15L6.4 2.65C6.58333 2.45 6.80417 2.29167 7.0625 2.175C7.32083 2.05833 7.59167 2 7.875 2H13C13.2833 2 13.5208 2.09583 13.7125 2.2875C13.9042 2.47917 14 2.71667 14 3V4.5C14 4.91667 14.1458 5.27083 14.4375 5.5625C14.7292 5.85417 15.0833 6 15.5 6H16V6.5C16 6.91667 16.1458 7.27083 16.4375 7.5625C16.7292 7.85417 17.0833 8 17.5 8H19C19.2833 8 19.5208 8.09583 19.7125 8.2875C19.9042 8.47917 20 8.71667 20 9V18C20 18.55 19.8042 19.0208 19.4125 19.4125C19.0208 19.8042 18.55 20 18 20H2Z" fill="white"/>
</svg>
