<svg width="57" height="57" viewBox="0 0 57 57" fill="none" xmlns="http://www.w3.org/2000/svg">
<g filter="url(#filter0_d_955_29465)">
<circle cx="26.0096" cy="26.0096" r="23.6201" fill="#FFA12F" stroke="#FF750D" stroke-width="2.77884"/>
<g filter="url(#filter1_f_955_29465)">
<ellipse cx="15.1555" cy="13.1839" rx="7.89471" ry="2.77884" transform="rotate(-35.2607 15.1555 13.1839)" fill="white"/>
</g>
<path d="M18.8638 9.03882C16.5395 9.92057 11.3206 13.1201 9.03857 18.864" stroke="white" stroke-opacity="0.7" stroke-width="2.6796" stroke-linecap="round"/>
<circle cx="7.69869" cy="21.9903" r="1.3398" fill="white" fill-opacity="0.7"/>
<g filter="url(#filter2_di_955_29465)">
<path d="M18.9151 15C19.4205 15 19.8302 15.3905 19.8302 15.8721V18.0233L21.9297 17.6231C23.9436 17.2393 26.0312 17.4219 27.9381 18.1488L28.1866 18.2435C30.0914 18.9696 32.188 19.1052 34.1783 18.631C35.1023 18.4109 35.9973 19.0769 35.9973 19.9845V28.5508C35.9973 29.3 35.4623 29.953 34.6996 30.1348L34.438 30.1971C32.2788 30.7115 30.0045 30.5644 27.9381 29.7767C26.0312 29.0498 23.9436 28.8672 21.9297 29.251L19.8302 29.6512V39.1279C19.8302 39.6095 19.4205 40 18.9151 40C18.4097 40 18 39.6095 18 39.1279V15.8721C18 15.3905 18.4097 15 18.9151 15Z" fill="white"/>
</g>
</g>
<defs>
<filter id="filter0_d_955_29465" x="0.900755" y="0.900755" width="55.5767" height="55.5768" filterUnits="userSpaceOnUse" color-interpolation-filters="sRGB">
<feFlood flood-opacity="0" result="BackgroundImageFix"/>
<feColorMatrix in="SourceAlpha" type="matrix" values="0 0 0 0 0 0 0 0 0 0 0 0 0 0 0 0 0 0 127 0" result="hardAlpha"/>
<feOffset dx="2.6796" dy="2.6796"/>
<feGaussianBlur stdDeviation="1.38942"/>
<feComposite in2="hardAlpha" operator="out"/>
<feColorMatrix type="matrix" values="0 0 0 0 1 0 0 0 0 1 0 0 0 0 1 0 0 0 0.1 0"/>
<feBlend mode="normal" in2="BackgroundImageFix" result="effect1_dropShadow_955_29465"/>
<feBlend mode="normal" in="SourceGraphic" in2="effect1_dropShadow_955_29465" result="shape"/>
</filter>
<filter id="filter1_f_955_29465" x="2.95355" y="2.53399" width="24.4039" height="21.2999" filterUnits="userSpaceOnUse" color-interpolation-filters="sRGB">
<feFlood flood-opacity="0" result="BackgroundImageFix"/>
<feBlend mode="normal" in="SourceGraphic" in2="BackgroundImageFix" result="shape"/>
<feGaussianBlur stdDeviation="2.77884" result="effect1_foregroundBlur_955_29465"/>
</filter>
<filter id="filter2_di_955_29465" x="16" y="11" width="21.9976" height="32" filterUnits="userSpaceOnUse" color-interpolation-filters="sRGB">
<feFlood flood-opacity="0" result="BackgroundImageFix"/>
<feColorMatrix in="SourceAlpha" type="matrix" values="0 0 0 0 0 0 0 0 0 0 0 0 0 0 0 0 0 0 127 0" result="hardAlpha"/>
<feOffset dy="1"/>
<feGaussianBlur stdDeviation="1"/>
<feComposite in2="hardAlpha" operator="out"/>
<feColorMatrix type="matrix" values="0 0 0 0 0 0 0 0 0 0 0 0 0 0 0 0 0 0 0.35 0"/>
<feBlend mode="normal" in2="BackgroundImageFix" result="effect1_dropShadow_955_29465"/>
<feBlend mode="normal" in="SourceGraphic" in2="effect1_dropShadow_955_29465" result="shape"/>
<feColorMatrix in="SourceAlpha" type="matrix" values="0 0 0 0 0 0 0 0 0 0 0 0 0 0 0 0 0 0 127 0" result="hardAlpha"/>
<feOffset dy="-5"/>
<feGaussianBlur stdDeviation="2"/>
<feComposite in2="hardAlpha" operator="arithmetic" k2="-1" k3="1"/>
<feColorMatrix type="matrix" values="0 0 0 0 1 0 0 0 0 0.981667 0 0 0 0 0.78 0 0 0 1 0"/>
<feBlend mode="normal" in2="shape" result="effect2_innerShadow_955_29465"/>
</filter>
</defs>
</svg>
