<svg width="21" height="21" viewBox="0 0 21 21" fill="none" xmlns="http://www.w3.org/2000/svg">
<g filter="url(#filter0_d_99_4710)">
<path fill-rule="evenodd" clip-rule="evenodd" d="M15.9713 3.9196C16.5961 3.29476 16.5961 2.28169 15.9713 1.65685C15.3465 1.03202 14.3334 1.03202 13.7086 1.65686L10.3145 4.29672L6.92034 1.65685C6.2955 1.03201 5.28244 1.03201 4.6576 1.65685C4.03276 2.28169 4.03276 3.29476 4.6576 3.9196L7.29746 7.31371L4.6576 10.7078C4.03276 11.3327 4.03276 12.3457 4.6576 12.9706C5.28244 13.5954 6.2955 13.5954 6.92034 12.9706L10.3145 10.3307L13.7086 12.9706C14.3334 13.5954 15.3465 13.5954 15.9713 12.9706C16.5961 12.3457 16.5961 11.3327 15.9713 10.7078L13.3314 7.31371L15.9713 3.9196Z" fill="url(#paint0_linear_99_4710)"/>
</g>
<defs>
<filter id="filter0_d_99_4710" x="0.189453" y="0.188232" width="20.25" height="20.251" filterUnits="userSpaceOnUse" color-interpolation-filters="sRGB">
<feFlood flood-opacity="0" result="BackgroundImageFix"/>
<feColorMatrix in="SourceAlpha" type="matrix" values="0 0 0 0 0 0 0 0 0 0 0 0 0 0 0 0 0 0 127 0" result="hardAlpha"/>
<feOffset dy="3"/>
<feGaussianBlur stdDeviation="2"/>
<feComposite in2="hardAlpha" operator="out"/>
<feColorMatrix type="matrix" values="0 0 0 0 0 0 0 0 0 0 0 0 0 0 0 0 0 0 0.41 0"/>
<feBlend mode="normal" in2="BackgroundImageFix" result="effect1_dropShadow_99_4710"/>
<feBlend mode="normal" in="SourceGraphic" in2="effect1_dropShadow_99_4710" result="shape"/>
</filter>
<linearGradient id="paint0_linear_99_4710" x1="15.9713" y1="1.65685" x2="4.6576" y2="12.9706" gradientUnits="userSpaceOnUse">
<stop stop-color="#FEFDF7"/>
<stop offset="1" stop-color="#FFE2C9"/>
</linearGradient>
</defs>
</svg>
