<svg width="132" height="170" viewBox="0 0 132 170" fill="none" xmlns="http://www.w3.org/2000/svg">
<g clip-path="url(#clip0_1015_67903)">
<mask id="mask0_1015_67903" style="mask-type:luminance" maskUnits="userSpaceOnUse" x="0" y="12" width="133" height="158">
<path d="M0 12.5146H132.051V170H0V12.5146Z" fill="white"/>
</mask>
<g mask="url(#mask0_1015_67903)">
<path d="M109.834 20.4812V12.9365H21.9668V20.4812C21.9668 24.2997 19.4711 27.6788 15.8014 28.8279C6.3953 31.7719 0 40.4328 0 50.2229V142.517C0 151.062 4.95177 158.459 12.1606 162.036C14.968 163.427 31.0016 169.763 66.5814 169.763C100.844 169.763 116.517 163.541 119.411 162.148C126.745 158.615 131.801 151.152 131.801 142.517V50.2229C131.801 40.4328 125.406 31.7719 116 28.8279C112.33 27.6788 109.834 24.2997 109.834 20.4812Z" fill="#CECECE"/>
</g>
<path d="M109.783 12.9365H21.916V19.0202C28.6672 20.1693 45.7906 20.9866 65.8497 20.9866C85.9088 20.9866 103.032 20.1693 109.783 19.0202V12.9365Z" fill="#B7B7B7"/>
<path d="M10.4188 71.4307C9.47046 71.4307 8.70117 70.6661 8.70117 69.7258V49.1085C8.70117 44.6112 11.2721 40.6608 16.1377 37.6838C19.6304 35.5483 23.09 34.6563 23.2337 34.6189C24.1533 34.386 25.0884 34.9353 25.325 35.8471C25.5593 36.7589 25.0066 37.6882 24.087 37.9211C24.0362 37.9365 20.917 38.7516 17.8752 40.6279C14.0663 42.9787 12.1365 45.8305 12.1365 49.1085V69.7258C12.1365 70.6661 11.3672 71.4307 10.4188 71.4307Z" fill="#E2E2E2"/>
<path d="M10.4188 142.899C9.47046 142.899 8.70117 142.137 8.70117 141.194V130.816C8.70117 129.873 9.47046 129.108 10.4188 129.108C11.3672 129.108 12.1365 129.873 12.1365 130.816V141.194C12.1365 142.137 11.3672 142.899 10.4188 142.899Z" fill="#E2E2E2"/>
<path d="M93.2482 31.572C93.1421 31.572 93.0515 31.4885 93.047 31.3808C93.0426 31.271 93.1266 31.1765 93.2394 31.1721C100.831 30.8008 107.637 30.1153 113.466 29.1354C113.575 29.1179 113.681 29.1904 113.699 29.298C113.716 29.4079 113.643 29.5111 113.533 29.5287C107.688 30.513 100.868 31.1985 93.2593 31.5698C93.2548 31.572 93.2504 31.572 93.2482 31.572Z" fill="#939393"/>
<path d="M18.8364 3.05371V12.4264C18.8364 14.1159 39.8837 15.4847 65.8495 15.4847C91.8131 15.4847 112.863 14.1159 112.863 12.4264V3.05371H18.8364Z" fill="#CECECE"/>
<mask id="mask1_1015_67903" style="mask-type:luminance" maskUnits="userSpaceOnUse" x="18" y="-1" width="96" height="8">
<path d="M18.8164 -0.050293H113.324V6.32778H18.8164V-0.050293Z" fill="white"/>
</mask>
<g mask="url(#mask1_1015_67903)">
<path d="M112.863 3.05392C112.863 3.15279 112.787 3.25385 112.637 3.35272C112.485 3.45159 112.259 3.55045 111.958 3.64932C111.658 3.74819 111.284 3.84486 110.838 3.94153C110.391 4.03601 109.874 4.13048 109.284 4.22276C108.696 4.31503 108.037 4.40511 107.312 4.49519C106.584 4.58307 105.795 4.66876 104.94 4.75225C104.084 4.83574 103.167 4.91483 102.192 4.99173C101.215 5.07082 100.182 5.14333 99.0927 5.21363C98.0028 5.28613 96.8644 5.35205 95.675 5.41576C94.4835 5.47948 93.2478 5.5388 91.9678 5.59592C90.6879 5.65085 89.3682 5.70138 88.0109 5.74971C86.6535 5.79585 85.2631 5.83979 83.8394 5.87714C82.418 5.91669 80.9701 5.94965 79.4956 5.97821C78.0233 6.00677 76.5312 6.03094 75.0213 6.05071C73.5115 6.07049 71.9906 6.08587 70.4564 6.09465C68.9244 6.10564 67.3881 6.11003 65.8495 6.11003C64.3087 6.11003 62.7723 6.10564 61.2404 6.09465C59.7084 6.08587 58.1875 6.07049 56.6777 6.05071C55.1678 6.03094 53.6757 6.00677 52.2012 5.97821C50.7289 5.94965 49.281 5.91669 47.8573 5.87714C46.4359 5.83979 45.0454 5.79585 43.6859 5.74971C42.3286 5.70138 41.0089 5.65085 39.7289 5.59592C38.449 5.5388 37.2132 5.47948 36.0239 5.41576C34.8346 5.35205 33.6939 5.28613 32.6063 5.21363C31.5165 5.14333 30.4841 5.07082 29.507 4.99173C28.53 4.91483 27.6148 4.83574 26.7593 4.75225C25.9037 4.66876 25.1123 4.58307 24.3873 4.49519C23.66 4.40511 23.0034 4.31503 22.4132 4.22276C21.8252 4.13048 21.3079 4.03601 20.8591 3.94153C20.4126 3.84486 20.039 3.74819 19.7384 3.64932C19.4377 3.55045 19.2122 3.45159 19.0619 3.35272C18.9116 3.25385 18.8364 3.15279 18.8364 3.05392C18.8364 2.95285 18.9116 2.85399 19.0619 2.75292C19.2122 2.65405 19.4377 2.55518 19.7384 2.45632C20.039 2.35965 20.4126 2.26078 20.8591 2.1663C21.3079 2.06963 21.8252 1.97516 22.4132 1.88288C23.0034 1.79061 23.66 1.70053 24.3873 1.61264C25.1123 1.52476 25.9037 1.43908 26.7593 1.35559C27.6148 1.2721 28.53 1.19081 29.507 1.11391C30.4841 1.03701 31.5165 0.962313 32.6063 0.892007C33.6939 0.821701 34.8346 0.753593 36.0239 0.689878C37.2132 0.626163 38.449 0.566842 39.7289 0.511915C41.0089 0.456989 42.3286 0.404259 43.6859 0.358121C45.0454 0.309785 46.4359 0.268041 47.8573 0.228494C49.281 0.191144 50.7289 0.155992 52.2012 0.127429C53.6757 0.0988676 55.1678 0.0746996 56.6777 0.0549262C58.1875 0.0351528 59.7084 0.0219701 61.2404 0.0109849C62.7723 0.00219666 64.3087 -0.00439453 65.8495 -0.00439453C67.3881 -0.00439453 68.9244 0.00219666 70.4564 0.0109849C71.9906 0.0219701 73.5115 0.0351528 75.0213 0.0549262C76.5312 0.0746996 78.0233 0.0988676 79.4956 0.127429C80.9701 0.155992 82.418 0.191144 83.8394 0.228494C85.2631 0.268041 86.6535 0.309785 88.0109 0.358121C89.3682 0.404259 90.6879 0.456989 91.9678 0.511915C93.2478 0.566842 94.4835 0.626163 95.675 0.689878C96.8644 0.753593 98.0028 0.821701 99.0927 0.892007C100.182 0.962313 101.215 1.03701 102.192 1.11391C103.167 1.19081 104.084 1.2721 104.94 1.35559C105.795 1.43908 106.584 1.52476 107.312 1.61264C108.037 1.70053 108.696 1.79061 109.284 1.88288C109.874 1.97516 110.391 2.06963 110.838 2.1663C111.284 2.26078 111.658 2.35965 111.958 2.45632C112.259 2.55518 112.485 2.65405 112.637 2.75292C112.787 2.85399 112.863 2.95285 112.863 3.05392Z" fill="#A5A5A5"/>
</g>
<path d="M65.8497 15.6847C53.2868 15.6847 41.4755 15.3662 32.5933 14.7883C28.2694 14.5071 24.8739 14.1798 22.4997 13.815C19.0931 13.2921 18.6333 12.8198 18.6333 12.4265C18.6333 12.3166 18.7239 12.2266 18.8367 12.2266C18.9472 12.2266 19.0378 12.3166 19.0378 12.4265C19.0378 12.4331 19.0776 12.8835 22.5616 13.4196C24.9225 13.7821 28.3069 14.1094 32.6198 14.3885C41.4932 14.9663 53.2957 15.2849 65.8497 15.2849C78.4038 15.2849 90.204 14.9663 99.0796 14.3885C103.393 14.1094 106.775 13.7821 109.138 13.4196C112.622 12.8835 112.662 12.4331 112.662 12.4265C112.662 12.3166 112.752 12.2266 112.863 12.2266C112.973 12.2266 113.064 12.3166 113.064 12.4265C113.064 12.8198 112.604 13.2921 109.2 13.815C106.826 14.1798 103.43 14.5071 99.1062 14.7883C90.2217 15.3662 78.4104 15.6847 65.8497 15.6847Z" fill="#939393"/>
<path d="M98.4896 11.2424C98.3857 11.2424 98.2973 11.1611 98.2885 11.0535C98.2818 10.9436 98.3658 10.8492 98.4786 10.8426C102.968 10.5613 106.499 10.2296 108.97 9.86048C112.62 9.31341 112.662 8.84544 112.662 8.84105C112.662 8.73119 112.752 8.64111 112.863 8.64111C112.974 8.64111 113.064 8.73119 113.064 8.84105C113.064 9.24091 112.584 9.72207 109.03 10.256C106.547 10.6273 103.006 10.959 98.5029 11.2402C98.4985 11.2424 98.494 11.2424 98.4896 11.2424Z" fill="#939393"/>
<path d="M65.85 12.0994C53.9348 12.0994 42.5678 11.8094 33.8426 11.2821C33.732 11.2755 33.648 11.1788 33.6547 11.069C33.6613 10.9591 33.7564 10.8756 33.8691 10.8822C42.5833 11.4095 53.9414 11.6995 65.85 11.6995C75.013 11.6995 83.8908 11.5281 91.5262 11.203C91.639 11.1986 91.7318 11.2843 91.7363 11.3941C91.7407 11.504 91.6545 11.5984 91.5439 11.6028C83.9041 11.9258 75.0174 12.0994 65.85 12.0994Z" fill="#939393"/>
<path d="M27.2547 10.7876C27.2481 10.7876 27.2414 10.7876 27.237 10.7876C24.5401 10.535 22.4466 10.2603 21.0141 9.96814C18.9163 9.54191 18.6333 9.15962 18.6333 8.84105C18.6333 8.73119 18.7239 8.64111 18.8367 8.64111C18.9472 8.64111 19.0378 8.73119 19.0378 8.84105C19.0378 8.84544 19.0599 9.16182 21.0959 9.57706C22.5129 9.86488 24.5931 10.1395 27.2746 10.3878C27.3851 10.3988 27.4669 10.4954 27.4558 10.6075C27.4448 10.7107 27.3586 10.7876 27.2547 10.7876Z" fill="#939393"/>
<path d="M51.6819 6.16937C51.6797 6.16937 51.6797 6.16937 51.6775 6.16937C42.2139 5.97383 34.0612 5.59594 28.1013 5.07743C25.1369 4.81818 22.8335 4.53256 21.2529 4.22717C18.945 3.78116 18.6333 3.3835 18.6333 3.05394C18.6333 2.94189 18.7239 2.854 18.8367 2.854C18.9472 2.854 19.0378 2.94189 19.0378 3.05394C19.0378 3.05613 19.0644 3.39668 21.328 3.83389C22.8976 4.13709 25.1878 4.42051 28.1367 4.67757C34.0015 5.18948 42.3664 5.57836 51.6864 5.76951C51.7969 5.7717 51.8853 5.86178 51.8831 5.97383C51.8809 6.08149 51.7903 6.16937 51.6819 6.16937Z" fill="#939393"/>
<path d="M99.6234 5.38063C99.5173 5.38063 99.4289 5.29934 99.4222 5.19388C99.4156 5.08402 99.4996 4.98735 99.6101 4.98076C103.764 4.70173 107.018 4.37877 109.286 4.02284C112.622 3.49774 112.662 3.05833 112.662 3.05394C112.662 2.94189 112.752 2.854 112.863 2.854C112.973 2.854 113.064 2.94189 113.064 3.05394C113.064 3.43842 112.622 3.902 109.348 4.41831C107.069 4.77643 103.801 5.0994 99.6367 5.37843C99.6323 5.38063 99.6278 5.38063 99.6234 5.38063Z" fill="#939393"/>
<path d="M124 134.081C114.37 103.09 104.845 72.0539 94.9313 41.1505C94.8513 40.8987 94.4695 41.0057 94.5434 41.2575C97.9053 52.3435 101.323 63.4168 104.765 74.4839C99.7586 72.035 94.8389 69.391 89.8084 67.0051C84.5993 64.5374 79.4703 61.843 76.3116 56.7313C76.2931 56.6998 76.2685 56.6935 76.2377 56.6935C76.9273 51.5314 77.7093 46.3818 78.6514 41.2638C78.7006 40.9994 78.3004 40.8861 78.2511 41.1505C77.3583 46.3378 76.601 51.5503 75.9237 56.769C75.9237 56.769 75.9114 56.769 75.9052 56.7753C68.4487 64.5437 59.9885 70.1968 49.9829 73.9236C49.164 72.1421 48.3512 70.3542 47.5569 68.5538C47.5076 68.4404 47.3106 68.5223 47.3599 68.6419C48.0926 70.606 48.893 72.545 49.7366 74.4776C44.2874 86.5393 35.9319 96.7188 25.4768 104.575C24.0298 104.279 22.5828 103.977 21.1297 103.681C36.6954 82.9384 52.1626 62.0948 67.6852 41.3079C67.8391 41.1064 67.5005 40.905 67.3527 41.1064C48.2342 66.7281 29.0172 92.2743 10.0281 117.997C9.91722 118.142 10.1635 118.286 10.2682 118.142C13.8517 113.389 17.4291 108.623 21.0004 103.864C22.3488 104.185 23.6973 104.5 25.0457 104.814C25.0457 104.833 25.0457 104.859 25.0457 104.884C28.7586 120.389 29.5775 135.957 28.5924 151.84C28.5924 151.859 28.5985 151.872 28.6108 151.878C28.5493 151.928 28.4938 151.979 28.4323 152.029C25.0088 150.713 21.5853 149.391 18.1619 148.069C19.2394 137.411 17.6385 125.538 12.0908 116.303C11.9984 116.146 11.7644 116.284 11.8506 116.448C17.0782 125.935 18.6914 137.254 18.0079 148.013C18.1619 148.069 68.8489 168 68.8489 168C75.9052 150.241 87.093 134.346 101.895 122.85C101.938 125.381 102.012 127.912 102.018 130.417C102.031 135.73 101.544 141.352 102.086 146.659C101.932 146.621 101.778 146.609 101.63 146.615C100.584 146.225 99.2414 147.37 98.9951 148.636C98.835 149.448 98.9336 150.518 99.2784 151.443C98.6195 150.946 97.8622 150.575 97.3511 150.052C97.2649 149.889 97.1787 149.712 97.1172 149.536C96.9016 148.944 96.8401 148.378 96.8893 147.836C96.9386 147.66 97.0002 147.471 97.0802 147.27C97.6405 145.86 98.718 144.519 99.4939 143.228C99.6355 142.995 99.2968 142.712 99.1121 142.926C98.3178 143.877 97.462 144.922 96.9571 146.08C96.3844 147.068 95.9842 148.094 96.1505 149.07C96.3598 150.304 97.4312 151.462 98.6319 151.966C98.8412 152.13 99.0505 152.281 99.2722 152.426C99.1183 152.426 98.9582 152.438 98.8043 152.457C98.7735 152.375 98.6873 152.3 98.5887 152.312C97.0309 152.564 95.1961 151.739 94.8205 150.033C94.4633 148.409 95.6332 146.741 96.4152 145.425C96.4953 145.293 96.3105 145.148 96.2059 145.262C94.7835 146.741 93.2996 148.862 94.4018 150.99C94.9375 152.029 95.9596 152.721 97.0494 152.866C95.8549 153.332 94.7959 154.144 94.2294 155.315C93.4659 156.876 93.7183 158.809 95.1591 159.822C95.3007 159.923 95.4485 159.709 95.3377 159.59C94.1185 158.324 94.1678 156.266 95.233 154.912C96.1012 153.804 97.345 153.364 98.6195 153.042C97.5728 153.685 96.7292 154.717 96.5014 155.907C96.0211 158.4 98.0223 160.49 99.7833 161.875C100.079 162.108 100.448 161.604 100.177 161.346C98.8227 160.03 97.0248 158.652 97.1048 156.511C97.1726 154.566 98.7057 153.798 100.085 152.929C100.11 152.942 100.128 152.954 100.153 152.967C100.202 153.005 100.251 153.049 100.313 153.08C99.8756 153.489 99.7833 154.302 100.048 154.874C98.9459 155.435 98.6934 157.153 100.103 158.035C100.448 158.249 100.848 157.739 100.541 157.455C100.762 157.336 100.984 157.216 101.199 157.097C101.199 157.122 101.199 157.153 101.199 157.178C101.199 157.55 101.741 157.632 101.84 157.267C101.975 156.75 101.951 156.366 101.827 156.089C101.827 155.938 101.735 155.844 101.624 155.806C101.532 155.718 101.421 155.649 101.304 155.598C101.323 155.561 101.335 155.529 101.353 155.491C101.526 155.548 101.686 155.435 101.754 155.284C102.061 155.12 102.222 154.906 102.277 154.673C103.97 156.454 103.853 158.891 102.665 161.239C102.628 161.314 102.708 161.428 102.788 161.365C105.399 159.357 104.395 155.516 102.068 153.76C102.068 153.729 102.055 153.691 102.037 153.659C103.305 154.308 104.549 155.044 105.202 156.404C106.021 158.116 105.442 159.476 105.011 161.138C104.955 161.352 105.214 161.497 105.368 161.352C106.55 160.188 106.526 158.016 105.947 156.549C105.3 154.9 103.841 153.703 102.135 153.408C102.111 153.408 102.086 153.408 102.061 153.42C102.061 153.389 102.055 153.357 102.043 153.332C102.111 153.319 102.172 153.313 102.24 153.288C102.314 153.263 102.376 153.231 102.443 153.2C104.02 153.792 106.095 153.735 107.252 152.381C108.422 151.022 108.065 148.856 107.277 147.402C107.227 147.307 107.067 147.345 107.074 147.459C107.141 148.812 107.665 150.424 106.901 151.67C106.236 152.759 105.146 152.904 104.032 152.872C104.765 152.551 105.399 151.991 105.75 151.211C106.643 149.246 105.559 147.276 104.494 145.677C104.358 145.469 104.063 145.646 104.167 145.872C104.814 147.27 105.67 148.951 105.257 150.543C104.986 151.582 104.266 152.111 103.416 152.432C104.549 150.94 104.334 148.132 102.911 147.062C102.708 146.911 102.505 146.804 102.314 146.735C102.874 141.409 102.382 135.756 102.388 130.417C102.388 127.748 102.48 125.054 102.523 122.353C107.006 118.941 111.802 115.919 116.925 113.376C119.111 120.326 121.297 127.276 123.477 134.232C123.581 134.56 124.08 134.421 123.982 134.087L124 134.081ZM99.4692 150.04C99.5 150.323 99.5739 150.6 99.6786 150.858C99.6601 150.99 99.6478 151.129 99.6355 151.261C99.5431 150.996 99.4693 150.726 99.4508 150.436C99.42 150.285 99.4138 150.121 99.42 149.945C99.4385 149.977 99.4508 150.008 99.4692 150.04ZM99.7217 152.407C99.6109 152.325 99.5 152.243 99.3892 152.161C99.4816 152.18 99.5739 152.186 99.6601 152.193C99.6848 152.237 99.7094 152.281 99.7402 152.325C99.7463 152.35 99.7586 152.375 99.771 152.407C99.7525 152.407 99.734 152.407 99.7217 152.407ZM103.669 149.687C103.687 149.914 103.681 150.147 103.65 150.373C103.638 150.298 103.625 150.222 103.607 150.147C103.638 149.996 103.662 149.844 103.662 149.687H103.669ZM102.819 152.079C102.924 152.054 103.022 152.016 103.102 151.972C103.004 152.06 102.893 152.142 102.763 152.205C102.782 152.167 102.8 152.123 102.819 152.079ZM116.112 110.694C113.299 111.11 110.472 111.481 107.652 111.84C107.702 111.802 107.732 111.739 107.702 111.664C102.702 100.527 101.76 87.9998 105.337 76.2969C108.908 87.7669 112.51 99.2306 116.112 110.694ZM105.029 75.3149C105.06 75.4219 105.097 75.5289 105.128 75.6359C101.44 87.534 102.154 100.534 107.468 111.808C107.48 111.84 107.505 111.853 107.529 111.859C105.042 112.174 102.548 112.463 100.054 112.734C100.067 112.715 100.073 112.69 100.054 112.658C96.0273 105.859 93.0718 98.5255 91.0153 90.8705C93.4659 88.2076 95.9042 85.5321 98.3301 82.844C96.797 92.8598 97.9361 103.184 102.222 112.369C102.289 112.514 102.492 112.388 102.431 112.243C98.3055 102.831 97.1972 92.7527 98.6811 82.5922C98.6873 82.5481 98.6811 82.5103 98.6565 82.4789C100.799 80.1056 102.924 77.7197 105.029 75.3149ZM95.8241 113.055C92.4314 106.338 90.0239 99.6964 90.0793 92.0414C90.0793 92.0414 90.0917 92.0414 90.0917 92.0351C90.1963 91.9721 90.2086 91.8714 90.1655 91.7833C90.3872 91.544 90.615 91.2985 90.8367 91.0593C92.8748 98.7206 95.7133 106.042 99.9187 112.74C99.9187 112.74 99.9249 112.74 99.9249 112.746C98.5518 112.891 97.1787 113.03 95.8056 113.162C95.8303 113.137 95.8487 113.099 95.8241 113.055ZM49.5088 133.382C55.974 134.9 61.0784 137.814 65.487 142.869C65.1668 145.633 64.8159 148.397 64.4711 151.166C59.5206 144.38 52.2118 139.64 43.998 138.299C45.8575 136.58 47.7108 134.855 49.5642 133.131C49.6073 133.118 49.6381 133.093 49.6566 133.042C51.2636 131.544 52.8768 130.052 54.4839 128.548C59.0834 130.65 62.9133 133.578 66.0781 137.588C65.9734 138.551 65.8688 139.514 65.7641 140.477C65.7025 141.044 65.6348 141.61 65.5732 142.171C61.7618 137.235 55.6661 133.697 49.5396 133.219C49.4534 133.212 49.4349 133.357 49.5211 133.376L49.5088 133.382ZM82.8075 114.232C81.5268 114.32 80.2523 114.396 78.9715 114.471C78.8853 113.345 77.9002 112.023 77.4014 111.047C76.8103 109.888 76.2623 108.705 75.5912 107.591C76.8904 106.168 78.1957 104.752 79.5011 103.335C79.0331 107.364 80.1969 111.173 82.8014 114.232H82.8075ZM56.799 111.922C57.895 112.174 58.9849 112.432 60.0809 112.684C59.4221 116.536 58.7817 120.483 58.4861 124.38C57.2608 125.526 56.0355 126.672 54.8041 127.817C56.522 122.649 57.3163 117.386 56.7929 111.916L56.799 111.922ZM72.882 109.555C72.4571 109.177 71.8845 108.957 71.3857 108.699C70.9362 108.459 70.4868 108.189 70.0126 107.994C70.1235 107.282 70.2405 106.571 70.3451 105.859C71.0963 106.332 71.8783 106.728 72.7157 107.018C73.4792 107.282 74.4213 107.647 75.2217 107.414C75.2833 107.396 75.3018 107.301 75.2402 107.27C74.5629 106.904 73.7255 106.917 72.9866 106.709C72.0815 106.458 71.2133 106.086 70.3821 105.645C70.6284 104.028 70.8624 102.403 71.084 100.779C73.4423 102.189 76.7426 103.511 79.4518 102.787C79.458 102.787 79.4641 102.781 79.4703 102.775C76.9335 105.551 74.4213 108.352 71.946 111.185C71.6997 110.933 71.3549 110.782 71.0594 110.6C70.6222 110.335 70.1851 110.071 69.7479 109.807C69.7417 109.807 69.7356 109.807 69.7294 109.807C69.8156 109.265 69.8957 108.724 69.9819 108.189C70.419 108.478 70.9055 108.718 71.3611 108.969C71.8229 109.227 72.2847 109.561 72.7958 109.7C72.8758 109.718 72.9435 109.611 72.8758 109.555H72.882ZM66.9278 128.434C65.1792 126.25 63.3073 124.147 61.4355 122.07C62.119 121.428 62.8024 120.792 63.4859 120.156C63.5105 120.131 63.5351 120.106 63.5598 120.087C64.3479 121.786 65.4809 125.173 67.4327 125.337C67.3157 126.388 67.1926 127.44 67.0818 128.491C67.0325 128.516 66.9894 128.541 66.9401 128.573C66.9586 128.535 66.9648 128.485 66.9278 128.447V128.434ZM68.9721 115.019C70.3575 115.025 71.7428 115.019 73.1344 114.994C72.7034 115.837 72.3586 116.75 72.0015 117.638C70.9855 116.788 69.9695 115.938 68.9659 115.076C68.9659 115.057 68.9659 115.038 68.9721 115.019ZM68.9721 114.925C69.9326 113.848 70.8993 112.784 71.866 111.714C72.2539 112.728 72.6172 113.747 73.042 114.742C73.0544 114.767 73.0728 114.774 73.0851 114.78C71.7121 114.843 70.3451 114.899 68.9721 114.95C68.9721 114.944 68.9721 114.931 68.9721 114.925ZM66.0227 117.783C66.8663 116.989 67.7098 116.203 68.5534 115.416C68.2886 117.682 68.0423 119.948 67.7837 122.221C67.2049 120.741 66.6138 119.262 66.0227 117.789V117.783ZM67.3465 121.831C67.0756 122.114 64.8528 120.414 63.9477 119.728C64.6127 119.105 65.2715 118.488 65.9365 117.871C66.466 119.13 67.5374 121.635 67.3465 121.831ZM68.381 120.213C69.5755 119.646 70.9424 119.168 72.0138 118.393C72.0322 118.381 72.0384 118.362 72.0507 118.343C72.8696 119.117 73.707 119.879 74.5567 120.628C72.9497 121.761 70.1543 124.462 67.8884 124.582C68.0546 123.127 68.2209 121.673 68.3871 120.219L68.381 120.213ZM72.2231 117.82C72.6541 116.889 73.1282 115.957 73.4607 114.994C74.4829 114.975 75.5111 114.956 76.5332 114.925C75.9237 116.599 75.3695 118.305 74.8708 120.018C73.9841 119.287 73.1036 118.557 72.2231 117.82ZM71.9029 118.192C70.7084 118.538 69.5508 119.249 68.4302 119.822C68.6088 118.293 68.775 116.757 68.9536 115.227C69.9018 116.247 70.8931 117.229 71.9029 118.192ZM68.8304 114.805C68.7442 114.805 68.6519 114.849 68.6211 114.95C67.716 115.793 66.817 116.637 65.9119 117.474C65.8872 117.411 65.8626 117.342 65.838 117.279C65.8934 117.279 65.9427 117.241 65.9427 117.172C65.9119 116.114 65.7148 115.038 65.5609 113.987C66.6138 114.245 67.6729 114.497 68.7258 114.755C68.7873 114.767 68.8366 114.761 68.8859 114.742C68.8674 114.761 68.8551 114.78 68.8366 114.799L68.8304 114.805ZM65.5363 113.401C65.8626 112.992 66.1889 112.583 66.5091 112.174C66.7123 111.916 66.9525 111.651 67.1249 111.362C67.5374 112.268 67.9499 113.168 68.3563 114.075C67.4143 113.848 66.4783 113.628 65.5363 113.401ZM65.7087 117.147C65.7087 117.147 65.6594 117.178 65.6717 117.216C65.6964 117.285 65.7456 117.405 65.8072 117.562C65.1053 118.217 64.3972 118.878 63.6952 119.533C63.6645 119.508 63.6337 119.489 63.6152 119.47C63.4674 119.369 63.3073 119.564 63.3812 119.709C63.3935 119.734 63.4058 119.766 63.4182 119.791C62.7039 120.452 61.9958 121.119 61.2816 121.78C61.7618 118.954 62.1559 116.096 62.5007 113.25C63.4551 113.477 64.4033 113.71 65.3577 113.943C65.4501 115.006 65.4993 116.102 65.7025 117.147H65.7087ZM65.7949 123.6C65.5486 123.285 63.9969 120.376 64.1139 120.276C64.2617 120.143 67.5251 122.555 67.7036 122.674C67.716 122.68 67.7283 122.674 67.7406 122.68C67.6729 123.31 67.599 123.933 67.5312 124.563C66.8909 124.512 66.2998 124.229 65.801 123.6H65.7949ZM67.8022 125.324C68.6827 125.224 69.4585 124.556 70.1604 124.078C71.7182 123.014 73.2699 121.938 74.7969 120.83C75.6035 121.535 76.4163 122.227 77.2352 122.92C73.978 124.695 70.6899 126.42 67.4697 128.271C67.5805 127.289 67.6913 126.313 67.8022 125.331V125.324ZM74.9939 120.112C75.6158 118.45 76.1946 116.763 76.7057 115.069C76.7672 115.095 76.8411 115.038 76.8042 114.962C76.798 114.95 76.7857 114.931 76.7795 114.918C77.5061 114.899 78.2265 114.874 78.9531 114.843C78.9715 114.881 78.99 114.918 79.0146 114.95C78.2758 117.248 77.9186 119.766 77.4938 122.171C76.6625 121.484 75.8313 120.798 75.0001 120.112H74.9939ZM76.7918 114.597C76.7549 114.572 76.7057 114.572 76.6687 114.604C76.6502 114.604 76.6256 114.604 76.6071 114.604C75.7205 113.017 74.7969 111.437 73.8056 109.92C73.6824 109.737 73.3992 109.901 73.51 110.096C74.4028 111.632 75.388 113.143 76.3855 114.616C75.4188 114.667 74.4459 114.717 73.4792 114.761C73.4238 114.692 73.3068 114.679 73.2514 114.767C73.2945 114.736 73.3314 114.685 73.3068 114.622C72.9127 113.584 72.4633 112.564 72.0384 111.544C72.0384 111.544 72.0384 111.544 72.0322 111.538C73.1837 110.266 74.3412 108.995 75.4988 107.723C76.4101 110.021 77.5923 112.306 78.7683 114.484C78.1095 114.522 77.4568 114.56 76.798 114.591L76.7918 114.597ZM70.85 110.814C71.1394 111.003 71.4535 111.267 71.786 111.393C70.8747 112.438 69.9634 113.483 69.0644 114.541C69.089 114.434 69.0644 114.32 68.9721 114.251C69.2245 112.86 69.4646 111.469 69.6986 110.071C70.0804 110.317 70.4621 110.568 70.85 110.814ZM68.7812 113.791C68.3748 112.715 67.9499 111.639 67.5005 110.575C67.7837 110.493 68.0669 110.417 68.3502 110.335C68.6334 110.254 68.929 110.21 69.1691 110.033C69.2184 109.995 69.1999 109.92 69.1383 109.92C68.8366 109.907 68.5718 110.033 68.2886 110.128C67.9992 110.222 67.716 110.317 67.4266 110.417C67.1803 109.825 66.934 109.227 66.6754 108.636C67.6544 108.497 68.7566 108.447 69.6986 108.145C69.4092 110.033 69.1014 111.916 68.7812 113.798V113.791ZM67.0202 111.116C66.7431 111.368 66.5276 111.714 66.3183 112.016C65.9981 112.463 65.6841 112.91 65.3639 113.357C64.508 113.156 63.646 112.948 62.7901 112.74C63.9231 111.525 64.9698 110.222 66.0412 108.944C66.3737 109.668 66.6938 110.392 67.0263 111.11L67.0202 111.116ZM62.7162 112.728C61.9281 112.539 61.1338 112.362 60.3395 112.174C61.9158 110.373 63.5413 108.554 64.9698 106.627C65.29 107.333 65.6163 108.031 65.9427 108.736C64.8528 110.052 63.7383 111.349 62.7162 112.728ZM60.1301 112.13C59.1881 111.909 58.2398 111.689 57.2978 111.475C59.8531 109.108 61.8604 106.256 63.3258 103.071C63.8369 104.179 64.3479 105.287 64.8528 106.388C63.1719 108.189 61.6448 110.191 60.124 112.13H60.1301ZM60.2348 112.721C60.9675 112.891 61.7064 113.061 62.4391 113.231C61.9219 116.14 61.4417 119.067 61.0661 121.994C60.2718 122.737 59.4713 123.48 58.677 124.223C59.4159 120.452 59.8469 116.543 60.2348 112.721ZM61.3185 122.189C63.0918 124.361 64.8836 126.539 66.78 128.598C66.8108 128.636 66.8478 128.636 66.8786 128.629C66.8293 128.711 66.9155 128.831 67.0202 128.781C67.0325 128.774 67.0448 128.768 67.0633 128.762C66.9278 130.008 66.7924 131.255 66.6569 132.501C64.6004 129.423 61.651 126.823 58.7324 124.613C59.5945 123.807 60.4565 123.001 61.3185 122.196V122.189ZM67.445 128.548C70.7885 126.804 74.0703 124.928 77.3768 123.102C77.4137 123.146 77.4753 123.165 77.5307 123.153C78.4359 123.908 79.3471 124.663 80.2584 125.413C75.622 127.345 71.1948 129.807 66.9956 132.583C67.1433 131.236 67.2911 129.895 67.4389 128.548H67.445ZM77.7647 122.391C78.3189 119.967 78.9962 117.462 79.224 115C79.2794 114.962 79.3163 114.893 79.2917 114.824C80.5848 114.774 81.8778 114.711 83.1708 114.635C83.2201 114.685 83.2817 114.692 83.3309 114.673C81.65 117.606 80.7879 121.258 80.4801 124.651C79.575 123.895 78.6698 123.14 77.7585 122.391H77.7647ZM79.5195 102.737C79.538 102.687 79.5257 102.624 79.4641 102.611C78.1095 102.334 76.7303 102.416 75.3572 102.107C73.8733 101.774 72.4756 101.245 71.1271 100.527C71.318 99.1298 71.5027 97.7323 71.6813 96.3284C75.1786 98.2548 79.2486 99.3565 83.2262 98.7018C81.9825 100.043 80.751 101.39 79.5134 102.737H79.5195ZM70.8069 100.471C70.8069 100.471 70.7823 100.534 70.7946 100.565C70.4621 103.027 70.105 105.482 69.7294 107.937C68.7073 107.937 67.6051 108.258 66.5953 108.441C66.3121 107.792 66.0165 107.15 65.721 106.508C67.131 106.533 68.9474 106.395 69.9695 105.501C70.0065 105.469 69.9757 105.394 69.9264 105.394C69.2368 105.444 68.578 105.797 67.9007 105.954C67.1433 106.13 66.3737 106.212 65.5978 106.237C65.1607 105.287 64.7112 104.342 64.2617 103.398C66.6384 103.43 69.4585 102.435 70.7023 100.288C70.7331 100.238 70.6653 100.194 70.6284 100.225C68.5718 101.875 66.8047 103.09 64.1755 103.209C63.6213 102.057 63.0549 100.905 62.4822 99.7594C65.6717 99.539 69.2676 98.3618 71.4165 95.8311C71.2195 97.3735 71.0224 98.9221 70.8131 100.464L70.8069 100.471ZM63.2211 102.831C61.7742 106.118 59.7299 108.957 57.1808 111.437C55.9924 111.166 54.8041 110.896 53.6096 110.631C56.7005 107.635 59.9577 103.832 61.8542 99.9167C62.3098 100.886 62.7655 101.862 63.2211 102.831ZM57.8458 105.381C56.4419 107.2 54.9087 108.881 53.3694 110.575C50.925 110.021 48.4743 109.479 46.0237 108.944C51.4052 105.457 56.3003 100.527 59.4467 94.8176C60.2287 96.4543 60.9983 98.0974 61.768 99.7405C60.3949 101.572 59.2435 103.568 57.8396 105.381H57.8458ZM56.7375 111.903C57.0145 117.43 56.3988 122.907 54.5085 128.113C52.9507 129.567 51.3929 131.022 49.8351 132.47C51.7562 125.482 52.9938 118.356 53.0862 111.078C54.3053 111.349 55.5183 111.626 56.7375 111.903ZM58.6647 124.663C61.5094 127.182 63.8923 130.014 66.4845 132.784C66.5214 132.822 66.5707 132.835 66.6138 132.822C66.6138 132.822 66.6138 132.828 66.6138 132.835C66.5769 132.86 66.5461 132.879 66.5091 132.904C66.4352 132.954 66.503 133.068 66.5769 133.024C66.583 133.024 66.5892 133.017 66.5953 133.011C66.4476 134.377 66.2936 135.743 66.1458 137.109C63.2396 133.137 59.2004 130.052 54.5824 128.478C55.9432 127.207 57.2978 125.941 58.6586 124.67L58.6647 124.663ZM66.9771 132.772C71.3549 130.065 75.8867 127.761 80.5724 125.664C81.6315 126.539 82.6967 127.408 83.7496 128.289C77.6108 129.876 71.5458 133.766 66.4968 137.575C66.4845 137.556 66.466 137.537 66.4537 137.518C66.6261 135.938 66.8047 134.352 66.9771 132.772ZM80.7079 124.833C81.3175 121.258 82.3889 118.06 83.4849 114.61C85.0981 114.515 86.7113 114.408 88.3307 114.289C86.1202 118.4 84.7348 123.108 84.1314 127.748C82.9984 126.766 81.8593 125.797 80.7141 124.833H80.7079ZM83.2509 114.201C80.5663 111.154 79.3102 107.219 79.6919 103.146C80.9296 101.805 82.1672 100.458 83.411 99.1172C84.0082 104.185 85.4183 109.618 88.343 113.829C86.6497 113.961 84.9503 114.087 83.257 114.201H83.2509ZM83.4171 98.3052C79.2794 98.4059 75.5542 97.9967 71.7983 96.0892C71.7675 96.0766 71.7367 96.0766 71.7121 96.0892C71.9399 94.2636 72.1615 92.438 72.3709 90.6124C77.0012 94.3329 83.4356 95.1575 88.7925 92.7087C87.0376 94.591 85.2889 96.4732 83.5403 98.3618C83.5095 98.3303 83.4725 98.3052 83.4171 98.3052ZM72.4078 90.3102C73.1221 84.1912 73.7625 78.0596 74.4336 71.9343C79.6304 79.3816 89.1927 84.1471 98.1762 82.5355C95.3438 85.6517 92.4869 88.7427 89.6175 91.821C83.959 94.6224 77.5369 94.0999 72.4078 90.3102ZM71.4227 95.7241C71.4042 95.6863 71.3611 95.6611 71.3118 95.6926C68.4241 97.6505 65.8872 99.1865 62.3653 99.5516C61.5279 97.8708 60.6843 96.1899 59.8531 94.5217C64.1878 94.6224 68.5965 93.1682 72.0076 90.4298C72.1061 90.3542 71.9768 90.1843 71.8783 90.2535C68.0608 92.7653 64.2617 94.0559 59.7299 94.2636C59.3174 93.4326 58.9048 92.6017 58.4985 91.7644C57.3039 89.3029 56.1094 86.8352 54.9272 84.3737C62.5623 82.5733 69.2861 77.8015 74.1688 71.6196C73.2699 79.6586 72.4202 87.7039 71.4104 95.7241H71.4227ZM57.7904 91.3237C58.3199 92.4191 58.8371 93.5145 59.3543 94.6161C55.623 100.276 51.4606 104.915 45.9191 108.806C45.876 108.831 45.876 108.881 45.8883 108.913C42.7173 108.22 39.5462 107.54 36.3752 106.867C44.3736 101.465 50.7587 93.8292 54.6255 84.8522C55.6846 87.0115 56.7498 89.1707 57.7842 91.3237H57.7904ZM52.7783 111.009C52.4397 118.4 51.4914 125.721 49.4472 132.835C47.6 134.56 45.7467 136.278 43.8933 137.997C46.3501 128.617 48.1418 119.054 45.8575 109.473C48.1665 109.983 50.4693 110.493 52.7783 111.015V111.009ZM64.4033 151.916C64.157 153.936 63.9231 155.951 63.7076 157.972C56.1587 149.397 41.7629 146.382 31.2339 150.096C35.3285 146.596 39.2014 142.762 43.1359 139.117C43.3207 138.947 43.5054 138.771 43.6901 138.601C52.0333 140.206 59.3666 144.758 64.3356 151.846C64.3541 151.872 64.3787 151.89 64.4033 151.909V151.916ZM66.0781 140.899C66.1828 139.936 66.2936 138.979 66.3983 138.016C66.4168 138.016 66.4291 138.003 66.4476 137.99C69.1629 136.014 71.9768 134.176 74.9262 132.577C77.8509 130.99 80.9604 129.901 83.9282 128.434C85.72 129.933 87.4809 131.462 89.1742 133.055C89.1681 133.231 89.1557 133.401 89.1496 133.578C80.8003 134.648 72.8573 137.739 65.955 142.655C65.9365 142.63 65.918 142.605 65.8996 142.586C65.9611 142.019 66.0165 141.459 66.0781 140.893V140.899ZM84.3407 127.937C85.1843 123.102 86.6066 118.771 88.5585 114.276C90.9291 114.094 93.2996 113.892 95.6702 113.659C91.8034 118.998 89.6545 125.734 89.205 132.356C87.6164 130.852 85.9909 129.379 84.3407 127.943V127.937ZM88.5031 113.817C86.2495 108.932 84.2853 104.355 83.5649 98.9536C85.6461 96.6999 87.7334 94.4462 89.8084 92.1925C89.8454 92.1736 89.8885 92.1547 89.9254 92.1295C89.8638 99.5516 91.9265 106.797 95.6763 113.149C95.6825 113.162 95.6948 113.162 95.701 113.168C93.2996 113.401 90.8983 113.615 88.4969 113.81L88.5031 113.817ZM76.2377 56.9201C78.8977 61.5723 83.4048 64.3233 88.0228 66.6274C93.626 69.4288 99.1429 72.419 104.783 75.126C102.696 77.5245 100.578 79.8915 98.4471 82.2397C98.4287 82.2271 98.4102 82.2082 98.3794 82.2145C93.275 82.3278 88.4908 81.8997 83.842 79.5201C80.123 77.6126 77.0505 74.7924 74.4952 71.4685C75.0309 66.6085 75.5973 61.7612 76.2439 56.9201H76.2377ZM75.9052 57.1656C75.3018 61.843 74.7538 66.533 74.2243 71.2229C74.1688 71.1915 74.1011 71.1915 74.0518 71.2607C69.0213 77.7008 62.5007 81.7927 54.8841 84.273C53.2586 80.8925 51.6577 77.4993 50.0876 74.0873C59.8346 70.8704 68.9967 64.9151 75.9052 57.1656ZM49.9152 74.8238C51.3437 78.0722 52.883 81.2765 54.4408 84.4682C50.3154 93.5522 44.0103 101.182 35.858 106.753C32.4899 106.042 29.1219 105.337 25.76 104.644C36.2398 97.1028 44.5275 86.6778 49.9213 74.8238H49.9152ZM25.3844 104.89C28.8694 105.702 32.3606 106.483 35.8518 107.263C37.8222 122.643 34.9837 137.449 28.7525 151.475C30.4519 135.995 28.9556 119.986 25.3844 104.89ZM28.7217 151.79C28.7217 151.79 28.7525 151.777 28.7648 151.758C35.8149 138.374 38.0069 122.284 36.0981 107.314C39.263 108.019 42.434 108.711 45.5989 109.41C48.1603 119.029 45.6666 128.837 43.5793 138.274C40.6176 141.012 37.6498 143.744 34.6696 146.458C32.7055 148.245 30.7659 150.109 28.7155 151.809C28.7155 151.802 28.7155 151.796 28.7155 151.79H28.7217ZM28.7586 152.149C29.4975 151.563 30.2241 150.959 30.9445 150.348C36.6585 148.862 42.3109 148.472 48.1234 149.838C54.2191 151.273 58.8864 154.383 63.6706 158.324C63.4182 160.748 63.2027 163.178 63.0549 165.602C51.6823 160.981 40.2174 156.555 28.7586 152.149ZM68.6827 167.918C66.8663 167.163 65.0437 166.42 63.2273 165.677C63.6952 163.002 64.0585 160.295 64.3787 157.581C65.6348 157.758 66.9155 157.739 68.1839 157.77C68.7812 157.789 71.9645 157.493 72.3401 157.915C72.1985 157.751 64.625 162.788 63.9908 163.184C63.8861 163.253 63.8984 163.436 64.0277 163.467C65.7949 163.895 67.5682 164.412 69.3661 164.695C69.477 164.714 69.5262 164.55 69.4154 164.519C68.227 164.128 66.9894 163.87 65.7703 163.574C65.3947 163.48 64.7297 163.593 64.742 163.077C64.742 162.957 66.4106 162.026 66.5338 161.95C68.695 160.59 70.8624 159.243 73.0359 157.896C71.4104 161.163 69.9572 164.506 68.695 167.912L68.6827 167.918ZM73.159 157.619C73.1344 157.562 73.0851 157.518 73.0113 157.518C70.1974 157.443 67.2049 157.097 64.3972 157.392C64.6188 155.479 64.8159 153.559 65.0067 151.639C67.7837 148.415 70.9178 145.557 74.4398 143.19C78.1403 140.704 82.0748 139.243 86.1263 137.512C86.1818 137.487 86.1633 137.405 86.1017 137.418C78.0172 139.18 70.3759 145.092 65.0314 151.393C65.2961 148.655 65.5547 145.916 65.8318 143.19C65.8441 143.19 65.8565 143.184 65.8688 143.171C65.8811 143.159 65.8996 143.153 65.9119 143.14C65.955 143.127 65.9858 143.102 66.0165 143.071C72.9989 138.211 80.8126 135.164 89.1988 134.1C89.3528 134.081 89.4328 133.949 89.439 133.823C89.4513 133.804 89.4575 133.779 89.4575 133.754C89.4636 133.628 89.4821 133.502 89.4882 133.376C89.5806 133.464 89.673 133.546 89.7653 133.634C83.1524 140.779 77.5307 148.9 73.1529 157.619H73.159ZM90.2086 133.061C93.2627 125.935 97.3142 119.539 102.086 113.508C101.871 116.486 101.871 119.501 101.92 122.51C97.7206 125.746 93.7799 129.341 90.1348 133.238C89.9439 133.049 89.7407 132.872 89.5498 132.684C90.1902 125.74 92.4191 119.659 95.898 113.64C98.0407 113.426 100.177 113.193 102.308 112.942C97.1048 118.803 93.0287 125.664 89.9562 132.91C89.8823 133.086 90.1348 133.238 90.2086 133.061ZM102.579 122.013C102.622 119.13 102.609 116.253 102.4 113.401C102.394 113.319 102.339 113.275 102.283 113.263C102.351 113.181 102.412 113.093 102.48 113.005C102.505 112.973 102.499 112.942 102.492 112.916C107.098 112.375 111.692 111.746 116.254 111.072C116.47 111.752 116.685 112.432 116.894 113.118C111.87 115.611 107.086 118.601 102.585 122.007L102.579 122.013Z" fill="url(#paint0_linear_1015_67903)" fill-opacity="0.9"/>
<path d="M124.265 74.4256C116.961 73.1271 93.0493 69.2559 67.2382 69.2559C41.4116 69.2559 17.3049 73.1315 9.96124 74.4299C8.64151 74.6628 7.68652 75.8009 7.68652 77.1301V122.135C7.68652 123.464 8.64151 124.602 9.96124 124.835C17.3049 126.133 41.4116 130.009 67.2382 130.009C93.0493 130.009 116.961 126.138 124.265 124.837C125.583 124.604 126.538 123.466 126.538 122.137V77.1257C126.538 75.7987 125.583 74.6606 124.265 74.4256Z" fill="white"/>
<path d="M69.6172 98.9375H78.3594V105.219H69.6172V113.68H63.3359V105.219H54.5938V98.9375H63.3359V90.3359H69.6172V98.9375Z" fill="#414141"/>
</g>
<defs>
<linearGradient id="paint0_linear_1015_67903" x1="67" y1="41" x2="67" y2="168" gradientUnits="userSpaceOnUse">
<stop stop-color="white" stop-opacity="0"/>
<stop offset="1" stop-color="white"/>
</linearGradient>
<clipPath id="clip0_1015_67903">
<rect width="132" height="170" fill="white"/>
</clipPath>
</defs>
</svg>
