<svg width="57" height="57" viewBox="0 0 57 57" fill="none" xmlns="http://www.w3.org/2000/svg">
<g filter="url(#filter0_d_1015_67868)">
<circle cx="26.0096" cy="26.0096" r="23.6201" fill="#5A6AE7" stroke="#2834E2" stroke-width="2.77884"/>
<g filter="url(#filter1_f_1015_67868)">
<ellipse cx="15.1555" cy="13.1841" rx="7.89471" ry="2.77884" transform="rotate(-35.2607 15.1555 13.1841)" fill="white"/>
</g>
<path d="M18.8638 9.03857C16.5395 9.92032 11.3206 13.1198 9.03857 18.8638" stroke="white" stroke-opacity="0.7" stroke-width="2.6796" stroke-linecap="round"/>
<circle cx="7.69869" cy="21.9902" r="1.3398" fill="white" fill-opacity="0.7"/>
<g filter="url(#filter2_di_1015_67868)">
<path d="M34.4727 21.7356L38.4682 25.3967C38.951 25.8454 38.8132 26.1913 38.1585 26.1913H35.1615V35.7569C35.1615 36.4133 34.6104 37.0001 33.9557 37.0001H28.7544V30.3C28.7544 29.6436 28.1691 29.0568 27.5144 29.0568H24.2419C23.5872 29.0568 23.0019 29.6436 23.0019 30.3V37.0001H17.8006C17.1459 37.0001 16.5606 36.4133 16.5606 35.7569V26.1913H13.5978C12.9431 26.1913 12.8053 25.8454 13.2881 25.3967L24.965 14.7603C25.4477 14.3116 26.2744 14.3116 26.7902 14.7603L29.4422 17.1429V15.2432C29.4422 14.5868 30.0274 14 30.6821 14H33.2657C33.9204 14 34.4716 14.5868 34.4716 15.2432L34.4727 21.7356Z" fill="white"/>
</g>
</g>
<defs>
<filter id="filter0_d_1015_67868" x="0.900755" y="0.900755" width="55.5767" height="55.5767" filterUnits="userSpaceOnUse" color-interpolation-filters="sRGB">
<feFlood flood-opacity="0" result="BackgroundImageFix"/>
<feColorMatrix in="SourceAlpha" type="matrix" values="0 0 0 0 0 0 0 0 0 0 0 0 0 0 0 0 0 0 127 0" result="hardAlpha"/>
<feOffset dx="2.6796" dy="2.6796"/>
<feGaussianBlur stdDeviation="1.38942"/>
<feComposite in2="hardAlpha" operator="out"/>
<feColorMatrix type="matrix" values="0 0 0 0 1 0 0 0 0 1 0 0 0 0 1 0 0 0 0.1 0"/>
<feBlend mode="normal" in2="BackgroundImageFix" result="effect1_dropShadow_1015_67868"/>
<feBlend mode="normal" in="SourceGraphic" in2="effect1_dropShadow_1015_67868" result="shape"/>
</filter>
<filter id="filter1_f_1015_67868" x="2.95355" y="2.53411" width="24.4039" height="21.2999" filterUnits="userSpaceOnUse" color-interpolation-filters="sRGB">
<feFlood flood-opacity="0" result="BackgroundImageFix"/>
<feBlend mode="normal" in="SourceGraphic" in2="BackgroundImageFix" result="shape"/>
<feGaussianBlur stdDeviation="2.77884" result="effect1_foregroundBlur_1015_67868"/>
</filter>
<filter id="filter2_di_1015_67868" x="11" y="10" width="29.7563" height="30" filterUnits="userSpaceOnUse" color-interpolation-filters="sRGB">
<feFlood flood-opacity="0" result="BackgroundImageFix"/>
<feColorMatrix in="SourceAlpha" type="matrix" values="0 0 0 0 0 0 0 0 0 0 0 0 0 0 0 0 0 0 127 0" result="hardAlpha"/>
<feOffset dy="1"/>
<feGaussianBlur stdDeviation="1"/>
<feComposite in2="hardAlpha" operator="out"/>
<feColorMatrix type="matrix" values="0 0 0 0 0 0 0 0 0 0 0 0 0 0 0 0 0 0 0.35 0"/>
<feBlend mode="normal" in2="BackgroundImageFix" result="effect1_dropShadow_1015_67868"/>
<feBlend mode="normal" in="SourceGraphic" in2="effect1_dropShadow_1015_67868" result="shape"/>
<feColorMatrix in="SourceAlpha" type="matrix" values="0 0 0 0 0 0 0 0 0 0 0 0 0 0 0 0 0 0 127 0" result="hardAlpha"/>
<feOffset dy="-5"/>
<feGaussianBlur stdDeviation="2"/>
<feComposite in2="hardAlpha" operator="arithmetic" k2="-1" k3="1"/>
<feColorMatrix type="matrix" values="0 0 0 0 0.826667 0 0 0 0 0.844 0 0 0 0 1 0 0 0 1 0"/>
<feBlend mode="normal" in2="shape" result="effect2_innerShadow_1015_67868"/>
</filter>
</defs>
</svg>
