<svg width="307" height="119" viewBox="0 0 307 119" fill="none" xmlns="http://www.w3.org/2000/svg">
<g filter="url(#filter0_d_1012_24348)">
<path d="M274.25 88.3079C288.365 88.3079 299.808 76.8652 299.808 62.75V24.217C299.808 11.5007 289.499 1.19211 276.783 1.19211L30.217 1.19211C17.5007 1.19211 7.19211 11.5007 7.19211 24.217V65.283C7.19211 77.9993 17.5007 88.3079 30.217 88.3079H126.629C132.117 88.3079 137.396 90.4155 141.375 94.1954L152.079 104.364C153.987 106.177 156.999 106.119 158.835 104.233L168.038 94.7816C172.068 90.6426 177.6 88.3079 183.377 88.3079L267.5 88.3079H274.25Z" fill="#9C00CC" stroke="#9D10D3" stroke-width="1.61578"/>
<path fill-rule="evenodd" clip-rule="evenodd" d="M263 87.5C282.882 87.5 299 71.3823 299 51.5V25.717C299 23.5399 298.687 21.436 298.103 19.4477V22.8575C294.284 36.0777 285.181 64.0699 279.315 70.2777C272.131 77.8804 257.469 79.1377 215.934 82.6995C215.076 82.773 214.208 82.8475 213.327 82.923C178.5 85.9119 66.8403 77.8457 15.3637 73.439L14.8249 72.9023C11.2759 69.3673 8.91504 64.8629 8 60.0098V65.283C8 77.5531 17.9469 87.5 30.217 87.5L263 87.5Z" fill="#F4D8FF" fill-opacity="0.4"/>
<path fill-rule="evenodd" clip-rule="evenodd" d="M298.884 26.8033V24.2174C298.884 11.9473 288.937 2.00037 276.667 2.00037L30.2607 2.00037C17.9906 2.00037 8.04373 11.9473 8.04373 24.2174V64.2482C8.04373 74.8053 15.407 83.6425 25.2781 85.9043C18.8013 82.0225 14.4661 74.9346 14.4661 66.8341V30.8427C14.4661 16.3417 26.2215 4.58631 40.7225 4.58631L276.667 4.58631C288.937 4.58631 298.884 14.5332 298.884 26.8033Z" fill="#8102A6"/>
</g>
<defs>
<filter id="filter0_d_1012_24348" x="0.384277" y="0.383789" width="306.231" height="118.11" filterUnits="userSpaceOnUse" color-interpolation-filters="sRGB">
<feFlood flood-opacity="0" result="BackgroundImageFix"/>
<feColorMatrix in="SourceAlpha" type="matrix" values="0 0 0 0 0 0 0 0 0 0 0 0 0 0 0 0 0 0 127 0" result="hardAlpha"/>
<feOffset dy="6"/>
<feGaussianBlur stdDeviation="3"/>
<feComposite in2="hardAlpha" operator="out"/>
<feColorMatrix type="matrix" values="0 0 0 0 0 0 0 0 0 0 0 0 0 0 0 0 0 0 0.25 0"/>
<feBlend mode="normal" in2="BackgroundImageFix" result="effect1_dropShadow_1012_24348"/>
<feBlend mode="normal" in="SourceGraphic" in2="effect1_dropShadow_1012_24348" result="shape"/>
</filter>
</defs>
</svg>
