<svg width="57" height="57" viewBox="0 0 57 57" fill="none" xmlns="http://www.w3.org/2000/svg">
<g filter="url(#filter0_d_1015_67904)">
<circle cx="26.0096" cy="26.0096" r="23.6201" fill="#5AE7E7" stroke="#38BEBE" stroke-width="2.77884"/>
<g filter="url(#filter1_f_1015_67904)">
<ellipse cx="15.1555" cy="13.1841" rx="7.89471" ry="2.77884" transform="rotate(-35.2607 15.1555 13.1841)" fill="white"/>
</g>
<g filter="url(#filter2_d_1015_67904)">
<path d="M34.0622 13.002C32.5281 13.002 31.0568 13.6114 29.972 14.6961C28.8873 15.7809 28.2778 17.2522 28.2778 18.7863V29.873H39.8466V18.7863C39.8466 17.2522 39.2372 15.7809 38.1524 14.6961C37.0676 13.6114 35.5963 13.002 34.0622 13.002Z" fill="url(#paint0_linear_1015_67904)"/>
<path d="M37.9187 37.1019H30.2062C29.4391 37.1019 28.7035 36.7972 28.1611 36.2548C27.6187 35.7124 27.314 34.9768 27.314 34.2097V30.5945C27.314 29.2522 27.8472 27.9648 28.7964 27.0156C29.7456 26.0664 31.033 25.5332 32.3753 25.5332H35.7495C37.0919 25.5332 38.3792 26.0664 39.3284 27.0156C40.2776 27.9648 40.8109 29.2522 40.8109 30.5945V34.2097C40.8109 34.9768 40.5061 35.7124 39.9638 36.2548C39.4214 36.7972 38.6857 37.1019 37.9187 37.1019Z" fill="url(#paint1_linear_1015_67904)"/>
<path d="M35.7491 25.5332H32.3749C31.7133 25.5329 31.0582 25.6627 30.4468 25.9155V26.0152C30.4468 26.974 30.8277 27.8936 31.5057 28.5716C32.1836 29.2496 33.1032 29.6304 34.062 29.6304C35.0208 29.6304 35.9404 29.2496 36.6184 28.5716C37.2964 27.8936 37.6773 26.974 37.6773 26.0152V25.9155C37.0659 25.6627 36.4107 25.5329 35.7491 25.5332Z" fill="url(#paint2_linear_1015_67904)"/>
<path d="M31.8931 23.8472H36.2314V26.0163C36.2314 26.5916 36.0028 27.1433 35.596 27.5501C35.1892 27.9569 34.6375 28.1854 34.0622 28.1854C33.4869 28.1854 32.9352 27.9569 32.5284 27.5501C32.1216 27.1433 31.8931 26.5916 31.8931 26.0163V23.8472Z" fill="url(#paint3_linear_1015_67904)"/>
<path d="M38.4007 19.0258C38.4007 16.6298 36.4584 14.6875 34.0624 14.6875C31.6664 14.6875 29.7241 16.6298 29.7241 19.0258V21.4359C29.7241 23.8319 31.6664 25.7742 34.0624 25.7742C36.4584 25.7742 38.4007 23.8319 38.4007 21.4359V19.0258Z" fill="url(#paint4_linear_1015_67904)"/>
<path d="M38.8828 18.7827C38.8828 17.5043 38.375 16.2782 37.471 15.3742C36.567 14.4703 35.3409 13.9624 34.0625 13.9624C32.7841 13.9624 31.558 14.4703 30.654 15.3742C29.75 16.2782 29.2422 17.5043 29.2422 18.7827L29.7242 20.4698L30.4473 19.0237C34.0625 19.0237 35.5086 17.5776 35.5086 17.5776C35.7082 17.9903 36.0147 18.342 36.3961 18.5963C36.7775 18.8506 37.22 18.9981 37.6777 19.0237L38.4008 20.4698L38.8828 18.7827Z" fill="url(#paint5_linear_1015_67904)"/>
<path d="M39.8478 21.1951C39.8478 20.3965 39.2003 19.749 38.4017 19.749C37.603 19.749 36.9556 20.3965 36.9556 21.1951C36.9556 21.9938 37.603 22.6412 38.4017 22.6412C39.2003 22.6412 39.8478 21.9938 39.8478 21.1951Z" fill="url(#paint6_linear_1015_67904)"/>
<path d="M31.17 21.1951C31.17 20.3965 30.5226 19.749 29.7239 19.749C28.9253 19.749 28.2778 20.3965 28.2778 21.1951C28.2778 21.9938 28.9253 22.6412 29.7239 22.6412C30.5226 22.6412 31.17 21.9938 31.17 21.1951Z" fill="url(#paint7_linear_1015_67904)"/>
<path d="M22.4939 37.1019H14.7814C14.0143 37.1019 13.2787 36.7972 12.7363 36.2548C12.1939 35.7124 11.8892 34.9768 11.8892 34.2097V30.5945C11.8892 29.2522 12.4224 27.9648 13.3716 27.0156C14.3208 26.0664 15.6081 25.5332 16.9505 25.5332H20.3247C21.6671 25.5332 22.9544 26.0664 23.9036 27.0156C24.8528 27.9648 25.3861 29.2522 25.3861 30.5945V34.2097C25.3861 34.9768 25.0813 35.7124 24.539 36.2548C23.9966 36.7972 23.2609 37.1019 22.4939 37.1019Z" fill="url(#paint8_linear_1015_67904)"/>
<path d="M20.5654 28.426H16.7092C16.4535 28.426 16.2083 28.3244 16.0275 28.1436C15.8467 27.9628 15.7451 27.7176 15.7451 27.4619V26.9799C15.7451 26.4685 15.9483 25.9781 16.3099 25.6165C16.6714 25.2549 17.1619 25.0518 17.6732 25.0518H19.6014C20.1127 25.0518 20.6032 25.2549 20.9648 25.6165C21.3264 25.9781 21.5295 26.4685 21.5295 26.9799V27.4619C21.5295 27.7176 21.4279 27.9628 21.2471 28.1436C21.0663 28.3244 20.8211 28.426 20.5654 28.426Z" fill="url(#paint9_linear_1015_67904)"/>
<path d="M16.4692 23.8472H20.8075V26.0163C20.8075 26.5916 20.579 27.1433 20.1722 27.5501C19.7654 27.9569 19.2137 28.1854 18.6384 28.1854C18.0631 28.1854 17.5114 27.9569 17.1046 27.5501C16.6978 27.1433 16.4692 26.5916 16.4692 26.0163V23.8472Z" fill="url(#paint10_linear_1015_67904)"/>
<path d="M22.9754 19.0258C22.9754 16.6298 21.0331 14.6875 18.6371 14.6875C16.2411 14.6875 14.2988 16.6298 14.2988 19.0258V21.4359C14.2988 23.8319 16.2411 25.7742 18.6371 25.7742C21.0331 25.7742 22.9754 23.8319 22.9754 21.4359V19.0258Z" fill="url(#paint11_linear_1015_67904)"/>
<path d="M14.2996 20.6256L15.0226 19.1795C15.4803 19.154 15.9229 19.0064 16.3043 18.7521C16.6857 18.4978 16.9921 18.1461 17.1918 17.7335C17.1918 17.7335 18.6379 19.1795 22.2531 19.1795L22.9761 20.6256C22.9761 20.6256 25.1713 17.9142 23.2215 15.2674C21.304 12.663 17.2178 12.3333 15.7457 14.1182C15.7457 14.1182 13.1504 13.8729 12.8535 17.0104C12.5811 19.89 14.2996 20.6256 14.2996 20.6256Z" fill="url(#paint12_linear_1015_67904)"/>
<path d="M15.7457 21.1951C15.7457 20.3965 15.0983 19.749 14.2996 19.749C13.501 19.749 12.8535 20.3965 12.8535 21.1951C12.8535 21.9938 13.501 22.6412 14.2996 22.6412C15.0983 22.6412 15.7457 21.9938 15.7457 21.1951Z" fill="url(#paint13_linear_1015_67904)"/>
<path d="M24.4225 20.8343C24.4225 20.0356 23.775 19.3882 22.9764 19.3882C22.1777 19.3882 21.5303 20.0356 21.5303 20.8343C21.5303 21.6329 22.1777 22.2804 22.9764 22.2804C23.775 22.2804 24.4225 21.6329 24.4225 20.8343Z" fill="url(#paint14_linear_1015_67904)"/>
<path d="M30.3732 39.0294H22.3272C22.0009 39.0295 21.6778 38.9653 21.3764 38.8405C21.0749 38.7156 20.801 38.5326 20.5703 38.3019C20.3396 38.0712 20.1566 37.7973 20.0318 37.4959C19.9069 37.1944 19.8427 36.8713 19.8428 36.5451V35.3067C19.8427 34.7195 19.9583 34.138 20.183 33.5954C20.4077 33.0528 20.7371 32.5598 21.1524 32.1446C21.5677 31.7293 22.0606 31.3999 22.6032 31.1752C23.1458 30.9505 23.7273 30.8349 24.3146 30.835H28.3858C28.9731 30.8349 29.5546 30.9505 30.0972 31.1752C30.6398 31.3999 31.1328 31.7293 31.548 32.1446C31.9633 32.5598 32.2927 33.0528 32.5174 33.5954C32.7421 34.138 32.8577 34.7195 32.8576 35.3067V36.5451C32.8577 36.8713 32.7935 37.1944 32.6687 37.4959C32.5438 37.7973 32.3608 38.0712 32.1301 38.3019C31.8994 38.5326 31.6255 38.7156 31.3241 38.8405C31.0226 38.9653 30.6995 39.0295 30.3732 39.0294Z" fill="url(#paint15_linear_1015_67904)"/>
<path d="M28.3858 30.835H24.3146C24.027 30.8356 23.7402 30.8637 23.458 30.9188V31.317C23.458 32.084 23.7627 32.8197 24.3051 33.3621C24.8475 33.9045 25.5831 34.2092 26.3502 34.2092C27.1173 34.2092 27.8529 33.9045 28.3953 33.3621C28.9377 32.8197 29.2424 32.084 29.2424 31.317V30.9188C28.9602 30.8637 28.6734 30.8356 28.3858 30.835Z" fill="url(#paint16_linear_1015_67904)"/>
<path d="M24.4219 29.3882H28.2781V31.3163C28.2781 31.8277 28.075 32.3181 27.7134 32.6797C27.3518 33.0413 26.8614 33.2444 26.35 33.2444C25.8386 33.2444 25.3482 33.0413 24.9866 32.6797C24.625 32.3181 24.4219 31.8277 24.4219 31.3163V29.3882Z" fill="url(#paint17_linear_1015_67904)"/>
<path d="M26.3798 21.1953H26.321C24.2075 21.1953 22.4941 22.9086 22.4941 25.0221V27.0091C22.4941 29.1226 24.2075 30.8359 26.321 30.8359H26.3798C28.4933 30.8359 30.2067 29.1226 30.2067 27.0091V25.0221C30.2067 22.9086 28.4933 21.1953 26.3798 21.1953Z" fill="url(#paint18_linear_1015_67904)"/>
<path d="M22.4351 26.6315L23.0877 25.3262C23.5008 25.3031 23.9002 25.1699 24.2445 24.9404C24.5887 24.7108 24.8652 24.3933 25.0453 24.0208C25.0453 24.0208 26.3506 25.3262 29.6135 25.3262L30.2662 26.6315C30.2662 26.6315 32.2473 24.1842 30.4874 21.7953C28.7569 19.4454 25.0689 19.147 23.739 20.758C23.739 20.758 21.3968 20.5367 21.1288 23.3687C20.8839 25.9673 22.4351 26.6315 22.4351 26.6315Z" fill="url(#paint19_linear_1015_67904)"/>
<path d="M31.4111 26.9775C31.4111 26.312 30.8716 25.7725 30.2061 25.7725C29.5405 25.7725 29.001 26.312 29.001 26.9775C29.001 27.6431 29.5405 28.1826 30.2061 28.1826C30.8716 28.1826 31.4111 27.6431 31.4111 26.9775Z" fill="url(#paint20_linear_1015_67904)"/>
<path d="M23.6987 26.9775C23.6987 26.312 23.1592 25.7725 22.4937 25.7725C21.8281 25.7725 21.2886 26.312 21.2886 26.9775C21.2886 27.6431 21.8281 28.1826 22.4937 28.1826C23.1592 28.1826 23.6987 27.6431 23.6987 26.9775Z" fill="url(#paint21_linear_1015_67904)"/>
</g>
</g>
<defs>
<filter id="filter0_d_1015_67904" x="0.900755" y="0.900755" width="55.5767" height="55.5767" filterUnits="userSpaceOnUse" color-interpolation-filters="sRGB">
<feFlood flood-opacity="0" result="BackgroundImageFix"/>
<feColorMatrix in="SourceAlpha" type="matrix" values="0 0 0 0 0 0 0 0 0 0 0 0 0 0 0 0 0 0 127 0" result="hardAlpha"/>
<feOffset dx="2.6796" dy="2.6796"/>
<feGaussianBlur stdDeviation="1.38942"/>
<feComposite in2="hardAlpha" operator="out"/>
<feColorMatrix type="matrix" values="0 0 0 0 1 0 0 0 0 1 0 0 0 0 1 0 0 0 0.1 0"/>
<feBlend mode="normal" in2="BackgroundImageFix" result="effect1_dropShadow_1015_67904"/>
<feBlend mode="normal" in="SourceGraphic" in2="effect1_dropShadow_1015_67904" result="shape"/>
</filter>
<filter id="filter1_f_1015_67904" x="2.95355" y="2.53411" width="24.4039" height="21.2999" filterUnits="userSpaceOnUse" color-interpolation-filters="sRGB">
<feFlood flood-opacity="0" result="BackgroundImageFix"/>
<feBlend mode="normal" in="SourceGraphic" in2="BackgroundImageFix" result="shape"/>
<feGaussianBlur stdDeviation="2.77884" result="effect1_foregroundBlur_1015_67904"/>
</filter>
<filter id="filter2_d_1015_67904" x="9.08919" y="11.6" width="34.5218" height="31.6292" filterUnits="userSpaceOnUse" color-interpolation-filters="sRGB">
<feFlood flood-opacity="0" result="BackgroundImageFix"/>
<feColorMatrix in="SourceAlpha" type="matrix" values="0 0 0 0 0 0 0 0 0 0 0 0 0 0 0 0 0 0 127 0" result="hardAlpha"/>
<feOffset dy="1.39999"/>
<feGaussianBlur stdDeviation="1.39999"/>
<feComposite in2="hardAlpha" operator="out"/>
<feColorMatrix type="matrix" values="0 0 0 0 0 0 0 0 0 0 0 0 0 0 0 0 0 0 0.35 0"/>
<feBlend mode="normal" in2="BackgroundImageFix" result="effect1_dropShadow_1015_67904"/>
<feBlend mode="normal" in="SourceGraphic" in2="effect1_dropShadow_1015_67904" result="shape"/>
</filter>
<linearGradient id="paint0_linear_1015_67904" x1="34.0622" y1="13.1398" x2="34.0622" y2="28.0234" gradientUnits="userSpaceOnUse">
<stop stop-color="#8A552E"/>
<stop offset="1" stop-color="#543426"/>
</linearGradient>
<linearGradient id="paint1_linear_1015_67904" x1="34.0624" y1="26.8501" x2="34.0624" y2="37.3227" gradientUnits="userSpaceOnUse">
<stop stop-color="#FED200"/>
<stop offset="1" stop-color="#F59815"/>
</linearGradient>
<linearGradient id="paint2_linear_1015_67904" x1="34.062" y1="23.3641" x2="34.062" y2="32.9815" gradientUnits="userSpaceOnUse">
<stop stop-color="#FED200"/>
<stop offset="1" stop-color="#F59815"/>
</linearGradient>
<linearGradient id="paint3_linear_1015_67904" x1="34.0622" y1="23.5975" x2="34.0622" y2="27.9743" gradientUnits="userSpaceOnUse">
<stop stop-color="#F1D2BD"/>
<stop offset="1" stop-color="#FEB592"/>
</linearGradient>
<linearGradient id="paint4_linear_1015_67904" x1="34.0624" y1="18.9872" x2="34.0624" y2="25.6879" gradientUnits="userSpaceOnUse">
<stop stop-color="#F1D2BD"/>
<stop offset="1" stop-color="#FEB592"/>
</linearGradient>
<linearGradient id="paint5_linear_1015_67904" x1="34.0625" y1="13.1362" x2="34.0625" y2="28.0198" gradientUnits="userSpaceOnUse">
<stop stop-color="#8A552E"/>
<stop offset="1" stop-color="#543426"/>
</linearGradient>
<linearGradient id="paint6_linear_1015_67904" x1="38.4017" y1="18.9874" x2="38.4017" y2="25.6881" gradientUnits="userSpaceOnUse">
<stop stop-color="#F1D2BD"/>
<stop offset="1" stop-color="#FEB592"/>
</linearGradient>
<linearGradient id="paint7_linear_1015_67904" x1="29.7239" y1="18.9874" x2="29.7239" y2="25.6881" gradientUnits="userSpaceOnUse">
<stop stop-color="#F1D2BD"/>
<stop offset="1" stop-color="#FEB592"/>
</linearGradient>
<linearGradient id="paint8_linear_1015_67904" x1="18.6376" y1="24.2163" x2="18.6376" y2="36.6122" gradientUnits="userSpaceOnUse">
<stop stop-color="#6FC6FC"/>
<stop offset="1" stop-color="#50A7F6"/>
</linearGradient>
<linearGradient id="paint9_linear_1015_67904" x1="18.6373" y1="25.3014" x2="18.6373" y2="28.0138" gradientUnits="userSpaceOnUse">
<stop stop-color="white"/>
<stop offset="1" stop-color="#EDF1F2"/>
</linearGradient>
<linearGradient id="paint10_linear_1015_67904" x1="18.6384" y1="24.3465" x2="18.6384" y2="27.7743" gradientUnits="userSpaceOnUse">
<stop stop-color="#F1D2BD"/>
<stop offset="1" stop-color="#FEB592"/>
</linearGradient>
<linearGradient id="paint11_linear_1015_67904" x1="18.6371" y1="19.4519" x2="18.6371" y2="25.8055" gradientUnits="userSpaceOnUse">
<stop stop-color="#F1D2BD"/>
<stop offset="1" stop-color="#FEB592"/>
</linearGradient>
<linearGradient id="paint12_linear_1015_67904" x1="18.4263" y1="13.4082" x2="18.4263" y2="19.1492" gradientUnits="userSpaceOnUse">
<stop stop-color="#3E4154"/>
<stop offset="1" stop-color="#1B2129"/>
</linearGradient>
<linearGradient id="paint13_linear_1015_67904" x1="14.2996" y1="19.4521" x2="14.2996" y2="25.8057" gradientUnits="userSpaceOnUse">
<stop stop-color="#F1D2BD"/>
<stop offset="1" stop-color="#FEB592"/>
</linearGradient>
<linearGradient id="paint14_linear_1015_67904" x1="22.9764" y1="19.4528" x2="22.9764" y2="25.8064" gradientUnits="userSpaceOnUse">
<stop stop-color="#F1D2BD"/>
<stop offset="1" stop-color="#FEB592"/>
</linearGradient>
<linearGradient id="paint15_linear_1015_67904" x1="26.3502" y1="27.7794" x2="26.3502" y2="38.8583" gradientUnits="userSpaceOnUse">
<stop stop-color="#4793EB"/>
<stop offset="1" stop-color="#2367EC"/>
</linearGradient>
<linearGradient id="paint16_linear_1015_67904" x1="26.3502" y1="27.4694" x2="26.3502" y2="34.2906" gradientUnits="userSpaceOnUse">
<stop stop-color="#4793EB"/>
<stop offset="1" stop-color="#2367EC"/>
</linearGradient>
<linearGradient id="paint17_linear_1015_67904" x1="26.35" y1="29.6764" x2="26.35" y2="33.1249" gradientUnits="userSpaceOnUse">
<stop stop-color="#F1D2BD"/>
<stop offset="1" stop-color="#FEB592"/>
</linearGradient>
<linearGradient id="paint18_linear_1015_67904" x1="26.3504" y1="25.456" x2="26.3504" y2="30.765" gradientUnits="userSpaceOnUse">
<stop stop-color="#F1D2BD"/>
<stop offset="1" stop-color="#FEB592"/>
</linearGradient>
<linearGradient id="paint19_linear_1015_67904" x1="26.1597" y1="20.1174" x2="26.1597" y2="25.2987" gradientUnits="userSpaceOnUse">
<stop stop-color="#3E4154"/>
<stop offset="1" stop-color="#1B2129"/>
</linearGradient>
<linearGradient id="paint20_linear_1015_67904" x1="30.2061" y1="25.4538" x2="30.2061" y2="30.7629" gradientUnits="userSpaceOnUse">
<stop stop-color="#F1D2BD"/>
<stop offset="1" stop-color="#FEB592"/>
</linearGradient>
<linearGradient id="paint21_linear_1015_67904" x1="22.4937" y1="25.4538" x2="22.4937" y2="30.7629" gradientUnits="userSpaceOnUse">
<stop stop-color="#F1D2BD"/>
<stop offset="1" stop-color="#FEB592"/>
</linearGradient>
</defs>
</svg>
