<svg width="20" height="20" viewBox="0 0 20 20" fill="none" xmlns="http://www.w3.org/2000/svg">
<mask id="mask0_116_1709" style="mask-type:alpha" maskUnits="userSpaceOnUse" x="0" y="0" width="20" height="20">
<rect width="20" height="20" fill="#D9D9D9"/>
</mask>
<g mask="url(#mask0_116_1709)">
<path d="M6.95586 11.298H13.0454V10.9999C13.0454 10.4742 12.7626 10.0453 12.1969 9.71304C11.6312 9.38082 10.8991 9.21471 10.0007 9.21471C9.10218 9.21471 8.37009 9.38082 7.8044 9.71304C7.23871 10.0453 6.95586 10.4742 6.95586 10.9999V11.298ZM10.0007 8.12492C10.4055 8.12492 10.7498 7.98311 11.0336 7.6995C11.3172 7.41575 11.459 7.07145 11.459 6.66658C11.459 6.26172 11.3172 5.91742 11.0336 5.63367C10.7498 5.35006 10.4055 5.20825 10.0007 5.20825C9.59579 5.20825 9.25148 5.35006 8.96773 5.63367C8.68412 5.91742 8.54232 6.26172 8.54232 6.66658C8.54232 7.07145 8.68412 7.41575 8.96773 7.6995C9.25148 7.98311 9.59579 8.12492 10.0007 8.12492ZM5.03273 14.5833L3.3644 16.2514C3.12732 16.4886 2.85461 16.5423 2.54628 16.4126C2.23808 16.2828 2.08398 16.049 2.08398 15.7114V3.58971C2.08398 3.16874 2.22982 2.81242 2.52148 2.52075C2.81315 2.22909 3.16947 2.08325 3.59044 2.08325H16.4109C16.8318 2.08325 17.1882 2.22909 17.4798 2.52075C17.7715 2.81242 17.9173 3.16874 17.9173 3.58971V13.0768C17.9173 13.4978 17.7715 13.8541 17.4798 14.1458C17.1882 14.4374 16.8318 14.5833 16.4109 14.5833H5.03273Z" fill="#A421D9"/>
</g>
</svg>
