<svg width="15" height="16" viewBox="0 0 15 16" fill="none" xmlns="http://www.w3.org/2000/svg">
<path d="M1.50646 15.4085C1.08549 15.4085 0.729167 15.2675 0.4375 14.9853C0.145833 14.7032 0 14.3585 0 13.9513V3.16227C0 2.75507 0.145833 2.4104 0.4375 2.12827C0.729167 1.84614 1.08549 1.70507 1.50646 1.70507H2.66021V0.61988C2.66021 0.443213 2.72139 0.295699 2.84375 0.177339C2.96611 0.0591127 3.11861 0 3.30125 0C3.48403 0 3.63653 0.0591127 3.75875 0.177339C3.88111 0.295699 3.94229 0.443213 3.94229 0.61988V1.70507H10.2565V0.604564C10.2565 0.433002 10.3162 0.289317 10.4358 0.17351C10.5556 0.0578363 10.7041 0 10.8815 0C11.0588 0 11.2073 0.0578363 11.3269 0.17351C11.4466 0.289317 11.5065 0.433002 11.5065 0.604564V1.70507H12.6602C13.0812 1.70507 13.4375 1.84614 13.7292 2.12827C14.0208 2.4104 14.1667 2.75507 14.1667 3.16227V13.9513C14.1667 14.3585 14.0208 14.7032 13.7292 14.9853C13.4375 15.2675 13.0812 15.4085 12.6602 15.4085H1.50646ZM1.50646 14.1994H12.6602C12.7244 14.1994 12.7831 14.1735 12.8365 14.1218C12.8899 14.0702 12.9167 14.0134 12.9167 13.9513V6.38661H1.25V13.9513C1.25 14.0134 1.27674 14.0702 1.33021 14.1218C1.38354 14.1735 1.44229 14.1994 1.50646 14.1994ZM7.08333 9.42495C6.87931 9.42495 6.70542 9.35543 6.56167 9.21638C6.41806 9.07746 6.34625 8.90926 6.34625 8.71177C6.34625 8.51441 6.41806 8.34621 6.56167 8.20716C6.70542 8.06824 6.87931 7.99879 7.08333 7.99879C7.28736 7.99879 7.46125 8.06824 7.605 8.20716C7.74861 8.34621 7.82042 8.51441 7.82042 8.71177C7.82042 8.90926 7.74861 9.07746 7.605 9.21638C7.46125 9.35543 7.28736 9.42495 7.08333 9.42495ZM3.75 9.42495C3.54597 9.42495 3.37208 9.35543 3.22833 9.21638C3.08472 9.07746 3.01292 8.90926 3.01292 8.71177C3.01292 8.51441 3.08472 8.34621 3.22833 8.20716C3.37208 8.06824 3.54597 7.99879 3.75 7.99879C3.95403 7.99879 4.12792 8.06824 4.27167 8.20716C4.41528 8.34621 4.48708 8.51441 4.48708 8.71177C4.48708 8.90926 4.41528 9.07746 4.27167 9.21638C4.12792 9.35543 3.95403 9.42495 3.75 9.42495ZM10.4167 9.42495C10.2126 9.42495 10.0388 9.35543 9.895 9.21638C9.75139 9.07746 9.67958 8.90926 9.67958 8.71177C9.67958 8.51441 9.75139 8.34621 9.895 8.20716C10.0388 8.06824 10.2126 7.99879 10.4167 7.99879C10.6207 7.99879 10.7946 8.06824 10.9383 8.20716C11.0819 8.34621 11.1538 8.51441 11.1538 8.71177C11.1538 8.90926 11.0819 9.07746 10.9383 9.21638C10.7946 9.35543 10.6207 9.42495 10.4167 9.42495ZM7.08333 12.5872C6.87931 12.5872 6.70542 12.5177 6.56167 12.3787C6.41806 12.2397 6.34625 12.0716 6.34625 11.8742C6.34625 11.6768 6.41806 11.5085 6.56167 11.3696C6.70542 11.2306 6.87931 11.1611 7.08333 11.1611C7.28736 11.1611 7.46125 11.2306 7.605 11.3696C7.74861 11.5085 7.82042 11.6768 7.82042 11.8742C7.82042 12.0716 7.74861 12.2397 7.605 12.3787C7.46125 12.5177 7.28736 12.5872 7.08333 12.5872ZM3.75 12.5872C3.54597 12.5872 3.37208 12.5177 3.22833 12.3787C3.08472 12.2397 3.01292 12.0716 3.01292 11.8742C3.01292 11.6768 3.08472 11.5085 3.22833 11.3696C3.37208 11.2306 3.54597 11.1611 3.75 11.1611C3.95403 11.1611 4.12792 11.2306 4.27167 11.3696C4.41528 11.5085 4.48708 11.6768 4.48708 11.8742C4.48708 12.0716 4.41528 12.2397 4.27167 12.3787C4.12792 12.5177 3.95403 12.5872 3.75 12.5872ZM10.4167 12.5872C10.2126 12.5872 10.0388 12.5177 9.895 12.3787C9.75139 12.2397 9.67958 12.0716 9.67958 11.8742C9.67958 11.6768 9.75139 11.5085 9.895 11.3696C10.0388 11.2306 10.2126 11.1611 10.4167 11.1611C10.6207 11.1611 10.7946 11.2306 10.9383 11.3696C11.0819 11.5085 11.1538 11.6768 11.1538 11.8742C11.1538 12.0716 11.0819 12.2397 10.9383 12.3787C10.7946 12.5177 10.6207 12.5872 10.4167 12.5872Z" fill="#A421D9"/>
</svg>
