<svg width="35" height="34" viewBox="0 0 35 34" fill="none" xmlns="http://www.w3.org/2000/svg">
<path d="M7.24968 25.4999C8.66634 24.4166 10.2497 23.5624 11.9997 22.9374C13.7497 22.3124 15.583 21.9999 17.4997 21.9999C19.4163 21.9999 21.2497 22.3124 22.9997 22.9374C24.7497 23.5624 26.333 24.4166 27.7497 25.4999C28.7219 24.361 29.4788 23.0694 30.0205 21.6249C30.5622 20.1805 30.833 18.6388 30.833 16.9999C30.833 13.3055 29.5344 10.1596 26.9372 7.56242C24.34 4.9652 21.1941 3.66659 17.4997 3.66659C13.8052 3.66659 10.6594 4.9652 8.06218 7.56242C5.46495 10.1596 4.16634 13.3055 4.16634 16.9999C4.16634 18.6388 4.43718 20.1805 4.97884 21.6249C5.52051 23.0694 6.27745 24.361 7.24968 25.4999ZM17.4997 18.6666C15.8608 18.6666 14.4788 18.1041 13.3538 16.9791C12.2288 15.8541 11.6663 14.4721 11.6663 12.8333C11.6663 11.1944 12.2288 9.81242 13.3538 8.68742C14.4788 7.56242 15.8608 6.99992 17.4997 6.99992C19.1386 6.99992 20.5205 7.56242 21.6455 8.68742C22.7705 9.81242 23.333 11.1944 23.333 12.8333C23.333 14.4721 22.7705 15.8541 21.6455 16.9791C20.5205 18.1041 19.1386 18.6666 17.4997 18.6666ZM17.4997 33.6666C15.1941 33.6666 13.0275 33.2291 10.9997 32.3541C8.9719 31.4791 7.20801 30.2916 5.70801 28.7916C4.20801 27.2916 3.02051 25.5277 2.14551 23.4999C1.27051 21.4721 0.833008 19.3055 0.833008 16.9999C0.833008 14.6944 1.27051 12.5277 2.14551 10.4999C3.02051 8.47214 4.20801 6.70825 5.70801 5.20825C7.20801 3.70825 8.9719 2.52075 10.9997 1.64575C13.0275 0.770752 15.1941 0.333252 17.4997 0.333252C19.8052 0.333252 21.9719 0.770752 23.9997 1.64575C26.0275 2.52075 27.7913 3.70825 29.2913 5.20825C30.7913 6.70825 31.9788 8.47214 32.8538 10.4999C33.7288 12.5277 34.1663 14.6944 34.1663 16.9999C34.1663 19.3055 33.7288 21.4721 32.8538 23.4999C31.9788 25.5277 30.7913 27.2916 29.2913 28.7916C27.7913 30.2916 26.0275 31.4791 23.9997 32.3541C21.9719 33.2291 19.8052 33.6666 17.4997 33.6666Z" fill="#A421D9"/>
</svg>
