<svg width="18" height="18" viewBox="0 0 18 18" fill="none" xmlns="http://www.w3.org/2000/svg">
<path d="M12 18C10.0333 18 8.28333 17.4417 6.75 16.325C5.21667 15.2083 4.13333 13.7667 3.5 12H1C0.716667 12 0.479167 11.9042 0.2875 11.7125C0.0958333 11.5208 0 11.2833 0 11C0 10.7167 0.0958333 10.4792 0.2875 10.2875C0.479167 10.0958 0.716667 10 1 10H3.05C3 9.6 2.97917 9.22917 2.9875 8.8875C2.99583 8.54583 3.01667 8.25 3.05 8H1C0.716667 8 0.479167 7.90417 0.2875 7.7125C0.0958333 7.52083 0 7.28333 0 7C0 6.71667 0.0958333 6.47917 0.2875 6.2875C0.479167 6.09583 0.716667 6 1 6H3.5C4.13333 4.23333 5.21667 2.79167 6.75 1.675C8.28333 0.558333 10.0333 0 12 0C12.9667 0 13.8875 0.141667 14.7625 0.425C15.6375 0.708333 16.45 1.11667 17.2 1.65C17.4333 1.81667 17.5583 2.0375 17.575 2.3125C17.5917 2.5875 17.5 2.81667 17.3 3C17.1 3.2 16.8583 3.30417 16.575 3.3125C16.2917 3.32083 16.0333 3.25 15.8 3.1C15.25 2.75 14.6542 2.47917 14.0125 2.2875C13.3708 2.09583 12.7 2 12 2C10.5833 2 9.31667 2.37083 8.2 3.1125C7.08333 3.85417 6.24167 4.81667 5.675 6H11C11.2833 6 11.5208 6.09583 11.7125 6.2875C11.9042 6.47917 12 6.71667 12 7C12 7.28333 11.9042 7.52083 11.7125 7.7125C11.5208 7.90417 11.2833 8 11 8H5.075C5.00833 8.45 4.98333 8.84583 5 9.1875C5.01667 9.52917 5.04167 9.8 5.075 10H11C11.2833 10 11.5208 10.0958 11.7125 10.2875C11.9042 10.4792 12 10.7167 12 11C12 11.2833 11.9042 11.5208 11.7125 11.7125C11.5208 11.9042 11.2833 12 11 12H5.675C6.24167 13.1833 7.08333 14.1458 8.2 14.8875C9.31667 15.6292 10.5833 16 12 16C12.7 16 13.3708 15.9 14.0125 15.7C14.6542 15.5 15.25 15.225 15.8 14.875C16.0333 14.725 16.2917 14.6583 16.575 14.675C16.8583 14.6917 17.1 14.8 17.3 15C17.5 15.1833 17.5917 15.4125 17.575 15.6875C17.5583 15.9625 17.4333 16.1833 17.2 16.35C16.45 16.8833 15.6375 17.2917 14.7625 17.575C13.8875 17.8583 12.9667 18 12 18Z" fill="#A421D9"/>
</svg>
