<svg width="24" height="24" viewBox="0 0 24 24" fill="none" xmlns="http://www.w3.org/2000/svg">
<mask id="mask0_116_1761" style="mask-type:alpha" maskUnits="userSpaceOnUse" x="0" y="0" width="24" height="24">
<rect width="24" height="24" fill="#D9D9D9"/>
</mask>
<g mask="url(#mask0_116_1761)">
<path d="M6.25 20.75C6.03717 20.75 5.859 20.6782 5.7155 20.5345C5.57183 20.391 5.5 20.2129 5.5 20V5.40404C5.5 5.14621 5.58625 4.93112 5.75875 4.75879C5.93108 4.58629 6.14617 4.50004 6.404 4.50004H10.1537C10.3987 4.50004 10.6048 4.59746 10.772 4.79229C10.9393 4.98729 11.016 5.21037 11.002 5.46154C10.9917 5.55387 10.9839 5.64362 10.9787 5.73079C10.9737 5.81796 10.9713 5.90771 10.9713 6.00004C11.0429 7.80771 11.7259 9.32437 13.0202 10.55C14.3144 11.7757 15.8589 12.3885 17.6538 12.3885C17.8038 12.3885 17.9538 12.3844 18.1038 12.376C18.2538 12.3677 18.3987 12.352 18.5385 12.3288C18.7935 12.2955 19.0175 12.3576 19.2105 12.5153C19.4035 12.6731 19.5 12.8745 19.5 13.1193V14.596C19.5 14.8539 19.4138 15.069 19.2413 15.2413C19.0689 15.4138 18.8538 15.5 18.596 15.5H14.152C13.9378 15.5 13.7471 15.433 13.5798 15.299C13.4126 15.165 13.3072 14.991 13.2635 14.777L13.004 13.5H7V20C7 20.2129 6.92817 20.391 6.7845 20.5345C6.641 20.6782 6.46283 20.75 6.25 20.75ZM17.6538 1.19629C18.9026 1.19629 19.9648 1.63412 20.8403 2.50979C21.7159 3.38529 22.1538 4.44746 22.1538 5.69629C22.1538 6.94496 21.7159 8.00712 20.8403 8.88279C19.9648 9.75829 18.9026 10.196 17.6538 10.196C16.4051 10.196 15.3429 9.75829 14.4672 8.88279C13.5916 8.00712 13.1538 6.94496 13.1538 5.69629C13.1538 4.44746 13.5916 3.38529 14.4672 2.50979C15.3429 1.63412 16.4051 1.19629 17.6538 1.19629ZM16.9385 6.13854L16.2193 5.41929C16.1013 5.30129 15.9631 5.24329 15.8048 5.24529C15.6464 5.24712 15.5051 5.31021 15.3807 5.43454C15.2564 5.55904 15.1943 5.69879 15.1943 5.85379C15.1943 6.00896 15.2564 6.14871 15.3807 6.27304L16.3057 7.19804C16.4866 7.37887 16.6975 7.46929 16.9385 7.46929C17.1795 7.46929 17.3903 7.37887 17.571 7.19804L19.927 4.85779C20.0448 4.73979 20.1054 4.59904 20.1087 4.43554C20.1119 4.27204 20.0513 4.12812 19.927 4.00379C19.8025 3.87946 19.6628 3.81987 19.5078 3.82504C19.3526 3.83021 19.2128 3.88979 19.0885 4.00379L16.9385 6.13854Z" fill="#A421D9"/>
</g>
</svg>
