<svg width="20" height="20" viewBox="0 0 20 20" fill="none" xmlns="http://www.w3.org/2000/svg">
<mask id="mask0_116_2890" style="mask-type:alpha" maskUnits="userSpaceOnUse" x="0" y="0" width="20" height="20">
<rect width="20" height="20" fill="#D9D9D9"/>
</mask>
<g mask="url(#mask0_116_2890)">
<path d="M3.6713 17.0834C3.45783 17.0834 3.27894 17.0112 3.13464 16.8667C2.99019 16.7224 2.91797 16.5436 2.91797 16.3301V14.8863C2.91797 14.6831 2.957 14.4895 3.03505 14.3053C3.11297 14.1211 3.22033 13.9606 3.35714 13.8238L13.9101 3.27571C14.036 3.16126 14.1751 3.07286 14.3273 3.0105C14.4797 2.948 14.6394 2.91675 14.8065 2.91675C14.9736 2.91675 15.1354 2.9464 15.2919 3.00571C15.4486 3.06501 15.5873 3.15932 15.708 3.28862L16.7257 4.31904C16.855 4.43973 16.9471 4.57862 17.0021 4.73571C17.0571 4.89279 17.0846 5.04987 17.0846 5.20696C17.0846 5.3746 17.056 5.53453 16.9988 5.68675C16.9416 5.83911 16.8505 5.97828 16.7257 6.10425L6.17755 16.6442C6.04075 16.7811 5.88026 16.8884 5.69609 16.9663C5.51193 17.0444 5.31825 17.0834 5.11505 17.0834H3.6713ZM14.628 6.41196L15.8346 5.21321L14.7882 4.16675L13.5894 5.37341L14.628 6.41196Z" fill="#015486"/>
</g>
</svg>
