<svg width="24" height="24" viewBox="0 0 24 24" fill="none" xmlns="http://www.w3.org/2000/svg">
<mask id="mask0_116_1657" style="mask-type:alpha" maskUnits="userSpaceOnUse" x="0" y="0" width="24" height="24">
<rect width="24" height="24" fill="#D9D9D9"/>
</mask>
<g mask="url(#mask0_116_1657)">
<path d="M7.09625 13.8077H8.45775C8.57825 13.8077 8.693 13.7859 8.802 13.7423C8.91083 13.6988 9.01208 13.6302 9.10575 13.5365L13.9538 8.673C14.0718 8.54867 14.1603 8.4115 14.2193 8.2615C14.2783 8.1115 14.3077 7.96408 14.3077 7.81925C14.3077 7.67442 14.2783 7.53208 14.2193 7.39225C14.1603 7.25258 14.0769 7.12058 13.9693 6.99625L13.0443 6.04625C12.9263 5.92825 12.7933 5.83975 12.6453 5.78075C12.4971 5.72175 12.3455 5.69225 12.1905 5.69225C12.0455 5.69225 11.9006 5.72017 11.7558 5.776C11.6109 5.83183 11.4763 5.92192 11.352 6.04625L6.4635 10.8943C6.36983 10.9879 6.30125 11.0892 6.25775 11.198C6.21408 11.307 6.19225 11.4218 6.19225 11.5423V12.9038C6.19225 13.1614 6.2785 13.3765 6.451 13.549C6.6235 13.7215 6.83858 13.8077 7.09625 13.8077ZM12.175 8.79425L11.225 7.8595L12.1905 6.89425L13.1155 7.84425L12.175 8.79425ZM11.5078 13.8077H17.0577C17.2706 13.8077 17.4487 13.7359 17.5922 13.5922C17.7359 13.4487 17.8077 13.2706 17.8077 13.0577C17.8077 12.8449 17.7359 12.6667 17.5922 12.523C17.4487 12.3795 17.2706 12.3077 17.0577 12.3077H13.0078L11.5078 13.8077ZM6.0385 17.5L4.0365 19.5018C3.752 19.7864 3.42475 19.8509 3.05475 19.6952C2.68492 19.5394 2.5 19.2589 2.5 18.8538V4.30775C2.5 3.80258 2.675 3.375 3.025 3.025C3.375 2.675 3.80258 2.5 4.30775 2.5H19.6923C20.1974 2.5 20.625 2.675 20.975 3.025C21.325 3.375 21.5 3.80258 21.5 4.30775V15.6923C21.5 16.1974 21.325 16.625 20.975 16.975C20.625 17.325 20.1974 17.5 19.6923 17.5H6.0385Z" fill="#A421D9"/>
</g>
</svg>
