<svg width="24" height="24" viewBox="0 0 24 24" fill="none" xmlns="http://www.w3.org/2000/svg">
<mask id="mask0_116_1650" style="mask-type:alpha" maskUnits="userSpaceOnUse" x="0" y="0" width="24" height="24">
<rect width="24" height="24" fill="#D9D9D9"/>
</mask>
<g mask="url(#mask0_116_1650)">
<path d="M16.464 21C15.7595 21 15.1614 20.752 14.6696 20.2561C14.178 19.7601 13.9322 19.1579 13.9322 18.4494C13.9322 18.3547 13.9648 18.1245 14.0299 17.7588L7.33671 13.7927C7.10988 14.0295 6.84039 14.215 6.52824 14.3492C6.21608 14.4834 5.88165 14.5506 5.52494 14.5506C4.82361 14.5506 4.22745 14.3016 3.73647 13.8036C3.24549 13.3056 3 12.7044 3 12C3 11.2956 3.24549 10.6944 3.73647 10.1964C4.22745 9.69845 4.82361 9.44945 5.52494 9.44945C5.88165 9.44945 6.21608 9.51655 6.52824 9.65076C6.84039 9.78497 7.10988 9.9705 7.33671 10.2073L14.0299 6.25018C13.9925 6.13366 13.9669 6.0195 13.9529 5.90771C13.9391 5.79592 13.9322 5.67687 13.9322 5.55055C13.9322 4.84208 14.1787 4.23987 14.6718 3.74392C15.1649 3.24797 15.7638 3 16.4682 3C17.1727 3 17.7707 3.24821 18.2624 3.74463C18.7541 4.24089 19 4.84358 19 5.55269C19 6.26179 18.7536 6.86384 18.2609 7.35884C17.7682 7.85368 17.17 8.10111 16.4661 8.10111C16.1077 8.10111 15.7744 8.0325 15.4661 7.89529C15.1577 7.75808 14.8901 7.57105 14.6633 7.33421L7.97012 11.3004C8.00745 11.4171 8.0331 11.5312 8.04706 11.6428C8.06086 11.7546 8.06776 11.8737 8.06776 12C8.06776 12.1263 8.06086 12.2454 8.04706 12.3572C8.0331 12.4688 8.00745 12.5829 7.97012 12.6996L14.6633 16.6658C14.8901 16.4289 15.1577 16.2419 15.4661 16.1047C15.7744 15.9675 16.1077 15.8989 16.4661 15.8989C17.17 15.8989 17.7682 16.147 18.2609 16.6433C18.7536 17.1397 19 17.7425 19 18.4516C19 19.1607 18.7534 19.7627 18.2602 20.2575C17.7672 20.7525 17.1685 21 16.464 21Z" fill="#A421D9"/>
</g>
</svg>
