<svg width="14" height="17" viewBox="0 0 14 17" fill="none" xmlns="http://www.w3.org/2000/svg">
<path d="M1.85547 15.3719V10.0834H1.35859C1.14526 10.0834 0.966372 10.0112 0.821927 9.86694C0.677621 9.72249 0.605469 9.5436 0.605469 9.33027V5.50006C0.605469 5.0952 0.747274 4.7509 1.03089 4.46714C1.3145 4.18353 1.6588 4.04173 2.0638 4.04173H4.43547C4.84047 4.04173 5.18477 4.18353 5.46839 4.46714C5.752 4.7509 5.8938 5.0952 5.8938 5.50006V9.33027C5.8938 9.5436 5.82165 9.72249 5.67734 9.86694C5.5329 10.0112 5.35401 10.0834 5.14068 10.0834H4.6438V15.3719C4.6438 15.5853 4.57165 15.7642 4.42734 15.9086C4.2829 16.0529 4.10401 16.1251 3.89068 16.1251H2.60859C2.39526 16.1251 2.21637 16.0529 2.07193 15.9086C1.92762 15.7642 1.85547 15.5853 1.85547 15.3719ZM3.24964 3.19235C2.82339 3.19235 2.4604 3.04249 2.16068 2.74277C1.86095 2.44319 1.71109 2.08027 1.71109 1.65402C1.71109 1.22763 1.86095 0.864646 2.16068 0.565062C2.4604 0.26534 2.82339 0.115479 3.24964 0.115479C3.67589 0.115479 4.03887 0.26534 4.33859 0.565062C4.63832 0.864646 4.78818 1.22763 4.78818 1.65402C4.78818 2.08027 4.63832 2.44319 4.33859 2.74277C4.03887 3.04249 3.67589 3.19235 3.24964 3.19235ZM9.70797 15.3719V11.3334H8.45797C8.21227 11.3334 8.01276 11.2321 7.85943 11.0296C7.70609 10.8273 7.67005 10.6032 7.7513 10.3574L9.34901 5.02256C9.44415 4.7077 9.61963 4.46555 9.87547 4.2961C10.1313 4.12652 10.4227 4.04173 10.7496 4.04173C11.0766 4.04173 11.368 4.12652 11.6238 4.2961C11.8796 4.46555 12.0551 4.7077 12.1503 5.02256L13.748 10.3574C13.8292 10.6032 13.7932 10.8273 13.6398 11.0296C13.4865 11.2321 13.287 11.3334 13.0413 11.3334H11.7913V15.3719C11.7913 15.5853 11.7191 15.7642 11.5748 15.9086C11.4304 16.0529 11.2515 16.1251 11.0382 16.1251H10.4611C10.2478 16.1251 10.0689 16.0529 9.92443 15.9086C9.78012 15.7642 9.70797 15.5853 9.70797 15.3719ZM10.7496 3.19235C10.3234 3.19235 9.9604 3.04249 9.66068 2.74277C9.36095 2.44319 9.21109 2.08027 9.21109 1.65402C9.21109 1.22763 9.36095 0.864646 9.66068 0.565062C9.9604 0.26534 10.3234 0.115479 10.7496 0.115479C11.1759 0.115479 11.5389 0.26534 11.8386 0.565062C12.1383 0.864646 12.2882 1.22763 12.2882 1.65402C12.2882 2.08027 12.1383 2.44319 11.8386 2.74277C11.5389 3.04249 11.1759 3.19235 10.7496 3.19235Z" fill="#A421D9"/>
</svg>
