<svg width="20" height="20" viewBox="0 0 20 20" fill="none" xmlns="http://www.w3.org/2000/svg">
<mask id="mask0_116_1727" style="mask-type:alpha" maskUnits="userSpaceOnUse" x="0" y="0" width="20" height="20">
<rect width="20" height="20" fill="#D9D9D9"/>
</mask>
<g mask="url(#mask0_116_1727)">
<path d="M4.85547 17.3719V12.0834H4.35859C4.14526 12.0834 3.96637 12.0112 3.82193 11.8669C3.67762 11.7225 3.60547 11.5436 3.60547 11.3303V7.50006C3.60547 7.0952 3.74727 6.7509 4.03089 6.46714C4.3145 6.18353 4.6588 6.04173 5.0638 6.04173H7.43547C7.84047 6.04173 8.18477 6.18353 8.46839 6.46714C8.752 6.7509 8.8938 7.0952 8.8938 7.50006V11.3303C8.8938 11.5436 8.82165 11.7225 8.67734 11.8669C8.5329 12.0112 8.35401 12.0834 8.14068 12.0834H7.6438V17.3719C7.6438 17.5853 7.57165 17.7642 7.42734 17.9086C7.2829 18.0529 7.10401 18.1251 6.89068 18.1251H5.60859C5.39526 18.1251 5.21637 18.0529 5.07193 17.9086C4.92762 17.7642 4.85547 17.5853 4.85547 17.3719ZM6.24964 5.19235C5.82339 5.19235 5.4604 5.04249 5.16068 4.74277C4.86095 4.44319 4.71109 4.08027 4.71109 3.65402C4.71109 3.22763 4.86095 2.86465 5.16068 2.56506C5.4604 2.26534 5.82339 2.11548 6.24964 2.11548C6.67589 2.11548 7.03887 2.26534 7.33859 2.56506C7.63832 2.86465 7.78818 3.22763 7.78818 3.65402C7.78818 4.08027 7.63832 4.44319 7.33859 4.74277C7.03887 5.04249 6.67589 5.19235 6.24964 5.19235ZM12.708 17.3719V13.3334H11.458C11.2123 13.3334 11.0128 13.2321 10.8594 13.0296C10.7061 12.8273 10.6701 12.6032 10.7513 12.3574L12.349 7.02256C12.4441 6.7077 12.6196 6.46555 12.8755 6.2961C13.1313 6.12652 13.4227 6.04173 13.7496 6.04173C14.0766 6.04173 14.368 6.12652 14.6238 6.2961C14.8796 6.46555 15.0551 6.7077 15.1503 7.02256L16.748 12.3574C16.8292 12.6032 16.7932 12.8273 16.6398 13.0296C16.4865 13.2321 16.287 13.3334 16.0413 13.3334H14.7913V17.3719C14.7913 17.5853 14.7191 17.7642 14.5748 17.9086C14.4304 18.0529 14.2515 18.1251 14.0382 18.1251H13.4611C13.2478 18.1251 13.0689 18.0529 12.9244 17.9086C12.7801 17.7642 12.708 17.5853 12.708 17.3719ZM13.7496 5.19235C13.3234 5.19235 12.9604 5.04249 12.6607 4.74277C12.361 4.44319 12.2111 4.08027 12.2111 3.65402C12.2111 3.22763 12.361 2.86465 12.6607 2.56506C12.9604 2.26534 13.3234 2.11548 13.7496 2.11548C14.1759 2.11548 14.5389 2.26534 14.8386 2.56506C15.1383 2.86465 15.2882 3.22763 15.2882 3.65402C15.2882 4.08027 15.1383 4.44319 14.8386 4.74277C14.5389 5.04249 14.1759 5.19235 13.7496 5.19235Z" fill="#A421D9"/>
</g>
</svg>
