<svg width="20" height="20" viewBox="0 0 20 20" fill="none" xmlns="http://www.w3.org/2000/svg">
<mask id="mask0_116_1791" style="mask-type:alpha" maskUnits="userSpaceOnUse" x="0" y="0" width="20" height="20">
<rect width="20" height="20" fill="#D9D9D9"/>
</mask>
<g mask="url(#mask0_116_1791)">
<path d="M10.3333 18.1217C9.19444 18.1217 8.11806 17.9101 7.10417 17.4869C6.09028 17.0637 5.20486 16.486 4.44792 15.7538C3.69097 15.0216 3.09375 14.1652 2.65625 13.1844C2.21875 12.2037 2 11.1625 2 10.0609C2 8.94577 2.21875 7.90122 2.65625 6.9272C3.09375 5.95318 3.69097 5.10007 4.44792 4.36788C5.20486 3.63568 6.09028 3.05799 7.10417 2.63479C8.11806 2.2116 9.19444 2 10.3333 2C11.4861 2 12.566 2.2116 13.5729 2.63479C14.5799 3.05799 15.4618 3.63568 16.2188 4.36788C16.9757 5.10007 17.5729 5.95318 18.0104 6.9272C18.4479 7.90122 18.6667 8.94577 18.6667 10.0609C18.6667 11.1625 18.4479 12.2037 18.0104 13.1844C17.5729 14.1652 16.9757 15.0216 16.2188 15.7538C15.4618 16.486 14.5799 17.0637 13.5729 17.4869C12.566 17.9101 11.4861 18.1217 10.3333 18.1217ZM10.3333 16.4692C10.6944 15.9856 11.0069 15.4818 11.2708 14.9578C11.5347 14.4339 11.75 13.8763 11.9167 13.2852H8.75C8.91667 13.8763 9.13194 14.4339 9.39583 14.9578C9.65972 15.4818 9.97222 15.9856 10.3333 16.4692ZM8.16667 16.1468C7.91667 15.7035 7.69792 15.2433 7.51042 14.7664C7.32292 14.2894 7.16667 13.7957 7.04167 13.2852H4.58333C4.98611 13.9569 5.48958 14.5413 6.09375 15.0384C6.69792 15.5355 7.38889 15.905 8.16667 16.1468ZM12.5 16.1468C13.2778 15.905 13.9688 15.5355 14.5729 15.0384C15.1771 14.5413 15.6806 13.9569 16.0833 13.2852H13.625C13.5 13.7957 13.3438 14.2894 13.1562 14.7664C12.9688 15.2433 12.75 15.7035 12.5 16.1468ZM3.875 11.673H6.70833C6.66667 11.4043 6.63542 11.139 6.61458 10.877C6.59375 10.615 6.58333 10.343 6.58333 10.0609C6.58333 9.77872 6.59375 9.50667 6.61458 9.24469C6.63542 8.98271 6.66667 8.71738 6.70833 8.44868H3.875C3.80556 8.71738 3.75347 8.98271 3.71875 9.24469C3.68403 9.50667 3.66667 9.77872 3.66667 10.0609C3.66667 10.343 3.68403 10.615 3.71875 10.877C3.75347 11.139 3.80556 11.4043 3.875 11.673ZM8.375 11.673H12.2917C12.3333 11.4043 12.3646 11.139 12.3854 10.877C12.4062 10.615 12.4167 10.343 12.4167 10.0609C12.4167 9.77872 12.4062 9.50667 12.3854 9.24469C12.3646 8.98271 12.3333 8.71738 12.2917 8.44868H8.375C8.33333 8.71738 8.30208 8.98271 8.28125 9.24469C8.26042 9.50667 8.25 9.77872 8.25 10.0609C8.25 10.343 8.26042 10.615 8.28125 10.877C8.30208 11.139 8.33333 11.4043 8.375 11.673ZM13.9583 11.673H16.7917C16.8611 11.4043 16.9132 11.139 16.9479 10.877C16.9826 10.615 17 10.343 17 10.0609C17 9.77872 16.9826 9.50667 16.9479 9.24469C16.9132 8.98271 16.8611 8.71738 16.7917 8.44868H13.9583C14 8.71738 14.0312 8.98271 14.0521 9.24469C14.0729 9.50667 14.0833 9.77872 14.0833 10.0609C14.0833 10.343 14.0729 10.615 14.0521 10.877C14.0312 11.139 14 11.4043 13.9583 11.673ZM13.625 6.83651H16.0833C15.6806 6.16477 15.1771 5.58036 14.5729 5.08328C13.9688 4.58619 13.2778 4.21673 12.5 3.97491C12.75 4.41826 12.9688 4.8784 13.1562 5.35533C13.3438 5.83226 13.5 6.32599 13.625 6.83651ZM8.75 6.83651H11.9167C11.75 6.24538 11.5347 5.68784 11.2708 5.16388C11.0069 4.63993 10.6944 4.13613 10.3333 3.65247C9.97222 4.13613 9.65972 4.63993 9.39583 5.16388C9.13194 5.68784 8.91667 6.24538 8.75 6.83651ZM4.58333 6.83651H7.04167C7.16667 6.32599 7.32292 5.83226 7.51042 5.35533C7.69792 4.8784 7.91667 4.41826 8.16667 3.97491C7.38889 4.21673 6.69792 4.58619 6.09375 5.08328C5.48958 5.58036 4.98611 6.16477 4.58333 6.83651Z" fill="#A421D9"/>
</g>
</svg>
