<svg width="20" height="20" viewBox="0 0 20 20" fill="none" xmlns="http://www.w3.org/2000/svg">
<mask id="mask0_116_1691" style="mask-type:alpha" maskUnits="userSpaceOnUse" x="0" y="0" width="20" height="20">
<rect width="20" height="20" fill="#D9D9D9"/>
</mask>
<g mask="url(#mask0_116_1691)">
<path d="M3.50208 10.681C2.87681 10.681 2.34514 10.4616 1.90708 10.0228C1.46903 9.58395 1.25 9.0511 1.25 8.4243C1.25 7.79735 1.46889 7.26624 1.90667 6.83096C2.34431 6.39555 2.87576 6.17784 3.50104 6.17784C4.12646 6.17784 4.65819 6.39596 5.09625 6.83221C5.53417 7.26846 5.75312 7.79819 5.75312 8.42138C5.75312 9.04902 5.53431 9.58256 5.09667 10.022C4.65889 10.4613 4.12736 10.681 3.50208 10.681ZM2.75646 15.5126C2.56576 15.5126 2.4059 15.4482 2.27688 15.3193C2.14785 15.1903 2.08333 15.0304 2.08333 14.8397C2.08333 14.649 2.14785 14.4892 2.27688 14.3601C2.4059 14.2311 2.56576 14.1666 2.75646 14.1666H17.2435C17.4342 14.1666 17.5941 14.2311 17.7231 14.3601C17.8522 14.4892 17.9167 14.649 17.9167 14.8397C17.9167 15.0304 17.8522 15.1903 17.7231 15.3193C17.5941 15.4482 17.4342 15.5126 17.2435 15.5126H2.75646ZM10.0004 10.673C9.37514 10.673 8.84347 10.4542 8.40542 10.0164C7.96736 9.57874 7.74833 9.04721 7.74833 8.4218C7.74833 7.79652 7.96722 7.26485 8.405 6.8268C8.84278 6.38888 9.37431 6.16992 9.99958 6.16992C10.6249 6.16992 11.1565 6.38874 11.5946 6.82638C12.0326 7.26416 12.2517 7.79569 12.2517 8.42096C12.2517 9.04624 12.0328 9.57791 11.595 10.016C11.1572 10.454 10.6257 10.673 10.0004 10.673ZM16.499 10.673C15.8735 10.673 15.3418 10.4542 14.9038 10.0164C14.4658 9.57874 14.2469 9.04721 14.2469 8.4218C14.2469 7.79652 14.4657 7.26485 14.9033 6.8268C15.3411 6.38888 15.8726 6.16992 16.4979 6.16992C17.1232 6.16992 17.6549 6.38874 18.0929 6.82638C18.531 7.26416 18.75 7.79569 18.75 8.42096C18.75 9.04624 18.5311 9.57791 18.0933 10.016C17.6557 10.454 17.1242 10.673 16.499 10.673Z" fill="#A421D9"/>
</g>
</svg>
